<?xml version="1.0" encoding="UTF-8"?>
<svg xmlns="http://www.w3.org/2000/svg" xmlns:xlink="http://www.w3.org/1999/xlink"
     width="176" height="600" viewBox="0 -600 176 600">
<defs>
</defs>
<path d="M10.2,-400 L86.0,-400 L86.0,-350 L10.2,-350 L10.2,-400 Z" fill="white" stroke="white" stroke-width="4" />
<path d="M10.2,-400 L17.09090909090909,-400 L17.09090909090909,-350 L10.2,-350 L10.2,-400 Z" fill="black" />
<path d="M17.09090909090909,-400 L23.98181818181818,-400 L23.98181818181818,-350 L17.09090909090909,-350 L17.09090909090909,-400 Z" fill="#f0f0f0" />
<path d="M23.98181818181818,-400 L30.87272727272727,-400 L30.87272727272727,-350 L23.98181818181818,-350 L23.98181818181818,-400 Z" fill="black" />
<path d="M30.87272727272727,-400 L37.763636363636365,-400 L37.763636363636365,-350 L30.87272727272727,-350 L30.87272727272727,-400 Z" fill="#f0f0f0" />
<path d="M37.763636363636365,-400 L44.654545454545456,-400 L44.654545454545456,-350 L37.763636363636365,-350 L37.763636363636365,-400 Z" fill="black" />
<path d="M44.654545454545456,-400 L51.54545454545455,-400 L51.54545454545455,-350 L44.654545454545456,-350 L44.654545454545456,-400 Z" fill="#f0f0f0" />
<path d="M51.54545454545455,-400 L58.43636363636364,-400 L58.43636363636364,-350 L51.54545454545455,-350 L51.54545454545455,-400 Z" fill="black" />
<path d="M58.43636363636364,-400 L65.32727272727273,-400 L65.32727272727273,-350 L58.43636363636364,-350 L58.43636363636364,-400 Z" fill="#f0f0f0" />
<path d="M65.32727272727273,-400 L72.21818181818182,-400 L72.21818181818182,-350 L65.32727272727273,-350 L65.32727272727273,-400 Z" fill="black" />
<path d="M72.21818181818182,-400 L79.10909090909091,-400 L79.10909090909091,-350 L72.21818181818182,-350 L72.21818181818182,-400 Z" fill="#f0f0f0" />
<path d="M79.10909090909091,-400 L86.0,-400 L86.0,-350 L79.10909090909091,-350 L79.10909090909091,-400 Z" fill="black" />
<text x="10.2" y="-410" font-size="26" fill="black" dy="0em">CRISPR</text>
<text x="16.0" y="-460" font-size="38" fill="black" dy="0em">Unknown: JAADEF010000026_1 (64-443)</text>
<path d="M10.2,-200 L44.800000000000004,-200 L44.800000000000004,-150 L10.2,-150 L10.2,-200 Z" fill="white" stroke="white" stroke-width="4" />
<path d="M10.2,-200 L17.119999999999997,-200 L17.119999999999997,-150 L10.2,-150 L10.2,-200 Z" fill="black" />
<path d="M17.119999999999997,-200 L24.04,-200 L24.04,-150 L17.119999999999997,-150 L17.119999999999997,-200 Z" fill="#f0f0f0" />
<path d="M24.04,-200 L30.96,-200 L30.96,-150 L24.04,-150 L24.04,-200 Z" fill="black" />
<path d="M30.96,-200 L37.88,-200 L37.88,-150 L30.96,-150 L30.96,-200 Z" fill="#f0f0f0" />
<path d="M37.88,-200 L44.800000000000004,-200 L44.800000000000004,-150 L37.88,-150 L37.88,-200 Z" fill="black" />
<text x="10.2" y="-210" font-size="26" fill="black" dy="0em">CRISPR</text>
<text x="16.0" y="-260" font-size="38" fill="black" dy="0em">Unknown: JAADEF010000063_2 (1-174)</text>
</svg>