<?xml version="1.0" encoding="UTF-8"?>
<svg xmlns="http://www.w3.org/2000/svg" xmlns:xlink="http://www.w3.org/1999/xlink"
     width="972" height="600" viewBox="0 -600 972 600">
<defs>
</defs>
<path d="M210,-20 L210,-520" stroke="grey" stroke-width="1" fill="none" />
<text x="160" y="-530" font-size="22" fill="grey" dy="0em">1000</text>
<path d="M410,-20 L410,-520" stroke="grey" stroke-width="1" fill="none" />
<text x="360" y="-530" font-size="22" fill="grey" dy="0em">2000</text>
<path d="M610,-20 L610,-520" stroke="grey" stroke-width="1" fill="none" />
<text x="560" y="-530" font-size="22" fill="grey" dy="0em">3000</text>
<path d="M810,-20 L810,-520" stroke="grey" stroke-width="1" fill="none" />
<text x="760" y="-530" font-size="22" fill="grey" dy="0em">4000</text>
<text x="16.0" y="-460" font-size="38" fill="black" dy="0em">V-F1: MNVE01000014@1 (30635-34993)</text>
<path d="M10.2,-400 L176.8,-400 L206.8,-375.0 L176.8,-350 L10.2,-350 L10.2,-400 Z" fill="#5b5ea6" fill-opacity="0.8" stroke="#5b5ea6" stroke-width="4" />
<text x="10.2" y="-410" font-size="26" fill="black" dy="0em">Cas1</text>
<path d="M207.20000000000002,-400 L236.40000000000003,-400 L266.40000000000003,-375.0 L236.40000000000003,-350 L207.20000000000002,-350 L207.20000000000002,-400 Z" fill="#5b5ea6" fill-opacity="0.8" stroke="#5b5ea6" stroke-width="4" />
<text x="207.20000000000002" y="-320" font-size="26" fill="black" dy="0em">Cas2</text>
<path d="M265.8,-400 L358.0,-400 L388.0,-375.0 L358.0,-350 L265.8,-350 L265.8,-400 Z" fill="#5b5ea6" fill-opacity="0.8" stroke="#5b5ea6" stroke-width="4" />
<text x="265.8" y="-410" font-size="26" fill="black" dy="0em">Cas4</text>
<path d="M388.6,-400 L684.2,-400 L714.2,-375.0 L684.2,-350 L388.6,-350 L388.6,-400 Z" fill="#efc050" fill-opacity="0.8" stroke="#efc050" stroke-width="4" />
<text x="388.6" y="-320" font-size="26" fill="black" dy="0em">Cas12f1</text>
<path d="M771.4000000000001,-400 L881.8000000000001,-400 L881.8000000000001,-350 L771.4000000000001,-350 L771.4000000000001,-400 Z" fill="white" stroke="white" stroke-width="4" />
<path d="M771.4000000000001,-400 L778.7600000000001,-400 L778.7600000000001,-350 L771.4000000000001,-350 L771.4000000000001,-400 Z" fill="black" />
<path d="M778.7600000000001,-400 L786.1200000000001,-400 L786.1200000000001,-350 L778.7600000000001,-350 L778.7600000000001,-400 Z" fill="#f0f0f0" />
<path d="M786.1200000000001,-400 L793.4800000000001,-400 L793.4800000000001,-350 L786.1200000000001,-350 L786.1200000000001,-400 Z" fill="black" />
<path d="M793.4800000000001,-400 L800.8400000000001,-400 L800.8400000000001,-350 L793.4800000000001,-350 L793.4800000000001,-400 Z" fill="#f0f0f0" />
<path d="M800.8400000000001,-400 L808.2000000000002,-400 L808.2000000000002,-350 L800.8400000000001,-350 L800.8400000000001,-400 Z" fill="black" />
<path d="M808.2000000000002,-400 L815.5600000000002,-400 L815.5600000000002,-350 L808.2000000000002,-350 L808.2000000000002,-400 Z" fill="#f0f0f0" />
<path d="M815.5600000000002,-400 L822.9200000000002,-400 L822.9200000000002,-350 L815.5600000000002,-350 L815.5600000000002,-400 Z" fill="black" />
<path d="M822.9200000000002,-400 L830.2800000000002,-400 L830.2800000000002,-350 L822.9200000000002,-350 L822.9200000000002,-400 Z" fill="#f0f0f0" />
<path d="M830.2800000000002,-400 L837.6400000000002,-400 L837.6400000000002,-350 L830.2800000000002,-350 L830.2800000000002,-400 Z" fill="black" />
<path d="M837.6400000000002,-400 L845.0000000000002,-400 L845.0000000000002,-350 L837.6400000000002,-350 L837.6400000000002,-400 Z" fill="#f0f0f0" />
<path d="M845.0000000000002,-400 L852.3600000000002,-400 L852.3600000000002,-350 L845.0000000000002,-350 L845.0000000000002,-400 Z" fill="black" />
<path d="M852.3600000000002,-400 L859.7200000000003,-400 L859.7200000000003,-350 L852.3600000000002,-350 L852.3600000000002,-400 Z" fill="#f0f0f0" />
<path d="M859.7200000000003,-400 L867.0800000000003,-400 L867.0800000000003,-350 L859.7200000000003,-350 L859.7200000000003,-400 Z" fill="black" />
<path d="M867.0800000000003,-400 L874.4400000000003,-400 L874.4400000000003,-350 L867.0800000000003,-350 L867.0800000000003,-400 Z" fill="#f0f0f0" />
<path d="M874.4400000000003,-400 L881.8000000000003,-400 L881.8000000000003,-350 L874.4400000000003,-350 L874.4400000000003,-400 Z" fill="black" />
<text x="771.4000000000001" y="-410" font-size="26" fill="black" dy="0em">CRISPR</text>
<path d="M10.2,-200 L46.6,-200 L46.6,-150 L10.2,-150 L10.2,-200 Z" fill="white" stroke="white" stroke-width="4" />
<path d="M10.2,-200 L17.479999999999997,-200 L17.479999999999997,-150 L10.2,-150 L10.2,-200 Z" fill="black" />
<path d="M17.479999999999997,-200 L24.759999999999998,-200 L24.759999999999998,-150 L17.479999999999997,-150 L17.479999999999997,-200 Z" fill="#f0f0f0" />
<path d="M24.759999999999998,-200 L32.04,-200 L32.04,-150 L24.759999999999998,-150 L24.759999999999998,-200 Z" fill="black" />
<path d="M32.04,-200 L39.32,-200 L39.32,-150 L32.04,-150 L32.04,-200 Z" fill="#f0f0f0" />
<path d="M39.32,-200 L46.6,-200 L46.6,-150 L39.32,-150 L39.32,-200 Z" fill="black" />
<text x="10.2" y="-210" font-size="26" fill="black" dy="0em">CRISPR</text>
<text x="16.0" y="-260" font-size="38" fill="black" dy="0em">Unknown: MNVE01000010_2 (2-184)</text>
</svg>