<?xml version="1.0" encoding="UTF-8"?>
<svg xmlns="http://www.w3.org/2000/svg" xmlns:xlink="http://www.w3.org/1999/xlink"
     width="957" height="600" viewBox="0 -600 957 600">
<defs>
</defs>
<path d="M210,-20 L210,-520" stroke="grey" stroke-width="1" fill="none" />
<text x="160" y="-530" font-size="22" fill="grey" dy="0em">1000</text>
<path d="M410,-20 L410,-520" stroke="grey" stroke-width="1" fill="none" />
<text x="360" y="-530" font-size="22" fill="grey" dy="0em">2000</text>
<path d="M610,-20 L610,-520" stroke="grey" stroke-width="1" fill="none" />
<text x="560" y="-530" font-size="22" fill="grey" dy="0em">3000</text>
<path d="M810,-20 L810,-520" stroke="grey" stroke-width="1" fill="none" />
<text x="760" y="-530" font-size="22" fill="grey" dy="0em">4000</text>
<text x="16.0" y="-460" font-size="38" fill="black" dy="0em">V-F1: DALG01000019@1 (58-4343)</text>
<path d="M193.20000000000002,-400 L490.0,-400 L490.0,-350 L193.20000000000002,-350 L163.20000000000002,-375.0 L193.20000000000002,-400 Z" fill="#efc050" fill-opacity="0.8" stroke="#efc050" stroke-width="4" />
<text x="163.20000000000002" y="-410" font-size="26" fill="black" dy="0em">Cas12f1</text>
<path d="M519.4000000000001,-400 L611.6,-400 L611.6,-350 L519.4000000000001,-350 L489.40000000000003,-375.0 L519.4000000000001,-400 Z" fill="#5b5ea6" fill-opacity="0.8" stroke="#5b5ea6" stroke-width="4" />
<text x="489.40000000000003" y="-320" font-size="26" fill="black" dy="0em">Cas4</text>
<path d="M641.0,-400 L670.2,-400 L670.2,-350 L641.0,-350 L611.0,-375.0 L641.0,-400 Z" fill="#5b5ea6" fill-opacity="0.8" stroke="#5b5ea6" stroke-width="4" />
<text x="611.0" y="-410" font-size="26" fill="black" dy="0em">Cas2</text>
<path d="M700.6,-400 L867.2,-400 L867.2,-350 L700.6,-350 L670.6,-375.0 L700.6,-400 Z" fill="#5b5ea6" fill-opacity="0.8" stroke="#5b5ea6" stroke-width="4" />
<text x="670.6" y="-320" font-size="26" fill="black" dy="0em">Cas1</text>
<path d="M10.2,-400 L106.0,-400 L106.0,-350 L10.2,-350 L10.2,-400 Z" fill="white" stroke="white" stroke-width="4" />
<path d="M10.2,-400 L17.569230769230767,-400 L17.569230769230767,-350 L10.2,-350 L10.2,-400 Z" fill="black" />
<path d="M17.569230769230767,-400 L24.938461538461535,-400 L24.938461538461535,-350 L17.569230769230767,-350 L17.569230769230767,-400 Z" fill="#f0f0f0" />
<path d="M24.938461538461535,-400 L32.30769230769231,-400 L32.30769230769231,-350 L24.938461538461535,-350 L24.938461538461535,-400 Z" fill="black" />
<path d="M32.30769230769231,-400 L39.676923076923075,-400 L39.676923076923075,-350 L32.30769230769231,-350 L32.30769230769231,-400 Z" fill="#f0f0f0" />
<path d="M39.676923076923075,-400 L47.04615384615384,-400 L47.04615384615384,-350 L39.676923076923075,-350 L39.676923076923075,-400 Z" fill="black" />
<path d="M47.04615384615384,-400 L54.41538461538461,-400 L54.41538461538461,-350 L47.04615384615384,-350 L47.04615384615384,-400 Z" fill="#f0f0f0" />
<path d="M54.41538461538461,-400 L61.78461538461538,-400 L61.78461538461538,-350 L54.41538461538461,-350 L54.41538461538461,-400 Z" fill="black" />
<path d="M61.78461538461538,-400 L69.15384615384615,-400 L69.15384615384615,-350 L61.78461538461538,-350 L61.78461538461538,-400 Z" fill="#f0f0f0" />
<path d="M69.15384615384615,-400 L76.52307692307691,-400 L76.52307692307691,-350 L69.15384615384615,-350 L69.15384615384615,-400 Z" fill="black" />
<path d="M76.52307692307691,-400 L83.89230769230768,-400 L83.89230769230768,-350 L76.52307692307691,-350 L76.52307692307691,-400 Z" fill="#f0f0f0" />
<path d="M83.89230769230768,-400 L91.26153846153845,-400 L91.26153846153845,-350 L83.89230769230768,-350 L83.89230769230768,-400 Z" fill="black" />
<path d="M91.26153846153845,-400 L98.63076923076922,-400 L98.63076923076922,-350 L91.26153846153845,-350 L91.26153846153845,-400 Z" fill="#f0f0f0" />
<path d="M98.63076923076922,-400 L105.99999999999999,-400 L105.99999999999999,-350 L98.63076923076922,-350 L98.63076923076922,-400 Z" fill="black" />
<text x="10.2" y="-410" font-size="26" fill="black" dy="0em">CRISPR</text>
<path d="M10.2,-400 L106.0,-400 L106.0,-350 L10.2,-350 L10.2,-400 Z" fill="white" stroke="white" stroke-width="4" />
<path d="M10.2,-400 L17.569230769230767,-400 L17.569230769230767,-350 L10.2,-350 L10.2,-400 Z" fill="black" />
<path d="M17.569230769230767,-400 L24.938461538461535,-400 L24.938461538461535,-350 L17.569230769230767,-350 L17.569230769230767,-400 Z" fill="#f0f0f0" />
<path d="M24.938461538461535,-400 L32.30769230769231,-400 L32.30769230769231,-350 L24.938461538461535,-350 L24.938461538461535,-400 Z" fill="black" />
<path d="M32.30769230769231,-400 L39.676923076923075,-400 L39.676923076923075,-350 L32.30769230769231,-350 L32.30769230769231,-400 Z" fill="#f0f0f0" />
<path d="M39.676923076923075,-400 L47.04615384615384,-400 L47.04615384615384,-350 L39.676923076923075,-350 L39.676923076923075,-400 Z" fill="black" />
<path d="M47.04615384615384,-400 L54.41538461538461,-400 L54.41538461538461,-350 L47.04615384615384,-350 L47.04615384615384,-400 Z" fill="#f0f0f0" />
<path d="M54.41538461538461,-400 L61.78461538461538,-400 L61.78461538461538,-350 L54.41538461538461,-350 L54.41538461538461,-400 Z" fill="black" />
<path d="M61.78461538461538,-400 L69.15384615384615,-400 L69.15384615384615,-350 L61.78461538461538,-350 L61.78461538461538,-400 Z" fill="#f0f0f0" />
<path d="M69.15384615384615,-400 L76.52307692307691,-400 L76.52307692307691,-350 L69.15384615384615,-350 L69.15384615384615,-400 Z" fill="black" />
<path d="M76.52307692307691,-400 L83.89230769230768,-400 L83.89230769230768,-350 L76.52307692307691,-350 L76.52307692307691,-400 Z" fill="#f0f0f0" />
<path d="M83.89230769230768,-400 L91.26153846153845,-400 L91.26153846153845,-350 L83.89230769230768,-350 L83.89230769230768,-400 Z" fill="black" />
<path d="M91.26153846153845,-400 L98.63076923076922,-400 L98.63076923076922,-350 L91.26153846153845,-350 L91.26153846153845,-400 Z" fill="#f0f0f0" />
<path d="M98.63076923076922,-400 L105.99999999999999,-400 L105.99999999999999,-350 L98.63076923076922,-350 L98.63076923076922,-400 Z" fill="black" />
<text x="10.2" y="-410" font-size="26" fill="black" dy="0em">CRISPR</text>
<path d="M10.2,-200 L46.6,-200 L46.6,-150 L10.2,-150 L10.2,-200 Z" fill="white" stroke="white" stroke-width="4" />
<path d="M10.2,-200 L17.479999999999997,-200 L17.479999999999997,-150 L10.2,-150 L10.2,-200 Z" fill="black" />
<path d="M17.479999999999997,-200 L24.759999999999998,-200 L24.759999999999998,-150 L17.479999999999997,-150 L17.479999999999997,-200 Z" fill="#f0f0f0" />
<path d="M24.759999999999998,-200 L32.04,-200 L32.04,-150 L24.759999999999998,-150 L24.759999999999998,-200 Z" fill="black" />
<path d="M32.04,-200 L39.32,-200 L39.32,-150 L32.04,-150 L32.04,-200 Z" fill="#f0f0f0" />
<path d="M39.32,-200 L46.6,-200 L46.6,-150 L39.32,-150 L39.32,-200 Z" fill="black" />
<text x="10.2" y="-210" font-size="26" fill="black" dy="0em">CRISPR</text>
<text x="16.0" y="-260" font-size="38" fill="black" dy="0em">Unknown: DALG01000008_2 (1-183)</text>
</svg>