<?xml version="1.0" encoding="UTF-8"?>
<svg xmlns="http://www.w3.org/2000/svg" xmlns:xlink="http://www.w3.org/1999/xlink"
     width="5955" height="400" viewBox="0 -400 5955 400">
<defs>
</defs>
<path d="M210,-20 L210,-320" stroke="grey" stroke-width="1" fill="none" />
<text x="160" y="-330" font-size="22" fill="grey" dy="0em">1000</text>
<path d="M410,-20 L410,-320" stroke="grey" stroke-width="1" fill="none" />
<text x="360" y="-330" font-size="22" fill="grey" dy="0em">2000</text>
<path d="M610,-20 L610,-320" stroke="grey" stroke-width="1" fill="none" />
<text x="560" y="-330" font-size="22" fill="grey" dy="0em">3000</text>
<path d="M810,-20 L810,-320" stroke="grey" stroke-width="1" fill="none" />
<text x="760" y="-330" font-size="22" fill="grey" dy="0em">4000</text>
<path d="M1010,-20 L1010,-320" stroke="grey" stroke-width="1" fill="none" />
<text x="960" y="-330" font-size="22" fill="grey" dy="0em">5000</text>
<path d="M1210,-20 L1210,-320" stroke="grey" stroke-width="1" fill="none" />
<text x="1160" y="-330" font-size="22" fill="grey" dy="0em">6000</text>
<path d="M1410,-20 L1410,-320" stroke="grey" stroke-width="1" fill="none" />
<text x="1360" y="-330" font-size="22" fill="grey" dy="0em">7000</text>
<path d="M1610,-20 L1610,-320" stroke="grey" stroke-width="1" fill="none" />
<text x="1560" y="-330" font-size="22" fill="grey" dy="0em">8000</text>
<path d="M1810,-20 L1810,-320" stroke="grey" stroke-width="1" fill="none" />
<text x="1760" y="-330" font-size="22" fill="grey" dy="0em">9000</text>
<path d="M2010,-20 L2010,-320" stroke="grey" stroke-width="1" fill="none" />
<text x="1960" y="-330" font-size="22" fill="grey" dy="0em">10000</text>
<path d="M2210,-20 L2210,-320" stroke="grey" stroke-width="1" fill="none" />
<text x="2160" y="-330" font-size="22" fill="grey" dy="0em">11000</text>
<path d="M2410,-20 L2410,-320" stroke="grey" stroke-width="1" fill="none" />
<text x="2360" y="-330" font-size="22" fill="grey" dy="0em">12000</text>
<path d="M2610,-20 L2610,-320" stroke="grey" stroke-width="1" fill="none" />
<text x="2560" y="-330" font-size="22" fill="grey" dy="0em">13000</text>
<path d="M2810,-20 L2810,-320" stroke="grey" stroke-width="1" fill="none" />
<text x="2760" y="-330" font-size="22" fill="grey" dy="0em">14000</text>
<path d="M3010,-20 L3010,-320" stroke="grey" stroke-width="1" fill="none" />
<text x="2960" y="-330" font-size="22" fill="grey" dy="0em">15000</text>
<path d="M3210,-20 L3210,-320" stroke="grey" stroke-width="1" fill="none" />
<text x="3160" y="-330" font-size="22" fill="grey" dy="0em">16000</text>
<path d="M3410,-20 L3410,-320" stroke="grey" stroke-width="1" fill="none" />
<text x="3360" y="-330" font-size="22" fill="grey" dy="0em">17000</text>
<path d="M3610,-20 L3610,-320" stroke="grey" stroke-width="1" fill="none" />
<text x="3560" y="-330" font-size="22" fill="grey" dy="0em">18000</text>
<path d="M3810,-20 L3810,-320" stroke="grey" stroke-width="1" fill="none" />
<text x="3760" y="-330" font-size="22" fill="grey" dy="0em">19000</text>
<path d="M4010,-20 L4010,-320" stroke="grey" stroke-width="1" fill="none" />
<text x="3960" y="-330" font-size="22" fill="grey" dy="0em">20000</text>
<path d="M4210,-20 L4210,-320" stroke="grey" stroke-width="1" fill="none" />
<text x="4160" y="-330" font-size="22" fill="grey" dy="0em">21000</text>
<path d="M4410,-20 L4410,-320" stroke="grey" stroke-width="1" fill="none" />
<text x="4360" y="-330" font-size="22" fill="grey" dy="0em">22000</text>
<path d="M4610,-20 L4610,-320" stroke="grey" stroke-width="1" fill="none" />
<text x="4560" y="-330" font-size="22" fill="grey" dy="0em">23000</text>
<path d="M4810,-20 L4810,-320" stroke="grey" stroke-width="1" fill="none" />
<text x="4760" y="-330" font-size="22" fill="grey" dy="0em">24000</text>
<path d="M5010,-20 L5010,-320" stroke="grey" stroke-width="1" fill="none" />
<text x="4960" y="-330" font-size="22" fill="grey" dy="0em">25000</text>
<path d="M5210,-20 L5210,-320" stroke="grey" stroke-width="1" fill="none" />
<text x="5160" y="-330" font-size="22" fill="grey" dy="0em">26000</text>
<path d="M5410,-20 L5410,-320" stroke="grey" stroke-width="1" fill="none" />
<text x="5360" y="-330" font-size="22" fill="grey" dy="0em">27000</text>
<path d="M5610,-20 L5610,-320" stroke="grey" stroke-width="1" fill="none" />
<text x="5560" y="-330" font-size="22" fill="grey" dy="0em">28000</text>
<path d="M5810,-20 L5810,-320" stroke="grey" stroke-width="1" fill="none" />
<text x="5760" y="-330" font-size="22" fill="grey" dy="0em">29000</text>
<text x="16.0" y="-260" font-size="38" fill="black" dy="0em">I-D: JAVZWL010000001@11 (454228-483504)</text>
<path d="M480.40000000000003,-200 L479.0,-200 L509.0,-175.0 L479.0,-150 L480.40000000000003,-150 L480.40000000000003,-200 Z" fill="#d3c9c1" fill-opacity="0.8" stroke="#d3c9c1" stroke-width="4" />
<text x="480.40000000000003" y="-210" font-size="20" fill="black" dy="0em">502</text>
<path d="M791.4000000000001,-200 L779.2,-200 L779.2,-150 L791.4000000000001,-150 L761.4000000000001,-175.0 L791.4000000000001,-200 Z" fill="#d3c9c1" fill-opacity="0.8" stroke="#d3c9c1" stroke-width="4" />
<text x="761.4000000000001" y="-120" font-size="20" fill="black" dy="0em">503</text>
<path d="M1348.0,-200 L1376.6000000000001,-200 L1406.6000000000001,-175.0 L1376.6000000000001,-150 L1348.0,-150 L1348.0,-200 Z" fill="#d3c9c1" fill-opacity="0.8" stroke="#d3c9c1" stroke-width="4" />
<text x="1348.0" y="-210" font-size="20" fill="black" dy="0em">504</text>
<path d="M1490.6000000000001,-200 L1499.4,-200 L1529.4,-175.0 L1499.4,-150 L1490.6000000000001,-150 L1490.6000000000001,-200 Z" fill="#d3c9c1" fill-opacity="0.8" stroke="#d3c9c1" stroke-width="4" />
<text x="1490.6000000000001" y="-120" font-size="20" fill="black" dy="0em">505</text>
<path d="M1618.4,-200 L1646.4,-200 L1676.4,-175.0 L1646.4,-150 L1618.4,-150 L1618.4,-200 Z" fill="#5b5ea6" fill-opacity="0.8" stroke="#5b5ea6" stroke-width="4" />
<text x="1618.4" y="-210" font-size="26" fill="black" dy="0em">Cas2</text>
<path d="M1672.6000000000001,-200 L1740.8000000000002,-200 L1770.8000000000002,-175.0 L1740.8000000000002,-150 L1672.6000000000001,-150 L1672.6000000000001,-200 Z" fill="#5b5ea6" fill-opacity="0.8" stroke="#5b5ea6" stroke-width="4" />
<text x="1672.6000000000001" y="-120" font-size="26" fill="black" dy="0em">Cas4</text>
<path d="M1818.2,-200 L1957.2,-200 L1957.2,-150 L1818.2,-150 L1788.2,-175.0 L1818.2,-200 Z" fill="#dd1424" fill-opacity="0.8" stroke="#dd1424" stroke-width="4" />
<text x="1788.2" y="-210" font-size="26" fill="black" dy="0em">Cas6</text>
<path d="M1984.0,-200 L2084.0,-200 L2084.0,-150 L1984.0,-150 L1954.0,-175.0 L1984.0,-200 Z" fill="#ff80e6" fill-opacity="0.8" stroke="#ff80e6" stroke-width="4" />
<text x="1954.0" y="-120" font-size="26" fill="black" dy="0em">CasR</text>
<path d="M2106.4,-200 L2578.4,-200 L2608.4,-175.0 L2578.4,-150 L2106.4,-150 L2106.4,-200 Z" fill="#efc050" fill-opacity="0.8" stroke="#efc050" stroke-width="4" />
<text x="2106.4" y="-210" font-size="26" fill="black" dy="0em">Cas10d</text>
<path d="M2605.8,-200 L2785.6000000000004,-200 L2815.6000000000004,-175.0 L2785.6000000000004,-150 L2605.8,-150 L2605.8,-200 Z" fill="#efc050" fill-opacity="0.8" stroke="#efc050" stroke-width="4" />
<text x="2605.8" y="-120" font-size="26" fill="black" dy="0em">Csc2</text>
<path d="M2815.0,-200 L2941.4,-200 L2971.4,-175.0 L2941.4,-150 L2815.0,-150 L2815.0,-200 Z" fill="#efc050" fill-opacity="0.8" stroke="#efc050" stroke-width="4" />
<text x="2815.0" y="-210" font-size="26" fill="black" dy="0em">Csc1gr5</text>
<path d="M2972.6000000000004,-200 L3328.2000000000003,-200 L3358.2000000000003,-175.0 L3328.2000000000003,-150 L2972.6000000000004,-150 L2972.6000000000004,-200 Z" fill="#efc050" fill-opacity="0.8" stroke="#efc050" stroke-width="4" />
<text x="2972.6000000000004" y="-120" font-size="26" fill="black" dy="0em">Cas3d</text>
<path d="M4087.4,-200 L4223.400000000001,-200 L4223.400000000001,-150 L4087.4,-150 L4057.4,-175.0 L4087.4,-200 Z" fill="#5b5ea6" fill-opacity="0.8" stroke="#5b5ea6" stroke-width="4" />
<text x="4057.4" y="-210" font-size="26" fill="black" dy="0em">Cas1</text>
<path d="M4369.0,-200 L4588.400000000001,-200 L4588.400000000001,-150 L4369.0,-150 L4339.0,-175.0 L4369.0,-200 Z" fill="#d3c9c1" fill-opacity="0.8" stroke="#d3c9c1" stroke-width="4" />
<text x="4339.0" y="-120" font-size="20" fill="black" dy="0em">515</text>
<path d="M4675.2,-200 L4830.400000000001,-200 L4860.400000000001,-175.0 L4830.400000000001,-150 L4675.2,-150 L4675.2,-200 Z" fill="#dd1424" fill-opacity="0.8" stroke="#dd1424" stroke-width="4" />
<text x="4675.2" y="-210" font-size="26" fill="black" dy="0em">Cas6</text>
<path d="M5012.0,-200 L5027.400000000001,-200 L5057.400000000001,-175.0 L5027.400000000001,-150 L5012.0,-150 L5012.0,-200 Z" fill="#ff80e6" fill-opacity="0.3" stroke="#ff80e6" stroke-width="4" />
<text x="5012.0" y="-120" font-size="26" fill="black" dy="0em">(Csm6)</text>
<path d="M5079.400000000001,-200 L5252.6,-200 L5282.6,-175.0 L5252.6,-150 L5079.400000000001,-150 L5079.400000000001,-200 Z" fill="#d3c9c1" fill-opacity="0.8" stroke="#d3c9c1" stroke-width="4" />
<text x="5079.400000000001" y="-210" font-size="20" fill="black" dy="0em">518</text>
<path d="M5392.8,-200 L5548.6,-200 L5578.6,-175.0 L5548.6,-150 L5392.8,-150 L5392.8,-200 Z" fill="#d3c9c1" fill-opacity="0.8" stroke="#d3c9c1" stroke-width="4" />
<text x="5392.8" y="-120" font-size="20" fill="black" dy="0em">519</text>
<path d="M5650.200000000001,-200 L5835.400000000001,-200 L5865.400000000001,-175.0 L5835.400000000001,-150 L5650.200000000001,-150 L5650.200000000001,-200 Z" fill="#ff80e6" fill-opacity="0.8" stroke="#ff80e6" stroke-width="4" />
<text x="5650.200000000001" y="-210" font-size="26" fill="black" dy="0em">AbiEii</text>
<path d="M10.2,-200 L1340.0,-200 L1340.0,-150 L10.2,-150 L10.2,-200 Z" fill="white" stroke="white" stroke-width="4" />
<path d="M10.2,-200 L16.11022222222222,-200 L16.11022222222222,-150 L10.2,-150 L10.2,-200 Z" fill="black" />
<path d="M16.11022222222222,-200 L22.020444444444443,-200 L22.020444444444443,-150 L16.11022222222222,-150 L16.11022222222222,-200 Z" fill="#f0f0f0" />
<path d="M22.020444444444443,-200 L27.930666666666667,-200 L27.930666666666667,-150 L22.020444444444443,-150 L22.020444444444443,-200 Z" fill="black" />
<path d="M27.930666666666667,-200 L33.84088888888889,-200 L33.84088888888889,-150 L27.930666666666667,-150 L27.930666666666667,-200 Z" fill="#f0f0f0" />
<path d="M33.84088888888889,-200 L39.751111111111115,-200 L39.751111111111115,-150 L33.84088888888889,-150 L33.84088888888889,-200 Z" fill="black" />
<path d="M39.751111111111115,-200 L45.66133333333334,-200 L45.66133333333334,-150 L39.751111111111115,-150 L39.751111111111115,-200 Z" fill="#f0f0f0" />
<path d="M45.66133333333334,-200 L51.57155555555556,-200 L51.57155555555556,-150 L45.66133333333334,-150 L45.66133333333334,-200 Z" fill="black" />
<path d="M51.57155555555556,-200 L57.481777777777786,-200 L57.481777777777786,-150 L51.57155555555556,-150 L51.57155555555556,-200 Z" fill="#f0f0f0" />
<path d="M57.481777777777786,-200 L63.39200000000001,-200 L63.39200000000001,-150 L57.481777777777786,-150 L57.481777777777786,-200 Z" fill="black" />
<path d="M63.39200000000001,-200 L69.30222222222223,-200 L69.30222222222223,-150 L63.39200000000001,-150 L63.39200000000001,-200 Z" fill="#f0f0f0" />
<path d="M69.30222222222223,-200 L75.21244444444444,-200 L75.21244444444444,-150 L69.30222222222223,-150 L69.30222222222223,-200 Z" fill="black" />
<path d="M75.21244444444444,-200 L81.12266666666666,-200 L81.12266666666666,-150 L75.21244444444444,-150 L75.21244444444444,-200 Z" fill="#f0f0f0" />
<path d="M81.12266666666666,-200 L87.03288888888888,-200 L87.03288888888888,-150 L81.12266666666666,-150 L81.12266666666666,-200 Z" fill="black" />
<path d="M87.03288888888888,-200 L92.9431111111111,-200 L92.9431111111111,-150 L87.03288888888888,-150 L87.03288888888888,-200 Z" fill="#f0f0f0" />
<path d="M92.9431111111111,-200 L98.85333333333331,-200 L98.85333333333331,-150 L92.9431111111111,-150 L92.9431111111111,-200 Z" fill="black" />
<path d="M98.85333333333331,-200 L104.76355555555553,-200 L104.76355555555553,-150 L98.85333333333331,-150 L98.85333333333331,-200 Z" fill="#f0f0f0" />
<path d="M104.76355555555553,-200 L110.67377777777774,-200 L110.67377777777774,-150 L104.76355555555553,-150 L104.76355555555553,-200 Z" fill="black" />
<path d="M110.67377777777774,-200 L116.58399999999996,-200 L116.58399999999996,-150 L110.67377777777774,-150 L110.67377777777774,-200 Z" fill="#f0f0f0" />
<path d="M116.58399999999996,-200 L122.49422222222218,-200 L122.49422222222218,-150 L116.58399999999996,-150 L116.58399999999996,-200 Z" fill="black" />
<path d="M122.49422222222218,-200 L128.4044444444444,-200 L128.4044444444444,-150 L122.49422222222218,-150 L122.49422222222218,-200 Z" fill="#f0f0f0" />
<path d="M128.4044444444444,-200 L134.31466666666662,-200 L134.31466666666662,-150 L128.4044444444444,-150 L128.4044444444444,-200 Z" fill="black" />
<path d="M134.31466666666662,-200 L140.22488888888884,-200 L140.22488888888884,-150 L134.31466666666662,-150 L134.31466666666662,-200 Z" fill="#f0f0f0" />
<path d="M140.22488888888884,-200 L146.13511111111106,-200 L146.13511111111106,-150 L140.22488888888884,-150 L140.22488888888884,-200 Z" fill="black" />
<path d="M146.13511111111106,-200 L152.04533333333328,-200 L152.04533333333328,-150 L146.13511111111106,-150 L146.13511111111106,-200 Z" fill="#f0f0f0" />
<path d="M152.04533333333328,-200 L157.9555555555555,-200 L157.9555555555555,-150 L152.04533333333328,-150 L152.04533333333328,-200 Z" fill="black" />
<path d="M157.9555555555555,-200 L163.8657777777777,-200 L163.8657777777777,-150 L157.9555555555555,-150 L157.9555555555555,-200 Z" fill="#f0f0f0" />
<path d="M163.8657777777777,-200 L169.77599999999993,-200 L169.77599999999993,-150 L163.8657777777777,-150 L163.8657777777777,-200 Z" fill="black" />
<path d="M169.77599999999993,-200 L175.68622222222214,-200 L175.68622222222214,-150 L169.77599999999993,-150 L169.77599999999993,-200 Z" fill="#f0f0f0" />
<path d="M175.68622222222214,-200 L181.59644444444436,-200 L181.59644444444436,-150 L175.68622222222214,-150 L175.68622222222214,-200 Z" fill="black" />
<path d="M181.59644444444436,-200 L187.50666666666658,-200 L187.50666666666658,-150 L181.59644444444436,-150 L181.59644444444436,-200 Z" fill="#f0f0f0" />
<path d="M187.50666666666658,-200 L193.4168888888888,-200 L193.4168888888888,-150 L187.50666666666658,-150 L187.50666666666658,-200 Z" fill="black" />
<path d="M193.4168888888888,-200 L199.327111111111,-200 L199.327111111111,-150 L193.4168888888888,-150 L193.4168888888888,-200 Z" fill="#f0f0f0" />
<path d="M199.327111111111,-200 L205.23733333333323,-200 L205.23733333333323,-150 L199.327111111111,-150 L199.327111111111,-200 Z" fill="black" />
<path d="M205.23733333333323,-200 L211.14755555555544,-200 L211.14755555555544,-150 L205.23733333333323,-150 L205.23733333333323,-200 Z" fill="#f0f0f0" />
<path d="M211.14755555555544,-200 L217.05777777777766,-200 L217.05777777777766,-150 L211.14755555555544,-150 L211.14755555555544,-200 Z" fill="black" />
<path d="M217.05777777777766,-200 L222.96799999999988,-200 L222.96799999999988,-150 L217.05777777777766,-150 L217.05777777777766,-200 Z" fill="#f0f0f0" />
<path d="M222.96799999999988,-200 L228.8782222222221,-200 L228.8782222222221,-150 L222.96799999999988,-150 L222.96799999999988,-200 Z" fill="black" />
<path d="M228.8782222222221,-200 L234.7884444444443,-200 L234.7884444444443,-150 L228.8782222222221,-150 L228.8782222222221,-200 Z" fill="#f0f0f0" />
<path d="M234.7884444444443,-200 L240.69866666666653,-200 L240.69866666666653,-150 L234.7884444444443,-150 L234.7884444444443,-200 Z" fill="black" />
<path d="M240.69866666666653,-200 L246.60888888888874,-200 L246.60888888888874,-150 L240.69866666666653,-150 L240.69866666666653,-200 Z" fill="#f0f0f0" />
<path d="M246.60888888888874,-200 L252.51911111111096,-200 L252.51911111111096,-150 L246.60888888888874,-150 L246.60888888888874,-200 Z" fill="black" />
<path d="M252.51911111111096,-200 L258.4293333333332,-200 L258.4293333333332,-150 L252.51911111111096,-150 L252.51911111111096,-200 Z" fill="#f0f0f0" />
<path d="M258.4293333333332,-200 L264.3395555555554,-200 L264.3395555555554,-150 L258.4293333333332,-150 L258.4293333333332,-200 Z" fill="black" />
<path d="M264.3395555555554,-200 L270.24977777777764,-200 L270.24977777777764,-150 L264.3395555555554,-150 L264.3395555555554,-200 Z" fill="#f0f0f0" />
<path d="M270.24977777777764,-200 L276.15999999999985,-200 L276.15999999999985,-150 L270.24977777777764,-150 L270.24977777777764,-200 Z" fill="black" />
<path d="M276.15999999999985,-200 L282.07022222222207,-200 L282.07022222222207,-150 L276.15999999999985,-150 L276.15999999999985,-200 Z" fill="#f0f0f0" />
<path d="M282.07022222222207,-200 L287.9804444444443,-200 L287.9804444444443,-150 L282.07022222222207,-150 L282.07022222222207,-200 Z" fill="black" />
<path d="M287.9804444444443,-200 L293.8906666666665,-200 L293.8906666666665,-150 L287.9804444444443,-150 L287.9804444444443,-200 Z" fill="#f0f0f0" />
<path d="M293.8906666666665,-200 L299.8008888888887,-200 L299.8008888888887,-150 L293.8906666666665,-150 L293.8906666666665,-200 Z" fill="black" />
<path d="M299.8008888888887,-200 L305.71111111111094,-200 L305.71111111111094,-150 L299.8008888888887,-150 L299.8008888888887,-200 Z" fill="#f0f0f0" />
<path d="M305.71111111111094,-200 L311.62133333333315,-200 L311.62133333333315,-150 L305.71111111111094,-150 L305.71111111111094,-200 Z" fill="black" />
<path d="M311.62133333333315,-200 L317.53155555555537,-200 L317.53155555555537,-150 L311.62133333333315,-150 L311.62133333333315,-200 Z" fill="#f0f0f0" />
<path d="M317.53155555555537,-200 L323.4417777777776,-200 L323.4417777777776,-150 L317.53155555555537,-150 L317.53155555555537,-200 Z" fill="black" />
<path d="M323.4417777777776,-200 L329.3519999999998,-200 L329.3519999999998,-150 L323.4417777777776,-150 L323.4417777777776,-200 Z" fill="#f0f0f0" />
<path d="M329.3519999999998,-200 L335.262222222222,-200 L335.262222222222,-150 L329.3519999999998,-150 L329.3519999999998,-200 Z" fill="black" />
<path d="M335.262222222222,-200 L341.17244444444424,-200 L341.17244444444424,-150 L335.262222222222,-150 L335.262222222222,-200 Z" fill="#f0f0f0" />
<path d="M341.17244444444424,-200 L347.08266666666646,-200 L347.08266666666646,-150 L341.17244444444424,-150 L341.17244444444424,-200 Z" fill="black" />
<path d="M347.08266666666646,-200 L352.9928888888887,-200 L352.9928888888887,-150 L347.08266666666646,-150 L347.08266666666646,-200 Z" fill="#f0f0f0" />
<path d="M352.9928888888887,-200 L358.9031111111109,-200 L358.9031111111109,-150 L352.9928888888887,-150 L352.9928888888887,-200 Z" fill="black" />
<path d="M358.9031111111109,-200 L364.8133333333331,-200 L364.8133333333331,-150 L358.9031111111109,-150 L358.9031111111109,-200 Z" fill="#f0f0f0" />
<path d="M364.8133333333331,-200 L370.7235555555553,-200 L370.7235555555553,-150 L364.8133333333331,-150 L364.8133333333331,-200 Z" fill="black" />
<path d="M370.7235555555553,-200 L376.63377777777754,-200 L376.63377777777754,-150 L370.7235555555553,-150 L370.7235555555553,-200 Z" fill="#f0f0f0" />
<path d="M376.63377777777754,-200 L382.54399999999976,-200 L382.54399999999976,-150 L376.63377777777754,-150 L376.63377777777754,-200 Z" fill="black" />
<path d="M382.54399999999976,-200 L388.454222222222,-200 L388.454222222222,-150 L382.54399999999976,-150 L382.54399999999976,-200 Z" fill="#f0f0f0" />
<path d="M388.454222222222,-200 L394.3644444444442,-200 L394.3644444444442,-150 L388.454222222222,-150 L388.454222222222,-200 Z" fill="black" />
<path d="M394.3644444444442,-200 L400.2746666666664,-200 L400.2746666666664,-150 L394.3644444444442,-150 L394.3644444444442,-200 Z" fill="#f0f0f0" />
<path d="M400.2746666666664,-200 L406.1848888888886,-200 L406.1848888888886,-150 L400.2746666666664,-150 L400.2746666666664,-200 Z" fill="black" />
<path d="M406.1848888888886,-200 L412.09511111111084,-200 L412.09511111111084,-150 L406.1848888888886,-150 L406.1848888888886,-200 Z" fill="#f0f0f0" />
<path d="M412.09511111111084,-200 L418.00533333333306,-200 L418.00533333333306,-150 L412.09511111111084,-150 L412.09511111111084,-200 Z" fill="black" />
<path d="M418.00533333333306,-200 L423.9155555555553,-200 L423.9155555555553,-150 L418.00533333333306,-150 L418.00533333333306,-200 Z" fill="#f0f0f0" />
<path d="M423.9155555555553,-200 L429.8257777777775,-200 L429.8257777777775,-150 L423.9155555555553,-150 L423.9155555555553,-200 Z" fill="black" />
<path d="M429.8257777777775,-200 L435.7359999999997,-200 L435.7359999999997,-150 L429.8257777777775,-150 L429.8257777777775,-200 Z" fill="#f0f0f0" />
<path d="M435.7359999999997,-200 L441.6462222222219,-200 L441.6462222222219,-150 L435.7359999999997,-150 L435.7359999999997,-200 Z" fill="black" />
<path d="M441.6462222222219,-200 L447.55644444444414,-200 L447.55644444444414,-150 L441.6462222222219,-150 L441.6462222222219,-200 Z" fill="#f0f0f0" />
<path d="M447.55644444444414,-200 L453.46666666666636,-200 L453.46666666666636,-150 L447.55644444444414,-150 L447.55644444444414,-200 Z" fill="black" />
<path d="M453.46666666666636,-200 L459.3768888888886,-200 L459.3768888888886,-150 L453.46666666666636,-150 L453.46666666666636,-200 Z" fill="#f0f0f0" />
<path d="M459.3768888888886,-200 L465.2871111111108,-200 L465.2871111111108,-150 L459.3768888888886,-150 L459.3768888888886,-200 Z" fill="black" />
<path d="M465.2871111111108,-200 L471.197333333333,-200 L471.197333333333,-150 L465.2871111111108,-150 L465.2871111111108,-200 Z" fill="#f0f0f0" />
<path d="M471.197333333333,-200 L477.1075555555552,-200 L477.1075555555552,-150 L471.197333333333,-150 L471.197333333333,-200 Z" fill="black" />
<path d="M477.1075555555552,-200 L483.01777777777744,-200 L483.01777777777744,-150 L477.1075555555552,-150 L477.1075555555552,-200 Z" fill="#f0f0f0" />
<path d="M483.01777777777744,-200 L488.92799999999966,-200 L488.92799999999966,-150 L483.01777777777744,-150 L483.01777777777744,-200 Z" fill="black" />
<path d="M488.92799999999966,-200 L494.8382222222219,-200 L494.8382222222219,-150 L488.92799999999966,-150 L488.92799999999966,-200 Z" fill="#f0f0f0" />
<path d="M494.8382222222219,-200 L500.7484444444441,-200 L500.7484444444441,-150 L494.8382222222219,-150 L494.8382222222219,-200 Z" fill="black" />
<path d="M500.7484444444441,-200 L506.6586666666663,-200 L506.6586666666663,-150 L500.7484444444441,-150 L500.7484444444441,-200 Z" fill="#f0f0f0" />
<path d="M506.6586666666663,-200 L512.5688888888885,-200 L512.5688888888885,-150 L506.6586666666663,-150 L506.6586666666663,-200 Z" fill="black" />
<path d="M512.5688888888885,-200 L518.4791111111108,-200 L518.4791111111108,-150 L512.5688888888885,-150 L512.5688888888885,-200 Z" fill="#f0f0f0" />
<path d="M518.4791111111108,-200 L524.3893333333331,-200 L524.3893333333331,-150 L518.4791111111108,-150 L518.4791111111108,-200 Z" fill="black" />
<path d="M524.3893333333331,-200 L530.2995555555553,-200 L530.2995555555553,-150 L524.3893333333331,-150 L524.3893333333331,-200 Z" fill="#f0f0f0" />
<path d="M530.2995555555553,-200 L536.2097777777776,-200 L536.2097777777776,-150 L530.2995555555553,-150 L530.2995555555553,-200 Z" fill="black" />
<path d="M536.2097777777776,-200 L542.1199999999999,-200 L542.1199999999999,-150 L536.2097777777776,-150 L536.2097777777776,-200 Z" fill="#f0f0f0" />
<path d="M542.1199999999999,-200 L548.0302222222222,-200 L548.0302222222222,-150 L542.1199999999999,-150 L542.1199999999999,-200 Z" fill="black" />
<path d="M548.0302222222222,-200 L553.9404444444444,-200 L553.9404444444444,-150 L548.0302222222222,-150 L548.0302222222222,-200 Z" fill="#f0f0f0" />
<path d="M553.9404444444444,-200 L559.8506666666667,-200 L559.8506666666667,-150 L553.9404444444444,-150 L553.9404444444444,-200 Z" fill="black" />
<path d="M559.8506666666667,-200 L565.760888888889,-200 L565.760888888889,-150 L559.8506666666667,-150 L559.8506666666667,-200 Z" fill="#f0f0f0" />
<path d="M565.760888888889,-200 L571.6711111111113,-200 L571.6711111111113,-150 L565.760888888889,-150 L565.760888888889,-200 Z" fill="black" />
<path d="M571.6711111111113,-200 L577.5813333333335,-200 L577.5813333333335,-150 L571.6711111111113,-150 L571.6711111111113,-200 Z" fill="#f0f0f0" />
<path d="M577.5813333333335,-200 L583.4915555555558,-200 L583.4915555555558,-150 L577.5813333333335,-150 L577.5813333333335,-200 Z" fill="black" />
<path d="M583.4915555555558,-200 L589.4017777777781,-200 L589.4017777777781,-150 L583.4915555555558,-150 L583.4915555555558,-200 Z" fill="#f0f0f0" />
<path d="M589.4017777777781,-200 L595.3120000000004,-200 L595.3120000000004,-150 L589.4017777777781,-150 L589.4017777777781,-200 Z" fill="black" />
<path d="M595.3120000000004,-200 L601.2222222222226,-200 L601.2222222222226,-150 L595.3120000000004,-150 L595.3120000000004,-200 Z" fill="#f0f0f0" />
<path d="M601.2222222222226,-200 L607.1324444444449,-200 L607.1324444444449,-150 L601.2222222222226,-150 L601.2222222222226,-200 Z" fill="black" />
<path d="M607.1324444444449,-200 L613.0426666666672,-200 L613.0426666666672,-150 L607.1324444444449,-150 L607.1324444444449,-200 Z" fill="#f0f0f0" />
<path d="M613.0426666666672,-200 L618.9528888888894,-200 L618.9528888888894,-150 L613.0426666666672,-150 L613.0426666666672,-200 Z" fill="black" />
<path d="M618.9528888888894,-200 L624.8631111111117,-200 L624.8631111111117,-150 L618.9528888888894,-150 L618.9528888888894,-200 Z" fill="#f0f0f0" />
<path d="M624.8631111111117,-200 L630.773333333334,-200 L630.773333333334,-150 L624.8631111111117,-150 L624.8631111111117,-200 Z" fill="black" />
<path d="M630.773333333334,-200 L636.6835555555563,-200 L636.6835555555563,-150 L630.773333333334,-150 L630.773333333334,-200 Z" fill="#f0f0f0" />
<path d="M636.6835555555563,-200 L642.5937777777785,-200 L642.5937777777785,-150 L636.6835555555563,-150 L636.6835555555563,-200 Z" fill="black" />
<path d="M642.5937777777785,-200 L648.5040000000008,-200 L648.5040000000008,-150 L642.5937777777785,-150 L642.5937777777785,-200 Z" fill="#f0f0f0" />
<path d="M648.5040000000008,-200 L654.4142222222231,-200 L654.4142222222231,-150 L648.5040000000008,-150 L648.5040000000008,-200 Z" fill="black" />
<path d="M654.4142222222231,-200 L660.3244444444454,-200 L660.3244444444454,-150 L654.4142222222231,-150 L654.4142222222231,-200 Z" fill="#f0f0f0" />
<path d="M660.3244444444454,-200 L666.2346666666676,-200 L666.2346666666676,-150 L660.3244444444454,-150 L660.3244444444454,-200 Z" fill="black" />
<path d="M666.2346666666676,-200 L672.1448888888899,-200 L672.1448888888899,-150 L666.2346666666676,-150 L666.2346666666676,-200 Z" fill="#f0f0f0" />
<path d="M672.1448888888899,-200 L678.0551111111122,-200 L678.0551111111122,-150 L672.1448888888899,-150 L672.1448888888899,-200 Z" fill="black" />
<path d="M678.0551111111122,-200 L683.9653333333345,-200 L683.9653333333345,-150 L678.0551111111122,-150 L678.0551111111122,-200 Z" fill="#f0f0f0" />
<path d="M683.9653333333345,-200 L689.8755555555567,-200 L689.8755555555567,-150 L683.9653333333345,-150 L683.9653333333345,-200 Z" fill="black" />
<path d="M689.8755555555567,-200 L695.785777777779,-200 L695.785777777779,-150 L689.8755555555567,-150 L689.8755555555567,-200 Z" fill="#f0f0f0" />
<path d="M695.785777777779,-200 L701.6960000000013,-200 L701.6960000000013,-150 L695.785777777779,-150 L695.785777777779,-200 Z" fill="black" />
<path d="M701.6960000000013,-200 L707.6062222222236,-200 L707.6062222222236,-150 L701.6960000000013,-150 L701.6960000000013,-200 Z" fill="#f0f0f0" />
<path d="M707.6062222222236,-200 L713.5164444444458,-200 L713.5164444444458,-150 L707.6062222222236,-150 L707.6062222222236,-200 Z" fill="black" />
<path d="M713.5164444444458,-200 L719.4266666666681,-200 L719.4266666666681,-150 L713.5164444444458,-150 L713.5164444444458,-200 Z" fill="#f0f0f0" />
<path d="M719.4266666666681,-200 L725.3368888888904,-200 L725.3368888888904,-150 L719.4266666666681,-150 L719.4266666666681,-200 Z" fill="black" />
<path d="M725.3368888888904,-200 L731.2471111111126,-200 L731.2471111111126,-150 L725.3368888888904,-150 L725.3368888888904,-200 Z" fill="#f0f0f0" />
<path d="M731.2471111111126,-200 L737.1573333333349,-200 L737.1573333333349,-150 L731.2471111111126,-150 L731.2471111111126,-200 Z" fill="black" />
<path d="M737.1573333333349,-200 L743.0675555555572,-200 L743.0675555555572,-150 L737.1573333333349,-150 L737.1573333333349,-200 Z" fill="#f0f0f0" />
<path d="M743.0675555555572,-200 L748.9777777777795,-200 L748.9777777777795,-150 L743.0675555555572,-150 L743.0675555555572,-200 Z" fill="black" />
<path d="M748.9777777777795,-200 L754.8880000000017,-200 L754.8880000000017,-150 L748.9777777777795,-150 L748.9777777777795,-200 Z" fill="#f0f0f0" />
<path d="M754.8880000000017,-200 L760.798222222224,-200 L760.798222222224,-150 L754.8880000000017,-150 L754.8880000000017,-200 Z" fill="black" />
<path d="M760.798222222224,-200 L766.7084444444463,-200 L766.7084444444463,-150 L760.798222222224,-150 L760.798222222224,-200 Z" fill="#f0f0f0" />
<path d="M766.7084444444463,-200 L772.6186666666686,-200 L772.6186666666686,-150 L766.7084444444463,-150 L766.7084444444463,-200 Z" fill="black" />
<path d="M772.6186666666686,-200 L778.5288888888908,-200 L778.5288888888908,-150 L772.6186666666686,-150 L772.6186666666686,-200 Z" fill="#f0f0f0" />
<path d="M778.5288888888908,-200 L784.4391111111131,-200 L784.4391111111131,-150 L778.5288888888908,-150 L778.5288888888908,-200 Z" fill="black" />
<path d="M784.4391111111131,-200 L790.3493333333354,-200 L790.3493333333354,-150 L784.4391111111131,-150 L784.4391111111131,-200 Z" fill="#f0f0f0" />
<path d="M790.3493333333354,-200 L796.2595555555577,-200 L796.2595555555577,-150 L790.3493333333354,-150 L790.3493333333354,-200 Z" fill="black" />
<path d="M796.2595555555577,-200 L802.1697777777799,-200 L802.1697777777799,-150 L796.2595555555577,-150 L796.2595555555577,-200 Z" fill="#f0f0f0" />
<path d="M802.1697777777799,-200 L808.0800000000022,-200 L808.0800000000022,-150 L802.1697777777799,-150 L802.1697777777799,-200 Z" fill="black" />
<path d="M808.0800000000022,-200 L813.9902222222245,-200 L813.9902222222245,-150 L808.0800000000022,-150 L808.0800000000022,-200 Z" fill="#f0f0f0" />
<path d="M813.9902222222245,-200 L819.9004444444467,-200 L819.9004444444467,-150 L813.9902222222245,-150 L813.9902222222245,-200 Z" fill="black" />
<path d="M819.9004444444467,-200 L825.810666666669,-200 L825.810666666669,-150 L819.9004444444467,-150 L819.9004444444467,-200 Z" fill="#f0f0f0" />
<path d="M825.810666666669,-200 L831.7208888888913,-200 L831.7208888888913,-150 L825.810666666669,-150 L825.810666666669,-200 Z" fill="black" />
<path d="M831.7208888888913,-200 L837.6311111111136,-200 L837.6311111111136,-150 L831.7208888888913,-150 L831.7208888888913,-200 Z" fill="#f0f0f0" />
<path d="M837.6311111111136,-200 L843.5413333333358,-200 L843.5413333333358,-150 L837.6311111111136,-150 L837.6311111111136,-200 Z" fill="black" />
<path d="M843.5413333333358,-200 L849.4515555555581,-200 L849.4515555555581,-150 L843.5413333333358,-150 L843.5413333333358,-200 Z" fill="#f0f0f0" />
<path d="M849.4515555555581,-200 L855.3617777777804,-200 L855.3617777777804,-150 L849.4515555555581,-150 L849.4515555555581,-200 Z" fill="black" />
<path d="M855.3617777777804,-200 L861.2720000000027,-200 L861.2720000000027,-150 L855.3617777777804,-150 L855.3617777777804,-200 Z" fill="#f0f0f0" />
<path d="M861.2720000000027,-200 L867.1822222222249,-200 L867.1822222222249,-150 L861.2720000000027,-150 L861.2720000000027,-200 Z" fill="black" />
<path d="M867.1822222222249,-200 L873.0924444444472,-200 L873.0924444444472,-150 L867.1822222222249,-150 L867.1822222222249,-200 Z" fill="#f0f0f0" />
<path d="M873.0924444444472,-200 L879.0026666666695,-200 L879.0026666666695,-150 L873.0924444444472,-150 L873.0924444444472,-200 Z" fill="black" />
<path d="M879.0026666666695,-200 L884.9128888888918,-200 L884.9128888888918,-150 L879.0026666666695,-150 L879.0026666666695,-200 Z" fill="#f0f0f0" />
<path d="M884.9128888888918,-200 L890.823111111114,-200 L890.823111111114,-150 L884.9128888888918,-150 L884.9128888888918,-200 Z" fill="black" />
<path d="M890.823111111114,-200 L896.7333333333363,-200 L896.7333333333363,-150 L890.823111111114,-150 L890.823111111114,-200 Z" fill="#f0f0f0" />
<path d="M896.7333333333363,-200 L902.6435555555586,-200 L902.6435555555586,-150 L896.7333333333363,-150 L896.7333333333363,-200 Z" fill="black" />
<path d="M902.6435555555586,-200 L908.5537777777809,-200 L908.5537777777809,-150 L902.6435555555586,-150 L902.6435555555586,-200 Z" fill="#f0f0f0" />
<path d="M908.5537777777809,-200 L914.4640000000031,-200 L914.4640000000031,-150 L908.5537777777809,-150 L908.5537777777809,-200 Z" fill="black" />
<path d="M914.4640000000031,-200 L920.3742222222254,-200 L920.3742222222254,-150 L914.4640000000031,-150 L914.4640000000031,-200 Z" fill="#f0f0f0" />
<path d="M920.3742222222254,-200 L926.2844444444477,-200 L926.2844444444477,-150 L920.3742222222254,-150 L920.3742222222254,-200 Z" fill="black" />
<path d="M926.2844444444477,-200 L932.19466666667,-200 L932.19466666667,-150 L926.2844444444477,-150 L926.2844444444477,-200 Z" fill="#f0f0f0" />
<path d="M932.19466666667,-200 L938.1048888888922,-200 L938.1048888888922,-150 L932.19466666667,-150 L932.19466666667,-200 Z" fill="black" />
<path d="M938.1048888888922,-200 L944.0151111111145,-200 L944.0151111111145,-150 L938.1048888888922,-150 L938.1048888888922,-200 Z" fill="#f0f0f0" />
<path d="M944.0151111111145,-200 L949.9253333333368,-200 L949.9253333333368,-150 L944.0151111111145,-150 L944.0151111111145,-200 Z" fill="black" />
<path d="M949.9253333333368,-200 L955.835555555559,-200 L955.835555555559,-150 L949.9253333333368,-150 L949.9253333333368,-200 Z" fill="#f0f0f0" />
<path d="M955.835555555559,-200 L961.7457777777813,-200 L961.7457777777813,-150 L955.835555555559,-150 L955.835555555559,-200 Z" fill="black" />
<path d="M961.7457777777813,-200 L967.6560000000036,-200 L967.6560000000036,-150 L961.7457777777813,-150 L961.7457777777813,-200 Z" fill="#f0f0f0" />
<path d="M967.6560000000036,-200 L973.5662222222259,-200 L973.5662222222259,-150 L967.6560000000036,-150 L967.6560000000036,-200 Z" fill="black" />
<path d="M973.5662222222259,-200 L979.4764444444481,-200 L979.4764444444481,-150 L973.5662222222259,-150 L973.5662222222259,-200 Z" fill="#f0f0f0" />
<path d="M979.4764444444481,-200 L985.3866666666704,-200 L985.3866666666704,-150 L979.4764444444481,-150 L979.4764444444481,-200 Z" fill="black" />
<path d="M985.3866666666704,-200 L991.2968888888927,-200 L991.2968888888927,-150 L985.3866666666704,-150 L985.3866666666704,-200 Z" fill="#f0f0f0" />
<path d="M991.2968888888927,-200 L997.207111111115,-200 L997.207111111115,-150 L991.2968888888927,-150 L991.2968888888927,-200 Z" fill="black" />
<path d="M997.207111111115,-200 L1003.1173333333372,-200 L1003.1173333333372,-150 L997.207111111115,-150 L997.207111111115,-200 Z" fill="#f0f0f0" />
<path d="M1003.1173333333372,-200 L1009.0275555555595,-200 L1009.0275555555595,-150 L1003.1173333333372,-150 L1003.1173333333372,-200 Z" fill="black" />
<path d="M1009.0275555555595,-200 L1014.9377777777818,-200 L1014.9377777777818,-150 L1009.0275555555595,-150 L1009.0275555555595,-200 Z" fill="#f0f0f0" />
<path d="M1014.9377777777818,-200 L1020.848000000004,-200 L1020.848000000004,-150 L1014.9377777777818,-150 L1014.9377777777818,-200 Z" fill="black" />
<path d="M1020.848000000004,-200 L1026.7582222222263,-200 L1026.7582222222263,-150 L1020.848000000004,-150 L1020.848000000004,-200 Z" fill="#f0f0f0" />
<path d="M1026.7582222222263,-200 L1032.6684444444486,-200 L1032.6684444444486,-150 L1026.7582222222263,-150 L1026.7582222222263,-200 Z" fill="black" />
<path d="M1032.6684444444486,-200 L1038.5786666666709,-200 L1038.5786666666709,-150 L1032.6684444444486,-150 L1032.6684444444486,-200 Z" fill="#f0f0f0" />
<path d="M1038.5786666666709,-200 L1044.4888888888931,-200 L1044.4888888888931,-150 L1038.5786666666709,-150 L1038.5786666666709,-200 Z" fill="black" />
<path d="M1044.4888888888931,-200 L1050.3991111111154,-200 L1050.3991111111154,-150 L1044.4888888888931,-150 L1044.4888888888931,-200 Z" fill="#f0f0f0" />
<path d="M1050.3991111111154,-200 L1056.3093333333377,-200 L1056.3093333333377,-150 L1050.3991111111154,-150 L1050.3991111111154,-200 Z" fill="black" />
<path d="M1056.3093333333377,-200 L1062.21955555556,-200 L1062.21955555556,-150 L1056.3093333333377,-150 L1056.3093333333377,-200 Z" fill="#f0f0f0" />
<path d="M1062.21955555556,-200 L1068.1297777777822,-200 L1068.1297777777822,-150 L1062.21955555556,-150 L1062.21955555556,-200 Z" fill="black" />
<path d="M1068.1297777777822,-200 L1074.0400000000045,-200 L1074.0400000000045,-150 L1068.1297777777822,-150 L1068.1297777777822,-200 Z" fill="#f0f0f0" />
<path d="M1074.0400000000045,-200 L1079.9502222222268,-200 L1079.9502222222268,-150 L1074.0400000000045,-150 L1074.0400000000045,-200 Z" fill="black" />
<path d="M1079.9502222222268,-200 L1085.860444444449,-200 L1085.860444444449,-150 L1079.9502222222268,-150 L1079.9502222222268,-200 Z" fill="#f0f0f0" />
<path d="M1085.860444444449,-200 L1091.7706666666713,-200 L1091.7706666666713,-150 L1085.860444444449,-150 L1085.860444444449,-200 Z" fill="black" />
<path d="M1091.7706666666713,-200 L1097.6808888888936,-200 L1097.6808888888936,-150 L1091.7706666666713,-150 L1091.7706666666713,-200 Z" fill="#f0f0f0" />
<path d="M1097.6808888888936,-200 L1103.5911111111159,-200 L1103.5911111111159,-150 L1097.6808888888936,-150 L1097.6808888888936,-200 Z" fill="black" />
<path d="M1103.5911111111159,-200 L1109.5013333333382,-200 L1109.5013333333382,-150 L1103.5911111111159,-150 L1103.5911111111159,-200 Z" fill="#f0f0f0" />
<path d="M1109.5013333333382,-200 L1115.4115555555604,-200 L1115.4115555555604,-150 L1109.5013333333382,-150 L1109.5013333333382,-200 Z" fill="black" />
<path d="M1115.4115555555604,-200 L1121.3217777777827,-200 L1121.3217777777827,-150 L1115.4115555555604,-150 L1115.4115555555604,-200 Z" fill="#f0f0f0" />
<path d="M1121.3217777777827,-200 L1127.232000000005,-200 L1127.232000000005,-150 L1121.3217777777827,-150 L1121.3217777777827,-200 Z" fill="black" />
<path d="M1127.232000000005,-200 L1133.1422222222272,-200 L1133.1422222222272,-150 L1127.232000000005,-150 L1127.232000000005,-200 Z" fill="#f0f0f0" />
<path d="M1133.1422222222272,-200 L1139.0524444444495,-200 L1139.0524444444495,-150 L1133.1422222222272,-150 L1133.1422222222272,-200 Z" fill="black" />
<path d="M1139.0524444444495,-200 L1144.9626666666718,-200 L1144.9626666666718,-150 L1139.0524444444495,-150 L1139.0524444444495,-200 Z" fill="#f0f0f0" />
<path d="M1144.9626666666718,-200 L1150.872888888894,-200 L1150.872888888894,-150 L1144.9626666666718,-150 L1144.9626666666718,-200 Z" fill="black" />
<path d="M1150.872888888894,-200 L1156.7831111111163,-200 L1156.7831111111163,-150 L1150.872888888894,-150 L1150.872888888894,-200 Z" fill="#f0f0f0" />
<path d="M1156.7831111111163,-200 L1162.6933333333386,-200 L1162.6933333333386,-150 L1156.7831111111163,-150 L1156.7831111111163,-200 Z" fill="black" />
<path d="M1162.6933333333386,-200 L1168.603555555561,-200 L1168.603555555561,-150 L1162.6933333333386,-150 L1162.6933333333386,-200 Z" fill="#f0f0f0" />
<path d="M1168.603555555561,-200 L1174.5137777777832,-200 L1174.5137777777832,-150 L1168.603555555561,-150 L1168.603555555561,-200 Z" fill="black" />
<path d="M1174.5137777777832,-200 L1180.4240000000054,-200 L1180.4240000000054,-150 L1174.5137777777832,-150 L1174.5137777777832,-200 Z" fill="#f0f0f0" />
<path d="M1180.4240000000054,-200 L1186.3342222222277,-200 L1186.3342222222277,-150 L1180.4240000000054,-150 L1180.4240000000054,-200 Z" fill="black" />
<path d="M1186.3342222222277,-200 L1192.24444444445,-200 L1192.24444444445,-150 L1186.3342222222277,-150 L1186.3342222222277,-200 Z" fill="#f0f0f0" />
<path d="M1192.24444444445,-200 L1198.1546666666723,-200 L1198.1546666666723,-150 L1192.24444444445,-150 L1192.24444444445,-200 Z" fill="black" />
<path d="M1198.1546666666723,-200 L1204.0648888888945,-200 L1204.0648888888945,-150 L1198.1546666666723,-150 L1198.1546666666723,-200 Z" fill="#f0f0f0" />
<path d="M1204.0648888888945,-200 L1209.9751111111168,-200 L1209.9751111111168,-150 L1204.0648888888945,-150 L1204.0648888888945,-200 Z" fill="black" />
<path d="M1209.9751111111168,-200 L1215.885333333339,-200 L1215.885333333339,-150 L1209.9751111111168,-150 L1209.9751111111168,-200 Z" fill="#f0f0f0" />
<path d="M1215.885333333339,-200 L1221.7955555555614,-200 L1221.7955555555614,-150 L1215.885333333339,-150 L1215.885333333339,-200 Z" fill="black" />
<path d="M1221.7955555555614,-200 L1227.7057777777836,-200 L1227.7057777777836,-150 L1221.7955555555614,-150 L1221.7955555555614,-200 Z" fill="#f0f0f0" />
<path d="M1227.7057777777836,-200 L1233.616000000006,-200 L1233.616000000006,-150 L1227.7057777777836,-150 L1227.7057777777836,-200 Z" fill="black" />
<path d="M1233.616000000006,-200 L1239.5262222222282,-200 L1239.5262222222282,-150 L1233.616000000006,-150 L1233.616000000006,-200 Z" fill="#f0f0f0" />
<path d="M1239.5262222222282,-200 L1245.4364444444504,-200 L1245.4364444444504,-150 L1239.5262222222282,-150 L1239.5262222222282,-200 Z" fill="black" />
<path d="M1245.4364444444504,-200 L1251.3466666666727,-200 L1251.3466666666727,-150 L1245.4364444444504,-150 L1245.4364444444504,-200 Z" fill="#f0f0f0" />
<path d="M1251.3466666666727,-200 L1257.256888888895,-200 L1257.256888888895,-150 L1251.3466666666727,-150 L1251.3466666666727,-200 Z" fill="black" />
<path d="M1257.256888888895,-200 L1263.1671111111173,-200 L1263.1671111111173,-150 L1257.256888888895,-150 L1257.256888888895,-200 Z" fill="#f0f0f0" />
<path d="M1263.1671111111173,-200 L1269.0773333333395,-200 L1269.0773333333395,-150 L1263.1671111111173,-150 L1263.1671111111173,-200 Z" fill="black" />
<path d="M1269.0773333333395,-200 L1274.9875555555618,-200 L1274.9875555555618,-150 L1269.0773333333395,-150 L1269.0773333333395,-200 Z" fill="#f0f0f0" />
<path d="M1274.9875555555618,-200 L1280.897777777784,-200 L1280.897777777784,-150 L1274.9875555555618,-150 L1274.9875555555618,-200 Z" fill="black" />
<path d="M1280.897777777784,-200 L1286.8080000000064,-200 L1286.8080000000064,-150 L1280.897777777784,-150 L1280.897777777784,-200 Z" fill="#f0f0f0" />
<path d="M1286.8080000000064,-200 L1292.7182222222286,-200 L1292.7182222222286,-150 L1286.8080000000064,-150 L1286.8080000000064,-200 Z" fill="black" />
<path d="M1292.7182222222286,-200 L1298.628444444451,-200 L1298.628444444451,-150 L1292.7182222222286,-150 L1292.7182222222286,-200 Z" fill="#f0f0f0" />
<path d="M1298.628444444451,-200 L1304.5386666666732,-200 L1304.5386666666732,-150 L1298.628444444451,-150 L1298.628444444451,-200 Z" fill="black" />
<path d="M1304.5386666666732,-200 L1310.4488888888955,-200 L1310.4488888888955,-150 L1304.5386666666732,-150 L1304.5386666666732,-200 Z" fill="#f0f0f0" />
<path d="M1310.4488888888955,-200 L1316.3591111111177,-200 L1316.3591111111177,-150 L1310.4488888888955,-150 L1310.4488888888955,-200 Z" fill="black" />
<path d="M1316.3591111111177,-200 L1322.26933333334,-200 L1322.26933333334,-150 L1316.3591111111177,-150 L1316.3591111111177,-200 Z" fill="#f0f0f0" />
<path d="M1322.26933333334,-200 L1328.1795555555623,-200 L1328.1795555555623,-150 L1322.26933333334,-150 L1322.26933333334,-200 Z" fill="black" />
<path d="M1328.1795555555623,-200 L1334.0897777777845,-200 L1334.0897777777845,-150 L1328.1795555555623,-150 L1328.1795555555623,-200 Z" fill="#f0f0f0" />
<path d="M1334.0897777777845,-200 L1340.0000000000068,-200 L1340.0000000000068,-150 L1334.0897777777845,-150 L1334.0897777777845,-200 Z" fill="black" />
<text x="10.2" y="-210" font-size="26" fill="black" dy="0em">CRISPR</text>
<path d="M3426.6000000000004,-200 L3941.0,-200 L3941.0,-150 L3426.6000000000004,-150 L3426.6000000000004,-200 Z" fill="white" stroke="white" stroke-width="4" />
<path d="M3426.6000000000004,-200 L3432.512643678161,-200 L3432.512643678161,-150 L3426.6000000000004,-150 L3426.6000000000004,-200 Z" fill="black" />
<path d="M3432.512643678161,-200 L3438.425287356322,-200 L3438.425287356322,-150 L3432.512643678161,-150 L3432.512643678161,-200 Z" fill="#f0f0f0" />
<path d="M3438.425287356322,-200 L3444.3379310344826,-200 L3444.3379310344826,-150 L3438.425287356322,-150 L3438.425287356322,-200 Z" fill="black" />
<path d="M3444.3379310344826,-200 L3450.2505747126434,-200 L3450.2505747126434,-150 L3444.3379310344826,-150 L3444.3379310344826,-200 Z" fill="#f0f0f0" />
<path d="M3450.2505747126434,-200 L3456.163218390804,-200 L3456.163218390804,-150 L3450.2505747126434,-150 L3450.2505747126434,-200 Z" fill="black" />
<path d="M3456.163218390804,-200 L3462.075862068965,-200 L3462.075862068965,-150 L3456.163218390804,-150 L3456.163218390804,-200 Z" fill="#f0f0f0" />
<path d="M3462.075862068965,-200 L3467.9885057471256,-200 L3467.9885057471256,-150 L3462.075862068965,-150 L3462.075862068965,-200 Z" fill="black" />
<path d="M3467.9885057471256,-200 L3473.9011494252863,-200 L3473.9011494252863,-150 L3467.9885057471256,-150 L3467.9885057471256,-200 Z" fill="#f0f0f0" />
<path d="M3473.9011494252863,-200 L3479.813793103447,-200 L3479.813793103447,-150 L3473.9011494252863,-150 L3473.9011494252863,-200 Z" fill="black" />
<path d="M3479.813793103447,-200 L3485.726436781608,-200 L3485.726436781608,-150 L3479.813793103447,-150 L3479.813793103447,-200 Z" fill="#f0f0f0" />
<path d="M3485.726436781608,-200 L3491.6390804597686,-200 L3491.6390804597686,-150 L3485.726436781608,-150 L3485.726436781608,-200 Z" fill="black" />
<path d="M3491.6390804597686,-200 L3497.5517241379293,-200 L3497.5517241379293,-150 L3491.6390804597686,-150 L3491.6390804597686,-200 Z" fill="#f0f0f0" />
<path d="M3497.5517241379293,-200 L3503.46436781609,-200 L3503.46436781609,-150 L3497.5517241379293,-150 L3497.5517241379293,-200 Z" fill="black" />
<path d="M3503.46436781609,-200 L3509.377011494251,-200 L3509.377011494251,-150 L3503.46436781609,-150 L3503.46436781609,-200 Z" fill="#f0f0f0" />
<path d="M3509.377011494251,-200 L3515.2896551724116,-200 L3515.2896551724116,-150 L3509.377011494251,-150 L3509.377011494251,-200 Z" fill="black" />
<path d="M3515.2896551724116,-200 L3521.2022988505723,-200 L3521.2022988505723,-150 L3515.2896551724116,-150 L3515.2896551724116,-200 Z" fill="#f0f0f0" />
<path d="M3521.2022988505723,-200 L3527.114942528733,-200 L3527.114942528733,-150 L3521.2022988505723,-150 L3521.2022988505723,-200 Z" fill="black" />
<path d="M3527.114942528733,-200 L3533.027586206894,-200 L3533.027586206894,-150 L3527.114942528733,-150 L3527.114942528733,-200 Z" fill="#f0f0f0" />
<path d="M3533.027586206894,-200 L3538.9402298850546,-200 L3538.9402298850546,-150 L3533.027586206894,-150 L3533.027586206894,-200 Z" fill="black" />
<path d="M3538.9402298850546,-200 L3544.8528735632153,-200 L3544.8528735632153,-150 L3538.9402298850546,-150 L3538.9402298850546,-200 Z" fill="#f0f0f0" />
<path d="M3544.8528735632153,-200 L3550.765517241376,-200 L3550.765517241376,-150 L3544.8528735632153,-150 L3544.8528735632153,-200 Z" fill="black" />
<path d="M3550.765517241376,-200 L3556.678160919537,-200 L3556.678160919537,-150 L3550.765517241376,-150 L3550.765517241376,-200 Z" fill="#f0f0f0" />
<path d="M3556.678160919537,-200 L3562.5908045976976,-200 L3562.5908045976976,-150 L3556.678160919537,-150 L3556.678160919537,-200 Z" fill="black" />
<path d="M3562.5908045976976,-200 L3568.5034482758583,-200 L3568.5034482758583,-150 L3562.5908045976976,-150 L3562.5908045976976,-200 Z" fill="#f0f0f0" />
<path d="M3568.5034482758583,-200 L3574.416091954019,-200 L3574.416091954019,-150 L3568.5034482758583,-150 L3568.5034482758583,-200 Z" fill="black" />
<path d="M3574.416091954019,-200 L3580.32873563218,-200 L3580.32873563218,-150 L3574.416091954019,-150 L3574.416091954019,-200 Z" fill="#f0f0f0" />
<path d="M3580.32873563218,-200 L3586.2413793103406,-200 L3586.2413793103406,-150 L3580.32873563218,-150 L3580.32873563218,-200 Z" fill="black" />
<path d="M3586.2413793103406,-200 L3592.1540229885013,-200 L3592.1540229885013,-150 L3586.2413793103406,-150 L3586.2413793103406,-200 Z" fill="#f0f0f0" />
<path d="M3592.1540229885013,-200 L3598.066666666662,-200 L3598.066666666662,-150 L3592.1540229885013,-150 L3592.1540229885013,-200 Z" fill="black" />
<path d="M3598.066666666662,-200 L3603.979310344823,-200 L3603.979310344823,-150 L3598.066666666662,-150 L3598.066666666662,-200 Z" fill="#f0f0f0" />
<path d="M3603.979310344823,-200 L3609.8919540229836,-200 L3609.8919540229836,-150 L3603.979310344823,-150 L3603.979310344823,-200 Z" fill="black" />
<path d="M3609.8919540229836,-200 L3615.8045977011443,-200 L3615.8045977011443,-150 L3609.8919540229836,-150 L3609.8919540229836,-200 Z" fill="#f0f0f0" />
<path d="M3615.8045977011443,-200 L3621.717241379305,-200 L3621.717241379305,-150 L3615.8045977011443,-150 L3615.8045977011443,-200 Z" fill="black" />
<path d="M3621.717241379305,-200 L3627.629885057466,-200 L3627.629885057466,-150 L3621.717241379305,-150 L3621.717241379305,-200 Z" fill="#f0f0f0" />
<path d="M3627.629885057466,-200 L3633.5425287356265,-200 L3633.5425287356265,-150 L3627.629885057466,-150 L3627.629885057466,-200 Z" fill="black" />
<path d="M3633.5425287356265,-200 L3639.4551724137873,-200 L3639.4551724137873,-150 L3633.5425287356265,-150 L3633.5425287356265,-200 Z" fill="#f0f0f0" />
<path d="M3639.4551724137873,-200 L3645.367816091948,-200 L3645.367816091948,-150 L3639.4551724137873,-150 L3639.4551724137873,-200 Z" fill="black" />
<path d="M3645.367816091948,-200 L3651.280459770109,-200 L3651.280459770109,-150 L3645.367816091948,-150 L3645.367816091948,-200 Z" fill="#f0f0f0" />
<path d="M3651.280459770109,-200 L3657.1931034482695,-200 L3657.1931034482695,-150 L3651.280459770109,-150 L3651.280459770109,-200 Z" fill="black" />
<path d="M3657.1931034482695,-200 L3663.1057471264303,-200 L3663.1057471264303,-150 L3657.1931034482695,-150 L3657.1931034482695,-200 Z" fill="#f0f0f0" />
<path d="M3663.1057471264303,-200 L3669.018390804591,-200 L3669.018390804591,-150 L3663.1057471264303,-150 L3663.1057471264303,-200 Z" fill="black" />
<path d="M3669.018390804591,-200 L3674.931034482752,-200 L3674.931034482752,-150 L3669.018390804591,-150 L3669.018390804591,-200 Z" fill="#f0f0f0" />
<path d="M3674.931034482752,-200 L3680.8436781609125,-200 L3680.8436781609125,-150 L3674.931034482752,-150 L3674.931034482752,-200 Z" fill="black" />
<path d="M3680.8436781609125,-200 L3686.7563218390733,-200 L3686.7563218390733,-150 L3680.8436781609125,-150 L3680.8436781609125,-200 Z" fill="#f0f0f0" />
<path d="M3686.7563218390733,-200 L3692.668965517234,-200 L3692.668965517234,-150 L3686.7563218390733,-150 L3686.7563218390733,-200 Z" fill="black" />
<path d="M3692.668965517234,-200 L3698.581609195395,-200 L3698.581609195395,-150 L3692.668965517234,-150 L3692.668965517234,-200 Z" fill="#f0f0f0" />
<path d="M3698.581609195395,-200 L3704.4942528735555,-200 L3704.4942528735555,-150 L3698.581609195395,-150 L3698.581609195395,-200 Z" fill="black" />
<path d="M3704.4942528735555,-200 L3710.4068965517163,-200 L3710.4068965517163,-150 L3704.4942528735555,-150 L3704.4942528735555,-200 Z" fill="#f0f0f0" />
<path d="M3710.4068965517163,-200 L3716.319540229877,-200 L3716.319540229877,-150 L3710.4068965517163,-150 L3710.4068965517163,-200 Z" fill="black" />
<path d="M3716.319540229877,-200 L3722.2321839080378,-200 L3722.2321839080378,-150 L3716.319540229877,-150 L3716.319540229877,-200 Z" fill="#f0f0f0" />
<path d="M3722.2321839080378,-200 L3728.1448275861985,-200 L3728.1448275861985,-150 L3722.2321839080378,-150 L3722.2321839080378,-200 Z" fill="black" />
<path d="M3728.1448275861985,-200 L3734.0574712643593,-200 L3734.0574712643593,-150 L3728.1448275861985,-150 L3728.1448275861985,-200 Z" fill="#f0f0f0" />
<path d="M3734.0574712643593,-200 L3739.97011494252,-200 L3739.97011494252,-150 L3734.0574712643593,-150 L3734.0574712643593,-200 Z" fill="black" />
<path d="M3739.97011494252,-200 L3745.8827586206808,-200 L3745.8827586206808,-150 L3739.97011494252,-150 L3739.97011494252,-200 Z" fill="#f0f0f0" />
<path d="M3745.8827586206808,-200 L3751.7954022988415,-200 L3751.7954022988415,-150 L3745.8827586206808,-150 L3745.8827586206808,-200 Z" fill="black" />
<path d="M3751.7954022988415,-200 L3757.7080459770023,-200 L3757.7080459770023,-150 L3751.7954022988415,-150 L3751.7954022988415,-200 Z" fill="#f0f0f0" />
<path d="M3757.7080459770023,-200 L3763.620689655163,-200 L3763.620689655163,-150 L3757.7080459770023,-150 L3757.7080459770023,-200 Z" fill="black" />
<path d="M3763.620689655163,-200 L3769.5333333333238,-200 L3769.5333333333238,-150 L3763.620689655163,-150 L3763.620689655163,-200 Z" fill="#f0f0f0" />
<path d="M3769.5333333333238,-200 L3775.4459770114845,-200 L3775.4459770114845,-150 L3769.5333333333238,-150 L3769.5333333333238,-200 Z" fill="black" />
<path d="M3775.4459770114845,-200 L3781.3586206896452,-200 L3781.3586206896452,-150 L3775.4459770114845,-150 L3775.4459770114845,-200 Z" fill="#f0f0f0" />
<path d="M3781.3586206896452,-200 L3787.271264367806,-200 L3787.271264367806,-150 L3781.3586206896452,-150 L3781.3586206896452,-200 Z" fill="black" />
<path d="M3787.271264367806,-200 L3793.1839080459667,-200 L3793.1839080459667,-150 L3787.271264367806,-150 L3787.271264367806,-200 Z" fill="#f0f0f0" />
<path d="M3793.1839080459667,-200 L3799.0965517241275,-200 L3799.0965517241275,-150 L3793.1839080459667,-150 L3793.1839080459667,-200 Z" fill="black" />
<path d="M3799.0965517241275,-200 L3805.0091954022882,-200 L3805.0091954022882,-150 L3799.0965517241275,-150 L3799.0965517241275,-200 Z" fill="#f0f0f0" />
<path d="M3805.0091954022882,-200 L3810.921839080449,-200 L3810.921839080449,-150 L3805.0091954022882,-150 L3805.0091954022882,-200 Z" fill="black" />
<path d="M3810.921839080449,-200 L3816.8344827586097,-200 L3816.8344827586097,-150 L3810.921839080449,-150 L3810.921839080449,-200 Z" fill="#f0f0f0" />
<path d="M3816.8344827586097,-200 L3822.7471264367705,-200 L3822.7471264367705,-150 L3816.8344827586097,-150 L3816.8344827586097,-200 Z" fill="black" />
<path d="M3822.7471264367705,-200 L3828.6597701149312,-200 L3828.6597701149312,-150 L3822.7471264367705,-150 L3822.7471264367705,-200 Z" fill="#f0f0f0" />
<path d="M3828.6597701149312,-200 L3834.572413793092,-200 L3834.572413793092,-150 L3828.6597701149312,-150 L3828.6597701149312,-200 Z" fill="black" />
<path d="M3834.572413793092,-200 L3840.4850574712527,-200 L3840.4850574712527,-150 L3834.572413793092,-150 L3834.572413793092,-200 Z" fill="#f0f0f0" />
<path d="M3840.4850574712527,-200 L3846.3977011494135,-200 L3846.3977011494135,-150 L3840.4850574712527,-150 L3840.4850574712527,-200 Z" fill="black" />
<path d="M3846.3977011494135,-200 L3852.310344827574,-200 L3852.310344827574,-150 L3846.3977011494135,-150 L3846.3977011494135,-200 Z" fill="#f0f0f0" />
<path d="M3852.310344827574,-200 L3858.222988505735,-200 L3858.222988505735,-150 L3852.310344827574,-150 L3852.310344827574,-200 Z" fill="black" />
<path d="M3858.222988505735,-200 L3864.1356321838957,-200 L3864.1356321838957,-150 L3858.222988505735,-150 L3858.222988505735,-200 Z" fill="#f0f0f0" />
<path d="M3864.1356321838957,-200 L3870.0482758620565,-200 L3870.0482758620565,-150 L3864.1356321838957,-150 L3864.1356321838957,-200 Z" fill="black" />
<path d="M3870.0482758620565,-200 L3875.960919540217,-200 L3875.960919540217,-150 L3870.0482758620565,-150 L3870.0482758620565,-200 Z" fill="#f0f0f0" />
<path d="M3875.960919540217,-200 L3881.873563218378,-200 L3881.873563218378,-150 L3875.960919540217,-150 L3875.960919540217,-200 Z" fill="black" />
<path d="M3881.873563218378,-200 L3887.7862068965387,-200 L3887.7862068965387,-150 L3881.873563218378,-150 L3881.873563218378,-200 Z" fill="#f0f0f0" />
<path d="M3887.7862068965387,-200 L3893.6988505746995,-200 L3893.6988505746995,-150 L3887.7862068965387,-150 L3887.7862068965387,-200 Z" fill="black" />
<path d="M3893.6988505746995,-200 L3899.61149425286,-200 L3899.61149425286,-150 L3893.6988505746995,-150 L3893.6988505746995,-200 Z" fill="#f0f0f0" />
<path d="M3899.61149425286,-200 L3905.524137931021,-200 L3905.524137931021,-150 L3899.61149425286,-150 L3899.61149425286,-200 Z" fill="black" />
<path d="M3905.524137931021,-200 L3911.4367816091817,-200 L3911.4367816091817,-150 L3905.524137931021,-150 L3905.524137931021,-200 Z" fill="#f0f0f0" />
<path d="M3911.4367816091817,-200 L3917.3494252873425,-200 L3917.3494252873425,-150 L3911.4367816091817,-150 L3911.4367816091817,-200 Z" fill="black" />
<path d="M3917.3494252873425,-200 L3923.262068965503,-200 L3923.262068965503,-150 L3917.3494252873425,-150 L3917.3494252873425,-200 Z" fill="#f0f0f0" />
<path d="M3923.262068965503,-200 L3929.174712643664,-200 L3929.174712643664,-150 L3923.262068965503,-150 L3923.262068965503,-200 Z" fill="black" />
<path d="M3929.174712643664,-200 L3935.0873563218247,-200 L3935.0873563218247,-150 L3929.174712643664,-150 L3929.174712643664,-200 Z" fill="#f0f0f0" />
<path d="M3935.0873563218247,-200 L3940.9999999999854,-200 L3940.9999999999854,-150 L3935.0873563218247,-150 L3935.0873563218247,-200 Z" fill="black" />
<text x="3426.6000000000004" y="-210" font-size="26" fill="black" dy="0em">CRISPR</text>
</svg>