<?xml version="1.0" encoding="UTF-8"?>
<svg xmlns="http://www.w3.org/2000/svg" xmlns:xlink="http://www.w3.org/1999/xlink"
     width="136" height="400" viewBox="0 -400 136 400">
<defs>
</defs>
<path d="M10.2,-200 L45.800000000000004,-200 L45.800000000000004,-150 L10.2,-150 L10.2,-200 Z" fill="white" stroke="white" stroke-width="4" />
<path d="M10.2,-200 L17.32,-200 L17.32,-150 L10.2,-150 L10.2,-200 Z" fill="black" />
<path d="M17.32,-200 L24.44,-200 L24.44,-150 L17.32,-150 L17.32,-200 Z" fill="#f0f0f0" />
<path d="M24.44,-200 L31.560000000000002,-200 L31.560000000000002,-150 L24.44,-150 L24.44,-200 Z" fill="black" />
<path d="M31.560000000000002,-200 L38.68,-200 L38.68,-150 L31.560000000000002,-150 L31.560000000000002,-200 Z" fill="#f0f0f0" />
<path d="M38.68,-200 L45.8,-200 L45.8,-150 L38.68,-150 L38.68,-200 Z" fill="black" />
<text x="10.2" y="-210" font-size="26" fill="black" dy="0em">CRISPR</text>
<text x="16.0" y="-260" font-size="38" fill="black" dy="0em">Unknown: BPTN01000268_1 (3873-4051)</text>
</svg>