<?xml version="1.0" encoding="UTF-8"?>
<svg xmlns="http://www.w3.org/2000/svg" xmlns:xlink="http://www.w3.org/1999/xlink"
     width="1321" height="1000" viewBox="0 -1000 1321 1000">
<defs>
</defs>
<path d="M210,-20 L210,-920" stroke="grey" stroke-width="1" fill="none" />
<text x="160" y="-930" font-size="22" fill="grey" dy="0em">1000</text>
<path d="M410,-20 L410,-920" stroke="grey" stroke-width="1" fill="none" />
<text x="360" y="-930" font-size="22" fill="grey" dy="0em">2000</text>
<path d="M610,-20 L610,-920" stroke="grey" stroke-width="1" fill="none" />
<text x="560" y="-930" font-size="22" fill="grey" dy="0em">3000</text>
<path d="M810,-20 L810,-920" stroke="grey" stroke-width="1" fill="none" />
<text x="760" y="-930" font-size="22" fill="grey" dy="0em">4000</text>
<path d="M1010,-20 L1010,-920" stroke="grey" stroke-width="1" fill="none" />
<text x="960" y="-930" font-size="22" fill="grey" dy="0em">5000</text>
<path d="M1210,-20 L1210,-920" stroke="grey" stroke-width="1" fill="none" />
<text x="1160" y="-930" font-size="22" fill="grey" dy="0em">6000</text>
<text x="16.0" y="-860" font-size="38" fill="black" dy="0em">I-B: JAACVF010000053@1 (276-5507)</text>
<path d="M40.2,-800 L455.8,-800 L455.8,-750 L40.2,-750 L10.2,-775.0 L40.2,-800 Z" fill="#efc050" fill-opacity="0.8" stroke="#efc050" stroke-width="4" />
<text x="10.2" y="-810" font-size="26" fill="black" dy="0em">Cas3</text>
<path d="M480.20000000000005,-800 L598.2,-800 L598.2,-750 L480.20000000000005,-750 L450.20000000000005,-775.0 L480.20000000000005,-800 Z" fill="#efc050" fill-opacity="0.8" stroke="#efc050" stroke-width="4" />
<text x="450.20000000000005" y="-720" font-size="26" fill="black" dy="0em">Cas5</text>
<path d="M626.2,-800 L785.6,-800 L785.6,-750 L626.2,-750 L596.2,-775.0 L626.2,-800 Z" fill="#efc050" fill-opacity="0.8" stroke="#efc050" stroke-width="4" />
<text x="596.2" y="-810" font-size="26" fill="black" dy="0em">Cas7</text>
<path d="M823.2,-800 L1056.4,-800 L1056.4,-750 L823.2,-750 L793.2,-775.0 L823.2,-800 Z" fill="#efc050" fill-opacity="0.8" stroke="#efc050" stroke-width="4" />
<text x="793.2" y="-720" font-size="26" fill="black" dy="0em">Cas8b2</text>
<text x="16.0" y="-660" font-size="38" fill="black" dy="0em">I-B: JAACVF010000037@1 (240-6346)</text>
<path d="M10.2,-600 L362.20000000000005,-600 L392.20000000000005,-575.0 L362.20000000000005,-550 L10.2,-550 L10.2,-600 Z" fill="#efc050" fill-opacity="0.8" stroke="#efc050" stroke-width="4" />
<text x="10.2" y="-610" font-size="26" fill="black" dy="0em">Cas8b1</text>
<path d="M389.6,-600 L553.2,-600 L583.2,-575.0 L553.2,-550 L389.6,-550 L389.6,-600 Z" fill="#efc050" fill-opacity="0.8" stroke="#efc050" stroke-width="4" />
<text x="389.6" y="-520" font-size="26" fill="black" dy="0em">Cas7</text>
<path d="M584.6,-600 L710.4000000000001,-600 L740.4000000000001,-575.0 L710.4000000000001,-550 L584.6,-550 L584.6,-600 Z" fill="#efc050" fill-opacity="0.8" stroke="#efc050" stroke-width="4" />
<text x="584.6" y="-610" font-size="26" fill="black" dy="0em">Cas5</text>
<path d="M733.0,-600 L1201.4,-600 L1231.4,-575.0 L1201.4,-550 L733.0,-550 L733.0,-600 Z" fill="#efc050" fill-opacity="0.8" stroke="#efc050" stroke-width="4" />
<text x="733.0" y="-520" font-size="26" fill="black" dy="0em">Cas3</text>
<text x="16.0" y="-460" font-size="38" fill="black" dy="0em">Ambiguous: JAACVF010000181@1 (119-2500)</text>
<path d="M40.2,-400 L62.800000000000004,-400 L62.800000000000004,-350 L40.2,-350 L10.2,-375.0 L40.2,-400 Z" fill="#5b5ea6" fill-opacity="0.8" stroke="#5b5ea6" stroke-width="4" />
<text x="10.2" y="-410" font-size="26" fill="black" dy="0em">Cas2</text>
<path d="M116.4,-400 L128.2,-400 L128.2,-350 L116.4,-350 L86.4,-375.0 L116.4,-400 Z" fill="#d3c9c1" fill-opacity="0.8" stroke="#d3c9c1" stroke-width="4" />
<text x="86.4" y="-320" font-size="20" fill="black" dy="0em">2</text>
<path d="M171.0,-400 L338.20000000000005,-400 L338.20000000000005,-350 L171.0,-350 L141.0,-375.0 L171.0,-400 Z" fill="#5b5ea6" fill-opacity="0.8" stroke="#5b5ea6" stroke-width="4" />
<text x="141.0" y="-410" font-size="26" fill="black" dy="0em">Cas1</text>
<path d="M368.6,-400 L366.0,-400 L366.0,-350 L368.6,-350 L338.6,-375.0 L368.6,-400 Z" fill="#d3c9c1" fill-opacity="0.8" stroke="#d3c9c1" stroke-width="4" />
<text x="338.6" y="-320" font-size="20" fill="black" dy="0em">4</text>
<path d="M417.0,-400 L486.40000000000003,-400 L486.40000000000003,-350 L417.0,-350 L387.0,-375.0 L417.0,-400 Z" fill="#5b5ea6" fill-opacity="0.8" stroke="#5b5ea6" stroke-width="4" />
<text x="387.0" y="-410" font-size="26" fill="black" dy="0em">Cas4</text>
<path d="M10.2,-200 L137.0,-200 L137.0,-150 L10.2,-150 L10.2,-200 Z" fill="white" stroke="white" stroke-width="4" />
<path d="M10.2,-200 L16.873684210526314,-200 L16.873684210526314,-150 L10.2,-150 L10.2,-200 Z" fill="black" />
<path d="M16.873684210526314,-200 L23.547368421052628,-200 L23.547368421052628,-150 L16.873684210526314,-150 L16.873684210526314,-200 Z" fill="#f0f0f0" />
<path d="M23.547368421052628,-200 L30.221052631578942,-200 L30.221052631578942,-150 L23.547368421052628,-150 L23.547368421052628,-200 Z" fill="black" />
<path d="M30.221052631578942,-200 L36.89473684210526,-200 L36.89473684210526,-150 L30.221052631578942,-150 L30.221052631578942,-200 Z" fill="#f0f0f0" />
<path d="M36.89473684210526,-200 L43.56842105263158,-200 L43.56842105263158,-150 L36.89473684210526,-150 L36.89473684210526,-200 Z" fill="black" />
<path d="M43.56842105263158,-200 L50.242105263157896,-200 L50.242105263157896,-150 L43.56842105263158,-150 L43.56842105263158,-200 Z" fill="#f0f0f0" />
<path d="M50.242105263157896,-200 L56.915789473684214,-200 L56.915789473684214,-150 L50.242105263157896,-150 L50.242105263157896,-200 Z" fill="black" />
<path d="M56.915789473684214,-200 L63.58947368421053,-200 L63.58947368421053,-150 L56.915789473684214,-150 L56.915789473684214,-200 Z" fill="#f0f0f0" />
<path d="M63.58947368421053,-200 L70.26315789473685,-200 L70.26315789473685,-150 L63.58947368421053,-150 L63.58947368421053,-200 Z" fill="black" />
<path d="M70.26315789473685,-200 L76.93684210526317,-200 L76.93684210526317,-150 L70.26315789473685,-150 L70.26315789473685,-200 Z" fill="#f0f0f0" />
<path d="M76.93684210526317,-200 L83.61052631578949,-200 L83.61052631578949,-150 L76.93684210526317,-150 L76.93684210526317,-200 Z" fill="black" />
<path d="M83.61052631578949,-200 L90.2842105263158,-200 L90.2842105263158,-150 L83.61052631578949,-150 L83.61052631578949,-200 Z" fill="#f0f0f0" />
<path d="M90.2842105263158,-200 L96.95789473684212,-200 L96.95789473684212,-150 L90.2842105263158,-150 L90.2842105263158,-200 Z" fill="black" />
<path d="M96.95789473684212,-200 L103.63157894736844,-200 L103.63157894736844,-150 L96.95789473684212,-150 L96.95789473684212,-200 Z" fill="#f0f0f0" />
<path d="M103.63157894736844,-200 L110.30526315789476,-200 L110.30526315789476,-150 L103.63157894736844,-150 L103.63157894736844,-200 Z" fill="black" />
<path d="M110.30526315789476,-200 L116.97894736842107,-200 L116.97894736842107,-150 L110.30526315789476,-150 L110.30526315789476,-200 Z" fill="#f0f0f0" />
<path d="M116.97894736842107,-200 L123.65263157894739,-200 L123.65263157894739,-150 L116.97894736842107,-150 L116.97894736842107,-200 Z" fill="black" />
<path d="M123.65263157894739,-200 L130.3263157894737,-200 L130.3263157894737,-150 L123.65263157894739,-150 L123.65263157894739,-200 Z" fill="#f0f0f0" />
<path d="M130.3263157894737,-200 L137.00000000000003,-200 L137.00000000000003,-150 L130.3263157894737,-150 L130.3263157894737,-200 Z" fill="black" />
<text x="10.2" y="-210" font-size="26" fill="black" dy="0em">CRISPR</text>
<text x="16.0" y="-260" font-size="38" fill="black" dy="0em">Unknown: JAACVF010000151_1 (302-936)</text>
</svg>