<?xml version="1.0" encoding="UTF-8"?>
<svg xmlns="http://www.w3.org/2000/svg" xmlns:xlink="http://www.w3.org/1999/xlink"
     width="196" height="400" viewBox="0 -400 196 400">
<defs>
</defs>
<path d="M10.2,-200 L106.4,-200 L106.4,-150 L10.2,-150 L10.2,-200 Z" fill="white" stroke="white" stroke-width="4" />
<path d="M10.2,-200 L17.6,-200 L17.6,-150 L10.2,-150 L10.2,-200 Z" fill="black" />
<path d="M17.6,-200 L25.0,-200 L25.0,-150 L17.6,-150 L17.6,-200 Z" fill="#f0f0f0" />
<path d="M25.0,-200 L32.4,-200 L32.4,-150 L25.0,-150 L25.0,-200 Z" fill="black" />
<path d="M32.4,-200 L39.8,-200 L39.8,-150 L32.4,-150 L32.4,-200 Z" fill="#f0f0f0" />
<path d="M39.8,-200 L47.199999999999996,-200 L47.199999999999996,-150 L39.8,-150 L39.8,-200 Z" fill="black" />
<path d="M47.199999999999996,-200 L54.599999999999994,-200 L54.599999999999994,-150 L47.199999999999996,-150 L47.199999999999996,-200 Z" fill="#f0f0f0" />
<path d="M54.599999999999994,-200 L61.99999999999999,-200 L61.99999999999999,-150 L54.599999999999994,-150 L54.599999999999994,-200 Z" fill="black" />
<path d="M61.99999999999999,-200 L69.39999999999999,-200 L69.39999999999999,-150 L61.99999999999999,-150 L61.99999999999999,-200 Z" fill="#f0f0f0" />
<path d="M69.39999999999999,-200 L76.8,-200 L76.8,-150 L69.39999999999999,-150 L69.39999999999999,-200 Z" fill="black" />
<path d="M76.8,-200 L84.2,-200 L84.2,-150 L76.8,-150 L76.8,-200 Z" fill="#f0f0f0" />
<path d="M84.2,-200 L91.60000000000001,-200 L91.60000000000001,-150 L84.2,-150 L84.2,-200 Z" fill="black" />
<path d="M91.60000000000001,-200 L99.00000000000001,-200 L99.00000000000001,-150 L91.60000000000001,-150 L91.60000000000001,-200 Z" fill="#f0f0f0" />
<path d="M99.00000000000001,-200 L106.40000000000002,-200 L106.40000000000002,-150 L99.00000000000001,-150 L99.00000000000001,-200 Z" fill="black" />
<text x="10.2" y="-210" font-size="26" fill="black" dy="0em">CRISPR</text>
<text x="16.0" y="-260" font-size="38" fill="black" dy="0em">Unknown: JAGGYF010000021_1 (14-495)</text>
</svg>