<?xml version="1.0" encoding="UTF-8"?>
<svg xmlns="http://www.w3.org/2000/svg" xmlns:xlink="http://www.w3.org/1999/xlink"
     width="1464" height="1000" viewBox="0 -1000 1464 1000">
<defs>
</defs>
<path d="M210,-20 L210,-920" stroke="grey" stroke-width="1" fill="none" />
<text x="160" y="-930" font-size="22" fill="grey" dy="0em">1000</text>
<path d="M410,-20 L410,-920" stroke="grey" stroke-width="1" fill="none" />
<text x="360" y="-930" font-size="22" fill="grey" dy="0em">2000</text>
<path d="M610,-20 L610,-920" stroke="grey" stroke-width="1" fill="none" />
<text x="560" y="-930" font-size="22" fill="grey" dy="0em">3000</text>
<path d="M810,-20 L810,-920" stroke="grey" stroke-width="1" fill="none" />
<text x="760" y="-930" font-size="22" fill="grey" dy="0em">4000</text>
<path d="M1010,-20 L1010,-920" stroke="grey" stroke-width="1" fill="none" />
<text x="960" y="-930" font-size="22" fill="grey" dy="0em">5000</text>
<path d="M1210,-20 L1210,-920" stroke="grey" stroke-width="1" fill="none" />
<text x="1160" y="-930" font-size="22" fill="grey" dy="0em">6000</text>
<path d="M1410,-20 L1410,-920" stroke="grey" stroke-width="1" fill="none" />
<text x="1360" y="-930" font-size="22" fill="grey" dy="0em">7000</text>
<text x="16.0" y="-860" font-size="38" fill="black" dy="0em">I-B: JAACUZ010000015@1 (10-6116)</text>
<path d="M40.2,-800 L508.6,-800 L508.6,-750 L40.2,-750 L10.2,-775.0 L40.2,-800 Z" fill="#efc050" fill-opacity="0.8" stroke="#efc050" stroke-width="4" />
<text x="10.2" y="-810" font-size="26" fill="black" dy="0em">Cas3</text>
<path d="M531.2,-800 L657.0,-800 L657.0,-750 L531.2,-750 L501.20000000000005,-775.0 L531.2,-800 Z" fill="#efc050" fill-opacity="0.8" stroke="#efc050" stroke-width="4" />
<text x="501.20000000000005" y="-720" font-size="26" fill="black" dy="0em">Cas5</text>
<path d="M688.4000000000001,-800 L852.0,-800 L852.0,-750 L688.4000000000001,-750 L658.4000000000001,-775.0 L688.4000000000001,-800 Z" fill="#efc050" fill-opacity="0.8" stroke="#efc050" stroke-width="4" />
<text x="658.4000000000001" y="-810" font-size="26" fill="black" dy="0em">Cas7</text>
<path d="M879.4000000000001,-800 L1231.4,-800 L1231.4,-750 L879.4000000000001,-750 L849.4000000000001,-775.0 L879.4000000000001,-800 Z" fill="#efc050" fill-opacity="0.8" stroke="#efc050" stroke-width="4" />
<text x="849.4000000000001" y="-720" font-size="26" fill="black" dy="0em">Cas8b1</text>
<text x="16.0" y="-660" font-size="38" fill="black" dy="0em">I-B: JAACUZ010000029@1 (8-6827)</text>
<path d="M40.2,-600 L506.20000000000005,-600 L506.20000000000005,-550 L40.2,-550 L10.2,-575.0 L40.2,-600 Z" fill="#efc050" fill-opacity="0.8" stroke="#efc050" stroke-width="4" />
<text x="10.2" y="-610" font-size="26" fill="black" dy="0em">Cas3</text>
<path d="M535.6,-600 L665.0,-600 L665.0,-550 L535.6,-550 L505.6,-575.0 L535.6,-600 Z" fill="#efc050" fill-opacity="0.8" stroke="#efc050" stroke-width="4" />
<text x="505.6" y="-520" font-size="26" fill="black" dy="0em">Cas5</text>
<path d="M696.0,-600 L884.8000000000001,-600 L884.8000000000001,-550 L696.0,-550 L666.0,-575.0 L696.0,-600 Z" fill="#efc050" fill-opacity="0.8" stroke="#efc050" stroke-width="4" />
<text x="666.0" y="-610" font-size="26" fill="black" dy="0em">Cas7b</text>
<path d="M915.2,-600 L1374.0,-600 L1374.0,-550 L915.2,-550 L885.2,-575.0 L915.2,-600 Z" fill="#efc050" fill-opacity="0.8" stroke="#efc050" stroke-width="4" />
<text x="885.2" y="-520" font-size="26" fill="black" dy="0em">Cas8b1</text>
<text x="16.0" y="-460" font-size="38" fill="black" dy="0em">I-B: JAACUZ010000105@1 (218-5449)</text>
<path d="M10.2,-400 L243.40000000000003,-400 L273.40000000000003,-375.0 L243.40000000000003,-350 L10.2,-350 L10.2,-400 Z" fill="#efc050" fill-opacity="0.8" stroke="#efc050" stroke-width="4" />
<text x="10.2" y="-410" font-size="26" fill="black" dy="0em">Cas8b2</text>
<path d="M262.0,-400 L250.40000000000003,-400 L280.40000000000003,-375.0 L250.40000000000003,-350 L262.0,-350 L262.0,-400 Z" fill="#d3c9c1" fill-opacity="0.8" stroke="#d3c9c1" stroke-width="4" />
<text x="262.0" y="-320" font-size="20" fill="black" dy="0em">2</text>
<path d="M281.0,-400 L440.40000000000003,-400 L470.40000000000003,-375.0 L440.40000000000003,-350 L281.0,-350 L281.0,-400 Z" fill="#efc050" fill-opacity="0.8" stroke="#efc050" stroke-width="4" />
<text x="281.0" y="-410" font-size="26" fill="black" dy="0em">Cas7</text>
<path d="M470.8,-400 L586.4,-400 L616.4,-375.0 L586.4,-350 L470.8,-350 L470.8,-400 Z" fill="#efc050" fill-opacity="0.8" stroke="#efc050" stroke-width="4" />
<text x="470.8" y="-320" font-size="26" fill="black" dy="0em">Cas5</text>
<path d="M610.8000000000001,-400 L1026.4,-400 L1056.4,-375.0 L1026.4,-350 L610.8000000000001,-350 L610.8000000000001,-400 Z" fill="#efc050" fill-opacity="0.8" stroke="#efc050" stroke-width="4" />
<text x="610.8000000000001" y="-410" font-size="26" fill="black" dy="0em">Cas3</text>
<path d="M10.2,-200 L137.0,-200 L137.0,-150 L10.2,-150 L10.2,-200 Z" fill="white" stroke="white" stroke-width="4" />
<path d="M10.2,-200 L16.873684210526314,-200 L16.873684210526314,-150 L10.2,-150 L10.2,-200 Z" fill="black" />
<path d="M16.873684210526314,-200 L23.547368421052628,-200 L23.547368421052628,-150 L16.873684210526314,-150 L16.873684210526314,-200 Z" fill="#f0f0f0" />
<path d="M23.547368421052628,-200 L30.221052631578942,-200 L30.221052631578942,-150 L23.547368421052628,-150 L23.547368421052628,-200 Z" fill="black" />
<path d="M30.221052631578942,-200 L36.89473684210526,-200 L36.89473684210526,-150 L30.221052631578942,-150 L30.221052631578942,-200 Z" fill="#f0f0f0" />
<path d="M36.89473684210526,-200 L43.56842105263158,-200 L43.56842105263158,-150 L36.89473684210526,-150 L36.89473684210526,-200 Z" fill="black" />
<path d="M43.56842105263158,-200 L50.242105263157896,-200 L50.242105263157896,-150 L43.56842105263158,-150 L43.56842105263158,-200 Z" fill="#f0f0f0" />
<path d="M50.242105263157896,-200 L56.915789473684214,-200 L56.915789473684214,-150 L50.242105263157896,-150 L50.242105263157896,-200 Z" fill="black" />
<path d="M56.915789473684214,-200 L63.58947368421053,-200 L63.58947368421053,-150 L56.915789473684214,-150 L56.915789473684214,-200 Z" fill="#f0f0f0" />
<path d="M63.58947368421053,-200 L70.26315789473685,-200 L70.26315789473685,-150 L63.58947368421053,-150 L63.58947368421053,-200 Z" fill="black" />
<path d="M70.26315789473685,-200 L76.93684210526317,-200 L76.93684210526317,-150 L70.26315789473685,-150 L70.26315789473685,-200 Z" fill="#f0f0f0" />
<path d="M76.93684210526317,-200 L83.61052631578949,-200 L83.61052631578949,-150 L76.93684210526317,-150 L76.93684210526317,-200 Z" fill="black" />
<path d="M83.61052631578949,-200 L90.2842105263158,-200 L90.2842105263158,-150 L83.61052631578949,-150 L83.61052631578949,-200 Z" fill="#f0f0f0" />
<path d="M90.2842105263158,-200 L96.95789473684212,-200 L96.95789473684212,-150 L90.2842105263158,-150 L90.2842105263158,-200 Z" fill="black" />
<path d="M96.95789473684212,-200 L103.63157894736844,-200 L103.63157894736844,-150 L96.95789473684212,-150 L96.95789473684212,-200 Z" fill="#f0f0f0" />
<path d="M103.63157894736844,-200 L110.30526315789476,-200 L110.30526315789476,-150 L103.63157894736844,-150 L103.63157894736844,-200 Z" fill="black" />
<path d="M110.30526315789476,-200 L116.97894736842107,-200 L116.97894736842107,-150 L110.30526315789476,-150 L110.30526315789476,-200 Z" fill="#f0f0f0" />
<path d="M116.97894736842107,-200 L123.65263157894739,-200 L123.65263157894739,-150 L116.97894736842107,-150 L116.97894736842107,-200 Z" fill="black" />
<path d="M123.65263157894739,-200 L130.3263157894737,-200 L130.3263157894737,-150 L123.65263157894739,-150 L123.65263157894739,-200 Z" fill="#f0f0f0" />
<path d="M130.3263157894737,-200 L137.00000000000003,-200 L137.00000000000003,-150 L130.3263157894737,-150 L130.3263157894737,-200 Z" fill="black" />
<text x="10.2" y="-210" font-size="26" fill="black" dy="0em">CRISPR</text>
<text x="16.0" y="-260" font-size="38" fill="black" dy="0em">Unknown: JAACUZ010000057_1 (3541-4175)</text>
</svg>