<?xml version="1.0" encoding="UTF-8"?>
<svg xmlns="http://www.w3.org/2000/svg" xmlns:xlink="http://www.w3.org/1999/xlink"
     width="3633" height="400" viewBox="0 -400 3633 400">
<defs>
</defs>
<path d="M210,-20 L210,-320" stroke="grey" stroke-width="1" fill="none" />
<text x="160" y="-330" font-size="22" fill="grey" dy="0em">1000</text>
<path d="M410,-20 L410,-320" stroke="grey" stroke-width="1" fill="none" />
<text x="360" y="-330" font-size="22" fill="grey" dy="0em">2000</text>
<path d="M610,-20 L610,-320" stroke="grey" stroke-width="1" fill="none" />
<text x="560" y="-330" font-size="22" fill="grey" dy="0em">3000</text>
<path d="M810,-20 L810,-320" stroke="grey" stroke-width="1" fill="none" />
<text x="760" y="-330" font-size="22" fill="grey" dy="0em">4000</text>
<path d="M1010,-20 L1010,-320" stroke="grey" stroke-width="1" fill="none" />
<text x="960" y="-330" font-size="22" fill="grey" dy="0em">5000</text>
<path d="M1210,-20 L1210,-320" stroke="grey" stroke-width="1" fill="none" />
<text x="1160" y="-330" font-size="22" fill="grey" dy="0em">6000</text>
<path d="M1410,-20 L1410,-320" stroke="grey" stroke-width="1" fill="none" />
<text x="1360" y="-330" font-size="22" fill="grey" dy="0em">7000</text>
<path d="M1610,-20 L1610,-320" stroke="grey" stroke-width="1" fill="none" />
<text x="1560" y="-330" font-size="22" fill="grey" dy="0em">8000</text>
<path d="M1810,-20 L1810,-320" stroke="grey" stroke-width="1" fill="none" />
<text x="1760" y="-330" font-size="22" fill="grey" dy="0em">9000</text>
<path d="M2010,-20 L2010,-320" stroke="grey" stroke-width="1" fill="none" />
<text x="1960" y="-330" font-size="22" fill="grey" dy="0em">10000</text>
<path d="M2210,-20 L2210,-320" stroke="grey" stroke-width="1" fill="none" />
<text x="2160" y="-330" font-size="22" fill="grey" dy="0em">11000</text>
<path d="M2410,-20 L2410,-320" stroke="grey" stroke-width="1" fill="none" />
<text x="2360" y="-330" font-size="22" fill="grey" dy="0em">12000</text>
<path d="M2610,-20 L2610,-320" stroke="grey" stroke-width="1" fill="none" />
<text x="2560" y="-330" font-size="22" fill="grey" dy="0em">13000</text>
<path d="M2810,-20 L2810,-320" stroke="grey" stroke-width="1" fill="none" />
<text x="2760" y="-330" font-size="22" fill="grey" dy="0em">14000</text>
<path d="M3010,-20 L3010,-320" stroke="grey" stroke-width="1" fill="none" />
<text x="2960" y="-330" font-size="22" fill="grey" dy="0em">15000</text>
<path d="M3210,-20 L3210,-320" stroke="grey" stroke-width="1" fill="none" />
<text x="3160" y="-330" font-size="22" fill="grey" dy="0em">16000</text>
<path d="M3410,-20 L3410,-320" stroke="grey" stroke-width="1" fill="none" />
<text x="3360" y="-330" font-size="22" fill="grey" dy="0em">17000</text>
<path d="M3610,-20 L3610,-320" stroke="grey" stroke-width="1" fill="none" />
<text x="3560" y="-330" font-size="22" fill="grey" dy="0em">18000</text>
<text x="16.0" y="-260" font-size="38" fill="black" dy="0em">I-E: JAENZA010000024@2 (1182-18848)</text>
<path d="M38.2,-200 L231.8,-200 L261.8,-175.0 L231.8,-150 L38.2,-150 L38.2,-200 Z" fill="#d3c9c1" fill-opacity="0.8" stroke="#d3c9c1" stroke-width="4" />
<text x="38.2" y="-210" font-size="20" fill="black" dy="0em">3</text>
<path d="M282.0,-200 L292.6,-200 L322.6,-175.0 L292.6,-150 L282.0,-150 L282.0,-200 Z" fill="#d3c9c1" fill-opacity="0.8" stroke="#d3c9c1" stroke-width="4" />
<text x="282.0" y="-120" font-size="20" fill="black" dy="0em">4</text>
<path d="M416.20000000000005,-200 L486.79999999999995,-200 L516.8,-175.0 L486.79999999999995,-150 L416.20000000000005,-150 L416.20000000000005,-200 Z" fill="#d3c9c1" fill-opacity="0.8" stroke="#d3c9c1" stroke-width="4" />
<text x="416.20000000000005" y="-210" font-size="20" fill="black" dy="0em">5</text>
<path d="M623.6,-200 L675.0,-200 L705.0,-175.0 L675.0,-150 L623.6,-150 L623.6,-200 Z" fill="#d3c9c1" fill-opacity="0.8" stroke="#d3c9c1" stroke-width="4" />
<text x="623.6" y="-120" font-size="20" fill="black" dy="0em">6</text>
<path d="M800.2,-200 L820.4000000000001,-200 L850.4000000000001,-175.0 L820.4000000000001,-150 L800.2,-150 L800.2,-200 Z" fill="#d3c9c1" fill-opacity="0.8" stroke="#d3c9c1" stroke-width="4" />
<text x="800.2" y="-210" font-size="20" fill="black" dy="0em">7</text>
<path d="M870.8000000000001,-200 L894.0,-200 L924.0,-175.0 L894.0,-150 L870.8000000000001,-150 L870.8000000000001,-200 Z" fill="#d3c9c1" fill-opacity="0.8" stroke="#d3c9c1" stroke-width="4" />
<text x="870.8000000000001" y="-120" font-size="20" fill="black" dy="0em">8</text>
<path d="M953.0,-200 L1037.4,-200 L1067.4,-175.0 L1037.4,-150 L953.0,-150 L953.0,-200 Z" fill="#d3c9c1" fill-opacity="0.8" stroke="#d3c9c1" stroke-width="4" />
<text x="953.0" y="-210" font-size="20" fill="black" dy="0em">9</text>
<path d="M1066.2,-200 L1135.0,-200 L1165.0,-175.0 L1135.0,-150 L1066.2,-150 L1066.2,-200 Z" fill="#d3c9c1" fill-opacity="0.8" stroke="#d3c9c1" stroke-width="4" />
<text x="1066.2" y="-120" font-size="20" fill="black" dy="0em">10</text>
<path d="M1197.0,-200 L1267.6000000000001,-200 L1297.6000000000001,-175.0 L1267.6000000000001,-150 L1197.0,-150 L1197.0,-200 Z" fill="#d3c9c1" fill-opacity="0.8" stroke="#d3c9c1" stroke-width="4" />
<text x="1197.0" y="-210" font-size="20" fill="black" dy="0em">11</text>
<path d="M1453.2,-200 L1519.0,-200 L1549.0,-175.0 L1519.0,-150 L1453.2,-150 L1453.2,-200 Z" fill="#d3c9c1" fill-opacity="0.8" stroke="#d3c9c1" stroke-width="4" />
<text x="1453.2" y="-120" font-size="20" fill="black" dy="0em">12</text>
<path d="M1569.8000000000002,-200 L1602.0,-200 L1602.0,-150 L1569.8000000000002,-150 L1539.8000000000002,-175.0 L1569.8000000000002,-200 Z" fill="#5b5ea6" fill-opacity="0.8" stroke="#5b5ea6" stroke-width="4" />
<text x="1539.8000000000002" y="-210" font-size="26" fill="black" dy="0em">Cas2</text>
<path d="M1629.6000000000001,-200 L1778.8000000000002,-200 L1778.8000000000002,-150 L1629.6000000000001,-150 L1599.6000000000001,-175.0 L1629.6000000000001,-200 Z" fill="#5b5ea6" fill-opacity="0.8" stroke="#5b5ea6" stroke-width="4" />
<text x="1599.6000000000001" y="-120" font-size="26" fill="black" dy="0em">Cas1</text>
<path d="M1810.8000000000002,-200 L1917.4,-200 L1917.4,-150 L1810.8000000000002,-150 L1780.8000000000002,-175.0 L1810.8000000000002,-200 Z" fill="#dd1424" fill-opacity="0.8" stroke="#dd1424" stroke-width="4" />
<text x="1780.8000000000002" y="-210" font-size="26" fill="black" dy="0em">Cas6e</text>
<path d="M1947.4,-200 L2068.4,-200 L2068.4,-150 L1947.4,-150 L1917.4,-175.0 L1947.4,-200 Z" fill="#efc050" fill-opacity="0.8" stroke="#efc050" stroke-width="4" />
<text x="1917.4" y="-120" font-size="26" fill="black" dy="0em">Cas5</text>
<path d="M2097.0,-200 L2296.0,-200 L2296.0,-150 L2097.0,-150 L2067.0,-175.0 L2097.0,-200 Z" fill="#efc050" fill-opacity="0.8" stroke="#efc050" stroke-width="4" />
<text x="2067.0" y="-210" font-size="26" fill="black" dy="0em">Cas7</text>
<path d="M2328.2000000000003,-200 L2403.6,-200 L2403.6,-150 L2328.2000000000003,-150 L2298.2000000000003,-175.0 L2328.2000000000003,-200 Z" fill="#efc050" fill-opacity="0.8" stroke="#efc050" stroke-width="4" />
<text x="2298.2000000000003" y="-120" font-size="26" fill="black" dy="0em">Cse2gr11</text>
<path d="M2437.6,-200 L2696.6000000000004,-200 L2696.6000000000004,-150 L2437.6,-150 L2407.6,-175.0 L2437.6,-200 Z" fill="#efc050" fill-opacity="0.8" stroke="#efc050" stroke-width="4" />
<text x="2407.6" y="-210" font-size="26" fill="black" dy="0em">Cas8e</text>
<path d="M2771.2000000000003,-200 L3278.6000000000004,-200 L3278.6000000000004,-150 L2771.2000000000003,-150 L2741.2000000000003,-175.0 L2771.2000000000003,-200 Z" fill="#efc050" fill-opacity="0.8" stroke="#efc050" stroke-width="4" />
<text x="2741.2000000000003" y="-120" font-size="26" fill="black" dy="0em">Cas3</text>
<path d="M10.2,-200 L1516.2,-200 L1516.2,-150 L10.2,-150 L10.2,-200 Z" fill="white" stroke="white" stroke-width="4" />
<path d="M10.2,-200 L16.297165991902833,-200 L16.297165991902833,-150 L10.2,-150 L10.2,-200 Z" fill="black" />
<path d="M16.297165991902833,-200 L22.394331983805667,-200 L22.394331983805667,-150 L16.297165991902833,-150 L16.297165991902833,-200 Z" fill="#f0f0f0" />
<path d="M22.394331983805667,-200 L28.4914979757085,-200 L28.4914979757085,-150 L22.394331983805667,-150 L22.394331983805667,-200 Z" fill="black" />
<path d="M28.4914979757085,-200 L34.58866396761134,-200 L34.58866396761134,-150 L28.4914979757085,-150 L28.4914979757085,-200 Z" fill="#f0f0f0" />
<path d="M34.58866396761134,-200 L40.68582995951417,-200 L40.68582995951417,-150 L34.58866396761134,-150 L34.58866396761134,-200 Z" fill="black" />
<path d="M40.68582995951417,-200 L46.78299595141701,-200 L46.78299595141701,-150 L40.68582995951417,-150 L40.68582995951417,-200 Z" fill="#f0f0f0" />
<path d="M46.78299595141701,-200 L52.88016194331984,-200 L52.88016194331984,-150 L46.78299595141701,-150 L46.78299595141701,-200 Z" fill="black" />
<path d="M52.88016194331984,-200 L58.977327935222675,-200 L58.977327935222675,-150 L52.88016194331984,-150 L52.88016194331984,-200 Z" fill="#f0f0f0" />
<path d="M58.977327935222675,-200 L65.0744939271255,-200 L65.0744939271255,-150 L58.977327935222675,-150 L58.977327935222675,-200 Z" fill="black" />
<path d="M65.0744939271255,-200 L71.17165991902834,-200 L71.17165991902834,-150 L65.0744939271255,-150 L65.0744939271255,-200 Z" fill="#f0f0f0" />
<path d="M71.17165991902834,-200 L77.26882591093118,-200 L77.26882591093118,-150 L71.17165991902834,-150 L71.17165991902834,-200 Z" fill="black" />
<path d="M77.26882591093118,-200 L83.36599190283403,-200 L83.36599190283403,-150 L77.26882591093118,-150 L77.26882591093118,-200 Z" fill="#f0f0f0" />
<path d="M83.36599190283403,-200 L89.46315789473687,-200 L89.46315789473687,-150 L83.36599190283403,-150 L83.36599190283403,-200 Z" fill="black" />
<path d="M89.46315789473687,-200 L95.56032388663971,-200 L95.56032388663971,-150 L89.46315789473687,-150 L89.46315789473687,-200 Z" fill="#f0f0f0" />
<path d="M95.56032388663971,-200 L101.65748987854255,-200 L101.65748987854255,-150 L95.56032388663971,-150 L95.56032388663971,-200 Z" fill="black" />
<path d="M101.65748987854255,-200 L107.75465587044539,-200 L107.75465587044539,-150 L101.65748987854255,-150 L101.65748987854255,-200 Z" fill="#f0f0f0" />
<path d="M107.75465587044539,-200 L113.85182186234823,-200 L113.85182186234823,-150 L107.75465587044539,-150 L107.75465587044539,-200 Z" fill="black" />
<path d="M113.85182186234823,-200 L119.94898785425107,-200 L119.94898785425107,-150 L113.85182186234823,-150 L113.85182186234823,-200 Z" fill="#f0f0f0" />
<path d="M119.94898785425107,-200 L126.04615384615391,-200 L126.04615384615391,-150 L119.94898785425107,-150 L119.94898785425107,-200 Z" fill="black" />
<path d="M126.04615384615391,-200 L132.14331983805675,-200 L132.14331983805675,-150 L126.04615384615391,-150 L126.04615384615391,-200 Z" fill="#f0f0f0" />
<path d="M132.14331983805675,-200 L138.2404858299596,-200 L138.2404858299596,-150 L132.14331983805675,-150 L132.14331983805675,-200 Z" fill="black" />
<path d="M138.2404858299596,-200 L144.33765182186244,-200 L144.33765182186244,-150 L138.2404858299596,-150 L138.2404858299596,-200 Z" fill="#f0f0f0" />
<path d="M144.33765182186244,-200 L150.43481781376528,-200 L150.43481781376528,-150 L144.33765182186244,-150 L144.33765182186244,-200 Z" fill="black" />
<path d="M150.43481781376528,-200 L156.53198380566812,-200 L156.53198380566812,-150 L150.43481781376528,-150 L150.43481781376528,-200 Z" fill="#f0f0f0" />
<path d="M156.53198380566812,-200 L162.62914979757096,-200 L162.62914979757096,-150 L156.53198380566812,-150 L156.53198380566812,-200 Z" fill="black" />
<path d="M162.62914979757096,-200 L168.7263157894738,-200 L168.7263157894738,-150 L162.62914979757096,-150 L162.62914979757096,-200 Z" fill="#f0f0f0" />
<path d="M168.7263157894738,-200 L174.82348178137664,-200 L174.82348178137664,-150 L168.7263157894738,-150 L168.7263157894738,-200 Z" fill="black" />
<path d="M174.82348178137664,-200 L180.92064777327948,-200 L180.92064777327948,-150 L174.82348178137664,-150 L174.82348178137664,-200 Z" fill="#f0f0f0" />
<path d="M180.92064777327948,-200 L187.01781376518232,-200 L187.01781376518232,-150 L180.92064777327948,-150 L180.92064777327948,-200 Z" fill="black" />
<path d="M187.01781376518232,-200 L193.11497975708517,-200 L193.11497975708517,-150 L187.01781376518232,-150 L187.01781376518232,-200 Z" fill="#f0f0f0" />
<path d="M193.11497975708517,-200 L199.212145748988,-200 L199.212145748988,-150 L193.11497975708517,-150 L193.11497975708517,-200 Z" fill="black" />
<path d="M199.212145748988,-200 L205.30931174089085,-200 L205.30931174089085,-150 L199.212145748988,-150 L199.212145748988,-200 Z" fill="#f0f0f0" />
<path d="M205.30931174089085,-200 L211.4064777327937,-200 L211.4064777327937,-150 L205.30931174089085,-150 L205.30931174089085,-200 Z" fill="black" />
<path d="M211.4064777327937,-200 L217.50364372469653,-200 L217.50364372469653,-150 L211.4064777327937,-150 L211.4064777327937,-200 Z" fill="#f0f0f0" />
<path d="M217.50364372469653,-200 L223.60080971659937,-200 L223.60080971659937,-150 L217.50364372469653,-150 L217.50364372469653,-200 Z" fill="black" />
<path d="M223.60080971659937,-200 L229.6979757085022,-200 L229.6979757085022,-150 L223.60080971659937,-150 L223.60080971659937,-200 Z" fill="#f0f0f0" />
<path d="M229.6979757085022,-200 L235.79514170040505,-200 L235.79514170040505,-150 L229.6979757085022,-150 L229.6979757085022,-200 Z" fill="black" />
<path d="M235.79514170040505,-200 L241.8923076923079,-200 L241.8923076923079,-150 L235.79514170040505,-150 L235.79514170040505,-200 Z" fill="#f0f0f0" />
<path d="M241.8923076923079,-200 L247.98947368421074,-200 L247.98947368421074,-150 L241.8923076923079,-150 L241.8923076923079,-200 Z" fill="black" />
<path d="M247.98947368421074,-200 L254.08663967611358,-200 L254.08663967611358,-150 L247.98947368421074,-150 L247.98947368421074,-200 Z" fill="#f0f0f0" />
<path d="M254.08663967611358,-200 L260.1838056680164,-200 L260.1838056680164,-150 L254.08663967611358,-150 L254.08663967611358,-200 Z" fill="black" />
<path d="M260.1838056680164,-200 L266.28097165991926,-200 L266.28097165991926,-150 L260.1838056680164,-150 L260.1838056680164,-200 Z" fill="#f0f0f0" />
<path d="M266.28097165991926,-200 L272.3781376518221,-200 L272.3781376518221,-150 L266.28097165991926,-150 L266.28097165991926,-200 Z" fill="black" />
<path d="M272.3781376518221,-200 L278.47530364372494,-200 L278.47530364372494,-150 L272.3781376518221,-150 L272.3781376518221,-200 Z" fill="#f0f0f0" />
<path d="M278.47530364372494,-200 L284.5724696356278,-200 L284.5724696356278,-150 L278.47530364372494,-150 L278.47530364372494,-200 Z" fill="black" />
<path d="M284.5724696356278,-200 L290.6696356275306,-200 L290.6696356275306,-150 L284.5724696356278,-150 L284.5724696356278,-200 Z" fill="#f0f0f0" />
<path d="M290.6696356275306,-200 L296.76680161943347,-200 L296.76680161943347,-150 L290.6696356275306,-150 L290.6696356275306,-200 Z" fill="black" />
<path d="M296.76680161943347,-200 L302.8639676113363,-200 L302.8639676113363,-150 L296.76680161943347,-150 L296.76680161943347,-200 Z" fill="#f0f0f0" />
<path d="M302.8639676113363,-200 L308.96113360323915,-200 L308.96113360323915,-150 L302.8639676113363,-150 L302.8639676113363,-200 Z" fill="black" />
<path d="M308.96113360323915,-200 L315.058299595142,-200 L315.058299595142,-150 L308.96113360323915,-150 L308.96113360323915,-200 Z" fill="#f0f0f0" />
<path d="M315.058299595142,-200 L321.15546558704483,-200 L321.15546558704483,-150 L315.058299595142,-150 L315.058299595142,-200 Z" fill="black" />
<path d="M321.15546558704483,-200 L327.25263157894767,-200 L327.25263157894767,-150 L321.15546558704483,-150 L321.15546558704483,-200 Z" fill="#f0f0f0" />
<path d="M327.25263157894767,-200 L333.3497975708505,-200 L333.3497975708505,-150 L327.25263157894767,-150 L327.25263157894767,-200 Z" fill="black" />
<path d="M333.3497975708505,-200 L339.44696356275335,-200 L339.44696356275335,-150 L333.3497975708505,-150 L333.3497975708505,-200 Z" fill="#f0f0f0" />
<path d="M339.44696356275335,-200 L345.5441295546562,-200 L345.5441295546562,-150 L339.44696356275335,-150 L339.44696356275335,-200 Z" fill="black" />
<path d="M345.5441295546562,-200 L351.64129554655904,-200 L351.64129554655904,-150 L345.5441295546562,-150 L345.5441295546562,-200 Z" fill="#f0f0f0" />
<path d="M351.64129554655904,-200 L357.7384615384619,-200 L357.7384615384619,-150 L351.64129554655904,-150 L351.64129554655904,-200 Z" fill="black" />
<path d="M357.7384615384619,-200 L363.8356275303647,-200 L363.8356275303647,-150 L357.7384615384619,-150 L357.7384615384619,-200 Z" fill="#f0f0f0" />
<path d="M363.8356275303647,-200 L369.93279352226756,-200 L369.93279352226756,-150 L363.8356275303647,-150 L363.8356275303647,-200 Z" fill="black" />
<path d="M369.93279352226756,-200 L376.0299595141704,-200 L376.0299595141704,-150 L369.93279352226756,-150 L369.93279352226756,-200 Z" fill="#f0f0f0" />
<path d="M376.0299595141704,-200 L382.12712550607324,-200 L382.12712550607324,-150 L376.0299595141704,-150 L376.0299595141704,-200 Z" fill="black" />
<path d="M382.12712550607324,-200 L388.2242914979761,-200 L388.2242914979761,-150 L382.12712550607324,-150 L382.12712550607324,-200 Z" fill="#f0f0f0" />
<path d="M388.2242914979761,-200 L394.3214574898789,-200 L394.3214574898789,-150 L388.2242914979761,-150 L388.2242914979761,-200 Z" fill="black" />
<path d="M394.3214574898789,-200 L400.41862348178176,-200 L400.41862348178176,-150 L394.3214574898789,-150 L394.3214574898789,-200 Z" fill="#f0f0f0" />
<path d="M400.41862348178176,-200 L406.5157894736846,-200 L406.5157894736846,-150 L400.41862348178176,-150 L400.41862348178176,-200 Z" fill="black" />
<path d="M406.5157894736846,-200 L412.61295546558745,-200 L412.61295546558745,-150 L406.5157894736846,-150 L406.5157894736846,-200 Z" fill="#f0f0f0" />
<path d="M412.61295546558745,-200 L418.7101214574903,-200 L418.7101214574903,-150 L412.61295546558745,-150 L412.61295546558745,-200 Z" fill="black" />
<path d="M418.7101214574903,-200 L424.80728744939313,-200 L424.80728744939313,-150 L418.7101214574903,-150 L418.7101214574903,-200 Z" fill="#f0f0f0" />
<path d="M424.80728744939313,-200 L430.90445344129597,-200 L430.90445344129597,-150 L424.80728744939313,-150 L424.80728744939313,-200 Z" fill="black" />
<path d="M430.90445344129597,-200 L437.0016194331988,-200 L437.0016194331988,-150 L430.90445344129597,-150 L430.90445344129597,-200 Z" fill="#f0f0f0" />
<path d="M437.0016194331988,-200 L443.09878542510165,-200 L443.09878542510165,-150 L437.0016194331988,-150 L437.0016194331988,-200 Z" fill="black" />
<path d="M443.09878542510165,-200 L449.1959514170045,-200 L449.1959514170045,-150 L443.09878542510165,-150 L443.09878542510165,-200 Z" fill="#f0f0f0" />
<path d="M449.1959514170045,-200 L455.29311740890734,-200 L455.29311740890734,-150 L449.1959514170045,-150 L449.1959514170045,-200 Z" fill="black" />
<path d="M455.29311740890734,-200 L461.3902834008102,-200 L461.3902834008102,-150 L455.29311740890734,-150 L455.29311740890734,-200 Z" fill="#f0f0f0" />
<path d="M461.3902834008102,-200 L467.487449392713,-200 L467.487449392713,-150 L461.3902834008102,-150 L461.3902834008102,-200 Z" fill="black" />
<path d="M467.487449392713,-200 L473.58461538461586,-200 L473.58461538461586,-150 L467.487449392713,-150 L467.487449392713,-200 Z" fill="#f0f0f0" />
<path d="M473.58461538461586,-200 L479.6817813765187,-200 L479.6817813765187,-150 L473.58461538461586,-150 L473.58461538461586,-200 Z" fill="black" />
<path d="M479.6817813765187,-200 L485.77894736842154,-200 L485.77894736842154,-150 L479.6817813765187,-150 L479.6817813765187,-200 Z" fill="#f0f0f0" />
<path d="M485.77894736842154,-200 L491.8761133603244,-200 L491.8761133603244,-150 L485.77894736842154,-150 L485.77894736842154,-200 Z" fill="black" />
<path d="M491.8761133603244,-200 L497.9732793522272,-200 L497.9732793522272,-150 L491.8761133603244,-150 L491.8761133603244,-200 Z" fill="#f0f0f0" />
<path d="M497.9732793522272,-200 L504.07044534413006,-200 L504.07044534413006,-150 L497.9732793522272,-150 L497.9732793522272,-200 Z" fill="black" />
<path d="M504.07044534413006,-200 L510.1676113360329,-200 L510.1676113360329,-150 L504.07044534413006,-150 L504.07044534413006,-200 Z" fill="#f0f0f0" />
<path d="M510.1676113360329,-200 L516.2647773279357,-200 L516.2647773279357,-150 L510.1676113360329,-150 L510.1676113360329,-200 Z" fill="black" />
<path d="M516.2647773279357,-200 L522.3619433198385,-200 L522.3619433198385,-150 L516.2647773279357,-150 L516.2647773279357,-200 Z" fill="#f0f0f0" />
<path d="M522.3619433198385,-200 L528.4591093117413,-200 L528.4591093117413,-150 L522.3619433198385,-150 L522.3619433198385,-200 Z" fill="black" />
<path d="M528.4591093117413,-200 L534.556275303644,-200 L534.556275303644,-150 L528.4591093117413,-150 L528.4591093117413,-200 Z" fill="#f0f0f0" />
<path d="M534.556275303644,-200 L540.6534412955468,-200 L540.6534412955468,-150 L534.556275303644,-150 L534.556275303644,-200 Z" fill="black" />
<path d="M540.6534412955468,-200 L546.7506072874496,-200 L546.7506072874496,-150 L540.6534412955468,-150 L540.6534412955468,-200 Z" fill="#f0f0f0" />
<path d="M546.7506072874496,-200 L552.8477732793524,-200 L552.8477732793524,-150 L546.7506072874496,-150 L546.7506072874496,-200 Z" fill="black" />
<path d="M552.8477732793524,-200 L558.9449392712552,-200 L558.9449392712552,-150 L552.8477732793524,-150 L552.8477732793524,-200 Z" fill="#f0f0f0" />
<path d="M558.9449392712552,-200 L565.042105263158,-200 L565.042105263158,-150 L558.9449392712552,-150 L558.9449392712552,-200 Z" fill="black" />
<path d="M565.042105263158,-200 L571.1392712550607,-200 L571.1392712550607,-150 L565.042105263158,-150 L565.042105263158,-200 Z" fill="#f0f0f0" />
<path d="M571.1392712550607,-200 L577.2364372469635,-200 L577.2364372469635,-150 L571.1392712550607,-150 L571.1392712550607,-200 Z" fill="black" />
<path d="M577.2364372469635,-200 L583.3336032388663,-200 L583.3336032388663,-150 L577.2364372469635,-150 L577.2364372469635,-200 Z" fill="#f0f0f0" />
<path d="M583.3336032388663,-200 L589.4307692307691,-200 L589.4307692307691,-150 L583.3336032388663,-150 L583.3336032388663,-200 Z" fill="black" />
<path d="M589.4307692307691,-200 L595.5279352226719,-200 L595.5279352226719,-150 L589.4307692307691,-150 L589.4307692307691,-200 Z" fill="#f0f0f0" />
<path d="M595.5279352226719,-200 L601.6251012145747,-200 L601.6251012145747,-150 L595.5279352226719,-150 L595.5279352226719,-200 Z" fill="black" />
<path d="M601.6251012145747,-200 L607.7222672064775,-200 L607.7222672064775,-150 L601.6251012145747,-150 L601.6251012145747,-200 Z" fill="#f0f0f0" />
<path d="M607.7222672064775,-200 L613.8194331983802,-200 L613.8194331983802,-150 L607.7222672064775,-150 L607.7222672064775,-200 Z" fill="black" />
<path d="M613.8194331983802,-200 L619.916599190283,-200 L619.916599190283,-150 L613.8194331983802,-150 L613.8194331983802,-200 Z" fill="#f0f0f0" />
<path d="M619.916599190283,-200 L626.0137651821858,-200 L626.0137651821858,-150 L619.916599190283,-150 L619.916599190283,-200 Z" fill="black" />
<path d="M626.0137651821858,-200 L632.1109311740886,-200 L632.1109311740886,-150 L626.0137651821858,-150 L626.0137651821858,-200 Z" fill="#f0f0f0" />
<path d="M632.1109311740886,-200 L638.2080971659914,-200 L638.2080971659914,-150 L632.1109311740886,-150 L632.1109311740886,-200 Z" fill="black" />
<path d="M638.2080971659914,-200 L644.3052631578942,-200 L644.3052631578942,-150 L638.2080971659914,-150 L638.2080971659914,-200 Z" fill="#f0f0f0" />
<path d="M644.3052631578942,-200 L650.402429149797,-200 L650.402429149797,-150 L644.3052631578942,-150 L644.3052631578942,-200 Z" fill="black" />
<path d="M650.402429149797,-200 L656.4995951416997,-200 L656.4995951416997,-150 L650.402429149797,-150 L650.402429149797,-200 Z" fill="#f0f0f0" />
<path d="M656.4995951416997,-200 L662.5967611336025,-200 L662.5967611336025,-150 L656.4995951416997,-150 L656.4995951416997,-200 Z" fill="black" />
<path d="M662.5967611336025,-200 L668.6939271255053,-200 L668.6939271255053,-150 L662.5967611336025,-150 L662.5967611336025,-200 Z" fill="#f0f0f0" />
<path d="M668.6939271255053,-200 L674.7910931174081,-200 L674.7910931174081,-150 L668.6939271255053,-150 L668.6939271255053,-200 Z" fill="black" />
<path d="M674.7910931174081,-200 L680.8882591093109,-200 L680.8882591093109,-150 L674.7910931174081,-150 L674.7910931174081,-200 Z" fill="#f0f0f0" />
<path d="M680.8882591093109,-200 L686.9854251012137,-200 L686.9854251012137,-150 L680.8882591093109,-150 L680.8882591093109,-200 Z" fill="black" />
<path d="M686.9854251012137,-200 L693.0825910931164,-200 L693.0825910931164,-150 L686.9854251012137,-150 L686.9854251012137,-200 Z" fill="#f0f0f0" />
<path d="M693.0825910931164,-200 L699.1797570850192,-200 L699.1797570850192,-150 L693.0825910931164,-150 L693.0825910931164,-200 Z" fill="black" />
<path d="M699.1797570850192,-200 L705.276923076922,-200 L705.276923076922,-150 L699.1797570850192,-150 L699.1797570850192,-200 Z" fill="#f0f0f0" />
<path d="M705.276923076922,-200 L711.3740890688248,-200 L711.3740890688248,-150 L705.276923076922,-150 L705.276923076922,-200 Z" fill="black" />
<path d="M711.3740890688248,-200 L717.4712550607276,-200 L717.4712550607276,-150 L711.3740890688248,-150 L711.3740890688248,-200 Z" fill="#f0f0f0" />
<path d="M717.4712550607276,-200 L723.5684210526304,-200 L723.5684210526304,-150 L717.4712550607276,-150 L717.4712550607276,-200 Z" fill="black" />
<path d="M723.5684210526304,-200 L729.6655870445331,-200 L729.6655870445331,-150 L723.5684210526304,-150 L723.5684210526304,-200 Z" fill="#f0f0f0" />
<path d="M729.6655870445331,-200 L735.7627530364359,-200 L735.7627530364359,-150 L729.6655870445331,-150 L729.6655870445331,-200 Z" fill="black" />
<path d="M735.7627530364359,-200 L741.8599190283387,-200 L741.8599190283387,-150 L735.7627530364359,-150 L735.7627530364359,-200 Z" fill="#f0f0f0" />
<path d="M741.8599190283387,-200 L747.9570850202415,-200 L747.9570850202415,-150 L741.8599190283387,-150 L741.8599190283387,-200 Z" fill="black" />
<path d="M747.9570850202415,-200 L754.0542510121443,-200 L754.0542510121443,-150 L747.9570850202415,-150 L747.9570850202415,-200 Z" fill="#f0f0f0" />
<path d="M754.0542510121443,-200 L760.1514170040471,-200 L760.1514170040471,-150 L754.0542510121443,-150 L754.0542510121443,-200 Z" fill="black" />
<path d="M760.1514170040471,-200 L766.2485829959498,-200 L766.2485829959498,-150 L760.1514170040471,-150 L760.1514170040471,-200 Z" fill="#f0f0f0" />
<path d="M766.2485829959498,-200 L772.3457489878526,-200 L772.3457489878526,-150 L766.2485829959498,-150 L766.2485829959498,-200 Z" fill="black" />
<path d="M772.3457489878526,-200 L778.4429149797554,-200 L778.4429149797554,-150 L772.3457489878526,-150 L772.3457489878526,-200 Z" fill="#f0f0f0" />
<path d="M778.4429149797554,-200 L784.5400809716582,-200 L784.5400809716582,-150 L778.4429149797554,-150 L778.4429149797554,-200 Z" fill="black" />
<path d="M784.5400809716582,-200 L790.637246963561,-200 L790.637246963561,-150 L784.5400809716582,-150 L784.5400809716582,-200 Z" fill="#f0f0f0" />
<path d="M790.637246963561,-200 L796.7344129554638,-200 L796.7344129554638,-150 L790.637246963561,-150 L790.637246963561,-200 Z" fill="black" />
<path d="M796.7344129554638,-200 L802.8315789473666,-200 L802.8315789473666,-150 L796.7344129554638,-150 L796.7344129554638,-200 Z" fill="#f0f0f0" />
<path d="M802.8315789473666,-200 L808.9287449392693,-200 L808.9287449392693,-150 L802.8315789473666,-150 L802.8315789473666,-200 Z" fill="black" />
<path d="M808.9287449392693,-200 L815.0259109311721,-200 L815.0259109311721,-150 L808.9287449392693,-150 L808.9287449392693,-200 Z" fill="#f0f0f0" />
<path d="M815.0259109311721,-200 L821.1230769230749,-200 L821.1230769230749,-150 L815.0259109311721,-150 L815.0259109311721,-200 Z" fill="black" />
<path d="M821.1230769230749,-200 L827.2202429149777,-200 L827.2202429149777,-150 L821.1230769230749,-150 L821.1230769230749,-200 Z" fill="#f0f0f0" />
<path d="M827.2202429149777,-200 L833.3174089068805,-200 L833.3174089068805,-150 L827.2202429149777,-150 L827.2202429149777,-200 Z" fill="black" />
<path d="M833.3174089068805,-200 L839.4145748987833,-200 L839.4145748987833,-150 L833.3174089068805,-150 L833.3174089068805,-200 Z" fill="#f0f0f0" />
<path d="M839.4145748987833,-200 L845.511740890686,-200 L845.511740890686,-150 L839.4145748987833,-150 L839.4145748987833,-200 Z" fill="black" />
<path d="M845.511740890686,-200 L851.6089068825888,-200 L851.6089068825888,-150 L845.511740890686,-150 L845.511740890686,-200 Z" fill="#f0f0f0" />
<path d="M851.6089068825888,-200 L857.7060728744916,-200 L857.7060728744916,-150 L851.6089068825888,-150 L851.6089068825888,-200 Z" fill="black" />
<path d="M857.7060728744916,-200 L863.8032388663944,-200 L863.8032388663944,-150 L857.7060728744916,-150 L857.7060728744916,-200 Z" fill="#f0f0f0" />
<path d="M863.8032388663944,-200 L869.9004048582972,-200 L869.9004048582972,-150 L863.8032388663944,-150 L863.8032388663944,-200 Z" fill="black" />
<path d="M869.9004048582972,-200 L875.9975708502,-200 L875.9975708502,-150 L869.9004048582972,-150 L869.9004048582972,-200 Z" fill="#f0f0f0" />
<path d="M875.9975708502,-200 L882.0947368421027,-200 L882.0947368421027,-150 L875.9975708502,-150 L875.9975708502,-200 Z" fill="black" />
<path d="M882.0947368421027,-200 L888.1919028340055,-200 L888.1919028340055,-150 L882.0947368421027,-150 L882.0947368421027,-200 Z" fill="#f0f0f0" />
<path d="M888.1919028340055,-200 L894.2890688259083,-200 L894.2890688259083,-150 L888.1919028340055,-150 L888.1919028340055,-200 Z" fill="black" />
<path d="M894.2890688259083,-200 L900.3862348178111,-200 L900.3862348178111,-150 L894.2890688259083,-150 L894.2890688259083,-200 Z" fill="#f0f0f0" />
<path d="M900.3862348178111,-200 L906.4834008097139,-200 L906.4834008097139,-150 L900.3862348178111,-150 L900.3862348178111,-200 Z" fill="black" />
<path d="M906.4834008097139,-200 L912.5805668016167,-200 L912.5805668016167,-150 L906.4834008097139,-150 L906.4834008097139,-200 Z" fill="#f0f0f0" />
<path d="M912.5805668016167,-200 L918.6777327935195,-200 L918.6777327935195,-150 L912.5805668016167,-150 L912.5805668016167,-200 Z" fill="black" />
<path d="M918.6777327935195,-200 L924.7748987854222,-200 L924.7748987854222,-150 L918.6777327935195,-150 L918.6777327935195,-200 Z" fill="#f0f0f0" />
<path d="M924.7748987854222,-200 L930.872064777325,-200 L930.872064777325,-150 L924.7748987854222,-150 L924.7748987854222,-200 Z" fill="black" />
<path d="M930.872064777325,-200 L936.9692307692278,-200 L936.9692307692278,-150 L930.872064777325,-150 L930.872064777325,-200 Z" fill="#f0f0f0" />
<path d="M936.9692307692278,-200 L943.0663967611306,-200 L943.0663967611306,-150 L936.9692307692278,-150 L936.9692307692278,-200 Z" fill="black" />
<path d="M943.0663967611306,-200 L949.1635627530334,-200 L949.1635627530334,-150 L943.0663967611306,-150 L943.0663967611306,-200 Z" fill="#f0f0f0" />
<path d="M949.1635627530334,-200 L955.2607287449362,-200 L955.2607287449362,-150 L949.1635627530334,-150 L949.1635627530334,-200 Z" fill="black" />
<path d="M955.2607287449362,-200 L961.357894736839,-200 L961.357894736839,-150 L955.2607287449362,-150 L955.2607287449362,-200 Z" fill="#f0f0f0" />
<path d="M961.357894736839,-200 L967.4550607287417,-200 L967.4550607287417,-150 L961.357894736839,-150 L961.357894736839,-200 Z" fill="black" />
<path d="M967.4550607287417,-200 L973.5522267206445,-200 L973.5522267206445,-150 L967.4550607287417,-150 L967.4550607287417,-200 Z" fill="#f0f0f0" />
<path d="M973.5522267206445,-200 L979.6493927125473,-200 L979.6493927125473,-150 L973.5522267206445,-150 L973.5522267206445,-200 Z" fill="black" />
<path d="M979.6493927125473,-200 L985.7465587044501,-200 L985.7465587044501,-150 L979.6493927125473,-150 L979.6493927125473,-200 Z" fill="#f0f0f0" />
<path d="M985.7465587044501,-200 L991.8437246963529,-200 L991.8437246963529,-150 L985.7465587044501,-150 L985.7465587044501,-200 Z" fill="black" />
<path d="M991.8437246963529,-200 L997.9408906882556,-200 L997.9408906882556,-150 L991.8437246963529,-150 L991.8437246963529,-200 Z" fill="#f0f0f0" />
<path d="M997.9408906882556,-200 L1004.0380566801584,-200 L1004.0380566801584,-150 L997.9408906882556,-150 L997.9408906882556,-200 Z" fill="black" />
<path d="M1004.0380566801584,-200 L1010.1352226720612,-200 L1010.1352226720612,-150 L1004.0380566801584,-150 L1004.0380566801584,-200 Z" fill="#f0f0f0" />
<path d="M1010.1352226720612,-200 L1016.232388663964,-200 L1016.232388663964,-150 L1010.1352226720612,-150 L1010.1352226720612,-200 Z" fill="black" />
<path d="M1016.232388663964,-200 L1022.3295546558668,-200 L1022.3295546558668,-150 L1016.232388663964,-150 L1016.232388663964,-200 Z" fill="#f0f0f0" />
<path d="M1022.3295546558668,-200 L1028.4267206477696,-200 L1028.4267206477696,-150 L1022.3295546558668,-150 L1022.3295546558668,-200 Z" fill="black" />
<path d="M1028.4267206477696,-200 L1034.5238866396724,-200 L1034.5238866396724,-150 L1028.4267206477696,-150 L1028.4267206477696,-200 Z" fill="#f0f0f0" />
<path d="M1034.5238866396724,-200 L1040.6210526315751,-200 L1040.6210526315751,-150 L1034.5238866396724,-150 L1034.5238866396724,-200 Z" fill="black" />
<path d="M1040.6210526315751,-200 L1046.718218623478,-200 L1046.718218623478,-150 L1040.6210526315751,-150 L1040.6210526315751,-200 Z" fill="#f0f0f0" />
<path d="M1046.718218623478,-200 L1052.8153846153807,-200 L1052.8153846153807,-150 L1046.718218623478,-150 L1046.718218623478,-200 Z" fill="black" />
<path d="M1052.8153846153807,-200 L1058.9125506072835,-200 L1058.9125506072835,-150 L1052.8153846153807,-150 L1052.8153846153807,-200 Z" fill="#f0f0f0" />
<path d="M1058.9125506072835,-200 L1065.0097165991863,-200 L1065.0097165991863,-150 L1058.9125506072835,-150 L1058.9125506072835,-200 Z" fill="black" />
<path d="M1065.0097165991863,-200 L1071.106882591089,-200 L1071.106882591089,-150 L1065.0097165991863,-150 L1065.0097165991863,-200 Z" fill="#f0f0f0" />
<path d="M1071.106882591089,-200 L1077.2040485829918,-200 L1077.2040485829918,-150 L1071.106882591089,-150 L1071.106882591089,-200 Z" fill="black" />
<path d="M1077.2040485829918,-200 L1083.3012145748946,-200 L1083.3012145748946,-150 L1077.2040485829918,-150 L1077.2040485829918,-200 Z" fill="#f0f0f0" />
<path d="M1083.3012145748946,-200 L1089.3983805667974,-200 L1089.3983805667974,-150 L1083.3012145748946,-150 L1083.3012145748946,-200 Z" fill="black" />
<path d="M1089.3983805667974,-200 L1095.4955465587002,-200 L1095.4955465587002,-150 L1089.3983805667974,-150 L1089.3983805667974,-200 Z" fill="#f0f0f0" />
<path d="M1095.4955465587002,-200 L1101.592712550603,-200 L1101.592712550603,-150 L1095.4955465587002,-150 L1095.4955465587002,-200 Z" fill="black" />
<path d="M1101.592712550603,-200 L1107.6898785425058,-200 L1107.6898785425058,-150 L1101.592712550603,-150 L1101.592712550603,-200 Z" fill="#f0f0f0" />
<path d="M1107.6898785425058,-200 L1113.7870445344086,-200 L1113.7870445344086,-150 L1107.6898785425058,-150 L1107.6898785425058,-200 Z" fill="black" />
<path d="M1113.7870445344086,-200 L1119.8842105263113,-200 L1119.8842105263113,-150 L1113.7870445344086,-150 L1113.7870445344086,-200 Z" fill="#f0f0f0" />
<path d="M1119.8842105263113,-200 L1125.9813765182141,-200 L1125.9813765182141,-150 L1119.8842105263113,-150 L1119.8842105263113,-200 Z" fill="black" />
<path d="M1125.9813765182141,-200 L1132.078542510117,-200 L1132.078542510117,-150 L1125.9813765182141,-150 L1125.9813765182141,-200 Z" fill="#f0f0f0" />
<path d="M1132.078542510117,-200 L1138.1757085020197,-200 L1138.1757085020197,-150 L1132.078542510117,-150 L1132.078542510117,-200 Z" fill="black" />
<path d="M1138.1757085020197,-200 L1144.2728744939225,-200 L1144.2728744939225,-150 L1138.1757085020197,-150 L1138.1757085020197,-200 Z" fill="#f0f0f0" />
<path d="M1144.2728744939225,-200 L1150.3700404858253,-200 L1150.3700404858253,-150 L1144.2728744939225,-150 L1144.2728744939225,-200 Z" fill="black" />
<path d="M1150.3700404858253,-200 L1156.467206477728,-200 L1156.467206477728,-150 L1150.3700404858253,-150 L1150.3700404858253,-200 Z" fill="#f0f0f0" />
<path d="M1156.467206477728,-200 L1162.5643724696308,-200 L1162.5643724696308,-150 L1156.467206477728,-150 L1156.467206477728,-200 Z" fill="black" />
<path d="M1162.5643724696308,-200 L1168.6615384615336,-200 L1168.6615384615336,-150 L1162.5643724696308,-150 L1162.5643724696308,-200 Z" fill="#f0f0f0" />
<path d="M1168.6615384615336,-200 L1174.7587044534364,-200 L1174.7587044534364,-150 L1168.6615384615336,-150 L1168.6615384615336,-200 Z" fill="black" />
<path d="M1174.7587044534364,-200 L1180.8558704453392,-200 L1180.8558704453392,-150 L1174.7587044534364,-150 L1174.7587044534364,-200 Z" fill="#f0f0f0" />
<path d="M1180.8558704453392,-200 L1186.953036437242,-200 L1186.953036437242,-150 L1180.8558704453392,-150 L1180.8558704453392,-200 Z" fill="black" />
<path d="M1186.953036437242,-200 L1193.0502024291447,-200 L1193.0502024291447,-150 L1186.953036437242,-150 L1186.953036437242,-200 Z" fill="#f0f0f0" />
<path d="M1193.0502024291447,-200 L1199.1473684210475,-200 L1199.1473684210475,-150 L1193.0502024291447,-150 L1193.0502024291447,-200 Z" fill="black" />
<path d="M1199.1473684210475,-200 L1205.2445344129503,-200 L1205.2445344129503,-150 L1199.1473684210475,-150 L1199.1473684210475,-200 Z" fill="#f0f0f0" />
<path d="M1205.2445344129503,-200 L1211.341700404853,-200 L1211.341700404853,-150 L1205.2445344129503,-150 L1205.2445344129503,-200 Z" fill="black" />
<path d="M1211.341700404853,-200 L1217.4388663967559,-200 L1217.4388663967559,-150 L1211.341700404853,-150 L1211.341700404853,-200 Z" fill="#f0f0f0" />
<path d="M1217.4388663967559,-200 L1223.5360323886587,-200 L1223.5360323886587,-150 L1217.4388663967559,-150 L1217.4388663967559,-200 Z" fill="black" />
<path d="M1223.5360323886587,-200 L1229.6331983805615,-200 L1229.6331983805615,-150 L1223.5360323886587,-150 L1223.5360323886587,-200 Z" fill="#f0f0f0" />
<path d="M1229.6331983805615,-200 L1235.7303643724642,-200 L1235.7303643724642,-150 L1229.6331983805615,-150 L1229.6331983805615,-200 Z" fill="black" />
<path d="M1235.7303643724642,-200 L1241.827530364367,-200 L1241.827530364367,-150 L1235.7303643724642,-150 L1235.7303643724642,-200 Z" fill="#f0f0f0" />
<path d="M1241.827530364367,-200 L1247.9246963562698,-200 L1247.9246963562698,-150 L1241.827530364367,-150 L1241.827530364367,-200 Z" fill="black" />
<path d="M1247.9246963562698,-200 L1254.0218623481726,-200 L1254.0218623481726,-150 L1247.9246963562698,-150 L1247.9246963562698,-200 Z" fill="#f0f0f0" />
<path d="M1254.0218623481726,-200 L1260.1190283400754,-200 L1260.1190283400754,-150 L1254.0218623481726,-150 L1254.0218623481726,-200 Z" fill="black" />
<path d="M1260.1190283400754,-200 L1266.2161943319782,-200 L1266.2161943319782,-150 L1260.1190283400754,-150 L1260.1190283400754,-200 Z" fill="#f0f0f0" />
<path d="M1266.2161943319782,-200 L1272.313360323881,-200 L1272.313360323881,-150 L1266.2161943319782,-150 L1266.2161943319782,-200 Z" fill="black" />
<path d="M1272.313360323881,-200 L1278.4105263157837,-200 L1278.4105263157837,-150 L1272.313360323881,-150 L1272.313360323881,-200 Z" fill="#f0f0f0" />
<path d="M1278.4105263157837,-200 L1284.5076923076865,-200 L1284.5076923076865,-150 L1278.4105263157837,-150 L1278.4105263157837,-200 Z" fill="black" />
<path d="M1284.5076923076865,-200 L1290.6048582995893,-200 L1290.6048582995893,-150 L1284.5076923076865,-150 L1284.5076923076865,-200 Z" fill="#f0f0f0" />
<path d="M1290.6048582995893,-200 L1296.702024291492,-200 L1296.702024291492,-150 L1290.6048582995893,-150 L1290.6048582995893,-200 Z" fill="black" />
<path d="M1296.702024291492,-200 L1302.7991902833949,-200 L1302.7991902833949,-150 L1296.702024291492,-150 L1296.702024291492,-200 Z" fill="#f0f0f0" />
<path d="M1302.7991902833949,-200 L1308.8963562752976,-200 L1308.8963562752976,-150 L1302.7991902833949,-150 L1302.7991902833949,-200 Z" fill="black" />
<path d="M1308.8963562752976,-200 L1314.9935222672004,-200 L1314.9935222672004,-150 L1308.8963562752976,-150 L1308.8963562752976,-200 Z" fill="#f0f0f0" />
<path d="M1314.9935222672004,-200 L1321.0906882591032,-200 L1321.0906882591032,-150 L1314.9935222672004,-150 L1314.9935222672004,-200 Z" fill="black" />
<path d="M1321.0906882591032,-200 L1327.187854251006,-200 L1327.187854251006,-150 L1321.0906882591032,-150 L1321.0906882591032,-200 Z" fill="#f0f0f0" />
<path d="M1327.187854251006,-200 L1333.2850202429088,-200 L1333.2850202429088,-150 L1327.187854251006,-150 L1327.187854251006,-200 Z" fill="black" />
<path d="M1333.2850202429088,-200 L1339.3821862348116,-200 L1339.3821862348116,-150 L1333.2850202429088,-150 L1333.2850202429088,-200 Z" fill="#f0f0f0" />
<path d="M1339.3821862348116,-200 L1345.4793522267144,-200 L1345.4793522267144,-150 L1339.3821862348116,-150 L1339.3821862348116,-200 Z" fill="black" />
<path d="M1345.4793522267144,-200 L1351.5765182186171,-200 L1351.5765182186171,-150 L1345.4793522267144,-150 L1345.4793522267144,-200 Z" fill="#f0f0f0" />
<path d="M1351.5765182186171,-200 L1357.67368421052,-200 L1357.67368421052,-150 L1351.5765182186171,-150 L1351.5765182186171,-200 Z" fill="black" />
<path d="M1357.67368421052,-200 L1363.7708502024227,-200 L1363.7708502024227,-150 L1357.67368421052,-150 L1357.67368421052,-200 Z" fill="#f0f0f0" />
<path d="M1363.7708502024227,-200 L1369.8680161943255,-200 L1369.8680161943255,-150 L1363.7708502024227,-150 L1363.7708502024227,-200 Z" fill="black" />
<path d="M1369.8680161943255,-200 L1375.9651821862283,-200 L1375.9651821862283,-150 L1369.8680161943255,-150 L1369.8680161943255,-200 Z" fill="#f0f0f0" />
<path d="M1375.9651821862283,-200 L1382.062348178131,-200 L1382.062348178131,-150 L1375.9651821862283,-150 L1375.9651821862283,-200 Z" fill="black" />
<path d="M1382.062348178131,-200 L1388.1595141700338,-200 L1388.1595141700338,-150 L1382.062348178131,-150 L1382.062348178131,-200 Z" fill="#f0f0f0" />
<path d="M1388.1595141700338,-200 L1394.2566801619366,-200 L1394.2566801619366,-150 L1388.1595141700338,-150 L1388.1595141700338,-200 Z" fill="black" />
<path d="M1394.2566801619366,-200 L1400.3538461538394,-200 L1400.3538461538394,-150 L1394.2566801619366,-150 L1394.2566801619366,-200 Z" fill="#f0f0f0" />
<path d="M1400.3538461538394,-200 L1406.4510121457422,-200 L1406.4510121457422,-150 L1400.3538461538394,-150 L1400.3538461538394,-200 Z" fill="black" />
<path d="M1406.4510121457422,-200 L1412.548178137645,-200 L1412.548178137645,-150 L1406.4510121457422,-150 L1406.4510121457422,-200 Z" fill="#f0f0f0" />
<path d="M1412.548178137645,-200 L1418.6453441295478,-200 L1418.6453441295478,-150 L1412.548178137645,-150 L1412.548178137645,-200 Z" fill="black" />
<path d="M1418.6453441295478,-200 L1424.7425101214506,-200 L1424.7425101214506,-150 L1418.6453441295478,-150 L1418.6453441295478,-200 Z" fill="#f0f0f0" />
<path d="M1424.7425101214506,-200 L1430.8396761133533,-200 L1430.8396761133533,-150 L1424.7425101214506,-150 L1424.7425101214506,-200 Z" fill="black" />
<path d="M1430.8396761133533,-200 L1436.9368421052561,-200 L1436.9368421052561,-150 L1430.8396761133533,-150 L1430.8396761133533,-200 Z" fill="#f0f0f0" />
<path d="M1436.9368421052561,-200 L1443.034008097159,-200 L1443.034008097159,-150 L1436.9368421052561,-150 L1436.9368421052561,-200 Z" fill="black" />
<path d="M1443.034008097159,-200 L1449.1311740890617,-200 L1449.1311740890617,-150 L1443.034008097159,-150 L1443.034008097159,-200 Z" fill="#f0f0f0" />
<path d="M1449.1311740890617,-200 L1455.2283400809645,-200 L1455.2283400809645,-150 L1449.1311740890617,-150 L1449.1311740890617,-200 Z" fill="black" />
<path d="M1455.2283400809645,-200 L1461.3255060728673,-200 L1461.3255060728673,-150 L1455.2283400809645,-150 L1455.2283400809645,-200 Z" fill="#f0f0f0" />
<path d="M1461.3255060728673,-200 L1467.42267206477,-200 L1467.42267206477,-150 L1461.3255060728673,-150 L1461.3255060728673,-200 Z" fill="black" />
<path d="M1467.42267206477,-200 L1473.5198380566728,-200 L1473.5198380566728,-150 L1467.42267206477,-150 L1467.42267206477,-200 Z" fill="#f0f0f0" />
<path d="M1473.5198380566728,-200 L1479.6170040485756,-200 L1479.6170040485756,-150 L1473.5198380566728,-150 L1473.5198380566728,-200 Z" fill="black" />
<path d="M1479.6170040485756,-200 L1485.7141700404784,-200 L1485.7141700404784,-150 L1479.6170040485756,-150 L1479.6170040485756,-200 Z" fill="#f0f0f0" />
<path d="M1485.7141700404784,-200 L1491.8113360323812,-200 L1491.8113360323812,-150 L1485.7141700404784,-150 L1485.7141700404784,-200 Z" fill="black" />
<path d="M1491.8113360323812,-200 L1497.908502024284,-200 L1497.908502024284,-150 L1491.8113360323812,-150 L1491.8113360323812,-200 Z" fill="#f0f0f0" />
<path d="M1497.908502024284,-200 L1504.0056680161867,-200 L1504.0056680161867,-150 L1497.908502024284,-150 L1497.908502024284,-200 Z" fill="black" />
<path d="M1504.0056680161867,-200 L1510.1028340080895,-200 L1510.1028340080895,-150 L1504.0056680161867,-150 L1504.0056680161867,-200 Z" fill="#f0f0f0" />
<path d="M1510.1028340080895,-200 L1516.1999999999923,-200 L1516.1999999999923,-150 L1510.1028340080895,-150 L1510.1028340080895,-200 Z" fill="black" />
<text x="10.2" y="-210" font-size="26" fill="black" dy="0em">CRISPR: I-E</text>
<path d="M3330.4,-200 L3543.4,-200 L3543.4,-150 L3330.4,-150 L3330.4,-200 Z" fill="white" stroke="white" stroke-width="4" />
<path d="M3330.4,-200 L3336.4857142857145,-200 L3336.4857142857145,-150 L3330.4,-150 L3330.4,-200 Z" fill="black" />
<path d="M3336.4857142857145,-200 L3342.571428571429,-200 L3342.571428571429,-150 L3336.4857142857145,-150 L3336.4857142857145,-200 Z" fill="#f0f0f0" />
<path d="M3342.571428571429,-200 L3348.6571428571433,-200 L3348.6571428571433,-150 L3342.571428571429,-150 L3342.571428571429,-200 Z" fill="black" />
<path d="M3348.6571428571433,-200 L3354.7428571428577,-200 L3354.7428571428577,-150 L3348.6571428571433,-150 L3348.6571428571433,-200 Z" fill="#f0f0f0" />
<path d="M3354.7428571428577,-200 L3360.828571428572,-200 L3360.828571428572,-150 L3354.7428571428577,-150 L3354.7428571428577,-200 Z" fill="black" />
<path d="M3360.828571428572,-200 L3366.9142857142865,-200 L3366.9142857142865,-150 L3360.828571428572,-150 L3360.828571428572,-200 Z" fill="#f0f0f0" />
<path d="M3366.9142857142865,-200 L3373.000000000001,-200 L3373.000000000001,-150 L3366.9142857142865,-150 L3366.9142857142865,-200 Z" fill="black" />
<path d="M3373.000000000001,-200 L3379.0857142857153,-200 L3379.0857142857153,-150 L3373.000000000001,-150 L3373.000000000001,-200 Z" fill="#f0f0f0" />
<path d="M3379.0857142857153,-200 L3385.1714285714297,-200 L3385.1714285714297,-150 L3379.0857142857153,-150 L3379.0857142857153,-200 Z" fill="black" />
<path d="M3385.1714285714297,-200 L3391.257142857144,-200 L3391.257142857144,-150 L3385.1714285714297,-150 L3385.1714285714297,-200 Z" fill="#f0f0f0" />
<path d="M3391.257142857144,-200 L3397.3428571428585,-200 L3397.3428571428585,-150 L3391.257142857144,-150 L3391.257142857144,-200 Z" fill="black" />
<path d="M3397.3428571428585,-200 L3403.428571428573,-200 L3403.428571428573,-150 L3397.3428571428585,-150 L3397.3428571428585,-200 Z" fill="#f0f0f0" />
<path d="M3403.428571428573,-200 L3409.5142857142873,-200 L3409.5142857142873,-150 L3403.428571428573,-150 L3403.428571428573,-200 Z" fill="black" />
<path d="M3409.5142857142873,-200 L3415.6000000000017,-200 L3415.6000000000017,-150 L3409.5142857142873,-150 L3409.5142857142873,-200 Z" fill="#f0f0f0" />
<path d="M3415.6000000000017,-200 L3421.685714285716,-200 L3421.685714285716,-150 L3415.6000000000017,-150 L3415.6000000000017,-200 Z" fill="black" />
<path d="M3421.685714285716,-200 L3427.7714285714305,-200 L3427.7714285714305,-150 L3421.685714285716,-150 L3421.685714285716,-200 Z" fill="#f0f0f0" />
<path d="M3427.7714285714305,-200 L3433.857142857145,-200 L3433.857142857145,-150 L3427.7714285714305,-150 L3427.7714285714305,-200 Z" fill="black" />
<path d="M3433.857142857145,-200 L3439.9428571428593,-200 L3439.9428571428593,-150 L3433.857142857145,-150 L3433.857142857145,-200 Z" fill="#f0f0f0" />
<path d="M3439.9428571428593,-200 L3446.0285714285737,-200 L3446.0285714285737,-150 L3439.9428571428593,-150 L3439.9428571428593,-200 Z" fill="black" />
<path d="M3446.0285714285737,-200 L3452.114285714288,-200 L3452.114285714288,-150 L3446.0285714285737,-150 L3446.0285714285737,-200 Z" fill="#f0f0f0" />
<path d="M3452.114285714288,-200 L3458.2000000000025,-200 L3458.2000000000025,-150 L3452.114285714288,-150 L3452.114285714288,-200 Z" fill="black" />
<path d="M3458.2000000000025,-200 L3464.285714285717,-200 L3464.285714285717,-150 L3458.2000000000025,-150 L3458.2000000000025,-200 Z" fill="#f0f0f0" />
<path d="M3464.285714285717,-200 L3470.3714285714314,-200 L3470.3714285714314,-150 L3464.285714285717,-150 L3464.285714285717,-200 Z" fill="black" />
<path d="M3470.3714285714314,-200 L3476.4571428571458,-200 L3476.4571428571458,-150 L3470.3714285714314,-150 L3470.3714285714314,-200 Z" fill="#f0f0f0" />
<path d="M3476.4571428571458,-200 L3482.54285714286,-200 L3482.54285714286,-150 L3476.4571428571458,-150 L3476.4571428571458,-200 Z" fill="black" />
<path d="M3482.54285714286,-200 L3488.6285714285746,-200 L3488.6285714285746,-150 L3482.54285714286,-150 L3482.54285714286,-200 Z" fill="#f0f0f0" />
<path d="M3488.6285714285746,-200 L3494.714285714289,-200 L3494.714285714289,-150 L3488.6285714285746,-150 L3488.6285714285746,-200 Z" fill="black" />
<path d="M3494.714285714289,-200 L3500.8000000000034,-200 L3500.8000000000034,-150 L3494.714285714289,-150 L3494.714285714289,-200 Z" fill="#f0f0f0" />
<path d="M3500.8000000000034,-200 L3506.8857142857178,-200 L3506.8857142857178,-150 L3500.8000000000034,-150 L3500.8000000000034,-200 Z" fill="black" />
<path d="M3506.8857142857178,-200 L3512.971428571432,-200 L3512.971428571432,-150 L3506.8857142857178,-150 L3506.8857142857178,-200 Z" fill="#f0f0f0" />
<path d="M3512.971428571432,-200 L3519.0571428571466,-200 L3519.0571428571466,-150 L3512.971428571432,-150 L3512.971428571432,-200 Z" fill="black" />
<path d="M3519.0571428571466,-200 L3525.142857142861,-200 L3525.142857142861,-150 L3519.0571428571466,-150 L3519.0571428571466,-200 Z" fill="#f0f0f0" />
<path d="M3525.142857142861,-200 L3531.2285714285754,-200 L3531.2285714285754,-150 L3525.142857142861,-150 L3525.142857142861,-200 Z" fill="black" />
<path d="M3531.2285714285754,-200 L3537.31428571429,-200 L3537.31428571429,-150 L3531.2285714285754,-150 L3531.2285714285754,-200 Z" fill="#f0f0f0" />
<path d="M3537.31428571429,-200 L3543.400000000004,-200 L3543.400000000004,-150 L3537.31428571429,-150 L3537.31428571429,-200 Z" fill="black" />
<text x="3330.4" y="-210" font-size="26" fill="black" dy="0em">CRISPR: I-E</text>
</svg>