<?xml version="1.0" encoding="UTF-8"?>
<svg xmlns="http://www.w3.org/2000/svg" xmlns:xlink="http://www.w3.org/1999/xlink"
     width="2460" height="1200" viewBox="0 -1200 2460 1200">
<defs>
</defs>
<path d="M210,-20 L210,-1120" stroke="grey" stroke-width="1" fill="none" />
<text x="160" y="-1130" font-size="22" fill="grey" dy="0em">1000</text>
<path d="M410,-20 L410,-1120" stroke="grey" stroke-width="1" fill="none" />
<text x="360" y="-1130" font-size="22" fill="grey" dy="0em">2000</text>
<path d="M610,-20 L610,-1120" stroke="grey" stroke-width="1" fill="none" />
<text x="560" y="-1130" font-size="22" fill="grey" dy="0em">3000</text>
<path d="M810,-20 L810,-1120" stroke="grey" stroke-width="1" fill="none" />
<text x="760" y="-1130" font-size="22" fill="grey" dy="0em">4000</text>
<path d="M1010,-20 L1010,-1120" stroke="grey" stroke-width="1" fill="none" />
<text x="960" y="-1130" font-size="22" fill="grey" dy="0em">5000</text>
<path d="M1210,-20 L1210,-1120" stroke="grey" stroke-width="1" fill="none" />
<text x="1160" y="-1130" font-size="22" fill="grey" dy="0em">6000</text>
<path d="M1410,-20 L1410,-1120" stroke="grey" stroke-width="1" fill="none" />
<text x="1360" y="-1130" font-size="22" fill="grey" dy="0em">7000</text>
<path d="M1610,-20 L1610,-1120" stroke="grey" stroke-width="1" fill="none" />
<text x="1560" y="-1130" font-size="22" fill="grey" dy="0em">8000</text>
<path d="M1810,-20 L1810,-1120" stroke="grey" stroke-width="1" fill="none" />
<text x="1760" y="-1130" font-size="22" fill="grey" dy="0em">9000</text>
<path d="M2010,-20 L2010,-1120" stroke="grey" stroke-width="1" fill="none" />
<text x="1960" y="-1130" font-size="22" fill="grey" dy="0em">10000</text>
<path d="M2210,-20 L2210,-1120" stroke="grey" stroke-width="1" fill="none" />
<text x="2160" y="-1130" font-size="22" fill="grey" dy="0em">11000</text>
<path d="M2410,-20 L2410,-1120" stroke="grey" stroke-width="1" fill="none" />
<text x="2360" y="-1130" font-size="22" fill="grey" dy="0em">12000</text>
<text x="16.0" y="-1060" font-size="38" fill="black" dy="0em">I-A: JAKPCO010000074@1 (2-11802)</text>
<path d="M40.4,-1000 L85.2,-1000 L85.2,-950 L40.4,-950 L10.4,-975.0 L40.4,-1000 Z" fill="#d3c9c1" fill-opacity="0.8" stroke="#d3c9c1" stroke-width="4" />
<text x="10.4" y="-1010" font-size="20" fill="black" dy="0em">1</text>
<path d="M126.2,-1000 L189.60000000000002,-1000 L189.60000000000002,-950 L126.2,-950 L96.2,-975.0 L126.2,-1000 Z" fill="#d3c9c1" fill-opacity="0.8" stroke="#d3c9c1" stroke-width="4" />
<text x="96.2" y="-920" font-size="20" fill="black" dy="0em">2</text>
<path d="M287.0,-1000 L420.0,-1000 L450.0,-975.0 L420.0,-950 L287.0,-950 L287.0,-1000 Z" fill="#d3c9c1" fill-opacity="0.8" stroke="#d3c9c1" stroke-width="4" />
<text x="287.0" y="-1010" font-size="20" fill="black" dy="0em">3</text>
<path d="M452.0,-1000 L460.20000000000005,-1000 L490.20000000000005,-975.0 L460.20000000000005,-950 L452.0,-950 L452.0,-1000 Z" fill="#d3c9c1" fill-opacity="0.8" stroke="#d3c9c1" stroke-width="4" />
<text x="452.0" y="-920" font-size="20" fill="black" dy="0em">4</text>
<path d="M529.0,-1000 L693.8000000000001,-1000 L723.8000000000001,-975.0 L693.8000000000001,-950 L529.0,-950 L529.0,-1000 Z" fill="#dd1424" fill-opacity="0.8" stroke="#dd1424" stroke-width="4" />
<text x="529.0" y="-1010" font-size="26" fill="black" dy="0em">Cas6</text>
<path d="M787.6,-1000 L895.4000000000001,-1000 L895.4000000000001,-950 L787.6,-950 L757.6,-975.0 L787.6,-1000 Z" fill="#efc050" fill-opacity="0.8" stroke="#efc050" stroke-width="4" />
<text x="757.6" y="-920" font-size="26" fill="black" dy="0em">Cas5</text>
<path d="M919.4000000000001,-1000 L1091.4,-1000 L1091.4,-950 L919.4000000000001,-950 L889.4000000000001,-975.0 L919.4000000000001,-1000 Z" fill="#efc050" fill-opacity="0.8" stroke="#efc050" stroke-width="4" />
<text x="889.4000000000001" y="-1010" font-size="26" fill="black" dy="0em">Cas7</text>
<path d="M1120.8,-1000 L1438.0,-1000 L1438.0,-950 L1120.8,-950 L1090.8,-975.0 L1120.8,-1000 Z" fill="#efc050" fill-opacity="0.8" stroke="#efc050" stroke-width="4" />
<text x="1090.8" y="-920" font-size="26" fill="black" dy="0em">Cas8a4</text>
<path d="M1468.8000000000002,-1000 L1914.4,-1000 L1914.4,-950 L1468.8000000000002,-950 L1438.8000000000002,-975.0 L1468.8000000000002,-1000 Z" fill="#efc050" fill-opacity="0.8" stroke="#efc050" stroke-width="4" />
<text x="1438.8000000000002" y="-1010" font-size="26" fill="black" dy="0em">Cas3</text>
<path d="M1965.4,-1000 L2106.8,-1000 L2106.8,-950 L1965.4,-950 L1935.4,-975.0 L1965.4,-1000 Z" fill="#efc050" fill-opacity="0.8" stroke="#efc050" stroke-width="4" />
<text x="1935.4" y="-920" font-size="26" fill="black" dy="0em">Cmr3gr5</text>
<path d="M2139.2000000000003,-1000 L2184.6,-1000 L2184.6,-950 L2139.2000000000003,-950 L2109.2000000000003,-975.0 L2139.2000000000003,-1000 Z" fill="#efc050" fill-opacity="0.8" stroke="#efc050" stroke-width="4" />
<text x="2109.2000000000003" y="-1010" font-size="26" fill="black" dy="0em">Cmr5</text>
<path d="M2210.8,-1000 L2370.2000000000003,-1000 L2370.2000000000003,-950 L2210.8,-950 L2180.8,-975.0 L2210.8,-1000 Z" fill="#efc050" fill-opacity="0.8" stroke="#efc050" stroke-width="4" />
<text x="2180.8" y="-920" font-size="26" fill="black" dy="0em">Cmr4gr7</text>
<path d="M10.2,-1000 L284.2,-1000 L284.2,-950 L10.2,-950 L10.2,-1000 Z" fill="white" stroke="white" stroke-width="4" />
<path d="M10.2,-1000 L17.605405405405406,-1000 L17.605405405405406,-950 L10.2,-950 L10.2,-1000 Z" fill="black" />
<path d="M17.605405405405406,-1000 L25.01081081081081,-1000 L25.01081081081081,-950 L17.605405405405406,-950 L17.605405405405406,-1000 Z" fill="#f0f0f0" />
<path d="M25.01081081081081,-1000 L32.41621621621621,-1000 L32.41621621621621,-950 L25.01081081081081,-950 L25.01081081081081,-1000 Z" fill="black" />
<path d="M32.41621621621621,-1000 L39.82162162162162,-1000 L39.82162162162162,-950 L32.41621621621621,-950 L32.41621621621621,-1000 Z" fill="#f0f0f0" />
<path d="M39.82162162162162,-1000 L47.22702702702702,-1000 L47.22702702702702,-950 L39.82162162162162,-950 L39.82162162162162,-1000 Z" fill="black" />
<path d="M47.22702702702702,-1000 L54.632432432432424,-1000 L54.632432432432424,-950 L47.22702702702702,-950 L47.22702702702702,-1000 Z" fill="#f0f0f0" />
<path d="M54.632432432432424,-1000 L62.03783783783783,-1000 L62.03783783783783,-950 L54.632432432432424,-950 L54.632432432432424,-1000 Z" fill="black" />
<path d="M62.03783783783783,-1000 L69.44324324324323,-1000 L69.44324324324323,-950 L62.03783783783783,-950 L62.03783783783783,-1000 Z" fill="#f0f0f0" />
<path d="M69.44324324324323,-1000 L76.84864864864863,-1000 L76.84864864864863,-950 L69.44324324324323,-950 L69.44324324324323,-1000 Z" fill="black" />
<path d="M76.84864864864863,-1000 L84.25405405405404,-1000 L84.25405405405404,-950 L76.84864864864863,-950 L76.84864864864863,-1000 Z" fill="#f0f0f0" />
<path d="M84.25405405405404,-1000 L91.65945945945944,-1000 L91.65945945945944,-950 L84.25405405405404,-950 L84.25405405405404,-1000 Z" fill="black" />
<path d="M91.65945945945944,-1000 L99.06486486486484,-1000 L99.06486486486484,-950 L91.65945945945944,-950 L91.65945945945944,-1000 Z" fill="#f0f0f0" />
<path d="M99.06486486486484,-1000 L106.47027027027025,-1000 L106.47027027027025,-950 L99.06486486486484,-950 L99.06486486486484,-1000 Z" fill="black" />
<path d="M106.47027027027025,-1000 L113.87567567567565,-1000 L113.87567567567565,-950 L106.47027027027025,-950 L106.47027027027025,-1000 Z" fill="#f0f0f0" />
<path d="M113.87567567567565,-1000 L121.28108108108106,-1000 L121.28108108108106,-950 L113.87567567567565,-950 L113.87567567567565,-1000 Z" fill="black" />
<path d="M121.28108108108106,-1000 L128.68648648648647,-1000 L128.68648648648647,-950 L121.28108108108106,-950 L121.28108108108106,-1000 Z" fill="#f0f0f0" />
<path d="M128.68648648648647,-1000 L136.0918918918919,-1000 L136.0918918918919,-950 L128.68648648648647,-950 L128.68648648648647,-1000 Z" fill="black" />
<path d="M136.0918918918919,-1000 L143.4972972972973,-1000 L143.4972972972973,-950 L136.0918918918919,-950 L136.0918918918919,-1000 Z" fill="#f0f0f0" />
<path d="M143.4972972972973,-1000 L150.90270270270273,-1000 L150.90270270270273,-950 L143.4972972972973,-950 L143.4972972972973,-1000 Z" fill="black" />
<path d="M150.90270270270273,-1000 L158.30810810810814,-1000 L158.30810810810814,-950 L150.90270270270273,-950 L150.90270270270273,-1000 Z" fill="#f0f0f0" />
<path d="M158.30810810810814,-1000 L165.71351351351356,-1000 L165.71351351351356,-950 L158.30810810810814,-950 L158.30810810810814,-1000 Z" fill="black" />
<path d="M165.71351351351356,-1000 L173.11891891891898,-1000 L173.11891891891898,-950 L165.71351351351356,-950 L165.71351351351356,-1000 Z" fill="#f0f0f0" />
<path d="M173.11891891891898,-1000 L180.5243243243244,-1000 L180.5243243243244,-950 L173.11891891891898,-950 L173.11891891891898,-1000 Z" fill="black" />
<path d="M180.5243243243244,-1000 L187.92972972972981,-1000 L187.92972972972981,-950 L180.5243243243244,-950 L180.5243243243244,-1000 Z" fill="#f0f0f0" />
<path d="M187.92972972972981,-1000 L195.33513513513523,-1000 L195.33513513513523,-950 L187.92972972972981,-950 L187.92972972972981,-1000 Z" fill="black" />
<path d="M195.33513513513523,-1000 L202.74054054054065,-1000 L202.74054054054065,-950 L195.33513513513523,-950 L195.33513513513523,-1000 Z" fill="#f0f0f0" />
<path d="M202.74054054054065,-1000 L210.14594594594607,-1000 L210.14594594594607,-950 L202.74054054054065,-950 L202.74054054054065,-1000 Z" fill="black" />
<path d="M210.14594594594607,-1000 L217.55135135135149,-1000 L217.55135135135149,-950 L210.14594594594607,-950 L210.14594594594607,-1000 Z" fill="#f0f0f0" />
<path d="M217.55135135135149,-1000 L224.9567567567569,-1000 L224.9567567567569,-950 L217.55135135135149,-950 L217.55135135135149,-1000 Z" fill="black" />
<path d="M224.9567567567569,-1000 L232.36216216216232,-1000 L232.36216216216232,-950 L224.9567567567569,-950 L224.9567567567569,-1000 Z" fill="#f0f0f0" />
<path d="M232.36216216216232,-1000 L239.76756756756774,-1000 L239.76756756756774,-950 L232.36216216216232,-950 L232.36216216216232,-1000 Z" fill="black" />
<path d="M239.76756756756774,-1000 L247.17297297297316,-1000 L247.17297297297316,-950 L239.76756756756774,-950 L239.76756756756774,-1000 Z" fill="#f0f0f0" />
<path d="M247.17297297297316,-1000 L254.57837837837857,-1000 L254.57837837837857,-950 L247.17297297297316,-950 L247.17297297297316,-1000 Z" fill="black" />
<path d="M254.57837837837857,-1000 L261.98378378378396,-1000 L261.98378378378396,-950 L254.57837837837857,-950 L254.57837837837857,-1000 Z" fill="#f0f0f0" />
<path d="M261.98378378378396,-1000 L269.3891891891894,-1000 L269.3891891891894,-950 L261.98378378378396,-950 L261.98378378378396,-1000 Z" fill="black" />
<path d="M269.3891891891894,-1000 L276.7945945945948,-1000 L276.7945945945948,-950 L269.3891891891894,-950 L269.3891891891894,-1000 Z" fill="#f0f0f0" />
<path d="M276.7945945945948,-1000 L284.2000000000002,-1000 L284.2000000000002,-950 L276.7945945945948,-950 L276.7945945945948,-1000 Z" fill="black" />
<text x="10.2" y="-1010" font-size="26" fill="black" dy="0em">CRISPR: I-A</text>
<path d="M10.4,-1000 L269.40000000000003,-1000 L269.40000000000003,-950 L10.4,-950 L10.4,-1000 Z" fill="white" stroke="white" stroke-width="4" />
<path d="M10.4,-1000 L17.8,-1000 L17.8,-950 L10.4,-950 L10.4,-1000 Z" fill="black" />
<path d="M17.8,-1000 L25.200000000000003,-1000 L25.200000000000003,-950 L17.8,-950 L17.8,-1000 Z" fill="#f0f0f0" />
<path d="M25.200000000000003,-1000 L32.6,-1000 L32.6,-950 L25.200000000000003,-950 L25.200000000000003,-1000 Z" fill="black" />
<path d="M32.6,-1000 L40.0,-1000 L40.0,-950 L32.6,-950 L32.6,-1000 Z" fill="#f0f0f0" />
<path d="M40.0,-1000 L47.4,-1000 L47.4,-950 L40.0,-950 L40.0,-1000 Z" fill="black" />
<path d="M47.4,-1000 L54.8,-1000 L54.8,-950 L47.4,-950 L47.4,-1000 Z" fill="#f0f0f0" />
<path d="M54.8,-1000 L62.199999999999996,-1000 L62.199999999999996,-950 L54.8,-950 L54.8,-1000 Z" fill="black" />
<path d="M62.199999999999996,-1000 L69.6,-1000 L69.6,-950 L62.199999999999996,-950 L62.199999999999996,-1000 Z" fill="#f0f0f0" />
<path d="M69.6,-1000 L77.0,-1000 L77.0,-950 L69.6,-950 L69.6,-1000 Z" fill="black" />
<path d="M77.0,-1000 L84.4,-1000 L84.4,-950 L77.0,-950 L77.0,-1000 Z" fill="#f0f0f0" />
<path d="M84.4,-1000 L91.80000000000001,-1000 L91.80000000000001,-950 L84.4,-950 L84.4,-1000 Z" fill="black" />
<path d="M91.80000000000001,-1000 L99.20000000000002,-1000 L99.20000000000002,-950 L91.80000000000001,-950 L91.80000000000001,-1000 Z" fill="#f0f0f0" />
<path d="M99.20000000000002,-1000 L106.60000000000002,-1000 L106.60000000000002,-950 L99.20000000000002,-950 L99.20000000000002,-1000 Z" fill="black" />
<path d="M106.60000000000002,-1000 L114.00000000000003,-1000 L114.00000000000003,-950 L106.60000000000002,-950 L106.60000000000002,-1000 Z" fill="#f0f0f0" />
<path d="M114.00000000000003,-1000 L121.40000000000003,-1000 L121.40000000000003,-950 L114.00000000000003,-950 L114.00000000000003,-1000 Z" fill="black" />
<path d="M121.40000000000003,-1000 L128.80000000000004,-1000 L128.80000000000004,-950 L121.40000000000003,-950 L121.40000000000003,-1000 Z" fill="#f0f0f0" />
<path d="M128.80000000000004,-1000 L136.20000000000005,-1000 L136.20000000000005,-950 L128.80000000000004,-950 L128.80000000000004,-1000 Z" fill="black" />
<path d="M136.20000000000005,-1000 L143.60000000000005,-1000 L143.60000000000005,-950 L136.20000000000005,-950 L136.20000000000005,-1000 Z" fill="#f0f0f0" />
<path d="M143.60000000000005,-1000 L151.00000000000006,-1000 L151.00000000000006,-950 L143.60000000000005,-950 L143.60000000000005,-1000 Z" fill="black" />
<path d="M151.00000000000006,-1000 L158.40000000000006,-1000 L158.40000000000006,-950 L151.00000000000006,-950 L151.00000000000006,-1000 Z" fill="#f0f0f0" />
<path d="M158.40000000000006,-1000 L165.80000000000007,-1000 L165.80000000000007,-950 L158.40000000000006,-950 L158.40000000000006,-1000 Z" fill="black" />
<path d="M165.80000000000007,-1000 L173.20000000000007,-1000 L173.20000000000007,-950 L165.80000000000007,-950 L165.80000000000007,-1000 Z" fill="#f0f0f0" />
<path d="M173.20000000000007,-1000 L180.60000000000008,-1000 L180.60000000000008,-950 L173.20000000000007,-950 L173.20000000000007,-1000 Z" fill="black" />
<path d="M180.60000000000008,-1000 L188.00000000000009,-1000 L188.00000000000009,-950 L180.60000000000008,-950 L180.60000000000008,-1000 Z" fill="#f0f0f0" />
<path d="M188.00000000000009,-1000 L195.4000000000001,-1000 L195.4000000000001,-950 L188.00000000000009,-950 L188.00000000000009,-1000 Z" fill="black" />
<path d="M195.4000000000001,-1000 L202.8000000000001,-1000 L202.8000000000001,-950 L195.4000000000001,-950 L195.4000000000001,-1000 Z" fill="#f0f0f0" />
<path d="M202.8000000000001,-1000 L210.2000000000001,-1000 L210.2000000000001,-950 L202.8000000000001,-950 L202.8000000000001,-1000 Z" fill="black" />
<path d="M210.2000000000001,-1000 L217.6000000000001,-1000 L217.6000000000001,-950 L210.2000000000001,-950 L210.2000000000001,-1000 Z" fill="#f0f0f0" />
<path d="M217.6000000000001,-1000 L225.0000000000001,-1000 L225.0000000000001,-950 L217.6000000000001,-950 L217.6000000000001,-1000 Z" fill="black" />
<path d="M225.0000000000001,-1000 L232.40000000000012,-1000 L232.40000000000012,-950 L225.0000000000001,-950 L225.0000000000001,-1000 Z" fill="#f0f0f0" />
<path d="M232.40000000000012,-1000 L239.80000000000013,-1000 L239.80000000000013,-950 L232.40000000000012,-950 L232.40000000000012,-1000 Z" fill="black" />
<path d="M239.80000000000013,-1000 L247.20000000000013,-1000 L247.20000000000013,-950 L239.80000000000013,-950 L239.80000000000013,-1000 Z" fill="#f0f0f0" />
<path d="M247.20000000000013,-1000 L254.60000000000014,-1000 L254.60000000000014,-950 L247.20000000000013,-950 L247.20000000000013,-1000 Z" fill="black" />
<path d="M254.60000000000014,-1000 L262.0000000000001,-1000 L262.0000000000001,-950 L254.60000000000014,-950 L254.60000000000014,-1000 Z" fill="#f0f0f0" />
<path d="M262.0000000000001,-1000 L269.4000000000001,-1000 L269.4000000000001,-950 L262.0000000000001,-950 L262.0000000000001,-1000 Z" fill="black" />
<text x="10.4" y="-1010" font-size="26" fill="black" dy="0em">CRISPR</text>
<text x="16.0" y="-860" font-size="38" fill="black" dy="0em">III-B: JAKPCO010000094@1 (3-9434)</text>
<path d="M10.2,-800 L271.0,-800 L301.0,-775.0 L271.0,-750 L10.2,-750 L10.2,-800 Z" fill="#ff80e6" fill-opacity="0.8" stroke="#ff80e6" stroke-width="4" />
<text x="10.2" y="-810" font-size="26" fill="black" dy="0em">Csx1</text>
<path d="M300.40000000000003,-800 L331.40000000000003,-800 L361.40000000000003,-775.0 L331.40000000000003,-750 L300.40000000000003,-750 L300.40000000000003,-800 Z" fill="#efc050" fill-opacity="0.8" stroke="#efc050" stroke-width="4" />
<text x="300.40000000000003" y="-720" font-size="26" fill="black" dy="0em">Cmr1gr7</text>
<path d="M376.0,-800 L530.0,-800 L560.0,-775.0 L530.0,-750 L376.0,-750 L376.0,-800 Z" fill="#efc050" fill-opacity="0.8" stroke="#efc050" stroke-width="4" />
<text x="376.0" y="-810" font-size="26" fill="black" dy="0em">Cmr1gr7</text>
<path d="M556.8000000000001,-800 L910.0,-800 L940.0,-775.0 L910.0,-750 L556.8000000000001,-750 L556.8000000000001,-800 Z" fill="#efc050" fill-opacity="0.8" stroke="#efc050" stroke-width="4" />
<text x="556.8000000000001" y="-720" font-size="26" fill="black" dy="0em">Cas10</text>
<path d="M939.4000000000001,-800 L1124.6000000000001,-800 L1154.6000000000001,-775.0 L1124.6000000000001,-750 L939.4000000000001,-750 L939.4000000000001,-800 Z" fill="#efc050" fill-opacity="0.8" stroke="#efc050" stroke-width="4" />
<text x="939.4000000000001" y="-810" font-size="26" fill="black" dy="0em">Cmr3</text>
<path d="M1157.0,-800 L1287.6000000000001,-800 L1317.6000000000001,-775.0 L1287.6000000000001,-750 L1157.0,-750 L1157.0,-800 Z" fill="#efc050" fill-opacity="0.8" stroke="#efc050" stroke-width="4" />
<text x="1157.0" y="-720" font-size="26" fill="black" dy="0em">Cmr4</text>
<path d="M1317.0,-800 L1367.2,-800 L1397.2,-775.0 L1367.2,-750 L1317.0,-750 L1317.0,-800 Z" fill="#efc050" fill-opacity="0.8" stroke="#efc050" stroke-width="4" />
<text x="1317.0" y="-810" font-size="26" fill="black" dy="0em">Cmr5gr11</text>
<path d="M1397.8000000000002,-800 L1572.2,-800 L1602.2,-775.0 L1572.2,-750 L1397.8000000000002,-750 L1397.8000000000002,-800 Z" fill="#efc050" fill-opacity="0.8" stroke="#efc050" stroke-width="4" />
<text x="1397.8000000000002" y="-720" font-size="26" fill="black" dy="0em">Cmr6</text>
<path d="M1601.6000000000001,-800 L1814.4,-800 L1844.4,-775.0 L1814.4,-750 L1601.6000000000001,-750 L1601.6000000000001,-800 Z" fill="#ff80e6" fill-opacity="0.8" stroke="#ff80e6" stroke-width="4" />
<text x="1601.6000000000001" y="-810" font-size="26" fill="black" dy="0em">Can2_Card1</text>
<path d="M1844.4,-800 L1866.4,-800 L1896.4,-775.0 L1866.4,-750 L1844.4,-750 L1844.4,-800 Z" fill="#ff80e6" fill-opacity="0.8" stroke="#ff80e6" stroke-width="4" />
<text x="1844.4" y="-720" font-size="26" fill="black" dy="0em">Csx3</text>
<text x="16.0" y="-660" font-size="38" fill="black" dy="0em">I-B: JAKPCO010000080@4 (147942-156660)</text>
<path d="M10.2,-600 L196.60000000000002,-600 L226.60000000000002,-575.0 L196.60000000000002,-550 L10.2,-550 L10.2,-600 Z" fill="#5b5ea6" fill-opacity="0.8" stroke="#5b5ea6" stroke-width="4" />
<text x="10.2" y="-610" font-size="26" fill="black" dy="0em">Cas1</text>
<path d="M219.8,-600 L247.2,-600 L277.2,-575.0 L247.2,-550 L219.8,-550 L219.8,-600 Z" fill="#5b5ea6" fill-opacity="0.8" stroke="#5b5ea6" stroke-width="4" />
<text x="219.8" y="-520" font-size="26" fill="black" dy="0em">Cas2</text>
<path d="M284.6,-600 L369.6,-600 L399.6,-575.0 L369.6,-550 L284.6,-550 L284.6,-600 Z" fill="#5b5ea6" fill-opacity="0.8" stroke="#5b5ea6" stroke-width="4" />
<text x="284.6" y="-610" font-size="26" fill="black" dy="0em">Cas4</text>
<path d="M400.40000000000003,-600 L741.6,-600 L771.6,-575.0 L741.6,-550 L400.40000000000003,-550 L400.40000000000003,-600 Z" fill="#efc050" fill-opacity="0.8" stroke="#efc050" stroke-width="4" />
<text x="400.40000000000003" y="-520" font-size="26" fill="black" dy="0em">Cas8b1</text>
<path d="M771.0,-600 L934.0,-600 L964.0,-575.0 L934.0,-550 L771.0,-550 L771.0,-600 Z" fill="#efc050" fill-opacity="0.8" stroke="#efc050" stroke-width="4" />
<text x="771.0" y="-610" font-size="26" fill="black" dy="0em">Cas7</text>
<path d="M966.0,-600 L1076.2,-600 L1106.2,-575.0 L1076.2,-550 L966.0,-550 L966.0,-600 Z" fill="#efc050" fill-opacity="0.8" stroke="#efc050" stroke-width="4" />
<text x="966.0" y="-520" font-size="26" fill="black" dy="0em">Cas5</text>
<path d="M1101.2,-600 L1554.0,-600 L1584.0,-575.0 L1554.0,-550 L1101.2,-550 L1101.2,-600 Z" fill="#efc050" fill-opacity="0.8" stroke="#efc050" stroke-width="4" />
<text x="1101.2" y="-610" font-size="26" fill="black" dy="0em">Cas3</text>
<path d="M1585.4,-600 L1723.8000000000002,-600 L1753.8000000000002,-575.0 L1723.8000000000002,-550 L1585.4,-550 L1585.4,-600 Z" fill="#dd1424" fill-opacity="0.8" stroke="#dd1424" stroke-width="4" />
<text x="1585.4" y="-520" font-size="26" fill="black" dy="0em">Cas6</text>
<path d="M10.2,-400 L359.6,-400 L359.6,-350 L10.2,-350 L10.2,-400 Z" fill="white" stroke="white" stroke-width="4" />
<path d="M10.2,-400 L17.634042553191488,-400 L17.634042553191488,-350 L10.2,-350 L10.2,-400 Z" fill="black" />
<path d="M17.634042553191488,-400 L25.068085106382977,-400 L25.068085106382977,-350 L17.634042553191488,-350 L17.634042553191488,-400 Z" fill="#f0f0f0" />
<path d="M25.068085106382977,-400 L32.50212765957447,-400 L32.50212765957447,-350 L25.068085106382977,-350 L25.068085106382977,-400 Z" fill="black" />
<path d="M32.50212765957447,-400 L39.93617021276596,-400 L39.93617021276596,-350 L32.50212765957447,-350 L32.50212765957447,-400 Z" fill="#f0f0f0" />
<path d="M39.93617021276596,-400 L47.37021276595745,-400 L47.37021276595745,-350 L39.93617021276596,-350 L39.93617021276596,-400 Z" fill="black" />
<path d="M47.37021276595745,-400 L54.804255319148936,-400 L54.804255319148936,-350 L47.37021276595745,-350 L47.37021276595745,-400 Z" fill="#f0f0f0" />
<path d="M54.804255319148936,-400 L62.238297872340425,-400 L62.238297872340425,-350 L54.804255319148936,-350 L54.804255319148936,-400 Z" fill="black" />
<path d="M62.238297872340425,-400 L69.67234042553191,-400 L69.67234042553191,-350 L62.238297872340425,-350 L62.238297872340425,-400 Z" fill="#f0f0f0" />
<path d="M69.67234042553191,-400 L77.1063829787234,-400 L77.1063829787234,-350 L69.67234042553191,-350 L69.67234042553191,-400 Z" fill="black" />
<path d="M77.1063829787234,-400 L84.54042553191489,-400 L84.54042553191489,-350 L77.1063829787234,-350 L77.1063829787234,-400 Z" fill="#f0f0f0" />
<path d="M84.54042553191489,-400 L91.97446808510638,-400 L91.97446808510638,-350 L84.54042553191489,-350 L84.54042553191489,-400 Z" fill="black" />
<path d="M91.97446808510638,-400 L99.40851063829787,-400 L99.40851063829787,-350 L91.97446808510638,-350 L91.97446808510638,-400 Z" fill="#f0f0f0" />
<path d="M99.40851063829787,-400 L106.84255319148936,-400 L106.84255319148936,-350 L99.40851063829787,-350 L99.40851063829787,-400 Z" fill="black" />
<path d="M106.84255319148936,-400 L114.27659574468085,-400 L114.27659574468085,-350 L106.84255319148936,-350 L106.84255319148936,-400 Z" fill="#f0f0f0" />
<path d="M114.27659574468085,-400 L121.71063829787234,-400 L121.71063829787234,-350 L114.27659574468085,-350 L114.27659574468085,-400 Z" fill="black" />
<path d="M121.71063829787234,-400 L129.1446808510638,-400 L129.1446808510638,-350 L121.71063829787234,-350 L121.71063829787234,-400 Z" fill="#f0f0f0" />
<path d="M129.1446808510638,-400 L136.5787234042553,-400 L136.5787234042553,-350 L129.1446808510638,-350 L129.1446808510638,-400 Z" fill="black" />
<path d="M136.5787234042553,-400 L144.0127659574468,-400 L144.0127659574468,-350 L136.5787234042553,-350 L136.5787234042553,-400 Z" fill="#f0f0f0" />
<path d="M144.0127659574468,-400 L151.44680851063828,-400 L151.44680851063828,-350 L144.0127659574468,-350 L144.0127659574468,-400 Z" fill="black" />
<path d="M151.44680851063828,-400 L158.88085106382977,-400 L158.88085106382977,-350 L151.44680851063828,-350 L151.44680851063828,-400 Z" fill="#f0f0f0" />
<path d="M158.88085106382977,-400 L166.31489361702126,-400 L166.31489361702126,-350 L158.88085106382977,-350 L158.88085106382977,-400 Z" fill="black" />
<path d="M166.31489361702126,-400 L173.74893617021274,-400 L173.74893617021274,-350 L166.31489361702126,-350 L166.31489361702126,-400 Z" fill="#f0f0f0" />
<path d="M173.74893617021274,-400 L181.18297872340423,-400 L181.18297872340423,-350 L173.74893617021274,-350 L173.74893617021274,-400 Z" fill="black" />
<path d="M181.18297872340423,-400 L188.61702127659572,-400 L188.61702127659572,-350 L181.18297872340423,-350 L181.18297872340423,-400 Z" fill="#f0f0f0" />
<path d="M188.61702127659572,-400 L196.0510638297872,-400 L196.0510638297872,-350 L188.61702127659572,-350 L188.61702127659572,-400 Z" fill="black" />
<path d="M196.0510638297872,-400 L203.4851063829787,-400 L203.4851063829787,-350 L196.0510638297872,-350 L196.0510638297872,-400 Z" fill="#f0f0f0" />
<path d="M203.4851063829787,-400 L210.9191489361702,-400 L210.9191489361702,-350 L203.4851063829787,-350 L203.4851063829787,-400 Z" fill="black" />
<path d="M210.9191489361702,-400 L218.35319148936168,-400 L218.35319148936168,-350 L210.9191489361702,-350 L210.9191489361702,-400 Z" fill="#f0f0f0" />
<path d="M218.35319148936168,-400 L225.78723404255317,-400 L225.78723404255317,-350 L218.35319148936168,-350 L218.35319148936168,-400 Z" fill="black" />
<path d="M225.78723404255317,-400 L233.22127659574465,-400 L233.22127659574465,-350 L225.78723404255317,-350 L225.78723404255317,-400 Z" fill="#f0f0f0" />
<path d="M233.22127659574465,-400 L240.65531914893614,-400 L240.65531914893614,-350 L233.22127659574465,-350 L233.22127659574465,-400 Z" fill="black" />
<path d="M240.65531914893614,-400 L248.08936170212763,-400 L248.08936170212763,-350 L240.65531914893614,-350 L240.65531914893614,-400 Z" fill="#f0f0f0" />
<path d="M248.08936170212763,-400 L255.52340425531912,-400 L255.52340425531912,-350 L248.08936170212763,-350 L248.08936170212763,-400 Z" fill="black" />
<path d="M255.52340425531912,-400 L262.9574468085106,-400 L262.9574468085106,-350 L255.52340425531912,-350 L255.52340425531912,-400 Z" fill="#f0f0f0" />
<path d="M262.9574468085106,-400 L270.3914893617021,-400 L270.3914893617021,-350 L262.9574468085106,-350 L262.9574468085106,-400 Z" fill="black" />
<path d="M270.3914893617021,-400 L277.8255319148936,-400 L277.8255319148936,-350 L270.3914893617021,-350 L270.3914893617021,-400 Z" fill="#f0f0f0" />
<path d="M277.8255319148936,-400 L285.2595744680851,-400 L285.2595744680851,-350 L277.8255319148936,-350 L277.8255319148936,-400 Z" fill="black" />
<path d="M285.2595744680851,-400 L292.69361702127657,-400 L292.69361702127657,-350 L285.2595744680851,-350 L285.2595744680851,-400 Z" fill="#f0f0f0" />
<path d="M292.69361702127657,-400 L300.12765957446805,-400 L300.12765957446805,-350 L292.69361702127657,-350 L292.69361702127657,-400 Z" fill="black" />
<path d="M300.12765957446805,-400 L307.56170212765954,-400 L307.56170212765954,-350 L300.12765957446805,-350 L300.12765957446805,-400 Z" fill="#f0f0f0" />
<path d="M307.56170212765954,-400 L314.99574468085103,-400 L314.99574468085103,-350 L307.56170212765954,-350 L307.56170212765954,-400 Z" fill="black" />
<path d="M314.99574468085103,-400 L322.4297872340425,-400 L322.4297872340425,-350 L314.99574468085103,-350 L314.99574468085103,-400 Z" fill="#f0f0f0" />
<path d="M322.4297872340425,-400 L329.863829787234,-400 L329.863829787234,-350 L322.4297872340425,-350 L322.4297872340425,-400 Z" fill="black" />
<path d="M329.863829787234,-400 L337.2978723404255,-400 L337.2978723404255,-350 L329.863829787234,-350 L329.863829787234,-400 Z" fill="#f0f0f0" />
<path d="M337.2978723404255,-400 L344.731914893617,-400 L344.731914893617,-350 L337.2978723404255,-350 L337.2978723404255,-400 Z" fill="black" />
<path d="M344.731914893617,-400 L352.1659574468085,-400 L352.1659574468085,-350 L344.731914893617,-350 L344.731914893617,-400 Z" fill="#f0f0f0" />
<path d="M352.1659574468085,-400 L359.59999999999997,-400 L359.59999999999997,-350 L352.1659574468085,-350 L352.1659574468085,-400 Z" fill="black" />
<text x="10.2" y="-410" font-size="26" fill="black" dy="0em">CRISPR: I-A</text>
<text x="16.0" y="-460" font-size="38" fill="black" dy="0em">I-A: JAKPCO010000001_1 (491-2238)</text>
<path d="M10.2,-200 L344.8,-200 L344.8,-150 L10.2,-150 L10.2,-200 Z" fill="white" stroke="white" stroke-width="4" />
<path d="M10.2,-200 L17.635555555555555,-200 L17.635555555555555,-150 L10.2,-150 L10.2,-200 Z" fill="black" />
<path d="M17.635555555555555,-200 L25.07111111111111,-200 L25.07111111111111,-150 L17.635555555555555,-150 L17.635555555555555,-200 Z" fill="#f0f0f0" />
<path d="M25.07111111111111,-200 L32.50666666666667,-200 L32.50666666666667,-150 L25.07111111111111,-150 L25.07111111111111,-200 Z" fill="black" />
<path d="M32.50666666666667,-200 L39.94222222222223,-200 L39.94222222222223,-150 L32.50666666666667,-150 L32.50666666666667,-200 Z" fill="#f0f0f0" />
<path d="M39.94222222222223,-200 L47.37777777777778,-200 L47.37777777777778,-150 L39.94222222222223,-150 L39.94222222222223,-200 Z" fill="black" />
<path d="M47.37777777777778,-200 L54.81333333333333,-200 L54.81333333333333,-150 L47.37777777777778,-150 L47.37777777777778,-200 Z" fill="#f0f0f0" />
<path d="M54.81333333333333,-200 L62.248888888888885,-200 L62.248888888888885,-150 L54.81333333333333,-150 L54.81333333333333,-200 Z" fill="black" />
<path d="M62.248888888888885,-200 L69.68444444444444,-200 L69.68444444444444,-150 L62.248888888888885,-150 L62.248888888888885,-200 Z" fill="#f0f0f0" />
<path d="M69.68444444444444,-200 L77.11999999999999,-200 L77.11999999999999,-150 L69.68444444444444,-150 L69.68444444444444,-200 Z" fill="black" />
<path d="M77.11999999999999,-200 L84.55555555555554,-200 L84.55555555555554,-150 L77.11999999999999,-150 L77.11999999999999,-200 Z" fill="#f0f0f0" />
<path d="M84.55555555555554,-200 L91.9911111111111,-200 L91.9911111111111,-150 L84.55555555555554,-150 L84.55555555555554,-200 Z" fill="black" />
<path d="M91.9911111111111,-200 L99.42666666666665,-200 L99.42666666666665,-150 L91.9911111111111,-150 L91.9911111111111,-200 Z" fill="#f0f0f0" />
<path d="M99.42666666666665,-200 L106.8622222222222,-200 L106.8622222222222,-150 L99.42666666666665,-150 L99.42666666666665,-200 Z" fill="black" />
<path d="M106.8622222222222,-200 L114.29777777777775,-200 L114.29777777777775,-150 L106.8622222222222,-150 L106.8622222222222,-200 Z" fill="#f0f0f0" />
<path d="M114.29777777777775,-200 L121.7333333333333,-200 L121.7333333333333,-150 L114.29777777777775,-150 L114.29777777777775,-200 Z" fill="black" />
<path d="M121.7333333333333,-200 L129.16888888888886,-200 L129.16888888888886,-150 L121.7333333333333,-150 L121.7333333333333,-200 Z" fill="#f0f0f0" />
<path d="M129.16888888888886,-200 L136.60444444444443,-200 L136.60444444444443,-150 L129.16888888888886,-150 L129.16888888888886,-200 Z" fill="black" />
<path d="M136.60444444444443,-200 L144.04,-200 L144.04,-150 L136.60444444444443,-150 L136.60444444444443,-200 Z" fill="#f0f0f0" />
<path d="M144.04,-200 L151.47555555555556,-200 L151.47555555555556,-150 L144.04,-150 L144.04,-200 Z" fill="black" />
<path d="M151.47555555555556,-200 L158.91111111111113,-200 L158.91111111111113,-150 L151.47555555555556,-150 L151.47555555555556,-200 Z" fill="#f0f0f0" />
<path d="M158.91111111111113,-200 L166.3466666666667,-200 L166.3466666666667,-150 L158.91111111111113,-150 L158.91111111111113,-200 Z" fill="black" />
<path d="M166.3466666666667,-200 L173.78222222222226,-200 L173.78222222222226,-150 L166.3466666666667,-150 L166.3466666666667,-200 Z" fill="#f0f0f0" />
<path d="M173.78222222222226,-200 L181.21777777777783,-200 L181.21777777777783,-150 L173.78222222222226,-150 L173.78222222222226,-200 Z" fill="black" />
<path d="M181.21777777777783,-200 L188.6533333333334,-200 L188.6533333333334,-150 L181.21777777777783,-150 L181.21777777777783,-200 Z" fill="#f0f0f0" />
<path d="M188.6533333333334,-200 L196.08888888888896,-200 L196.08888888888896,-150 L188.6533333333334,-150 L188.6533333333334,-200 Z" fill="black" />
<path d="M196.08888888888896,-200 L203.52444444444453,-200 L203.52444444444453,-150 L196.08888888888896,-150 L196.08888888888896,-200 Z" fill="#f0f0f0" />
<path d="M203.52444444444453,-200 L210.9600000000001,-200 L210.9600000000001,-150 L203.52444444444453,-150 L203.52444444444453,-200 Z" fill="black" />
<path d="M210.9600000000001,-200 L218.39555555555566,-200 L218.39555555555566,-150 L210.9600000000001,-150 L210.9600000000001,-200 Z" fill="#f0f0f0" />
<path d="M218.39555555555566,-200 L225.83111111111123,-200 L225.83111111111123,-150 L218.39555555555566,-150 L218.39555555555566,-200 Z" fill="black" />
<path d="M225.83111111111123,-200 L233.2666666666668,-200 L233.2666666666668,-150 L225.83111111111123,-150 L225.83111111111123,-200 Z" fill="#f0f0f0" />
<path d="M233.2666666666668,-200 L240.70222222222236,-200 L240.70222222222236,-150 L233.2666666666668,-150 L233.2666666666668,-200 Z" fill="black" />
<path d="M240.70222222222236,-200 L248.13777777777793,-200 L248.13777777777793,-150 L240.70222222222236,-150 L240.70222222222236,-200 Z" fill="#f0f0f0" />
<path d="M248.13777777777793,-200 L255.5733333333335,-200 L255.5733333333335,-150 L248.13777777777793,-150 L248.13777777777793,-200 Z" fill="black" />
<path d="M255.5733333333335,-200 L263.00888888888903,-200 L263.00888888888903,-150 L255.5733333333335,-150 L255.5733333333335,-200 Z" fill="#f0f0f0" />
<path d="M263.00888888888903,-200 L270.44444444444457,-200 L270.44444444444457,-150 L263.00888888888903,-150 L263.00888888888903,-200 Z" fill="black" />
<path d="M270.44444444444457,-200 L277.8800000000001,-200 L277.8800000000001,-150 L270.44444444444457,-150 L270.44444444444457,-200 Z" fill="#f0f0f0" />
<path d="M277.8800000000001,-200 L285.31555555555565,-200 L285.31555555555565,-150 L277.8800000000001,-150 L277.8800000000001,-200 Z" fill="black" />
<path d="M285.31555555555565,-200 L292.7511111111112,-200 L292.7511111111112,-150 L285.31555555555565,-150 L285.31555555555565,-200 Z" fill="#f0f0f0" />
<path d="M292.7511111111112,-200 L300.1866666666667,-200 L300.1866666666667,-150 L292.7511111111112,-150 L292.7511111111112,-200 Z" fill="black" />
<path d="M300.1866666666667,-200 L307.62222222222226,-200 L307.62222222222226,-150 L300.1866666666667,-150 L300.1866666666667,-200 Z" fill="#f0f0f0" />
<path d="M307.62222222222226,-200 L315.0577777777778,-200 L315.0577777777778,-150 L307.62222222222226,-150 L307.62222222222226,-200 Z" fill="black" />
<path d="M315.0577777777778,-200 L322.49333333333334,-200 L322.49333333333334,-150 L315.0577777777778,-150 L315.0577777777778,-200 Z" fill="#f0f0f0" />
<path d="M322.49333333333334,-200 L329.9288888888889,-200 L329.9288888888889,-150 L322.49333333333334,-150 L322.49333333333334,-200 Z" fill="black" />
<path d="M329.9288888888889,-200 L337.3644444444444,-200 L337.3644444444444,-150 L329.9288888888889,-150 L329.9288888888889,-200 Z" fill="#f0f0f0" />
<path d="M337.3644444444444,-200 L344.79999999999995,-200 L344.79999999999995,-150 L337.3644444444444,-150 L337.3644444444444,-200 Z" fill="black" />
<text x="10.2" y="-210" font-size="26" fill="black" dy="0em">CRISPR</text>
<text x="16.0" y="-260" font-size="38" fill="black" dy="0em">Unknown: JAKPCO010000001-1_4 (564-2237)</text>
</svg>