<?xml version="1.0" encoding="UTF-8"?>
<svg xmlns="http://www.w3.org/2000/svg" xmlns:xlink="http://www.w3.org/1999/xlink"
     width="2796" height="800" viewBox="0 -800 2796 800">
<defs>
</defs>
<path d="M210,-20 L210,-720" stroke="grey" stroke-width="1" fill="none" />
<text x="160" y="-730" font-size="22" fill="grey" dy="0em">1000</text>
<path d="M410,-20 L410,-720" stroke="grey" stroke-width="1" fill="none" />
<text x="360" y="-730" font-size="22" fill="grey" dy="0em">2000</text>
<path d="M610,-20 L610,-720" stroke="grey" stroke-width="1" fill="none" />
<text x="560" y="-730" font-size="22" fill="grey" dy="0em">3000</text>
<path d="M810,-20 L810,-720" stroke="grey" stroke-width="1" fill="none" />
<text x="760" y="-730" font-size="22" fill="grey" dy="0em">4000</text>
<path d="M1010,-20 L1010,-720" stroke="grey" stroke-width="1" fill="none" />
<text x="960" y="-730" font-size="22" fill="grey" dy="0em">5000</text>
<path d="M1210,-20 L1210,-720" stroke="grey" stroke-width="1" fill="none" />
<text x="1160" y="-730" font-size="22" fill="grey" dy="0em">6000</text>
<path d="M1410,-20 L1410,-720" stroke="grey" stroke-width="1" fill="none" />
<text x="1360" y="-730" font-size="22" fill="grey" dy="0em">7000</text>
<path d="M1610,-20 L1610,-720" stroke="grey" stroke-width="1" fill="none" />
<text x="1560" y="-730" font-size="22" fill="grey" dy="0em">8000</text>
<path d="M1810,-20 L1810,-720" stroke="grey" stroke-width="1" fill="none" />
<text x="1760" y="-730" font-size="22" fill="grey" dy="0em">9000</text>
<path d="M2010,-20 L2010,-720" stroke="grey" stroke-width="1" fill="none" />
<text x="1960" y="-730" font-size="22" fill="grey" dy="0em">10000</text>
<path d="M2210,-20 L2210,-720" stroke="grey" stroke-width="1" fill="none" />
<text x="2160" y="-730" font-size="22" fill="grey" dy="0em">11000</text>
<path d="M2410,-20 L2410,-720" stroke="grey" stroke-width="1" fill="none" />
<text x="2360" y="-730" font-size="22" fill="grey" dy="0em">12000</text>
<path d="M2610,-20 L2610,-720" stroke="grey" stroke-width="1" fill="none" />
<text x="2560" y="-730" font-size="22" fill="grey" dy="0em">13000</text>
<text x="16.0" y="-660" font-size="38" fill="black" dy="0em">I-D: SHMX01000013@1 (1473-14952)</text>
<path d="M10.2,-600 L184.60000000000002,-600 L214.60000000000002,-575.0 L184.60000000000002,-550 L10.2,-550 L10.2,-600 Z" fill="#5b5ea6" fill-opacity="0.8" stroke="#5b5ea6" stroke-width="4" />
<text x="10.2" y="-610" font-size="26" fill="black" dy="0em">Cas1</text>
<path d="M215.60000000000002,-600 L241.8,-600 L271.8,-575.0 L241.8,-550 L215.60000000000002,-550 L215.60000000000002,-600 Z" fill="#5b5ea6" fill-opacity="0.8" stroke="#5b5ea6" stroke-width="4" />
<text x="215.60000000000002" y="-520" font-size="26" fill="black" dy="0em">Cas2</text>
<path d="M270.6,-600 L362.20000000000005,-600 L392.20000000000005,-575.0 L362.20000000000005,-550 L270.6,-550 L270.6,-600 Z" fill="#5b5ea6" fill-opacity="0.8" stroke="#5b5ea6" stroke-width="4" />
<text x="270.6" y="-610" font-size="26" fill="black" dy="0em">Cas4</text>
<path d="M424.0,-600 L565.4,-600 L565.4,-550 L424.0,-550 L394.0,-575.0 L424.0,-600 Z" fill="#dd1424" fill-opacity="0.8" stroke="#dd1424" stroke-width="4" />
<text x="394.0" y="-520" font-size="26" fill="black" dy="0em">Cas6</text>
<path d="M594.0,-600 L985.6,-600 L985.6,-550 L594.0,-550 L564.0,-575.0 L594.0,-600 Z" fill="#efc050" fill-opacity="0.8" stroke="#efc050" stroke-width="4" />
<text x="564.0" y="-610" font-size="26" fill="black" dy="0em">Cas3</text>
<path d="M1014.2,-600 L1118.4,-600 L1118.4,-550 L1014.2,-550 L984.2,-575.0 L1014.2,-600 Z" fill="#efc050" fill-opacity="0.8" stroke="#efc050" stroke-width="4" />
<text x="984.2" y="-520" font-size="26" fill="black" dy="0em">Csc1gr5</text>
<path d="M1152.6000000000001,-600 L1312.0,-600 L1312.0,-550 L1152.6000000000001,-550 L1122.6000000000001,-575.0 L1152.6000000000001,-600 Z" fill="#efc050" fill-opacity="0.8" stroke="#efc050" stroke-width="4" />
<text x="1122.6000000000001" y="-610" font-size="26" fill="black" dy="0em">Csc2</text>
<path d="M1341.4,-600 L1847.0,-600 L1847.0,-550 L1341.4,-550 L1311.4,-575.0 L1341.4,-600 Z" fill="#efc050" fill-opacity="0.8" stroke="#efc050" stroke-width="4" />
<text x="1311.4" y="-520" font-size="26" fill="black" dy="0em">Cas10d</text>
<path d="M1897.6000000000001,-600 L2156.6,-600 L2156.6,-550 L1897.6000000000001,-550 L1867.6000000000001,-575.0 L1897.6000000000001,-600 Z" fill="#d3c9c1" fill-opacity="0.8" stroke="#d3c9c1" stroke-width="4" />
<text x="1867.6000000000001" y="-610" font-size="20" fill="black" dy="0em">10</text>
<path d="M2187.0,-600 L2451.4,-600 L2451.4,-550 L2187.0,-550 L2157.0,-575.0 L2187.0,-600 Z" fill="#ff80e6" fill-opacity="0.3" stroke="#ff80e6" stroke-width="4" />
<text x="2157.0" y="-520" font-size="26" fill="black" dy="0em">(CasR)</text>
<path d="M2499.6000000000004,-600 L2491.0,-600 L2491.0,-550 L2499.6000000000004,-550 L2469.6000000000004,-575.0 L2499.6000000000004,-600 Z" fill="#d3c9c1" fill-opacity="0.8" stroke="#d3c9c1" stroke-width="4" />
<text x="2469.6000000000004" y="-610" font-size="20" fill="black" dy="0em">12</text>
<path d="M2564.0,-600 L2706.0,-600 L2706.0,-550 L2564.0,-550 L2564.0,-600 Z" fill="white" stroke="white" stroke-width="4" />
<path d="M2564.0,-600 L2571.4736842105262,-600 L2571.4736842105262,-550 L2564.0,-550 L2564.0,-600 Z" fill="black" />
<path d="M2571.4736842105262,-600 L2578.9473684210525,-600 L2578.9473684210525,-550 L2571.4736842105262,-550 L2571.4736842105262,-600 Z" fill="#f0f0f0" />
<path d="M2578.9473684210525,-600 L2586.4210526315787,-600 L2586.4210526315787,-550 L2578.9473684210525,-550 L2578.9473684210525,-600 Z" fill="black" />
<path d="M2586.4210526315787,-600 L2593.894736842105,-600 L2593.894736842105,-550 L2586.4210526315787,-550 L2586.4210526315787,-600 Z" fill="#f0f0f0" />
<path d="M2593.894736842105,-600 L2601.368421052631,-600 L2601.368421052631,-550 L2593.894736842105,-550 L2593.894736842105,-600 Z" fill="black" />
<path d="M2601.368421052631,-600 L2608.8421052631575,-600 L2608.8421052631575,-550 L2601.368421052631,-550 L2601.368421052631,-600 Z" fill="#f0f0f0" />
<path d="M2608.8421052631575,-600 L2616.3157894736837,-600 L2616.3157894736837,-550 L2608.8421052631575,-550 L2608.8421052631575,-600 Z" fill="black" />
<path d="M2616.3157894736837,-600 L2623.78947368421,-600 L2623.78947368421,-550 L2616.3157894736837,-550 L2616.3157894736837,-600 Z" fill="#f0f0f0" />
<path d="M2623.78947368421,-600 L2631.263157894736,-600 L2631.263157894736,-550 L2623.78947368421,-550 L2623.78947368421,-600 Z" fill="black" />
<path d="M2631.263157894736,-600 L2638.7368421052624,-600 L2638.7368421052624,-550 L2631.263157894736,-550 L2631.263157894736,-600 Z" fill="#f0f0f0" />
<path d="M2638.7368421052624,-600 L2646.2105263157887,-600 L2646.2105263157887,-550 L2638.7368421052624,-550 L2638.7368421052624,-600 Z" fill="black" />
<path d="M2646.2105263157887,-600 L2653.684210526315,-600 L2653.684210526315,-550 L2646.2105263157887,-550 L2646.2105263157887,-600 Z" fill="#f0f0f0" />
<path d="M2653.684210526315,-600 L2661.157894736841,-600 L2661.157894736841,-550 L2653.684210526315,-550 L2653.684210526315,-600 Z" fill="black" />
<path d="M2661.157894736841,-600 L2668.6315789473674,-600 L2668.6315789473674,-550 L2661.157894736841,-550 L2661.157894736841,-600 Z" fill="#f0f0f0" />
<path d="M2668.6315789473674,-600 L2676.1052631578937,-600 L2676.1052631578937,-550 L2668.6315789473674,-550 L2668.6315789473674,-600 Z" fill="black" />
<path d="M2676.1052631578937,-600 L2683.57894736842,-600 L2683.57894736842,-550 L2676.1052631578937,-550 L2676.1052631578937,-600 Z" fill="#f0f0f0" />
<path d="M2683.57894736842,-600 L2691.052631578946,-600 L2691.052631578946,-550 L2683.57894736842,-550 L2683.57894736842,-600 Z" fill="black" />
<path d="M2691.052631578946,-600 L2698.5263157894724,-600 L2698.5263157894724,-550 L2691.052631578946,-550 L2691.052631578946,-600 Z" fill="#f0f0f0" />
<path d="M2698.5263157894724,-600 L2705.9999999999986,-600 L2705.9999999999986,-550 L2698.5263157894724,-550 L2698.5263157894724,-600 Z" fill="black" />
<text x="2564.0" y="-610" font-size="26" fill="black" dy="0em">CRISPR</text>
<path d="M10.2,-400 L193.60000000000002,-400 L193.60000000000002,-350 L10.2,-350 L10.2,-400 Z" fill="white" stroke="white" stroke-width="4" />
<path d="M10.2,-400 L16.992592592592594,-400 L16.992592592592594,-350 L10.2,-350 L10.2,-400 Z" fill="black" />
<path d="M16.992592592592594,-400 L23.785185185185185,-400 L23.785185185185185,-350 L16.992592592592594,-350 L16.992592592592594,-400 Z" fill="#f0f0f0" />
<path d="M23.785185185185185,-400 L30.577777777777776,-400 L30.577777777777776,-350 L23.785185185185185,-350 L23.785185185185185,-400 Z" fill="black" />
<path d="M30.577777777777776,-400 L37.37037037037037,-400 L37.37037037037037,-350 L30.577777777777776,-350 L30.577777777777776,-400 Z" fill="#f0f0f0" />
<path d="M37.37037037037037,-400 L44.16296296296296,-400 L44.16296296296296,-350 L37.37037037037037,-350 L37.37037037037037,-400 Z" fill="black" />
<path d="M44.16296296296296,-400 L50.95555555555555,-400 L50.95555555555555,-350 L44.16296296296296,-350 L44.16296296296296,-400 Z" fill="#f0f0f0" />
<path d="M50.95555555555555,-400 L57.74814814814814,-400 L57.74814814814814,-350 L50.95555555555555,-350 L50.95555555555555,-400 Z" fill="black" />
<path d="M57.74814814814814,-400 L64.54074074074073,-400 L64.54074074074073,-350 L57.74814814814814,-350 L57.74814814814814,-400 Z" fill="#f0f0f0" />
<path d="M64.54074074074073,-400 L71.33333333333333,-400 L71.33333333333333,-350 L64.54074074074073,-350 L64.54074074074073,-400 Z" fill="black" />
<path d="M71.33333333333333,-400 L78.12592592592593,-400 L78.12592592592593,-350 L71.33333333333333,-350 L71.33333333333333,-400 Z" fill="#f0f0f0" />
<path d="M78.12592592592593,-400 L84.91851851851852,-400 L84.91851851851852,-350 L78.12592592592593,-350 L78.12592592592593,-400 Z" fill="black" />
<path d="M84.91851851851852,-400 L91.71111111111112,-400 L91.71111111111112,-350 L84.91851851851852,-350 L84.91851851851852,-400 Z" fill="#f0f0f0" />
<path d="M91.71111111111112,-400 L98.50370370370372,-400 L98.50370370370372,-350 L91.71111111111112,-350 L91.71111111111112,-400 Z" fill="black" />
<path d="M98.50370370370372,-400 L105.29629629629632,-400 L105.29629629629632,-350 L98.50370370370372,-350 L98.50370370370372,-400 Z" fill="#f0f0f0" />
<path d="M105.29629629629632,-400 L112.08888888888892,-400 L112.08888888888892,-350 L105.29629629629632,-350 L105.29629629629632,-400 Z" fill="black" />
<path d="M112.08888888888892,-400 L118.88148148148152,-400 L118.88148148148152,-350 L112.08888888888892,-350 L112.08888888888892,-400 Z" fill="#f0f0f0" />
<path d="M118.88148148148152,-400 L125.67407407407411,-400 L125.67407407407411,-350 L118.88148148148152,-350 L118.88148148148152,-400 Z" fill="black" />
<path d="M125.67407407407411,-400 L132.4666666666667,-400 L132.4666666666667,-350 L125.67407407407411,-350 L125.67407407407411,-400 Z" fill="#f0f0f0" />
<path d="M132.4666666666667,-400 L139.2592592592593,-400 L139.2592592592593,-350 L132.4666666666667,-350 L132.4666666666667,-400 Z" fill="black" />
<path d="M139.2592592592593,-400 L146.0518518518519,-400 L146.0518518518519,-350 L139.2592592592593,-350 L139.2592592592593,-400 Z" fill="#f0f0f0" />
<path d="M146.0518518518519,-400 L152.8444444444445,-400 L152.8444444444445,-350 L146.0518518518519,-350 L146.0518518518519,-400 Z" fill="black" />
<path d="M152.8444444444445,-400 L159.6370370370371,-400 L159.6370370370371,-350 L152.8444444444445,-350 L152.8444444444445,-400 Z" fill="#f0f0f0" />
<path d="M159.6370370370371,-400 L166.4296296296297,-400 L166.4296296296297,-350 L159.6370370370371,-350 L159.6370370370371,-400 Z" fill="black" />
<path d="M166.4296296296297,-400 L173.22222222222229,-400 L173.22222222222229,-350 L166.4296296296297,-350 L166.4296296296297,-400 Z" fill="#f0f0f0" />
<path d="M173.22222222222229,-400 L180.01481481481488,-400 L180.01481481481488,-350 L173.22222222222229,-350 L173.22222222222229,-400 Z" fill="black" />
<path d="M180.01481481481488,-400 L186.80740740740748,-400 L186.80740740740748,-350 L180.01481481481488,-350 L180.01481481481488,-400 Z" fill="#f0f0f0" />
<path d="M186.80740740740748,-400 L193.60000000000008,-400 L193.60000000000008,-350 L186.80740740740748,-350 L186.80740740740748,-400 Z" fill="black" />
<text x="10.2" y="-410" font-size="26" fill="black" dy="0em">CRISPR</text>
<text x="16.0" y="-460" font-size="38" fill="black" dy="0em">Unknown: SHMX01000003_1 (541260-542177)</text>
<path d="M10.2,-200 L618.2,-200 L618.2,-150 L10.2,-150 L10.2,-200 Z" fill="white" stroke="white" stroke-width="4" />
<path d="M10.2,-200 L17.706172839506173,-200 L17.706172839506173,-150 L10.2,-150 L10.2,-200 Z" fill="black" />
<path d="M17.706172839506173,-200 L25.212345679012344,-200 L25.212345679012344,-150 L17.706172839506173,-150 L17.706172839506173,-200 Z" fill="#f0f0f0" />
<path d="M25.212345679012344,-200 L32.718518518518515,-200 L32.718518518518515,-150 L25.212345679012344,-150 L25.212345679012344,-200 Z" fill="black" />
<path d="M32.718518518518515,-200 L40.224691358024685,-200 L40.224691358024685,-150 L32.718518518518515,-150 L32.718518518518515,-200 Z" fill="#f0f0f0" />
<path d="M40.224691358024685,-200 L47.730864197530856,-200 L47.730864197530856,-150 L40.224691358024685,-150 L40.224691358024685,-200 Z" fill="black" />
<path d="M47.730864197530856,-200 L55.23703703703703,-200 L55.23703703703703,-150 L47.730864197530856,-150 L47.730864197530856,-200 Z" fill="#f0f0f0" />
<path d="M55.23703703703703,-200 L62.7432098765432,-200 L62.7432098765432,-150 L55.23703703703703,-150 L55.23703703703703,-200 Z" fill="black" />
<path d="M62.7432098765432,-200 L70.24938271604937,-200 L70.24938271604937,-150 L62.7432098765432,-150 L62.7432098765432,-200 Z" fill="#f0f0f0" />
<path d="M70.24938271604937,-200 L77.75555555555555,-200 L77.75555555555555,-150 L70.24938271604937,-150 L70.24938271604937,-200 Z" fill="black" />
<path d="M77.75555555555555,-200 L85.26172839506172,-200 L85.26172839506172,-150 L77.75555555555555,-150 L77.75555555555555,-200 Z" fill="#f0f0f0" />
<path d="M85.26172839506172,-200 L92.7679012345679,-200 L92.7679012345679,-150 L85.26172839506172,-150 L85.26172839506172,-200 Z" fill="black" />
<path d="M92.7679012345679,-200 L100.27407407407408,-200 L100.27407407407408,-150 L92.7679012345679,-150 L92.7679012345679,-200 Z" fill="#f0f0f0" />
<path d="M100.27407407407408,-200 L107.78024691358026,-200 L107.78024691358026,-150 L100.27407407407408,-150 L100.27407407407408,-200 Z" fill="black" />
<path d="M107.78024691358026,-200 L115.28641975308643,-200 L115.28641975308643,-150 L107.78024691358026,-150 L107.78024691358026,-200 Z" fill="#f0f0f0" />
<path d="M115.28641975308643,-200 L122.79259259259261,-200 L122.79259259259261,-150 L115.28641975308643,-150 L115.28641975308643,-200 Z" fill="black" />
<path d="M122.79259259259261,-200 L130.29876543209878,-200 L130.29876543209878,-150 L122.79259259259261,-150 L122.79259259259261,-200 Z" fill="#f0f0f0" />
<path d="M130.29876543209878,-200 L137.80493827160495,-200 L137.80493827160495,-150 L130.29876543209878,-150 L130.29876543209878,-200 Z" fill="black" />
<path d="M137.80493827160495,-200 L145.31111111111113,-200 L145.31111111111113,-150 L137.80493827160495,-150 L137.80493827160495,-200 Z" fill="#f0f0f0" />
<path d="M145.31111111111113,-200 L152.8172839506173,-200 L152.8172839506173,-150 L145.31111111111113,-150 L145.31111111111113,-200 Z" fill="black" />
<path d="M152.8172839506173,-200 L160.3234567901235,-200 L160.3234567901235,-150 L152.8172839506173,-150 L152.8172839506173,-200 Z" fill="#f0f0f0" />
<path d="M160.3234567901235,-200 L167.82962962962966,-200 L167.82962962962966,-150 L160.3234567901235,-150 L160.3234567901235,-200 Z" fill="black" />
<path d="M167.82962962962966,-200 L175.33580246913584,-200 L175.33580246913584,-150 L167.82962962962966,-150 L167.82962962962966,-200 Z" fill="#f0f0f0" />
<path d="M175.33580246913584,-200 L182.84197530864202,-200 L182.84197530864202,-150 L175.33580246913584,-150 L175.33580246913584,-200 Z" fill="black" />
<path d="M182.84197530864202,-200 L190.3481481481482,-200 L190.3481481481482,-150 L182.84197530864202,-150 L182.84197530864202,-200 Z" fill="#f0f0f0" />
<path d="M190.3481481481482,-200 L197.85432098765438,-200 L197.85432098765438,-150 L190.3481481481482,-150 L190.3481481481482,-200 Z" fill="black" />
<path d="M197.85432098765438,-200 L205.36049382716055,-200 L205.36049382716055,-150 L197.85432098765438,-150 L197.85432098765438,-200 Z" fill="#f0f0f0" />
<path d="M205.36049382716055,-200 L212.86666666666673,-200 L212.86666666666673,-150 L205.36049382716055,-150 L205.36049382716055,-200 Z" fill="black" />
<path d="M212.86666666666673,-200 L220.3728395061729,-200 L220.3728395061729,-150 L212.86666666666673,-150 L212.86666666666673,-200 Z" fill="#f0f0f0" />
<path d="M220.3728395061729,-200 L227.8790123456791,-200 L227.8790123456791,-150 L220.3728395061729,-150 L220.3728395061729,-200 Z" fill="black" />
<path d="M227.8790123456791,-200 L235.38518518518526,-200 L235.38518518518526,-150 L227.8790123456791,-150 L227.8790123456791,-200 Z" fill="#f0f0f0" />
<path d="M235.38518518518526,-200 L242.89135802469144,-200 L242.89135802469144,-150 L235.38518518518526,-150 L235.38518518518526,-200 Z" fill="black" />
<path d="M242.89135802469144,-200 L250.39753086419762,-200 L250.39753086419762,-150 L242.89135802469144,-150 L242.89135802469144,-200 Z" fill="#f0f0f0" />
<path d="M250.39753086419762,-200 L257.9037037037038,-200 L257.9037037037038,-150 L250.39753086419762,-150 L250.39753086419762,-200 Z" fill="black" />
<path d="M257.9037037037038,-200 L265.40987654321,-200 L265.40987654321,-150 L257.9037037037038,-150 L257.9037037037038,-200 Z" fill="#f0f0f0" />
<path d="M265.40987654321,-200 L272.91604938271615,-200 L272.91604938271615,-150 L265.40987654321,-150 L265.40987654321,-200 Z" fill="black" />
<path d="M272.91604938271615,-200 L280.42222222222233,-200 L280.42222222222233,-150 L272.91604938271615,-150 L272.91604938271615,-200 Z" fill="#f0f0f0" />
<path d="M280.42222222222233,-200 L287.9283950617285,-200 L287.9283950617285,-150 L280.42222222222233,-150 L280.42222222222233,-200 Z" fill="black" />
<path d="M287.9283950617285,-200 L295.4345679012347,-200 L295.4345679012347,-150 L287.9283950617285,-150 L287.9283950617285,-200 Z" fill="#f0f0f0" />
<path d="M295.4345679012347,-200 L302.94074074074086,-200 L302.94074074074086,-150 L295.4345679012347,-150 L295.4345679012347,-200 Z" fill="black" />
<path d="M302.94074074074086,-200 L310.44691358024704,-200 L310.44691358024704,-150 L302.94074074074086,-150 L302.94074074074086,-200 Z" fill="#f0f0f0" />
<path d="M310.44691358024704,-200 L317.9530864197532,-200 L317.9530864197532,-150 L310.44691358024704,-150 L310.44691358024704,-200 Z" fill="black" />
<path d="M317.9530864197532,-200 L325.4592592592594,-200 L325.4592592592594,-150 L317.9530864197532,-150 L317.9530864197532,-200 Z" fill="#f0f0f0" />
<path d="M325.4592592592594,-200 L332.9654320987656,-200 L332.9654320987656,-150 L325.4592592592594,-150 L325.4592592592594,-200 Z" fill="black" />
<path d="M332.9654320987656,-200 L340.47160493827175,-200 L340.47160493827175,-150 L332.9654320987656,-150 L332.9654320987656,-200 Z" fill="#f0f0f0" />
<path d="M340.47160493827175,-200 L347.97777777777793,-200 L347.97777777777793,-150 L340.47160493827175,-150 L340.47160493827175,-200 Z" fill="black" />
<path d="M347.97777777777793,-200 L355.4839506172841,-200 L355.4839506172841,-150 L347.97777777777793,-150 L347.97777777777793,-200 Z" fill="#f0f0f0" />
<path d="M355.4839506172841,-200 L362.9901234567903,-200 L362.9901234567903,-150 L355.4839506172841,-150 L355.4839506172841,-200 Z" fill="black" />
<path d="M362.9901234567903,-200 L370.49629629629646,-200 L370.49629629629646,-150 L362.9901234567903,-150 L362.9901234567903,-200 Z" fill="#f0f0f0" />
<path d="M370.49629629629646,-200 L378.00246913580264,-200 L378.00246913580264,-150 L370.49629629629646,-150 L370.49629629629646,-200 Z" fill="black" />
<path d="M378.00246913580264,-200 L385.5086419753088,-200 L385.5086419753088,-150 L378.00246913580264,-150 L378.00246913580264,-200 Z" fill="#f0f0f0" />
<path d="M385.5086419753088,-200 L393.014814814815,-200 L393.014814814815,-150 L385.5086419753088,-150 L385.5086419753088,-200 Z" fill="black" />
<path d="M393.014814814815,-200 L400.5209876543212,-200 L400.5209876543212,-150 L393.014814814815,-150 L393.014814814815,-200 Z" fill="#f0f0f0" />
<path d="M400.5209876543212,-200 L408.02716049382735,-200 L408.02716049382735,-150 L400.5209876543212,-150 L400.5209876543212,-200 Z" fill="black" />
<path d="M408.02716049382735,-200 L415.53333333333353,-200 L415.53333333333353,-150 L408.02716049382735,-150 L408.02716049382735,-200 Z" fill="#f0f0f0" />
<path d="M415.53333333333353,-200 L423.0395061728397,-200 L423.0395061728397,-150 L415.53333333333353,-150 L415.53333333333353,-200 Z" fill="black" />
<path d="M423.0395061728397,-200 L430.5456790123459,-200 L430.5456790123459,-150 L423.0395061728397,-150 L423.0395061728397,-200 Z" fill="#f0f0f0" />
<path d="M430.5456790123459,-200 L438.05185185185206,-200 L438.05185185185206,-150 L430.5456790123459,-150 L430.5456790123459,-200 Z" fill="black" />
<path d="M438.05185185185206,-200 L445.55802469135824,-200 L445.55802469135824,-150 L438.05185185185206,-150 L438.05185185185206,-200 Z" fill="#f0f0f0" />
<path d="M445.55802469135824,-200 L453.0641975308644,-200 L453.0641975308644,-150 L445.55802469135824,-150 L445.55802469135824,-200 Z" fill="black" />
<path d="M453.0641975308644,-200 L460.5703703703706,-200 L460.5703703703706,-150 L453.0641975308644,-150 L453.0641975308644,-200 Z" fill="#f0f0f0" />
<path d="M460.5703703703706,-200 L468.0765432098768,-200 L468.0765432098768,-150 L460.5703703703706,-150 L460.5703703703706,-200 Z" fill="black" />
<path d="M468.0765432098768,-200 L475.58271604938295,-200 L475.58271604938295,-150 L468.0765432098768,-150 L468.0765432098768,-200 Z" fill="#f0f0f0" />
<path d="M475.58271604938295,-200 L483.08888888888913,-200 L483.08888888888913,-150 L475.58271604938295,-150 L475.58271604938295,-200 Z" fill="black" />
<path d="M483.08888888888913,-200 L490.5950617283953,-200 L490.5950617283953,-150 L483.08888888888913,-150 L483.08888888888913,-200 Z" fill="#f0f0f0" />
<path d="M490.5950617283953,-200 L498.1012345679015,-200 L498.1012345679015,-150 L490.5950617283953,-150 L490.5950617283953,-200 Z" fill="black" />
<path d="M498.1012345679015,-200 L505.60740740740766,-200 L505.60740740740766,-150 L498.1012345679015,-150 L498.1012345679015,-200 Z" fill="#f0f0f0" />
<path d="M505.60740740740766,-200 L513.1135802469138,-200 L513.1135802469138,-150 L505.60740740740766,-150 L505.60740740740766,-200 Z" fill="black" />
<path d="M513.1135802469138,-200 L520.6197530864199,-200 L520.6197530864199,-150 L513.1135802469138,-150 L513.1135802469138,-200 Z" fill="#f0f0f0" />
<path d="M520.6197530864199,-200 L528.125925925926,-200 L528.125925925926,-150 L520.6197530864199,-150 L520.6197530864199,-200 Z" fill="black" />
<path d="M528.125925925926,-200 L535.6320987654321,-200 L535.6320987654321,-150 L528.125925925926,-150 L528.125925925926,-200 Z" fill="#f0f0f0" />
<path d="M535.6320987654321,-200 L543.1382716049383,-200 L543.1382716049383,-150 L535.6320987654321,-150 L535.6320987654321,-200 Z" fill="black" />
<path d="M543.1382716049383,-200 L550.6444444444444,-200 L550.6444444444444,-150 L543.1382716049383,-150 L543.1382716049383,-200 Z" fill="#f0f0f0" />
<path d="M550.6444444444444,-200 L558.1506172839505,-200 L558.1506172839505,-150 L550.6444444444444,-150 L550.6444444444444,-200 Z" fill="black" />
<path d="M558.1506172839505,-200 L565.6567901234566,-200 L565.6567901234566,-150 L558.1506172839505,-150 L558.1506172839505,-200 Z" fill="#f0f0f0" />
<path d="M565.6567901234566,-200 L573.1629629629628,-200 L573.1629629629628,-150 L565.6567901234566,-150 L565.6567901234566,-200 Z" fill="black" />
<path d="M573.1629629629628,-200 L580.6691358024689,-200 L580.6691358024689,-150 L573.1629629629628,-150 L573.1629629629628,-200 Z" fill="#f0f0f0" />
<path d="M580.6691358024689,-200 L588.175308641975,-200 L588.175308641975,-150 L580.6691358024689,-150 L580.6691358024689,-200 Z" fill="black" />
<path d="M588.175308641975,-200 L595.6814814814811,-200 L595.6814814814811,-150 L588.175308641975,-150 L588.175308641975,-200 Z" fill="#f0f0f0" />
<path d="M595.6814814814811,-200 L603.1876543209872,-200 L603.1876543209872,-150 L595.6814814814811,-150 L595.6814814814811,-200 Z" fill="black" />
<path d="M603.1876543209872,-200 L610.6938271604934,-200 L610.6938271604934,-150 L603.1876543209872,-150 L603.1876543209872,-200 Z" fill="#f0f0f0" />
<path d="M610.6938271604934,-200 L618.1999999999995,-200 L618.1999999999995,-150 L610.6938271604934,-150 L610.6938271604934,-200 Z" fill="black" />
<text x="10.2" y="-210" font-size="26" fill="black" dy="0em">CRISPR</text>
<text x="16.0" y="-260" font-size="38" fill="black" dy="0em">Unknown: SHMX01000003_2 (545223-548263)</text>
</svg>