<?xml version="1.0" encoding="UTF-8"?>
<svg xmlns="http://www.w3.org/2000/svg" xmlns:xlink="http://www.w3.org/1999/xlink"
     width="2634" height="1800" viewBox="0 -1800 2634 1800">
<defs>
</defs>
<path d="M210,-20 L210,-1720" stroke="grey" stroke-width="1" fill="none" />
<text x="160" y="-1730" font-size="22" fill="grey" dy="0em">1000</text>
<path d="M410,-20 L410,-1720" stroke="grey" stroke-width="1" fill="none" />
<text x="360" y="-1730" font-size="22" fill="grey" dy="0em">2000</text>
<path d="M610,-20 L610,-1720" stroke="grey" stroke-width="1" fill="none" />
<text x="560" y="-1730" font-size="22" fill="grey" dy="0em">3000</text>
<path d="M810,-20 L810,-1720" stroke="grey" stroke-width="1" fill="none" />
<text x="760" y="-1730" font-size="22" fill="grey" dy="0em">4000</text>
<path d="M1010,-20 L1010,-1720" stroke="grey" stroke-width="1" fill="none" />
<text x="960" y="-1730" font-size="22" fill="grey" dy="0em">5000</text>
<path d="M1210,-20 L1210,-1720" stroke="grey" stroke-width="1" fill="none" />
<text x="1160" y="-1730" font-size="22" fill="grey" dy="0em">6000</text>
<path d="M1410,-20 L1410,-1720" stroke="grey" stroke-width="1" fill="none" />
<text x="1360" y="-1730" font-size="22" fill="grey" dy="0em">7000</text>
<path d="M1610,-20 L1610,-1720" stroke="grey" stroke-width="1" fill="none" />
<text x="1560" y="-1730" font-size="22" fill="grey" dy="0em">8000</text>
<path d="M1810,-20 L1810,-1720" stroke="grey" stroke-width="1" fill="none" />
<text x="1760" y="-1730" font-size="22" fill="grey" dy="0em">9000</text>
<path d="M2010,-20 L2010,-1720" stroke="grey" stroke-width="1" fill="none" />
<text x="1960" y="-1730" font-size="22" fill="grey" dy="0em">10000</text>
<path d="M2210,-20 L2210,-1720" stroke="grey" stroke-width="1" fill="none" />
<text x="2160" y="-1730" font-size="22" fill="grey" dy="0em">11000</text>
<path d="M2410,-20 L2410,-1720" stroke="grey" stroke-width="1" fill="none" />
<text x="2360" y="-1730" font-size="22" fill="grey" dy="0em">12000</text>
<path d="M2610,-20 L2610,-1720" stroke="grey" stroke-width="1" fill="none" />
<text x="2560" y="-1730" font-size="22" fill="grey" dy="0em">13000</text>
<text x="16.0" y="-1660" font-size="38" fill="black" dy="0em">III-A: JASGVX010000079@1 (417-13088)</text>
<path d="M40.2,-1600 L286.0,-1600 L286.0,-1550 L40.2,-1550 L10.2,-1575.0 L40.2,-1600 Z" fill="#ff80e6" fill-opacity="0.8" stroke="#ff80e6" stroke-width="4" />
<text x="10.2" y="-1610" font-size="26" fill="black" dy="0em">Csx1</text>
<path d="M339.40000000000003,-1600 L1000.4000000000001,-1600 L1000.4000000000001,-1550 L339.40000000000003,-1550 L309.40000000000003,-1575.0 L339.40000000000003,-1600 Z" fill="#d3c9c1" fill-opacity="0.8" stroke="#d3c9c1" stroke-width="4" />
<text x="309.40000000000003" y="-1520" font-size="20" fill="black" dy="0em">3</text>
<path d="M1033.4,-1600 L1239.6000000000001,-1600 L1239.6000000000001,-1550 L1033.4,-1550 L1003.4000000000001,-1575.0 L1033.4,-1600 Z" fill="#efc050" fill-opacity="0.8" stroke="#efc050" stroke-width="4" />
<text x="1003.4000000000001" y="-1610" font-size="26" fill="black" dy="0em">Csm5gr7</text>
<path d="M1269.0,-1600 L1441.6000000000001,-1600 L1441.6000000000001,-1550 L1269.0,-1550 L1239.0,-1575.0 L1269.0,-1600 Z" fill="#efc050" fill-opacity="0.8" stroke="#efc050" stroke-width="4" />
<text x="1239.0" y="-1520" font-size="26" fill="black" dy="0em">Csm4gr5</text>
<path d="M1470.2,-1600 L1595.4,-1600 L1595.4,-1550 L1470.2,-1550 L1440.2,-1575.0 L1470.2,-1600 Z" fill="#efc050" fill-opacity="0.8" stroke="#efc050" stroke-width="4" />
<text x="1440.2" y="-1610" font-size="26" fill="black" dy="0em">Csm3gr7</text>
<path d="M1625.6000000000001,-1600 L1695.6000000000001,-1600 L1695.6000000000001,-1550 L1625.6000000000001,-1550 L1595.6000000000001,-1575.0 L1625.6000000000001,-1600 Z" fill="#efc050" fill-opacity="0.8" stroke="#efc050" stroke-width="4" />
<text x="1595.6000000000001" y="-1520" font-size="26" fill="black" dy="0em">Csm2</text>
<path d="M1725.0,-1600 L2190.4,-1600 L2190.4,-1550 L1725.0,-1550 L1695.0,-1575.0 L1725.0,-1600 Z" fill="#efc050" fill-opacity="0.8" stroke="#efc050" stroke-width="4" />
<text x="1695.0" y="-1610" font-size="26" fill="black" dy="0em">Cas10</text>
<path d="M2401.2000000000003,-1600 L2471.2000000000003,-1600 L2501.2000000000003,-1575.0 L2471.2000000000003,-1550 L2401.2000000000003,-1550 L2401.2000000000003,-1600 Z" fill="#d3c9c1" fill-opacity="0.8" stroke="#d3c9c1" stroke-width="4" />
<text x="2401.2000000000003" y="-1520" font-size="20" fill="black" dy="0em">9</text>
<path d="M2214.0,-1600 L2544.4,-1600 L2544.4,-1550 L2214.0,-1550 L2214.0,-1600 Z" fill="white" stroke="white" stroke-width="4" />
<path d="M2214.0,-1600 L2221.342222222222,-1600 L2221.342222222222,-1550 L2214.0,-1550 L2214.0,-1600 Z" fill="black" />
<path d="M2221.342222222222,-1600 L2228.684444444444,-1600 L2228.684444444444,-1550 L2221.342222222222,-1550 L2221.342222222222,-1600 Z" fill="#f0f0f0" />
<path d="M2228.684444444444,-1600 L2236.026666666666,-1600 L2236.026666666666,-1550 L2228.684444444444,-1550 L2228.684444444444,-1600 Z" fill="black" />
<path d="M2236.026666666666,-1600 L2243.3688888888883,-1600 L2243.3688888888883,-1550 L2236.026666666666,-1550 L2236.026666666666,-1600 Z" fill="#f0f0f0" />
<path d="M2243.3688888888883,-1600 L2250.7111111111103,-1600 L2250.7111111111103,-1550 L2243.3688888888883,-1550 L2243.3688888888883,-1600 Z" fill="black" />
<path d="M2250.7111111111103,-1600 L2258.0533333333324,-1600 L2258.0533333333324,-1550 L2250.7111111111103,-1550 L2250.7111111111103,-1600 Z" fill="#f0f0f0" />
<path d="M2258.0533333333324,-1600 L2265.3955555555544,-1600 L2265.3955555555544,-1550 L2258.0533333333324,-1550 L2258.0533333333324,-1600 Z" fill="black" />
<path d="M2265.3955555555544,-1600 L2272.7377777777765,-1600 L2272.7377777777765,-1550 L2265.3955555555544,-1550 L2265.3955555555544,-1600 Z" fill="#f0f0f0" />
<path d="M2272.7377777777765,-1600 L2280.0799999999986,-1600 L2280.0799999999986,-1550 L2272.7377777777765,-1550 L2272.7377777777765,-1600 Z" fill="black" />
<path d="M2280.0799999999986,-1600 L2287.4222222222206,-1600 L2287.4222222222206,-1550 L2280.0799999999986,-1550 L2280.0799999999986,-1600 Z" fill="#f0f0f0" />
<path d="M2287.4222222222206,-1600 L2294.7644444444427,-1600 L2294.7644444444427,-1550 L2287.4222222222206,-1550 L2287.4222222222206,-1600 Z" fill="black" />
<path d="M2294.7644444444427,-1600 L2302.1066666666648,-1600 L2302.1066666666648,-1550 L2294.7644444444427,-1550 L2294.7644444444427,-1600 Z" fill="#f0f0f0" />
<path d="M2302.1066666666648,-1600 L2309.448888888887,-1600 L2309.448888888887,-1550 L2302.1066666666648,-1550 L2302.1066666666648,-1600 Z" fill="black" />
<path d="M2309.448888888887,-1600 L2316.791111111109,-1600 L2316.791111111109,-1550 L2309.448888888887,-1550 L2309.448888888887,-1600 Z" fill="#f0f0f0" />
<path d="M2316.791111111109,-1600 L2324.133333333331,-1600 L2324.133333333331,-1550 L2316.791111111109,-1550 L2316.791111111109,-1600 Z" fill="black" />
<path d="M2324.133333333331,-1600 L2331.475555555553,-1600 L2331.475555555553,-1550 L2324.133333333331,-1550 L2324.133333333331,-1600 Z" fill="#f0f0f0" />
<path d="M2331.475555555553,-1600 L2338.817777777775,-1600 L2338.817777777775,-1550 L2331.475555555553,-1550 L2331.475555555553,-1600 Z" fill="black" />
<path d="M2338.817777777775,-1600 L2346.159999999997,-1600 L2346.159999999997,-1550 L2338.817777777775,-1550 L2338.817777777775,-1600 Z" fill="#f0f0f0" />
<path d="M2346.159999999997,-1600 L2353.502222222219,-1600 L2353.502222222219,-1550 L2346.159999999997,-1550 L2346.159999999997,-1600 Z" fill="black" />
<path d="M2353.502222222219,-1600 L2360.8444444444413,-1600 L2360.8444444444413,-1550 L2353.502222222219,-1550 L2353.502222222219,-1600 Z" fill="#f0f0f0" />
<path d="M2360.8444444444413,-1600 L2368.1866666666633,-1600 L2368.1866666666633,-1550 L2360.8444444444413,-1550 L2360.8444444444413,-1600 Z" fill="black" />
<path d="M2368.1866666666633,-1600 L2375.5288888888854,-1600 L2375.5288888888854,-1550 L2368.1866666666633,-1550 L2368.1866666666633,-1600 Z" fill="#f0f0f0" />
<path d="M2375.5288888888854,-1600 L2382.8711111111074,-1600 L2382.8711111111074,-1550 L2375.5288888888854,-1550 L2375.5288888888854,-1600 Z" fill="black" />
<path d="M2382.8711111111074,-1600 L2390.2133333333295,-1600 L2390.2133333333295,-1550 L2382.8711111111074,-1550 L2382.8711111111074,-1600 Z" fill="#f0f0f0" />
<path d="M2390.2133333333295,-1600 L2397.5555555555516,-1600 L2397.5555555555516,-1550 L2390.2133333333295,-1550 L2390.2133333333295,-1600 Z" fill="black" />
<path d="M2397.5555555555516,-1600 L2404.8977777777736,-1600 L2404.8977777777736,-1550 L2397.5555555555516,-1550 L2397.5555555555516,-1600 Z" fill="#f0f0f0" />
<path d="M2404.8977777777736,-1600 L2412.2399999999957,-1600 L2412.2399999999957,-1550 L2404.8977777777736,-1550 L2404.8977777777736,-1600 Z" fill="black" />
<path d="M2412.2399999999957,-1600 L2419.5822222222178,-1600 L2419.5822222222178,-1550 L2412.2399999999957,-1550 L2412.2399999999957,-1600 Z" fill="#f0f0f0" />
<path d="M2419.5822222222178,-1600 L2426.92444444444,-1600 L2426.92444444444,-1550 L2419.5822222222178,-1550 L2419.5822222222178,-1600 Z" fill="black" />
<path d="M2426.92444444444,-1600 L2434.266666666662,-1600 L2434.266666666662,-1550 L2426.92444444444,-1550 L2426.92444444444,-1600 Z" fill="#f0f0f0" />
<path d="M2434.266666666662,-1600 L2441.608888888884,-1600 L2441.608888888884,-1550 L2434.266666666662,-1550 L2434.266666666662,-1600 Z" fill="black" />
<path d="M2441.608888888884,-1600 L2448.951111111106,-1600 L2448.951111111106,-1550 L2441.608888888884,-1550 L2441.608888888884,-1600 Z" fill="#f0f0f0" />
<path d="M2448.951111111106,-1600 L2456.293333333328,-1600 L2456.293333333328,-1550 L2448.951111111106,-1550 L2448.951111111106,-1600 Z" fill="black" />
<path d="M2456.293333333328,-1600 L2463.63555555555,-1600 L2463.63555555555,-1550 L2456.293333333328,-1550 L2456.293333333328,-1600 Z" fill="#f0f0f0" />
<path d="M2463.63555555555,-1600 L2470.977777777772,-1600 L2470.977777777772,-1550 L2463.63555555555,-1550 L2463.63555555555,-1600 Z" fill="black" />
<path d="M2470.977777777772,-1600 L2478.3199999999943,-1600 L2478.3199999999943,-1550 L2470.977777777772,-1550 L2470.977777777772,-1600 Z" fill="#f0f0f0" />
<path d="M2478.3199999999943,-1600 L2485.6622222222163,-1600 L2485.6622222222163,-1550 L2478.3199999999943,-1550 L2478.3199999999943,-1600 Z" fill="black" />
<path d="M2485.6622222222163,-1600 L2493.0044444444384,-1600 L2493.0044444444384,-1550 L2485.6622222222163,-1550 L2485.6622222222163,-1600 Z" fill="#f0f0f0" />
<path d="M2493.0044444444384,-1600 L2500.3466666666604,-1600 L2500.3466666666604,-1550 L2493.0044444444384,-1550 L2493.0044444444384,-1600 Z" fill="black" />
<path d="M2500.3466666666604,-1600 L2507.6888888888825,-1600 L2507.6888888888825,-1550 L2500.3466666666604,-1550 L2500.3466666666604,-1600 Z" fill="#f0f0f0" />
<path d="M2507.6888888888825,-1600 L2515.0311111111046,-1600 L2515.0311111111046,-1550 L2507.6888888888825,-1550 L2507.6888888888825,-1600 Z" fill="black" />
<path d="M2515.0311111111046,-1600 L2522.3733333333266,-1600 L2522.3733333333266,-1550 L2515.0311111111046,-1550 L2515.0311111111046,-1600 Z" fill="#f0f0f0" />
<path d="M2522.3733333333266,-1600 L2529.7155555555487,-1600 L2529.7155555555487,-1550 L2522.3733333333266,-1550 L2522.3733333333266,-1600 Z" fill="black" />
<path d="M2529.7155555555487,-1600 L2537.0577777777708,-1600 L2537.0577777777708,-1550 L2529.7155555555487,-1550 L2529.7155555555487,-1600 Z" fill="#f0f0f0" />
<path d="M2537.0577777777708,-1600 L2544.399999999993,-1600 L2544.399999999993,-1550 L2537.0577777777708,-1550 L2537.0577777777708,-1600 Z" fill="black" />
<text x="2214.0" y="-1610" font-size="26" fill="black" dy="0em">CRISPR</text>
<path d="M10.2,-1400 L107.0,-1400 L107.0,-1350 L10.2,-1350 L10.2,-1400 Z" fill="white" stroke="white" stroke-width="4" />
<path d="M10.2,-1400 L17.646153846153844,-1400 L17.646153846153844,-1350 L10.2,-1350 L10.2,-1400 Z" fill="black" />
<path d="M17.646153846153844,-1400 L25.092307692307692,-1400 L25.092307692307692,-1350 L17.646153846153844,-1350 L17.646153846153844,-1400 Z" fill="#f0f0f0" />
<path d="M25.092307692307692,-1400 L32.53846153846154,-1400 L32.53846153846154,-1350 L25.092307692307692,-1350 L25.092307692307692,-1400 Z" fill="black" />
<path d="M32.53846153846154,-1400 L39.98461538461539,-1400 L39.98461538461539,-1350 L32.53846153846154,-1350 L32.53846153846154,-1400 Z" fill="#f0f0f0" />
<path d="M39.98461538461539,-1400 L47.430769230769236,-1400 L47.430769230769236,-1350 L39.98461538461539,-1350 L39.98461538461539,-1400 Z" fill="black" />
<path d="M47.430769230769236,-1400 L54.876923076923084,-1400 L54.876923076923084,-1350 L47.430769230769236,-1350 L47.430769230769236,-1400 Z" fill="#f0f0f0" />
<path d="M54.876923076923084,-1400 L62.32307692307693,-1400 L62.32307692307693,-1350 L54.876923076923084,-1350 L54.876923076923084,-1400 Z" fill="black" />
<path d="M62.32307692307693,-1400 L69.76923076923077,-1400 L69.76923076923077,-1350 L62.32307692307693,-1350 L62.32307692307693,-1400 Z" fill="#f0f0f0" />
<path d="M69.76923076923077,-1400 L77.21538461538462,-1400 L77.21538461538462,-1350 L69.76923076923077,-1350 L69.76923076923077,-1400 Z" fill="black" />
<path d="M77.21538461538462,-1400 L84.66153846153847,-1400 L84.66153846153847,-1350 L77.21538461538462,-1350 L77.21538461538462,-1400 Z" fill="#f0f0f0" />
<path d="M84.66153846153847,-1400 L92.10769230769232,-1400 L92.10769230769232,-1350 L84.66153846153847,-1350 L84.66153846153847,-1400 Z" fill="black" />
<path d="M92.10769230769232,-1400 L99.55384615384617,-1400 L99.55384615384617,-1350 L92.10769230769232,-1350 L92.10769230769232,-1400 Z" fill="#f0f0f0" />
<path d="M99.55384615384617,-1400 L107.00000000000001,-1400 L107.00000000000001,-1350 L99.55384615384617,-1350 L99.55384615384617,-1400 Z" fill="black" />
<text x="10.2" y="-1410" font-size="26" fill="black" dy="0em">CRISPR: I-D</text>
<text x="16.0" y="-1460" font-size="38" fill="black" dy="0em">I-D: JASGVX010000061_1 (31423-31907)</text>
<path d="M10.2,-1200 L202.20000000000002,-1200 L202.20000000000002,-1150 L10.2,-1150 L10.2,-1200 Z" fill="white" stroke="white" stroke-width="4" />
<path d="M10.2,-1200 L17.88,-1200 L17.88,-1150 L10.2,-1150 L10.2,-1200 Z" fill="black" />
<path d="M17.88,-1200 L25.56,-1200 L25.56,-1150 L17.88,-1150 L17.88,-1200 Z" fill="#f0f0f0" />
<path d="M25.56,-1200 L33.239999999999995,-1200 L33.239999999999995,-1150 L25.56,-1150 L25.56,-1200 Z" fill="black" />
<path d="M33.239999999999995,-1200 L40.919999999999995,-1200 L40.919999999999995,-1150 L33.239999999999995,-1150 L33.239999999999995,-1200 Z" fill="#f0f0f0" />
<path d="M40.919999999999995,-1200 L48.599999999999994,-1200 L48.599999999999994,-1150 L40.919999999999995,-1150 L40.919999999999995,-1200 Z" fill="black" />
<path d="M48.599999999999994,-1200 L56.279999999999994,-1200 L56.279999999999994,-1150 L48.599999999999994,-1150 L48.599999999999994,-1200 Z" fill="#f0f0f0" />
<path d="M56.279999999999994,-1200 L63.959999999999994,-1200 L63.959999999999994,-1150 L56.279999999999994,-1150 L56.279999999999994,-1200 Z" fill="black" />
<path d="M63.959999999999994,-1200 L71.63999999999999,-1200 L71.63999999999999,-1150 L63.959999999999994,-1150 L63.959999999999994,-1200 Z" fill="#f0f0f0" />
<path d="M71.63999999999999,-1200 L79.32,-1200 L79.32,-1150 L71.63999999999999,-1150 L71.63999999999999,-1200 Z" fill="black" />
<path d="M79.32,-1200 L87.0,-1200 L87.0,-1150 L79.32,-1150 L79.32,-1200 Z" fill="#f0f0f0" />
<path d="M87.0,-1200 L94.68,-1200 L94.68,-1150 L87.0,-1150 L87.0,-1200 Z" fill="black" />
<path d="M94.68,-1200 L102.36000000000001,-1200 L102.36000000000001,-1150 L94.68,-1150 L94.68,-1200 Z" fill="#f0f0f0" />
<path d="M102.36000000000001,-1200 L110.04000000000002,-1200 L110.04000000000002,-1150 L102.36000000000001,-1150 L102.36000000000001,-1200 Z" fill="black" />
<path d="M110.04000000000002,-1200 L117.72000000000003,-1200 L117.72000000000003,-1150 L110.04000000000002,-1150 L110.04000000000002,-1200 Z" fill="#f0f0f0" />
<path d="M117.72000000000003,-1200 L125.40000000000003,-1200 L125.40000000000003,-1150 L117.72000000000003,-1150 L117.72000000000003,-1200 Z" fill="black" />
<path d="M125.40000000000003,-1200 L133.08000000000004,-1200 L133.08000000000004,-1150 L125.40000000000003,-1150 L125.40000000000003,-1200 Z" fill="#f0f0f0" />
<path d="M133.08000000000004,-1200 L140.76000000000005,-1200 L140.76000000000005,-1150 L133.08000000000004,-1150 L133.08000000000004,-1200 Z" fill="black" />
<path d="M140.76000000000005,-1200 L148.44000000000005,-1200 L148.44000000000005,-1150 L140.76000000000005,-1150 L140.76000000000005,-1200 Z" fill="#f0f0f0" />
<path d="M148.44000000000005,-1200 L156.12000000000006,-1200 L156.12000000000006,-1150 L148.44000000000005,-1150 L148.44000000000005,-1200 Z" fill="black" />
<path d="M156.12000000000006,-1200 L163.80000000000007,-1200 L163.80000000000007,-1150 L156.12000000000006,-1150 L156.12000000000006,-1200 Z" fill="#f0f0f0" />
<path d="M163.80000000000007,-1200 L171.48000000000008,-1200 L171.48000000000008,-1150 L163.80000000000007,-1150 L163.80000000000007,-1200 Z" fill="black" />
<path d="M171.48000000000008,-1200 L179.16000000000008,-1200 L179.16000000000008,-1150 L171.48000000000008,-1150 L171.48000000000008,-1200 Z" fill="#f0f0f0" />
<path d="M179.16000000000008,-1200 L186.8400000000001,-1200 L186.8400000000001,-1150 L179.16000000000008,-1150 L179.16000000000008,-1200 Z" fill="black" />
<path d="M186.8400000000001,-1200 L194.5200000000001,-1200 L194.5200000000001,-1150 L186.8400000000001,-1150 L186.8400000000001,-1200 Z" fill="#f0f0f0" />
<path d="M194.5200000000001,-1200 L202.2000000000001,-1200 L202.2000000000001,-1150 L194.5200000000001,-1150 L194.5200000000001,-1200 Z" fill="black" />
<text x="10.2" y="-1210" font-size="26" fill="black" dy="0em">CRISPR: I-D</text>
<text x="16.0" y="-1260" font-size="38" fill="black" dy="0em">I-D: JASGVX010000061_2 (31425-32385)</text>
<path d="M10.2,-1000 L236.60000000000002,-1000 L236.60000000000002,-950 L10.2,-950 L10.2,-1000 Z" fill="white" stroke="white" stroke-width="4" />
<path d="M10.2,-1000 L17.503225806451614,-1000 L17.503225806451614,-950 L10.2,-950 L10.2,-1000 Z" fill="black" />
<path d="M17.503225806451614,-1000 L24.806451612903228,-1000 L24.806451612903228,-950 L17.503225806451614,-950 L17.503225806451614,-1000 Z" fill="#f0f0f0" />
<path d="M24.806451612903228,-1000 L32.10967741935484,-1000 L32.10967741935484,-950 L24.806451612903228,-950 L24.806451612903228,-1000 Z" fill="black" />
<path d="M32.10967741935484,-1000 L39.41290322580645,-1000 L39.41290322580645,-950 L32.10967741935484,-950 L32.10967741935484,-1000 Z" fill="#f0f0f0" />
<path d="M39.41290322580645,-1000 L46.71612903225807,-1000 L46.71612903225807,-950 L39.41290322580645,-950 L39.41290322580645,-1000 Z" fill="black" />
<path d="M46.71612903225807,-1000 L54.01935483870968,-1000 L54.01935483870968,-950 L46.71612903225807,-950 L46.71612903225807,-1000 Z" fill="#f0f0f0" />
<path d="M54.01935483870968,-1000 L61.322580645161295,-1000 L61.322580645161295,-950 L54.01935483870968,-950 L54.01935483870968,-1000 Z" fill="black" />
<path d="M61.322580645161295,-1000 L68.6258064516129,-1000 L68.6258064516129,-950 L61.322580645161295,-950 L61.322580645161295,-1000 Z" fill="#f0f0f0" />
<path d="M68.6258064516129,-1000 L75.92903225806451,-1000 L75.92903225806451,-950 L68.6258064516129,-950 L68.6258064516129,-1000 Z" fill="black" />
<path d="M75.92903225806451,-1000 L83.23225806451612,-1000 L83.23225806451612,-950 L75.92903225806451,-950 L75.92903225806451,-1000 Z" fill="#f0f0f0" />
<path d="M83.23225806451612,-1000 L90.53548387096772,-1000 L90.53548387096772,-950 L83.23225806451612,-950 L83.23225806451612,-1000 Z" fill="black" />
<path d="M90.53548387096772,-1000 L97.83870967741933,-1000 L97.83870967741933,-950 L90.53548387096772,-950 L90.53548387096772,-1000 Z" fill="#f0f0f0" />
<path d="M97.83870967741933,-1000 L105.14193548387094,-1000 L105.14193548387094,-950 L97.83870967741933,-950 L97.83870967741933,-1000 Z" fill="black" />
<path d="M105.14193548387094,-1000 L112.44516129032255,-1000 L112.44516129032255,-950 L105.14193548387094,-950 L105.14193548387094,-1000 Z" fill="#f0f0f0" />
<path d="M112.44516129032255,-1000 L119.74838709677415,-1000 L119.74838709677415,-950 L112.44516129032255,-950 L112.44516129032255,-1000 Z" fill="black" />
<path d="M119.74838709677415,-1000 L127.05161290322576,-1000 L127.05161290322576,-950 L119.74838709677415,-950 L119.74838709677415,-1000 Z" fill="#f0f0f0" />
<path d="M127.05161290322576,-1000 L134.35483870967738,-1000 L134.35483870967738,-950 L127.05161290322576,-950 L127.05161290322576,-1000 Z" fill="black" />
<path d="M134.35483870967738,-1000 L141.658064516129,-1000 L141.658064516129,-950 L134.35483870967738,-950 L134.35483870967738,-1000 Z" fill="#f0f0f0" />
<path d="M141.658064516129,-1000 L148.96129032258062,-1000 L148.96129032258062,-950 L141.658064516129,-950 L141.658064516129,-1000 Z" fill="black" />
<path d="M148.96129032258062,-1000 L156.26451612903224,-1000 L156.26451612903224,-950 L148.96129032258062,-950 L148.96129032258062,-1000 Z" fill="#f0f0f0" />
<path d="M156.26451612903224,-1000 L163.56774193548387,-1000 L163.56774193548387,-950 L156.26451612903224,-950 L156.26451612903224,-1000 Z" fill="black" />
<path d="M163.56774193548387,-1000 L170.8709677419355,-1000 L170.8709677419355,-950 L163.56774193548387,-950 L163.56774193548387,-1000 Z" fill="#f0f0f0" />
<path d="M170.8709677419355,-1000 L178.1741935483871,-1000 L178.1741935483871,-950 L170.8709677419355,-950 L170.8709677419355,-1000 Z" fill="black" />
<path d="M178.1741935483871,-1000 L185.47741935483873,-1000 L185.47741935483873,-950 L178.1741935483871,-950 L178.1741935483871,-1000 Z" fill="#f0f0f0" />
<path d="M185.47741935483873,-1000 L192.78064516129035,-1000 L192.78064516129035,-950 L185.47741935483873,-950 L185.47741935483873,-1000 Z" fill="black" />
<path d="M192.78064516129035,-1000 L200.08387096774197,-1000 L200.08387096774197,-950 L192.78064516129035,-950 L192.78064516129035,-1000 Z" fill="#f0f0f0" />
<path d="M200.08387096774197,-1000 L207.3870967741936,-1000 L207.3870967741936,-950 L200.08387096774197,-950 L200.08387096774197,-1000 Z" fill="black" />
<path d="M207.3870967741936,-1000 L214.69032258064522,-1000 L214.69032258064522,-950 L207.3870967741936,-950 L207.3870967741936,-1000 Z" fill="#f0f0f0" />
<path d="M214.69032258064522,-1000 L221.99354838709684,-1000 L221.99354838709684,-950 L214.69032258064522,-950 L214.69032258064522,-1000 Z" fill="black" />
<path d="M221.99354838709684,-1000 L229.29677419354846,-1000 L229.29677419354846,-950 L221.99354838709684,-950 L221.99354838709684,-1000 Z" fill="#f0f0f0" />
<path d="M229.29677419354846,-1000 L236.60000000000008,-1000 L236.60000000000008,-950 L229.29677419354846,-950 L229.29677419354846,-1000 Z" fill="black" />
<text x="10.2" y="-1010" font-size="26" fill="black" dy="0em">CRISPR</text>
<text x="16.0" y="-1060" font-size="38" fill="black" dy="0em">Unknown: JASGVX010000082_4 (7224-8356)</text>
<path d="M10.2,-800 L190.60000000000002,-800 L190.60000000000002,-750 L10.2,-750 L10.2,-800 Z" fill="white" stroke="white" stroke-width="4" />
<path d="M10.2,-800 L17.416,-800 L17.416,-750 L10.2,-750 L10.2,-800 Z" fill="black" />
<path d="M17.416,-800 L24.632,-800 L24.632,-750 L17.416,-750 L17.416,-800 Z" fill="#f0f0f0" />
<path d="M24.632,-800 L31.848000000000003,-800 L31.848000000000003,-750 L24.632,-750 L24.632,-800 Z" fill="black" />
<path d="M31.848000000000003,-800 L39.064,-800 L39.064,-750 L31.848000000000003,-750 L31.848000000000003,-800 Z" fill="#f0f0f0" />
<path d="M39.064,-800 L46.28,-800 L46.28,-750 L39.064,-750 L39.064,-800 Z" fill="black" />
<path d="M46.28,-800 L53.496,-800 L53.496,-750 L46.28,-750 L46.28,-800 Z" fill="#f0f0f0" />
<path d="M53.496,-800 L60.712,-800 L60.712,-750 L53.496,-750 L53.496,-800 Z" fill="black" />
<path d="M60.712,-800 L67.928,-800 L67.928,-750 L60.712,-750 L60.712,-800 Z" fill="#f0f0f0" />
<path d="M67.928,-800 L75.14399999999999,-800 L75.14399999999999,-750 L67.928,-750 L67.928,-800 Z" fill="black" />
<path d="M75.14399999999999,-800 L82.35999999999999,-800 L82.35999999999999,-750 L75.14399999999999,-750 L75.14399999999999,-800 Z" fill="#f0f0f0" />
<path d="M82.35999999999999,-800 L89.57599999999998,-800 L89.57599999999998,-750 L82.35999999999999,-750 L82.35999999999999,-800 Z" fill="black" />
<path d="M89.57599999999998,-800 L96.79199999999997,-800 L96.79199999999997,-750 L89.57599999999998,-750 L89.57599999999998,-800 Z" fill="#f0f0f0" />
<path d="M96.79199999999997,-800 L104.00799999999997,-800 L104.00799999999997,-750 L96.79199999999997,-750 L96.79199999999997,-800 Z" fill="black" />
<path d="M104.00799999999997,-800 L111.22399999999996,-800 L111.22399999999996,-750 L104.00799999999997,-750 L104.00799999999997,-800 Z" fill="#f0f0f0" />
<path d="M111.22399999999996,-800 L118.43999999999996,-800 L118.43999999999996,-750 L111.22399999999996,-750 L111.22399999999996,-800 Z" fill="black" />
<path d="M118.43999999999996,-800 L125.65599999999995,-800 L125.65599999999995,-750 L118.43999999999996,-750 L118.43999999999996,-800 Z" fill="#f0f0f0" />
<path d="M125.65599999999995,-800 L132.87199999999996,-800 L132.87199999999996,-750 L125.65599999999995,-750 L125.65599999999995,-800 Z" fill="black" />
<path d="M132.87199999999996,-800 L140.08799999999997,-800 L140.08799999999997,-750 L132.87199999999996,-750 L132.87199999999996,-800 Z" fill="#f0f0f0" />
<path d="M140.08799999999997,-800 L147.30399999999997,-800 L147.30399999999997,-750 L140.08799999999997,-750 L140.08799999999997,-800 Z" fill="black" />
<path d="M147.30399999999997,-800 L154.51999999999998,-800 L154.51999999999998,-750 L147.30399999999997,-750 L147.30399999999997,-800 Z" fill="#f0f0f0" />
<path d="M154.51999999999998,-800 L161.736,-800 L161.736,-750 L154.51999999999998,-750 L154.51999999999998,-800 Z" fill="black" />
<path d="M161.736,-800 L168.952,-800 L168.952,-750 L161.736,-750 L161.736,-800 Z" fill="#f0f0f0" />
<path d="M168.952,-800 L176.168,-800 L176.168,-750 L168.952,-750 L168.952,-800 Z" fill="black" />
<path d="M176.168,-800 L183.38400000000001,-800 L183.38400000000001,-750 L176.168,-750 L176.168,-800 Z" fill="#f0f0f0" />
<path d="M183.38400000000001,-800 L190.60000000000002,-800 L190.60000000000002,-750 L183.38400000000001,-750 L183.38400000000001,-800 Z" fill="black" />
<text x="10.2" y="-810" font-size="26" fill="black" dy="0em">CRISPR</text>
<text x="16.0" y="-860" font-size="38" fill="black" dy="0em">Unknown: JASGVX010000096_5 (11455-12357)</text>
<path d="M10.2,-600 L629.6,-600 L629.6,-550 L10.2,-550 L10.2,-600 Z" fill="white" stroke="white" stroke-width="4" />
<path d="M10.2,-600 L17.48705882352941,-600 L17.48705882352941,-550 L10.2,-550 L10.2,-600 Z" fill="black" />
<path d="M17.48705882352941,-600 L24.774117647058823,-600 L24.774117647058823,-550 L17.48705882352941,-550 L17.48705882352941,-600 Z" fill="#f0f0f0" />
<path d="M24.774117647058823,-600 L32.06117647058824,-600 L32.06117647058824,-550 L24.774117647058823,-550 L24.774117647058823,-600 Z" fill="black" />
<path d="M32.06117647058824,-600 L39.34823529411765,-600 L39.34823529411765,-550 L32.06117647058824,-550 L32.06117647058824,-600 Z" fill="#f0f0f0" />
<path d="M39.34823529411765,-600 L46.635294117647064,-600 L46.635294117647064,-550 L39.34823529411765,-550 L39.34823529411765,-600 Z" fill="black" />
<path d="M46.635294117647064,-600 L53.92235294117648,-600 L53.92235294117648,-550 L46.635294117647064,-550 L46.635294117647064,-600 Z" fill="#f0f0f0" />
<path d="M53.92235294117648,-600 L61.20941176470589,-600 L61.20941176470589,-550 L53.92235294117648,-550 L53.92235294117648,-600 Z" fill="black" />
<path d="M61.20941176470589,-600 L68.4964705882353,-600 L68.4964705882353,-550 L61.20941176470589,-550 L61.20941176470589,-600 Z" fill="#f0f0f0" />
<path d="M68.4964705882353,-600 L75.7835294117647,-600 L75.7835294117647,-550 L68.4964705882353,-550 L68.4964705882353,-600 Z" fill="black" />
<path d="M75.7835294117647,-600 L83.07058823529411,-600 L83.07058823529411,-550 L75.7835294117647,-550 L75.7835294117647,-600 Z" fill="#f0f0f0" />
<path d="M83.07058823529411,-600 L90.35764705882352,-600 L90.35764705882352,-550 L83.07058823529411,-550 L83.07058823529411,-600 Z" fill="black" />
<path d="M90.35764705882352,-600 L97.64470588235292,-600 L97.64470588235292,-550 L90.35764705882352,-550 L90.35764705882352,-600 Z" fill="#f0f0f0" />
<path d="M97.64470588235292,-600 L104.93176470588233,-600 L104.93176470588233,-550 L97.64470588235292,-550 L97.64470588235292,-600 Z" fill="black" />
<path d="M104.93176470588233,-600 L112.21882352941174,-600 L112.21882352941174,-550 L104.93176470588233,-550 L104.93176470588233,-600 Z" fill="#f0f0f0" />
<path d="M112.21882352941174,-600 L119.50588235294114,-600 L119.50588235294114,-550 L112.21882352941174,-550 L112.21882352941174,-600 Z" fill="black" />
<path d="M119.50588235294114,-600 L126.79294117647055,-600 L126.79294117647055,-550 L119.50588235294114,-550 L119.50588235294114,-600 Z" fill="#f0f0f0" />
<path d="M126.79294117647055,-600 L134.07999999999996,-600 L134.07999999999996,-550 L126.79294117647055,-550 L126.79294117647055,-600 Z" fill="black" />
<path d="M134.07999999999996,-600 L141.36705882352936,-600 L141.36705882352936,-550 L134.07999999999996,-550 L134.07999999999996,-600 Z" fill="#f0f0f0" />
<path d="M141.36705882352936,-600 L148.65411764705877,-600 L148.65411764705877,-550 L141.36705882352936,-550 L141.36705882352936,-600 Z" fill="black" />
<path d="M148.65411764705877,-600 L155.94117647058818,-600 L155.94117647058818,-550 L148.65411764705877,-550 L148.65411764705877,-600 Z" fill="#f0f0f0" />
<path d="M155.94117647058818,-600 L163.22823529411758,-600 L163.22823529411758,-550 L155.94117647058818,-550 L155.94117647058818,-600 Z" fill="black" />
<path d="M163.22823529411758,-600 L170.515294117647,-600 L170.515294117647,-550 L163.22823529411758,-550 L163.22823529411758,-600 Z" fill="#f0f0f0" />
<path d="M170.515294117647,-600 L177.8023529411764,-600 L177.8023529411764,-550 L170.515294117647,-550 L170.515294117647,-600 Z" fill="black" />
<path d="M177.8023529411764,-600 L185.0894117647058,-600 L185.0894117647058,-550 L177.8023529411764,-550 L177.8023529411764,-600 Z" fill="#f0f0f0" />
<path d="M185.0894117647058,-600 L192.3764705882352,-600 L192.3764705882352,-550 L185.0894117647058,-550 L185.0894117647058,-600 Z" fill="black" />
<path d="M192.3764705882352,-600 L199.6635294117646,-600 L199.6635294117646,-550 L192.3764705882352,-550 L192.3764705882352,-600 Z" fill="#f0f0f0" />
<path d="M199.6635294117646,-600 L206.95058823529402,-600 L206.95058823529402,-550 L199.6635294117646,-550 L199.6635294117646,-600 Z" fill="black" />
<path d="M206.95058823529402,-600 L214.23764705882343,-600 L214.23764705882343,-550 L206.95058823529402,-550 L206.95058823529402,-600 Z" fill="#f0f0f0" />
<path d="M214.23764705882343,-600 L221.52470588235283,-600 L221.52470588235283,-550 L214.23764705882343,-550 L214.23764705882343,-600 Z" fill="black" />
<path d="M221.52470588235283,-600 L228.81176470588224,-600 L228.81176470588224,-550 L221.52470588235283,-550 L221.52470588235283,-600 Z" fill="#f0f0f0" />
<path d="M228.81176470588224,-600 L236.09882352941165,-600 L236.09882352941165,-550 L228.81176470588224,-550 L228.81176470588224,-600 Z" fill="black" />
<path d="M236.09882352941165,-600 L243.38588235294105,-600 L243.38588235294105,-550 L236.09882352941165,-550 L236.09882352941165,-600 Z" fill="#f0f0f0" />
<path d="M243.38588235294105,-600 L250.67294117647046,-600 L250.67294117647046,-550 L243.38588235294105,-550 L243.38588235294105,-600 Z" fill="black" />
<path d="M250.67294117647046,-600 L257.95999999999987,-600 L257.95999999999987,-550 L250.67294117647046,-550 L250.67294117647046,-600 Z" fill="#f0f0f0" />
<path d="M257.95999999999987,-600 L265.2470588235293,-600 L265.2470588235293,-550 L257.95999999999987,-550 L257.95999999999987,-600 Z" fill="black" />
<path d="M265.2470588235293,-600 L272.53411764705874,-600 L272.53411764705874,-550 L265.2470588235293,-550 L265.2470588235293,-600 Z" fill="#f0f0f0" />
<path d="M272.53411764705874,-600 L279.82117647058817,-600 L279.82117647058817,-550 L272.53411764705874,-550 L272.53411764705874,-600 Z" fill="black" />
<path d="M279.82117647058817,-600 L287.1082352941176,-600 L287.1082352941176,-550 L279.82117647058817,-550 L279.82117647058817,-600 Z" fill="#f0f0f0" />
<path d="M287.1082352941176,-600 L294.39529411764704,-600 L294.39529411764704,-550 L287.1082352941176,-550 L287.1082352941176,-600 Z" fill="black" />
<path d="M294.39529411764704,-600 L301.6823529411765,-600 L301.6823529411765,-550 L294.39529411764704,-550 L294.39529411764704,-600 Z" fill="#f0f0f0" />
<path d="M301.6823529411765,-600 L308.9694117647059,-600 L308.9694117647059,-550 L301.6823529411765,-550 L301.6823529411765,-600 Z" fill="black" />
<path d="M308.9694117647059,-600 L316.25647058823535,-600 L316.25647058823535,-550 L308.9694117647059,-550 L308.9694117647059,-600 Z" fill="#f0f0f0" />
<path d="M316.25647058823535,-600 L323.5435294117648,-600 L323.5435294117648,-550 L316.25647058823535,-550 L316.25647058823535,-600 Z" fill="black" />
<path d="M323.5435294117648,-600 L330.8305882352942,-600 L330.8305882352942,-550 L323.5435294117648,-550 L323.5435294117648,-600 Z" fill="#f0f0f0" />
<path d="M330.8305882352942,-600 L338.11764705882365,-600 L338.11764705882365,-550 L330.8305882352942,-550 L330.8305882352942,-600 Z" fill="black" />
<path d="M338.11764705882365,-600 L345.4047058823531,-600 L345.4047058823531,-550 L338.11764705882365,-550 L338.11764705882365,-600 Z" fill="#f0f0f0" />
<path d="M345.4047058823531,-600 L352.6917647058825,-600 L352.6917647058825,-550 L345.4047058823531,-550 L345.4047058823531,-600 Z" fill="black" />
<path d="M352.6917647058825,-600 L359.97882352941195,-600 L359.97882352941195,-550 L352.6917647058825,-550 L352.6917647058825,-600 Z" fill="#f0f0f0" />
<path d="M359.97882352941195,-600 L367.2658823529414,-600 L367.2658823529414,-550 L359.97882352941195,-550 L359.97882352941195,-600 Z" fill="black" />
<path d="M367.2658823529414,-600 L374.5529411764708,-600 L374.5529411764708,-550 L367.2658823529414,-550 L367.2658823529414,-600 Z" fill="#f0f0f0" />
<path d="M374.5529411764708,-600 L381.84000000000026,-600 L381.84000000000026,-550 L374.5529411764708,-550 L374.5529411764708,-600 Z" fill="black" />
<path d="M381.84000000000026,-600 L389.1270588235297,-600 L389.1270588235297,-550 L381.84000000000026,-550 L381.84000000000026,-600 Z" fill="#f0f0f0" />
<path d="M389.1270588235297,-600 L396.41411764705913,-600 L396.41411764705913,-550 L389.1270588235297,-550 L389.1270588235297,-600 Z" fill="black" />
<path d="M396.41411764705913,-600 L403.70117647058856,-600 L403.70117647058856,-550 L396.41411764705913,-550 L396.41411764705913,-600 Z" fill="#f0f0f0" />
<path d="M403.70117647058856,-600 L410.988235294118,-600 L410.988235294118,-550 L403.70117647058856,-550 L403.70117647058856,-600 Z" fill="black" />
<path d="M410.988235294118,-600 L418.27529411764743,-600 L418.27529411764743,-550 L410.988235294118,-550 L410.988235294118,-600 Z" fill="#f0f0f0" />
<path d="M418.27529411764743,-600 L425.56235294117687,-600 L425.56235294117687,-550 L418.27529411764743,-550 L418.27529411764743,-600 Z" fill="black" />
<path d="M425.56235294117687,-600 L432.8494117647063,-600 L432.8494117647063,-550 L425.56235294117687,-550 L425.56235294117687,-600 Z" fill="#f0f0f0" />
<path d="M432.8494117647063,-600 L440.13647058823574,-600 L440.13647058823574,-550 L432.8494117647063,-550 L432.8494117647063,-600 Z" fill="black" />
<path d="M440.13647058823574,-600 L447.4235294117652,-600 L447.4235294117652,-550 L440.13647058823574,-550 L440.13647058823574,-600 Z" fill="#f0f0f0" />
<path d="M447.4235294117652,-600 L454.7105882352946,-600 L454.7105882352946,-550 L447.4235294117652,-550 L447.4235294117652,-600 Z" fill="black" />
<path d="M454.7105882352946,-600 L461.99764705882404,-600 L461.99764705882404,-550 L454.7105882352946,-550 L454.7105882352946,-600 Z" fill="#f0f0f0" />
<path d="M461.99764705882404,-600 L469.2847058823535,-600 L469.2847058823535,-550 L461.99764705882404,-550 L461.99764705882404,-600 Z" fill="black" />
<path d="M469.2847058823535,-600 L476.5717647058829,-600 L476.5717647058829,-550 L469.2847058823535,-550 L469.2847058823535,-600 Z" fill="#f0f0f0" />
<path d="M476.5717647058829,-600 L483.85882352941235,-600 L483.85882352941235,-550 L476.5717647058829,-550 L476.5717647058829,-600 Z" fill="black" />
<path d="M483.85882352941235,-600 L491.1458823529418,-600 L491.1458823529418,-550 L483.85882352941235,-550 L483.85882352941235,-600 Z" fill="#f0f0f0" />
<path d="M491.1458823529418,-600 L498.4329411764712,-600 L498.4329411764712,-550 L491.1458823529418,-550 L491.1458823529418,-600 Z" fill="black" />
<path d="M498.4329411764712,-600 L505.72000000000065,-600 L505.72000000000065,-550 L498.4329411764712,-550 L498.4329411764712,-600 Z" fill="#f0f0f0" />
<path d="M505.72000000000065,-600 L513.0070588235301,-600 L513.0070588235301,-550 L505.72000000000065,-550 L505.72000000000065,-600 Z" fill="black" />
<path d="M513.0070588235301,-600 L520.2941176470595,-600 L520.2941176470595,-550 L513.0070588235301,-550 L513.0070588235301,-600 Z" fill="#f0f0f0" />
<path d="M520.2941176470595,-600 L527.5811764705888,-600 L527.5811764705888,-550 L520.2941176470595,-550 L520.2941176470595,-600 Z" fill="black" />
<path d="M527.5811764705888,-600 L534.8682352941182,-600 L534.8682352941182,-550 L527.5811764705888,-550 L527.5811764705888,-600 Z" fill="#f0f0f0" />
<path d="M534.8682352941182,-600 L542.1552941176476,-600 L542.1552941176476,-550 L534.8682352941182,-550 L534.8682352941182,-600 Z" fill="black" />
<path d="M542.1552941176476,-600 L549.442352941177,-600 L549.442352941177,-550 L542.1552941176476,-550 L542.1552941176476,-600 Z" fill="#f0f0f0" />
<path d="M549.442352941177,-600 L556.7294117647064,-600 L556.7294117647064,-550 L549.442352941177,-550 L549.442352941177,-600 Z" fill="black" />
<path d="M556.7294117647064,-600 L564.0164705882357,-600 L564.0164705882357,-550 L556.7294117647064,-550 L556.7294117647064,-600 Z" fill="#f0f0f0" />
<path d="M564.0164705882357,-600 L571.3035294117651,-600 L571.3035294117651,-550 L564.0164705882357,-550 L564.0164705882357,-600 Z" fill="black" />
<path d="M571.3035294117651,-600 L578.5905882352945,-600 L578.5905882352945,-550 L571.3035294117651,-550 L571.3035294117651,-600 Z" fill="#f0f0f0" />
<path d="M578.5905882352945,-600 L585.8776470588239,-600 L585.8776470588239,-550 L578.5905882352945,-550 L578.5905882352945,-600 Z" fill="black" />
<path d="M585.8776470588239,-600 L593.1647058823532,-600 L593.1647058823532,-550 L585.8776470588239,-550 L585.8776470588239,-600 Z" fill="#f0f0f0" />
<path d="M593.1647058823532,-600 L600.4517647058826,-600 L600.4517647058826,-550 L593.1647058823532,-550 L593.1647058823532,-600 Z" fill="black" />
<path d="M600.4517647058826,-600 L607.738823529412,-600 L607.738823529412,-550 L600.4517647058826,-550 L600.4517647058826,-600 Z" fill="#f0f0f0" />
<path d="M607.738823529412,-600 L615.0258823529414,-600 L615.0258823529414,-550 L607.738823529412,-550 L607.738823529412,-600 Z" fill="black" />
<path d="M615.0258823529414,-600 L622.3129411764708,-600 L622.3129411764708,-550 L615.0258823529414,-550 L615.0258823529414,-600 Z" fill="#f0f0f0" />
<path d="M622.3129411764708,-600 L629.6000000000001,-600 L629.6000000000001,-550 L622.3129411764708,-550 L622.3129411764708,-600 Z" fill="black" />
<text x="10.2" y="-610" font-size="26" fill="black" dy="0em">CRISPR</text>
<text x="16.0" y="-660" font-size="38" fill="black" dy="0em">Unknown: JASGVX010000112_6 (7917-11014)</text>
<path d="M10.2,-400 L368.40000000000003,-400 L368.40000000000003,-350 L10.2,-350 L10.2,-400 Z" fill="white" stroke="white" stroke-width="4" />
<path d="M10.2,-400 L17.51020408163265,-400 L17.51020408163265,-350 L10.2,-350 L10.2,-400 Z" fill="black" />
<path d="M17.51020408163265,-400 L24.820408163265306,-400 L24.820408163265306,-350 L17.51020408163265,-350 L17.51020408163265,-400 Z" fill="#f0f0f0" />
<path d="M24.820408163265306,-400 L32.13061224489796,-400 L32.13061224489796,-350 L24.820408163265306,-350 L24.820408163265306,-400 Z" fill="black" />
<path d="M32.13061224489796,-400 L39.440816326530616,-400 L39.440816326530616,-350 L32.13061224489796,-350 L32.13061224489796,-400 Z" fill="#f0f0f0" />
<path d="M39.440816326530616,-400 L46.75102040816327,-400 L46.75102040816327,-350 L39.440816326530616,-350 L39.440816326530616,-400 Z" fill="black" />
<path d="M46.75102040816327,-400 L54.061224489795926,-400 L54.061224489795926,-350 L46.75102040816327,-350 L46.75102040816327,-400 Z" fill="#f0f0f0" />
<path d="M54.061224489795926,-400 L61.37142857142858,-400 L61.37142857142858,-350 L54.061224489795926,-350 L54.061224489795926,-400 Z" fill="black" />
<path d="M61.37142857142858,-400 L68.68163265306123,-400 L68.68163265306123,-350 L61.37142857142858,-350 L61.37142857142858,-400 Z" fill="#f0f0f0" />
<path d="M68.68163265306123,-400 L75.99183673469388,-400 L75.99183673469388,-350 L68.68163265306123,-350 L68.68163265306123,-400 Z" fill="black" />
<path d="M75.99183673469388,-400 L83.30204081632652,-400 L83.30204081632652,-350 L75.99183673469388,-350 L75.99183673469388,-400 Z" fill="#f0f0f0" />
<path d="M83.30204081632652,-400 L90.61224489795917,-400 L90.61224489795917,-350 L83.30204081632652,-350 L83.30204081632652,-400 Z" fill="black" />
<path d="M90.61224489795917,-400 L97.92244897959182,-400 L97.92244897959182,-350 L90.61224489795917,-350 L90.61224489795917,-400 Z" fill="#f0f0f0" />
<path d="M97.92244897959182,-400 L105.23265306122447,-400 L105.23265306122447,-350 L97.92244897959182,-350 L97.92244897959182,-400 Z" fill="black" />
<path d="M105.23265306122447,-400 L112.54285714285712,-400 L112.54285714285712,-350 L105.23265306122447,-350 L105.23265306122447,-400 Z" fill="#f0f0f0" />
<path d="M112.54285714285712,-400 L119.85306122448976,-400 L119.85306122448976,-350 L112.54285714285712,-350 L112.54285714285712,-400 Z" fill="black" />
<path d="M119.85306122448976,-400 L127.16326530612241,-400 L127.16326530612241,-350 L119.85306122448976,-350 L119.85306122448976,-400 Z" fill="#f0f0f0" />
<path d="M127.16326530612241,-400 L134.47346938775507,-400 L134.47346938775507,-350 L127.16326530612241,-350 L127.16326530612241,-400 Z" fill="black" />
<path d="M134.47346938775507,-400 L141.78367346938774,-400 L141.78367346938774,-350 L134.47346938775507,-350 L134.47346938775507,-400 Z" fill="#f0f0f0" />
<path d="M141.78367346938774,-400 L149.0938775510204,-400 L149.0938775510204,-350 L141.78367346938774,-350 L141.78367346938774,-400 Z" fill="black" />
<path d="M149.0938775510204,-400 L156.40408163265306,-400 L156.40408163265306,-350 L149.0938775510204,-350 L149.0938775510204,-400 Z" fill="#f0f0f0" />
<path d="M156.40408163265306,-400 L163.71428571428572,-400 L163.71428571428572,-350 L156.40408163265306,-350 L156.40408163265306,-400 Z" fill="black" />
<path d="M163.71428571428572,-400 L171.02448979591838,-400 L171.02448979591838,-350 L163.71428571428572,-350 L163.71428571428572,-400 Z" fill="#f0f0f0" />
<path d="M171.02448979591838,-400 L178.33469387755105,-400 L178.33469387755105,-350 L171.02448979591838,-350 L171.02448979591838,-400 Z" fill="black" />
<path d="M178.33469387755105,-400 L185.6448979591837,-400 L185.6448979591837,-350 L178.33469387755105,-350 L178.33469387755105,-400 Z" fill="#f0f0f0" />
<path d="M185.6448979591837,-400 L192.95510204081637,-400 L192.95510204081637,-350 L185.6448979591837,-350 L185.6448979591837,-400 Z" fill="black" />
<path d="M192.95510204081637,-400 L200.26530612244903,-400 L200.26530612244903,-350 L192.95510204081637,-350 L192.95510204081637,-400 Z" fill="#f0f0f0" />
<path d="M200.26530612244903,-400 L207.5755102040817,-400 L207.5755102040817,-350 L200.26530612244903,-350 L200.26530612244903,-400 Z" fill="black" />
<path d="M207.5755102040817,-400 L214.88571428571436,-400 L214.88571428571436,-350 L207.5755102040817,-350 L207.5755102040817,-400 Z" fill="#f0f0f0" />
<path d="M214.88571428571436,-400 L222.19591836734702,-400 L222.19591836734702,-350 L214.88571428571436,-350 L214.88571428571436,-400 Z" fill="black" />
<path d="M222.19591836734702,-400 L229.50612244897968,-400 L229.50612244897968,-350 L222.19591836734702,-350 L222.19591836734702,-400 Z" fill="#f0f0f0" />
<path d="M229.50612244897968,-400 L236.81632653061234,-400 L236.81632653061234,-350 L229.50612244897968,-350 L229.50612244897968,-400 Z" fill="black" />
<path d="M236.81632653061234,-400 L244.126530612245,-400 L244.126530612245,-350 L236.81632653061234,-350 L236.81632653061234,-400 Z" fill="#f0f0f0" />
<path d="M244.126530612245,-400 L251.43673469387767,-400 L251.43673469387767,-350 L244.126530612245,-350 L244.126530612245,-400 Z" fill="black" />
<path d="M251.43673469387767,-400 L258.74693877551033,-400 L258.74693877551033,-350 L251.43673469387767,-350 L251.43673469387767,-400 Z" fill="#f0f0f0" />
<path d="M258.74693877551033,-400 L266.057142857143,-400 L266.057142857143,-350 L258.74693877551033,-350 L258.74693877551033,-400 Z" fill="black" />
<path d="M266.057142857143,-400 L273.36734693877565,-400 L273.36734693877565,-350 L266.057142857143,-350 L266.057142857143,-400 Z" fill="#f0f0f0" />
<path d="M273.36734693877565,-400 L280.6775510204083,-400 L280.6775510204083,-350 L273.36734693877565,-350 L273.36734693877565,-400 Z" fill="black" />
<path d="M280.6775510204083,-400 L287.987755102041,-400 L287.987755102041,-350 L280.6775510204083,-350 L280.6775510204083,-400 Z" fill="#f0f0f0" />
<path d="M287.987755102041,-400 L295.29795918367364,-400 L295.29795918367364,-350 L287.987755102041,-350 L287.987755102041,-400 Z" fill="black" />
<path d="M295.29795918367364,-400 L302.6081632653063,-400 L302.6081632653063,-350 L295.29795918367364,-350 L295.29795918367364,-400 Z" fill="#f0f0f0" />
<path d="M302.6081632653063,-400 L309.91836734693896,-400 L309.91836734693896,-350 L302.6081632653063,-350 L302.6081632653063,-400 Z" fill="black" />
<path d="M309.91836734693896,-400 L317.2285714285716,-400 L317.2285714285716,-350 L309.91836734693896,-350 L309.91836734693896,-400 Z" fill="#f0f0f0" />
<path d="M317.2285714285716,-400 L324.5387755102043,-400 L324.5387755102043,-350 L317.2285714285716,-350 L317.2285714285716,-400 Z" fill="black" />
<path d="M324.5387755102043,-400 L331.84897959183695,-400 L331.84897959183695,-350 L324.5387755102043,-350 L324.5387755102043,-400 Z" fill="#f0f0f0" />
<path d="M331.84897959183695,-400 L339.1591836734696,-400 L339.1591836734696,-350 L331.84897959183695,-350 L331.84897959183695,-400 Z" fill="black" />
<path d="M339.1591836734696,-400 L346.4693877551023,-400 L346.4693877551023,-350 L339.1591836734696,-350 L339.1591836734696,-400 Z" fill="#f0f0f0" />
<path d="M346.4693877551023,-400 L353.77959183673494,-400 L353.77959183673494,-350 L346.4693877551023,-350 L346.4693877551023,-400 Z" fill="black" />
<path d="M353.77959183673494,-400 L361.0897959183676,-400 L361.0897959183676,-350 L353.77959183673494,-350 L353.77959183673494,-400 Z" fill="#f0f0f0" />
<path d="M361.0897959183676,-400 L368.40000000000026,-400 L368.40000000000026,-350 L361.0897959183676,-350 L361.0897959183676,-400 Z" fill="black" />
<text x="10.2" y="-410" font-size="26" fill="black" dy="0em">CRISPR</text>
<text x="16.0" y="-460" font-size="38" fill="black" dy="0em">Unknown: JASGVX010000143_7 (22811-24602)</text>
<path d="M10.2,-200 L615.0,-200 L615.0,-150 L10.2,-150 L10.2,-200 Z" fill="white" stroke="white" stroke-width="4" />
<path d="M10.2,-200 L17.486746987951804,-200 L17.486746987951804,-150 L10.2,-150 L10.2,-200 Z" fill="black" />
<path d="M17.486746987951804,-200 L24.773493975903612,-200 L24.773493975903612,-150 L17.486746987951804,-150 L17.486746987951804,-200 Z" fill="#f0f0f0" />
<path d="M24.773493975903612,-200 L32.06024096385542,-200 L32.06024096385542,-150 L24.773493975903612,-150 L24.773493975903612,-200 Z" fill="black" />
<path d="M32.06024096385542,-200 L39.34698795180723,-200 L39.34698795180723,-150 L32.06024096385542,-150 L32.06024096385542,-200 Z" fill="#f0f0f0" />
<path d="M39.34698795180723,-200 L46.63373493975904,-200 L46.63373493975904,-150 L39.34698795180723,-150 L39.34698795180723,-200 Z" fill="black" />
<path d="M46.63373493975904,-200 L53.920481927710846,-200 L53.920481927710846,-150 L46.63373493975904,-150 L46.63373493975904,-200 Z" fill="#f0f0f0" />
<path d="M53.920481927710846,-200 L61.207228915662654,-200 L61.207228915662654,-150 L53.920481927710846,-150 L53.920481927710846,-200 Z" fill="black" />
<path d="M61.207228915662654,-200 L68.49397590361446,-200 L68.49397590361446,-150 L61.207228915662654,-150 L61.207228915662654,-200 Z" fill="#f0f0f0" />
<path d="M68.49397590361446,-200 L75.78072289156626,-200 L75.78072289156626,-150 L68.49397590361446,-150 L68.49397590361446,-200 Z" fill="black" />
<path d="M75.78072289156626,-200 L83.06746987951806,-200 L83.06746987951806,-150 L75.78072289156626,-150 L75.78072289156626,-200 Z" fill="#f0f0f0" />
<path d="M83.06746987951806,-200 L90.35421686746986,-200 L90.35421686746986,-150 L83.06746987951806,-150 L83.06746987951806,-200 Z" fill="black" />
<path d="M90.35421686746986,-200 L97.64096385542166,-200 L97.64096385542166,-150 L90.35421686746986,-150 L90.35421686746986,-200 Z" fill="#f0f0f0" />
<path d="M97.64096385542166,-200 L104.92771084337346,-200 L104.92771084337346,-150 L97.64096385542166,-150 L97.64096385542166,-200 Z" fill="black" />
<path d="M104.92771084337346,-200 L112.21445783132526,-200 L112.21445783132526,-150 L104.92771084337346,-150 L104.92771084337346,-200 Z" fill="#f0f0f0" />
<path d="M112.21445783132526,-200 L119.50120481927706,-200 L119.50120481927706,-150 L112.21445783132526,-150 L112.21445783132526,-200 Z" fill="black" />
<path d="M119.50120481927706,-200 L126.78795180722886,-200 L126.78795180722886,-150 L119.50120481927706,-150 L119.50120481927706,-200 Z" fill="#f0f0f0" />
<path d="M126.78795180722886,-200 L134.07469879518067,-200 L134.07469879518067,-150 L126.78795180722886,-150 L126.78795180722886,-200 Z" fill="black" />
<path d="M134.07469879518067,-200 L141.36144578313247,-200 L141.36144578313247,-150 L134.07469879518067,-150 L134.07469879518067,-200 Z" fill="#f0f0f0" />
<path d="M141.36144578313247,-200 L148.64819277108427,-200 L148.64819277108427,-150 L141.36144578313247,-150 L141.36144578313247,-200 Z" fill="black" />
<path d="M148.64819277108427,-200 L155.93493975903607,-200 L155.93493975903607,-150 L148.64819277108427,-150 L148.64819277108427,-200 Z" fill="#f0f0f0" />
<path d="M155.93493975903607,-200 L163.22168674698787,-200 L163.22168674698787,-150 L155.93493975903607,-150 L155.93493975903607,-200 Z" fill="black" />
<path d="M163.22168674698787,-200 L170.50843373493967,-200 L170.50843373493967,-150 L163.22168674698787,-150 L163.22168674698787,-200 Z" fill="#f0f0f0" />
<path d="M170.50843373493967,-200 L177.79518072289147,-200 L177.79518072289147,-150 L170.50843373493967,-150 L170.50843373493967,-200 Z" fill="black" />
<path d="M177.79518072289147,-200 L185.08192771084327,-200 L185.08192771084327,-150 L177.79518072289147,-150 L177.79518072289147,-200 Z" fill="#f0f0f0" />
<path d="M185.08192771084327,-200 L192.36867469879508,-200 L192.36867469879508,-150 L185.08192771084327,-150 L185.08192771084327,-200 Z" fill="black" />
<path d="M192.36867469879508,-200 L199.65542168674688,-200 L199.65542168674688,-150 L192.36867469879508,-150 L192.36867469879508,-200 Z" fill="#f0f0f0" />
<path d="M199.65542168674688,-200 L206.94216867469868,-200 L206.94216867469868,-150 L199.65542168674688,-150 L199.65542168674688,-200 Z" fill="black" />
<path d="M206.94216867469868,-200 L214.22891566265048,-200 L214.22891566265048,-150 L206.94216867469868,-150 L206.94216867469868,-200 Z" fill="#f0f0f0" />
<path d="M214.22891566265048,-200 L221.51566265060228,-200 L221.51566265060228,-150 L214.22891566265048,-150 L214.22891566265048,-200 Z" fill="black" />
<path d="M221.51566265060228,-200 L228.80240963855408,-200 L228.80240963855408,-150 L221.51566265060228,-150 L221.51566265060228,-200 Z" fill="#f0f0f0" />
<path d="M228.80240963855408,-200 L236.08915662650588,-200 L236.08915662650588,-150 L228.80240963855408,-150 L228.80240963855408,-200 Z" fill="black" />
<path d="M236.08915662650588,-200 L243.37590361445768,-200 L243.37590361445768,-150 L236.08915662650588,-150 L236.08915662650588,-200 Z" fill="#f0f0f0" />
<path d="M243.37590361445768,-200 L250.66265060240949,-200 L250.66265060240949,-150 L243.37590361445768,-150 L243.37590361445768,-200 Z" fill="black" />
<path d="M250.66265060240949,-200 L257.9493975903613,-200 L257.9493975903613,-150 L250.66265060240949,-150 L250.66265060240949,-200 Z" fill="#f0f0f0" />
<path d="M257.9493975903613,-200 L265.2361445783131,-200 L265.2361445783131,-150 L257.9493975903613,-150 L257.9493975903613,-200 Z" fill="black" />
<path d="M265.2361445783131,-200 L272.5228915662649,-200 L272.5228915662649,-150 L265.2361445783131,-150 L265.2361445783131,-200 Z" fill="#f0f0f0" />
<path d="M272.5228915662649,-200 L279.8096385542167,-200 L279.8096385542167,-150 L272.5228915662649,-150 L272.5228915662649,-200 Z" fill="black" />
<path d="M279.8096385542167,-200 L287.0963855421685,-200 L287.0963855421685,-150 L279.8096385542167,-150 L279.8096385542167,-200 Z" fill="#f0f0f0" />
<path d="M287.0963855421685,-200 L294.3831325301203,-200 L294.3831325301203,-150 L287.0963855421685,-150 L287.0963855421685,-200 Z" fill="black" />
<path d="M294.3831325301203,-200 L301.6698795180721,-200 L301.6698795180721,-150 L294.3831325301203,-150 L294.3831325301203,-200 Z" fill="#f0f0f0" />
<path d="M301.6698795180721,-200 L308.9566265060239,-200 L308.9566265060239,-150 L301.6698795180721,-150 L301.6698795180721,-200 Z" fill="black" />
<path d="M308.9566265060239,-200 L316.2433734939757,-200 L316.2433734939757,-150 L308.9566265060239,-150 L308.9566265060239,-200 Z" fill="#f0f0f0" />
<path d="M316.2433734939757,-200 L323.5301204819275,-200 L323.5301204819275,-150 L316.2433734939757,-150 L316.2433734939757,-200 Z" fill="black" />
<path d="M323.5301204819275,-200 L330.8168674698793,-200 L330.8168674698793,-150 L323.5301204819275,-150 L323.5301204819275,-200 Z" fill="#f0f0f0" />
<path d="M330.8168674698793,-200 L338.1036144578311,-200 L338.1036144578311,-150 L330.8168674698793,-150 L330.8168674698793,-200 Z" fill="black" />
<path d="M338.1036144578311,-200 L345.3903614457829,-200 L345.3903614457829,-150 L338.1036144578311,-150 L338.1036144578311,-200 Z" fill="#f0f0f0" />
<path d="M345.3903614457829,-200 L352.6771084337347,-200 L352.6771084337347,-150 L345.3903614457829,-150 L345.3903614457829,-200 Z" fill="black" />
<path d="M352.6771084337347,-200 L359.9638554216865,-200 L359.9638554216865,-150 L352.6771084337347,-150 L352.6771084337347,-200 Z" fill="#f0f0f0" />
<path d="M359.9638554216865,-200 L367.2506024096383,-200 L367.2506024096383,-150 L359.9638554216865,-150 L359.9638554216865,-200 Z" fill="black" />
<path d="M367.2506024096383,-200 L374.5373493975901,-200 L374.5373493975901,-150 L367.2506024096383,-150 L367.2506024096383,-200 Z" fill="#f0f0f0" />
<path d="M374.5373493975901,-200 L381.8240963855419,-200 L381.8240963855419,-150 L374.5373493975901,-150 L374.5373493975901,-200 Z" fill="black" />
<path d="M381.8240963855419,-200 L389.1108433734937,-200 L389.1108433734937,-150 L381.8240963855419,-150 L381.8240963855419,-200 Z" fill="#f0f0f0" />
<path d="M389.1108433734937,-200 L396.3975903614455,-200 L396.3975903614455,-150 L389.1108433734937,-150 L389.1108433734937,-200 Z" fill="black" />
<path d="M396.3975903614455,-200 L403.6843373493973,-200 L403.6843373493973,-150 L396.3975903614455,-150 L396.3975903614455,-200 Z" fill="#f0f0f0" />
<path d="M403.6843373493973,-200 L410.9710843373491,-200 L410.9710843373491,-150 L403.6843373493973,-150 L403.6843373493973,-200 Z" fill="black" />
<path d="M410.9710843373491,-200 L418.2578313253009,-200 L418.2578313253009,-150 L410.9710843373491,-150 L410.9710843373491,-200 Z" fill="#f0f0f0" />
<path d="M418.2578313253009,-200 L425.5445783132527,-200 L425.5445783132527,-150 L418.2578313253009,-150 L418.2578313253009,-200 Z" fill="black" />
<path d="M425.5445783132527,-200 L432.8313253012045,-200 L432.8313253012045,-150 L425.5445783132527,-150 L425.5445783132527,-200 Z" fill="#f0f0f0" />
<path d="M432.8313253012045,-200 L440.1180722891563,-200 L440.1180722891563,-150 L432.8313253012045,-150 L432.8313253012045,-200 Z" fill="black" />
<path d="M440.1180722891563,-200 L447.4048192771081,-200 L447.4048192771081,-150 L440.1180722891563,-150 L440.1180722891563,-200 Z" fill="#f0f0f0" />
<path d="M447.4048192771081,-200 L454.6915662650599,-200 L454.6915662650599,-150 L447.4048192771081,-150 L447.4048192771081,-200 Z" fill="black" />
<path d="M454.6915662650599,-200 L461.9783132530117,-200 L461.9783132530117,-150 L454.6915662650599,-150 L454.6915662650599,-200 Z" fill="#f0f0f0" />
<path d="M461.9783132530117,-200 L469.2650602409635,-200 L469.2650602409635,-150 L461.9783132530117,-150 L461.9783132530117,-200 Z" fill="black" />
<path d="M469.2650602409635,-200 L476.5518072289153,-200 L476.5518072289153,-150 L469.2650602409635,-150 L469.2650602409635,-200 Z" fill="#f0f0f0" />
<path d="M476.5518072289153,-200 L483.8385542168671,-200 L483.8385542168671,-150 L476.5518072289153,-150 L476.5518072289153,-200 Z" fill="black" />
<path d="M483.8385542168671,-200 L491.1253012048189,-200 L491.1253012048189,-150 L483.8385542168671,-150 L483.8385542168671,-200 Z" fill="#f0f0f0" />
<path d="M491.1253012048189,-200 L498.4120481927707,-200 L498.4120481927707,-150 L491.1253012048189,-150 L491.1253012048189,-200 Z" fill="black" />
<path d="M498.4120481927707,-200 L505.6987951807225,-200 L505.6987951807225,-150 L498.4120481927707,-150 L498.4120481927707,-200 Z" fill="#f0f0f0" />
<path d="M505.6987951807225,-200 L512.9855421686743,-200 L512.9855421686743,-150 L505.6987951807225,-150 L505.6987951807225,-200 Z" fill="black" />
<path d="M512.9855421686743,-200 L520.2722891566261,-200 L520.2722891566261,-150 L512.9855421686743,-150 L512.9855421686743,-200 Z" fill="#f0f0f0" />
<path d="M520.2722891566261,-200 L527.5590361445779,-200 L527.5590361445779,-150 L520.2722891566261,-150 L520.2722891566261,-200 Z" fill="black" />
<path d="M527.5590361445779,-200 L534.8457831325297,-200 L534.8457831325297,-150 L527.5590361445779,-150 L527.5590361445779,-200 Z" fill="#f0f0f0" />
<path d="M534.8457831325297,-200 L542.1325301204815,-200 L542.1325301204815,-150 L534.8457831325297,-150 L534.8457831325297,-200 Z" fill="black" />
<path d="M542.1325301204815,-200 L549.4192771084333,-200 L549.4192771084333,-150 L542.1325301204815,-150 L542.1325301204815,-200 Z" fill="#f0f0f0" />
<path d="M549.4192771084333,-200 L556.7060240963851,-200 L556.7060240963851,-150 L549.4192771084333,-150 L549.4192771084333,-200 Z" fill="black" />
<path d="M556.7060240963851,-200 L563.9927710843369,-200 L563.9927710843369,-150 L556.7060240963851,-150 L556.7060240963851,-200 Z" fill="#f0f0f0" />
<path d="M563.9927710843369,-200 L571.2795180722887,-200 L571.2795180722887,-150 L563.9927710843369,-150 L563.9927710843369,-200 Z" fill="black" />
<path d="M571.2795180722887,-200 L578.5662650602405,-200 L578.5662650602405,-150 L571.2795180722887,-150 L571.2795180722887,-200 Z" fill="#f0f0f0" />
<path d="M578.5662650602405,-200 L585.8530120481923,-200 L585.8530120481923,-150 L578.5662650602405,-150 L578.5662650602405,-200 Z" fill="black" />
<path d="M585.8530120481923,-200 L593.1397590361441,-200 L593.1397590361441,-150 L585.8530120481923,-150 L585.8530120481923,-200 Z" fill="#f0f0f0" />
<path d="M593.1397590361441,-200 L600.4265060240959,-200 L600.4265060240959,-150 L593.1397590361441,-150 L593.1397590361441,-200 Z" fill="black" />
<path d="M600.4265060240959,-200 L607.7132530120477,-200 L607.7132530120477,-150 L600.4265060240959,-150 L600.4265060240959,-200 Z" fill="#f0f0f0" />
<path d="M607.7132530120477,-200 L614.9999999999995,-200 L614.9999999999995,-150 L607.7132530120477,-150 L607.7132530120477,-200 Z" fill="black" />
<text x="10.2" y="-210" font-size="26" fill="black" dy="0em">CRISPR</text>
<text x="16.0" y="-260" font-size="38" fill="black" dy="0em">Unknown: JASGVX010000112-1_11 (7990-11014)</text>
</svg>