<?xml version="1.0" encoding="UTF-8"?>
<svg xmlns="http://www.w3.org/2000/svg" xmlns:xlink="http://www.w3.org/1999/xlink"
     width="1814" height="1400" viewBox="0 -1400 1814 1400">
<defs>
</defs>
<path d="M210,-20 L210,-1320" stroke="grey" stroke-width="1" fill="none" />
<text x="160" y="-1330" font-size="22" fill="grey" dy="0em">1000</text>
<path d="M410,-20 L410,-1320" stroke="grey" stroke-width="1" fill="none" />
<text x="360" y="-1330" font-size="22" fill="grey" dy="0em">2000</text>
<path d="M610,-20 L610,-1320" stroke="grey" stroke-width="1" fill="none" />
<text x="560" y="-1330" font-size="22" fill="grey" dy="0em">3000</text>
<path d="M810,-20 L810,-1320" stroke="grey" stroke-width="1" fill="none" />
<text x="760" y="-1330" font-size="22" fill="grey" dy="0em">4000</text>
<path d="M1010,-20 L1010,-1320" stroke="grey" stroke-width="1" fill="none" />
<text x="960" y="-1330" font-size="22" fill="grey" dy="0em">5000</text>
<path d="M1210,-20 L1210,-1320" stroke="grey" stroke-width="1" fill="none" />
<text x="1160" y="-1330" font-size="22" fill="grey" dy="0em">6000</text>
<path d="M1410,-20 L1410,-1320" stroke="grey" stroke-width="1" fill="none" />
<text x="1360" y="-1330" font-size="22" fill="grey" dy="0em">7000</text>
<path d="M1610,-20 L1610,-1320" stroke="grey" stroke-width="1" fill="none" />
<text x="1560" y="-1330" font-size="22" fill="grey" dy="0em">8000</text>
<path d="M1810,-20 L1810,-1320" stroke="grey" stroke-width="1" fill="none" />
<text x="1760" y="-1330" font-size="22" fill="grey" dy="0em">9000</text>
<text x="16.0" y="-1260" font-size="38" fill="black" dy="0em">I-A: JAVZCV010000004@1 (45221-51924)</text>
<path d="M181.0,-1200 L205.4,-1200 L205.4,-1150 L181.0,-1150 L151.0,-1175.0 L181.0,-1200 Z" fill="#5b5ea6" fill-opacity="0.8" stroke="#5b5ea6" stroke-width="4" />
<text x="151.0" y="-1210" font-size="26" fill="black" dy="0em">Cas2</text>
<path d="M235.4,-1200 L403.8,-1200 L403.8,-1150 L235.4,-1150 L205.4,-1175.0 L235.4,-1200 Z" fill="#5b5ea6" fill-opacity="0.8" stroke="#5b5ea6" stroke-width="4" />
<text x="205.4" y="-1120" font-size="26" fill="black" dy="0em">Cas1</text>
<path d="M430.0,-1200 L512.0,-1200 L512.0,-1150 L430.0,-1150 L400.0,-1175.0 L430.0,-1200 Z" fill="#5b5ea6" fill-opacity="0.8" stroke="#5b5ea6" stroke-width="4" />
<text x="400.0" y="-1210" font-size="26" fill="black" dy="0em">Cas4</text>
<path d="M528.8000000000001,-1200 L645.0,-1200 L675.0,-1175.0 L645.0,-1150 L528.8000000000001,-1150 L528.8000000000001,-1200 Z" fill="#ff80e6" fill-opacity="0.8" stroke="#ff80e6" stroke-width="4" />
<text x="528.8000000000001" y="-1120" font-size="26" fill="black" dy="0em">CasR</text>
<path d="M689.6,-1200 L844.2,-1200 L844.2,-1150 L689.6,-1150 L659.6,-1175.0 L689.6,-1200 Z" fill="#dd1424" fill-opacity="0.8" stroke="#dd1424" stroke-width="4" />
<text x="659.6" y="-1210" font-size="26" fill="black" dy="0em">Cas6</text>
<path d="M875.2,-1200 L1121.6000000000001,-1200 L1121.6000000000001,-1150 L875.2,-1150 L845.2,-1175.0 L875.2,-1200 Z" fill="#ff80e6" fill-opacity="0.8" stroke="#ff80e6" stroke-width="4" />
<text x="845.2" y="-1120" font-size="26" fill="black" dy="0em">Csx1</text>
<path d="M1155.4,-1200 L1350.8000000000002,-1200 L1350.8000000000002,-1150 L1155.4,-1150 L1125.4,-1175.0 L1155.4,-1200 Z" fill="#efc050" fill-opacity="0.8" stroke="#efc050" stroke-width="4" />
<text x="1125.4" y="-1210" font-size="26" fill="black" dy="0em">Csm5gr7</text>
<path d="M10.2,-1200 L123.0,-1200 L123.0,-1150 L10.2,-1150 L10.2,-1200 Z" fill="white" stroke="white" stroke-width="4" />
<path d="M10.2,-1200 L17.72,-1200 L17.72,-1150 L10.2,-1150 L10.2,-1200 Z" fill="black" />
<path d="M17.72,-1200 L25.24,-1200 L25.24,-1150 L17.72,-1150 L17.72,-1200 Z" fill="#f0f0f0" />
<path d="M25.24,-1200 L32.76,-1200 L32.76,-1150 L25.24,-1150 L25.24,-1200 Z" fill="black" />
<path d="M32.76,-1200 L40.28,-1200 L40.28,-1150 L32.76,-1150 L32.76,-1200 Z" fill="#f0f0f0" />
<path d="M40.28,-1200 L47.8,-1200 L47.8,-1150 L40.28,-1150 L40.28,-1200 Z" fill="black" />
<path d="M47.8,-1200 L55.31999999999999,-1200 L55.31999999999999,-1150 L47.8,-1150 L47.8,-1200 Z" fill="#f0f0f0" />
<path d="M55.31999999999999,-1200 L62.83999999999999,-1200 L62.83999999999999,-1150 L55.31999999999999,-1150 L55.31999999999999,-1200 Z" fill="black" />
<path d="M62.83999999999999,-1200 L70.35999999999999,-1200 L70.35999999999999,-1150 L62.83999999999999,-1150 L62.83999999999999,-1200 Z" fill="#f0f0f0" />
<path d="M70.35999999999999,-1200 L77.87999999999998,-1200 L77.87999999999998,-1150 L70.35999999999999,-1150 L70.35999999999999,-1200 Z" fill="black" />
<path d="M77.87999999999998,-1200 L85.39999999999998,-1200 L85.39999999999998,-1150 L77.87999999999998,-1150 L77.87999999999998,-1200 Z" fill="#f0f0f0" />
<path d="M85.39999999999998,-1200 L92.91999999999997,-1200 L92.91999999999997,-1150 L85.39999999999998,-1150 L85.39999999999998,-1200 Z" fill="black" />
<path d="M92.91999999999997,-1200 L100.43999999999997,-1200 L100.43999999999997,-1150 L92.91999999999997,-1150 L92.91999999999997,-1200 Z" fill="#f0f0f0" />
<path d="M100.43999999999997,-1200 L107.95999999999997,-1200 L107.95999999999997,-1150 L100.43999999999997,-1150 L100.43999999999997,-1200 Z" fill="black" />
<path d="M107.95999999999997,-1200 L115.47999999999996,-1200 L115.47999999999996,-1150 L107.95999999999997,-1150 L107.95999999999997,-1200 Z" fill="#f0f0f0" />
<path d="M115.47999999999996,-1200 L122.99999999999996,-1200 L122.99999999999996,-1150 L115.47999999999996,-1150 L115.47999999999996,-1200 Z" fill="black" />
<text x="10.2" y="-1210" font-size="26" fill="black" dy="0em">CRISPR</text>
<text x="16.0" y="-1060" font-size="38" fill="black" dy="0em">III-A: JAVZCV010000024@1 (2-4260)</text>
<path d="M40.2,-1000 L165.4,-1000 L165.4,-950 L40.2,-950 L10.2,-975.0 L40.2,-1000 Z" fill="#efc050" fill-opacity="0.8" stroke="#efc050" stroke-width="4" />
<text x="10.2" y="-1010" font-size="26" fill="black" dy="0em">Csm4gr5</text>
<path d="M197.8,-1000 L318.20000000000005,-1000 L318.20000000000005,-950 L197.8,-950 L167.8,-975.0 L197.8,-1000 Z" fill="#efc050" fill-opacity="0.8" stroke="#efc050" stroke-width="4" />
<text x="167.8" y="-920" font-size="26" fill="black" dy="0em">Csm3gr7</text>
<path d="M346.8,-1000 L412.6,-1000 L412.6,-950 L346.8,-950 L316.8,-975.0 L346.8,-1000 Z" fill="#efc050" fill-opacity="0.8" stroke="#efc050" stroke-width="4" />
<text x="316.8" y="-1010" font-size="26" fill="black" dy="0em">Csm2gr11</text>
<path d="M442.6,-1000 L861.8000000000001,-1000 L861.8000000000001,-950 L442.6,-950 L412.6,-975.0 L442.6,-1000 Z" fill="#efc050" fill-opacity="0.8" stroke="#efc050" stroke-width="4" />
<text x="412.6" y="-920" font-size="26" fill="black" dy="0em">Cas10</text>
<text x="16.0" y="-860" font-size="38" fill="black" dy="0em">I-B: JAVZCV010000007@3 (30031-38601)</text>
<path d="M10.2,-800 L131.20000000000002,-800 L161.20000000000002,-775.0 L131.20000000000002,-750 L10.2,-750 L10.2,-800 Z" fill="#dd1424" fill-opacity="0.8" stroke="#dd1424" stroke-width="4" />
<text x="10.2" y="-810" font-size="26" fill="black" dy="0em">Cas6</text>
<path d="M160.0,-800 L501.80000000000007,-800 L531.8000000000001,-775.0 L501.80000000000007,-750 L160.0,-750 L160.0,-800 Z" fill="#d3c9c1" fill-opacity="0.8" stroke="#d3c9c1" stroke-width="4" />
<text x="160.0" y="-720" font-size="20" fill="black" dy="0em">32</text>
<path d="M530.4,-800 L693.4000000000001,-800 L723.4000000000001,-775.0 L693.4000000000001,-750 L530.4,-750 L530.4,-800 Z" fill="#efc050" fill-opacity="0.8" stroke="#efc050" stroke-width="4" />
<text x="530.4" y="-810" font-size="26" fill="black" dy="0em">Cas7b</text>
<path d="M728.0,-800 L855.6,-800 L885.6,-775.0 L855.6,-750 L728.0,-750 L728.0,-800 Z" fill="#efc050" fill-opacity="0.8" stroke="#efc050" stroke-width="4" />
<text x="728.0" y="-720" font-size="26" fill="black" dy="0em">Cas5</text>
<path d="M881.8000000000001,-800 L1328.0,-800 L1358.0,-775.0 L1328.0,-750 L881.8000000000001,-750 L881.8000000000001,-800 Z" fill="#efc050" fill-opacity="0.8" stroke="#efc050" stroke-width="4" />
<text x="881.8000000000001" y="-810" font-size="26" fill="black" dy="0em">Cas3</text>
<path d="M1360.0,-800 L1431.8000000000002,-800 L1461.8000000000002,-775.0 L1431.8000000000002,-750 L1360.0,-750 L1360.0,-800 Z" fill="#5b5ea6" fill-opacity="0.8" stroke="#5b5ea6" stroke-width="4" />
<text x="1360.0" y="-720" font-size="26" fill="black" dy="0em">Cas4</text>
<path d="M1473.4,-800 L1640.6000000000001,-800 L1670.6000000000001,-775.0 L1640.6000000000001,-750 L1473.4,-750 L1473.4,-800 Z" fill="#5b5ea6" fill-opacity="0.8" stroke="#5b5ea6" stroke-width="4" />
<text x="1473.4" y="-810" font-size="26" fill="black" dy="0em">Cas1</text>
<path d="M1671.0,-800 L1694.2,-800 L1724.2,-775.0 L1694.2,-750 L1671.0,-750 L1671.0,-800 Z" fill="#5b5ea6" fill-opacity="0.8" stroke="#5b5ea6" stroke-width="4" />
<text x="1671.0" y="-720" font-size="26" fill="black" dy="0em">Cas2</text>
<path d="M10.2,-600 L139.20000000000002,-600 L139.20000000000002,-550 L10.2,-550 L10.2,-600 Z" fill="white" stroke="white" stroke-width="4" />
<path d="M10.2,-600 L17.788235294117648,-600 L17.788235294117648,-550 L10.2,-550 L10.2,-600 Z" fill="black" />
<path d="M17.788235294117648,-600 L25.376470588235293,-600 L25.376470588235293,-550 L17.788235294117648,-550 L17.788235294117648,-600 Z" fill="#f0f0f0" />
<path d="M25.376470588235293,-600 L32.96470588235294,-600 L32.96470588235294,-550 L25.376470588235293,-550 L25.376470588235293,-600 Z" fill="black" />
<path d="M32.96470588235294,-600 L40.55294117647058,-600 L40.55294117647058,-550 L32.96470588235294,-550 L32.96470588235294,-600 Z" fill="#f0f0f0" />
<path d="M40.55294117647058,-600 L48.14117647058823,-600 L48.14117647058823,-550 L40.55294117647058,-550 L40.55294117647058,-600 Z" fill="black" />
<path d="M48.14117647058823,-600 L55.72941176470587,-600 L55.72941176470587,-550 L48.14117647058823,-550 L48.14117647058823,-600 Z" fill="#f0f0f0" />
<path d="M55.72941176470587,-600 L63.31764705882352,-600 L63.31764705882352,-550 L55.72941176470587,-550 L55.72941176470587,-600 Z" fill="black" />
<path d="M63.31764705882352,-600 L70.90588235294116,-600 L70.90588235294116,-550 L63.31764705882352,-550 L63.31764705882352,-600 Z" fill="#f0f0f0" />
<path d="M70.90588235294116,-600 L78.49411764705881,-600 L78.49411764705881,-550 L70.90588235294116,-550 L70.90588235294116,-600 Z" fill="black" />
<path d="M78.49411764705881,-600 L86.08235294117647,-600 L86.08235294117647,-550 L78.49411764705881,-550 L78.49411764705881,-600 Z" fill="#f0f0f0" />
<path d="M86.08235294117647,-600 L93.67058823529412,-600 L93.67058823529412,-550 L86.08235294117647,-550 L86.08235294117647,-600 Z" fill="black" />
<path d="M93.67058823529412,-600 L101.25882352941177,-600 L101.25882352941177,-550 L93.67058823529412,-550 L93.67058823529412,-600 Z" fill="#f0f0f0" />
<path d="M101.25882352941177,-600 L108.84705882352942,-600 L108.84705882352942,-550 L101.25882352941177,-550 L101.25882352941177,-600 Z" fill="black" />
<path d="M108.84705882352942,-600 L116.43529411764708,-600 L116.43529411764708,-550 L108.84705882352942,-550 L108.84705882352942,-600 Z" fill="#f0f0f0" />
<path d="M116.43529411764708,-600 L124.02352941176473,-600 L124.02352941176473,-550 L116.43529411764708,-550 L116.43529411764708,-600 Z" fill="black" />
<path d="M124.02352941176473,-600 L131.61176470588236,-600 L131.61176470588236,-550 L124.02352941176473,-550 L124.02352941176473,-600 Z" fill="#f0f0f0" />
<path d="M131.61176470588236,-600 L139.20000000000002,-600 L139.20000000000002,-550 L131.61176470588236,-550 L131.61176470588236,-600 Z" fill="black" />
<text x="10.2" y="-610" font-size="26" fill="black" dy="0em">CRISPR</text>
<text x="16.0" y="-660" font-size="38" fill="black" dy="0em">Unknown: JAVZCV010000008_2 (37375-38020)</text>
<path d="M10.2,-400 L338.0,-400 L338.0,-350 L10.2,-350 L10.2,-400 Z" fill="white" stroke="white" stroke-width="4" />
<path d="M10.2,-400 L16.889795918367348,-400 L16.889795918367348,-350 L10.2,-350 L10.2,-400 Z" fill="black" />
<path d="M16.889795918367348,-400 L23.579591836734693,-400 L23.579591836734693,-350 L16.889795918367348,-350 L16.889795918367348,-400 Z" fill="#f0f0f0" />
<path d="M23.579591836734693,-400 L30.269387755102038,-400 L30.269387755102038,-350 L23.579591836734693,-350 L23.579591836734693,-400 Z" fill="black" />
<path d="M30.269387755102038,-400 L36.95918367346938,-400 L36.95918367346938,-350 L30.269387755102038,-350 L30.269387755102038,-400 Z" fill="#f0f0f0" />
<path d="M36.95918367346938,-400 L43.64897959183673,-400 L43.64897959183673,-350 L36.95918367346938,-350 L36.95918367346938,-400 Z" fill="black" />
<path d="M43.64897959183673,-400 L50.33877551020407,-400 L50.33877551020407,-350 L43.64897959183673,-350 L43.64897959183673,-400 Z" fill="#f0f0f0" />
<path d="M50.33877551020407,-400 L57.02857142857142,-400 L57.02857142857142,-350 L50.33877551020407,-350 L50.33877551020407,-400 Z" fill="black" />
<path d="M57.02857142857142,-400 L63.71836734693876,-400 L63.71836734693876,-350 L57.02857142857142,-350 L57.02857142857142,-400 Z" fill="#f0f0f0" />
<path d="M63.71836734693876,-400 L70.40816326530611,-400 L70.40816326530611,-350 L63.71836734693876,-350 L63.71836734693876,-400 Z" fill="black" />
<path d="M70.40816326530611,-400 L77.09795918367347,-400 L77.09795918367347,-350 L70.40816326530611,-350 L70.40816326530611,-400 Z" fill="#f0f0f0" />
<path d="M77.09795918367347,-400 L83.78775510204082,-400 L83.78775510204082,-350 L77.09795918367347,-350 L77.09795918367347,-400 Z" fill="black" />
<path d="M83.78775510204082,-400 L90.47755102040817,-400 L90.47755102040817,-350 L83.78775510204082,-350 L83.78775510204082,-400 Z" fill="#f0f0f0" />
<path d="M90.47755102040817,-400 L97.16734693877552,-400 L97.16734693877552,-350 L90.47755102040817,-350 L90.47755102040817,-400 Z" fill="black" />
<path d="M97.16734693877552,-400 L103.85714285714288,-400 L103.85714285714288,-350 L97.16734693877552,-350 L97.16734693877552,-400 Z" fill="#f0f0f0" />
<path d="M103.85714285714288,-400 L110.54693877551023,-400 L110.54693877551023,-350 L103.85714285714288,-350 L103.85714285714288,-400 Z" fill="black" />
<path d="M110.54693877551023,-400 L117.23673469387758,-400 L117.23673469387758,-350 L110.54693877551023,-350 L110.54693877551023,-400 Z" fill="#f0f0f0" />
<path d="M117.23673469387758,-400 L123.92653061224493,-400 L123.92653061224493,-350 L117.23673469387758,-350 L117.23673469387758,-400 Z" fill="black" />
<path d="M123.92653061224493,-400 L130.61632653061227,-400 L130.61632653061227,-350 L123.92653061224493,-350 L123.92653061224493,-400 Z" fill="#f0f0f0" />
<path d="M130.61632653061227,-400 L137.3061224489796,-400 L137.3061224489796,-350 L130.61632653061227,-350 L130.61632653061227,-400 Z" fill="black" />
<path d="M137.3061224489796,-400 L143.99591836734695,-400 L143.99591836734695,-350 L137.3061224489796,-350 L137.3061224489796,-400 Z" fill="#f0f0f0" />
<path d="M143.99591836734695,-400 L150.68571428571428,-400 L150.68571428571428,-350 L143.99591836734695,-350 L143.99591836734695,-400 Z" fill="black" />
<path d="M150.68571428571428,-400 L157.37551020408162,-400 L157.37551020408162,-350 L150.68571428571428,-350 L150.68571428571428,-400 Z" fill="#f0f0f0" />
<path d="M157.37551020408162,-400 L164.06530612244896,-400 L164.06530612244896,-350 L157.37551020408162,-350 L157.37551020408162,-400 Z" fill="black" />
<path d="M164.06530612244896,-400 L170.7551020408163,-400 L170.7551020408163,-350 L164.06530612244896,-350 L164.06530612244896,-400 Z" fill="#f0f0f0" />
<path d="M170.7551020408163,-400 L177.44489795918363,-400 L177.44489795918363,-350 L170.7551020408163,-350 L170.7551020408163,-400 Z" fill="black" />
<path d="M177.44489795918363,-400 L184.13469387755097,-400 L184.13469387755097,-350 L177.44489795918363,-350 L177.44489795918363,-400 Z" fill="#f0f0f0" />
<path d="M184.13469387755097,-400 L190.8244897959183,-400 L190.8244897959183,-350 L184.13469387755097,-350 L184.13469387755097,-400 Z" fill="black" />
<path d="M190.8244897959183,-400 L197.51428571428565,-400 L197.51428571428565,-350 L190.8244897959183,-350 L190.8244897959183,-400 Z" fill="#f0f0f0" />
<path d="M197.51428571428565,-400 L204.204081632653,-400 L204.204081632653,-350 L197.51428571428565,-350 L197.51428571428565,-400 Z" fill="black" />
<path d="M204.204081632653,-400 L210.89387755102032,-400 L210.89387755102032,-350 L204.204081632653,-350 L204.204081632653,-400 Z" fill="#f0f0f0" />
<path d="M210.89387755102032,-400 L217.58367346938766,-400 L217.58367346938766,-350 L210.89387755102032,-350 L210.89387755102032,-400 Z" fill="black" />
<path d="M217.58367346938766,-400 L224.273469387755,-400 L224.273469387755,-350 L217.58367346938766,-350 L217.58367346938766,-400 Z" fill="#f0f0f0" />
<path d="M224.273469387755,-400 L230.96326530612234,-400 L230.96326530612234,-350 L224.273469387755,-350 L224.273469387755,-400 Z" fill="black" />
<path d="M230.96326530612234,-400 L237.65306122448968,-400 L237.65306122448968,-350 L230.96326530612234,-350 L230.96326530612234,-400 Z" fill="#f0f0f0" />
<path d="M237.65306122448968,-400 L244.342857142857,-400 L244.342857142857,-350 L237.65306122448968,-350 L237.65306122448968,-400 Z" fill="black" />
<path d="M244.342857142857,-400 L251.03265306122435,-400 L251.03265306122435,-350 L244.342857142857,-350 L244.342857142857,-400 Z" fill="#f0f0f0" />
<path d="M251.03265306122435,-400 L257.7224489795917,-400 L257.7224489795917,-350 L251.03265306122435,-350 L251.03265306122435,-400 Z" fill="black" />
<path d="M257.7224489795917,-400 L264.41224489795906,-400 L264.41224489795906,-350 L257.7224489795917,-350 L257.7224489795917,-400 Z" fill="#f0f0f0" />
<path d="M264.41224489795906,-400 L271.1020408163264,-400 L271.1020408163264,-350 L264.41224489795906,-350 L264.41224489795906,-400 Z" fill="black" />
<path d="M271.1020408163264,-400 L277.79183673469373,-400 L277.79183673469373,-350 L271.1020408163264,-350 L271.1020408163264,-400 Z" fill="#f0f0f0" />
<path d="M277.79183673469373,-400 L284.48163265306107,-400 L284.48163265306107,-350 L277.79183673469373,-350 L277.79183673469373,-400 Z" fill="black" />
<path d="M284.48163265306107,-400 L291.1714285714284,-400 L291.1714285714284,-350 L284.48163265306107,-350 L284.48163265306107,-400 Z" fill="#f0f0f0" />
<path d="M291.1714285714284,-400 L297.86122448979575,-400 L297.86122448979575,-350 L291.1714285714284,-350 L291.1714285714284,-400 Z" fill="black" />
<path d="M297.86122448979575,-400 L304.5510204081631,-400 L304.5510204081631,-350 L297.86122448979575,-350 L297.86122448979575,-400 Z" fill="#f0f0f0" />
<path d="M304.5510204081631,-400 L311.2408163265304,-400 L311.2408163265304,-350 L304.5510204081631,-350 L304.5510204081631,-400 Z" fill="black" />
<path d="M311.2408163265304,-400 L317.93061224489776,-400 L317.93061224489776,-350 L311.2408163265304,-350 L311.2408163265304,-400 Z" fill="#f0f0f0" />
<path d="M317.93061224489776,-400 L324.6204081632651,-400 L324.6204081632651,-350 L317.93061224489776,-350 L317.93061224489776,-400 Z" fill="black" />
<path d="M324.6204081632651,-400 L331.31020408163243,-400 L331.31020408163243,-350 L324.6204081632651,-350 L324.6204081632651,-400 Z" fill="#f0f0f0" />
<path d="M331.31020408163243,-400 L337.9999999999998,-400 L337.9999999999998,-350 L331.31020408163243,-350 L331.31020408163243,-400 Z" fill="black" />
<text x="10.2" y="-410" font-size="26" fill="black" dy="0em">CRISPR</text>
<text x="16.0" y="-460" font-size="38" fill="black" dy="0em">Unknown: JAVZCV010000023_3 (13-1652)</text>
<path d="M10.2,-200 L47.2,-200 L47.2,-150 L10.2,-150 L10.2,-200 Z" fill="white" stroke="white" stroke-width="4" />
<path d="M10.2,-200 L17.6,-200 L17.6,-150 L10.2,-150 L10.2,-200 Z" fill="black" />
<path d="M17.6,-200 L25.0,-200 L25.0,-150 L17.6,-150 L17.6,-200 Z" fill="#f0f0f0" />
<path d="M25.0,-200 L32.4,-200 L32.4,-150 L25.0,-150 L25.0,-200 Z" fill="black" />
<path d="M32.4,-200 L39.8,-200 L39.8,-150 L32.4,-150 L32.4,-200 Z" fill="#f0f0f0" />
<path d="M39.8,-200 L47.199999999999996,-200 L47.199999999999996,-150 L39.8,-150 L39.8,-200 Z" fill="black" />
<text x="10.2" y="-210" font-size="26" fill="black" dy="0em">CRISPR</text>
<text x="16.0" y="-260" font-size="38" fill="black" dy="0em">Unknown: JAVZCV010000026_4 (14893-15078)</text>
</svg>