<?xml version="1.0" encoding="UTF-8"?>
<svg xmlns="http://www.w3.org/2000/svg" xmlns:xlink="http://www.w3.org/1999/xlink"
     width="2867" height="1000" viewBox="0 -1000 2867 1000">
<defs>
</defs>
<path d="M210,-20 L210,-920" stroke="grey" stroke-width="1" fill="none" />
<text x="160" y="-930" font-size="22" fill="grey" dy="0em">1000</text>
<path d="M410,-20 L410,-920" stroke="grey" stroke-width="1" fill="none" />
<text x="360" y="-930" font-size="22" fill="grey" dy="0em">2000</text>
<path d="M610,-20 L610,-920" stroke="grey" stroke-width="1" fill="none" />
<text x="560" y="-930" font-size="22" fill="grey" dy="0em">3000</text>
<path d="M810,-20 L810,-920" stroke="grey" stroke-width="1" fill="none" />
<text x="760" y="-930" font-size="22" fill="grey" dy="0em">4000</text>
<path d="M1010,-20 L1010,-920" stroke="grey" stroke-width="1" fill="none" />
<text x="960" y="-930" font-size="22" fill="grey" dy="0em">5000</text>
<path d="M1210,-20 L1210,-920" stroke="grey" stroke-width="1" fill="none" />
<text x="1160" y="-930" font-size="22" fill="grey" dy="0em">6000</text>
<path d="M1410,-20 L1410,-920" stroke="grey" stroke-width="1" fill="none" />
<text x="1360" y="-930" font-size="22" fill="grey" dy="0em">7000</text>
<path d="M1610,-20 L1610,-920" stroke="grey" stroke-width="1" fill="none" />
<text x="1560" y="-930" font-size="22" fill="grey" dy="0em">8000</text>
<path d="M1810,-20 L1810,-920" stroke="grey" stroke-width="1" fill="none" />
<text x="1760" y="-930" font-size="22" fill="grey" dy="0em">9000</text>
<path d="M2010,-20 L2010,-920" stroke="grey" stroke-width="1" fill="none" />
<text x="1960" y="-930" font-size="22" fill="grey" dy="0em">10000</text>
<path d="M2210,-20 L2210,-920" stroke="grey" stroke-width="1" fill="none" />
<text x="2160" y="-930" font-size="22" fill="grey" dy="0em">11000</text>
<path d="M2410,-20 L2410,-920" stroke="grey" stroke-width="1" fill="none" />
<text x="2360" y="-930" font-size="22" fill="grey" dy="0em">12000</text>
<path d="M2610,-20 L2610,-920" stroke="grey" stroke-width="1" fill="none" />
<text x="2560" y="-930" font-size="22" fill="grey" dy="0em">13000</text>
<path d="M2810,-20 L2810,-920" stroke="grey" stroke-width="1" fill="none" />
<text x="2760" y="-930" font-size="22" fill="grey" dy="0em">14000</text>
<text x="16.0" y="-860" font-size="38" fill="black" dy="0em">I-A: MDVT01000001@1 (37-11062)</text>
<path d="M92.0,-800 L180.60000000000002,-800 L180.60000000000002,-750 L92.0,-750 L62.0,-775.0 L92.0,-800 Z" fill="#5b5ea6" fill-opacity="0.8" stroke="#5b5ea6" stroke-width="4" />
<text x="62.0" y="-810" font-size="26" fill="black" dy="0em">Cas4</text>
<path d="M212.4,-800 L237.4,-800 L237.4,-750 L212.4,-750 L182.4,-775.0 L212.4,-800 Z" fill="#5b5ea6" fill-opacity="0.8" stroke="#5b5ea6" stroke-width="4" />
<text x="182.4" y="-720" font-size="26" fill="black" dy="0em">Cas2</text>
<path d="M268.6,-800 L440.0,-800 L440.0,-750 L268.6,-750 L238.60000000000002,-775.0 L268.6,-800 Z" fill="#5b5ea6" fill-opacity="0.8" stroke="#5b5ea6" stroke-width="4" />
<text x="238.60000000000002" y="-810" font-size="26" fill="black" dy="0em">Cas1</text>
<path d="M477.40000000000003,-800 L636.8000000000001,-800 L636.8000000000001,-750 L477.40000000000003,-750 L447.40000000000003,-775.0 L477.40000000000003,-800 Z" fill="#5b5ea6" fill-opacity="0.8" stroke="#5b5ea6" stroke-width="4" />
<text x="447.40000000000003" y="-720" font-size="26" fill="black" dy="0em">Cas4</text>
<path d="M684.0,-800 L809.2,-800 L809.2,-750 L684.0,-750 L654.0,-775.0 L684.0,-800 Z" fill="#efc050" fill-opacity="0.8" stroke="#efc050" stroke-width="4" />
<text x="654.0" y="-810" font-size="26" fill="black" dy="0em">Cas3HD</text>
<path d="M838.6,-800 L1168.4,-800 L1168.4,-750 L838.6,-750 L808.6,-775.0 L838.6,-800 Z" fill="#efc050" fill-opacity="0.8" stroke="#efc050" stroke-width="4" />
<text x="808.6" y="-720" font-size="26" fill="black" dy="0em">Cas3</text>
<path d="M1201.2,-800 L1403.2,-800 L1403.2,-750 L1201.2,-750 L1171.2,-775.0 L1201.2,-800 Z" fill="#efc050" fill-opacity="0.8" stroke="#efc050" stroke-width="4" />
<text x="1171.2" y="-810" font-size="26" fill="black" dy="0em">Cas8a1</text>
<path d="M1430.6000000000001,-800 L1566.6000000000001,-800 L1566.6000000000001,-750 L1430.6000000000001,-750 L1400.6000000000001,-775.0 L1430.6000000000001,-800 Z" fill="#efc050" fill-opacity="0.8" stroke="#efc050" stroke-width="4" />
<text x="1400.6000000000001" y="-720" font-size="26" fill="black" dy="0em">Cas5</text>
<path d="M1597.0,-800 L1757.6000000000001,-800 L1757.6000000000001,-750 L1597.0,-750 L1567.0,-775.0 L1597.0,-800 Z" fill="#efc050" fill-opacity="0.8" stroke="#efc050" stroke-width="4" />
<text x="1567.0" y="-810" font-size="26" fill="black" dy="0em">Cas7</text>
<path d="M1787.0,-800 L1828.2,-800 L1828.2,-750 L1787.0,-750 L1757.0,-775.0 L1787.0,-800 Z" fill="#efc050" fill-opacity="0.8" stroke="#efc050" stroke-width="4" />
<text x="1757.0" y="-720" font-size="26" fill="black" dy="0em">Csa5gr11</text>
<path d="M1852.6000000000001,-800 L1950.8000000000002,-800 L1980.8000000000002,-775.0 L1950.8000000000002,-750 L1852.6000000000001,-750 L1852.6000000000001,-800 Z" fill="#ff80e6" fill-opacity="0.8" stroke="#ff80e6" stroke-width="4" />
<text x="1852.6000000000001" y="-810" font-size="26" fill="black" dy="0em">CasR</text>
<path d="M1999.0,-800 L2159.0,-800 L2159.0,-750 L1999.0,-750 L1969.0,-775.0 L1999.0,-800 Z" fill="#dd1424" fill-opacity="0.8" stroke="#dd1424" stroke-width="4" />
<text x="1969.0" y="-720" font-size="26" fill="black" dy="0em">Cas6</text>
<path d="M10.2,-800 L39.6,-800 L39.6,-750 L10.2,-750 L10.2,-800 Z" fill="white" stroke="white" stroke-width="4" />
<path d="M10.2,-800 L16.08,-800 L16.08,-750 L10.2,-750 L10.2,-800 Z" fill="black" />
<path d="M16.08,-800 L21.959999999999997,-800 L21.959999999999997,-750 L16.08,-750 L16.08,-800 Z" fill="#f0f0f0" />
<path d="M21.959999999999997,-800 L27.839999999999996,-800 L27.839999999999996,-750 L21.959999999999997,-750 L21.959999999999997,-800 Z" fill="black" />
<path d="M27.839999999999996,-800 L33.72,-800 L33.72,-750 L27.839999999999996,-750 L27.839999999999996,-800 Z" fill="#f0f0f0" />
<path d="M33.72,-800 L39.6,-800 L39.6,-750 L33.72,-750 L33.72,-800 Z" fill="black" />
<text x="10.2" y="-810" font-size="26" fill="black" dy="0em">CRISPR</text>
<path d="M2185.0,-800 L2215.2000000000003,-800 L2215.2000000000003,-750 L2185.0,-750 L2185.0,-800 Z" fill="white" stroke="white" stroke-width="4" />
<path d="M2185.0,-800 L2191.04,-800 L2191.04,-750 L2185.0,-750 L2185.0,-800 Z" fill="black" />
<path d="M2191.04,-800 L2197.08,-800 L2197.08,-750 L2191.04,-750 L2191.04,-800 Z" fill="#f0f0f0" />
<path d="M2197.08,-800 L2203.12,-800 L2203.12,-750 L2197.08,-750 L2197.08,-800 Z" fill="black" />
<path d="M2203.12,-800 L2209.16,-800 L2209.16,-750 L2203.12,-750 L2203.12,-800 Z" fill="#f0f0f0" />
<path d="M2209.16,-800 L2215.2,-800 L2215.2,-750 L2209.16,-750 L2209.16,-800 Z" fill="black" />
<text x="2185.0" y="-810" font-size="26" fill="black" dy="0em">CRISPR</text>
<path d="M10.2,-800 L39.6,-800 L39.6,-750 L10.2,-750 L10.2,-800 Z" fill="white" stroke="white" stroke-width="4" />
<path d="M10.2,-800 L16.08,-800 L16.08,-750 L10.2,-750 L10.2,-800 Z" fill="black" />
<path d="M16.08,-800 L21.959999999999997,-800 L21.959999999999997,-750 L16.08,-750 L16.08,-800 Z" fill="#f0f0f0" />
<path d="M21.959999999999997,-800 L27.839999999999996,-800 L27.839999999999996,-750 L21.959999999999997,-750 L21.959999999999997,-800 Z" fill="black" />
<path d="M27.839999999999996,-800 L33.72,-800 L33.72,-750 L27.839999999999996,-750 L27.839999999999996,-800 Z" fill="#f0f0f0" />
<path d="M33.72,-800 L39.6,-800 L39.6,-750 L33.72,-750 L33.72,-800 Z" fill="black" />
<text x="10.2" y="-810" font-size="26" fill="black" dy="0em">CRISPR</text>
<text x="16.0" y="-660" font-size="38" fill="black" dy="0em">III-D: MDVT01000006@5 (116840-130674)</text>
<path d="M10.2,-600 L116.20000000000002,-600 L146.20000000000002,-575.0 L116.20000000000002,-550 L10.2,-550 L10.2,-600 Z" fill="#ff80e6" fill-opacity="0.8" stroke="#ff80e6" stroke-width="4" />
<text x="10.2" y="-610" font-size="26" fill="black" dy="0em">CasR</text>
<path d="M160.6,-600 L228.20000000000005,-600 L258.20000000000005,-575.0 L228.20000000000005,-550 L160.6,-550 L160.6,-600 Z" fill="#d3c9c1" fill-opacity="0.8" stroke="#d3c9c1" stroke-width="4" />
<text x="160.6" y="-520" font-size="20" fill="black" dy="0em">134</text>
<path d="M293.8,-600 L458.6,-600 L458.6,-550 L293.8,-550 L263.8,-575.0 L293.8,-600 Z" fill="#ff80e6" fill-opacity="0.8" stroke="#ff80e6" stroke-width="4" />
<text x="263.8" y="-610" font-size="26" fill="black" dy="0em">Csx1</text>
<path d="M488.6,-600 L516.6,-600 L516.6,-550 L488.6,-550 L458.6,-575.0 L488.6,-600 Z" fill="#ff80e6" fill-opacity="0.8" stroke="#ff80e6" stroke-width="4" />
<text x="458.6" y="-520" font-size="26" fill="black" dy="0em">Csx3</text>
<path d="M562.6,-600 L617.0,-600 L617.0,-550 L562.6,-550 L532.6,-575.0 L562.6,-600 Z" fill="#d3c9c1" fill-opacity="0.8" stroke="#d3c9c1" stroke-width="4" />
<text x="532.6" y="-610" font-size="20" fill="black" dy="0em">137</text>
<path d="M644.6,-600 L799.8000000000001,-600 L799.8000000000001,-550 L644.6,-550 L614.6,-575.0 L644.6,-600 Z" fill="#efc050" fill-opacity="0.8" stroke="#efc050" stroke-width="4" />
<text x="614.6" y="-520" font-size="26" fill="black" dy="0em">Csm3gr7</text>
<path d="M827.2,-600 L881.0,-600 L881.0,-550 L827.2,-550 L797.2,-575.0 L827.2,-600 Z" fill="#efc050" fill-opacity="0.8" stroke="#efc050" stroke-width="4" />
<text x="797.2" y="-610" font-size="26" fill="black" dy="0em">Csx19</text>
<path d="M910.4000000000001,-600 L1057.8,-600 L1057.8,-550 L910.4000000000001,-550 L880.4000000000001,-575.0 L910.4000000000001,-600 Z" fill="#efc050" fill-opacity="0.8" stroke="#efc050" stroke-width="4" />
<text x="880.4000000000001" y="-520" font-size="26" fill="black" dy="0em">Csm3gr7</text>
<path d="M1086.4,-600 L1212.8,-600 L1212.8,-550 L1086.4,-550 L1056.4,-575.0 L1086.4,-600 Z" fill="#efc050" fill-opacity="0.8" stroke="#efc050" stroke-width="4" />
<text x="1056.4" y="-610" font-size="26" fill="black" dy="0em">Csm3gr7</text>
<path d="M1241.4,-600 L1297.6000000000001,-600 L1297.6000000000001,-550 L1241.4,-550 L1211.4,-575.0 L1241.4,-600 Z" fill="#efc050" fill-opacity="0.8" stroke="#efc050" stroke-width="4" />
<text x="1211.4" y="-520" font-size="26" fill="black" dy="0em">Csm2gr11</text>
<path d="M1327.0,-600 L1531.4,-600 L1531.4,-550 L1327.0,-550 L1297.0,-575.0 L1327.0,-600 Z" fill="#efc050" fill-opacity="0.8" stroke="#efc050" stroke-width="4" />
<text x="1297.0" y="-610" font-size="26" fill="black" dy="0em">Csx10</text>
<path d="M1560.8000000000002,-600 L1661.4,-600 L1661.4,-550 L1560.8000000000002,-550 L1530.8000000000002,-575.0 L1560.8000000000002,-600 Z" fill="#efc050" fill-opacity="0.8" stroke="#efc050" stroke-width="4" />
<text x="1530.8000000000002" y="-520" font-size="26" fill="black" dy="0em">Csm3gr7</text>
<path d="M1684.6000000000001,-600 L2106.8,-600 L2106.8,-550 L1684.6000000000001,-550 L1654.6000000000001,-575.0 L1684.6000000000001,-600 Z" fill="#efc050" fill-opacity="0.8" stroke="#efc050" stroke-width="4" />
<text x="1654.6000000000001" y="-610" font-size="26" fill="black" dy="0em">Cas10</text>
<path d="M2150.6,-600 L2777.0,-600 L2777.0,-550 L2150.6,-550 L2150.6,-600 Z" fill="white" stroke="white" stroke-width="4" />
<path d="M2150.6,-600 L2156.80198019802,-600 L2156.80198019802,-550 L2150.6,-550 L2150.6,-600 Z" fill="black" />
<path d="M2156.80198019802,-600 L2163.00396039604,-600 L2163.00396039604,-550 L2156.80198019802,-550 L2156.80198019802,-600 Z" fill="#f0f0f0" />
<path d="M2163.00396039604,-600 L2169.20594059406,-600 L2169.20594059406,-550 L2163.00396039604,-550 L2163.00396039604,-600 Z" fill="black" />
<path d="M2169.20594059406,-600 L2175.40792079208,-600 L2175.40792079208,-550 L2169.20594059406,-550 L2169.20594059406,-600 Z" fill="#f0f0f0" />
<path d="M2175.40792079208,-600 L2181.6099009901,-600 L2181.6099009901,-550 L2175.40792079208,-550 L2175.40792079208,-600 Z" fill="black" />
<path d="M2181.6099009901,-600 L2187.81188118812,-600 L2187.81188118812,-550 L2181.6099009901,-550 L2181.6099009901,-600 Z" fill="#f0f0f0" />
<path d="M2187.81188118812,-600 L2194.01386138614,-600 L2194.01386138614,-550 L2187.81188118812,-550 L2187.81188118812,-600 Z" fill="black" />
<path d="M2194.01386138614,-600 L2200.21584158416,-600 L2200.21584158416,-550 L2194.01386138614,-550 L2194.01386138614,-600 Z" fill="#f0f0f0" />
<path d="M2200.21584158416,-600 L2206.41782178218,-600 L2206.41782178218,-550 L2200.21584158416,-550 L2200.21584158416,-600 Z" fill="black" />
<path d="M2206.41782178218,-600 L2212.6198019802,-600 L2212.6198019802,-550 L2206.41782178218,-550 L2206.41782178218,-600 Z" fill="#f0f0f0" />
<path d="M2212.6198019802,-600 L2218.82178217822,-600 L2218.82178217822,-550 L2212.6198019802,-550 L2212.6198019802,-600 Z" fill="black" />
<path d="M2218.82178217822,-600 L2225.02376237624,-600 L2225.02376237624,-550 L2218.82178217822,-550 L2218.82178217822,-600 Z" fill="#f0f0f0" />
<path d="M2225.02376237624,-600 L2231.22574257426,-600 L2231.22574257426,-550 L2225.02376237624,-550 L2225.02376237624,-600 Z" fill="black" />
<path d="M2231.22574257426,-600 L2237.42772277228,-600 L2237.42772277228,-550 L2231.22574257426,-550 L2231.22574257426,-600 Z" fill="#f0f0f0" />
<path d="M2237.42772277228,-600 L2243.6297029703,-600 L2243.6297029703,-550 L2237.42772277228,-550 L2237.42772277228,-600 Z" fill="black" />
<path d="M2243.6297029703,-600 L2249.83168316832,-600 L2249.83168316832,-550 L2243.6297029703,-550 L2243.6297029703,-600 Z" fill="#f0f0f0" />
<path d="M2249.83168316832,-600 L2256.03366336634,-600 L2256.03366336634,-550 L2249.83168316832,-550 L2249.83168316832,-600 Z" fill="black" />
<path d="M2256.03366336634,-600 L2262.23564356436,-600 L2262.23564356436,-550 L2256.03366336634,-550 L2256.03366336634,-600 Z" fill="#f0f0f0" />
<path d="M2262.23564356436,-600 L2268.43762376238,-600 L2268.43762376238,-550 L2262.23564356436,-550 L2262.23564356436,-600 Z" fill="black" />
<path d="M2268.43762376238,-600 L2274.6396039604,-600 L2274.6396039604,-550 L2268.43762376238,-550 L2268.43762376238,-600 Z" fill="#f0f0f0" />
<path d="M2274.6396039604,-600 L2280.84158415842,-600 L2280.84158415842,-550 L2274.6396039604,-550 L2274.6396039604,-600 Z" fill="black" />
<path d="M2280.84158415842,-600 L2287.04356435644,-600 L2287.04356435644,-550 L2280.84158415842,-550 L2280.84158415842,-600 Z" fill="#f0f0f0" />
<path d="M2287.04356435644,-600 L2293.24554455446,-600 L2293.24554455446,-550 L2287.04356435644,-550 L2287.04356435644,-600 Z" fill="black" />
<path d="M2293.24554455446,-600 L2299.44752475248,-600 L2299.44752475248,-550 L2293.24554455446,-550 L2293.24554455446,-600 Z" fill="#f0f0f0" />
<path d="M2299.44752475248,-600 L2305.6495049505,-600 L2305.6495049505,-550 L2299.44752475248,-550 L2299.44752475248,-600 Z" fill="black" />
<path d="M2305.6495049505,-600 L2311.85148514852,-600 L2311.85148514852,-550 L2305.6495049505,-550 L2305.6495049505,-600 Z" fill="#f0f0f0" />
<path d="M2311.85148514852,-600 L2318.05346534654,-600 L2318.05346534654,-550 L2311.85148514852,-550 L2311.85148514852,-600 Z" fill="black" />
<path d="M2318.05346534654,-600 L2324.25544554456,-600 L2324.25544554456,-550 L2318.05346534654,-550 L2318.05346534654,-600 Z" fill="#f0f0f0" />
<path d="M2324.25544554456,-600 L2330.45742574258,-600 L2330.45742574258,-550 L2324.25544554456,-550 L2324.25544554456,-600 Z" fill="black" />
<path d="M2330.45742574258,-600 L2336.6594059406,-600 L2336.6594059406,-550 L2330.45742574258,-550 L2330.45742574258,-600 Z" fill="#f0f0f0" />
<path d="M2336.6594059406,-600 L2342.86138613862,-600 L2342.86138613862,-550 L2336.6594059406,-550 L2336.6594059406,-600 Z" fill="black" />
<path d="M2342.86138613862,-600 L2349.0633663366402,-600 L2349.0633663366402,-550 L2342.86138613862,-550 L2342.86138613862,-600 Z" fill="#f0f0f0" />
<path d="M2349.0633663366402,-600 L2355.2653465346602,-600 L2355.2653465346602,-550 L2349.0633663366402,-550 L2349.0633663366402,-600 Z" fill="black" />
<path d="M2355.2653465346602,-600 L2361.4673267326802,-600 L2361.4673267326802,-550 L2355.2653465346602,-550 L2355.2653465346602,-600 Z" fill="#f0f0f0" />
<path d="M2361.4673267326802,-600 L2367.6693069307003,-600 L2367.6693069307003,-550 L2361.4673267326802,-550 L2361.4673267326802,-600 Z" fill="black" />
<path d="M2367.6693069307003,-600 L2373.8712871287203,-600 L2373.8712871287203,-550 L2367.6693069307003,-550 L2367.6693069307003,-600 Z" fill="#f0f0f0" />
<path d="M2373.8712871287203,-600 L2380.0732673267403,-600 L2380.0732673267403,-550 L2373.8712871287203,-550 L2373.8712871287203,-600 Z" fill="black" />
<path d="M2380.0732673267403,-600 L2386.2752475247603,-600 L2386.2752475247603,-550 L2380.0732673267403,-550 L2380.0732673267403,-600 Z" fill="#f0f0f0" />
<path d="M2386.2752475247603,-600 L2392.4772277227803,-600 L2392.4772277227803,-550 L2386.2752475247603,-550 L2386.2752475247603,-600 Z" fill="black" />
<path d="M2392.4772277227803,-600 L2398.6792079208003,-600 L2398.6792079208003,-550 L2392.4772277227803,-550 L2392.4772277227803,-600 Z" fill="#f0f0f0" />
<path d="M2398.6792079208003,-600 L2404.8811881188203,-600 L2404.8811881188203,-550 L2398.6792079208003,-550 L2398.6792079208003,-600 Z" fill="black" />
<path d="M2404.8811881188203,-600 L2411.0831683168403,-600 L2411.0831683168403,-550 L2404.8811881188203,-550 L2404.8811881188203,-600 Z" fill="#f0f0f0" />
<path d="M2411.0831683168403,-600 L2417.2851485148603,-600 L2417.2851485148603,-550 L2411.0831683168403,-550 L2411.0831683168403,-600 Z" fill="black" />
<path d="M2417.2851485148603,-600 L2423.4871287128803,-600 L2423.4871287128803,-550 L2417.2851485148603,-550 L2417.2851485148603,-600 Z" fill="#f0f0f0" />
<path d="M2423.4871287128803,-600 L2429.6891089109004,-600 L2429.6891089109004,-550 L2423.4871287128803,-550 L2423.4871287128803,-600 Z" fill="black" />
<path d="M2429.6891089109004,-600 L2435.8910891089204,-600 L2435.8910891089204,-550 L2429.6891089109004,-550 L2429.6891089109004,-600 Z" fill="#f0f0f0" />
<path d="M2435.8910891089204,-600 L2442.0930693069404,-600 L2442.0930693069404,-550 L2435.8910891089204,-550 L2435.8910891089204,-600 Z" fill="black" />
<path d="M2442.0930693069404,-600 L2448.2950495049604,-600 L2448.2950495049604,-550 L2442.0930693069404,-550 L2442.0930693069404,-600 Z" fill="#f0f0f0" />
<path d="M2448.2950495049604,-600 L2454.4970297029804,-600 L2454.4970297029804,-550 L2448.2950495049604,-550 L2448.2950495049604,-600 Z" fill="black" />
<path d="M2454.4970297029804,-600 L2460.6990099010004,-600 L2460.6990099010004,-550 L2454.4970297029804,-550 L2454.4970297029804,-600 Z" fill="#f0f0f0" />
<path d="M2460.6990099010004,-600 L2466.9009900990204,-600 L2466.9009900990204,-550 L2460.6990099010004,-550 L2460.6990099010004,-600 Z" fill="black" />
<path d="M2466.9009900990204,-600 L2473.1029702970404,-600 L2473.1029702970404,-550 L2466.9009900990204,-550 L2466.9009900990204,-600 Z" fill="#f0f0f0" />
<path d="M2473.1029702970404,-600 L2479.3049504950604,-600 L2479.3049504950604,-550 L2473.1029702970404,-550 L2473.1029702970404,-600 Z" fill="black" />
<path d="M2479.3049504950604,-600 L2485.5069306930804,-600 L2485.5069306930804,-550 L2479.3049504950604,-550 L2479.3049504950604,-600 Z" fill="#f0f0f0" />
<path d="M2485.5069306930804,-600 L2491.7089108911005,-600 L2491.7089108911005,-550 L2485.5069306930804,-550 L2485.5069306930804,-600 Z" fill="black" />
<path d="M2491.7089108911005,-600 L2497.9108910891205,-600 L2497.9108910891205,-550 L2491.7089108911005,-550 L2491.7089108911005,-600 Z" fill="#f0f0f0" />
<path d="M2497.9108910891205,-600 L2504.1128712871405,-600 L2504.1128712871405,-550 L2497.9108910891205,-550 L2497.9108910891205,-600 Z" fill="black" />
<path d="M2504.1128712871405,-600 L2510.3148514851605,-600 L2510.3148514851605,-550 L2504.1128712871405,-550 L2504.1128712871405,-600 Z" fill="#f0f0f0" />
<path d="M2510.3148514851605,-600 L2516.5168316831805,-600 L2516.5168316831805,-550 L2510.3148514851605,-550 L2510.3148514851605,-600 Z" fill="black" />
<path d="M2516.5168316831805,-600 L2522.7188118812005,-600 L2522.7188118812005,-550 L2516.5168316831805,-550 L2516.5168316831805,-600 Z" fill="#f0f0f0" />
<path d="M2522.7188118812005,-600 L2528.9207920792205,-600 L2528.9207920792205,-550 L2522.7188118812005,-550 L2522.7188118812005,-600 Z" fill="black" />
<path d="M2528.9207920792205,-600 L2535.1227722772405,-600 L2535.1227722772405,-550 L2528.9207920792205,-550 L2528.9207920792205,-600 Z" fill="#f0f0f0" />
<path d="M2535.1227722772405,-600 L2541.3247524752605,-600 L2541.3247524752605,-550 L2535.1227722772405,-550 L2535.1227722772405,-600 Z" fill="black" />
<path d="M2541.3247524752605,-600 L2547.5267326732805,-600 L2547.5267326732805,-550 L2541.3247524752605,-550 L2541.3247524752605,-600 Z" fill="#f0f0f0" />
<path d="M2547.5267326732805,-600 L2553.7287128713006,-600 L2553.7287128713006,-550 L2547.5267326732805,-550 L2547.5267326732805,-600 Z" fill="black" />
<path d="M2553.7287128713006,-600 L2559.9306930693206,-600 L2559.9306930693206,-550 L2553.7287128713006,-550 L2553.7287128713006,-600 Z" fill="#f0f0f0" />
<path d="M2559.9306930693206,-600 L2566.1326732673406,-600 L2566.1326732673406,-550 L2559.9306930693206,-550 L2559.9306930693206,-600 Z" fill="black" />
<path d="M2566.1326732673406,-600 L2572.3346534653606,-600 L2572.3346534653606,-550 L2566.1326732673406,-550 L2566.1326732673406,-600 Z" fill="#f0f0f0" />
<path d="M2572.3346534653606,-600 L2578.5366336633806,-600 L2578.5366336633806,-550 L2572.3346534653606,-550 L2572.3346534653606,-600 Z" fill="black" />
<path d="M2578.5366336633806,-600 L2584.7386138614006,-600 L2584.7386138614006,-550 L2578.5366336633806,-550 L2578.5366336633806,-600 Z" fill="#f0f0f0" />
<path d="M2584.7386138614006,-600 L2590.9405940594206,-600 L2590.9405940594206,-550 L2584.7386138614006,-550 L2584.7386138614006,-600 Z" fill="black" />
<path d="M2590.9405940594206,-600 L2597.1425742574406,-600 L2597.1425742574406,-550 L2590.9405940594206,-550 L2590.9405940594206,-600 Z" fill="#f0f0f0" />
<path d="M2597.1425742574406,-600 L2603.3445544554606,-600 L2603.3445544554606,-550 L2597.1425742574406,-550 L2597.1425742574406,-600 Z" fill="black" />
<path d="M2603.3445544554606,-600 L2609.5465346534806,-600 L2609.5465346534806,-550 L2603.3445544554606,-550 L2603.3445544554606,-600 Z" fill="#f0f0f0" />
<path d="M2609.5465346534806,-600 L2615.7485148515007,-600 L2615.7485148515007,-550 L2609.5465346534806,-550 L2609.5465346534806,-600 Z" fill="black" />
<path d="M2615.7485148515007,-600 L2621.9504950495207,-600 L2621.9504950495207,-550 L2615.7485148515007,-550 L2615.7485148515007,-600 Z" fill="#f0f0f0" />
<path d="M2621.9504950495207,-600 L2628.1524752475407,-600 L2628.1524752475407,-550 L2621.9504950495207,-550 L2621.9504950495207,-600 Z" fill="black" />
<path d="M2628.1524752475407,-600 L2634.3544554455607,-600 L2634.3544554455607,-550 L2628.1524752475407,-550 L2628.1524752475407,-600 Z" fill="#f0f0f0" />
<path d="M2634.3544554455607,-600 L2640.5564356435807,-600 L2640.5564356435807,-550 L2634.3544554455607,-550 L2634.3544554455607,-600 Z" fill="black" />
<path d="M2640.5564356435807,-600 L2646.7584158416007,-600 L2646.7584158416007,-550 L2640.5564356435807,-550 L2640.5564356435807,-600 Z" fill="#f0f0f0" />
<path d="M2646.7584158416007,-600 L2652.9603960396207,-600 L2652.9603960396207,-550 L2646.7584158416007,-550 L2646.7584158416007,-600 Z" fill="black" />
<path d="M2652.9603960396207,-600 L2659.1623762376407,-600 L2659.1623762376407,-550 L2652.9603960396207,-550 L2652.9603960396207,-600 Z" fill="#f0f0f0" />
<path d="M2659.1623762376407,-600 L2665.3643564356607,-600 L2665.3643564356607,-550 L2659.1623762376407,-550 L2659.1623762376407,-600 Z" fill="black" />
<path d="M2665.3643564356607,-600 L2671.5663366336807,-600 L2671.5663366336807,-550 L2665.3643564356607,-550 L2665.3643564356607,-600 Z" fill="#f0f0f0" />
<path d="M2671.5663366336807,-600 L2677.7683168317008,-600 L2677.7683168317008,-550 L2671.5663366336807,-550 L2671.5663366336807,-600 Z" fill="black" />
<path d="M2677.7683168317008,-600 L2683.9702970297208,-600 L2683.9702970297208,-550 L2677.7683168317008,-550 L2677.7683168317008,-600 Z" fill="#f0f0f0" />
<path d="M2683.9702970297208,-600 L2690.172277227741,-600 L2690.172277227741,-550 L2683.9702970297208,-550 L2683.9702970297208,-600 Z" fill="black" />
<path d="M2690.172277227741,-600 L2696.374257425761,-600 L2696.374257425761,-550 L2690.172277227741,-550 L2690.172277227741,-600 Z" fill="#f0f0f0" />
<path d="M2696.374257425761,-600 L2702.576237623781,-600 L2702.576237623781,-550 L2696.374257425761,-550 L2696.374257425761,-600 Z" fill="black" />
<path d="M2702.576237623781,-600 L2708.778217821801,-600 L2708.778217821801,-550 L2702.576237623781,-550 L2702.576237623781,-600 Z" fill="#f0f0f0" />
<path d="M2708.778217821801,-600 L2714.980198019821,-600 L2714.980198019821,-550 L2708.778217821801,-550 L2708.778217821801,-600 Z" fill="black" />
<path d="M2714.980198019821,-600 L2721.182178217841,-600 L2721.182178217841,-550 L2714.980198019821,-550 L2714.980198019821,-600 Z" fill="#f0f0f0" />
<path d="M2721.182178217841,-600 L2727.384158415861,-600 L2727.384158415861,-550 L2721.182178217841,-550 L2721.182178217841,-600 Z" fill="black" />
<path d="M2727.384158415861,-600 L2733.586138613881,-600 L2733.586138613881,-550 L2727.384158415861,-550 L2727.384158415861,-600 Z" fill="#f0f0f0" />
<path d="M2733.586138613881,-600 L2739.788118811901,-600 L2739.788118811901,-550 L2733.586138613881,-550 L2733.586138613881,-600 Z" fill="black" />
<path d="M2739.788118811901,-600 L2745.990099009921,-600 L2745.990099009921,-550 L2739.788118811901,-550 L2739.788118811901,-600 Z" fill="#f0f0f0" />
<path d="M2745.990099009921,-600 L2752.192079207941,-600 L2752.192079207941,-550 L2745.990099009921,-550 L2745.990099009921,-600 Z" fill="black" />
<path d="M2752.192079207941,-600 L2758.394059405961,-600 L2758.394059405961,-550 L2752.192079207941,-550 L2752.192079207941,-600 Z" fill="#f0f0f0" />
<path d="M2758.394059405961,-600 L2764.596039603981,-600 L2764.596039603981,-550 L2758.394059405961,-550 L2758.394059405961,-600 Z" fill="black" />
<path d="M2764.596039603981,-600 L2770.798019802001,-600 L2770.798019802001,-550 L2764.596039603981,-550 L2764.596039603981,-600 Z" fill="#f0f0f0" />
<path d="M2770.798019802001,-600 L2777.000000000021,-600 L2777.000000000021,-550 L2770.798019802001,-550 L2770.798019802001,-600 Z" fill="black" />
<text x="2150.6" y="-610" font-size="26" fill="black" dy="0em">CRISPR</text>
<path d="M10.2,-400 L116.2,-400 L116.2,-350 L10.2,-350 L10.2,-400 Z" fill="white" stroke="white" stroke-width="4" />
<path d="M10.2,-400 L16.435294117647057,-400 L16.435294117647057,-350 L10.2,-350 L10.2,-400 Z" fill="black" />
<path d="M16.435294117647057,-400 L22.670588235294115,-400 L22.670588235294115,-350 L16.435294117647057,-350 L16.435294117647057,-400 Z" fill="#f0f0f0" />
<path d="M22.670588235294115,-400 L28.905882352941173,-400 L28.905882352941173,-350 L22.670588235294115,-350 L22.670588235294115,-400 Z" fill="black" />
<path d="M28.905882352941173,-400 L35.141176470588235,-400 L35.141176470588235,-350 L28.905882352941173,-350 L28.905882352941173,-400 Z" fill="#f0f0f0" />
<path d="M35.141176470588235,-400 L41.37647058823529,-400 L41.37647058823529,-350 L35.141176470588235,-350 L35.141176470588235,-400 Z" fill="black" />
<path d="M41.37647058823529,-400 L47.61176470588235,-400 L47.61176470588235,-350 L41.37647058823529,-350 L41.37647058823529,-400 Z" fill="#f0f0f0" />
<path d="M47.61176470588235,-400 L53.84705882352941,-400 L53.84705882352941,-350 L47.61176470588235,-350 L47.61176470588235,-400 Z" fill="black" />
<path d="M53.84705882352941,-400 L60.08235294117647,-400 L60.08235294117647,-350 L53.84705882352941,-350 L53.84705882352941,-400 Z" fill="#f0f0f0" />
<path d="M60.08235294117647,-400 L66.31764705882352,-400 L66.31764705882352,-350 L60.08235294117647,-350 L60.08235294117647,-400 Z" fill="black" />
<path d="M66.31764705882352,-400 L72.55294117647058,-400 L72.55294117647058,-350 L66.31764705882352,-350 L66.31764705882352,-400 Z" fill="#f0f0f0" />
<path d="M72.55294117647058,-400 L78.78823529411764,-400 L78.78823529411764,-350 L72.55294117647058,-350 L72.55294117647058,-400 Z" fill="black" />
<path d="M78.78823529411764,-400 L85.0235294117647,-400 L85.0235294117647,-350 L78.78823529411764,-350 L78.78823529411764,-400 Z" fill="#f0f0f0" />
<path d="M85.0235294117647,-400 L91.25882352941176,-400 L91.25882352941176,-350 L85.0235294117647,-350 L85.0235294117647,-400 Z" fill="black" />
<path d="M91.25882352941176,-400 L97.49411764705881,-400 L97.49411764705881,-350 L91.25882352941176,-350 L91.25882352941176,-400 Z" fill="#f0f0f0" />
<path d="M97.49411764705881,-400 L103.72941176470587,-400 L103.72941176470587,-350 L97.49411764705881,-350 L97.49411764705881,-400 Z" fill="black" />
<path d="M103.72941176470587,-400 L109.96470588235293,-400 L109.96470588235293,-350 L103.72941176470587,-350 L103.72941176470587,-400 Z" fill="#f0f0f0" />
<path d="M109.96470588235293,-400 L116.19999999999999,-400 L116.19999999999999,-350 L109.96470588235293,-350 L109.96470588235293,-400 Z" fill="black" />
<text x="10.2" y="-410" font-size="26" fill="black" dy="0em">CRISPR</text>
<text x="16.0" y="-460" font-size="38" fill="black" dy="0em">Unknown: MDVT01000004_3 (93060-93590)</text>
<path d="M10.2,-200 L43.0,-200 L43.0,-150 L10.2,-150 L10.2,-200 Z" fill="white" stroke="white" stroke-width="4" />
<path d="M10.2,-200 L16.759999999999998,-200 L16.759999999999998,-150 L10.2,-150 L10.2,-200 Z" fill="black" />
<path d="M16.759999999999998,-200 L23.319999999999997,-200 L23.319999999999997,-150 L16.759999999999998,-150 L16.759999999999998,-200 Z" fill="#f0f0f0" />
<path d="M23.319999999999997,-200 L29.879999999999995,-200 L29.879999999999995,-150 L23.319999999999997,-150 L23.319999999999997,-200 Z" fill="black" />
<path d="M29.879999999999995,-200 L36.44,-200 L36.44,-150 L29.879999999999995,-150 L29.879999999999995,-200 Z" fill="#f0f0f0" />
<path d="M36.44,-200 L43.0,-200 L43.0,-150 L36.44,-150 L36.44,-200 Z" fill="black" />
<text x="10.2" y="-210" font-size="26" fill="black" dy="0em">CRISPR</text>
<text x="16.0" y="-260" font-size="38" fill="black" dy="0em">Unknown: MDVT01000006_4 (55-219)</text>
</svg>