<?xml version="1.0" encoding="UTF-8"?>
<svg xmlns="http://www.w3.org/2000/svg" xmlns:xlink="http://www.w3.org/1999/xlink"
     width="2578" height="1200" viewBox="0 -1200 2578 1200">
<defs>
</defs>
<path d="M210,-20 L210,-1120" stroke="grey" stroke-width="1" fill="none" />
<text x="160" y="-1130" font-size="22" fill="grey" dy="0em">1000</text>
<path d="M410,-20 L410,-1120" stroke="grey" stroke-width="1" fill="none" />
<text x="360" y="-1130" font-size="22" fill="grey" dy="0em">2000</text>
<path d="M610,-20 L610,-1120" stroke="grey" stroke-width="1" fill="none" />
<text x="560" y="-1130" font-size="22" fill="grey" dy="0em">3000</text>
<path d="M810,-20 L810,-1120" stroke="grey" stroke-width="1" fill="none" />
<text x="760" y="-1130" font-size="22" fill="grey" dy="0em">4000</text>
<path d="M1010,-20 L1010,-1120" stroke="grey" stroke-width="1" fill="none" />
<text x="960" y="-1130" font-size="22" fill="grey" dy="0em">5000</text>
<path d="M1210,-20 L1210,-1120" stroke="grey" stroke-width="1" fill="none" />
<text x="1160" y="-1130" font-size="22" fill="grey" dy="0em">6000</text>
<path d="M1410,-20 L1410,-1120" stroke="grey" stroke-width="1" fill="none" />
<text x="1360" y="-1130" font-size="22" fill="grey" dy="0em">7000</text>
<path d="M1610,-20 L1610,-1120" stroke="grey" stroke-width="1" fill="none" />
<text x="1560" y="-1130" font-size="22" fill="grey" dy="0em">8000</text>
<path d="M1810,-20 L1810,-1120" stroke="grey" stroke-width="1" fill="none" />
<text x="1760" y="-1130" font-size="22" fill="grey" dy="0em">9000</text>
<path d="M2010,-20 L2010,-1120" stroke="grey" stroke-width="1" fill="none" />
<text x="1960" y="-1130" font-size="22" fill="grey" dy="0em">10000</text>
<path d="M2210,-20 L2210,-1120" stroke="grey" stroke-width="1" fill="none" />
<text x="2160" y="-1130" font-size="22" fill="grey" dy="0em">11000</text>
<path d="M2410,-20 L2410,-1120" stroke="grey" stroke-width="1" fill="none" />
<text x="2360" y="-1130" font-size="22" fill="grey" dy="0em">12000</text>
<text x="16.0" y="-1060" font-size="38" fill="black" dy="0em">I-A: JAVYMY010000014@1 (18566-30954)</text>
<path d="M40.2,-1000 L209.8,-1000 L209.8,-950 L40.2,-950 L10.2,-975.0 L40.2,-1000 Z" fill="#dd1424" fill-opacity="0.8" stroke="#dd1424" stroke-width="4" />
<text x="10.2" y="-1010" font-size="26" fill="black" dy="0em">Cas6</text>
<path d="M244.20000000000002,-1000 L388.6,-1000 L388.6,-950 L244.20000000000002,-950 L214.20000000000002,-975.0 L244.20000000000002,-1000 Z" fill="#efc050" fill-opacity="0.8" stroke="#efc050" stroke-width="4" />
<text x="214.20000000000002" y="-920" font-size="26" fill="black" dy="0em">Cas3HD</text>
<path d="M417.20000000000005,-1000 L702.0,-1000 L702.0,-950 L417.20000000000005,-950 L387.20000000000005,-975.0 L417.20000000000005,-1000 Z" fill="#efc050" fill-opacity="0.8" stroke="#efc050" stroke-width="4" />
<text x="387.20000000000005" y="-1010" font-size="26" fill="black" dy="0em">Cas3</text>
<path d="M787.6,-1000 L990.8000000000001,-1000 L990.8000000000001,-950 L787.6,-950 L757.6,-975.0 L787.6,-1000 Z" fill="#efc050" fill-opacity="0.8" stroke="#efc050" stroke-width="4" />
<text x="757.6" y="-920" font-size="26" fill="black" dy="0em">Cas8a3</text>
<path d="M1020.2,-1000 L1171.8,-1000 L1171.8,-950 L1020.2,-950 L990.2,-975.0 L1020.2,-1000 Z" fill="#efc050" fill-opacity="0.8" stroke="#efc050" stroke-width="4" />
<text x="990.2" y="-1010" font-size="26" fill="black" dy="0em">Cas5</text>
<path d="M1204.6000000000001,-1000 L1392.2,-1000 L1392.2,-950 L1204.6000000000001,-950 L1174.6000000000001,-975.0 L1204.6000000000001,-1000 Z" fill="#efc050" fill-opacity="0.8" stroke="#efc050" stroke-width="4" />
<text x="1174.6000000000001" y="-920" font-size="26" fill="black" dy="0em">Cas7</text>
<path d="M1421.6000000000001,-1000 L1463.4,-1000 L1463.4,-950 L1421.6000000000001,-950 L1391.6000000000001,-975.0 L1421.6000000000001,-1000 Z" fill="#efc050" fill-opacity="0.8" stroke="#efc050" stroke-width="4" />
<text x="1391.6000000000001" y="-1010" font-size="26" fill="black" dy="0em">Csa5gr11</text>
<path d="M1518.8000000000002,-1000 L1615.8000000000002,-1000 L1615.8000000000002,-950 L1518.8000000000002,-950 L1488.8000000000002,-975.0 L1518.8000000000002,-1000 Z" fill="#ff80e6" fill-opacity="0.8" stroke="#ff80e6" stroke-width="4" />
<text x="1488.8000000000002" y="-920" font-size="26" fill="black" dy="0em">CasR</text>
<path d="M1625.0,-1000 L1721.4,-1000 L1751.4,-975.0 L1721.4,-950 L1625.0,-950 L1625.0,-1000 Z" fill="#ff80e6" fill-opacity="0.8" stroke="#ff80e6" stroke-width="4" />
<text x="1625.0" y="-1010" font-size="26" fill="black" dy="0em">CasR</text>
<path d="M1780.8000000000002,-1000 L1854.4,-1000 L1854.4,-950 L1780.8000000000002,-950 L1750.8000000000002,-975.0 L1780.8000000000002,-1000 Z" fill="#5b5ea6" fill-opacity="0.8" stroke="#5b5ea6" stroke-width="4" />
<text x="1750.8000000000002" y="-920" font-size="26" fill="black" dy="0em">Cas4</text>
<path d="M1884.4,-1000 L1910.0,-1000 L1910.0,-950 L1884.4,-950 L1854.4,-975.0 L1884.4,-1000 Z" fill="#5b5ea6" fill-opacity="0.8" stroke="#5b5ea6" stroke-width="4" />
<text x="1854.4" y="-1010" font-size="26" fill="black" dy="0em">Cas2</text>
<path d="M1942.8000000000002,-1000 L2118.4,-1000 L2118.4,-950 L1942.8000000000002,-950 L1912.8000000000002,-975.0 L1942.8000000000002,-1000 Z" fill="#5b5ea6" fill-opacity="0.8" stroke="#5b5ea6" stroke-width="4" />
<text x="1912.8000000000002" y="-920" font-size="26" fill="black" dy="0em">Cas1</text>
<path d="M2140.6,-1000 L2279.0,-1000 L2279.0,-950 L2140.6,-950 L2110.6,-975.0 L2140.6,-1000 Z" fill="#5b5ea6" fill-opacity="0.8" stroke="#5b5ea6" stroke-width="4" />
<text x="2110.6" y="-1010" font-size="26" fill="black" dy="0em">Cas4</text>
<path d="M2365.8,-1000 L2487.8,-1000 L2487.8,-950 L2365.8,-950 L2365.8,-1000 Z" fill="white" stroke="white" stroke-width="4" />
<path d="M2365.8,-1000 L2372.221052631579,-1000 L2372.221052631579,-950 L2365.8,-950 L2365.8,-1000 Z" fill="black" />
<path d="M2372.221052631579,-1000 L2378.6421052631576,-1000 L2378.6421052631576,-950 L2372.221052631579,-950 L2372.221052631579,-1000 Z" fill="#f0f0f0" />
<path d="M2378.6421052631576,-1000 L2385.0631578947364,-1000 L2385.0631578947364,-950 L2378.6421052631576,-950 L2378.6421052631576,-1000 Z" fill="black" />
<path d="M2385.0631578947364,-1000 L2391.484210526315,-1000 L2391.484210526315,-950 L2385.0631578947364,-950 L2385.0631578947364,-1000 Z" fill="#f0f0f0" />
<path d="M2391.484210526315,-1000 L2397.905263157894,-1000 L2397.905263157894,-950 L2391.484210526315,-950 L2391.484210526315,-1000 Z" fill="black" />
<path d="M2397.905263157894,-1000 L2404.3263157894726,-1000 L2404.3263157894726,-950 L2397.905263157894,-950 L2397.905263157894,-1000 Z" fill="#f0f0f0" />
<path d="M2404.3263157894726,-1000 L2410.7473684210513,-1000 L2410.7473684210513,-950 L2404.3263157894726,-950 L2404.3263157894726,-1000 Z" fill="black" />
<path d="M2410.7473684210513,-1000 L2417.16842105263,-1000 L2417.16842105263,-950 L2410.7473684210513,-950 L2410.7473684210513,-1000 Z" fill="#f0f0f0" />
<path d="M2417.16842105263,-1000 L2423.5894736842088,-1000 L2423.5894736842088,-950 L2417.16842105263,-950 L2417.16842105263,-1000 Z" fill="black" />
<path d="M2423.5894736842088,-1000 L2430.0105263157875,-1000 L2430.0105263157875,-950 L2423.5894736842088,-950 L2423.5894736842088,-1000 Z" fill="#f0f0f0" />
<path d="M2430.0105263157875,-1000 L2436.4315789473662,-1000 L2436.4315789473662,-950 L2430.0105263157875,-950 L2430.0105263157875,-1000 Z" fill="black" />
<path d="M2436.4315789473662,-1000 L2442.852631578945,-1000 L2442.852631578945,-950 L2436.4315789473662,-950 L2436.4315789473662,-1000 Z" fill="#f0f0f0" />
<path d="M2442.852631578945,-1000 L2449.2736842105237,-1000 L2449.2736842105237,-950 L2442.852631578945,-950 L2442.852631578945,-1000 Z" fill="black" />
<path d="M2449.2736842105237,-1000 L2455.6947368421024,-1000 L2455.6947368421024,-950 L2449.2736842105237,-950 L2449.2736842105237,-1000 Z" fill="#f0f0f0" />
<path d="M2455.6947368421024,-1000 L2462.115789473681,-1000 L2462.115789473681,-950 L2455.6947368421024,-950 L2455.6947368421024,-1000 Z" fill="black" />
<path d="M2462.115789473681,-1000 L2468.53684210526,-1000 L2468.53684210526,-950 L2462.115789473681,-950 L2462.115789473681,-1000 Z" fill="#f0f0f0" />
<path d="M2468.53684210526,-1000 L2474.9578947368386,-1000 L2474.9578947368386,-950 L2468.53684210526,-950 L2468.53684210526,-1000 Z" fill="black" />
<path d="M2474.9578947368386,-1000 L2481.3789473684174,-1000 L2481.3789473684174,-950 L2474.9578947368386,-950 L2474.9578947368386,-1000 Z" fill="#f0f0f0" />
<path d="M2481.3789473684174,-1000 L2487.799999999996,-1000 L2487.799999999996,-950 L2481.3789473684174,-950 L2481.3789473684174,-1000 Z" fill="black" />
<text x="2365.8" y="-1010" font-size="26" fill="black" dy="0em">CRISPR: I-A</text>
<path d="M10.2,-800 L881.4000000000001,-800 L881.4000000000001,-750 L10.2,-750 L10.2,-800 Z" fill="white" stroke="white" stroke-width="4" />
<path d="M10.2,-800 L16.653333333333332,-800 L16.653333333333332,-750 L10.2,-750 L10.2,-800 Z" fill="black" />
<path d="M16.653333333333332,-800 L23.106666666666666,-800 L23.106666666666666,-750 L16.653333333333332,-750 L16.653333333333332,-800 Z" fill="#f0f0f0" />
<path d="M23.106666666666666,-800 L29.56,-800 L29.56,-750 L23.106666666666666,-750 L23.106666666666666,-800 Z" fill="black" />
<path d="M29.56,-800 L36.013333333333335,-800 L36.013333333333335,-750 L29.56,-750 L29.56,-800 Z" fill="#f0f0f0" />
<path d="M36.013333333333335,-800 L42.46666666666667,-800 L42.46666666666667,-750 L36.013333333333335,-750 L36.013333333333335,-800 Z" fill="black" />
<path d="M42.46666666666667,-800 L48.92,-800 L48.92,-750 L42.46666666666667,-750 L42.46666666666667,-800 Z" fill="#f0f0f0" />
<path d="M48.92,-800 L55.373333333333335,-800 L55.373333333333335,-750 L48.92,-750 L48.92,-800 Z" fill="black" />
<path d="M55.373333333333335,-800 L61.82666666666667,-800 L61.82666666666667,-750 L55.373333333333335,-750 L55.373333333333335,-800 Z" fill="#f0f0f0" />
<path d="M61.82666666666667,-800 L68.28,-800 L68.28,-750 L61.82666666666667,-750 L61.82666666666667,-800 Z" fill="black" />
<path d="M68.28,-800 L74.73333333333333,-800 L74.73333333333333,-750 L68.28,-750 L68.28,-800 Z" fill="#f0f0f0" />
<path d="M74.73333333333333,-800 L81.18666666666667,-800 L81.18666666666667,-750 L74.73333333333333,-750 L74.73333333333333,-800 Z" fill="black" />
<path d="M81.18666666666667,-800 L87.64,-800 L87.64,-750 L81.18666666666667,-750 L81.18666666666667,-800 Z" fill="#f0f0f0" />
<path d="M87.64,-800 L94.09333333333333,-800 L94.09333333333333,-750 L87.64,-750 L87.64,-800 Z" fill="black" />
<path d="M94.09333333333333,-800 L100.54666666666667,-800 L100.54666666666667,-750 L94.09333333333333,-750 L94.09333333333333,-800 Z" fill="#f0f0f0" />
<path d="M100.54666666666667,-800 L107.0,-800 L107.0,-750 L100.54666666666667,-750 L100.54666666666667,-800 Z" fill="black" />
<path d="M107.0,-800 L113.45333333333333,-800 L113.45333333333333,-750 L107.0,-750 L107.0,-800 Z" fill="#f0f0f0" />
<path d="M113.45333333333333,-800 L119.90666666666667,-800 L119.90666666666667,-750 L113.45333333333333,-750 L113.45333333333333,-800 Z" fill="black" />
<path d="M119.90666666666667,-800 L126.36,-800 L126.36,-750 L119.90666666666667,-750 L119.90666666666667,-800 Z" fill="#f0f0f0" />
<path d="M126.36,-800 L132.81333333333333,-800 L132.81333333333333,-750 L126.36,-750 L126.36,-800 Z" fill="black" />
<path d="M132.81333333333333,-800 L139.26666666666668,-800 L139.26666666666668,-750 L132.81333333333333,-750 L132.81333333333333,-800 Z" fill="#f0f0f0" />
<path d="M139.26666666666668,-800 L145.72000000000003,-800 L145.72000000000003,-750 L139.26666666666668,-750 L139.26666666666668,-800 Z" fill="black" />
<path d="M145.72000000000003,-800 L152.17333333333337,-800 L152.17333333333337,-750 L145.72000000000003,-750 L145.72000000000003,-800 Z" fill="#f0f0f0" />
<path d="M152.17333333333337,-800 L158.62666666666672,-800 L158.62666666666672,-750 L152.17333333333337,-750 L152.17333333333337,-800 Z" fill="black" />
<path d="M158.62666666666672,-800 L165.08000000000007,-800 L165.08000000000007,-750 L158.62666666666672,-750 L158.62666666666672,-800 Z" fill="#f0f0f0" />
<path d="M165.08000000000007,-800 L171.53333333333342,-800 L171.53333333333342,-750 L165.08000000000007,-750 L165.08000000000007,-800 Z" fill="black" />
<path d="M171.53333333333342,-800 L177.98666666666676,-800 L177.98666666666676,-750 L171.53333333333342,-750 L171.53333333333342,-800 Z" fill="#f0f0f0" />
<path d="M177.98666666666676,-800 L184.4400000000001,-800 L184.4400000000001,-750 L177.98666666666676,-750 L177.98666666666676,-800 Z" fill="black" />
<path d="M184.4400000000001,-800 L190.89333333333346,-800 L190.89333333333346,-750 L184.4400000000001,-750 L184.4400000000001,-800 Z" fill="#f0f0f0" />
<path d="M190.89333333333346,-800 L197.3466666666668,-800 L197.3466666666668,-750 L190.89333333333346,-750 L190.89333333333346,-800 Z" fill="black" />
<path d="M197.3466666666668,-800 L203.80000000000015,-800 L203.80000000000015,-750 L197.3466666666668,-750 L197.3466666666668,-800 Z" fill="#f0f0f0" />
<path d="M203.80000000000015,-800 L210.2533333333335,-800 L210.2533333333335,-750 L203.80000000000015,-750 L203.80000000000015,-800 Z" fill="black" />
<path d="M210.2533333333335,-800 L216.70666666666685,-800 L216.70666666666685,-750 L210.2533333333335,-750 L210.2533333333335,-800 Z" fill="#f0f0f0" />
<path d="M216.70666666666685,-800 L223.1600000000002,-800 L223.1600000000002,-750 L216.70666666666685,-750 L216.70666666666685,-800 Z" fill="black" />
<path d="M223.1600000000002,-800 L229.61333333333354,-800 L229.61333333333354,-750 L223.1600000000002,-750 L223.1600000000002,-800 Z" fill="#f0f0f0" />
<path d="M229.61333333333354,-800 L236.0666666666669,-800 L236.0666666666669,-750 L229.61333333333354,-750 L229.61333333333354,-800 Z" fill="black" />
<path d="M236.0666666666669,-800 L242.52000000000024,-800 L242.52000000000024,-750 L236.0666666666669,-750 L236.0666666666669,-800 Z" fill="#f0f0f0" />
<path d="M242.52000000000024,-800 L248.97333333333358,-800 L248.97333333333358,-750 L242.52000000000024,-750 L242.52000000000024,-800 Z" fill="black" />
<path d="M248.97333333333358,-800 L255.42666666666693,-800 L255.42666666666693,-750 L248.97333333333358,-750 L248.97333333333358,-800 Z" fill="#f0f0f0" />
<path d="M255.42666666666693,-800 L261.8800000000003,-800 L261.8800000000003,-750 L255.42666666666693,-750 L255.42666666666693,-800 Z" fill="black" />
<path d="M261.8800000000003,-800 L268.3333333333336,-800 L268.3333333333336,-750 L261.8800000000003,-750 L261.8800000000003,-800 Z" fill="#f0f0f0" />
<path d="M268.3333333333336,-800 L274.7866666666669,-800 L274.7866666666669,-750 L268.3333333333336,-750 L268.3333333333336,-800 Z" fill="black" />
<path d="M274.7866666666669,-800 L281.24000000000024,-800 L281.24000000000024,-750 L274.7866666666669,-750 L274.7866666666669,-800 Z" fill="#f0f0f0" />
<path d="M281.24000000000024,-800 L287.69333333333356,-800 L287.69333333333356,-750 L281.24000000000024,-750 L281.24000000000024,-800 Z" fill="black" />
<path d="M287.69333333333356,-800 L294.1466666666669,-800 L294.1466666666669,-750 L287.69333333333356,-750 L287.69333333333356,-800 Z" fill="#f0f0f0" />
<path d="M294.1466666666669,-800 L300.6000000000002,-800 L300.6000000000002,-750 L294.1466666666669,-750 L294.1466666666669,-800 Z" fill="black" />
<path d="M300.6000000000002,-800 L307.0533333333335,-800 L307.0533333333335,-750 L300.6000000000002,-750 L300.6000000000002,-800 Z" fill="#f0f0f0" />
<path d="M307.0533333333335,-800 L313.50666666666683,-800 L313.50666666666683,-750 L307.0533333333335,-750 L307.0533333333335,-800 Z" fill="black" />
<path d="M313.50666666666683,-800 L319.96000000000015,-800 L319.96000000000015,-750 L313.50666666666683,-750 L313.50666666666683,-800 Z" fill="#f0f0f0" />
<path d="M319.96000000000015,-800 L326.41333333333347,-800 L326.41333333333347,-750 L319.96000000000015,-750 L319.96000000000015,-800 Z" fill="black" />
<path d="M326.41333333333347,-800 L332.8666666666668,-800 L332.8666666666668,-750 L326.41333333333347,-750 L326.41333333333347,-800 Z" fill="#f0f0f0" />
<path d="M332.8666666666668,-800 L339.3200000000001,-800 L339.3200000000001,-750 L332.8666666666668,-750 L332.8666666666668,-800 Z" fill="black" />
<path d="M339.3200000000001,-800 L345.7733333333334,-800 L345.7733333333334,-750 L339.3200000000001,-750 L339.3200000000001,-800 Z" fill="#f0f0f0" />
<path d="M345.7733333333334,-800 L352.22666666666674,-800 L352.22666666666674,-750 L345.7733333333334,-750 L345.7733333333334,-800 Z" fill="black" />
<path d="M352.22666666666674,-800 L358.68000000000006,-800 L358.68000000000006,-750 L352.22666666666674,-750 L352.22666666666674,-800 Z" fill="#f0f0f0" />
<path d="M358.68000000000006,-800 L365.1333333333334,-800 L365.1333333333334,-750 L358.68000000000006,-750 L358.68000000000006,-800 Z" fill="black" />
<path d="M365.1333333333334,-800 L371.5866666666667,-800 L371.5866666666667,-750 L365.1333333333334,-750 L365.1333333333334,-800 Z" fill="#f0f0f0" />
<path d="M371.5866666666667,-800 L378.04,-800 L378.04,-750 L371.5866666666667,-750 L371.5866666666667,-800 Z" fill="black" />
<path d="M378.04,-800 L384.49333333333334,-800 L384.49333333333334,-750 L378.04,-750 L378.04,-800 Z" fill="#f0f0f0" />
<path d="M384.49333333333334,-800 L390.94666666666666,-800 L390.94666666666666,-750 L384.49333333333334,-750 L384.49333333333334,-800 Z" fill="black" />
<path d="M390.94666666666666,-800 L397.4,-800 L397.4,-750 L390.94666666666666,-750 L390.94666666666666,-800 Z" fill="#f0f0f0" />
<path d="M397.4,-800 L403.8533333333333,-800 L403.8533333333333,-750 L397.4,-750 L397.4,-800 Z" fill="black" />
<path d="M403.8533333333333,-800 L410.3066666666666,-800 L410.3066666666666,-750 L403.8533333333333,-750 L403.8533333333333,-800 Z" fill="#f0f0f0" />
<path d="M410.3066666666666,-800 L416.75999999999993,-800 L416.75999999999993,-750 L410.3066666666666,-750 L410.3066666666666,-800 Z" fill="black" />
<path d="M416.75999999999993,-800 L423.21333333333325,-800 L423.21333333333325,-750 L416.75999999999993,-750 L416.75999999999993,-800 Z" fill="#f0f0f0" />
<path d="M423.21333333333325,-800 L429.6666666666666,-800 L429.6666666666666,-750 L423.21333333333325,-750 L423.21333333333325,-800 Z" fill="black" />
<path d="M429.6666666666666,-800 L436.1199999999999,-800 L436.1199999999999,-750 L429.6666666666666,-750 L429.6666666666666,-800 Z" fill="#f0f0f0" />
<path d="M436.1199999999999,-800 L442.5733333333332,-800 L442.5733333333332,-750 L436.1199999999999,-750 L436.1199999999999,-800 Z" fill="black" />
<path d="M442.5733333333332,-800 L449.02666666666653,-800 L449.02666666666653,-750 L442.5733333333332,-750 L442.5733333333332,-800 Z" fill="#f0f0f0" />
<path d="M449.02666666666653,-800 L455.47999999999985,-800 L455.47999999999985,-750 L449.02666666666653,-750 L449.02666666666653,-800 Z" fill="black" />
<path d="M455.47999999999985,-800 L461.93333333333317,-800 L461.93333333333317,-750 L455.47999999999985,-750 L455.47999999999985,-800 Z" fill="#f0f0f0" />
<path d="M461.93333333333317,-800 L468.3866666666665,-800 L468.3866666666665,-750 L461.93333333333317,-750 L461.93333333333317,-800 Z" fill="black" />
<path d="M468.3866666666665,-800 L474.8399999999998,-800 L474.8399999999998,-750 L468.3866666666665,-750 L468.3866666666665,-800 Z" fill="#f0f0f0" />
<path d="M474.8399999999998,-800 L481.2933333333331,-800 L481.2933333333331,-750 L474.8399999999998,-750 L474.8399999999998,-800 Z" fill="black" />
<path d="M481.2933333333331,-800 L487.74666666666644,-800 L487.74666666666644,-750 L481.2933333333331,-750 L481.2933333333331,-800 Z" fill="#f0f0f0" />
<path d="M487.74666666666644,-800 L494.19999999999976,-800 L494.19999999999976,-750 L487.74666666666644,-750 L487.74666666666644,-800 Z" fill="black" />
<path d="M494.19999999999976,-800 L500.6533333333331,-800 L500.6533333333331,-750 L494.19999999999976,-750 L494.19999999999976,-800 Z" fill="#f0f0f0" />
<path d="M500.6533333333331,-800 L507.1066666666664,-800 L507.1066666666664,-750 L500.6533333333331,-750 L500.6533333333331,-800 Z" fill="black" />
<path d="M507.1066666666664,-800 L513.5599999999997,-800 L513.5599999999997,-750 L507.1066666666664,-750 L507.1066666666664,-800 Z" fill="#f0f0f0" />
<path d="M513.5599999999997,-800 L520.0133333333331,-800 L520.0133333333331,-750 L513.5599999999997,-750 L513.5599999999997,-800 Z" fill="black" />
<path d="M520.0133333333331,-800 L526.4666666666665,-800 L526.4666666666665,-750 L520.0133333333331,-750 L520.0133333333331,-800 Z" fill="#f0f0f0" />
<path d="M526.4666666666665,-800 L532.9199999999998,-800 L532.9199999999998,-750 L526.4666666666665,-750 L526.4666666666665,-800 Z" fill="black" />
<path d="M532.9199999999998,-800 L539.3733333333332,-800 L539.3733333333332,-750 L532.9199999999998,-750 L532.9199999999998,-800 Z" fill="#f0f0f0" />
<path d="M539.3733333333332,-800 L545.8266666666666,-800 L545.8266666666666,-750 L539.3733333333332,-750 L539.3733333333332,-800 Z" fill="black" />
<path d="M545.8266666666666,-800 L552.28,-800 L552.28,-750 L545.8266666666666,-750 L545.8266666666666,-800 Z" fill="#f0f0f0" />
<path d="M552.28,-800 L558.7333333333333,-800 L558.7333333333333,-750 L552.28,-750 L552.28,-800 Z" fill="black" />
<path d="M558.7333333333333,-800 L565.1866666666667,-800 L565.1866666666667,-750 L558.7333333333333,-750 L558.7333333333333,-800 Z" fill="#f0f0f0" />
<path d="M565.1866666666667,-800 L571.6400000000001,-800 L571.6400000000001,-750 L565.1866666666667,-750 L565.1866666666667,-800 Z" fill="black" />
<path d="M571.6400000000001,-800 L578.0933333333335,-800 L578.0933333333335,-750 L571.6400000000001,-750 L571.6400000000001,-800 Z" fill="#f0f0f0" />
<path d="M578.0933333333335,-800 L584.5466666666669,-800 L584.5466666666669,-750 L578.0933333333335,-750 L578.0933333333335,-800 Z" fill="black" />
<path d="M584.5466666666669,-800 L591.0000000000002,-800 L591.0000000000002,-750 L584.5466666666669,-750 L584.5466666666669,-800 Z" fill="#f0f0f0" />
<path d="M591.0000000000002,-800 L597.4533333333336,-800 L597.4533333333336,-750 L591.0000000000002,-750 L591.0000000000002,-800 Z" fill="black" />
<path d="M597.4533333333336,-800 L603.906666666667,-800 L603.906666666667,-750 L597.4533333333336,-750 L597.4533333333336,-800 Z" fill="#f0f0f0" />
<path d="M603.906666666667,-800 L610.3600000000004,-800 L610.3600000000004,-750 L603.906666666667,-750 L603.906666666667,-800 Z" fill="black" />
<path d="M610.3600000000004,-800 L616.8133333333337,-800 L616.8133333333337,-750 L610.3600000000004,-750 L610.3600000000004,-800 Z" fill="#f0f0f0" />
<path d="M616.8133333333337,-800 L623.2666666666671,-800 L623.2666666666671,-750 L616.8133333333337,-750 L616.8133333333337,-800 Z" fill="black" />
<path d="M623.2666666666671,-800 L629.7200000000005,-800 L629.7200000000005,-750 L623.2666666666671,-750 L623.2666666666671,-800 Z" fill="#f0f0f0" />
<path d="M629.7200000000005,-800 L636.1733333333339,-800 L636.1733333333339,-750 L629.7200000000005,-750 L629.7200000000005,-800 Z" fill="black" />
<path d="M636.1733333333339,-800 L642.6266666666672,-800 L642.6266666666672,-750 L636.1733333333339,-750 L636.1733333333339,-800 Z" fill="#f0f0f0" />
<path d="M642.6266666666672,-800 L649.0800000000006,-800 L649.0800000000006,-750 L642.6266666666672,-750 L642.6266666666672,-800 Z" fill="black" />
<path d="M649.0800000000006,-800 L655.533333333334,-800 L655.533333333334,-750 L649.0800000000006,-750 L649.0800000000006,-800 Z" fill="#f0f0f0" />
<path d="M655.533333333334,-800 L661.9866666666674,-800 L661.9866666666674,-750 L655.533333333334,-750 L655.533333333334,-800 Z" fill="black" />
<path d="M661.9866666666674,-800 L668.4400000000007,-800 L668.4400000000007,-750 L661.9866666666674,-750 L661.9866666666674,-800 Z" fill="#f0f0f0" />
<path d="M668.4400000000007,-800 L674.8933333333341,-800 L674.8933333333341,-750 L668.4400000000007,-750 L668.4400000000007,-800 Z" fill="black" />
<path d="M674.8933333333341,-800 L681.3466666666675,-800 L681.3466666666675,-750 L674.8933333333341,-750 L674.8933333333341,-800 Z" fill="#f0f0f0" />
<path d="M681.3466666666675,-800 L687.8000000000009,-800 L687.8000000000009,-750 L681.3466666666675,-750 L681.3466666666675,-800 Z" fill="black" />
<path d="M687.8000000000009,-800 L694.2533333333342,-800 L694.2533333333342,-750 L687.8000000000009,-750 L687.8000000000009,-800 Z" fill="#f0f0f0" />
<path d="M694.2533333333342,-800 L700.7066666666676,-800 L700.7066666666676,-750 L694.2533333333342,-750 L694.2533333333342,-800 Z" fill="black" />
<path d="M700.7066666666676,-800 L707.160000000001,-800 L707.160000000001,-750 L700.7066666666676,-750 L700.7066666666676,-800 Z" fill="#f0f0f0" />
<path d="M707.160000000001,-800 L713.6133333333344,-800 L713.6133333333344,-750 L707.160000000001,-750 L707.160000000001,-800 Z" fill="black" />
<path d="M713.6133333333344,-800 L720.0666666666677,-800 L720.0666666666677,-750 L713.6133333333344,-750 L713.6133333333344,-800 Z" fill="#f0f0f0" />
<path d="M720.0666666666677,-800 L726.5200000000011,-800 L726.5200000000011,-750 L720.0666666666677,-750 L720.0666666666677,-800 Z" fill="black" />
<path d="M726.5200000000011,-800 L732.9733333333345,-800 L732.9733333333345,-750 L726.5200000000011,-750 L726.5200000000011,-800 Z" fill="#f0f0f0" />
<path d="M732.9733333333345,-800 L739.4266666666679,-800 L739.4266666666679,-750 L732.9733333333345,-750 L732.9733333333345,-800 Z" fill="black" />
<path d="M739.4266666666679,-800 L745.8800000000012,-800 L745.8800000000012,-750 L739.4266666666679,-750 L739.4266666666679,-800 Z" fill="#f0f0f0" />
<path d="M745.8800000000012,-800 L752.3333333333346,-800 L752.3333333333346,-750 L745.8800000000012,-750 L745.8800000000012,-800 Z" fill="black" />
<path d="M752.3333333333346,-800 L758.786666666668,-800 L758.786666666668,-750 L752.3333333333346,-750 L752.3333333333346,-800 Z" fill="#f0f0f0" />
<path d="M758.786666666668,-800 L765.2400000000014,-800 L765.2400000000014,-750 L758.786666666668,-750 L758.786666666668,-800 Z" fill="black" />
<path d="M765.2400000000014,-800 L771.6933333333347,-800 L771.6933333333347,-750 L765.2400000000014,-750 L765.2400000000014,-800 Z" fill="#f0f0f0" />
<path d="M771.6933333333347,-800 L778.1466666666681,-800 L778.1466666666681,-750 L771.6933333333347,-750 L771.6933333333347,-800 Z" fill="black" />
<path d="M778.1466666666681,-800 L784.6000000000015,-800 L784.6000000000015,-750 L778.1466666666681,-750 L778.1466666666681,-800 Z" fill="#f0f0f0" />
<path d="M784.6000000000015,-800 L791.0533333333349,-800 L791.0533333333349,-750 L784.6000000000015,-750 L784.6000000000015,-800 Z" fill="black" />
<path d="M791.0533333333349,-800 L797.5066666666683,-800 L797.5066666666683,-750 L791.0533333333349,-750 L791.0533333333349,-800 Z" fill="#f0f0f0" />
<path d="M797.5066666666683,-800 L803.9600000000016,-800 L803.9600000000016,-750 L797.5066666666683,-750 L797.5066666666683,-800 Z" fill="black" />
<path d="M803.9600000000016,-800 L810.413333333335,-800 L810.413333333335,-750 L803.9600000000016,-750 L803.9600000000016,-800 Z" fill="#f0f0f0" />
<path d="M810.413333333335,-800 L816.8666666666684,-800 L816.8666666666684,-750 L810.413333333335,-750 L810.413333333335,-800 Z" fill="black" />
<path d="M816.8666666666684,-800 L823.3200000000018,-800 L823.3200000000018,-750 L816.8666666666684,-750 L816.8666666666684,-800 Z" fill="#f0f0f0" />
<path d="M823.3200000000018,-800 L829.7733333333351,-800 L829.7733333333351,-750 L823.3200000000018,-750 L823.3200000000018,-800 Z" fill="black" />
<path d="M829.7733333333351,-800 L836.2266666666685,-800 L836.2266666666685,-750 L829.7733333333351,-750 L829.7733333333351,-800 Z" fill="#f0f0f0" />
<path d="M836.2266666666685,-800 L842.6800000000019,-800 L842.6800000000019,-750 L836.2266666666685,-750 L836.2266666666685,-800 Z" fill="black" />
<path d="M842.6800000000019,-800 L849.1333333333353,-800 L849.1333333333353,-750 L842.6800000000019,-750 L842.6800000000019,-800 Z" fill="#f0f0f0" />
<path d="M849.1333333333353,-800 L855.5866666666686,-800 L855.5866666666686,-750 L849.1333333333353,-750 L849.1333333333353,-800 Z" fill="black" />
<path d="M855.5866666666686,-800 L862.040000000002,-800 L862.040000000002,-750 L855.5866666666686,-750 L855.5866666666686,-800 Z" fill="#f0f0f0" />
<path d="M862.040000000002,-800 L868.4933333333354,-800 L868.4933333333354,-750 L862.040000000002,-750 L862.040000000002,-800 Z" fill="black" />
<path d="M868.4933333333354,-800 L874.9466666666688,-800 L874.9466666666688,-750 L868.4933333333354,-750 L868.4933333333354,-800 Z" fill="#f0f0f0" />
<path d="M874.9466666666688,-800 L881.4000000000021,-800 L881.4000000000021,-750 L874.9466666666688,-750 L874.9466666666688,-800 Z" fill="black" />
<text x="10.2" y="-810" font-size="26" fill="black" dy="0em">CRISPR: I-A</text>
<text x="16.0" y="-860" font-size="38" fill="black" dy="0em">I-A: JAVYMY010000013_1 (14-4370)</text>
<path d="M10.2,-600 L326.20000000000005,-600 L326.20000000000005,-550 L10.2,-550 L10.2,-600 Z" fill="white" stroke="white" stroke-width="4" />
<path d="M10.2,-600 L16.648979591836735,-600 L16.648979591836735,-550 L10.2,-550 L10.2,-600 Z" fill="black" />
<path d="M16.648979591836735,-600 L23.09795918367347,-600 L23.09795918367347,-550 L16.648979591836735,-550 L16.648979591836735,-600 Z" fill="#f0f0f0" />
<path d="M23.09795918367347,-600 L29.546938775510206,-600 L29.546938775510206,-550 L23.09795918367347,-550 L23.09795918367347,-600 Z" fill="black" />
<path d="M29.546938775510206,-600 L35.99591836734694,-600 L35.99591836734694,-550 L29.546938775510206,-550 L29.546938775510206,-600 Z" fill="#f0f0f0" />
<path d="M35.99591836734694,-600 L42.44489795918367,-600 L42.44489795918367,-550 L35.99591836734694,-550 L35.99591836734694,-600 Z" fill="black" />
<path d="M42.44489795918367,-600 L48.8938775510204,-600 L48.8938775510204,-550 L42.44489795918367,-550 L42.44489795918367,-600 Z" fill="#f0f0f0" />
<path d="M48.8938775510204,-600 L55.342857142857135,-600 L55.342857142857135,-550 L48.8938775510204,-550 L48.8938775510204,-600 Z" fill="black" />
<path d="M55.342857142857135,-600 L61.79183673469387,-600 L61.79183673469387,-550 L55.342857142857135,-550 L55.342857142857135,-600 Z" fill="#f0f0f0" />
<path d="M61.79183673469387,-600 L68.2408163265306,-600 L68.2408163265306,-550 L61.79183673469387,-550 L61.79183673469387,-600 Z" fill="black" />
<path d="M68.2408163265306,-600 L74.68979591836734,-600 L74.68979591836734,-550 L68.2408163265306,-550 L68.2408163265306,-600 Z" fill="#f0f0f0" />
<path d="M74.68979591836734,-600 L81.13877551020407,-600 L81.13877551020407,-550 L74.68979591836734,-550 L74.68979591836734,-600 Z" fill="black" />
<path d="M81.13877551020407,-600 L87.5877551020408,-600 L87.5877551020408,-550 L81.13877551020407,-550 L81.13877551020407,-600 Z" fill="#f0f0f0" />
<path d="M87.5877551020408,-600 L94.03673469387753,-600 L94.03673469387753,-550 L87.5877551020408,-550 L87.5877551020408,-600 Z" fill="black" />
<path d="M94.03673469387753,-600 L100.48571428571427,-600 L100.48571428571427,-550 L94.03673469387753,-550 L94.03673469387753,-600 Z" fill="#f0f0f0" />
<path d="M100.48571428571427,-600 L106.934693877551,-600 L106.934693877551,-550 L100.48571428571427,-550 L100.48571428571427,-600 Z" fill="black" />
<path d="M106.934693877551,-600 L113.38367346938773,-600 L113.38367346938773,-550 L106.934693877551,-550 L106.934693877551,-600 Z" fill="#f0f0f0" />
<path d="M113.38367346938773,-600 L119.83265306122446,-600 L119.83265306122446,-550 L113.38367346938773,-550 L113.38367346938773,-600 Z" fill="black" />
<path d="M119.83265306122446,-600 L126.2816326530612,-600 L126.2816326530612,-550 L119.83265306122446,-550 L119.83265306122446,-600 Z" fill="#f0f0f0" />
<path d="M126.2816326530612,-600 L132.73061224489794,-600 L132.73061224489794,-550 L126.2816326530612,-550 L126.2816326530612,-600 Z" fill="black" />
<path d="M132.73061224489794,-600 L139.1795918367347,-600 L139.1795918367347,-550 L132.73061224489794,-550 L132.73061224489794,-600 Z" fill="#f0f0f0" />
<path d="M139.1795918367347,-600 L145.62857142857143,-600 L145.62857142857143,-550 L139.1795918367347,-550 L139.1795918367347,-600 Z" fill="black" />
<path d="M145.62857142857143,-600 L152.07755102040818,-600 L152.07755102040818,-550 L145.62857142857143,-550 L145.62857142857143,-600 Z" fill="#f0f0f0" />
<path d="M152.07755102040818,-600 L158.52653061224493,-600 L158.52653061224493,-550 L152.07755102040818,-550 L152.07755102040818,-600 Z" fill="black" />
<path d="M158.52653061224493,-600 L164.97551020408167,-600 L164.97551020408167,-550 L158.52653061224493,-550 L158.52653061224493,-600 Z" fill="#f0f0f0" />
<path d="M164.97551020408167,-600 L171.42448979591842,-600 L171.42448979591842,-550 L164.97551020408167,-550 L164.97551020408167,-600 Z" fill="black" />
<path d="M171.42448979591842,-600 L177.87346938775516,-600 L177.87346938775516,-550 L171.42448979591842,-550 L171.42448979591842,-600 Z" fill="#f0f0f0" />
<path d="M177.87346938775516,-600 L184.3224489795919,-600 L184.3224489795919,-550 L177.87346938775516,-550 L177.87346938775516,-600 Z" fill="black" />
<path d="M184.3224489795919,-600 L190.77142857142866,-600 L190.77142857142866,-550 L184.3224489795919,-550 L184.3224489795919,-600 Z" fill="#f0f0f0" />
<path d="M190.77142857142866,-600 L197.2204081632654,-600 L197.2204081632654,-550 L190.77142857142866,-550 L190.77142857142866,-600 Z" fill="black" />
<path d="M197.2204081632654,-600 L203.66938775510215,-600 L203.66938775510215,-550 L197.2204081632654,-550 L197.2204081632654,-600 Z" fill="#f0f0f0" />
<path d="M203.66938775510215,-600 L210.1183673469389,-600 L210.1183673469389,-550 L203.66938775510215,-550 L203.66938775510215,-600 Z" fill="black" />
<path d="M210.1183673469389,-600 L216.56734693877564,-600 L216.56734693877564,-550 L210.1183673469389,-550 L210.1183673469389,-600 Z" fill="#f0f0f0" />
<path d="M216.56734693877564,-600 L223.0163265306124,-600 L223.0163265306124,-550 L216.56734693877564,-550 L216.56734693877564,-600 Z" fill="black" />
<path d="M223.0163265306124,-600 L229.46530612244914,-600 L229.46530612244914,-550 L223.0163265306124,-550 L223.0163265306124,-600 Z" fill="#f0f0f0" />
<path d="M229.46530612244914,-600 L235.91428571428588,-600 L235.91428571428588,-550 L229.46530612244914,-550 L229.46530612244914,-600 Z" fill="black" />
<path d="M235.91428571428588,-600 L242.36326530612263,-600 L242.36326530612263,-550 L235.91428571428588,-550 L235.91428571428588,-600 Z" fill="#f0f0f0" />
<path d="M242.36326530612263,-600 L248.81224489795937,-600 L248.81224489795937,-550 L242.36326530612263,-550 L242.36326530612263,-600 Z" fill="black" />
<path d="M248.81224489795937,-600 L255.26122448979612,-600 L255.26122448979612,-550 L248.81224489795937,-550 L248.81224489795937,-600 Z" fill="#f0f0f0" />
<path d="M255.26122448979612,-600 L261.71020408163287,-600 L261.71020408163287,-550 L255.26122448979612,-550 L255.26122448979612,-600 Z" fill="black" />
<path d="M261.71020408163287,-600 L268.1591836734696,-600 L268.1591836734696,-550 L261.71020408163287,-550 L261.71020408163287,-600 Z" fill="#f0f0f0" />
<path d="M268.1591836734696,-600 L274.60816326530636,-600 L274.60816326530636,-550 L268.1591836734696,-550 L268.1591836734696,-600 Z" fill="black" />
<path d="M274.60816326530636,-600 L281.0571428571431,-600 L281.0571428571431,-550 L274.60816326530636,-550 L274.60816326530636,-600 Z" fill="#f0f0f0" />
<path d="M281.0571428571431,-600 L287.50612244897985,-600 L287.50612244897985,-550 L281.0571428571431,-550 L281.0571428571431,-600 Z" fill="black" />
<path d="M287.50612244897985,-600 L293.9551020408166,-600 L293.9551020408166,-550 L287.50612244897985,-550 L287.50612244897985,-600 Z" fill="#f0f0f0" />
<path d="M293.9551020408166,-600 L300.40408163265334,-600 L300.40408163265334,-550 L293.9551020408166,-550 L293.9551020408166,-600 Z" fill="black" />
<path d="M300.40408163265334,-600 L306.8530612244901,-600 L306.8530612244901,-550 L300.40408163265334,-550 L300.40408163265334,-600 Z" fill="#f0f0f0" />
<path d="M306.8530612244901,-600 L313.30204081632684,-600 L313.30204081632684,-550 L306.8530612244901,-550 L306.8530612244901,-600 Z" fill="black" />
<path d="M313.30204081632684,-600 L319.7510204081636,-600 L319.7510204081636,-550 L313.30204081632684,-550 L313.30204081632684,-600 Z" fill="#f0f0f0" />
<path d="M319.7510204081636,-600 L326.20000000000033,-600 L326.20000000000033,-550 L319.7510204081636,-550 L319.7510204081636,-600 Z" fill="black" />
<text x="10.2" y="-610" font-size="26" fill="black" dy="0em">CRISPR: I-A</text>
<text x="16.0" y="-660" font-size="38" fill="black" dy="0em">I-A: JAVYMY010000023_3 (172-1752)</text>
<path d="M10.2,-400 L67.0,-400 L67.0,-350 L10.2,-350 L10.2,-400 Z" fill="white" stroke="white" stroke-width="4" />
<path d="M10.2,-400 L16.51111111111111,-400 L16.51111111111111,-350 L10.2,-350 L10.2,-400 Z" fill="black" />
<path d="M16.51111111111111,-400 L22.82222222222222,-400 L22.82222222222222,-350 L16.51111111111111,-350 L16.51111111111111,-400 Z" fill="#f0f0f0" />
<path d="M22.82222222222222,-400 L29.13333333333333,-400 L29.13333333333333,-350 L22.82222222222222,-350 L22.82222222222222,-400 Z" fill="black" />
<path d="M29.13333333333333,-400 L35.44444444444444,-400 L35.44444444444444,-350 L29.13333333333333,-350 L29.13333333333333,-400 Z" fill="#f0f0f0" />
<path d="M35.44444444444444,-400 L41.75555555555555,-400 L41.75555555555555,-350 L35.44444444444444,-350 L35.44444444444444,-400 Z" fill="black" />
<path d="M41.75555555555555,-400 L48.06666666666666,-400 L48.06666666666666,-350 L41.75555555555555,-350 L41.75555555555555,-400 Z" fill="#f0f0f0" />
<path d="M48.06666666666666,-400 L54.37777777777777,-400 L54.37777777777777,-350 L48.06666666666666,-350 L48.06666666666666,-400 Z" fill="black" />
<path d="M54.37777777777777,-400 L60.68888888888888,-400 L60.68888888888888,-350 L54.37777777777777,-350 L54.37777777777777,-400 Z" fill="#f0f0f0" />
<path d="M60.68888888888888,-400 L67.0,-400 L67.0,-350 L60.68888888888888,-350 L60.68888888888888,-400 Z" fill="black" />
<text x="10.2" y="-410" font-size="26" fill="black" dy="0em">CRISPR: I-A</text>
<text x="16.0" y="-460" font-size="38" fill="black" dy="0em">I-A: JAVYMY010000033_4 (4970-5254)</text>
<path d="M10.2,-200 L315.2,-200 L315.2,-150 L10.2,-150 L10.2,-200 Z" fill="white" stroke="white" stroke-width="4" />
<path d="M10.2,-200 L16.68936170212766,-200 L16.68936170212766,-150 L10.2,-150 L10.2,-200 Z" fill="black" />
<path d="M16.68936170212766,-200 L23.17872340425532,-200 L23.17872340425532,-150 L16.68936170212766,-150 L16.68936170212766,-200 Z" fill="#f0f0f0" />
<path d="M23.17872340425532,-200 L29.66808510638298,-200 L29.66808510638298,-150 L23.17872340425532,-150 L23.17872340425532,-200 Z" fill="black" />
<path d="M29.66808510638298,-200 L36.15744680851064,-200 L36.15744680851064,-150 L29.66808510638298,-150 L29.66808510638298,-200 Z" fill="#f0f0f0" />
<path d="M36.15744680851064,-200 L42.6468085106383,-200 L42.6468085106383,-150 L36.15744680851064,-150 L36.15744680851064,-200 Z" fill="black" />
<path d="M42.6468085106383,-200 L49.13617021276596,-200 L49.13617021276596,-150 L42.6468085106383,-150 L42.6468085106383,-200 Z" fill="#f0f0f0" />
<path d="M49.13617021276596,-200 L55.62553191489362,-200 L55.62553191489362,-150 L49.13617021276596,-150 L49.13617021276596,-200 Z" fill="black" />
<path d="M55.62553191489362,-200 L62.11489361702128,-200 L62.11489361702128,-150 L55.62553191489362,-150 L55.62553191489362,-200 Z" fill="#f0f0f0" />
<path d="M62.11489361702128,-200 L68.60425531914893,-200 L68.60425531914893,-150 L62.11489361702128,-150 L62.11489361702128,-200 Z" fill="black" />
<path d="M68.60425531914893,-200 L75.0936170212766,-200 L75.0936170212766,-150 L68.60425531914893,-150 L68.60425531914893,-200 Z" fill="#f0f0f0" />
<path d="M75.0936170212766,-200 L81.58297872340427,-200 L81.58297872340427,-150 L75.0936170212766,-150 L75.0936170212766,-200 Z" fill="black" />
<path d="M81.58297872340427,-200 L88.07234042553193,-200 L88.07234042553193,-150 L81.58297872340427,-150 L81.58297872340427,-200 Z" fill="#f0f0f0" />
<path d="M88.07234042553193,-200 L94.5617021276596,-200 L94.5617021276596,-150 L88.07234042553193,-150 L88.07234042553193,-200 Z" fill="black" />
<path d="M94.5617021276596,-200 L101.05106382978727,-200 L101.05106382978727,-150 L94.5617021276596,-150 L94.5617021276596,-200 Z" fill="#f0f0f0" />
<path d="M101.05106382978727,-200 L107.54042553191493,-200 L107.54042553191493,-150 L101.05106382978727,-150 L101.05106382978727,-200 Z" fill="black" />
<path d="M107.54042553191493,-200 L114.0297872340426,-200 L114.0297872340426,-150 L107.54042553191493,-150 L107.54042553191493,-200 Z" fill="#f0f0f0" />
<path d="M114.0297872340426,-200 L120.51914893617027,-200 L120.51914893617027,-150 L114.0297872340426,-150 L114.0297872340426,-200 Z" fill="black" />
<path d="M120.51914893617027,-200 L127.00851063829793,-200 L127.00851063829793,-150 L120.51914893617027,-150 L120.51914893617027,-200 Z" fill="#f0f0f0" />
<path d="M127.00851063829793,-200 L133.4978723404256,-200 L133.4978723404256,-150 L127.00851063829793,-150 L127.00851063829793,-200 Z" fill="black" />
<path d="M133.4978723404256,-200 L139.98723404255327,-200 L139.98723404255327,-150 L133.4978723404256,-150 L133.4978723404256,-200 Z" fill="#f0f0f0" />
<path d="M139.98723404255327,-200 L146.47659574468094,-200 L146.47659574468094,-150 L139.98723404255327,-150 L139.98723404255327,-200 Z" fill="black" />
<path d="M146.47659574468094,-200 L152.9659574468086,-200 L152.9659574468086,-150 L146.47659574468094,-150 L146.47659574468094,-200 Z" fill="#f0f0f0" />
<path d="M152.9659574468086,-200 L159.45531914893627,-200 L159.45531914893627,-150 L152.9659574468086,-150 L152.9659574468086,-200 Z" fill="black" />
<path d="M159.45531914893627,-200 L165.94468085106394,-200 L165.94468085106394,-150 L159.45531914893627,-150 L159.45531914893627,-200 Z" fill="#f0f0f0" />
<path d="M165.94468085106394,-200 L172.4340425531916,-200 L172.4340425531916,-150 L165.94468085106394,-150 L165.94468085106394,-200 Z" fill="black" />
<path d="M172.4340425531916,-200 L178.92340425531927,-200 L178.92340425531927,-150 L172.4340425531916,-150 L172.4340425531916,-200 Z" fill="#f0f0f0" />
<path d="M178.92340425531927,-200 L185.41276595744694,-200 L185.41276595744694,-150 L178.92340425531927,-150 L178.92340425531927,-200 Z" fill="black" />
<path d="M185.41276595744694,-200 L191.9021276595746,-200 L191.9021276595746,-150 L185.41276595744694,-150 L185.41276595744694,-200 Z" fill="#f0f0f0" />
<path d="M191.9021276595746,-200 L198.39148936170227,-200 L198.39148936170227,-150 L191.9021276595746,-150 L191.9021276595746,-200 Z" fill="black" />
<path d="M198.39148936170227,-200 L204.88085106382994,-200 L204.88085106382994,-150 L198.39148936170227,-150 L198.39148936170227,-200 Z" fill="#f0f0f0" />
<path d="M204.88085106382994,-200 L211.3702127659576,-200 L211.3702127659576,-150 L204.88085106382994,-150 L204.88085106382994,-200 Z" fill="black" />
<path d="M211.3702127659576,-200 L217.85957446808527,-200 L217.85957446808527,-150 L211.3702127659576,-150 L211.3702127659576,-200 Z" fill="#f0f0f0" />
<path d="M217.85957446808527,-200 L224.34893617021294,-200 L224.34893617021294,-150 L217.85957446808527,-150 L217.85957446808527,-200 Z" fill="black" />
<path d="M224.34893617021294,-200 L230.8382978723406,-200 L230.8382978723406,-150 L224.34893617021294,-150 L224.34893617021294,-200 Z" fill="#f0f0f0" />
<path d="M230.8382978723406,-200 L237.32765957446827,-200 L237.32765957446827,-150 L230.8382978723406,-150 L230.8382978723406,-200 Z" fill="black" />
<path d="M237.32765957446827,-200 L243.81702127659594,-200 L243.81702127659594,-150 L237.32765957446827,-150 L237.32765957446827,-200 Z" fill="#f0f0f0" />
<path d="M243.81702127659594,-200 L250.3063829787236,-200 L250.3063829787236,-150 L243.81702127659594,-150 L243.81702127659594,-200 Z" fill="black" />
<path d="M250.3063829787236,-200 L256.79574468085127,-200 L256.79574468085127,-150 L250.3063829787236,-150 L250.3063829787236,-200 Z" fill="#f0f0f0" />
<path d="M256.79574468085127,-200 L263.28510638297894,-200 L263.28510638297894,-150 L256.79574468085127,-150 L256.79574468085127,-200 Z" fill="black" />
<path d="M263.28510638297894,-200 L269.7744680851066,-200 L269.7744680851066,-150 L263.28510638297894,-150 L263.28510638297894,-200 Z" fill="#f0f0f0" />
<path d="M269.7744680851066,-200 L276.2638297872343,-200 L276.2638297872343,-150 L269.7744680851066,-150 L269.7744680851066,-200 Z" fill="black" />
<path d="M276.2638297872343,-200 L282.75319148936194,-200 L282.75319148936194,-150 L276.2638297872343,-150 L276.2638297872343,-200 Z" fill="#f0f0f0" />
<path d="M282.75319148936194,-200 L289.2425531914896,-200 L289.2425531914896,-150 L282.75319148936194,-150 L282.75319148936194,-200 Z" fill="black" />
<path d="M289.2425531914896,-200 L295.7319148936173,-200 L295.7319148936173,-150 L289.2425531914896,-150 L289.2425531914896,-200 Z" fill="#f0f0f0" />
<path d="M295.7319148936173,-200 L302.22127659574494,-200 L302.22127659574494,-150 L295.7319148936173,-150 L295.7319148936173,-200 Z" fill="black" />
<path d="M302.22127659574494,-200 L308.7106382978726,-200 L308.7106382978726,-150 L302.22127659574494,-150 L302.22127659574494,-200 Z" fill="#f0f0f0" />
<path d="M308.7106382978726,-200 L315.2000000000003,-200 L315.2000000000003,-150 L308.7106382978726,-150 L308.7106382978726,-200 Z" fill="black" />
<text x="10.2" y="-210" font-size="26" fill="black" dy="0em">CRISPR: I-A</text>
<text x="16.0" y="-260" font-size="38" fill="black" dy="0em">I-A: JAVYMY010000035_5 (26-1551)</text>
</svg>