<?xml version="1.0" encoding="UTF-8"?>
<svg xmlns="http://www.w3.org/2000/svg" xmlns:xlink="http://www.w3.org/1999/xlink"
     width="4748" height="800" viewBox="0 -800 4748 800">
<defs>
</defs>
<path d="M210,-20 L210,-720" stroke="grey" stroke-width="1" fill="none" />
<text x="160" y="-730" font-size="22" fill="grey" dy="0em">1000</text>
<path d="M410,-20 L410,-720" stroke="grey" stroke-width="1" fill="none" />
<text x="360" y="-730" font-size="22" fill="grey" dy="0em">2000</text>
<path d="M610,-20 L610,-720" stroke="grey" stroke-width="1" fill="none" />
<text x="560" y="-730" font-size="22" fill="grey" dy="0em">3000</text>
<path d="M810,-20 L810,-720" stroke="grey" stroke-width="1" fill="none" />
<text x="760" y="-730" font-size="22" fill="grey" dy="0em">4000</text>
<path d="M1010,-20 L1010,-720" stroke="grey" stroke-width="1" fill="none" />
<text x="960" y="-730" font-size="22" fill="grey" dy="0em">5000</text>
<path d="M1210,-20 L1210,-720" stroke="grey" stroke-width="1" fill="none" />
<text x="1160" y="-730" font-size="22" fill="grey" dy="0em">6000</text>
<path d="M1410,-20 L1410,-720" stroke="grey" stroke-width="1" fill="none" />
<text x="1360" y="-730" font-size="22" fill="grey" dy="0em">7000</text>
<path d="M1610,-20 L1610,-720" stroke="grey" stroke-width="1" fill="none" />
<text x="1560" y="-730" font-size="22" fill="grey" dy="0em">8000</text>
<path d="M1810,-20 L1810,-720" stroke="grey" stroke-width="1" fill="none" />
<text x="1760" y="-730" font-size="22" fill="grey" dy="0em">9000</text>
<path d="M2010,-20 L2010,-720" stroke="grey" stroke-width="1" fill="none" />
<text x="1960" y="-730" font-size="22" fill="grey" dy="0em">10000</text>
<path d="M2210,-20 L2210,-720" stroke="grey" stroke-width="1" fill="none" />
<text x="2160" y="-730" font-size="22" fill="grey" dy="0em">11000</text>
<path d="M2410,-20 L2410,-720" stroke="grey" stroke-width="1" fill="none" />
<text x="2360" y="-730" font-size="22" fill="grey" dy="0em">12000</text>
<path d="M2610,-20 L2610,-720" stroke="grey" stroke-width="1" fill="none" />
<text x="2560" y="-730" font-size="22" fill="grey" dy="0em">13000</text>
<path d="M2810,-20 L2810,-720" stroke="grey" stroke-width="1" fill="none" />
<text x="2760" y="-730" font-size="22" fill="grey" dy="0em">14000</text>
<path d="M3010,-20 L3010,-720" stroke="grey" stroke-width="1" fill="none" />
<text x="2960" y="-730" font-size="22" fill="grey" dy="0em">15000</text>
<path d="M3210,-20 L3210,-720" stroke="grey" stroke-width="1" fill="none" />
<text x="3160" y="-730" font-size="22" fill="grey" dy="0em">16000</text>
<path d="M3410,-20 L3410,-720" stroke="grey" stroke-width="1" fill="none" />
<text x="3360" y="-730" font-size="22" fill="grey" dy="0em">17000</text>
<path d="M3610,-20 L3610,-720" stroke="grey" stroke-width="1" fill="none" />
<text x="3560" y="-730" font-size="22" fill="grey" dy="0em">18000</text>
<path d="M3810,-20 L3810,-720" stroke="grey" stroke-width="1" fill="none" />
<text x="3760" y="-730" font-size="22" fill="grey" dy="0em">19000</text>
<path d="M4010,-20 L4010,-720" stroke="grey" stroke-width="1" fill="none" />
<text x="3960" y="-730" font-size="22" fill="grey" dy="0em">20000</text>
<path d="M4210,-20 L4210,-720" stroke="grey" stroke-width="1" fill="none" />
<text x="4160" y="-730" font-size="22" fill="grey" dy="0em">21000</text>
<path d="M4410,-20 L4410,-720" stroke="grey" stroke-width="1" fill="none" />
<text x="4360" y="-730" font-size="22" fill="grey" dy="0em">22000</text>
<path d="M4610,-20 L4610,-720" stroke="grey" stroke-width="1" fill="none" />
<text x="4560" y="-730" font-size="22" fill="grey" dy="0em">23000</text>
<text x="16.0" y="-660" font-size="38" fill="black" dy="0em">I-B: CP084166@63 (2955373-2970976)</text>
<path d="M82.80000000000001,-600 L119.2,-600 L119.2,-550 L82.80000000000001,-550 L52.800000000000004,-575.0 L82.80000000000001,-600 Z" fill="#d3c9c1" fill-opacity="0.8" stroke="#d3c9c1" stroke-width="4" />
<text x="52.800000000000004" y="-610" font-size="20" fill="black" dy="0em">2558</text>
<path d="M235.60000000000002,-600 L252.20000000000002,-600 L252.20000000000002,-550 L235.60000000000002,-550 L205.60000000000002,-575.0 L235.60000000000002,-600 Z" fill="#d3c9c1" fill-opacity="0.8" stroke="#d3c9c1" stroke-width="4" />
<text x="205.60000000000002" y="-520" font-size="20" fill="black" dy="0em">2559</text>
<path d="M278.4,-600 L305.2,-600 L305.2,-550 L278.4,-550 L248.4,-575.0 L278.4,-600 Z" fill="#d3c9c1" fill-opacity="0.8" stroke="#d3c9c1" stroke-width="4" />
<text x="248.4" y="-610" font-size="20" fill="black" dy="0em">2560</text>
<path d="M442.20000000000005,-600 L445.6,-600 L445.6,-550 L442.20000000000005,-550 L412.20000000000005,-575.0 L442.20000000000005,-600 Z" fill="#d3c9c1" fill-opacity="0.8" stroke="#d3c9c1" stroke-width="4" />
<text x="412.20000000000005" y="-520" font-size="20" fill="black" dy="0em">2561</text>
<path d="M558.6,-600 L581.2,-600 L581.2,-550 L558.6,-550 L528.6,-575.0 L558.6,-600 Z" fill="#5b5ea6" fill-opacity="0.8" stroke="#5b5ea6" stroke-width="4" />
<text x="528.6" y="-610" font-size="26" fill="black" dy="0em">Cas2</text>
<path d="M612.0,-600 L779.2,-600 L779.2,-550 L612.0,-550 L582.0,-575.0 L612.0,-600 Z" fill="#5b5ea6" fill-opacity="0.8" stroke="#5b5ea6" stroke-width="4" />
<text x="582.0" y="-520" font-size="26" fill="black" dy="0em">Cas1</text>
<path d="M809.4000000000001,-600 L882.4000000000001,-600 L882.4000000000001,-550 L809.4000000000001,-550 L779.4000000000001,-575.0 L809.4000000000001,-600 Z" fill="#5b5ea6" fill-opacity="0.8" stroke="#5b5ea6" stroke-width="4" />
<text x="779.4000000000001" y="-610" font-size="26" fill="black" dy="0em">Cas4</text>
<path d="M914.8000000000001,-600 L1445.6000000000001,-600 L1445.6000000000001,-550 L914.8000000000001,-550 L884.8000000000001,-575.0 L914.8000000000001,-600 Z" fill="#efc050" fill-opacity="0.8" stroke="#efc050" stroke-width="4" />
<text x="884.8000000000001" y="-520" font-size="26" fill="black" dy="0em">Cas3</text>
<path d="M1470.6000000000001,-600 L1599.4,-600 L1599.4,-550 L1470.6000000000001,-550 L1440.6000000000001,-575.0 L1470.6000000000001,-600 Z" fill="#efc050" fill-opacity="0.8" stroke="#efc050" stroke-width="4" />
<text x="1440.6000000000001" y="-610" font-size="26" fill="black" dy="0em">Cas5</text>
<path d="M1631.2,-600 L1805.6000000000001,-600 L1805.6000000000001,-550 L1631.2,-550 L1601.2,-575.0 L1631.2,-600 Z" fill="#efc050" fill-opacity="0.8" stroke="#efc050" stroke-width="4" />
<text x="1601.2" y="-520" font-size="26" fill="black" dy="0em">Cas7b</text>
<path d="M1836.2,-600 L2220.6,-600 L2220.6,-550 L1836.2,-550 L1806.2,-575.0 L1836.2,-600 Z" fill="#efc050" fill-opacity="0.8" stroke="#efc050" stroke-width="4" />
<text x="1806.2" y="-610" font-size="26" fill="black" dy="0em">Cas8b1</text>
<path d="M2250.0,-600 L2363.8,-600 L2363.8,-550 L2250.0,-550 L2220.0,-575.0 L2250.0,-600 Z" fill="#dd1424" fill-opacity="0.8" stroke="#dd1424" stroke-width="4" />
<text x="2220.0" y="-520" font-size="26" fill="black" dy="0em">Cas6</text>
<path d="M2397.0,-600 L2494.6000000000004,-600 L2524.6000000000004,-575.0 L2494.6000000000004,-550 L2397.0,-550 L2397.0,-600 Z" fill="#ff80e6" fill-opacity="0.8" stroke="#ff80e6" stroke-width="4" />
<text x="2397.0" y="-610" font-size="26" fill="black" dy="0em">CasR</text>
<path d="M2600.6000000000004,-600 L2766.6000000000004,-600 L2796.6000000000004,-575.0 L2766.6000000000004,-550 L2600.6000000000004,-550 L2600.6000000000004,-600 Z" fill="#ff80e6" fill-opacity="0.8" stroke="#ff80e6" stroke-width="4" />
<text x="2600.6000000000004" y="-520" font-size="26" fill="black" dy="0em">AbiEii</text>
<path d="M2796.0,-600 L3026.2000000000003,-600 L3056.2000000000003,-575.0 L3026.2000000000003,-550 L2796.0,-550 L2796.0,-600 Z" fill="#d3c9c1" fill-opacity="0.8" stroke="#d3c9c1" stroke-width="4" />
<text x="2796.0" y="-610" font-size="20" fill="black" dy="0em">2572</text>
<path d="M3091.4,-600 L3130.8,-600 L3130.8,-550 L3091.4,-550 L3061.4,-575.0 L3091.4,-600 Z" fill="#ff80e6" fill-opacity="0.8" stroke="#ff80e6" stroke-width="4" />
<text x="3061.4" y="-520" font-size="26" fill="black" dy="0em">Csa3</text>
<path d="M10.2,-600 L508.6,-600 L508.6,-550 L10.2,-550 L10.2,-600 Z" fill="white" stroke="white" stroke-width="4" />
<path d="M10.2,-600 L16.845333333333333,-600 L16.845333333333333,-550 L10.2,-550 L10.2,-600 Z" fill="black" />
<path d="M16.845333333333333,-600 L23.490666666666666,-600 L23.490666666666666,-550 L16.845333333333333,-550 L16.845333333333333,-600 Z" fill="#f0f0f0" />
<path d="M23.490666666666666,-600 L30.136,-600 L30.136,-550 L23.490666666666666,-550 L23.490666666666666,-600 Z" fill="black" />
<path d="M30.136,-600 L36.781333333333336,-600 L36.781333333333336,-550 L30.136,-550 L30.136,-600 Z" fill="#f0f0f0" />
<path d="M36.781333333333336,-600 L43.42666666666667,-600 L43.42666666666667,-550 L36.781333333333336,-550 L36.781333333333336,-600 Z" fill="black" />
<path d="M43.42666666666667,-600 L50.072,-600 L50.072,-550 L43.42666666666667,-550 L43.42666666666667,-600 Z" fill="#f0f0f0" />
<path d="M50.072,-600 L56.717333333333336,-600 L56.717333333333336,-550 L50.072,-550 L50.072,-600 Z" fill="black" />
<path d="M56.717333333333336,-600 L63.36266666666667,-600 L63.36266666666667,-550 L56.717333333333336,-550 L56.717333333333336,-600 Z" fill="#f0f0f0" />
<path d="M63.36266666666667,-600 L70.00800000000001,-600 L70.00800000000001,-550 L63.36266666666667,-550 L63.36266666666667,-600 Z" fill="black" />
<path d="M70.00800000000001,-600 L76.65333333333334,-600 L76.65333333333334,-550 L70.00800000000001,-550 L70.00800000000001,-600 Z" fill="#f0f0f0" />
<path d="M76.65333333333334,-600 L83.29866666666666,-600 L83.29866666666666,-550 L76.65333333333334,-550 L76.65333333333334,-600 Z" fill="black" />
<path d="M83.29866666666666,-600 L89.94399999999999,-600 L89.94399999999999,-550 L83.29866666666666,-550 L83.29866666666666,-600 Z" fill="#f0f0f0" />
<path d="M89.94399999999999,-600 L96.58933333333331,-600 L96.58933333333331,-550 L89.94399999999999,-550 L89.94399999999999,-600 Z" fill="black" />
<path d="M96.58933333333331,-600 L103.23466666666664,-600 L103.23466666666664,-550 L96.58933333333331,-550 L96.58933333333331,-600 Z" fill="#f0f0f0" />
<path d="M103.23466666666664,-600 L109.87999999999997,-600 L109.87999999999997,-550 L103.23466666666664,-550 L103.23466666666664,-600 Z" fill="black" />
<path d="M109.87999999999997,-600 L116.5253333333333,-600 L116.5253333333333,-550 L109.87999999999997,-550 L109.87999999999997,-600 Z" fill="#f0f0f0" />
<path d="M116.5253333333333,-600 L123.17066666666662,-600 L123.17066666666662,-550 L116.5253333333333,-550 L116.5253333333333,-600 Z" fill="black" />
<path d="M123.17066666666662,-600 L129.81599999999995,-600 L129.81599999999995,-550 L123.17066666666662,-550 L123.17066666666662,-600 Z" fill="#f0f0f0" />
<path d="M129.81599999999995,-600 L136.46133333333327,-600 L136.46133333333327,-550 L129.81599999999995,-550 L129.81599999999995,-600 Z" fill="black" />
<path d="M136.46133333333327,-600 L143.1066666666666,-600 L143.1066666666666,-550 L136.46133333333327,-550 L136.46133333333327,-600 Z" fill="#f0f0f0" />
<path d="M143.1066666666666,-600 L149.75199999999992,-600 L149.75199999999992,-550 L143.1066666666666,-550 L143.1066666666666,-600 Z" fill="black" />
<path d="M149.75199999999992,-600 L156.39733333333325,-600 L156.39733333333325,-550 L149.75199999999992,-550 L149.75199999999992,-600 Z" fill="#f0f0f0" />
<path d="M156.39733333333325,-600 L163.04266666666658,-600 L163.04266666666658,-550 L156.39733333333325,-550 L156.39733333333325,-600 Z" fill="black" />
<path d="M163.04266666666658,-600 L169.6879999999999,-600 L169.6879999999999,-550 L163.04266666666658,-550 L163.04266666666658,-600 Z" fill="#f0f0f0" />
<path d="M169.6879999999999,-600 L176.33333333333323,-600 L176.33333333333323,-550 L169.6879999999999,-550 L169.6879999999999,-600 Z" fill="black" />
<path d="M176.33333333333323,-600 L182.97866666666656,-600 L182.97866666666656,-550 L176.33333333333323,-550 L176.33333333333323,-600 Z" fill="#f0f0f0" />
<path d="M182.97866666666656,-600 L189.62399999999988,-600 L189.62399999999988,-550 L182.97866666666656,-550 L182.97866666666656,-600 Z" fill="black" />
<path d="M189.62399999999988,-600 L196.2693333333332,-600 L196.2693333333332,-550 L189.62399999999988,-550 L189.62399999999988,-600 Z" fill="#f0f0f0" />
<path d="M196.2693333333332,-600 L202.91466666666653,-600 L202.91466666666653,-550 L196.2693333333332,-550 L196.2693333333332,-600 Z" fill="black" />
<path d="M202.91466666666653,-600 L209.55999999999986,-600 L209.55999999999986,-550 L202.91466666666653,-550 L202.91466666666653,-600 Z" fill="#f0f0f0" />
<path d="M209.55999999999986,-600 L216.2053333333332,-600 L216.2053333333332,-550 L209.55999999999986,-550 L209.55999999999986,-600 Z" fill="black" />
<path d="M216.2053333333332,-600 L222.8506666666665,-600 L222.8506666666665,-550 L216.2053333333332,-550 L216.2053333333332,-600 Z" fill="#f0f0f0" />
<path d="M222.8506666666665,-600 L229.49599999999984,-600 L229.49599999999984,-550 L222.8506666666665,-550 L222.8506666666665,-600 Z" fill="black" />
<path d="M229.49599999999984,-600 L236.14133333333317,-600 L236.14133333333317,-550 L229.49599999999984,-550 L229.49599999999984,-600 Z" fill="#f0f0f0" />
<path d="M236.14133333333317,-600 L242.7866666666665,-600 L242.7866666666665,-550 L236.14133333333317,-550 L236.14133333333317,-600 Z" fill="black" />
<path d="M242.7866666666665,-600 L249.43199999999982,-600 L249.43199999999982,-550 L242.7866666666665,-550 L242.7866666666665,-600 Z" fill="#f0f0f0" />
<path d="M249.43199999999982,-600 L256.0773333333332,-600 L256.0773333333332,-550 L249.43199999999982,-550 L249.43199999999982,-600 Z" fill="black" />
<path d="M256.0773333333332,-600 L262.7226666666665,-600 L262.7226666666665,-550 L256.0773333333332,-550 L256.0773333333332,-600 Z" fill="#f0f0f0" />
<path d="M262.7226666666665,-600 L269.3679999999998,-600 L269.3679999999998,-550 L262.7226666666665,-550 L262.7226666666665,-600 Z" fill="black" />
<path d="M269.3679999999998,-600 L276.01333333333315,-600 L276.01333333333315,-550 L269.3679999999998,-550 L269.3679999999998,-600 Z" fill="#f0f0f0" />
<path d="M276.01333333333315,-600 L282.6586666666665,-600 L282.6586666666665,-550 L276.01333333333315,-550 L276.01333333333315,-600 Z" fill="black" />
<path d="M282.6586666666665,-600 L289.3039999999998,-600 L289.3039999999998,-550 L282.6586666666665,-550 L282.6586666666665,-600 Z" fill="#f0f0f0" />
<path d="M289.3039999999998,-600 L295.94933333333313,-600 L295.94933333333313,-550 L289.3039999999998,-550 L289.3039999999998,-600 Z" fill="black" />
<path d="M295.94933333333313,-600 L302.59466666666646,-600 L302.59466666666646,-550 L295.94933333333313,-550 L295.94933333333313,-600 Z" fill="#f0f0f0" />
<path d="M302.59466666666646,-600 L309.2399999999998,-600 L309.2399999999998,-550 L302.59466666666646,-550 L302.59466666666646,-600 Z" fill="black" />
<path d="M309.2399999999998,-600 L315.8853333333331,-600 L315.8853333333331,-550 L309.2399999999998,-550 L309.2399999999998,-600 Z" fill="#f0f0f0" />
<path d="M315.8853333333331,-600 L322.53066666666643,-600 L322.53066666666643,-550 L315.8853333333331,-550 L315.8853333333331,-600 Z" fill="black" />
<path d="M322.53066666666643,-600 L329.17599999999976,-600 L329.17599999999976,-550 L322.53066666666643,-550 L322.53066666666643,-600 Z" fill="#f0f0f0" />
<path d="M329.17599999999976,-600 L335.8213333333331,-600 L335.8213333333331,-550 L329.17599999999976,-550 L329.17599999999976,-600 Z" fill="black" />
<path d="M335.8213333333331,-600 L342.4666666666664,-600 L342.4666666666664,-550 L335.8213333333331,-550 L335.8213333333331,-600 Z" fill="#f0f0f0" />
<path d="M342.4666666666664,-600 L349.11199999999974,-600 L349.11199999999974,-550 L342.4666666666664,-550 L342.4666666666664,-600 Z" fill="black" />
<path d="M349.11199999999974,-600 L355.75733333333307,-600 L355.75733333333307,-550 L349.11199999999974,-550 L349.11199999999974,-600 Z" fill="#f0f0f0" />
<path d="M355.75733333333307,-600 L362.4026666666664,-600 L362.4026666666664,-550 L355.75733333333307,-550 L355.75733333333307,-600 Z" fill="black" />
<path d="M362.4026666666664,-600 L369.0479999999997,-600 L369.0479999999997,-550 L362.4026666666664,-550 L362.4026666666664,-600 Z" fill="#f0f0f0" />
<path d="M369.0479999999997,-600 L375.69333333333304,-600 L375.69333333333304,-550 L369.0479999999997,-550 L369.0479999999997,-600 Z" fill="black" />
<path d="M375.69333333333304,-600 L382.33866666666637,-600 L382.33866666666637,-550 L375.69333333333304,-550 L375.69333333333304,-600 Z" fill="#f0f0f0" />
<path d="M382.33866666666637,-600 L388.9839999999997,-600 L388.9839999999997,-550 L382.33866666666637,-550 L382.33866666666637,-600 Z" fill="black" />
<path d="M388.9839999999997,-600 L395.629333333333,-600 L395.629333333333,-550 L388.9839999999997,-550 L388.9839999999997,-600 Z" fill="#f0f0f0" />
<path d="M395.629333333333,-600 L402.27466666666635,-600 L402.27466666666635,-550 L395.629333333333,-550 L395.629333333333,-600 Z" fill="black" />
<path d="M402.27466666666635,-600 L408.9199999999997,-600 L408.9199999999997,-550 L402.27466666666635,-550 L402.27466666666635,-600 Z" fill="#f0f0f0" />
<path d="M408.9199999999997,-600 L415.565333333333,-600 L415.565333333333,-550 L408.9199999999997,-550 L408.9199999999997,-600 Z" fill="black" />
<path d="M415.565333333333,-600 L422.2106666666663,-600 L422.2106666666663,-550 L415.565333333333,-550 L415.565333333333,-600 Z" fill="#f0f0f0" />
<path d="M422.2106666666663,-600 L428.85599999999965,-600 L428.85599999999965,-550 L422.2106666666663,-550 L422.2106666666663,-600 Z" fill="black" />
<path d="M428.85599999999965,-600 L435.501333333333,-600 L435.501333333333,-550 L428.85599999999965,-550 L428.85599999999965,-600 Z" fill="#f0f0f0" />
<path d="M435.501333333333,-600 L442.1466666666663,-600 L442.1466666666663,-550 L435.501333333333,-550 L435.501333333333,-600 Z" fill="black" />
<path d="M442.1466666666663,-600 L448.79199999999963,-600 L448.79199999999963,-550 L442.1466666666663,-550 L442.1466666666663,-600 Z" fill="#f0f0f0" />
<path d="M448.79199999999963,-600 L455.43733333333296,-600 L455.43733333333296,-550 L448.79199999999963,-550 L448.79199999999963,-600 Z" fill="black" />
<path d="M455.43733333333296,-600 L462.0826666666663,-600 L462.0826666666663,-550 L455.43733333333296,-550 L455.43733333333296,-600 Z" fill="#f0f0f0" />
<path d="M462.0826666666663,-600 L468.7279999999996,-600 L468.7279999999996,-550 L462.0826666666663,-550 L462.0826666666663,-600 Z" fill="black" />
<path d="M468.7279999999996,-600 L475.37333333333294,-600 L475.37333333333294,-550 L468.7279999999996,-550 L468.7279999999996,-600 Z" fill="#f0f0f0" />
<path d="M475.37333333333294,-600 L482.01866666666626,-600 L482.01866666666626,-550 L475.37333333333294,-550 L475.37333333333294,-600 Z" fill="black" />
<path d="M482.01866666666626,-600 L488.6639999999996,-600 L488.6639999999996,-550 L482.01866666666626,-550 L482.01866666666626,-600 Z" fill="#f0f0f0" />
<path d="M488.6639999999996,-600 L495.3093333333329,-600 L495.3093333333329,-550 L488.6639999999996,-550 L488.6639999999996,-600 Z" fill="black" />
<path d="M495.3093333333329,-600 L501.95466666666624,-600 L501.95466666666624,-550 L495.3093333333329,-550 L495.3093333333329,-600 Z" fill="#f0f0f0" />
<path d="M501.95466666666624,-600 L508.59999999999957,-600 L508.59999999999957,-550 L501.95466666666624,-550 L501.95466666666624,-600 Z" fill="black" />
<text x="10.2" y="-610" font-size="26" fill="black" dy="0em">CRISPR</text>
<text x="16.0" y="-460" font-size="38" fill="black" dy="0em">I-B: CP084166@21 (938342-961583)</text>
<path d="M1285.8000000000002,-400 L1549.0,-400 L1549.0,-350 L1285.8000000000002,-350 L1255.8000000000002,-375.0 L1285.8000000000002,-400 Z" fill="#d3c9c1" fill-opacity="0.8" stroke="#d3c9c1" stroke-width="4" />
<text x="1255.8000000000002" y="-410" font-size="20" fill="black" dy="0em">769</text>
<path d="M1581.2,-400 L1846.8000000000002,-400 L1846.8000000000002,-350 L1581.2,-350 L1551.2,-375.0 L1581.2,-400 Z" fill="#ff80e6" fill-opacity="0.3" stroke="#ff80e6" stroke-width="4" />
<text x="1551.2" y="-320" font-size="26" fill="black" dy="0em">(CasR)</text>
<path d="M1947.6000000000001,-400 L2060.8,-400 L2090.8,-375.0 L2060.8,-350 L1947.6000000000001,-350 L1947.6000000000001,-400 Z" fill="#dd1424" fill-opacity="0.8" stroke="#dd1424" stroke-width="4" />
<text x="1947.6000000000001" y="-410" font-size="26" fill="black" dy="0em">Cas6</text>
<path d="M2112.0,-400 L2484.4,-400 L2514.4,-375.0 L2484.4,-350 L2112.0,-350 L2112.0,-400 Z" fill="#efc050" fill-opacity="0.8" stroke="#efc050" stroke-width="4" />
<text x="2112.0" y="-320" font-size="26" fill="black" dy="0em">Cas8b1</text>
<path d="M2513.0,-400 L2668.8,-400 L2698.8,-375.0 L2668.8,-350 L2513.0,-350 L2513.0,-400 Z" fill="#efc050" fill-opacity="0.8" stroke="#efc050" stroke-width="4" />
<text x="2513.0" y="-410" font-size="26" fill="black" dy="0em">Cas7</text>
<path d="M2702.0,-400 L2822.4,-400 L2852.4,-375.0 L2822.4,-350 L2702.0,-350 L2702.0,-400 Z" fill="#efc050" fill-opacity="0.8" stroke="#efc050" stroke-width="4" />
<text x="2702.0" y="-320" font-size="26" fill="black" dy="0em">Cas5</text>
<path d="M2847.4,-400 L3309.8,-400 L3339.8,-375.0 L3309.8,-350 L2847.4,-350 L2847.4,-400 Z" fill="#efc050" fill-opacity="0.8" stroke="#efc050" stroke-width="4" />
<text x="2847.4" y="-410" font-size="26" fill="black" dy="0em">Cas3</text>
<path d="M3356.6000000000004,-400 L3432.6000000000004,-400 L3462.6000000000004,-375.0 L3432.6000000000004,-350 L3356.6000000000004,-350 L3356.6000000000004,-400 Z" fill="#5b5ea6" fill-opacity="0.8" stroke="#5b5ea6" stroke-width="4" />
<text x="3356.6000000000004" y="-320" font-size="26" fill="black" dy="0em">Cas4</text>
<path d="M3464.6000000000004,-400 L3630.0,-400 L3660.0,-375.0 L3630.0,-350 L3464.6000000000004,-350 L3464.6000000000004,-400 Z" fill="#5b5ea6" fill-opacity="0.8" stroke="#5b5ea6" stroke-width="4" />
<text x="3464.6000000000004" y="-410" font-size="26" fill="black" dy="0em">Cas1</text>
<path d="M3658.2000000000003,-400 L3683.2000000000003,-400 L3713.2000000000003,-375.0 L3683.2000000000003,-350 L3658.2000000000003,-350 L3658.2000000000003,-400 Z" fill="#5b5ea6" fill-opacity="0.8" stroke="#5b5ea6" stroke-width="4" />
<text x="3658.2000000000003" y="-320" font-size="26" fill="black" dy="0em">Cas2</text>
<path d="M10.2,-400 L1225.8,-400 L1225.8,-350 L10.2,-350 L10.2,-400 Z" fill="white" stroke="white" stroke-width="4" />
<path d="M10.2,-400 L16.770810810810808,-400 L16.770810810810808,-350 L10.2,-350 L10.2,-400 Z" fill="black" />
<path d="M16.770810810810808,-400 L23.34162162162162,-400 L23.34162162162162,-350 L16.770810810810808,-350 L16.770810810810808,-400 Z" fill="#f0f0f0" />
<path d="M23.34162162162162,-400 L29.912432432432432,-400 L29.912432432432432,-350 L23.34162162162162,-350 L23.34162162162162,-400 Z" fill="black" />
<path d="M29.912432432432432,-400 L36.483243243243244,-400 L36.483243243243244,-350 L29.912432432432432,-350 L29.912432432432432,-400 Z" fill="#f0f0f0" />
<path d="M36.483243243243244,-400 L43.054054054054056,-400 L43.054054054054056,-350 L36.483243243243244,-350 L36.483243243243244,-400 Z" fill="black" />
<path d="M43.054054054054056,-400 L49.62486486486487,-400 L49.62486486486487,-350 L43.054054054054056,-350 L43.054054054054056,-400 Z" fill="#f0f0f0" />
<path d="M49.62486486486487,-400 L56.19567567567568,-400 L56.19567567567568,-350 L49.62486486486487,-350 L49.62486486486487,-400 Z" fill="black" />
<path d="M56.19567567567568,-400 L62.76648648648649,-400 L62.76648648648649,-350 L56.19567567567568,-350 L56.19567567567568,-400 Z" fill="#f0f0f0" />
<path d="M62.76648648648649,-400 L69.3372972972973,-400 L69.3372972972973,-350 L62.76648648648649,-350 L62.76648648648649,-400 Z" fill="black" />
<path d="M69.3372972972973,-400 L75.90810810810811,-400 L75.90810810810811,-350 L69.3372972972973,-350 L69.3372972972973,-400 Z" fill="#f0f0f0" />
<path d="M75.90810810810811,-400 L82.47891891891892,-400 L82.47891891891892,-350 L75.90810810810811,-350 L75.90810810810811,-400 Z" fill="black" />
<path d="M82.47891891891892,-400 L89.04972972972973,-400 L89.04972972972973,-350 L82.47891891891892,-350 L82.47891891891892,-400 Z" fill="#f0f0f0" />
<path d="M89.04972972972973,-400 L95.62054054054055,-400 L95.62054054054055,-350 L89.04972972972973,-350 L89.04972972972973,-400 Z" fill="black" />
<path d="M95.62054054054055,-400 L102.19135135135136,-400 L102.19135135135136,-350 L95.62054054054055,-350 L95.62054054054055,-400 Z" fill="#f0f0f0" />
<path d="M102.19135135135136,-400 L108.76216216216217,-400 L108.76216216216217,-350 L102.19135135135136,-350 L102.19135135135136,-400 Z" fill="black" />
<path d="M108.76216216216217,-400 L115.33297297297298,-400 L115.33297297297298,-350 L108.76216216216217,-350 L108.76216216216217,-400 Z" fill="#f0f0f0" />
<path d="M115.33297297297298,-400 L121.9037837837838,-400 L121.9037837837838,-350 L115.33297297297298,-350 L115.33297297297298,-400 Z" fill="black" />
<path d="M121.9037837837838,-400 L128.4745945945946,-400 L128.4745945945946,-350 L121.9037837837838,-350 L121.9037837837838,-400 Z" fill="#f0f0f0" />
<path d="M128.4745945945946,-400 L135.0454054054054,-400 L135.0454054054054,-350 L128.4745945945946,-350 L128.4745945945946,-400 Z" fill="black" />
<path d="M135.0454054054054,-400 L141.6162162162162,-400 L141.6162162162162,-350 L135.0454054054054,-350 L135.0454054054054,-400 Z" fill="#f0f0f0" />
<path d="M141.6162162162162,-400 L148.187027027027,-400 L148.187027027027,-350 L141.6162162162162,-350 L141.6162162162162,-400 Z" fill="black" />
<path d="M148.187027027027,-400 L154.7578378378378,-400 L154.7578378378378,-350 L148.187027027027,-350 L148.187027027027,-400 Z" fill="#f0f0f0" />
<path d="M154.7578378378378,-400 L161.3286486486486,-400 L161.3286486486486,-350 L154.7578378378378,-350 L154.7578378378378,-400 Z" fill="black" />
<path d="M161.3286486486486,-400 L167.8994594594594,-400 L167.8994594594594,-350 L161.3286486486486,-350 L161.3286486486486,-400 Z" fill="#f0f0f0" />
<path d="M167.8994594594594,-400 L174.4702702702702,-400 L174.4702702702702,-350 L167.8994594594594,-350 L167.8994594594594,-400 Z" fill="black" />
<path d="M174.4702702702702,-400 L181.041081081081,-400 L181.041081081081,-350 L174.4702702702702,-350 L174.4702702702702,-400 Z" fill="#f0f0f0" />
<path d="M181.041081081081,-400 L187.6118918918918,-400 L187.6118918918918,-350 L181.041081081081,-350 L181.041081081081,-400 Z" fill="black" />
<path d="M187.6118918918918,-400 L194.18270270270258,-400 L194.18270270270258,-350 L187.6118918918918,-350 L187.6118918918918,-400 Z" fill="#f0f0f0" />
<path d="M194.18270270270258,-400 L200.75351351351338,-400 L200.75351351351338,-350 L194.18270270270258,-350 L194.18270270270258,-400 Z" fill="black" />
<path d="M200.75351351351338,-400 L207.32432432432418,-400 L207.32432432432418,-350 L200.75351351351338,-350 L200.75351351351338,-400 Z" fill="#f0f0f0" />
<path d="M207.32432432432418,-400 L213.89513513513498,-400 L213.89513513513498,-350 L207.32432432432418,-350 L207.32432432432418,-400 Z" fill="black" />
<path d="M213.89513513513498,-400 L220.46594594594578,-400 L220.46594594594578,-350 L213.89513513513498,-350 L213.89513513513498,-400 Z" fill="#f0f0f0" />
<path d="M220.46594594594578,-400 L227.03675675675657,-400 L227.03675675675657,-350 L220.46594594594578,-350 L220.46594594594578,-400 Z" fill="black" />
<path d="M227.03675675675657,-400 L233.60756756756737,-400 L233.60756756756737,-350 L227.03675675675657,-350 L227.03675675675657,-400 Z" fill="#f0f0f0" />
<path d="M233.60756756756737,-400 L240.17837837837817,-400 L240.17837837837817,-350 L233.60756756756737,-350 L233.60756756756737,-400 Z" fill="black" />
<path d="M240.17837837837817,-400 L246.74918918918897,-400 L246.74918918918897,-350 L240.17837837837817,-350 L240.17837837837817,-400 Z" fill="#f0f0f0" />
<path d="M246.74918918918897,-400 L253.31999999999977,-400 L253.31999999999977,-350 L246.74918918918897,-350 L246.74918918918897,-400 Z" fill="black" />
<path d="M253.31999999999977,-400 L259.8908108108106,-400 L259.8908108108106,-350 L253.31999999999977,-350 L253.31999999999977,-400 Z" fill="#f0f0f0" />
<path d="M259.8908108108106,-400 L266.4616216216214,-400 L266.4616216216214,-350 L259.8908108108106,-350 L259.8908108108106,-400 Z" fill="black" />
<path d="M266.4616216216214,-400 L273.03243243243224,-400 L273.03243243243224,-350 L266.4616216216214,-350 L266.4616216216214,-400 Z" fill="#f0f0f0" />
<path d="M273.03243243243224,-400 L279.60324324324307,-400 L279.60324324324307,-350 L273.03243243243224,-350 L273.03243243243224,-400 Z" fill="black" />
<path d="M279.60324324324307,-400 L286.1740540540539,-400 L286.1740540540539,-350 L279.60324324324307,-350 L279.60324324324307,-400 Z" fill="#f0f0f0" />
<path d="M286.1740540540539,-400 L292.7448648648647,-400 L292.7448648648647,-350 L286.1740540540539,-350 L286.1740540540539,-400 Z" fill="black" />
<path d="M292.7448648648647,-400 L299.31567567567555,-400 L299.31567567567555,-350 L292.7448648648647,-350 L292.7448648648647,-400 Z" fill="#f0f0f0" />
<path d="M299.31567567567555,-400 L305.8864864864864,-400 L305.8864864864864,-350 L299.31567567567555,-350 L299.31567567567555,-400 Z" fill="black" />
<path d="M305.8864864864864,-400 L312.4572972972972,-400 L312.4572972972972,-350 L305.8864864864864,-350 L305.8864864864864,-400 Z" fill="#f0f0f0" />
<path d="M312.4572972972972,-400 L319.02810810810803,-400 L319.02810810810803,-350 L312.4572972972972,-350 L312.4572972972972,-400 Z" fill="black" />
<path d="M319.02810810810803,-400 L325.59891891891886,-400 L325.59891891891886,-350 L319.02810810810803,-350 L319.02810810810803,-400 Z" fill="#f0f0f0" />
<path d="M325.59891891891886,-400 L332.1697297297297,-400 L332.1697297297297,-350 L325.59891891891886,-350 L325.59891891891886,-400 Z" fill="black" />
<path d="M332.1697297297297,-400 L338.7405405405405,-400 L338.7405405405405,-350 L332.1697297297297,-350 L332.1697297297297,-400 Z" fill="#f0f0f0" />
<path d="M338.7405405405405,-400 L345.31135135135133,-400 L345.31135135135133,-350 L338.7405405405405,-350 L338.7405405405405,-400 Z" fill="black" />
<path d="M345.31135135135133,-400 L351.88216216216216,-400 L351.88216216216216,-350 L345.31135135135133,-350 L345.31135135135133,-400 Z" fill="#f0f0f0" />
<path d="M351.88216216216216,-400 L358.452972972973,-400 L358.452972972973,-350 L351.88216216216216,-350 L351.88216216216216,-400 Z" fill="black" />
<path d="M358.452972972973,-400 L365.0237837837838,-400 L365.0237837837838,-350 L358.452972972973,-350 L358.452972972973,-400 Z" fill="#f0f0f0" />
<path d="M365.0237837837838,-400 L371.59459459459464,-400 L371.59459459459464,-350 L365.0237837837838,-350 L365.0237837837838,-400 Z" fill="black" />
<path d="M371.59459459459464,-400 L378.16540540540547,-400 L378.16540540540547,-350 L371.59459459459464,-350 L371.59459459459464,-400 Z" fill="#f0f0f0" />
<path d="M378.16540540540547,-400 L384.7362162162163,-400 L384.7362162162163,-350 L378.16540540540547,-350 L378.16540540540547,-400 Z" fill="black" />
<path d="M384.7362162162163,-400 L391.3070270270271,-400 L391.3070270270271,-350 L384.7362162162163,-350 L384.7362162162163,-400 Z" fill="#f0f0f0" />
<path d="M391.3070270270271,-400 L397.87783783783794,-400 L397.87783783783794,-350 L391.3070270270271,-350 L391.3070270270271,-400 Z" fill="black" />
<path d="M397.87783783783794,-400 L404.44864864864877,-400 L404.44864864864877,-350 L397.87783783783794,-350 L397.87783783783794,-400 Z" fill="#f0f0f0" />
<path d="M404.44864864864877,-400 L411.0194594594596,-400 L411.0194594594596,-350 L404.44864864864877,-350 L404.44864864864877,-400 Z" fill="black" />
<path d="M411.0194594594596,-400 L417.5902702702704,-400 L417.5902702702704,-350 L411.0194594594596,-350 L411.0194594594596,-400 Z" fill="#f0f0f0" />
<path d="M417.5902702702704,-400 L424.16108108108125,-400 L424.16108108108125,-350 L417.5902702702704,-350 L417.5902702702704,-400 Z" fill="black" />
<path d="M424.16108108108125,-400 L430.7318918918921,-400 L430.7318918918921,-350 L424.16108108108125,-350 L424.16108108108125,-400 Z" fill="#f0f0f0" />
<path d="M430.7318918918921,-400 L437.3027027027029,-400 L437.3027027027029,-350 L430.7318918918921,-350 L430.7318918918921,-400 Z" fill="black" />
<path d="M437.3027027027029,-400 L443.8735135135137,-400 L443.8735135135137,-350 L437.3027027027029,-350 L437.3027027027029,-400 Z" fill="#f0f0f0" />
<path d="M443.8735135135137,-400 L450.44432432432455,-400 L450.44432432432455,-350 L443.8735135135137,-350 L443.8735135135137,-400 Z" fill="black" />
<path d="M450.44432432432455,-400 L457.0151351351354,-400 L457.0151351351354,-350 L450.44432432432455,-350 L450.44432432432455,-400 Z" fill="#f0f0f0" />
<path d="M457.0151351351354,-400 L463.5859459459462,-400 L463.5859459459462,-350 L457.0151351351354,-350 L457.0151351351354,-400 Z" fill="black" />
<path d="M463.5859459459462,-400 L470.15675675675703,-400 L470.15675675675703,-350 L463.5859459459462,-350 L463.5859459459462,-400 Z" fill="#f0f0f0" />
<path d="M470.15675675675703,-400 L476.72756756756786,-400 L476.72756756756786,-350 L470.15675675675703,-350 L470.15675675675703,-400 Z" fill="black" />
<path d="M476.72756756756786,-400 L483.2983783783787,-400 L483.2983783783787,-350 L476.72756756756786,-350 L476.72756756756786,-400 Z" fill="#f0f0f0" />
<path d="M483.2983783783787,-400 L489.8691891891895,-400 L489.8691891891895,-350 L483.2983783783787,-350 L483.2983783783787,-400 Z" fill="black" />
<path d="M489.8691891891895,-400 L496.44000000000034,-400 L496.44000000000034,-350 L489.8691891891895,-350 L489.8691891891895,-400 Z" fill="#f0f0f0" />
<path d="M496.44000000000034,-400 L503.01081081081117,-400 L503.01081081081117,-350 L496.44000000000034,-350 L496.44000000000034,-400 Z" fill="black" />
<path d="M503.01081081081117,-400 L509.581621621622,-400 L509.581621621622,-350 L503.01081081081117,-350 L503.01081081081117,-400 Z" fill="#f0f0f0" />
<path d="M509.581621621622,-400 L516.1524324324328,-400 L516.1524324324328,-350 L509.581621621622,-350 L509.581621621622,-400 Z" fill="black" />
<path d="M516.1524324324328,-400 L522.7232432432436,-400 L522.7232432432436,-350 L516.1524324324328,-350 L516.1524324324328,-400 Z" fill="#f0f0f0" />
<path d="M522.7232432432436,-400 L529.2940540540544,-400 L529.2940540540544,-350 L522.7232432432436,-350 L522.7232432432436,-400 Z" fill="black" />
<path d="M529.2940540540544,-400 L535.8648648648652,-400 L535.8648648648652,-350 L529.2940540540544,-350 L529.2940540540544,-400 Z" fill="#f0f0f0" />
<path d="M535.8648648648652,-400 L542.4356756756761,-400 L542.4356756756761,-350 L535.8648648648652,-350 L535.8648648648652,-400 Z" fill="black" />
<path d="M542.4356756756761,-400 L549.0064864864869,-400 L549.0064864864869,-350 L542.4356756756761,-350 L542.4356756756761,-400 Z" fill="#f0f0f0" />
<path d="M549.0064864864869,-400 L555.5772972972977,-400 L555.5772972972977,-350 L549.0064864864869,-350 L549.0064864864869,-400 Z" fill="black" />
<path d="M555.5772972972977,-400 L562.1481081081085,-400 L562.1481081081085,-350 L555.5772972972977,-350 L555.5772972972977,-400 Z" fill="#f0f0f0" />
<path d="M562.1481081081085,-400 L568.7189189189194,-400 L568.7189189189194,-350 L562.1481081081085,-350 L562.1481081081085,-400 Z" fill="black" />
<path d="M568.7189189189194,-400 L575.2897297297302,-400 L575.2897297297302,-350 L568.7189189189194,-350 L568.7189189189194,-400 Z" fill="#f0f0f0" />
<path d="M575.2897297297302,-400 L581.860540540541,-400 L581.860540540541,-350 L575.2897297297302,-350 L575.2897297297302,-400 Z" fill="black" />
<path d="M581.860540540541,-400 L588.4313513513519,-400 L588.4313513513519,-350 L581.860540540541,-350 L581.860540540541,-400 Z" fill="#f0f0f0" />
<path d="M588.4313513513519,-400 L595.0021621621627,-400 L595.0021621621627,-350 L588.4313513513519,-350 L588.4313513513519,-400 Z" fill="black" />
<path d="M595.0021621621627,-400 L601.5729729729735,-400 L601.5729729729735,-350 L595.0021621621627,-350 L595.0021621621627,-400 Z" fill="#f0f0f0" />
<path d="M601.5729729729735,-400 L608.1437837837843,-400 L608.1437837837843,-350 L601.5729729729735,-350 L601.5729729729735,-400 Z" fill="black" />
<path d="M608.1437837837843,-400 L614.7145945945952,-400 L614.7145945945952,-350 L608.1437837837843,-350 L608.1437837837843,-400 Z" fill="#f0f0f0" />
<path d="M614.7145945945952,-400 L621.285405405406,-400 L621.285405405406,-350 L614.7145945945952,-350 L614.7145945945952,-400 Z" fill="black" />
<path d="M621.285405405406,-400 L627.8562162162168,-400 L627.8562162162168,-350 L621.285405405406,-350 L621.285405405406,-400 Z" fill="#f0f0f0" />
<path d="M627.8562162162168,-400 L634.4270270270276,-400 L634.4270270270276,-350 L627.8562162162168,-350 L627.8562162162168,-400 Z" fill="black" />
<path d="M634.4270270270276,-400 L640.9978378378385,-400 L640.9978378378385,-350 L634.4270270270276,-350 L634.4270270270276,-400 Z" fill="#f0f0f0" />
<path d="M640.9978378378385,-400 L647.5686486486493,-400 L647.5686486486493,-350 L640.9978378378385,-350 L640.9978378378385,-400 Z" fill="black" />
<path d="M647.5686486486493,-400 L654.1394594594601,-400 L654.1394594594601,-350 L647.5686486486493,-350 L647.5686486486493,-400 Z" fill="#f0f0f0" />
<path d="M654.1394594594601,-400 L660.7102702702709,-400 L660.7102702702709,-350 L654.1394594594601,-350 L654.1394594594601,-400 Z" fill="black" />
<path d="M660.7102702702709,-400 L667.2810810810818,-400 L667.2810810810818,-350 L660.7102702702709,-350 L660.7102702702709,-400 Z" fill="#f0f0f0" />
<path d="M667.2810810810818,-400 L673.8518918918926,-400 L673.8518918918926,-350 L667.2810810810818,-350 L667.2810810810818,-400 Z" fill="black" />
<path d="M673.8518918918926,-400 L680.4227027027034,-400 L680.4227027027034,-350 L673.8518918918926,-350 L673.8518918918926,-400 Z" fill="#f0f0f0" />
<path d="M680.4227027027034,-400 L686.9935135135142,-400 L686.9935135135142,-350 L680.4227027027034,-350 L680.4227027027034,-400 Z" fill="black" />
<path d="M686.9935135135142,-400 L693.5643243243251,-400 L693.5643243243251,-350 L686.9935135135142,-350 L686.9935135135142,-400 Z" fill="#f0f0f0" />
<path d="M693.5643243243251,-400 L700.1351351351359,-400 L700.1351351351359,-350 L693.5643243243251,-350 L693.5643243243251,-400 Z" fill="black" />
<path d="M700.1351351351359,-400 L706.7059459459467,-400 L706.7059459459467,-350 L700.1351351351359,-350 L700.1351351351359,-400 Z" fill="#f0f0f0" />
<path d="M706.7059459459467,-400 L713.2767567567575,-400 L713.2767567567575,-350 L706.7059459459467,-350 L706.7059459459467,-400 Z" fill="black" />
<path d="M713.2767567567575,-400 L719.8475675675684,-400 L719.8475675675684,-350 L713.2767567567575,-350 L713.2767567567575,-400 Z" fill="#f0f0f0" />
<path d="M719.8475675675684,-400 L726.4183783783792,-400 L726.4183783783792,-350 L719.8475675675684,-350 L719.8475675675684,-400 Z" fill="black" />
<path d="M726.4183783783792,-400 L732.98918918919,-400 L732.98918918919,-350 L726.4183783783792,-350 L726.4183783783792,-400 Z" fill="#f0f0f0" />
<path d="M732.98918918919,-400 L739.5600000000009,-400 L739.5600000000009,-350 L732.98918918919,-350 L732.98918918919,-400 Z" fill="black" />
<path d="M739.5600000000009,-400 L746.1308108108117,-400 L746.1308108108117,-350 L739.5600000000009,-350 L739.5600000000009,-400 Z" fill="#f0f0f0" />
<path d="M746.1308108108117,-400 L752.7016216216225,-400 L752.7016216216225,-350 L746.1308108108117,-350 L746.1308108108117,-400 Z" fill="black" />
<path d="M752.7016216216225,-400 L759.2724324324333,-400 L759.2724324324333,-350 L752.7016216216225,-350 L752.7016216216225,-400 Z" fill="#f0f0f0" />
<path d="M759.2724324324333,-400 L765.8432432432442,-400 L765.8432432432442,-350 L759.2724324324333,-350 L759.2724324324333,-400 Z" fill="black" />
<path d="M765.8432432432442,-400 L772.414054054055,-400 L772.414054054055,-350 L765.8432432432442,-350 L765.8432432432442,-400 Z" fill="#f0f0f0" />
<path d="M772.414054054055,-400 L778.9848648648658,-400 L778.9848648648658,-350 L772.414054054055,-350 L772.414054054055,-400 Z" fill="black" />
<path d="M778.9848648648658,-400 L785.5556756756766,-400 L785.5556756756766,-350 L778.9848648648658,-350 L778.9848648648658,-400 Z" fill="#f0f0f0" />
<path d="M785.5556756756766,-400 L792.1264864864875,-400 L792.1264864864875,-350 L785.5556756756766,-350 L785.5556756756766,-400 Z" fill="black" />
<path d="M792.1264864864875,-400 L798.6972972972983,-400 L798.6972972972983,-350 L792.1264864864875,-350 L792.1264864864875,-400 Z" fill="#f0f0f0" />
<path d="M798.6972972972983,-400 L805.2681081081091,-400 L805.2681081081091,-350 L798.6972972972983,-350 L798.6972972972983,-400 Z" fill="black" />
<path d="M805.2681081081091,-400 L811.83891891892,-400 L811.83891891892,-350 L805.2681081081091,-350 L805.2681081081091,-400 Z" fill="#f0f0f0" />
<path d="M811.83891891892,-400 L818.4097297297308,-400 L818.4097297297308,-350 L811.83891891892,-350 L811.83891891892,-400 Z" fill="black" />
<path d="M818.4097297297308,-400 L824.9805405405416,-400 L824.9805405405416,-350 L818.4097297297308,-350 L818.4097297297308,-400 Z" fill="#f0f0f0" />
<path d="M824.9805405405416,-400 L831.5513513513524,-400 L831.5513513513524,-350 L824.9805405405416,-350 L824.9805405405416,-400 Z" fill="black" />
<path d="M831.5513513513524,-400 L838.1221621621632,-400 L838.1221621621632,-350 L831.5513513513524,-350 L831.5513513513524,-400 Z" fill="#f0f0f0" />
<path d="M838.1221621621632,-400 L844.6929729729741,-400 L844.6929729729741,-350 L838.1221621621632,-350 L838.1221621621632,-400 Z" fill="black" />
<path d="M844.6929729729741,-400 L851.2637837837849,-400 L851.2637837837849,-350 L844.6929729729741,-350 L844.6929729729741,-400 Z" fill="#f0f0f0" />
<path d="M851.2637837837849,-400 L857.8345945945957,-400 L857.8345945945957,-350 L851.2637837837849,-350 L851.2637837837849,-400 Z" fill="black" />
<path d="M857.8345945945957,-400 L864.4054054054066,-400 L864.4054054054066,-350 L857.8345945945957,-350 L857.8345945945957,-400 Z" fill="#f0f0f0" />
<path d="M864.4054054054066,-400 L870.9762162162174,-400 L870.9762162162174,-350 L864.4054054054066,-350 L864.4054054054066,-400 Z" fill="black" />
<path d="M870.9762162162174,-400 L877.5470270270282,-400 L877.5470270270282,-350 L870.9762162162174,-350 L870.9762162162174,-400 Z" fill="#f0f0f0" />
<path d="M877.5470270270282,-400 L884.117837837839,-400 L884.117837837839,-350 L877.5470270270282,-350 L877.5470270270282,-400 Z" fill="black" />
<path d="M884.117837837839,-400 L890.6886486486499,-400 L890.6886486486499,-350 L884.117837837839,-350 L884.117837837839,-400 Z" fill="#f0f0f0" />
<path d="M890.6886486486499,-400 L897.2594594594607,-400 L897.2594594594607,-350 L890.6886486486499,-350 L890.6886486486499,-400 Z" fill="black" />
<path d="M897.2594594594607,-400 L903.8302702702715,-400 L903.8302702702715,-350 L897.2594594594607,-350 L897.2594594594607,-400 Z" fill="#f0f0f0" />
<path d="M903.8302702702715,-400 L910.4010810810823,-400 L910.4010810810823,-350 L903.8302702702715,-350 L903.8302702702715,-400 Z" fill="black" />
<path d="M910.4010810810823,-400 L916.9718918918932,-400 L916.9718918918932,-350 L910.4010810810823,-350 L910.4010810810823,-400 Z" fill="#f0f0f0" />
<path d="M916.9718918918932,-400 L923.542702702704,-400 L923.542702702704,-350 L916.9718918918932,-350 L916.9718918918932,-400 Z" fill="black" />
<path d="M923.542702702704,-400 L930.1135135135148,-400 L930.1135135135148,-350 L923.542702702704,-350 L923.542702702704,-400 Z" fill="#f0f0f0" />
<path d="M930.1135135135148,-400 L936.6843243243256,-400 L936.6843243243256,-350 L930.1135135135148,-350 L930.1135135135148,-400 Z" fill="black" />
<path d="M936.6843243243256,-400 L943.2551351351365,-400 L943.2551351351365,-350 L936.6843243243256,-350 L936.6843243243256,-400 Z" fill="#f0f0f0" />
<path d="M943.2551351351365,-400 L949.8259459459473,-400 L949.8259459459473,-350 L943.2551351351365,-350 L943.2551351351365,-400 Z" fill="black" />
<path d="M949.8259459459473,-400 L956.3967567567581,-400 L956.3967567567581,-350 L949.8259459459473,-350 L949.8259459459473,-400 Z" fill="#f0f0f0" />
<path d="M956.3967567567581,-400 L962.967567567569,-400 L962.967567567569,-350 L956.3967567567581,-350 L956.3967567567581,-400 Z" fill="black" />
<path d="M962.967567567569,-400 L969.5383783783798,-400 L969.5383783783798,-350 L962.967567567569,-350 L962.967567567569,-400 Z" fill="#f0f0f0" />
<path d="M969.5383783783798,-400 L976.1091891891906,-400 L976.1091891891906,-350 L969.5383783783798,-350 L969.5383783783798,-400 Z" fill="black" />
<path d="M976.1091891891906,-400 L982.6800000000014,-400 L982.6800000000014,-350 L976.1091891891906,-350 L976.1091891891906,-400 Z" fill="#f0f0f0" />
<path d="M982.6800000000014,-400 L989.2508108108123,-400 L989.2508108108123,-350 L982.6800000000014,-350 L982.6800000000014,-400 Z" fill="black" />
<path d="M989.2508108108123,-400 L995.8216216216231,-400 L995.8216216216231,-350 L989.2508108108123,-350 L989.2508108108123,-400 Z" fill="#f0f0f0" />
<path d="M995.8216216216231,-400 L1002.3924324324339,-400 L1002.3924324324339,-350 L995.8216216216231,-350 L995.8216216216231,-400 Z" fill="black" />
<path d="M1002.3924324324339,-400 L1008.9632432432447,-400 L1008.9632432432447,-350 L1002.3924324324339,-350 L1002.3924324324339,-400 Z" fill="#f0f0f0" />
<path d="M1008.9632432432447,-400 L1015.5340540540556,-400 L1015.5340540540556,-350 L1008.9632432432447,-350 L1008.9632432432447,-400 Z" fill="black" />
<path d="M1015.5340540540556,-400 L1022.1048648648664,-400 L1022.1048648648664,-350 L1015.5340540540556,-350 L1015.5340540540556,-400 Z" fill="#f0f0f0" />
<path d="M1022.1048648648664,-400 L1028.6756756756772,-400 L1028.6756756756772,-350 L1022.1048648648664,-350 L1022.1048648648664,-400 Z" fill="black" />
<path d="M1028.6756756756772,-400 L1035.246486486488,-400 L1035.246486486488,-350 L1028.6756756756772,-350 L1028.6756756756772,-400 Z" fill="#f0f0f0" />
<path d="M1035.246486486488,-400 L1041.8172972972989,-400 L1041.8172972972989,-350 L1035.246486486488,-350 L1035.246486486488,-400 Z" fill="black" />
<path d="M1041.8172972972989,-400 L1048.3881081081097,-400 L1048.3881081081097,-350 L1041.8172972972989,-350 L1041.8172972972989,-400 Z" fill="#f0f0f0" />
<path d="M1048.3881081081097,-400 L1054.9589189189205,-400 L1054.9589189189205,-350 L1048.3881081081097,-350 L1048.3881081081097,-400 Z" fill="black" />
<path d="M1054.9589189189205,-400 L1061.5297297297313,-400 L1061.5297297297313,-350 L1054.9589189189205,-350 L1054.9589189189205,-400 Z" fill="#f0f0f0" />
<path d="M1061.5297297297313,-400 L1068.1005405405422,-400 L1068.1005405405422,-350 L1061.5297297297313,-350 L1061.5297297297313,-400 Z" fill="black" />
<path d="M1068.1005405405422,-400 L1074.671351351353,-400 L1074.671351351353,-350 L1068.1005405405422,-350 L1068.1005405405422,-400 Z" fill="#f0f0f0" />
<path d="M1074.671351351353,-400 L1081.2421621621638,-400 L1081.2421621621638,-350 L1074.671351351353,-350 L1074.671351351353,-400 Z" fill="black" />
<path d="M1081.2421621621638,-400 L1087.8129729729746,-400 L1087.8129729729746,-350 L1081.2421621621638,-350 L1081.2421621621638,-400 Z" fill="#f0f0f0" />
<path d="M1087.8129729729746,-400 L1094.3837837837855,-400 L1094.3837837837855,-350 L1087.8129729729746,-350 L1087.8129729729746,-400 Z" fill="black" />
<path d="M1094.3837837837855,-400 L1100.9545945945963,-400 L1100.9545945945963,-350 L1094.3837837837855,-350 L1094.3837837837855,-400 Z" fill="#f0f0f0" />
<path d="M1100.9545945945963,-400 L1107.5254054054071,-400 L1107.5254054054071,-350 L1100.9545945945963,-350 L1100.9545945945963,-400 Z" fill="black" />
<path d="M1107.5254054054071,-400 L1114.096216216218,-400 L1114.096216216218,-350 L1107.5254054054071,-350 L1107.5254054054071,-400 Z" fill="#f0f0f0" />
<path d="M1114.096216216218,-400 L1120.6670270270288,-400 L1120.6670270270288,-350 L1114.096216216218,-350 L1114.096216216218,-400 Z" fill="black" />
<path d="M1120.6670270270288,-400 L1127.2378378378396,-400 L1127.2378378378396,-350 L1120.6670270270288,-350 L1120.6670270270288,-400 Z" fill="#f0f0f0" />
<path d="M1127.2378378378396,-400 L1133.8086486486504,-400 L1133.8086486486504,-350 L1127.2378378378396,-350 L1127.2378378378396,-400 Z" fill="black" />
<path d="M1133.8086486486504,-400 L1140.3794594594613,-400 L1140.3794594594613,-350 L1133.8086486486504,-350 L1133.8086486486504,-400 Z" fill="#f0f0f0" />
<path d="M1140.3794594594613,-400 L1146.950270270272,-400 L1146.950270270272,-350 L1140.3794594594613,-350 L1140.3794594594613,-400 Z" fill="black" />
<path d="M1146.950270270272,-400 L1153.521081081083,-400 L1153.521081081083,-350 L1146.950270270272,-350 L1146.950270270272,-400 Z" fill="#f0f0f0" />
<path d="M1153.521081081083,-400 L1160.0918918918937,-400 L1160.0918918918937,-350 L1153.521081081083,-350 L1153.521081081083,-400 Z" fill="black" />
<path d="M1160.0918918918937,-400 L1166.6627027027046,-400 L1166.6627027027046,-350 L1160.0918918918937,-350 L1160.0918918918937,-400 Z" fill="#f0f0f0" />
<path d="M1166.6627027027046,-400 L1173.2335135135154,-400 L1173.2335135135154,-350 L1166.6627027027046,-350 L1166.6627027027046,-400 Z" fill="black" />
<path d="M1173.2335135135154,-400 L1179.8043243243262,-400 L1179.8043243243262,-350 L1173.2335135135154,-350 L1173.2335135135154,-400 Z" fill="#f0f0f0" />
<path d="M1179.8043243243262,-400 L1186.375135135137,-400 L1186.375135135137,-350 L1179.8043243243262,-350 L1179.8043243243262,-400 Z" fill="black" />
<path d="M1186.375135135137,-400 L1192.9459459459479,-400 L1192.9459459459479,-350 L1186.375135135137,-350 L1186.375135135137,-400 Z" fill="#f0f0f0" />
<path d="M1192.9459459459479,-400 L1199.5167567567587,-400 L1199.5167567567587,-350 L1192.9459459459479,-350 L1192.9459459459479,-400 Z" fill="black" />
<path d="M1199.5167567567587,-400 L1206.0875675675695,-400 L1206.0875675675695,-350 L1199.5167567567587,-350 L1199.5167567567587,-400 Z" fill="#f0f0f0" />
<path d="M1206.0875675675695,-400 L1212.6583783783803,-400 L1212.6583783783803,-350 L1206.0875675675695,-350 L1206.0875675675695,-400 Z" fill="black" />
<path d="M1212.6583783783803,-400 L1219.2291891891912,-400 L1219.2291891891912,-350 L1212.6583783783803,-350 L1212.6583783783803,-400 Z" fill="#f0f0f0" />
<path d="M1219.2291891891912,-400 L1225.800000000002,-400 L1225.800000000002,-350 L1219.2291891891912,-350 L1219.2291891891912,-400 Z" fill="black" />
<text x="10.2" y="-410" font-size="26" fill="black" dy="0em">CRISPR</text>
<path d="M3736.2000000000003,-400 L4658.400000000001,-400 L4658.400000000001,-350 L3736.2000000000003,-350 L3736.2000000000003,-400 Z" fill="white" stroke="white" stroke-width="4" />
<path d="M3736.2000000000003,-400 L3742.740425531915,-400 L3742.740425531915,-350 L3736.2000000000003,-350 L3736.2000000000003,-400 Z" fill="black" />
<path d="M3742.740425531915,-400 L3749.28085106383,-400 L3749.28085106383,-350 L3742.740425531915,-350 L3742.740425531915,-400 Z" fill="#f0f0f0" />
<path d="M3749.28085106383,-400 L3755.821276595745,-400 L3755.821276595745,-350 L3749.28085106383,-350 L3749.28085106383,-400 Z" fill="black" />
<path d="M3755.821276595745,-400 L3762.36170212766,-400 L3762.36170212766,-350 L3755.821276595745,-350 L3755.821276595745,-400 Z" fill="#f0f0f0" />
<path d="M3762.36170212766,-400 L3768.902127659575,-400 L3768.902127659575,-350 L3762.36170212766,-350 L3762.36170212766,-400 Z" fill="black" />
<path d="M3768.902127659575,-400 L3775.44255319149,-400 L3775.44255319149,-350 L3768.902127659575,-350 L3768.902127659575,-400 Z" fill="#f0f0f0" />
<path d="M3775.44255319149,-400 L3781.982978723405,-400 L3781.982978723405,-350 L3775.44255319149,-350 L3775.44255319149,-400 Z" fill="black" />
<path d="M3781.982978723405,-400 L3788.5234042553197,-400 L3788.5234042553197,-350 L3781.982978723405,-350 L3781.982978723405,-400 Z" fill="#f0f0f0" />
<path d="M3788.5234042553197,-400 L3795.0638297872347,-400 L3795.0638297872347,-350 L3788.5234042553197,-350 L3788.5234042553197,-400 Z" fill="black" />
<path d="M3795.0638297872347,-400 L3801.6042553191496,-400 L3801.6042553191496,-350 L3795.0638297872347,-350 L3795.0638297872347,-400 Z" fill="#f0f0f0" />
<path d="M3801.6042553191496,-400 L3808.1446808510645,-400 L3808.1446808510645,-350 L3801.6042553191496,-350 L3801.6042553191496,-400 Z" fill="black" />
<path d="M3808.1446808510645,-400 L3814.6851063829795,-400 L3814.6851063829795,-350 L3808.1446808510645,-350 L3808.1446808510645,-400 Z" fill="#f0f0f0" />
<path d="M3814.6851063829795,-400 L3821.2255319148944,-400 L3821.2255319148944,-350 L3814.6851063829795,-350 L3814.6851063829795,-400 Z" fill="black" />
<path d="M3821.2255319148944,-400 L3827.7659574468094,-400 L3827.7659574468094,-350 L3821.2255319148944,-350 L3821.2255319148944,-400 Z" fill="#f0f0f0" />
<path d="M3827.7659574468094,-400 L3834.3063829787243,-400 L3834.3063829787243,-350 L3827.7659574468094,-350 L3827.7659574468094,-400 Z" fill="black" />
<path d="M3834.3063829787243,-400 L3840.846808510639,-400 L3840.846808510639,-350 L3834.3063829787243,-350 L3834.3063829787243,-400 Z" fill="#f0f0f0" />
<path d="M3840.846808510639,-400 L3847.387234042554,-400 L3847.387234042554,-350 L3840.846808510639,-350 L3840.846808510639,-400 Z" fill="black" />
<path d="M3847.387234042554,-400 L3853.927659574469,-400 L3853.927659574469,-350 L3847.387234042554,-350 L3847.387234042554,-400 Z" fill="#f0f0f0" />
<path d="M3853.927659574469,-400 L3860.468085106384,-400 L3860.468085106384,-350 L3853.927659574469,-350 L3853.927659574469,-400 Z" fill="black" />
<path d="M3860.468085106384,-400 L3867.008510638299,-400 L3867.008510638299,-350 L3860.468085106384,-350 L3860.468085106384,-400 Z" fill="#f0f0f0" />
<path d="M3867.008510638299,-400 L3873.548936170214,-400 L3873.548936170214,-350 L3867.008510638299,-350 L3867.008510638299,-400 Z" fill="black" />
<path d="M3873.548936170214,-400 L3880.089361702129,-400 L3880.089361702129,-350 L3873.548936170214,-350 L3873.548936170214,-400 Z" fill="#f0f0f0" />
<path d="M3880.089361702129,-400 L3886.6297872340438,-400 L3886.6297872340438,-350 L3880.089361702129,-350 L3880.089361702129,-400 Z" fill="black" />
<path d="M3886.6297872340438,-400 L3893.1702127659587,-400 L3893.1702127659587,-350 L3886.6297872340438,-350 L3886.6297872340438,-400 Z" fill="#f0f0f0" />
<path d="M3893.1702127659587,-400 L3899.7106382978736,-400 L3899.7106382978736,-350 L3893.1702127659587,-350 L3893.1702127659587,-400 Z" fill="black" />
<path d="M3899.7106382978736,-400 L3906.2510638297886,-400 L3906.2510638297886,-350 L3899.7106382978736,-350 L3899.7106382978736,-400 Z" fill="#f0f0f0" />
<path d="M3906.2510638297886,-400 L3912.7914893617035,-400 L3912.7914893617035,-350 L3906.2510638297886,-350 L3906.2510638297886,-400 Z" fill="black" />
<path d="M3912.7914893617035,-400 L3919.3319148936184,-400 L3919.3319148936184,-350 L3912.7914893617035,-350 L3912.7914893617035,-400 Z" fill="#f0f0f0" />
<path d="M3919.3319148936184,-400 L3925.8723404255334,-400 L3925.8723404255334,-350 L3919.3319148936184,-350 L3919.3319148936184,-400 Z" fill="black" />
<path d="M3925.8723404255334,-400 L3932.4127659574483,-400 L3932.4127659574483,-350 L3925.8723404255334,-350 L3925.8723404255334,-400 Z" fill="#f0f0f0" />
<path d="M3932.4127659574483,-400 L3938.9531914893632,-400 L3938.9531914893632,-350 L3932.4127659574483,-350 L3932.4127659574483,-400 Z" fill="black" />
<path d="M3938.9531914893632,-400 L3945.493617021278,-400 L3945.493617021278,-350 L3938.9531914893632,-350 L3938.9531914893632,-400 Z" fill="#f0f0f0" />
<path d="M3945.493617021278,-400 L3952.034042553193,-400 L3952.034042553193,-350 L3945.493617021278,-350 L3945.493617021278,-400 Z" fill="black" />
<path d="M3952.034042553193,-400 L3958.574468085108,-400 L3958.574468085108,-350 L3952.034042553193,-350 L3952.034042553193,-400 Z" fill="#f0f0f0" />
<path d="M3958.574468085108,-400 L3965.114893617023,-400 L3965.114893617023,-350 L3958.574468085108,-350 L3958.574468085108,-400 Z" fill="black" />
<path d="M3965.114893617023,-400 L3971.655319148938,-400 L3971.655319148938,-350 L3965.114893617023,-350 L3965.114893617023,-400 Z" fill="#f0f0f0" />
<path d="M3971.655319148938,-400 L3978.195744680853,-400 L3978.195744680853,-350 L3971.655319148938,-350 L3971.655319148938,-400 Z" fill="black" />
<path d="M3978.195744680853,-400 L3984.736170212768,-400 L3984.736170212768,-350 L3978.195744680853,-350 L3978.195744680853,-400 Z" fill="#f0f0f0" />
<path d="M3984.736170212768,-400 L3991.2765957446827,-400 L3991.2765957446827,-350 L3984.736170212768,-350 L3984.736170212768,-400 Z" fill="black" />
<path d="M3991.2765957446827,-400 L3997.8170212765976,-400 L3997.8170212765976,-350 L3991.2765957446827,-350 L3991.2765957446827,-400 Z" fill="#f0f0f0" />
<path d="M3997.8170212765976,-400 L4004.3574468085126,-400 L4004.3574468085126,-350 L3997.8170212765976,-350 L3997.8170212765976,-400 Z" fill="black" />
<path d="M4004.3574468085126,-400 L4010.8978723404275,-400 L4010.8978723404275,-350 L4004.3574468085126,-350 L4004.3574468085126,-400 Z" fill="#f0f0f0" />
<path d="M4010.8978723404275,-400 L4017.4382978723424,-400 L4017.4382978723424,-350 L4010.8978723404275,-350 L4010.8978723404275,-400 Z" fill="black" />
<path d="M4017.4382978723424,-400 L4023.9787234042574,-400 L4023.9787234042574,-350 L4017.4382978723424,-350 L4017.4382978723424,-400 Z" fill="#f0f0f0" />
<path d="M4023.9787234042574,-400 L4030.5191489361723,-400 L4030.5191489361723,-350 L4023.9787234042574,-350 L4023.9787234042574,-400 Z" fill="black" />
<path d="M4030.5191489361723,-400 L4037.0595744680872,-400 L4037.0595744680872,-350 L4030.5191489361723,-350 L4030.5191489361723,-400 Z" fill="#f0f0f0" />
<path d="M4037.0595744680872,-400 L4043.600000000002,-400 L4043.600000000002,-350 L4037.0595744680872,-350 L4037.0595744680872,-400 Z" fill="black" />
<path d="M4043.600000000002,-400 L4050.140425531917,-400 L4050.140425531917,-350 L4043.600000000002,-350 L4043.600000000002,-400 Z" fill="#f0f0f0" />
<path d="M4050.140425531917,-400 L4056.680851063832,-400 L4056.680851063832,-350 L4050.140425531917,-350 L4050.140425531917,-400 Z" fill="black" />
<path d="M4056.680851063832,-400 L4063.221276595747,-400 L4063.221276595747,-350 L4056.680851063832,-350 L4056.680851063832,-400 Z" fill="#f0f0f0" />
<path d="M4063.221276595747,-400 L4069.761702127662,-400 L4069.761702127662,-350 L4063.221276595747,-350 L4063.221276595747,-400 Z" fill="black" />
<path d="M4069.761702127662,-400 L4076.302127659577,-400 L4076.302127659577,-350 L4069.761702127662,-350 L4069.761702127662,-400 Z" fill="#f0f0f0" />
<path d="M4076.302127659577,-400 L4082.842553191492,-400 L4082.842553191492,-350 L4076.302127659577,-350 L4076.302127659577,-400 Z" fill="black" />
<path d="M4082.842553191492,-400 L4089.3829787234067,-400 L4089.3829787234067,-350 L4082.842553191492,-350 L4082.842553191492,-400 Z" fill="#f0f0f0" />
<path d="M4089.3829787234067,-400 L4095.9234042553217,-400 L4095.9234042553217,-350 L4089.3829787234067,-350 L4089.3829787234067,-400 Z" fill="black" />
<path d="M4095.9234042553217,-400 L4102.463829787236,-400 L4102.463829787236,-350 L4095.9234042553217,-350 L4095.9234042553217,-400 Z" fill="#f0f0f0" />
<path d="M4102.463829787236,-400 L4109.004255319151,-400 L4109.004255319151,-350 L4102.463829787236,-350 L4102.463829787236,-400 Z" fill="black" />
<path d="M4109.004255319151,-400 L4115.544680851065,-400 L4115.544680851065,-350 L4109.004255319151,-350 L4109.004255319151,-400 Z" fill="#f0f0f0" />
<path d="M4115.544680851065,-400 L4122.08510638298,-400 L4122.08510638298,-350 L4115.544680851065,-350 L4115.544680851065,-400 Z" fill="black" />
<path d="M4122.08510638298,-400 L4128.625531914894,-400 L4128.625531914894,-350 L4122.08510638298,-350 L4122.08510638298,-400 Z" fill="#f0f0f0" />
<path d="M4128.625531914894,-400 L4135.1659574468085,-400 L4135.1659574468085,-350 L4128.625531914894,-350 L4128.625531914894,-400 Z" fill="black" />
<path d="M4135.1659574468085,-400 L4141.706382978723,-400 L4141.706382978723,-350 L4135.1659574468085,-350 L4135.1659574468085,-400 Z" fill="#f0f0f0" />
<path d="M4141.706382978723,-400 L4148.2468085106375,-400 L4148.2468085106375,-350 L4141.706382978723,-350 L4141.706382978723,-400 Z" fill="black" />
<path d="M4148.2468085106375,-400 L4154.787234042552,-400 L4154.787234042552,-350 L4148.2468085106375,-350 L4148.2468085106375,-400 Z" fill="#f0f0f0" />
<path d="M4154.787234042552,-400 L4161.327659574466,-400 L4161.327659574466,-350 L4154.787234042552,-350 L4154.787234042552,-400 Z" fill="black" />
<path d="M4161.327659574466,-400 L4167.868085106381,-400 L4167.868085106381,-350 L4161.327659574466,-350 L4161.327659574466,-400 Z" fill="#f0f0f0" />
<path d="M4167.868085106381,-400 L4174.408510638295,-400 L4174.408510638295,-350 L4167.868085106381,-350 L4167.868085106381,-400 Z" fill="black" />
<path d="M4174.408510638295,-400 L4180.94893617021,-400 L4180.94893617021,-350 L4174.408510638295,-350 L4174.408510638295,-400 Z" fill="#f0f0f0" />
<path d="M4180.94893617021,-400 L4187.489361702124,-400 L4187.489361702124,-350 L4180.94893617021,-350 L4180.94893617021,-400 Z" fill="black" />
<path d="M4187.489361702124,-400 L4194.029787234039,-400 L4194.029787234039,-350 L4187.489361702124,-350 L4187.489361702124,-400 Z" fill="#f0f0f0" />
<path d="M4194.029787234039,-400 L4200.570212765953,-400 L4200.570212765953,-350 L4194.029787234039,-350 L4194.029787234039,-400 Z" fill="black" />
<path d="M4200.570212765953,-400 L4207.110638297868,-400 L4207.110638297868,-350 L4200.570212765953,-350 L4200.570212765953,-400 Z" fill="#f0f0f0" />
<path d="M4207.110638297868,-400 L4213.651063829782,-400 L4213.651063829782,-350 L4207.110638297868,-350 L4207.110638297868,-400 Z" fill="black" />
<path d="M4213.651063829782,-400 L4220.191489361697,-400 L4220.191489361697,-350 L4213.651063829782,-350 L4213.651063829782,-400 Z" fill="#f0f0f0" />
<path d="M4220.191489361697,-400 L4226.731914893611,-400 L4226.731914893611,-350 L4220.191489361697,-350 L4220.191489361697,-400 Z" fill="black" />
<path d="M4226.731914893611,-400 L4233.272340425526,-400 L4233.272340425526,-350 L4226.731914893611,-350 L4226.731914893611,-400 Z" fill="#f0f0f0" />
<path d="M4233.272340425526,-400 L4239.81276595744,-400 L4239.81276595744,-350 L4233.272340425526,-350 L4233.272340425526,-400 Z" fill="black" />
<path d="M4239.81276595744,-400 L4246.353191489355,-400 L4246.353191489355,-350 L4239.81276595744,-350 L4239.81276595744,-400 Z" fill="#f0f0f0" />
<path d="M4246.353191489355,-400 L4252.893617021269,-400 L4252.893617021269,-350 L4246.353191489355,-350 L4246.353191489355,-400 Z" fill="black" />
<path d="M4252.893617021269,-400 L4259.434042553184,-400 L4259.434042553184,-350 L4252.893617021269,-350 L4252.893617021269,-400 Z" fill="#f0f0f0" />
<path d="M4259.434042553184,-400 L4265.974468085098,-400 L4265.974468085098,-350 L4259.434042553184,-350 L4259.434042553184,-400 Z" fill="black" />
<path d="M4265.974468085098,-400 L4272.514893617013,-400 L4272.514893617013,-350 L4265.974468085098,-350 L4265.974468085098,-400 Z" fill="#f0f0f0" />
<path d="M4272.514893617013,-400 L4279.055319148927,-400 L4279.055319148927,-350 L4272.514893617013,-350 L4272.514893617013,-400 Z" fill="black" />
<path d="M4279.055319148927,-400 L4285.595744680842,-400 L4285.595744680842,-350 L4279.055319148927,-350 L4279.055319148927,-400 Z" fill="#f0f0f0" />
<path d="M4285.595744680842,-400 L4292.136170212756,-400 L4292.136170212756,-350 L4285.595744680842,-350 L4285.595744680842,-400 Z" fill="black" />
<path d="M4292.136170212756,-400 L4298.6765957446705,-400 L4298.6765957446705,-350 L4292.136170212756,-350 L4292.136170212756,-400 Z" fill="#f0f0f0" />
<path d="M4298.6765957446705,-400 L4305.217021276585,-400 L4305.217021276585,-350 L4298.6765957446705,-350 L4298.6765957446705,-400 Z" fill="black" />
<path d="M4305.217021276585,-400 L4311.7574468084995,-400 L4311.7574468084995,-350 L4305.217021276585,-350 L4305.217021276585,-400 Z" fill="#f0f0f0" />
<path d="M4311.7574468084995,-400 L4318.297872340414,-400 L4318.297872340414,-350 L4311.7574468084995,-350 L4311.7574468084995,-400 Z" fill="black" />
<path d="M4318.297872340414,-400 L4324.838297872328,-400 L4324.838297872328,-350 L4318.297872340414,-350 L4318.297872340414,-400 Z" fill="#f0f0f0" />
<path d="M4324.838297872328,-400 L4331.378723404243,-400 L4331.378723404243,-350 L4324.838297872328,-350 L4324.838297872328,-400 Z" fill="black" />
<path d="M4331.378723404243,-400 L4337.919148936157,-400 L4337.919148936157,-350 L4331.378723404243,-350 L4331.378723404243,-400 Z" fill="#f0f0f0" />
<path d="M4337.919148936157,-400 L4344.459574468072,-400 L4344.459574468072,-350 L4337.919148936157,-350 L4337.919148936157,-400 Z" fill="black" />
<path d="M4344.459574468072,-400 L4350.999999999986,-400 L4350.999999999986,-350 L4344.459574468072,-350 L4344.459574468072,-400 Z" fill="#f0f0f0" />
<path d="M4350.999999999986,-400 L4357.540425531901,-400 L4357.540425531901,-350 L4350.999999999986,-350 L4350.999999999986,-400 Z" fill="black" />
<path d="M4357.540425531901,-400 L4364.080851063815,-400 L4364.080851063815,-350 L4357.540425531901,-350 L4357.540425531901,-400 Z" fill="#f0f0f0" />
<path d="M4364.080851063815,-400 L4370.62127659573,-400 L4370.62127659573,-350 L4364.080851063815,-350 L4364.080851063815,-400 Z" fill="black" />
<path d="M4370.62127659573,-400 L4377.161702127644,-400 L4377.161702127644,-350 L4370.62127659573,-350 L4370.62127659573,-400 Z" fill="#f0f0f0" />
<path d="M4377.161702127644,-400 L4383.702127659559,-400 L4383.702127659559,-350 L4377.161702127644,-350 L4377.161702127644,-400 Z" fill="black" />
<path d="M4383.702127659559,-400 L4390.242553191473,-400 L4390.242553191473,-350 L4383.702127659559,-350 L4383.702127659559,-400 Z" fill="#f0f0f0" />
<path d="M4390.242553191473,-400 L4396.782978723388,-400 L4396.782978723388,-350 L4390.242553191473,-350 L4390.242553191473,-400 Z" fill="black" />
<path d="M4396.782978723388,-400 L4403.323404255302,-400 L4403.323404255302,-350 L4396.782978723388,-350 L4396.782978723388,-400 Z" fill="#f0f0f0" />
<path d="M4403.323404255302,-400 L4409.863829787217,-400 L4409.863829787217,-350 L4403.323404255302,-350 L4403.323404255302,-400 Z" fill="black" />
<path d="M4409.863829787217,-400 L4416.404255319131,-400 L4416.404255319131,-350 L4409.863829787217,-350 L4409.863829787217,-400 Z" fill="#f0f0f0" />
<path d="M4416.404255319131,-400 L4422.944680851046,-400 L4422.944680851046,-350 L4416.404255319131,-350 L4416.404255319131,-400 Z" fill="black" />
<path d="M4422.944680851046,-400 L4429.48510638296,-400 L4429.48510638296,-350 L4422.944680851046,-350 L4422.944680851046,-400 Z" fill="#f0f0f0" />
<path d="M4429.48510638296,-400 L4436.025531914875,-400 L4436.025531914875,-350 L4429.48510638296,-350 L4429.48510638296,-400 Z" fill="black" />
<path d="M4436.025531914875,-400 L4442.565957446789,-400 L4442.565957446789,-350 L4436.025531914875,-350 L4436.025531914875,-400 Z" fill="#f0f0f0" />
<path d="M4442.565957446789,-400 L4449.106382978704,-400 L4449.106382978704,-350 L4442.565957446789,-350 L4442.565957446789,-400 Z" fill="black" />
<path d="M4449.106382978704,-400 L4455.646808510618,-400 L4455.646808510618,-350 L4449.106382978704,-350 L4449.106382978704,-400 Z" fill="#f0f0f0" />
<path d="M4455.646808510618,-400 L4462.1872340425325,-400 L4462.1872340425325,-350 L4455.646808510618,-350 L4455.646808510618,-400 Z" fill="black" />
<path d="M4462.1872340425325,-400 L4468.727659574447,-400 L4468.727659574447,-350 L4462.1872340425325,-350 L4462.1872340425325,-400 Z" fill="#f0f0f0" />
<path d="M4468.727659574447,-400 L4475.2680851063615,-400 L4475.2680851063615,-350 L4468.727659574447,-350 L4468.727659574447,-400 Z" fill="black" />
<path d="M4475.2680851063615,-400 L4481.808510638276,-400 L4481.808510638276,-350 L4475.2680851063615,-350 L4475.2680851063615,-400 Z" fill="#f0f0f0" />
<path d="M4481.808510638276,-400 L4488.34893617019,-400 L4488.34893617019,-350 L4481.808510638276,-350 L4481.808510638276,-400 Z" fill="black" />
<path d="M4488.34893617019,-400 L4494.889361702105,-400 L4494.889361702105,-350 L4488.34893617019,-350 L4488.34893617019,-400 Z" fill="#f0f0f0" />
<path d="M4494.889361702105,-400 L4501.429787234019,-400 L4501.429787234019,-350 L4494.889361702105,-350 L4494.889361702105,-400 Z" fill="black" />
<path d="M4501.429787234019,-400 L4507.970212765934,-400 L4507.970212765934,-350 L4501.429787234019,-350 L4501.429787234019,-400 Z" fill="#f0f0f0" />
<path d="M4507.970212765934,-400 L4514.510638297848,-400 L4514.510638297848,-350 L4507.970212765934,-350 L4507.970212765934,-400 Z" fill="black" />
<path d="M4514.510638297848,-400 L4521.051063829763,-400 L4521.051063829763,-350 L4514.510638297848,-350 L4514.510638297848,-400 Z" fill="#f0f0f0" />
<path d="M4521.051063829763,-400 L4527.591489361677,-400 L4527.591489361677,-350 L4521.051063829763,-350 L4521.051063829763,-400 Z" fill="black" />
<path d="M4527.591489361677,-400 L4534.131914893592,-400 L4534.131914893592,-350 L4527.591489361677,-350 L4527.591489361677,-400 Z" fill="#f0f0f0" />
<path d="M4534.131914893592,-400 L4540.672340425506,-400 L4540.672340425506,-350 L4534.131914893592,-350 L4534.131914893592,-400 Z" fill="black" />
<path d="M4540.672340425506,-400 L4547.212765957421,-400 L4547.212765957421,-350 L4540.672340425506,-350 L4540.672340425506,-400 Z" fill="#f0f0f0" />
<path d="M4547.212765957421,-400 L4553.753191489335,-400 L4553.753191489335,-350 L4547.212765957421,-350 L4547.212765957421,-400 Z" fill="black" />
<path d="M4553.753191489335,-400 L4560.29361702125,-400 L4560.29361702125,-350 L4553.753191489335,-350 L4553.753191489335,-400 Z" fill="#f0f0f0" />
<path d="M4560.29361702125,-400 L4566.834042553164,-400 L4566.834042553164,-350 L4560.29361702125,-350 L4560.29361702125,-400 Z" fill="black" />
<path d="M4566.834042553164,-400 L4573.374468085079,-400 L4573.374468085079,-350 L4566.834042553164,-350 L4566.834042553164,-400 Z" fill="#f0f0f0" />
<path d="M4573.374468085079,-400 L4579.914893616993,-400 L4579.914893616993,-350 L4573.374468085079,-350 L4573.374468085079,-400 Z" fill="black" />
<path d="M4579.914893616993,-400 L4586.455319148908,-400 L4586.455319148908,-350 L4579.914893616993,-350 L4579.914893616993,-400 Z" fill="#f0f0f0" />
<path d="M4586.455319148908,-400 L4592.995744680822,-400 L4592.995744680822,-350 L4586.455319148908,-350 L4586.455319148908,-400 Z" fill="black" />
<path d="M4592.995744680822,-400 L4599.536170212737,-400 L4599.536170212737,-350 L4592.995744680822,-350 L4592.995744680822,-400 Z" fill="#f0f0f0" />
<path d="M4599.536170212737,-400 L4606.076595744651,-400 L4606.076595744651,-350 L4599.536170212737,-350 L4599.536170212737,-400 Z" fill="black" />
<path d="M4606.076595744651,-400 L4612.6170212765655,-400 L4612.6170212765655,-350 L4606.076595744651,-350 L4606.076595744651,-400 Z" fill="#f0f0f0" />
<path d="M4612.6170212765655,-400 L4619.15744680848,-400 L4619.15744680848,-350 L4612.6170212765655,-350 L4612.6170212765655,-400 Z" fill="black" />
<path d="M4619.15744680848,-400 L4625.6978723403945,-400 L4625.6978723403945,-350 L4619.15744680848,-350 L4619.15744680848,-400 Z" fill="#f0f0f0" />
<path d="M4625.6978723403945,-400 L4632.238297872309,-400 L4632.238297872309,-350 L4625.6978723403945,-350 L4625.6978723403945,-400 Z" fill="black" />
<path d="M4632.238297872309,-400 L4638.7787234042235,-400 L4638.7787234042235,-350 L4632.238297872309,-350 L4632.238297872309,-400 Z" fill="#f0f0f0" />
<path d="M4638.7787234042235,-400 L4645.319148936138,-400 L4645.319148936138,-350 L4638.7787234042235,-350 L4638.7787234042235,-400 Z" fill="black" />
<path d="M4645.319148936138,-400 L4651.859574468052,-400 L4651.859574468052,-350 L4645.319148936138,-350 L4645.319148936138,-400 Z" fill="#f0f0f0" />
<path d="M4651.859574468052,-400 L4658.399999999967,-400 L4658.399999999967,-350 L4651.859574468052,-350 L4651.859574468052,-400 Z" fill="black" />
<text x="3736.2000000000003" y="-410" font-size="26" fill="black" dy="0em">CRISPR</text>
<text x="16.0" y="-260" font-size="38" fill="black" dy="0em">III-B: CP084166@11 (497074-513541)</text>
<path d="M40.2,-200 L127.60000000000001,-200 L127.60000000000001,-150 L40.2,-150 L10.2,-175.0 L40.2,-200 Z" fill="#ff80e6" fill-opacity="0.8" stroke="#ff80e6" stroke-width="4" />
<text x="10.2" y="-210" font-size="26" fill="black" dy="0em">Csx1</text>
<path d="M139.20000000000002,-200 L212.20000000000002,-200 L242.20000000000002,-175.0 L212.20000000000002,-150 L139.20000000000002,-150 L139.20000000000002,-200 Z" fill="#d3c9c1" fill-opacity="0.8" stroke="#d3c9c1" stroke-width="4" />
<text x="139.20000000000002" y="-120" font-size="20" fill="black" dy="0em">383</text>
<path d="M249.4,-200 L371.6,-200 L401.6,-175.0 L371.6,-150 L249.4,-150 L249.4,-200 Z" fill="#d3c9c1" fill-opacity="0.8" stroke="#d3c9c1" stroke-width="4" />
<text x="249.4" y="-210" font-size="20" fill="black" dy="0em">384</text>
<path d="M406.0,-200 L468.8,-200 L498.8,-175.0 L468.8,-150 L406.0,-150 L406.0,-200 Z" fill="#d3c9c1" fill-opacity="0.8" stroke="#d3c9c1" stroke-width="4" />
<text x="406.0" y="-120" font-size="20" fill="black" dy="0em">385</text>
<path d="M579.4,-200 L795.2,-200 L795.2,-150 L579.4,-150 L549.4,-175.0 L579.4,-200 Z" fill="#ff80e6" fill-opacity="0.8" stroke="#ff80e6" stroke-width="4" />
<text x="549.4" y="-210" font-size="26" fill="black" dy="0em">Csx1</text>
<path d="M847.8000000000001,-200 L933.4000000000001,-200 L933.4000000000001,-150 L847.8000000000001,-150 L817.8000000000001,-175.0 L847.8000000000001,-200 Z" fill="#efc050" fill-opacity="0.8" stroke="#efc050" stroke-width="4" />
<text x="817.8000000000001" y="-120" font-size="26" fill="black" dy="0em">Cmr6gr7</text>
<path d="M1010.8000000000001,-200 L1040.0,-200 L1040.0,-150 L1010.8000000000001,-150 L980.8000000000001,-175.0 L1010.8000000000001,-200 Z" fill="#efc050" fill-opacity="0.8" stroke="#efc050" stroke-width="4" />
<text x="980.8000000000001" y="-210" font-size="26" fill="black" dy="0em">Cmr5gr11</text>
<path d="M1091.0,-200 L1240.8000000000002,-200 L1240.8000000000002,-150 L1091.0,-150 L1061.0,-175.0 L1091.0,-200 Z" fill="#efc050" fill-opacity="0.8" stroke="#efc050" stroke-width="4" />
<text x="1061.0" y="-120" font-size="26" fill="black" dy="0em">Cmr4gr7</text>
<path d="M1271.2,-200 L1469.6000000000001,-200 L1469.6000000000001,-150 L1271.2,-150 L1241.2,-175.0 L1271.2,-200 Z" fill="#efc050" fill-opacity="0.8" stroke="#efc050" stroke-width="4" />
<text x="1241.2" y="-210" font-size="26" fill="black" dy="0em">Cmr3gr5</text>
<path d="M1498.2,-200 L1870.0,-200 L1870.0,-150 L1498.2,-150 L1468.2,-175.0 L1498.2,-200 Z" fill="#efc050" fill-opacity="0.8" stroke="#efc050" stroke-width="4" />
<text x="1468.2" y="-120" font-size="26" fill="black" dy="0em">Cas10</text>
<path d="M1900.0,-200 L2109.2000000000003,-200 L2109.2000000000003,-150 L1900.0,-150 L1870.0,-175.0 L1900.0,-200 Z" fill="#efc050" fill-opacity="0.8" stroke="#efc050" stroke-width="4" />
<text x="1870.0" y="-210" font-size="26" fill="black" dy="0em">Cmr1gr7</text>
<path d="M2162.8,-200 L2243.6,-200 L2273.6,-175.0 L2243.6,-150 L2162.8,-150 L2162.8,-200 Z" fill="#ff80e6" fill-opacity="0.3" stroke="#ff80e6" stroke-width="4" />
<text x="2162.8" y="-120" font-size="26" fill="black" dy="0em">(Csx1)</text>
<path d="M2272.2000000000003,-200 L2361.4,-200 L2391.4,-175.0 L2361.4,-150 L2272.2000000000003,-150 L2272.2000000000003,-200 Z" fill="#d3c9c1" fill-opacity="0.8" stroke="#d3c9c1" stroke-width="4" />
<text x="2272.2000000000003" y="-210" font-size="20" fill="black" dy="0em">394</text>
<path d="M2465.6,-200 L2739.0,-200 L2739.0,-150 L2465.6,-150 L2435.6,-175.0 L2465.6,-200 Z" fill="#d3c9c1" fill-opacity="0.8" stroke="#d3c9c1" stroke-width="4" />
<text x="2435.6" y="-120" font-size="20" fill="black" dy="0em">395</text>
<path d="M2789.6000000000004,-200 L3273.6000000000004,-200 L3303.6000000000004,-175.0 L3273.6000000000004,-150 L2789.6000000000004,-150 L2789.6000000000004,-200 Z" fill="#ff80e6" fill-opacity="0.8" stroke="#ff80e6" stroke-width="4" />
<text x="2789.6000000000004" y="-210" font-size="26" fill="black" dy="0em">TPR</text>
</svg>