<?xml version="1.0" encoding="UTF-8"?>
<svg xmlns="http://www.w3.org/2000/svg" xmlns:xlink="http://www.w3.org/1999/xlink"
     width="1781" height="1000" viewBox="0 -1000 1781 1000">
<defs>
</defs>
<path d="M210,-20 L210,-920" stroke="grey" stroke-width="1" fill="none" />
<text x="160" y="-930" font-size="22" fill="grey" dy="0em">1000</text>
<path d="M410,-20 L410,-920" stroke="grey" stroke-width="1" fill="none" />
<text x="360" y="-930" font-size="22" fill="grey" dy="0em">2000</text>
<path d="M610,-20 L610,-920" stroke="grey" stroke-width="1" fill="none" />
<text x="560" y="-930" font-size="22" fill="grey" dy="0em">3000</text>
<path d="M810,-20 L810,-920" stroke="grey" stroke-width="1" fill="none" />
<text x="760" y="-930" font-size="22" fill="grey" dy="0em">4000</text>
<path d="M1010,-20 L1010,-920" stroke="grey" stroke-width="1" fill="none" />
<text x="960" y="-930" font-size="22" fill="grey" dy="0em">5000</text>
<path d="M1210,-20 L1210,-920" stroke="grey" stroke-width="1" fill="none" />
<text x="1160" y="-930" font-size="22" fill="grey" dy="0em">6000</text>
<path d="M1410,-20 L1410,-920" stroke="grey" stroke-width="1" fill="none" />
<text x="1360" y="-930" font-size="22" fill="grey" dy="0em">7000</text>
<path d="M1610,-20 L1610,-920" stroke="grey" stroke-width="1" fill="none" />
<text x="1560" y="-930" font-size="22" fill="grey" dy="0em">8000</text>
<text x="16.0" y="-860" font-size="38" fill="black" dy="0em">III-A: JAEYSH010000187@1 (2-8407)</text>
<path d="M40.2,-800 L187.60000000000002,-800 L187.60000000000002,-750 L40.2,-750 L10.2,-775.0 L40.2,-800 Z" fill="#ff80e6" fill-opacity="0.8" stroke="#ff80e6" stroke-width="4" />
<text x="10.2" y="-810" font-size="26" fill="black" dy="0em">Csx1</text>
<path d="M219.8,-800 L408.0,-800 L408.0,-750 L219.8,-750 L189.8,-775.0 L219.8,-800 Z" fill="#efc050" fill-opacity="0.8" stroke="#efc050" stroke-width="4" />
<text x="189.8" y="-720" font-size="26" fill="black" dy="0em">Csm5gr7</text>
<path d="M440.40000000000003,-800 L593.2,-800 L593.2,-750 L440.40000000000003,-750 L410.40000000000003,-775.0 L440.40000000000003,-800 Z" fill="#efc050" fill-opacity="0.8" stroke="#efc050" stroke-width="4" />
<text x="410.40000000000003" y="-810" font-size="26" fill="black" dy="0em">Csm4gr5</text>
<path d="M623.6,-800 L740.4000000000001,-800 L740.4000000000001,-750 L623.6,-750 L593.6,-775.0 L623.6,-800 Z" fill="#efc050" fill-opacity="0.8" stroke="#efc050" stroke-width="4" />
<text x="593.6" y="-720" font-size="26" fill="black" dy="0em">Csm3gr7</text>
<path d="M772.8000000000001,-800 L829.6,-800 L829.6,-750 L772.8000000000001,-750 L742.8000000000001,-775.0 L772.8000000000001,-800 Z" fill="#efc050" fill-opacity="0.8" stroke="#efc050" stroke-width="4" />
<text x="742.8000000000001" y="-810" font-size="26" fill="black" dy="0em">Csm2gr11</text>
<path d="M860.6,-800 L1326.6000000000001,-800 L1326.6000000000001,-750 L860.6,-750 L830.6,-775.0 L860.6,-800 Z" fill="#efc050" fill-opacity="0.8" stroke="#efc050" stroke-width="4" />
<text x="830.6" y="-720" font-size="26" fill="black" dy="0em">Cas10</text>
<path d="M1391.0,-800 L1418.4,-800 L1448.4,-775.0 L1418.4,-750 L1391.0,-750 L1391.0,-800 Z" fill="#d3c9c1" fill-opacity="0.8" stroke="#d3c9c1" stroke-width="4" />
<text x="1391.0" y="-810" font-size="20" fill="black" dy="0em">7</text>
<path d="M1482.0,-800 L1512.4,-800 L1512.4,-750 L1482.0,-750 L1452.0,-775.0 L1482.0,-800 Z" fill="#d3c9c1" fill-opacity="0.8" stroke="#d3c9c1" stroke-width="4" />
<text x="1452.0" y="-720" font-size="20" fill="black" dy="0em">8</text>
<path d="M1530.8000000000002,-800 L1533.0,-800 L1563.0,-775.0 L1533.0,-750 L1530.8000000000002,-750 L1530.8000000000002,-800 Z" fill="#d3c9c1" fill-opacity="0.8" stroke="#d3c9c1" stroke-width="4" />
<text x="1530.8000000000002" y="-810" font-size="20" fill="black" dy="0em">9</text>
<path d="M1557.0,-800 L1661.2,-800 L1691.2,-775.0 L1661.2,-750 L1557.0,-750 L1557.0,-800 Z" fill="#5b5ea6" fill-opacity="0.8" stroke="#5b5ea6" stroke-width="4" />
<text x="1557.0" y="-720" font-size="26" fill="black" dy="0em">Cas4</text>
<path d="M10.2,-600 L135.0,-600 L135.0,-550 L10.2,-550 L10.2,-600 Z" fill="white" stroke="white" stroke-width="4" />
<path d="M10.2,-600 L17.541176470588233,-600 L17.541176470588233,-550 L10.2,-550 L10.2,-600 Z" fill="black" />
<path d="M17.541176470588233,-600 L24.882352941176467,-600 L24.882352941176467,-550 L17.541176470588233,-550 L17.541176470588233,-600 Z" fill="#f0f0f0" />
<path d="M24.882352941176467,-600 L32.2235294117647,-600 L32.2235294117647,-550 L24.882352941176467,-550 L24.882352941176467,-600 Z" fill="black" />
<path d="M32.2235294117647,-600 L39.56470588235294,-600 L39.56470588235294,-550 L32.2235294117647,-550 L32.2235294117647,-600 Z" fill="#f0f0f0" />
<path d="M39.56470588235294,-600 L46.90588235294118,-600 L46.90588235294118,-550 L39.56470588235294,-550 L39.56470588235294,-600 Z" fill="black" />
<path d="M46.90588235294118,-600 L54.247058823529414,-600 L54.247058823529414,-550 L46.90588235294118,-550 L46.90588235294118,-600 Z" fill="#f0f0f0" />
<path d="M54.247058823529414,-600 L61.58823529411765,-600 L61.58823529411765,-550 L54.247058823529414,-550 L54.247058823529414,-600 Z" fill="black" />
<path d="M61.58823529411765,-600 L68.92941176470589,-600 L68.92941176470589,-550 L61.58823529411765,-550 L61.58823529411765,-600 Z" fill="#f0f0f0" />
<path d="M68.92941176470589,-600 L76.27058823529413,-600 L76.27058823529413,-550 L68.92941176470589,-550 L68.92941176470589,-600 Z" fill="black" />
<path d="M76.27058823529413,-600 L83.61176470588236,-600 L83.61176470588236,-550 L76.27058823529413,-550 L76.27058823529413,-600 Z" fill="#f0f0f0" />
<path d="M83.61176470588236,-600 L90.9529411764706,-600 L90.9529411764706,-550 L83.61176470588236,-550 L83.61176470588236,-600 Z" fill="black" />
<path d="M90.9529411764706,-600 L98.29411764705884,-600 L98.29411764705884,-550 L90.9529411764706,-550 L90.9529411764706,-600 Z" fill="#f0f0f0" />
<path d="M98.29411764705884,-600 L105.63529411764708,-600 L105.63529411764708,-550 L98.29411764705884,-550 L98.29411764705884,-600 Z" fill="black" />
<path d="M105.63529411764708,-600 L112.97647058823532,-600 L112.97647058823532,-550 L105.63529411764708,-550 L105.63529411764708,-600 Z" fill="#f0f0f0" />
<path d="M112.97647058823532,-600 L120.31764705882355,-600 L120.31764705882355,-550 L112.97647058823532,-550 L112.97647058823532,-600 Z" fill="black" />
<path d="M120.31764705882355,-600 L127.65882352941179,-600 L127.65882352941179,-550 L120.31764705882355,-550 L120.31764705882355,-600 Z" fill="#f0f0f0" />
<path d="M127.65882352941179,-600 L135.00000000000003,-600 L135.00000000000003,-550 L127.65882352941179,-550 L127.65882352941179,-600 Z" fill="black" />
<text x="10.2" y="-610" font-size="26" fill="black" dy="0em">CRISPR: I-D</text>
<text x="16.0" y="-660" font-size="38" fill="black" dy="0em">I-D: JAEYSH010000008_1 (1-625)</text>
<path d="M10.2,-400 L238.20000000000002,-400 L238.20000000000002,-350 L10.2,-350 L10.2,-400 Z" fill="white" stroke="white" stroke-width="4" />
<path d="M10.2,-400 L17.55483870967742,-400 L17.55483870967742,-350 L10.2,-350 L10.2,-400 Z" fill="black" />
<path d="M17.55483870967742,-400 L24.90967741935484,-400 L24.90967741935484,-350 L17.55483870967742,-350 L17.55483870967742,-400 Z" fill="#f0f0f0" />
<path d="M24.90967741935484,-400 L32.26451612903226,-400 L32.26451612903226,-350 L24.90967741935484,-350 L24.90967741935484,-400 Z" fill="black" />
<path d="M32.26451612903226,-400 L39.619354838709675,-400 L39.619354838709675,-350 L32.26451612903226,-350 L32.26451612903226,-400 Z" fill="#f0f0f0" />
<path d="M39.619354838709675,-400 L46.97419354838709,-400 L46.97419354838709,-350 L39.619354838709675,-350 L39.619354838709675,-400 Z" fill="black" />
<path d="M46.97419354838709,-400 L54.32903225806451,-400 L54.32903225806451,-350 L46.97419354838709,-350 L46.97419354838709,-400 Z" fill="#f0f0f0" />
<path d="M54.32903225806451,-400 L61.683870967741925,-400 L61.683870967741925,-350 L54.32903225806451,-350 L54.32903225806451,-400 Z" fill="black" />
<path d="M61.683870967741925,-400 L69.03870967741935,-400 L69.03870967741935,-350 L61.683870967741925,-350 L61.683870967741925,-400 Z" fill="#f0f0f0" />
<path d="M69.03870967741935,-400 L76.39354838709677,-400 L76.39354838709677,-350 L69.03870967741935,-350 L69.03870967741935,-400 Z" fill="black" />
<path d="M76.39354838709677,-400 L83.7483870967742,-400 L83.7483870967742,-350 L76.39354838709677,-350 L76.39354838709677,-400 Z" fill="#f0f0f0" />
<path d="M83.7483870967742,-400 L91.10322580645162,-400 L91.10322580645162,-350 L83.7483870967742,-350 L83.7483870967742,-400 Z" fill="black" />
<path d="M91.10322580645162,-400 L98.45806451612904,-400 L98.45806451612904,-350 L91.10322580645162,-350 L91.10322580645162,-400 Z" fill="#f0f0f0" />
<path d="M98.45806451612904,-400 L105.81290322580647,-400 L105.81290322580647,-350 L98.45806451612904,-350 L98.45806451612904,-400 Z" fill="black" />
<path d="M105.81290322580647,-400 L113.16774193548389,-400 L113.16774193548389,-350 L105.81290322580647,-350 L105.81290322580647,-400 Z" fill="#f0f0f0" />
<path d="M113.16774193548389,-400 L120.52258064516131,-400 L120.52258064516131,-350 L113.16774193548389,-350 L113.16774193548389,-400 Z" fill="black" />
<path d="M120.52258064516131,-400 L127.87741935483874,-400 L127.87741935483874,-350 L120.52258064516131,-350 L120.52258064516131,-400 Z" fill="#f0f0f0" />
<path d="M127.87741935483874,-400 L135.23225806451615,-400 L135.23225806451615,-350 L127.87741935483874,-350 L127.87741935483874,-400 Z" fill="black" />
<path d="M135.23225806451615,-400 L142.58709677419355,-400 L142.58709677419355,-350 L135.23225806451615,-350 L135.23225806451615,-400 Z" fill="#f0f0f0" />
<path d="M142.58709677419355,-400 L149.94193548387096,-400 L149.94193548387096,-350 L142.58709677419355,-350 L142.58709677419355,-400 Z" fill="black" />
<path d="M149.94193548387096,-400 L157.29677419354837,-400 L157.29677419354837,-350 L149.94193548387096,-350 L149.94193548387096,-400 Z" fill="#f0f0f0" />
<path d="M157.29677419354837,-400 L164.65161290322578,-400 L164.65161290322578,-350 L157.29677419354837,-350 L157.29677419354837,-400 Z" fill="black" />
<path d="M164.65161290322578,-400 L172.0064516129032,-400 L172.0064516129032,-350 L164.65161290322578,-350 L164.65161290322578,-400 Z" fill="#f0f0f0" />
<path d="M172.0064516129032,-400 L179.3612903225806,-400 L179.3612903225806,-350 L172.0064516129032,-350 L172.0064516129032,-400 Z" fill="black" />
<path d="M179.3612903225806,-400 L186.716129032258,-400 L186.716129032258,-350 L179.3612903225806,-350 L179.3612903225806,-400 Z" fill="#f0f0f0" />
<path d="M186.716129032258,-400 L194.07096774193542,-400 L194.07096774193542,-350 L186.716129032258,-350 L186.716129032258,-400 Z" fill="black" />
<path d="M194.07096774193542,-400 L201.42580645161283,-400 L201.42580645161283,-350 L194.07096774193542,-350 L194.07096774193542,-400 Z" fill="#f0f0f0" />
<path d="M201.42580645161283,-400 L208.78064516129024,-400 L208.78064516129024,-350 L201.42580645161283,-350 L201.42580645161283,-400 Z" fill="black" />
<path d="M208.78064516129024,-400 L216.13548387096765,-400 L216.13548387096765,-350 L208.78064516129024,-350 L208.78064516129024,-400 Z" fill="#f0f0f0" />
<path d="M216.13548387096765,-400 L223.49032258064506,-400 L223.49032258064506,-350 L216.13548387096765,-350 L216.13548387096765,-400 Z" fill="black" />
<path d="M223.49032258064506,-400 L230.84516129032247,-400 L230.84516129032247,-350 L223.49032258064506,-350 L223.49032258064506,-400 Z" fill="#f0f0f0" />
<path d="M230.84516129032247,-400 L238.19999999999987,-400 L238.19999999999987,-350 L230.84516129032247,-350 L230.84516129032247,-400 Z" fill="black" />
<text x="10.2" y="-410" font-size="26" fill="black" dy="0em">CRISPR</text>
<text x="16.0" y="-460" font-size="38" fill="black" dy="0em">Unknown: JAEYSH010000008_2 (1124-2264)</text>
<path d="M10.2,-200 L90.2,-200 L90.2,-150 L10.2,-150 L10.2,-200 Z" fill="white" stroke="white" stroke-width="4" />
<path d="M10.2,-200 L17.472727272727273,-200 L17.472727272727273,-150 L10.2,-150 L10.2,-200 Z" fill="black" />
<path d="M17.472727272727273,-200 L24.745454545454546,-200 L24.745454545454546,-150 L17.472727272727273,-150 L17.472727272727273,-200 Z" fill="#f0f0f0" />
<path d="M24.745454545454546,-200 L32.018181818181816,-200 L32.018181818181816,-150 L24.745454545454546,-150 L24.745454545454546,-200 Z" fill="black" />
<path d="M32.018181818181816,-200 L39.29090909090909,-200 L39.29090909090909,-150 L32.018181818181816,-150 L32.018181818181816,-200 Z" fill="#f0f0f0" />
<path d="M39.29090909090909,-200 L46.56363636363636,-200 L46.56363636363636,-150 L39.29090909090909,-150 L39.29090909090909,-200 Z" fill="black" />
<path d="M46.56363636363636,-200 L53.836363636363636,-200 L53.836363636363636,-150 L46.56363636363636,-150 L46.56363636363636,-200 Z" fill="#f0f0f0" />
<path d="M53.836363636363636,-200 L61.10909090909091,-200 L61.10909090909091,-150 L53.836363636363636,-150 L53.836363636363636,-200 Z" fill="black" />
<path d="M61.10909090909091,-200 L68.38181818181818,-200 L68.38181818181818,-150 L61.10909090909091,-150 L61.10909090909091,-200 Z" fill="#f0f0f0" />
<path d="M68.38181818181818,-200 L75.65454545454544,-200 L75.65454545454544,-150 L68.38181818181818,-150 L68.38181818181818,-200 Z" fill="black" />
<path d="M75.65454545454544,-200 L82.92727272727271,-200 L82.92727272727271,-150 L75.65454545454544,-150 L75.65454545454544,-200 Z" fill="#f0f0f0" />
<path d="M82.92727272727271,-200 L90.19999999999997,-200 L90.19999999999997,-150 L82.92727272727271,-150 L82.92727272727271,-200 Z" fill="black" />
<text x="10.2" y="-210" font-size="26" fill="black" dy="0em">CRISPR</text>
<text x="16.0" y="-260" font-size="38" fill="black" dy="0em">Unknown: JAEYSH010000008_3 (2503-2903)</text>
</svg>