<?xml version="1.0" encoding="UTF-8"?>
<svg xmlns="http://www.w3.org/2000/svg" xmlns:xlink="http://www.w3.org/1999/xlink"
     width="6263" height="1000" viewBox="0 -1000 6263 1000">
<defs>
</defs>
<path d="M210,-20 L210,-920" stroke="grey" stroke-width="1" fill="none" />
<text x="160" y="-930" font-size="22" fill="grey" dy="0em">1000</text>
<path d="M410,-20 L410,-920" stroke="grey" stroke-width="1" fill="none" />
<text x="360" y="-930" font-size="22" fill="grey" dy="0em">2000</text>
<path d="M610,-20 L610,-920" stroke="grey" stroke-width="1" fill="none" />
<text x="560" y="-930" font-size="22" fill="grey" dy="0em">3000</text>
<path d="M810,-20 L810,-920" stroke="grey" stroke-width="1" fill="none" />
<text x="760" y="-930" font-size="22" fill="grey" dy="0em">4000</text>
<path d="M1010,-20 L1010,-920" stroke="grey" stroke-width="1" fill="none" />
<text x="960" y="-930" font-size="22" fill="grey" dy="0em">5000</text>
<path d="M1210,-20 L1210,-920" stroke="grey" stroke-width="1" fill="none" />
<text x="1160" y="-930" font-size="22" fill="grey" dy="0em">6000</text>
<path d="M1410,-20 L1410,-920" stroke="grey" stroke-width="1" fill="none" />
<text x="1360" y="-930" font-size="22" fill="grey" dy="0em">7000</text>
<path d="M1610,-20 L1610,-920" stroke="grey" stroke-width="1" fill="none" />
<text x="1560" y="-930" font-size="22" fill="grey" dy="0em">8000</text>
<path d="M1810,-20 L1810,-920" stroke="grey" stroke-width="1" fill="none" />
<text x="1760" y="-930" font-size="22" fill="grey" dy="0em">9000</text>
<path d="M2010,-20 L2010,-920" stroke="grey" stroke-width="1" fill="none" />
<text x="1960" y="-930" font-size="22" fill="grey" dy="0em">10000</text>
<path d="M2210,-20 L2210,-920" stroke="grey" stroke-width="1" fill="none" />
<text x="2160" y="-930" font-size="22" fill="grey" dy="0em">11000</text>
<path d="M2410,-20 L2410,-920" stroke="grey" stroke-width="1" fill="none" />
<text x="2360" y="-930" font-size="22" fill="grey" dy="0em">12000</text>
<path d="M2610,-20 L2610,-920" stroke="grey" stroke-width="1" fill="none" />
<text x="2560" y="-930" font-size="22" fill="grey" dy="0em">13000</text>
<path d="M2810,-20 L2810,-920" stroke="grey" stroke-width="1" fill="none" />
<text x="2760" y="-930" font-size="22" fill="grey" dy="0em">14000</text>
<path d="M3010,-20 L3010,-920" stroke="grey" stroke-width="1" fill="none" />
<text x="2960" y="-930" font-size="22" fill="grey" dy="0em">15000</text>
<path d="M3210,-20 L3210,-920" stroke="grey" stroke-width="1" fill="none" />
<text x="3160" y="-930" font-size="22" fill="grey" dy="0em">16000</text>
<path d="M3410,-20 L3410,-920" stroke="grey" stroke-width="1" fill="none" />
<text x="3360" y="-930" font-size="22" fill="grey" dy="0em">17000</text>
<path d="M3610,-20 L3610,-920" stroke="grey" stroke-width="1" fill="none" />
<text x="3560" y="-930" font-size="22" fill="grey" dy="0em">18000</text>
<path d="M3810,-20 L3810,-920" stroke="grey" stroke-width="1" fill="none" />
<text x="3760" y="-930" font-size="22" fill="grey" dy="0em">19000</text>
<path d="M4010,-20 L4010,-920" stroke="grey" stroke-width="1" fill="none" />
<text x="3960" y="-930" font-size="22" fill="grey" dy="0em">20000</text>
<path d="M4210,-20 L4210,-920" stroke="grey" stroke-width="1" fill="none" />
<text x="4160" y="-930" font-size="22" fill="grey" dy="0em">21000</text>
<path d="M4410,-20 L4410,-920" stroke="grey" stroke-width="1" fill="none" />
<text x="4360" y="-930" font-size="22" fill="grey" dy="0em">22000</text>
<path d="M4610,-20 L4610,-920" stroke="grey" stroke-width="1" fill="none" />
<text x="4560" y="-930" font-size="22" fill="grey" dy="0em">23000</text>
<path d="M4810,-20 L4810,-920" stroke="grey" stroke-width="1" fill="none" />
<text x="4760" y="-930" font-size="22" fill="grey" dy="0em">24000</text>
<path d="M5010,-20 L5010,-920" stroke="grey" stroke-width="1" fill="none" />
<text x="4960" y="-930" font-size="22" fill="grey" dy="0em">25000</text>
<path d="M5210,-20 L5210,-920" stroke="grey" stroke-width="1" fill="none" />
<text x="5160" y="-930" font-size="22" fill="grey" dy="0em">26000</text>
<path d="M5410,-20 L5410,-920" stroke="grey" stroke-width="1" fill="none" />
<text x="5360" y="-930" font-size="22" fill="grey" dy="0em">27000</text>
<path d="M5610,-20 L5610,-920" stroke="grey" stroke-width="1" fill="none" />
<text x="5560" y="-930" font-size="22" fill="grey" dy="0em">28000</text>
<path d="M5810,-20 L5810,-920" stroke="grey" stroke-width="1" fill="none" />
<text x="5760" y="-930" font-size="22" fill="grey" dy="0em">29000</text>
<path d="M6010,-20 L6010,-920" stroke="grey" stroke-width="1" fill="none" />
<text x="5960" y="-930" font-size="22" fill="grey" dy="0em">30000</text>
<path d="M6210,-20 L6210,-920" stroke="grey" stroke-width="1" fill="none" />
<text x="6160" y="-930" font-size="22" fill="grey" dy="0em">31000</text>
<text x="16.0" y="-860" font-size="38" fill="black" dy="0em">III-D: JALVPN010000069@1 (385-14504)</text>
<path d="M10.2,-800 L302.20000000000005,-800 L332.20000000000005,-775.0 L302.20000000000005,-750 L10.2,-750 L10.2,-800 Z" fill="#ff80e6" fill-opacity="0.8" stroke="#ff80e6" stroke-width="4" />
<text x="10.2" y="-810" font-size="26" fill="black" dy="0em">Csx1</text>
<path d="M385.0,-800 L503.6,-800 L503.6,-750 L385.0,-750 L355.0,-775.0 L385.0,-800 Z" fill="#efc050" fill-opacity="0.8" stroke="#efc050" stroke-width="4" />
<text x="355.0" y="-720" font-size="26" fill="black" dy="0em">Csm3gr7</text>
<path d="M533.0,-800 L727.8000000000001,-800 L727.8000000000001,-750 L533.0,-750 L503.0,-775.0 L533.0,-800 Z" fill="#efc050" fill-opacity="0.8" stroke="#efc050" stroke-width="4" />
<text x="503.0" y="-810" font-size="26" fill="black" dy="0em">Csx10gr5</text>
<path d="M757.2,-800 L847.6,-800 L847.6,-750 L757.2,-750 L727.2,-775.0 L757.2,-800 Z" fill="#efc050" fill-opacity="0.8" stroke="#efc050" stroke-width="4" />
<text x="727.2" y="-720" font-size="26" fill="black" dy="0em">Csm3gr7</text>
<path d="M877.6,-800 L1352.6000000000001,-800 L1352.6000000000001,-750 L877.6,-750 L847.6,-775.0 L877.6,-800 Z" fill="#efc050" fill-opacity="0.8" stroke="#efc050" stroke-width="4" />
<text x="847.6" y="-810" font-size="26" fill="black" dy="0em">Cas10</text>
<path d="M1380.6000000000001,-800 L1414.6000000000001,-800 L1414.6000000000001,-750 L1380.6000000000001,-750 L1350.6000000000001,-775.0 L1380.6000000000001,-800 Z" fill="#d3c9c1" fill-opacity="0.8" stroke="#d3c9c1" stroke-width="4" />
<text x="1350.6000000000001" y="-720" font-size="20" fill="black" dy="0em">6</text>
<path d="M1444.0,-800 L1793.6000000000001,-800 L1793.6000000000001,-750 L1444.0,-750 L1414.0,-775.0 L1444.0,-800 Z" fill="#efc050" fill-opacity="0.8" stroke="#efc050" stroke-width="4" />
<text x="1414.0" y="-810" font-size="26" fill="black" dy="0em">Csm3gr7</text>
<path d="M1826.0,-800 L1932.6000000000001,-800 L1932.6000000000001,-750 L1826.0,-750 L1796.0,-775.0 L1826.0,-800 Z" fill="#efc050" fill-opacity="0.8" stroke="#efc050" stroke-width="4" />
<text x="1796.0" y="-720" font-size="26" fill="black" dy="0em">Csm3gr7</text>
<path d="M1974.8000000000002,-800 L2052.0,-800 L2052.0,-750 L1974.8000000000002,-750 L1944.8000000000002,-775.0 L1974.8000000000002,-800 Z" fill="#d3c9c1" fill-opacity="0.8" stroke="#d3c9c1" stroke-width="4" />
<text x="1944.8000000000002" y="-810" font-size="20" fill="black" dy="0em">9</text>
<path d="M2260.0,-800 L2368.4,-800 L2398.4,-775.0 L2368.4,-750 L2260.0,-750 L2260.0,-800 Z" fill="#d3c9c1" fill-opacity="0.8" stroke="#d3c9c1" stroke-width="4" />
<text x="2260.0" y="-720" font-size="20" fill="black" dy="0em">10</text>
<path d="M2467.8,-800 L2678.2000000000003,-800 L2678.2000000000003,-750 L2467.8,-750 L2437.8,-775.0 L2467.8,-800 Z" fill="#d3c9c1" fill-opacity="0.8" stroke="#d3c9c1" stroke-width="4" />
<text x="2437.8" y="-810" font-size="20" fill="black" dy="0em">11</text>
<path d="M2708.2000000000003,-800 L2834.0,-800 L2834.0,-750 L2708.2000000000003,-750 L2678.2000000000003,-775.0 L2708.2000000000003,-800 Z" fill="#ff80e6" fill-opacity="0.8" stroke="#ff80e6" stroke-width="4" />
<text x="2678.2000000000003" y="-720" font-size="26" fill="black" dy="0em">AbiEii</text>
<text x="16.0" y="-660" font-size="38" fill="black" dy="0em">Hybrid(I-B,I-D,III-B): JALVPN010000139@1 (267-31084)</text>
<path d="M10.2,-600 L106.60000000000002,-600 L136.60000000000002,-575.0 L106.60000000000002,-550 L10.2,-550 L10.2,-600 Z" fill="#5b5ea6" fill-opacity="0.8" stroke="#5b5ea6" stroke-width="4" />
<text x="10.2" y="-610" font-size="26" fill="black" dy="0em">Cas1</text>
<path d="M138.0,-600 L166.0,-600 L196.0,-575.0 L166.0,-550 L138.0,-550 L138.0,-600 Z" fill="#5b5ea6" fill-opacity="0.8" stroke="#5b5ea6" stroke-width="4" />
<text x="138.0" y="-520" font-size="26" fill="black" dy="0em">Cas2</text>
<path d="M191.0,-600 L288.6,-600 L318.6,-575.0 L288.6,-550 L191.0,-550 L191.0,-600 Z" fill="#5b5ea6" fill-opacity="0.8" stroke="#5b5ea6" stroke-width="4" />
<text x="191.0" y="-610" font-size="26" fill="black" dy="0em">Cas4</text>
<path d="M321.8,-600 L343.8,-600 L373.8,-575.0 L343.8,-550 L321.8,-550 L321.8,-600 Z" fill="#d3c9c1" fill-opacity="0.8" stroke="#d3c9c1" stroke-width="4" />
<text x="321.8" y="-520" font-size="20" fill="black" dy="0em">6</text>
<path d="M388.20000000000005,-600 L891.4000000000001,-600 L921.4000000000001,-575.0 L891.4000000000001,-550 L388.20000000000005,-550 L388.20000000000005,-600 Z" fill="#efc050" fill-opacity="0.8" stroke="#efc050" stroke-width="4" />
<text x="388.20000000000005" y="-610" font-size="26" fill="black" dy="0em">Cas10d</text>
<path d="M920.8000000000001,-600 L1014.2,-600 L1044.2,-575.0 L1014.2,-550 L920.8000000000001,-550 L920.8000000000001,-600 Z" fill="#efc050" fill-opacity="0.8" stroke="#efc050" stroke-width="4" />
<text x="920.8000000000001" y="-520" font-size="26" fill="black" dy="0em">Cas11d2</text>
<path d="M1045.2,-600 L1204.6000000000001,-600 L1234.6000000000001,-575.0 L1204.6000000000001,-550 L1045.2,-550 L1045.2,-600 Z" fill="#efc050" fill-opacity="0.8" stroke="#efc050" stroke-width="4" />
<text x="1045.2" y="-610" font-size="26" fill="black" dy="0em">Csc2gr7</text>
<path d="M1237.2,-600 L1358.8000000000002,-600 L1388.8000000000002,-575.0 L1358.8000000000002,-550 L1237.2,-550 L1237.2,-600 Z" fill="#efc050" fill-opacity="0.8" stroke="#efc050" stroke-width="4" />
<text x="1237.2" y="-520" font-size="26" fill="black" dy="0em">Csc1</text>
<path d="M1391.4,-600 L1780.6000000000001,-600 L1810.6000000000001,-575.0 L1780.6000000000001,-550 L1391.4,-550 L1391.4,-600 Z" fill="#efc050" fill-opacity="0.8" stroke="#efc050" stroke-width="4" />
<text x="1391.4" y="-610" font-size="26" fill="black" dy="0em">Cas3</text>
<path d="M1814.2,-600 L1952.0,-600 L1982.0,-575.0 L1952.0,-550 L1814.2,-550 L1814.2,-600 Z" fill="#dd1424" fill-opacity="0.8" stroke="#dd1424" stroke-width="4" />
<text x="1814.2" y="-520" font-size="26" fill="black" dy="0em">Cas6</text>
<path d="M1978.8000000000002,-600 L2137.6,-600 L2167.6,-575.0 L2137.6,-550 L1978.8000000000002,-550 L1978.8000000000002,-600 Z" fill="#5b5ea6" fill-opacity="0.8" stroke="#5b5ea6" stroke-width="4" />
<text x="1978.8000000000002" y="-610" font-size="26" fill="black" dy="0em">Cas4</text>
<path d="M2234.4,-600 L2341.0,-600 L2371.0,-575.0 L2341.0,-550 L2234.4,-550 L2234.4,-600 Z" fill="#ff80e6" fill-opacity="0.8" stroke="#ff80e6" stroke-width="4" />
<text x="2234.4" y="-520" font-size="26" fill="black" dy="0em">CasR</text>
<path d="M2365.4,-600 L2659.8,-600 L2689.8,-575.0 L2659.8,-550 L2365.4,-550 L2365.4,-600 Z" fill="#ff80e6" fill-opacity="0.3" stroke="#ff80e6" stroke-width="4" />
<text x="2365.4" y="-610" font-size="26" fill="black" dy="0em">(CasR)</text>
<path d="M2777.6000000000004,-600 L2884.2000000000003,-600 L2884.2000000000003,-550 L2777.6000000000004,-550 L2747.6000000000004,-575.0 L2777.6000000000004,-600 Z" fill="#d3c9c1" fill-opacity="0.8" stroke="#d3c9c1" stroke-width="4" />
<text x="2747.6000000000004" y="-520" font-size="20" fill="black" dy="0em">16</text>
<path d="M3042.6000000000004,-600 L3065.8,-600 L3065.8,-550 L3042.6000000000004,-550 L3012.6000000000004,-575.0 L3042.6000000000004,-600 Z" fill="#5b5ea6" fill-opacity="0.8" stroke="#5b5ea6" stroke-width="4" />
<text x="3012.6000000000004" y="-610" font-size="26" fill="black" dy="0em">Cas2</text>
<path d="M3106.4,-600 L3276.0,-600 L3276.0,-550 L3106.4,-550 L3076.4,-575.0 L3106.4,-600 Z" fill="#5b5ea6" fill-opacity="0.8" stroke="#5b5ea6" stroke-width="4" />
<text x="3076.4" y="-520" font-size="26" fill="black" dy="0em">Cas1</text>
<path d="M3307.2000000000003,-600 L3384.4,-600 L3384.4,-550 L3307.2000000000003,-550 L3277.2000000000003,-575.0 L3307.2000000000003,-600 Z" fill="#5b5ea6" fill-opacity="0.8" stroke="#5b5ea6" stroke-width="4" />
<text x="3277.2000000000003" y="-610" font-size="26" fill="black" dy="0em">Cas4</text>
<path d="M3412.4,-600 L3838.2000000000003,-600 L3838.2000000000003,-550 L3412.4,-550 L3382.4,-575.0 L3412.4,-600 Z" fill="#efc050" fill-opacity="0.8" stroke="#efc050" stroke-width="4" />
<text x="3382.4" y="-520" font-size="26" fill="black" dy="0em">Cas3</text>
<path d="M3879.4,-600 L3983.0,-600 L3983.0,-550 L3879.4,-550 L3849.4,-575.0 L3879.4,-600 Z" fill="#efc050" fill-opacity="0.8" stroke="#efc050" stroke-width="4" />
<text x="3849.4" y="-610" font-size="26" fill="black" dy="0em">Cas5</text>
<path d="M4016.2000000000003,-600 L4190.0,-600 L4190.0,-550 L4016.2000000000003,-550 L3986.2000000000003,-575.0 L4016.2000000000003,-600 Z" fill="#efc050" fill-opacity="0.8" stroke="#efc050" stroke-width="4" />
<text x="3986.2000000000003" y="-520" font-size="26" fill="black" dy="0em">Cas7</text>
<path d="M4225.8,-600 L4472.2,-600 L4472.2,-550 L4225.8,-550 L4195.8,-575.0 L4225.8,-600 Z" fill="#efc050" fill-opacity="0.8" stroke="#efc050" stroke-width="4" />
<text x="4195.8" y="-610" font-size="26" fill="black" dy="0em">Cas8b2</text>
<path d="M4501.6,-600 L4620.8,-600 L4620.8,-550 L4501.6,-550 L4471.6,-575.0 L4501.6,-600 Z" fill="#dd1424" fill-opacity="0.8" stroke="#dd1424" stroke-width="4" />
<text x="4471.6" y="-520" font-size="26" fill="black" dy="0em">Cas6</text>
<path d="M4815.6,-600 L4876.0,-600 L4906.0,-575.0 L4876.0,-550 L4815.6,-550 L4815.6,-600 Z" fill="#d3c9c1" fill-opacity="0.8" stroke="#d3c9c1" stroke-width="4" />
<text x="4815.6" y="-610" font-size="20" fill="black" dy="0em">25</text>
<path d="M4905.400000000001,-600 L5107.400000000001,-600 L5137.400000000001,-575.0 L5107.400000000001,-550 L4905.400000000001,-550 L4905.400000000001,-600 Z" fill="#efc050" fill-opacity="0.8" stroke="#efc050" stroke-width="4" />
<text x="4905.400000000001" y="-520" font-size="26" fill="black" dy="0em">Cmr1gr7</text>
<path d="M5136.8,-600 L5490.6,-600 L5520.6,-575.0 L5490.6,-550 L5136.8,-550 L5136.8,-600 Z" fill="#efc050" fill-opacity="0.8" stroke="#efc050" stroke-width="4" />
<text x="5136.8" y="-610" font-size="26" fill="black" dy="0em">Cas10</text>
<path d="M5520.0,-600 L5729.200000000001,-600 L5759.200000000001,-575.0 L5729.200000000001,-550 L5520.0,-550 L5520.0,-600 Z" fill="#efc050" fill-opacity="0.8" stroke="#efc050" stroke-width="4" />
<text x="5520.0" y="-520" font-size="26" fill="black" dy="0em">Cmr3gr5</text>
<path d="M5760.200000000001,-600 L5912.400000000001,-600 L5942.400000000001,-575.0 L5912.400000000001,-550 L5760.200000000001,-550 L5760.200000000001,-600 Z" fill="#efc050" fill-opacity="0.8" stroke="#efc050" stroke-width="4" />
<text x="5760.200000000001" y="-610" font-size="26" fill="black" dy="0em">Cmr4gr7</text>
<path d="M5942.400000000001,-600 L5992.0,-600 L6022.0,-575.0 L5992.0,-550 L5942.400000000001,-550 L5942.400000000001,-600 Z" fill="#efc050" fill-opacity="0.8" stroke="#efc050" stroke-width="4" />
<text x="5942.400000000001" y="-520" font-size="26" fill="black" dy="0em">Cmr5gr11</text>
<path d="M6021.400000000001,-600 L6143.6,-600 L6173.6,-575.0 L6143.6,-550 L6021.400000000001,-550 L6021.400000000001,-600 Z" fill="#efc050" fill-opacity="0.8" stroke="#efc050" stroke-width="4" />
<text x="6021.400000000001" y="-610" font-size="26" fill="black" dy="0em">Cmr6gr7</text>
<text x="16.0" y="-460" font-size="38" fill="black" dy="0em">III-C: JALVPN010000006@1 (1058-10548)</text>
<path d="M40.2,-400 L187.0,-400 L187.0,-350 L40.2,-350 L10.2,-375.0 L40.2,-400 Z" fill="#efc050" fill-opacity="0.8" stroke="#efc050" stroke-width="4" />
<text x="10.2" y="-410" font-size="26" fill="black" dy="0em">Cmr3</text>
<path d="M219.4,-400 L276.8,-400 L276.8,-350 L219.4,-350 L189.4,-375.0 L219.4,-400 Z" fill="#efc050" fill-opacity="0.8" stroke="#efc050" stroke-width="4" />
<text x="189.4" y="-320" font-size="26" fill="black" dy="0em">Cmr5</text>
<path d="M306.8,-400 L415.20000000000005,-400 L415.20000000000005,-350 L306.8,-350 L276.8,-375.0 L306.8,-400 Z" fill="#efc050" fill-opacity="0.8" stroke="#efc050" stroke-width="4" />
<text x="276.8" y="-410" font-size="26" fill="black" dy="0em">Cmr4gr7</text>
<path d="M458.40000000000003,-400 L476.20000000000005,-400 L476.20000000000005,-350 L458.40000000000003,-350 L428.40000000000003,-375.0 L458.40000000000003,-400 Z" fill="#efc050" fill-opacity="0.3" stroke="#efc050" stroke-width="4" />
<text x="428.40000000000003" y="-320" font-size="26" fill="black" dy="0em">(Cmr4gr7)</text>
<path d="M508.6,-400 L1019.6,-400 L1019.6,-350 L508.6,-350 L478.6,-375.0 L508.6,-400 Z" fill="#efc050" fill-opacity="0.8" stroke="#efc050" stroke-width="4" />
<text x="478.6" y="-410" font-size="26" fill="black" dy="0em">Cas10</text>
<path d="M1105.4,-400 L1278.6000000000001,-400 L1278.6000000000001,-350 L1105.4,-350 L1075.4,-375.0 L1105.4,-400 Z" fill="#efc050" fill-opacity="0.8" stroke="#efc050" stroke-width="4" />
<text x="1075.4" y="-320" font-size="26" fill="black" dy="0em">Cmr6</text>
<path d="M1308.6000000000001,-400 L1688.2,-400 L1688.2,-350 L1308.6000000000001,-350 L1278.6000000000001,-375.0 L1308.6000000000001,-400 Z" fill="#ff80e6" fill-opacity="0.8" stroke="#ff80e6" stroke-width="4" />
<text x="1278.6000000000001" y="-410" font-size="26" fill="black" dy="0em">AbiEii</text>
<path d="M1717.0,-400 L1908.2,-400 L1908.2,-350 L1717.0,-350 L1687.0,-375.0 L1717.0,-400 Z" fill="#efc050" fill-opacity="0.8" stroke="#efc050" stroke-width="4" />
<text x="1687.0" y="-320" font-size="26" fill="black" dy="0em">Cmr1gr7</text>
<path d="M10.2,-200 L180.8,-200 L180.8,-150 L10.2,-150 L10.2,-200 Z" fill="white" stroke="white" stroke-width="4" />
<path d="M10.2,-200 L17.024,-200 L17.024,-150 L10.2,-150 L10.2,-200 Z" fill="black" />
<path d="M17.024,-200 L23.848,-200 L23.848,-150 L17.024,-150 L17.024,-200 Z" fill="#f0f0f0" />
<path d="M23.848,-200 L30.671999999999997,-200 L30.671999999999997,-150 L23.848,-150 L23.848,-200 Z" fill="black" />
<path d="M30.671999999999997,-200 L37.495999999999995,-200 L37.495999999999995,-150 L30.671999999999997,-150 L30.671999999999997,-200 Z" fill="#f0f0f0" />
<path d="M37.495999999999995,-200 L44.31999999999999,-200 L44.31999999999999,-150 L37.495999999999995,-150 L37.495999999999995,-200 Z" fill="black" />
<path d="M44.31999999999999,-200 L51.14399999999999,-200 L51.14399999999999,-150 L44.31999999999999,-150 L44.31999999999999,-200 Z" fill="#f0f0f0" />
<path d="M51.14399999999999,-200 L57.96799999999999,-200 L57.96799999999999,-150 L51.14399999999999,-150 L51.14399999999999,-200 Z" fill="black" />
<path d="M57.96799999999999,-200 L64.79199999999999,-200 L64.79199999999999,-150 L57.96799999999999,-150 L57.96799999999999,-200 Z" fill="#f0f0f0" />
<path d="M64.79199999999999,-200 L71.61599999999999,-200 L71.61599999999999,-150 L64.79199999999999,-150 L64.79199999999999,-200 Z" fill="black" />
<path d="M71.61599999999999,-200 L78.43999999999998,-200 L78.43999999999998,-150 L71.61599999999999,-150 L71.61599999999999,-200 Z" fill="#f0f0f0" />
<path d="M78.43999999999998,-200 L85.26399999999998,-200 L85.26399999999998,-150 L78.43999999999998,-150 L78.43999999999998,-200 Z" fill="black" />
<path d="M85.26399999999998,-200 L92.08799999999998,-200 L92.08799999999998,-150 L85.26399999999998,-150 L85.26399999999998,-200 Z" fill="#f0f0f0" />
<path d="M92.08799999999998,-200 L98.91199999999998,-200 L98.91199999999998,-150 L92.08799999999998,-150 L92.08799999999998,-200 Z" fill="black" />
<path d="M98.91199999999998,-200 L105.73599999999998,-200 L105.73599999999998,-150 L98.91199999999998,-150 L98.91199999999998,-200 Z" fill="#f0f0f0" />
<path d="M105.73599999999998,-200 L112.55999999999997,-200 L112.55999999999997,-150 L105.73599999999998,-150 L105.73599999999998,-200 Z" fill="black" />
<path d="M112.55999999999997,-200 L119.38399999999997,-200 L119.38399999999997,-150 L112.55999999999997,-150 L112.55999999999997,-200 Z" fill="#f0f0f0" />
<path d="M119.38399999999997,-200 L126.20799999999997,-200 L126.20799999999997,-150 L119.38399999999997,-150 L119.38399999999997,-200 Z" fill="black" />
<path d="M126.20799999999997,-200 L133.03199999999998,-200 L133.03199999999998,-150 L126.20799999999997,-150 L126.20799999999997,-200 Z" fill="#f0f0f0" />
<path d="M133.03199999999998,-200 L139.856,-200 L139.856,-150 L133.03199999999998,-150 L133.03199999999998,-200 Z" fill="black" />
<path d="M139.856,-200 L146.68,-200 L146.68,-150 L139.856,-150 L139.856,-200 Z" fill="#f0f0f0" />
<path d="M146.68,-200 L153.50400000000002,-200 L153.50400000000002,-150 L146.68,-150 L146.68,-200 Z" fill="black" />
<path d="M153.50400000000002,-200 L160.32800000000003,-200 L160.32800000000003,-150 L153.50400000000002,-150 L153.50400000000002,-200 Z" fill="#f0f0f0" />
<path d="M160.32800000000003,-200 L167.15200000000004,-200 L167.15200000000004,-150 L160.32800000000003,-150 L160.32800000000003,-200 Z" fill="black" />
<path d="M167.15200000000004,-200 L173.97600000000006,-200 L173.97600000000006,-150 L167.15200000000004,-150 L167.15200000000004,-200 Z" fill="#f0f0f0" />
<path d="M173.97600000000006,-200 L180.80000000000007,-200 L180.80000000000007,-150 L173.97600000000006,-150 L173.97600000000006,-200 Z" fill="black" />
<text x="10.2" y="-210" font-size="26" fill="black" dy="0em">CRISPR</text>
<text x="16.0" y="-260" font-size="38" fill="black" dy="0em">Unknown: JALVPN010000063_1 (4875-5728)</text>
</svg>