<?xml version="1.0" encoding="UTF-8"?>
<svg xmlns="http://www.w3.org/2000/svg" xmlns:xlink="http://www.w3.org/1999/xlink"
     width="3617" height="600" viewBox="0 -600 3617 600">
<defs>
</defs>
<path d="M210,-20 L210,-520" stroke="grey" stroke-width="1" fill="none" />
<text x="160" y="-530" font-size="22" fill="grey" dy="0em">1000</text>
<path d="M410,-20 L410,-520" stroke="grey" stroke-width="1" fill="none" />
<text x="360" y="-530" font-size="22" fill="grey" dy="0em">2000</text>
<path d="M610,-20 L610,-520" stroke="grey" stroke-width="1" fill="none" />
<text x="560" y="-530" font-size="22" fill="grey" dy="0em">3000</text>
<path d="M810,-20 L810,-520" stroke="grey" stroke-width="1" fill="none" />
<text x="760" y="-530" font-size="22" fill="grey" dy="0em">4000</text>
<path d="M1010,-20 L1010,-520" stroke="grey" stroke-width="1" fill="none" />
<text x="960" y="-530" font-size="22" fill="grey" dy="0em">5000</text>
<path d="M1210,-20 L1210,-520" stroke="grey" stroke-width="1" fill="none" />
<text x="1160" y="-530" font-size="22" fill="grey" dy="0em">6000</text>
<path d="M1410,-20 L1410,-520" stroke="grey" stroke-width="1" fill="none" />
<text x="1360" y="-530" font-size="22" fill="grey" dy="0em">7000</text>
<path d="M1610,-20 L1610,-520" stroke="grey" stroke-width="1" fill="none" />
<text x="1560" y="-530" font-size="22" fill="grey" dy="0em">8000</text>
<path d="M1810,-20 L1810,-520" stroke="grey" stroke-width="1" fill="none" />
<text x="1760" y="-530" font-size="22" fill="grey" dy="0em">9000</text>
<path d="M2010,-20 L2010,-520" stroke="grey" stroke-width="1" fill="none" />
<text x="1960" y="-530" font-size="22" fill="grey" dy="0em">10000</text>
<path d="M2210,-20 L2210,-520" stroke="grey" stroke-width="1" fill="none" />
<text x="2160" y="-530" font-size="22" fill="grey" dy="0em">11000</text>
<path d="M2410,-20 L2410,-520" stroke="grey" stroke-width="1" fill="none" />
<text x="2360" y="-530" font-size="22" fill="grey" dy="0em">12000</text>
<path d="M2610,-20 L2610,-520" stroke="grey" stroke-width="1" fill="none" />
<text x="2560" y="-530" font-size="22" fill="grey" dy="0em">13000</text>
<path d="M2810,-20 L2810,-520" stroke="grey" stroke-width="1" fill="none" />
<text x="2760" y="-530" font-size="22" fill="grey" dy="0em">14000</text>
<path d="M3010,-20 L3010,-520" stroke="grey" stroke-width="1" fill="none" />
<text x="2960" y="-530" font-size="22" fill="grey" dy="0em">15000</text>
<path d="M3210,-20 L3210,-520" stroke="grey" stroke-width="1" fill="none" />
<text x="3160" y="-530" font-size="22" fill="grey" dy="0em">16000</text>
<path d="M3410,-20 L3410,-520" stroke="grey" stroke-width="1" fill="none" />
<text x="3360" y="-530" font-size="22" fill="grey" dy="0em">17000</text>
<path d="M3610,-20 L3610,-520" stroke="grey" stroke-width="1" fill="none" />
<text x="3560" y="-530" font-size="22" fill="grey" dy="0em">18000</text>
<text x="16.0" y="-460" font-size="38" fill="black" dy="0em">I-E: JAENYE010000004@5 (203601-221186)</text>
<path d="M10.2,-400 L98.19999999999999,-400 L128.2,-375.0 L98.19999999999999,-350 L10.2,-350 L10.2,-400 Z" fill="#ff80e6" fill-opacity="0.8" stroke="#ff80e6" stroke-width="4" />
<text x="10.2" y="-410" font-size="26" fill="black" dy="0em">DEDDh</text>
<path d="M216.60000000000002,-400 L336.40000000000003,-400 L366.40000000000003,-375.0 L336.40000000000003,-350 L216.60000000000002,-350 L216.60000000000002,-400 Z" fill="#d3c9c1" fill-opacity="0.8" stroke="#d3c9c1" stroke-width="4" />
<text x="216.60000000000002" y="-320" font-size="20" fill="black" dy="0em">182</text>
<path d="M491.8,-400 L524.0,-400 L524.0,-350 L491.8,-350 L461.8,-375.0 L491.8,-400 Z" fill="#5b5ea6" fill-opacity="0.8" stroke="#5b5ea6" stroke-width="4" />
<text x="461.8" y="-410" font-size="26" fill="black" dy="0em">Cas2</text>
<path d="M551.6,-400 L700.8000000000001,-400 L700.8000000000001,-350 L551.6,-350 L521.6,-375.0 L551.6,-400 Z" fill="#5b5ea6" fill-opacity="0.8" stroke="#5b5ea6" stroke-width="4" />
<text x="521.6" y="-320" font-size="26" fill="black" dy="0em">Cas1</text>
<path d="M732.8000000000001,-400 L839.4000000000001,-400 L839.4000000000001,-350 L732.8000000000001,-350 L702.8000000000001,-375.0 L732.8000000000001,-400 Z" fill="#dd1424" fill-opacity="0.8" stroke="#dd1424" stroke-width="4" />
<text x="702.8000000000001" y="-410" font-size="26" fill="black" dy="0em">Cas6e</text>
<path d="M869.4000000000001,-400 L990.4000000000001,-400 L990.4000000000001,-350 L869.4000000000001,-350 L839.4000000000001,-375.0 L869.4000000000001,-400 Z" fill="#efc050" fill-opacity="0.8" stroke="#efc050" stroke-width="4" />
<text x="839.4000000000001" y="-320" font-size="26" fill="black" dy="0em">Cas5</text>
<path d="M1019.0,-400 L1218.0,-400 L1218.0,-350 L1019.0,-350 L989.0,-375.0 L1019.0,-400 Z" fill="#efc050" fill-opacity="0.8" stroke="#efc050" stroke-width="4" />
<text x="989.0" y="-410" font-size="26" fill="black" dy="0em">Cas7</text>
<path d="M1250.0,-400 L1325.4,-400 L1325.4,-350 L1250.0,-350 L1220.0,-375.0 L1250.0,-400 Z" fill="#efc050" fill-opacity="0.8" stroke="#efc050" stroke-width="4" />
<text x="1220.0" y="-320" font-size="26" fill="black" dy="0em">Cse2gr11</text>
<path d="M1358.4,-400 L1651.0,-400 L1651.0,-350 L1358.4,-350 L1328.4,-375.0 L1358.4,-400 Z" fill="#efc050" fill-opacity="0.8" stroke="#efc050" stroke-width="4" />
<text x="1328.4" y="-410" font-size="26" fill="black" dy="0em">Cas8e</text>
<path d="M1680.4,-400 L2196.8,-400 L2196.8,-350 L1680.4,-350 L1650.4,-375.0 L1680.4,-400 Z" fill="#efc050" fill-opacity="0.8" stroke="#efc050" stroke-width="4" />
<text x="1650.4" y="-320" font-size="26" fill="black" dy="0em">Cas3</text>
<path d="M2228.6,-400 L2558.4,-400 L2588.4,-375.0 L2558.4,-350 L2228.6,-350 L2228.6,-400 Z" fill="#d3c9c1" fill-opacity="0.8" stroke="#d3c9c1" stroke-width="4" />
<text x="2228.6" y="-410" font-size="20" fill="black" dy="0em">191</text>
<path d="M2831.6000000000004,-400 L3181.2000000000003,-400 L3211.2000000000003,-375.0 L3181.2000000000003,-350 L2831.6000000000004,-350 L2831.6000000000004,-400 Z" fill="#d3c9c1" fill-opacity="0.8" stroke="#d3c9c1" stroke-width="4" />
<text x="2831.6000000000004" y="-320" font-size="20" fill="black" dy="0em">192</text>
<path d="M3219.6000000000004,-400 L3302.2000000000003,-400 L3332.2000000000003,-375.0 L3302.2000000000003,-350 L3219.6000000000004,-350 L3219.6000000000004,-400 Z" fill="#d3c9c1" fill-opacity="0.8" stroke="#d3c9c1" stroke-width="4" />
<text x="3219.6000000000004" y="-410" font-size="20" fill="black" dy="0em">193</text>
<path d="M3451.2000000000003,-400 L3497.2000000000003,-400 L3527.2000000000003,-375.0 L3497.2000000000003,-350 L3451.2000000000003,-350 L3451.2000000000003,-400 Z" fill="#ff80e6" fill-opacity="0.8" stroke="#ff80e6" stroke-width="4" />
<text x="3451.2000000000003" y="-320" font-size="26" fill="black" dy="0em">Csa3</text>
<path d="M127.60000000000001,-400 L438.20000000000005,-400 L438.20000000000005,-350 L127.60000000000001,-350 L127.60000000000001,-400 Z" fill="white" stroke="white" stroke-width="4" />
<path d="M127.60000000000001,-400 L133.69019607843137,-400 L133.69019607843137,-350 L127.60000000000001,-350 L127.60000000000001,-400 Z" fill="black" />
<path d="M133.69019607843137,-400 L139.78039215686275,-400 L139.78039215686275,-350 L133.69019607843137,-350 L133.69019607843137,-400 Z" fill="#f0f0f0" />
<path d="M139.78039215686275,-400 L145.87058823529412,-400 L145.87058823529412,-350 L139.78039215686275,-350 L139.78039215686275,-400 Z" fill="black" />
<path d="M145.87058823529412,-400 L151.9607843137255,-400 L151.9607843137255,-350 L145.87058823529412,-350 L145.87058823529412,-400 Z" fill="#f0f0f0" />
<path d="M151.9607843137255,-400 L158.05098039215687,-400 L158.05098039215687,-350 L151.9607843137255,-350 L151.9607843137255,-400 Z" fill="black" />
<path d="M158.05098039215687,-400 L164.14117647058825,-400 L164.14117647058825,-350 L158.05098039215687,-350 L158.05098039215687,-400 Z" fill="#f0f0f0" />
<path d="M164.14117647058825,-400 L170.23137254901962,-400 L170.23137254901962,-350 L164.14117647058825,-350 L164.14117647058825,-400 Z" fill="black" />
<path d="M170.23137254901962,-400 L176.321568627451,-400 L176.321568627451,-350 L170.23137254901962,-350 L170.23137254901962,-400 Z" fill="#f0f0f0" />
<path d="M176.321568627451,-400 L182.41176470588238,-400 L182.41176470588238,-350 L176.321568627451,-350 L176.321568627451,-400 Z" fill="black" />
<path d="M182.41176470588238,-400 L188.50196078431375,-400 L188.50196078431375,-350 L182.41176470588238,-350 L182.41176470588238,-400 Z" fill="#f0f0f0" />
<path d="M188.50196078431375,-400 L194.59215686274513,-400 L194.59215686274513,-350 L188.50196078431375,-350 L188.50196078431375,-400 Z" fill="black" />
<path d="M194.59215686274513,-400 L200.6823529411765,-400 L200.6823529411765,-350 L194.59215686274513,-350 L194.59215686274513,-400 Z" fill="#f0f0f0" />
<path d="M200.6823529411765,-400 L206.77254901960788,-400 L206.77254901960788,-350 L200.6823529411765,-350 L200.6823529411765,-400 Z" fill="black" />
<path d="M206.77254901960788,-400 L212.86274509803926,-400 L212.86274509803926,-350 L206.77254901960788,-350 L206.77254901960788,-400 Z" fill="#f0f0f0" />
<path d="M212.86274509803926,-400 L218.95294117647063,-400 L218.95294117647063,-350 L212.86274509803926,-350 L212.86274509803926,-400 Z" fill="black" />
<path d="M218.95294117647063,-400 L225.043137254902,-400 L225.043137254902,-350 L218.95294117647063,-350 L218.95294117647063,-400 Z" fill="#f0f0f0" />
<path d="M225.043137254902,-400 L231.13333333333338,-400 L231.13333333333338,-350 L225.043137254902,-350 L225.043137254902,-400 Z" fill="black" />
<path d="M231.13333333333338,-400 L237.22352941176476,-400 L237.22352941176476,-350 L231.13333333333338,-350 L231.13333333333338,-400 Z" fill="#f0f0f0" />
<path d="M237.22352941176476,-400 L243.31372549019613,-400 L243.31372549019613,-350 L237.22352941176476,-350 L237.22352941176476,-400 Z" fill="black" />
<path d="M243.31372549019613,-400 L249.4039215686275,-400 L249.4039215686275,-350 L243.31372549019613,-350 L243.31372549019613,-400 Z" fill="#f0f0f0" />
<path d="M249.4039215686275,-400 L255.49411764705889,-400 L255.49411764705889,-350 L249.4039215686275,-350 L249.4039215686275,-400 Z" fill="black" />
<path d="M255.49411764705889,-400 L261.58431372549023,-400 L261.58431372549023,-350 L255.49411764705889,-350 L255.49411764705889,-400 Z" fill="#f0f0f0" />
<path d="M261.58431372549023,-400 L267.6745098039216,-400 L267.6745098039216,-350 L261.58431372549023,-350 L261.58431372549023,-400 Z" fill="black" />
<path d="M267.6745098039216,-400 L273.7647058823529,-400 L273.7647058823529,-350 L267.6745098039216,-350 L267.6745098039216,-400 Z" fill="#f0f0f0" />
<path d="M273.7647058823529,-400 L279.8549019607843,-400 L279.8549019607843,-350 L273.7647058823529,-350 L273.7647058823529,-400 Z" fill="black" />
<path d="M279.8549019607843,-400 L285.9450980392156,-400 L285.9450980392156,-350 L279.8549019607843,-350 L279.8549019607843,-400 Z" fill="#f0f0f0" />
<path d="M285.9450980392156,-400 L292.03529411764697,-400 L292.03529411764697,-350 L285.9450980392156,-350 L285.9450980392156,-400 Z" fill="black" />
<path d="M292.03529411764697,-400 L298.1254901960783,-400 L298.1254901960783,-350 L292.03529411764697,-350 L292.03529411764697,-400 Z" fill="#f0f0f0" />
<path d="M298.1254901960783,-400 L304.21568627450966,-400 L304.21568627450966,-350 L298.1254901960783,-350 L298.1254901960783,-400 Z" fill="black" />
<path d="M304.21568627450966,-400 L310.305882352941,-400 L310.305882352941,-350 L304.21568627450966,-350 L304.21568627450966,-400 Z" fill="#f0f0f0" />
<path d="M310.305882352941,-400 L316.39607843137236,-400 L316.39607843137236,-350 L310.305882352941,-350 L310.305882352941,-400 Z" fill="black" />
<path d="M316.39607843137236,-400 L322.4862745098037,-400 L322.4862745098037,-350 L316.39607843137236,-350 L316.39607843137236,-400 Z" fill="#f0f0f0" />
<path d="M322.4862745098037,-400 L328.57647058823505,-400 L328.57647058823505,-350 L322.4862745098037,-350 L322.4862745098037,-400 Z" fill="black" />
<path d="M328.57647058823505,-400 L334.6666666666664,-400 L334.6666666666664,-350 L328.57647058823505,-350 L328.57647058823505,-400 Z" fill="#f0f0f0" />
<path d="M334.6666666666664,-400 L340.75686274509775,-400 L340.75686274509775,-350 L334.6666666666664,-350 L334.6666666666664,-400 Z" fill="black" />
<path d="M340.75686274509775,-400 L346.8470588235291,-400 L346.8470588235291,-350 L340.75686274509775,-350 L340.75686274509775,-400 Z" fill="#f0f0f0" />
<path d="M346.8470588235291,-400 L352.93725490196044,-400 L352.93725490196044,-350 L346.8470588235291,-350 L346.8470588235291,-400 Z" fill="black" />
<path d="M352.93725490196044,-400 L359.0274509803918,-400 L359.0274509803918,-350 L352.93725490196044,-350 L352.93725490196044,-400 Z" fill="#f0f0f0" />
<path d="M359.0274509803918,-400 L365.11764705882314,-400 L365.11764705882314,-350 L359.0274509803918,-350 L359.0274509803918,-400 Z" fill="black" />
<path d="M365.11764705882314,-400 L371.2078431372545,-400 L371.2078431372545,-350 L365.11764705882314,-350 L365.11764705882314,-400 Z" fill="#f0f0f0" />
<path d="M371.2078431372545,-400 L377.29803921568583,-400 L377.29803921568583,-350 L371.2078431372545,-350 L371.2078431372545,-400 Z" fill="black" />
<path d="M377.29803921568583,-400 L383.3882352941172,-400 L383.3882352941172,-350 L377.29803921568583,-350 L377.29803921568583,-400 Z" fill="#f0f0f0" />
<path d="M383.3882352941172,-400 L389.4784313725485,-400 L389.4784313725485,-350 L383.3882352941172,-350 L383.3882352941172,-400 Z" fill="black" />
<path d="M389.4784313725485,-400 L395.5686274509799,-400 L395.5686274509799,-350 L389.4784313725485,-350 L389.4784313725485,-400 Z" fill="#f0f0f0" />
<path d="M395.5686274509799,-400 L401.6588235294112,-400 L401.6588235294112,-350 L395.5686274509799,-350 L395.5686274509799,-400 Z" fill="black" />
<path d="M401.6588235294112,-400 L407.74901960784257,-400 L407.74901960784257,-350 L401.6588235294112,-350 L401.6588235294112,-400 Z" fill="#f0f0f0" />
<path d="M407.74901960784257,-400 L413.8392156862739,-400 L413.8392156862739,-350 L407.74901960784257,-350 L407.74901960784257,-400 Z" fill="black" />
<path d="M413.8392156862739,-400 L419.92941176470526,-400 L419.92941176470526,-350 L413.8392156862739,-350 L413.8392156862739,-400 Z" fill="#f0f0f0" />
<path d="M419.92941176470526,-400 L426.0196078431366,-400 L426.0196078431366,-350 L419.92941176470526,-350 L419.92941176470526,-400 Z" fill="black" />
<path d="M426.0196078431366,-400 L432.10980392156796,-400 L432.10980392156796,-350 L426.0196078431366,-350 L426.0196078431366,-400 Z" fill="#f0f0f0" />
<path d="M432.10980392156796,-400 L438.1999999999993,-400 L438.1999999999993,-350 L432.10980392156796,-350 L432.10980392156796,-400 Z" fill="black" />
<text x="127.60000000000001" y="-410" font-size="26" fill="black" dy="0em">CRISPR: I-E</text>
<path d="M2248.2000000000003,-400 L2705.4,-400 L2705.4,-350 L2248.2000000000003,-350 L2248.2000000000003,-400 Z" fill="white" stroke="white" stroke-width="4" />
<path d="M2248.2000000000003,-400 L2254.2960000000003,-400 L2254.2960000000003,-350 L2248.2000000000003,-350 L2248.2000000000003,-400 Z" fill="black" />
<path d="M2254.2960000000003,-400 L2260.3920000000003,-400 L2260.3920000000003,-350 L2254.2960000000003,-350 L2254.2960000000003,-400 Z" fill="#f0f0f0" />
<path d="M2260.3920000000003,-400 L2266.4880000000003,-400 L2266.4880000000003,-350 L2260.3920000000003,-350 L2260.3920000000003,-400 Z" fill="black" />
<path d="M2266.4880000000003,-400 L2272.5840000000003,-400 L2272.5840000000003,-350 L2266.4880000000003,-350 L2266.4880000000003,-400 Z" fill="#f0f0f0" />
<path d="M2272.5840000000003,-400 L2278.6800000000003,-400 L2278.6800000000003,-350 L2272.5840000000003,-350 L2272.5840000000003,-400 Z" fill="black" />
<path d="M2278.6800000000003,-400 L2284.7760000000003,-400 L2284.7760000000003,-350 L2278.6800000000003,-350 L2278.6800000000003,-400 Z" fill="#f0f0f0" />
<path d="M2284.7760000000003,-400 L2290.8720000000003,-400 L2290.8720000000003,-350 L2284.7760000000003,-350 L2284.7760000000003,-400 Z" fill="black" />
<path d="M2290.8720000000003,-400 L2296.9680000000003,-400 L2296.9680000000003,-350 L2290.8720000000003,-350 L2290.8720000000003,-400 Z" fill="#f0f0f0" />
<path d="M2296.9680000000003,-400 L2303.0640000000003,-400 L2303.0640000000003,-350 L2296.9680000000003,-350 L2296.9680000000003,-400 Z" fill="black" />
<path d="M2303.0640000000003,-400 L2309.1600000000003,-400 L2309.1600000000003,-350 L2303.0640000000003,-350 L2303.0640000000003,-400 Z" fill="#f0f0f0" />
<path d="M2309.1600000000003,-400 L2315.2560000000003,-400 L2315.2560000000003,-350 L2309.1600000000003,-350 L2309.1600000000003,-400 Z" fill="black" />
<path d="M2315.2560000000003,-400 L2321.3520000000003,-400 L2321.3520000000003,-350 L2315.2560000000003,-350 L2315.2560000000003,-400 Z" fill="#f0f0f0" />
<path d="M2321.3520000000003,-400 L2327.4480000000003,-400 L2327.4480000000003,-350 L2321.3520000000003,-350 L2321.3520000000003,-400 Z" fill="black" />
<path d="M2327.4480000000003,-400 L2333.5440000000003,-400 L2333.5440000000003,-350 L2327.4480000000003,-350 L2327.4480000000003,-400 Z" fill="#f0f0f0" />
<path d="M2333.5440000000003,-400 L2339.6400000000003,-400 L2339.6400000000003,-350 L2333.5440000000003,-350 L2333.5440000000003,-400 Z" fill="black" />
<path d="M2339.6400000000003,-400 L2345.7360000000003,-400 L2345.7360000000003,-350 L2339.6400000000003,-350 L2339.6400000000003,-400 Z" fill="#f0f0f0" />
<path d="M2345.7360000000003,-400 L2351.8320000000003,-400 L2351.8320000000003,-350 L2345.7360000000003,-350 L2345.7360000000003,-400 Z" fill="black" />
<path d="M2351.8320000000003,-400 L2357.9280000000003,-400 L2357.9280000000003,-350 L2351.8320000000003,-350 L2351.8320000000003,-400 Z" fill="#f0f0f0" />
<path d="M2357.9280000000003,-400 L2364.0240000000003,-400 L2364.0240000000003,-350 L2357.9280000000003,-350 L2357.9280000000003,-400 Z" fill="black" />
<path d="M2364.0240000000003,-400 L2370.1200000000003,-400 L2370.1200000000003,-350 L2364.0240000000003,-350 L2364.0240000000003,-400 Z" fill="#f0f0f0" />
<path d="M2370.1200000000003,-400 L2376.2160000000003,-400 L2376.2160000000003,-350 L2370.1200000000003,-350 L2370.1200000000003,-400 Z" fill="black" />
<path d="M2376.2160000000003,-400 L2382.3120000000004,-400 L2382.3120000000004,-350 L2376.2160000000003,-350 L2376.2160000000003,-400 Z" fill="#f0f0f0" />
<path d="M2382.3120000000004,-400 L2388.4080000000004,-400 L2388.4080000000004,-350 L2382.3120000000004,-350 L2382.3120000000004,-400 Z" fill="black" />
<path d="M2388.4080000000004,-400 L2394.5040000000004,-400 L2394.5040000000004,-350 L2388.4080000000004,-350 L2388.4080000000004,-400 Z" fill="#f0f0f0" />
<path d="M2394.5040000000004,-400 L2400.6000000000004,-400 L2400.6000000000004,-350 L2394.5040000000004,-350 L2394.5040000000004,-400 Z" fill="black" />
<path d="M2400.6000000000004,-400 L2406.6960000000004,-400 L2406.6960000000004,-350 L2400.6000000000004,-350 L2400.6000000000004,-400 Z" fill="#f0f0f0" />
<path d="M2406.6960000000004,-400 L2412.7920000000004,-400 L2412.7920000000004,-350 L2406.6960000000004,-350 L2406.6960000000004,-400 Z" fill="black" />
<path d="M2412.7920000000004,-400 L2418.8880000000004,-400 L2418.8880000000004,-350 L2412.7920000000004,-350 L2412.7920000000004,-400 Z" fill="#f0f0f0" />
<path d="M2418.8880000000004,-400 L2424.9840000000004,-400 L2424.9840000000004,-350 L2418.8880000000004,-350 L2418.8880000000004,-400 Z" fill="black" />
<path d="M2424.9840000000004,-400 L2431.0800000000004,-400 L2431.0800000000004,-350 L2424.9840000000004,-350 L2424.9840000000004,-400 Z" fill="#f0f0f0" />
<path d="M2431.0800000000004,-400 L2437.1760000000004,-400 L2437.1760000000004,-350 L2431.0800000000004,-350 L2431.0800000000004,-400 Z" fill="black" />
<path d="M2437.1760000000004,-400 L2443.2720000000004,-400 L2443.2720000000004,-350 L2437.1760000000004,-350 L2437.1760000000004,-400 Z" fill="#f0f0f0" />
<path d="M2443.2720000000004,-400 L2449.3680000000004,-400 L2449.3680000000004,-350 L2443.2720000000004,-350 L2443.2720000000004,-400 Z" fill="black" />
<path d="M2449.3680000000004,-400 L2455.4640000000004,-400 L2455.4640000000004,-350 L2449.3680000000004,-350 L2449.3680000000004,-400 Z" fill="#f0f0f0" />
<path d="M2455.4640000000004,-400 L2461.5600000000004,-400 L2461.5600000000004,-350 L2455.4640000000004,-350 L2455.4640000000004,-400 Z" fill="black" />
<path d="M2461.5600000000004,-400 L2467.6560000000004,-400 L2467.6560000000004,-350 L2461.5600000000004,-350 L2461.5600000000004,-400 Z" fill="#f0f0f0" />
<path d="M2467.6560000000004,-400 L2473.7520000000004,-400 L2473.7520000000004,-350 L2467.6560000000004,-350 L2467.6560000000004,-400 Z" fill="black" />
<path d="M2473.7520000000004,-400 L2479.8480000000004,-400 L2479.8480000000004,-350 L2473.7520000000004,-350 L2473.7520000000004,-400 Z" fill="#f0f0f0" />
<path d="M2479.8480000000004,-400 L2485.9440000000004,-400 L2485.9440000000004,-350 L2479.8480000000004,-350 L2479.8480000000004,-400 Z" fill="black" />
<path d="M2485.9440000000004,-400 L2492.0400000000004,-400 L2492.0400000000004,-350 L2485.9440000000004,-350 L2485.9440000000004,-400 Z" fill="#f0f0f0" />
<path d="M2492.0400000000004,-400 L2498.1360000000004,-400 L2498.1360000000004,-350 L2492.0400000000004,-350 L2492.0400000000004,-400 Z" fill="black" />
<path d="M2498.1360000000004,-400 L2504.2320000000004,-400 L2504.2320000000004,-350 L2498.1360000000004,-350 L2498.1360000000004,-400 Z" fill="#f0f0f0" />
<path d="M2504.2320000000004,-400 L2510.3280000000004,-400 L2510.3280000000004,-350 L2504.2320000000004,-350 L2504.2320000000004,-400 Z" fill="black" />
<path d="M2510.3280000000004,-400 L2516.4240000000004,-400 L2516.4240000000004,-350 L2510.3280000000004,-350 L2510.3280000000004,-400 Z" fill="#f0f0f0" />
<path d="M2516.4240000000004,-400 L2522.5200000000004,-400 L2522.5200000000004,-350 L2516.4240000000004,-350 L2516.4240000000004,-400 Z" fill="black" />
<path d="M2522.5200000000004,-400 L2528.6160000000004,-400 L2528.6160000000004,-350 L2522.5200000000004,-350 L2522.5200000000004,-400 Z" fill="#f0f0f0" />
<path d="M2528.6160000000004,-400 L2534.7120000000004,-400 L2534.7120000000004,-350 L2528.6160000000004,-350 L2528.6160000000004,-400 Z" fill="black" />
<path d="M2534.7120000000004,-400 L2540.8080000000004,-400 L2540.8080000000004,-350 L2534.7120000000004,-350 L2534.7120000000004,-400 Z" fill="#f0f0f0" />
<path d="M2540.8080000000004,-400 L2546.9040000000005,-400 L2546.9040000000005,-350 L2540.8080000000004,-350 L2540.8080000000004,-400 Z" fill="black" />
<path d="M2546.9040000000005,-400 L2553.0000000000005,-400 L2553.0000000000005,-350 L2546.9040000000005,-350 L2546.9040000000005,-400 Z" fill="#f0f0f0" />
<path d="M2553.0000000000005,-400 L2559.0960000000005,-400 L2559.0960000000005,-350 L2553.0000000000005,-350 L2553.0000000000005,-400 Z" fill="black" />
<path d="M2559.0960000000005,-400 L2565.1920000000005,-400 L2565.1920000000005,-350 L2559.0960000000005,-350 L2559.0960000000005,-400 Z" fill="#f0f0f0" />
<path d="M2565.1920000000005,-400 L2571.2880000000005,-400 L2571.2880000000005,-350 L2565.1920000000005,-350 L2565.1920000000005,-400 Z" fill="black" />
<path d="M2571.2880000000005,-400 L2577.3840000000005,-400 L2577.3840000000005,-350 L2571.2880000000005,-350 L2571.2880000000005,-400 Z" fill="#f0f0f0" />
<path d="M2577.3840000000005,-400 L2583.4800000000005,-400 L2583.4800000000005,-350 L2577.3840000000005,-350 L2577.3840000000005,-400 Z" fill="black" />
<path d="M2583.4800000000005,-400 L2589.5760000000005,-400 L2589.5760000000005,-350 L2583.4800000000005,-350 L2583.4800000000005,-400 Z" fill="#f0f0f0" />
<path d="M2589.5760000000005,-400 L2595.6720000000005,-400 L2595.6720000000005,-350 L2589.5760000000005,-350 L2589.5760000000005,-400 Z" fill="black" />
<path d="M2595.6720000000005,-400 L2601.7680000000005,-400 L2601.7680000000005,-350 L2595.6720000000005,-350 L2595.6720000000005,-400 Z" fill="#f0f0f0" />
<path d="M2601.7680000000005,-400 L2607.8640000000005,-400 L2607.8640000000005,-350 L2601.7680000000005,-350 L2601.7680000000005,-400 Z" fill="black" />
<path d="M2607.8640000000005,-400 L2613.9600000000005,-400 L2613.9600000000005,-350 L2607.8640000000005,-350 L2607.8640000000005,-400 Z" fill="#f0f0f0" />
<path d="M2613.9600000000005,-400 L2620.0560000000005,-400 L2620.0560000000005,-350 L2613.9600000000005,-350 L2613.9600000000005,-400 Z" fill="black" />
<path d="M2620.0560000000005,-400 L2626.1520000000005,-400 L2626.1520000000005,-350 L2620.0560000000005,-350 L2620.0560000000005,-400 Z" fill="#f0f0f0" />
<path d="M2626.1520000000005,-400 L2632.2480000000005,-400 L2632.2480000000005,-350 L2626.1520000000005,-350 L2626.1520000000005,-400 Z" fill="black" />
<path d="M2632.2480000000005,-400 L2638.3440000000005,-400 L2638.3440000000005,-350 L2632.2480000000005,-350 L2632.2480000000005,-400 Z" fill="#f0f0f0" />
<path d="M2638.3440000000005,-400 L2644.4400000000005,-400 L2644.4400000000005,-350 L2638.3440000000005,-350 L2638.3440000000005,-400 Z" fill="black" />
<path d="M2644.4400000000005,-400 L2650.5360000000005,-400 L2650.5360000000005,-350 L2644.4400000000005,-350 L2644.4400000000005,-400 Z" fill="#f0f0f0" />
<path d="M2650.5360000000005,-400 L2656.6320000000005,-400 L2656.6320000000005,-350 L2650.5360000000005,-350 L2650.5360000000005,-400 Z" fill="black" />
<path d="M2656.6320000000005,-400 L2662.7280000000005,-400 L2662.7280000000005,-350 L2656.6320000000005,-350 L2656.6320000000005,-400 Z" fill="#f0f0f0" />
<path d="M2662.7280000000005,-400 L2668.8240000000005,-400 L2668.8240000000005,-350 L2662.7280000000005,-350 L2662.7280000000005,-400 Z" fill="black" />
<path d="M2668.8240000000005,-400 L2674.9200000000005,-400 L2674.9200000000005,-350 L2668.8240000000005,-350 L2668.8240000000005,-400 Z" fill="#f0f0f0" />
<path d="M2674.9200000000005,-400 L2681.0160000000005,-400 L2681.0160000000005,-350 L2674.9200000000005,-350 L2674.9200000000005,-400 Z" fill="black" />
<path d="M2681.0160000000005,-400 L2687.1120000000005,-400 L2687.1120000000005,-350 L2681.0160000000005,-350 L2681.0160000000005,-400 Z" fill="#f0f0f0" />
<path d="M2687.1120000000005,-400 L2693.2080000000005,-400 L2693.2080000000005,-350 L2687.1120000000005,-350 L2687.1120000000005,-400 Z" fill="black" />
<path d="M2693.2080000000005,-400 L2699.3040000000005,-400 L2699.3040000000005,-350 L2693.2080000000005,-350 L2693.2080000000005,-400 Z" fill="#f0f0f0" />
<path d="M2699.3040000000005,-400 L2705.4000000000005,-400 L2705.4000000000005,-350 L2699.3040000000005,-350 L2699.3040000000005,-400 Z" fill="black" />
<text x="2248.2000000000003" y="-410" font-size="26" fill="black" dy="0em">CRISPR: I-E</text>
<path d="M10.2,-200 L45.0,-200 L45.0,-150 L10.2,-150 L10.2,-200 Z" fill="white" stroke="white" stroke-width="4" />
<path d="M10.2,-200 L17.159999999999997,-200 L17.159999999999997,-150 L10.2,-150 L10.2,-200 Z" fill="black" />
<path d="M17.159999999999997,-200 L24.119999999999997,-200 L24.119999999999997,-150 L17.159999999999997,-150 L17.159999999999997,-200 Z" fill="#f0f0f0" />
<path d="M24.119999999999997,-200 L31.08,-200 L31.08,-150 L24.119999999999997,-150 L24.119999999999997,-200 Z" fill="black" />
<path d="M31.08,-200 L38.04,-200 L38.04,-150 L31.08,-150 L31.08,-200 Z" fill="#f0f0f0" />
<path d="M38.04,-200 L45.0,-200 L45.0,-150 L38.04,-150 L38.04,-200 Z" fill="black" />
<text x="10.2" y="-210" font-size="26" fill="black" dy="0em">CRISPR</text>
<text x="16.0" y="-260" font-size="38" fill="black" dy="0em">Unknown: JAENYE010000004_1 (128561-128735)</text>
</svg>