<?xml version="1.0" encoding="UTF-8"?>
<svg xmlns="http://www.w3.org/2000/svg" xmlns:xlink="http://www.w3.org/1999/xlink"
     width="151" height="400" viewBox="0 -400 151 400">
<defs>
</defs>
<path d="M10.2,-200 L61.0,-200 L61.0,-150 L10.2,-150 L10.2,-200 Z" fill="white" stroke="white" stroke-width="4" />
<path d="M10.2,-200 L17.457142857142856,-200 L17.457142857142856,-150 L10.2,-150 L10.2,-200 Z" fill="black" />
<path d="M17.457142857142856,-200 L24.71428571428571,-200 L24.71428571428571,-150 L17.457142857142856,-150 L17.457142857142856,-200 Z" fill="#f0f0f0" />
<path d="M24.71428571428571,-200 L31.971428571428568,-200 L31.971428571428568,-150 L24.71428571428571,-150 L24.71428571428571,-200 Z" fill="black" />
<path d="M31.971428571428568,-200 L39.22857142857143,-200 L39.22857142857143,-150 L31.971428571428568,-150 L31.971428571428568,-200 Z" fill="#f0f0f0" />
<path d="M39.22857142857143,-200 L46.48571428571429,-200 L46.48571428571429,-150 L39.22857142857143,-150 L39.22857142857143,-200 Z" fill="black" />
<path d="M46.48571428571429,-200 L53.74285714285715,-200 L53.74285714285715,-150 L46.48571428571429,-150 L46.48571428571429,-200 Z" fill="#f0f0f0" />
<path d="M53.74285714285715,-200 L61.00000000000001,-200 L61.00000000000001,-150 L53.74285714285715,-150 L53.74285714285715,-200 Z" fill="black" />
<text x="10.2" y="-210" font-size="26" fill="black" dy="0em">CRISPR</text>
<text x="16.0" y="-260" font-size="38" fill="black" dy="0em">Unknown: JAGXOA010000086_2 (6512-6766)</text>
</svg>