<?xml version="1.0" encoding="UTF-8"?>
<svg xmlns="http://www.w3.org/2000/svg" xmlns:xlink="http://www.w3.org/1999/xlink"
     width="1849" height="400" viewBox="0 -400 1849 400">
<defs>
</defs>
<path d="M210,-20 L210,-320" stroke="grey" stroke-width="1" fill="none" />
<text x="160" y="-330" font-size="22" fill="grey" dy="0em">1000</text>
<path d="M410,-20 L410,-320" stroke="grey" stroke-width="1" fill="none" />
<text x="360" y="-330" font-size="22" fill="grey" dy="0em">2000</text>
<path d="M610,-20 L610,-320" stroke="grey" stroke-width="1" fill="none" />
<text x="560" y="-330" font-size="22" fill="grey" dy="0em">3000</text>
<path d="M810,-20 L810,-320" stroke="grey" stroke-width="1" fill="none" />
<text x="760" y="-330" font-size="22" fill="grey" dy="0em">4000</text>
<path d="M1010,-20 L1010,-320" stroke="grey" stroke-width="1" fill="none" />
<text x="960" y="-330" font-size="22" fill="grey" dy="0em">5000</text>
<path d="M1210,-20 L1210,-320" stroke="grey" stroke-width="1" fill="none" />
<text x="1160" y="-330" font-size="22" fill="grey" dy="0em">6000</text>
<path d="M1410,-20 L1410,-320" stroke="grey" stroke-width="1" fill="none" />
<text x="1360" y="-330" font-size="22" fill="grey" dy="0em">7000</text>
<path d="M1610,-20 L1610,-320" stroke="grey" stroke-width="1" fill="none" />
<text x="1560" y="-330" font-size="22" fill="grey" dy="0em">8000</text>
<path d="M1810,-20 L1810,-320" stroke="grey" stroke-width="1" fill="none" />
<text x="1760" y="-330" font-size="22" fill="grey" dy="0em">9000</text>
<text x="16.0" y="-260" font-size="38" fill="black" dy="0em">III-A: DXJN01000023@1 (104-8849)</text>
<path d="M315.40000000000003,-200 L835.4000000000001,-200 L865.4000000000001,-175.0 L835.4000000000001,-150 L315.40000000000003,-150 L315.40000000000003,-200 Z" fill="#efc050" fill-opacity="0.8" stroke="#efc050" stroke-width="4" />
<text x="315.40000000000003" y="-210" font-size="26" fill="black" dy="0em">Cas10</text>
<path d="M873.4000000000001,-200 L921.2,-200 L951.2,-175.0 L921.2,-150 L873.4000000000001,-150 L873.4000000000001,-200 Z" fill="#efc050" fill-opacity="0.8" stroke="#efc050" stroke-width="4" />
<text x="873.4000000000001" y="-120" font-size="26" fill="black" dy="0em">Csm2gr11</text>
<path d="M951.6,-200 L1082.2,-200 L1112.2,-175.0 L1082.2,-150 L951.6,-150 L951.6,-200 Z" fill="#efc050" fill-opacity="0.8" stroke="#efc050" stroke-width="4" />
<text x="951.6" y="-210" font-size="26" fill="black" dy="0em">Csm3gr7</text>
<path d="M1118.4,-200 L1309.0,-200 L1339.0,-175.0 L1309.0,-150 L1118.4,-150 L1118.4,-200 Z" fill="#efc050" fill-opacity="0.8" stroke="#efc050" stroke-width="4" />
<text x="1118.4" y="-120" font-size="26" fill="black" dy="0em">Csm4</text>
<path d="M1343.2,-200 L1572.8000000000002,-200 L1602.8000000000002,-175.0 L1572.8000000000002,-150 L1343.2,-150 L1343.2,-200 Z" fill="#efc050" fill-opacity="0.8" stroke="#efc050" stroke-width="4" />
<text x="1343.2" y="-210" font-size="26" fill="black" dy="0em">Csm5gr7</text>
<path d="M1604.0,-200 L1729.2,-200 L1759.2,-175.0 L1729.2,-150 L1604.0,-150 L1604.0,-200 Z" fill="#dd1424" fill-opacity="0.8" stroke="#dd1424" stroke-width="4" />
<text x="1604.0" y="-120" font-size="26" fill="black" dy="0em">Cas6</text>
<path d="M10.2,-200 L287.8,-200 L287.8,-150 L10.2,-150 L10.2,-200 Z" fill="white" stroke="white" stroke-width="4" />
<path d="M10.2,-200 L17.7027027027027,-200 L17.7027027027027,-150 L10.2,-150 L10.2,-200 Z" fill="black" />
<path d="M17.7027027027027,-200 L25.205405405405404,-200 L25.205405405405404,-150 L17.7027027027027,-150 L17.7027027027027,-200 Z" fill="#f0f0f0" />
<path d="M25.205405405405404,-200 L32.70810810810811,-200 L32.70810810810811,-150 L25.205405405405404,-150 L25.205405405405404,-200 Z" fill="black" />
<path d="M32.70810810810811,-200 L40.21081081081081,-200 L40.21081081081081,-150 L32.70810810810811,-150 L32.70810810810811,-200 Z" fill="#f0f0f0" />
<path d="M40.21081081081081,-200 L47.71351351351352,-200 L47.71351351351352,-150 L40.21081081081081,-150 L40.21081081081081,-200 Z" fill="black" />
<path d="M47.71351351351352,-200 L55.216216216216225,-200 L55.216216216216225,-150 L47.71351351351352,-150 L47.71351351351352,-200 Z" fill="#f0f0f0" />
<path d="M55.216216216216225,-200 L62.71891891891893,-200 L62.71891891891893,-150 L55.216216216216225,-150 L55.216216216216225,-200 Z" fill="black" />
<path d="M62.71891891891893,-200 L70.22162162162164,-200 L70.22162162162164,-150 L62.71891891891893,-150 L62.71891891891893,-200 Z" fill="#f0f0f0" />
<path d="M70.22162162162164,-200 L77.72432432432434,-200 L77.72432432432434,-150 L70.22162162162164,-150 L70.22162162162164,-200 Z" fill="black" />
<path d="M77.72432432432434,-200 L85.22702702702705,-200 L85.22702702702705,-150 L77.72432432432434,-150 L77.72432432432434,-200 Z" fill="#f0f0f0" />
<path d="M85.22702702702705,-200 L92.72972972972975,-200 L92.72972972972975,-150 L85.22702702702705,-150 L85.22702702702705,-200 Z" fill="black" />
<path d="M92.72972972972975,-200 L100.23243243243246,-200 L100.23243243243246,-150 L92.72972972972975,-150 L92.72972972972975,-200 Z" fill="#f0f0f0" />
<path d="M100.23243243243246,-200 L107.73513513513517,-200 L107.73513513513517,-150 L100.23243243243246,-150 L100.23243243243246,-200 Z" fill="black" />
<path d="M107.73513513513517,-200 L115.23783783783787,-200 L115.23783783783787,-150 L107.73513513513517,-150 L107.73513513513517,-200 Z" fill="#f0f0f0" />
<path d="M115.23783783783787,-200 L122.74054054054058,-200 L122.74054054054058,-150 L115.23783783783787,-150 L115.23783783783787,-200 Z" fill="black" />
<path d="M122.74054054054058,-200 L130.24324324324328,-200 L130.24324324324328,-150 L122.74054054054058,-150 L122.74054054054058,-200 Z" fill="#f0f0f0" />
<path d="M130.24324324324328,-200 L137.74594594594598,-200 L137.74594594594598,-150 L130.24324324324328,-150 L130.24324324324328,-200 Z" fill="black" />
<path d="M137.74594594594598,-200 L145.24864864864867,-200 L145.24864864864867,-150 L137.74594594594598,-150 L137.74594594594598,-200 Z" fill="#f0f0f0" />
<path d="M145.24864864864867,-200 L152.75135135135136,-200 L152.75135135135136,-150 L145.24864864864867,-150 L145.24864864864867,-200 Z" fill="black" />
<path d="M152.75135135135136,-200 L160.25405405405405,-200 L160.25405405405405,-150 L152.75135135135136,-150 L152.75135135135136,-200 Z" fill="#f0f0f0" />
<path d="M160.25405405405405,-200 L167.75675675675674,-200 L167.75675675675674,-150 L160.25405405405405,-150 L160.25405405405405,-200 Z" fill="black" />
<path d="M167.75675675675674,-200 L175.25945945945944,-200 L175.25945945945944,-150 L167.75675675675674,-150 L167.75675675675674,-200 Z" fill="#f0f0f0" />
<path d="M175.25945945945944,-200 L182.76216216216213,-200 L182.76216216216213,-150 L175.25945945945944,-150 L175.25945945945944,-200 Z" fill="black" />
<path d="M182.76216216216213,-200 L190.26486486486482,-200 L190.26486486486482,-150 L182.76216216216213,-150 L182.76216216216213,-200 Z" fill="#f0f0f0" />
<path d="M190.26486486486482,-200 L197.7675675675675,-200 L197.7675675675675,-150 L190.26486486486482,-150 L190.26486486486482,-200 Z" fill="black" />
<path d="M197.7675675675675,-200 L205.2702702702702,-200 L205.2702702702702,-150 L197.7675675675675,-150 L197.7675675675675,-200 Z" fill="#f0f0f0" />
<path d="M205.2702702702702,-200 L212.7729729729729,-200 L212.7729729729729,-150 L205.2702702702702,-150 L205.2702702702702,-200 Z" fill="black" />
<path d="M212.7729729729729,-200 L220.2756756756756,-200 L220.2756756756756,-150 L212.7729729729729,-150 L212.7729729729729,-200 Z" fill="#f0f0f0" />
<path d="M220.2756756756756,-200 L227.77837837837828,-200 L227.77837837837828,-150 L220.2756756756756,-150 L220.2756756756756,-200 Z" fill="black" />
<path d="M227.77837837837828,-200 L235.28108108108097,-200 L235.28108108108097,-150 L227.77837837837828,-150 L227.77837837837828,-200 Z" fill="#f0f0f0" />
<path d="M235.28108108108097,-200 L242.78378378378366,-200 L242.78378378378366,-150 L235.28108108108097,-150 L235.28108108108097,-200 Z" fill="black" />
<path d="M242.78378378378366,-200 L250.28648648648635,-200 L250.28648648648635,-150 L242.78378378378366,-150 L242.78378378378366,-200 Z" fill="#f0f0f0" />
<path d="M250.28648648648635,-200 L257.7891891891891,-200 L257.7891891891891,-150 L250.28648648648635,-150 L250.28648648648635,-200 Z" fill="black" />
<path d="M257.7891891891891,-200 L265.2918918918918,-200 L265.2918918918918,-150 L257.7891891891891,-150 L257.7891891891891,-200 Z" fill="#f0f0f0" />
<path d="M265.2918918918918,-200 L272.7945945945945,-200 L272.7945945945945,-150 L265.2918918918918,-150 L265.2918918918918,-200 Z" fill="black" />
<path d="M272.7945945945945,-200 L280.29729729729723,-200 L280.29729729729723,-150 L272.7945945945945,-150 L272.7945945945945,-200 Z" fill="#f0f0f0" />
<path d="M280.29729729729723,-200 L287.79999999999995,-200 L287.79999999999995,-150 L280.29729729729723,-150 L280.29729729729723,-200 Z" fill="black" />
<text x="10.2" y="-210" font-size="26" fill="black" dy="0em">CRISPR</text>
</svg>