<?xml version="1.0" encoding="UTF-8"?>
<svg xmlns="http://www.w3.org/2000/svg" xmlns:xlink="http://www.w3.org/1999/xlink"
     width="2964" height="400" viewBox="0 -400 2964 400">
<defs>
</defs>
<path d="M210,-20 L210,-320" stroke="grey" stroke-width="1" fill="none" />
<text x="160" y="-330" font-size="22" fill="grey" dy="0em">1000</text>
<path d="M410,-20 L410,-320" stroke="grey" stroke-width="1" fill="none" />
<text x="360" y="-330" font-size="22" fill="grey" dy="0em">2000</text>
<path d="M610,-20 L610,-320" stroke="grey" stroke-width="1" fill="none" />
<text x="560" y="-330" font-size="22" fill="grey" dy="0em">3000</text>
<path d="M810,-20 L810,-320" stroke="grey" stroke-width="1" fill="none" />
<text x="760" y="-330" font-size="22" fill="grey" dy="0em">4000</text>
<path d="M1010,-20 L1010,-320" stroke="grey" stroke-width="1" fill="none" />
<text x="960" y="-330" font-size="22" fill="grey" dy="0em">5000</text>
<path d="M1210,-20 L1210,-320" stroke="grey" stroke-width="1" fill="none" />
<text x="1160" y="-330" font-size="22" fill="grey" dy="0em">6000</text>
<path d="M1410,-20 L1410,-320" stroke="grey" stroke-width="1" fill="none" />
<text x="1360" y="-330" font-size="22" fill="grey" dy="0em">7000</text>
<path d="M1610,-20 L1610,-320" stroke="grey" stroke-width="1" fill="none" />
<text x="1560" y="-330" font-size="22" fill="grey" dy="0em">8000</text>
<path d="M1810,-20 L1810,-320" stroke="grey" stroke-width="1" fill="none" />
<text x="1760" y="-330" font-size="22" fill="grey" dy="0em">9000</text>
<path d="M2010,-20 L2010,-320" stroke="grey" stroke-width="1" fill="none" />
<text x="1960" y="-330" font-size="22" fill="grey" dy="0em">10000</text>
<path d="M2210,-20 L2210,-320" stroke="grey" stroke-width="1" fill="none" />
<text x="2160" y="-330" font-size="22" fill="grey" dy="0em">11000</text>
<path d="M2410,-20 L2410,-320" stroke="grey" stroke-width="1" fill="none" />
<text x="2360" y="-330" font-size="22" fill="grey" dy="0em">12000</text>
<path d="M2610,-20 L2610,-320" stroke="grey" stroke-width="1" fill="none" />
<text x="2560" y="-330" font-size="22" fill="grey" dy="0em">13000</text>
<path d="M2810,-20 L2810,-320" stroke="grey" stroke-width="1" fill="none" />
<text x="2760" y="-330" font-size="22" fill="grey" dy="0em">14000</text>
<text x="16.0" y="-260" font-size="38" fill="black" dy="0em">I-D: BCNA01000001@17 (514684-529003)</text>
<path d="M270.6,-200 L356.8,-200 L386.8,-175.0 L356.8,-150 L270.6,-150 L270.6,-200 Z" fill="#d3c9c1" fill-opacity="0.8" stroke="#d3c9c1" stroke-width="4" />
<text x="270.6" y="-210" font-size="20" fill="black" dy="0em">521</text>
<path d="M445.8,-200 L544.0,-200 L544.0,-150 L445.8,-150 L415.8,-175.0 L445.8,-200 Z" fill="#ff80e6" fill-opacity="0.8" stroke="#ff80e6" stroke-width="4" />
<text x="415.8" y="-120" font-size="26" fill="black" dy="0em">CasR</text>
<path d="M579.4,-200 L719.0,-200 L749.0,-175.0 L719.0,-150 L579.4,-150 L579.4,-200 Z" fill="#dd1424" fill-opacity="0.8" stroke="#dd1424" stroke-width="4" />
<text x="579.4" y="-210" font-size="26" fill="black" dy="0em">Cas6</text>
<path d="M748.4000000000001,-200 L1211.4,-200 L1241.4,-175.0 L1211.4,-150 L748.4000000000001,-150 L748.4000000000001,-200 Z" fill="#efc050" fill-opacity="0.8" stroke="#efc050" stroke-width="4" />
<text x="748.4000000000001" y="-120" font-size="26" fill="black" dy="0em">Cas10d</text>
<path d="M1245.8000000000002,-200 L1404.0,-200 L1434.0,-175.0 L1404.0,-150 L1245.8000000000002,-150 L1245.8000000000002,-200 Z" fill="#efc050" fill-opacity="0.8" stroke="#efc050" stroke-width="4" />
<text x="1245.8000000000002" y="-210" font-size="26" fill="black" dy="0em">Csc2</text>
<path d="M1432.6000000000001,-200 L1545.8000000000002,-200 L1575.8000000000002,-175.0 L1545.8000000000002,-150 L1432.6000000000001,-150 L1432.6000000000001,-200 Z" fill="#efc050" fill-opacity="0.8" stroke="#efc050" stroke-width="4" />
<text x="1432.6000000000001" y="-120" font-size="26" fill="black" dy="0em">Csc1gr5</text>
<path d="M1575.2,-200 L1923.0,-200 L1953.0,-175.0 L1923.0,-150 L1575.2,-150 L1575.2,-200 Z" fill="#efc050" fill-opacity="0.8" stroke="#efc050" stroke-width="4" />
<text x="1575.2" y="-210" font-size="26" fill="black" dy="0em">Cas3d</text>
<path d="M1952.4,-200 L2040.4,-200 L2070.4,-175.0 L2040.4,-150 L1952.4,-150 L1952.4,-200 Z" fill="#5b5ea6" fill-opacity="0.8" stroke="#5b5ea6" stroke-width="4" />
<text x="1952.4" y="-120" font-size="26" fill="black" dy="0em">Cas4</text>
<path d="M2069.8,-200 L2238.8,-200 L2268.8,-175.0 L2238.8,-150 L2069.8,-150 L2069.8,-200 Z" fill="#5b5ea6" fill-opacity="0.8" stroke="#5b5ea6" stroke-width="4" />
<text x="2069.8" y="-210" font-size="26" fill="black" dy="0em">Cas1</text>
<path d="M2268.2000000000003,-200 L2292.6,-200 L2322.6,-175.0 L2292.6,-150 L2268.2000000000003,-150 L2268.2000000000003,-200 Z" fill="#5b5ea6" fill-opacity="0.8" stroke="#5b5ea6" stroke-width="4" />
<text x="2268.2000000000003" y="-120" font-size="26" fill="black" dy="0em">Cas2</text>
<path d="M2385.4,-200 L2540.6000000000004,-200 L2540.6000000000004,-150 L2385.4,-150 L2355.4,-175.0 L2385.4,-200 Z" fill="#d3c9c1" fill-opacity="0.8" stroke="#d3c9c1" stroke-width="4" />
<text x="2355.4" y="-210" font-size="20" fill="black" dy="0em">531</text>
<path d="M2613.0,-200 L2626.0,-200 L2656.0,-175.0 L2626.0,-150 L2613.0,-150 L2613.0,-200 Z" fill="#d3c9c1" fill-opacity="0.8" stroke="#d3c9c1" stroke-width="4" />
<text x="2613.0" y="-120" font-size="20" fill="black" dy="0em">532</text>
<path d="M10.2,-200 L394.0,-200 L394.0,-150 L10.2,-150 L10.2,-200 Z" fill="white" stroke="white" stroke-width="4" />
<path d="M10.2,-200 L17.441509433962263,-200 L17.441509433962263,-150 L10.2,-150 L10.2,-200 Z" fill="black" />
<path d="M17.441509433962263,-200 L24.683018867924527,-200 L24.683018867924527,-150 L17.441509433962263,-150 L17.441509433962263,-200 Z" fill="#f0f0f0" />
<path d="M24.683018867924527,-200 L31.92452830188679,-200 L31.92452830188679,-150 L24.683018867924527,-150 L24.683018867924527,-200 Z" fill="black" />
<path d="M31.92452830188679,-200 L39.16603773584906,-200 L39.16603773584906,-150 L31.92452830188679,-150 L31.92452830188679,-200 Z" fill="#f0f0f0" />
<path d="M39.16603773584906,-200 L46.40754716981132,-200 L46.40754716981132,-150 L39.16603773584906,-150 L39.16603773584906,-200 Z" fill="black" />
<path d="M46.40754716981132,-200 L53.64905660377359,-200 L53.64905660377359,-150 L46.40754716981132,-150 L46.40754716981132,-200 Z" fill="#f0f0f0" />
<path d="M53.64905660377359,-200 L60.89056603773585,-200 L60.89056603773585,-150 L53.64905660377359,-150 L53.64905660377359,-200 Z" fill="black" />
<path d="M60.89056603773585,-200 L68.13207547169812,-200 L68.13207547169812,-150 L60.89056603773585,-150 L60.89056603773585,-200 Z" fill="#f0f0f0" />
<path d="M68.13207547169812,-200 L75.37358490566038,-200 L75.37358490566038,-150 L68.13207547169812,-150 L68.13207547169812,-200 Z" fill="black" />
<path d="M75.37358490566038,-200 L82.61509433962264,-200 L82.61509433962264,-150 L75.37358490566038,-150 L75.37358490566038,-200 Z" fill="#f0f0f0" />
<path d="M82.61509433962264,-200 L89.85660377358491,-200 L89.85660377358491,-150 L82.61509433962264,-150 L82.61509433962264,-200 Z" fill="black" />
<path d="M89.85660377358491,-200 L97.09811320754717,-200 L97.09811320754717,-150 L89.85660377358491,-150 L89.85660377358491,-200 Z" fill="#f0f0f0" />
<path d="M97.09811320754717,-200 L104.33962264150944,-200 L104.33962264150944,-150 L97.09811320754717,-150 L97.09811320754717,-200 Z" fill="black" />
<path d="M104.33962264150944,-200 L111.5811320754717,-200 L111.5811320754717,-150 L104.33962264150944,-150 L104.33962264150944,-200 Z" fill="#f0f0f0" />
<path d="M111.5811320754717,-200 L118.82264150943396,-200 L118.82264150943396,-150 L111.5811320754717,-150 L111.5811320754717,-200 Z" fill="black" />
<path d="M118.82264150943396,-200 L126.06415094339623,-200 L126.06415094339623,-150 L118.82264150943396,-150 L118.82264150943396,-200 Z" fill="#f0f0f0" />
<path d="M126.06415094339623,-200 L133.3056603773585,-200 L133.3056603773585,-150 L126.06415094339623,-150 L126.06415094339623,-200 Z" fill="black" />
<path d="M133.3056603773585,-200 L140.54716981132077,-200 L140.54716981132077,-150 L133.3056603773585,-150 L133.3056603773585,-200 Z" fill="#f0f0f0" />
<path d="M140.54716981132077,-200 L147.78867924528305,-200 L147.78867924528305,-150 L140.54716981132077,-150 L140.54716981132077,-200 Z" fill="black" />
<path d="M147.78867924528305,-200 L155.03018867924533,-200 L155.03018867924533,-150 L147.78867924528305,-150 L147.78867924528305,-200 Z" fill="#f0f0f0" />
<path d="M155.03018867924533,-200 L162.2716981132076,-200 L162.2716981132076,-150 L155.03018867924533,-150 L155.03018867924533,-200 Z" fill="black" />
<path d="M162.2716981132076,-200 L169.51320754716988,-200 L169.51320754716988,-150 L162.2716981132076,-150 L162.2716981132076,-200 Z" fill="#f0f0f0" />
<path d="M169.51320754716988,-200 L176.75471698113216,-200 L176.75471698113216,-150 L169.51320754716988,-150 L169.51320754716988,-200 Z" fill="black" />
<path d="M176.75471698113216,-200 L183.99622641509444,-200 L183.99622641509444,-150 L176.75471698113216,-150 L176.75471698113216,-200 Z" fill="#f0f0f0" />
<path d="M183.99622641509444,-200 L191.23773584905672,-200 L191.23773584905672,-150 L183.99622641509444,-150 L183.99622641509444,-200 Z" fill="black" />
<path d="M191.23773584905672,-200 L198.479245283019,-200 L198.479245283019,-150 L191.23773584905672,-150 L191.23773584905672,-200 Z" fill="#f0f0f0" />
<path d="M198.479245283019,-200 L205.72075471698128,-200 L205.72075471698128,-150 L198.479245283019,-150 L198.479245283019,-200 Z" fill="black" />
<path d="M205.72075471698128,-200 L212.96226415094355,-200 L212.96226415094355,-150 L205.72075471698128,-150 L205.72075471698128,-200 Z" fill="#f0f0f0" />
<path d="M212.96226415094355,-200 L220.20377358490583,-200 L220.20377358490583,-150 L212.96226415094355,-150 L212.96226415094355,-200 Z" fill="black" />
<path d="M220.20377358490583,-200 L227.4452830188681,-200 L227.4452830188681,-150 L220.20377358490583,-150 L220.20377358490583,-200 Z" fill="#f0f0f0" />
<path d="M227.4452830188681,-200 L234.6867924528304,-200 L234.6867924528304,-150 L227.4452830188681,-150 L227.4452830188681,-200 Z" fill="black" />
<path d="M234.6867924528304,-200 L241.92830188679267,-200 L241.92830188679267,-150 L234.6867924528304,-150 L234.6867924528304,-200 Z" fill="#f0f0f0" />
<path d="M241.92830188679267,-200 L249.16981132075495,-200 L249.16981132075495,-150 L241.92830188679267,-150 L241.92830188679267,-200 Z" fill="black" />
<path d="M249.16981132075495,-200 L256.4113207547172,-200 L256.4113207547172,-150 L249.16981132075495,-150 L249.16981132075495,-200 Z" fill="#f0f0f0" />
<path d="M256.4113207547172,-200 L263.6528301886795,-200 L263.6528301886795,-150 L256.4113207547172,-150 L256.4113207547172,-200 Z" fill="black" />
<path d="M263.6528301886795,-200 L270.8943396226418,-200 L270.8943396226418,-150 L263.6528301886795,-150 L263.6528301886795,-200 Z" fill="#f0f0f0" />
<path d="M270.8943396226418,-200 L278.13584905660406,-200 L278.13584905660406,-150 L270.8943396226418,-150 L270.8943396226418,-200 Z" fill="black" />
<path d="M278.13584905660406,-200 L285.37735849056634,-200 L285.37735849056634,-150 L278.13584905660406,-150 L278.13584905660406,-200 Z" fill="#f0f0f0" />
<path d="M285.37735849056634,-200 L292.6188679245286,-200 L292.6188679245286,-150 L285.37735849056634,-150 L285.37735849056634,-200 Z" fill="black" />
<path d="M292.6188679245286,-200 L299.8603773584909,-200 L299.8603773584909,-150 L292.6188679245286,-150 L292.6188679245286,-200 Z" fill="#f0f0f0" />
<path d="M299.8603773584909,-200 L307.1018867924532,-200 L307.1018867924532,-150 L299.8603773584909,-150 L299.8603773584909,-200 Z" fill="black" />
<path d="M307.1018867924532,-200 L314.34339622641545,-200 L314.34339622641545,-150 L307.1018867924532,-150 L307.1018867924532,-200 Z" fill="#f0f0f0" />
<path d="M314.34339622641545,-200 L321.58490566037773,-200 L321.58490566037773,-150 L314.34339622641545,-150 L314.34339622641545,-200 Z" fill="black" />
<path d="M321.58490566037773,-200 L328.82641509434,-200 L328.82641509434,-150 L321.58490566037773,-150 L321.58490566037773,-200 Z" fill="#f0f0f0" />
<path d="M328.82641509434,-200 L336.0679245283023,-200 L336.0679245283023,-150 L328.82641509434,-150 L328.82641509434,-200 Z" fill="black" />
<path d="M336.0679245283023,-200 L343.30943396226456,-200 L343.30943396226456,-150 L336.0679245283023,-150 L336.0679245283023,-200 Z" fill="#f0f0f0" />
<path d="M343.30943396226456,-200 L350.55094339622684,-200 L350.55094339622684,-150 L343.30943396226456,-150 L343.30943396226456,-200 Z" fill="black" />
<path d="M350.55094339622684,-200 L357.7924528301891,-200 L357.7924528301891,-150 L350.55094339622684,-150 L350.55094339622684,-200 Z" fill="#f0f0f0" />
<path d="M357.7924528301891,-200 L365.0339622641514,-200 L365.0339622641514,-150 L357.7924528301891,-150 L357.7924528301891,-200 Z" fill="black" />
<path d="M365.0339622641514,-200 L372.2754716981137,-200 L372.2754716981137,-150 L365.0339622641514,-150 L365.0339622641514,-200 Z" fill="#f0f0f0" />
<path d="M372.2754716981137,-200 L379.51698113207595,-200 L379.51698113207595,-150 L372.2754716981137,-150 L372.2754716981137,-200 Z" fill="black" />
<path d="M379.51698113207595,-200 L386.75849056603823,-200 L386.75849056603823,-150 L379.51698113207595,-150 L379.51698113207595,-200 Z" fill="#f0f0f0" />
<path d="M386.75849056603823,-200 L394.0000000000005,-200 L394.0000000000005,-150 L386.75849056603823,-150 L386.75849056603823,-200 Z" fill="black" />
<text x="10.2" y="-210" font-size="26" fill="black" dy="0em">CRISPR: I-D</text>
<path d="M2346.0,-200 L2874.0,-200 L2874.0,-150 L2346.0,-150 L2346.0,-200 Z" fill="white" stroke="white" stroke-width="4" />
<path d="M2346.0,-200 L2353.2328767123286,-200 L2353.2328767123286,-150 L2346.0,-150 L2346.0,-200 Z" fill="black" />
<path d="M2353.2328767123286,-200 L2360.465753424657,-200 L2360.465753424657,-150 L2353.2328767123286,-150 L2353.2328767123286,-200 Z" fill="#f0f0f0" />
<path d="M2360.465753424657,-200 L2367.6986301369857,-200 L2367.6986301369857,-150 L2360.465753424657,-150 L2360.465753424657,-200 Z" fill="black" />
<path d="M2367.6986301369857,-200 L2374.9315068493142,-200 L2374.9315068493142,-150 L2367.6986301369857,-150 L2367.6986301369857,-200 Z" fill="#f0f0f0" />
<path d="M2374.9315068493142,-200 L2382.164383561643,-200 L2382.164383561643,-150 L2374.9315068493142,-150 L2374.9315068493142,-200 Z" fill="black" />
<path d="M2382.164383561643,-200 L2389.3972602739714,-200 L2389.3972602739714,-150 L2382.164383561643,-150 L2382.164383561643,-200 Z" fill="#f0f0f0" />
<path d="M2389.3972602739714,-200 L2396.6301369863,-200 L2396.6301369863,-150 L2389.3972602739714,-150 L2389.3972602739714,-200 Z" fill="black" />
<path d="M2396.6301369863,-200 L2403.8630136986285,-200 L2403.8630136986285,-150 L2396.6301369863,-150 L2396.6301369863,-200 Z" fill="#f0f0f0" />
<path d="M2403.8630136986285,-200 L2411.095890410957,-200 L2411.095890410957,-150 L2403.8630136986285,-150 L2403.8630136986285,-200 Z" fill="black" />
<path d="M2411.095890410957,-200 L2418.3287671232856,-200 L2418.3287671232856,-150 L2411.095890410957,-150 L2411.095890410957,-200 Z" fill="#f0f0f0" />
<path d="M2418.3287671232856,-200 L2425.561643835614,-200 L2425.561643835614,-150 L2418.3287671232856,-150 L2418.3287671232856,-200 Z" fill="black" />
<path d="M2425.561643835614,-200 L2432.7945205479427,-200 L2432.7945205479427,-150 L2425.561643835614,-150 L2425.561643835614,-200 Z" fill="#f0f0f0" />
<path d="M2432.7945205479427,-200 L2440.0273972602713,-200 L2440.0273972602713,-150 L2432.7945205479427,-150 L2432.7945205479427,-200 Z" fill="black" />
<path d="M2440.0273972602713,-200 L2447.2602739726,-200 L2447.2602739726,-150 L2440.0273972602713,-150 L2440.0273972602713,-200 Z" fill="#f0f0f0" />
<path d="M2447.2602739726,-200 L2454.4931506849284,-200 L2454.4931506849284,-150 L2447.2602739726,-150 L2447.2602739726,-200 Z" fill="black" />
<path d="M2454.4931506849284,-200 L2461.726027397257,-200 L2461.726027397257,-150 L2454.4931506849284,-150 L2454.4931506849284,-200 Z" fill="#f0f0f0" />
<path d="M2461.726027397257,-200 L2468.9589041095855,-200 L2468.9589041095855,-150 L2461.726027397257,-150 L2461.726027397257,-200 Z" fill="black" />
<path d="M2468.9589041095855,-200 L2476.191780821914,-200 L2476.191780821914,-150 L2468.9589041095855,-150 L2468.9589041095855,-200 Z" fill="#f0f0f0" />
<path d="M2476.191780821914,-200 L2483.4246575342427,-200 L2483.4246575342427,-150 L2476.191780821914,-150 L2476.191780821914,-200 Z" fill="black" />
<path d="M2483.4246575342427,-200 L2490.6575342465712,-200 L2490.6575342465712,-150 L2483.4246575342427,-150 L2483.4246575342427,-200 Z" fill="#f0f0f0" />
<path d="M2490.6575342465712,-200 L2497.8904109589,-200 L2497.8904109589,-150 L2490.6575342465712,-150 L2490.6575342465712,-200 Z" fill="black" />
<path d="M2497.8904109589,-200 L2505.1232876712284,-200 L2505.1232876712284,-150 L2497.8904109589,-150 L2497.8904109589,-200 Z" fill="#f0f0f0" />
<path d="M2505.1232876712284,-200 L2512.356164383557,-200 L2512.356164383557,-150 L2505.1232876712284,-150 L2505.1232876712284,-200 Z" fill="black" />
<path d="M2512.356164383557,-200 L2519.5890410958855,-200 L2519.5890410958855,-150 L2512.356164383557,-150 L2512.356164383557,-200 Z" fill="#f0f0f0" />
<path d="M2519.5890410958855,-200 L2526.821917808214,-200 L2526.821917808214,-150 L2519.5890410958855,-150 L2519.5890410958855,-200 Z" fill="black" />
<path d="M2526.821917808214,-200 L2534.0547945205426,-200 L2534.0547945205426,-150 L2526.821917808214,-150 L2526.821917808214,-200 Z" fill="#f0f0f0" />
<path d="M2534.0547945205426,-200 L2541.287671232871,-200 L2541.287671232871,-150 L2534.0547945205426,-150 L2534.0547945205426,-200 Z" fill="black" />
<path d="M2541.287671232871,-200 L2548.5205479451997,-200 L2548.5205479451997,-150 L2541.287671232871,-150 L2541.287671232871,-200 Z" fill="#f0f0f0" />
<path d="M2548.5205479451997,-200 L2555.7534246575283,-200 L2555.7534246575283,-150 L2548.5205479451997,-150 L2548.5205479451997,-200 Z" fill="black" />
<path d="M2555.7534246575283,-200 L2562.986301369857,-200 L2562.986301369857,-150 L2555.7534246575283,-150 L2555.7534246575283,-200 Z" fill="#f0f0f0" />
<path d="M2562.986301369857,-200 L2570.2191780821854,-200 L2570.2191780821854,-150 L2562.986301369857,-150 L2562.986301369857,-200 Z" fill="black" />
<path d="M2570.2191780821854,-200 L2577.452054794514,-200 L2577.452054794514,-150 L2570.2191780821854,-150 L2570.2191780821854,-200 Z" fill="#f0f0f0" />
<path d="M2577.452054794514,-200 L2584.6849315068425,-200 L2584.6849315068425,-150 L2577.452054794514,-150 L2577.452054794514,-200 Z" fill="black" />
<path d="M2584.6849315068425,-200 L2591.917808219171,-200 L2591.917808219171,-150 L2584.6849315068425,-150 L2584.6849315068425,-200 Z" fill="#f0f0f0" />
<path d="M2591.917808219171,-200 L2599.1506849314997,-200 L2599.1506849314997,-150 L2591.917808219171,-150 L2591.917808219171,-200 Z" fill="black" />
<path d="M2599.1506849314997,-200 L2606.383561643828,-200 L2606.383561643828,-150 L2599.1506849314997,-150 L2599.1506849314997,-200 Z" fill="#f0f0f0" />
<path d="M2606.383561643828,-200 L2613.616438356157,-200 L2613.616438356157,-150 L2606.383561643828,-150 L2606.383561643828,-200 Z" fill="black" />
<path d="M2613.616438356157,-200 L2620.8493150684853,-200 L2620.8493150684853,-150 L2613.616438356157,-150 L2613.616438356157,-200 Z" fill="#f0f0f0" />
<path d="M2620.8493150684853,-200 L2628.082191780814,-200 L2628.082191780814,-150 L2620.8493150684853,-150 L2620.8493150684853,-200 Z" fill="black" />
<path d="M2628.082191780814,-200 L2635.3150684931425,-200 L2635.3150684931425,-150 L2628.082191780814,-150 L2628.082191780814,-200 Z" fill="#f0f0f0" />
<path d="M2635.3150684931425,-200 L2642.547945205471,-200 L2642.547945205471,-150 L2635.3150684931425,-150 L2635.3150684931425,-200 Z" fill="black" />
<path d="M2642.547945205471,-200 L2649.7808219177996,-200 L2649.7808219177996,-150 L2642.547945205471,-150 L2642.547945205471,-200 Z" fill="#f0f0f0" />
<path d="M2649.7808219177996,-200 L2657.013698630128,-200 L2657.013698630128,-150 L2649.7808219177996,-150 L2649.7808219177996,-200 Z" fill="black" />
<path d="M2657.013698630128,-200 L2664.2465753424567,-200 L2664.2465753424567,-150 L2657.013698630128,-150 L2657.013698630128,-200 Z" fill="#f0f0f0" />
<path d="M2664.2465753424567,-200 L2671.4794520547853,-200 L2671.4794520547853,-150 L2664.2465753424567,-150 L2664.2465753424567,-200 Z" fill="black" />
<path d="M2671.4794520547853,-200 L2678.712328767114,-200 L2678.712328767114,-150 L2671.4794520547853,-150 L2671.4794520547853,-200 Z" fill="#f0f0f0" />
<path d="M2678.712328767114,-200 L2685.9452054794424,-200 L2685.9452054794424,-150 L2678.712328767114,-150 L2678.712328767114,-200 Z" fill="black" />
<path d="M2685.9452054794424,-200 L2693.178082191771,-200 L2693.178082191771,-150 L2685.9452054794424,-150 L2685.9452054794424,-200 Z" fill="#f0f0f0" />
<path d="M2693.178082191771,-200 L2700.4109589040995,-200 L2700.4109589040995,-150 L2693.178082191771,-150 L2693.178082191771,-200 Z" fill="black" />
<path d="M2700.4109589040995,-200 L2707.643835616428,-200 L2707.643835616428,-150 L2700.4109589040995,-150 L2700.4109589040995,-200 Z" fill="#f0f0f0" />
<path d="M2707.643835616428,-200 L2714.8767123287566,-200 L2714.8767123287566,-150 L2707.643835616428,-150 L2707.643835616428,-200 Z" fill="black" />
<path d="M2714.8767123287566,-200 L2722.109589041085,-200 L2722.109589041085,-150 L2714.8767123287566,-150 L2714.8767123287566,-200 Z" fill="#f0f0f0" />
<path d="M2722.109589041085,-200 L2729.3424657534138,-200 L2729.3424657534138,-150 L2722.109589041085,-150 L2722.109589041085,-200 Z" fill="black" />
<path d="M2729.3424657534138,-200 L2736.5753424657423,-200 L2736.5753424657423,-150 L2729.3424657534138,-150 L2729.3424657534138,-200 Z" fill="#f0f0f0" />
<path d="M2736.5753424657423,-200 L2743.808219178071,-200 L2743.808219178071,-150 L2736.5753424657423,-150 L2736.5753424657423,-200 Z" fill="black" />
<path d="M2743.808219178071,-200 L2751.0410958903994,-200 L2751.0410958903994,-150 L2743.808219178071,-150 L2743.808219178071,-200 Z" fill="#f0f0f0" />
<path d="M2751.0410958903994,-200 L2758.273972602728,-200 L2758.273972602728,-150 L2751.0410958903994,-150 L2751.0410958903994,-200 Z" fill="black" />
<path d="M2758.273972602728,-200 L2765.5068493150566,-200 L2765.5068493150566,-150 L2758.273972602728,-150 L2758.273972602728,-200 Z" fill="#f0f0f0" />
<path d="M2765.5068493150566,-200 L2772.739726027385,-200 L2772.739726027385,-150 L2765.5068493150566,-150 L2765.5068493150566,-200 Z" fill="black" />
<path d="M2772.739726027385,-200 L2779.9726027397137,-200 L2779.9726027397137,-150 L2772.739726027385,-150 L2772.739726027385,-200 Z" fill="#f0f0f0" />
<path d="M2779.9726027397137,-200 L2787.2054794520423,-200 L2787.2054794520423,-150 L2779.9726027397137,-150 L2779.9726027397137,-200 Z" fill="black" />
<path d="M2787.2054794520423,-200 L2794.438356164371,-200 L2794.438356164371,-150 L2787.2054794520423,-150 L2787.2054794520423,-200 Z" fill="#f0f0f0" />
<path d="M2794.438356164371,-200 L2801.6712328766994,-200 L2801.6712328766994,-150 L2794.438356164371,-150 L2794.438356164371,-200 Z" fill="black" />
<path d="M2801.6712328766994,-200 L2808.904109589028,-200 L2808.904109589028,-150 L2801.6712328766994,-150 L2801.6712328766994,-200 Z" fill="#f0f0f0" />
<path d="M2808.904109589028,-200 L2816.1369863013565,-200 L2816.1369863013565,-150 L2808.904109589028,-150 L2808.904109589028,-200 Z" fill="black" />
<path d="M2816.1369863013565,-200 L2823.369863013685,-200 L2823.369863013685,-150 L2816.1369863013565,-150 L2816.1369863013565,-200 Z" fill="#f0f0f0" />
<path d="M2823.369863013685,-200 L2830.6027397260136,-200 L2830.6027397260136,-150 L2823.369863013685,-150 L2823.369863013685,-200 Z" fill="black" />
<path d="M2830.6027397260136,-200 L2837.835616438342,-200 L2837.835616438342,-150 L2830.6027397260136,-150 L2830.6027397260136,-200 Z" fill="#f0f0f0" />
<path d="M2837.835616438342,-200 L2845.0684931506707,-200 L2845.0684931506707,-150 L2837.835616438342,-150 L2837.835616438342,-200 Z" fill="black" />
<path d="M2845.0684931506707,-200 L2852.3013698629993,-200 L2852.3013698629993,-150 L2845.0684931506707,-150 L2845.0684931506707,-200 Z" fill="#f0f0f0" />
<path d="M2852.3013698629993,-200 L2859.534246575328,-200 L2859.534246575328,-150 L2852.3013698629993,-150 L2852.3013698629993,-200 Z" fill="black" />
<path d="M2859.534246575328,-200 L2866.7671232876564,-200 L2866.7671232876564,-150 L2859.534246575328,-150 L2859.534246575328,-200 Z" fill="#f0f0f0" />
<path d="M2866.7671232876564,-200 L2873.999999999985,-200 L2873.999999999985,-150 L2866.7671232876564,-150 L2866.7671232876564,-200 Z" fill="black" />
<text x="2346.0" y="-210" font-size="26" fill="black" dy="0em">CRISPR: I-D</text>
</svg>