<?xml version="1.0" encoding="UTF-8"?>
<svg xmlns="http://www.w3.org/2000/svg" xmlns:xlink="http://www.w3.org/1999/xlink"
     width="2109" height="4000" viewBox="0 -4000 2109 4000">
<defs>
</defs>
<path d="M210,-20 L210,-3920" stroke="grey" stroke-width="1" fill="none" />
<text x="160" y="-3930" font-size="22" fill="grey" dy="0em">1000</text>
<path d="M410,-20 L410,-3920" stroke="grey" stroke-width="1" fill="none" />
<text x="360" y="-3930" font-size="22" fill="grey" dy="0em">2000</text>
<path d="M610,-20 L610,-3920" stroke="grey" stroke-width="1" fill="none" />
<text x="560" y="-3930" font-size="22" fill="grey" dy="0em">3000</text>
<path d="M810,-20 L810,-3920" stroke="grey" stroke-width="1" fill="none" />
<text x="760" y="-3930" font-size="22" fill="grey" dy="0em">4000</text>
<path d="M1010,-20 L1010,-3920" stroke="grey" stroke-width="1" fill="none" />
<text x="960" y="-3930" font-size="22" fill="grey" dy="0em">5000</text>
<path d="M1210,-20 L1210,-3920" stroke="grey" stroke-width="1" fill="none" />
<text x="1160" y="-3930" font-size="22" fill="grey" dy="0em">6000</text>
<path d="M1410,-20 L1410,-3920" stroke="grey" stroke-width="1" fill="none" />
<text x="1360" y="-3930" font-size="22" fill="grey" dy="0em">7000</text>
<path d="M1610,-20 L1610,-3920" stroke="grey" stroke-width="1" fill="none" />
<text x="1560" y="-3930" font-size="22" fill="grey" dy="0em">8000</text>
<path d="M1810,-20 L1810,-3920" stroke="grey" stroke-width="1" fill="none" />
<text x="1760" y="-3930" font-size="22" fill="grey" dy="0em">9000</text>
<path d="M2010,-20 L2010,-3920" stroke="grey" stroke-width="1" fill="none" />
<text x="1960" y="-3930" font-size="22" fill="grey" dy="0em">10000</text>
<text x="16.0" y="-3860" font-size="38" fill="black" dy="0em">I-B: JAMOVR010000016@1 (7507-17554)</text>
<path d="M130.8,-3800 L193.0,-3800 L193.0,-3750 L130.8,-3750 L100.80000000000001,-3775.0 L130.8,-3800 Z" fill="#d3c9c1" fill-opacity="0.8" stroke="#d3c9c1" stroke-width="4" />
<text x="100.80000000000001" y="-3810" font-size="20" fill="black" dy="0em">10</text>
<path d="M318.0,-3800 L343.0,-3800 L343.0,-3750 L318.0,-3750 L288.0,-3775.0 L318.0,-3800 Z" fill="#5b5ea6" fill-opacity="0.8" stroke="#5b5ea6" stroke-width="4" />
<text x="288.0" y="-3720" font-size="26" fill="black" dy="0em">Cas2</text>
<path d="M374.0,-3800 L539.4,-3800 L539.4,-3750 L374.0,-3750 L344.0,-3775.0 L374.0,-3800 Z" fill="#5b5ea6" fill-opacity="0.8" stroke="#5b5ea6" stroke-width="4" />
<text x="344.0" y="-3810" font-size="26" fill="black" dy="0em">Cas1</text>
<path d="M570.0,-3800 L650.2,-3800 L650.2,-3750 L570.0,-3750 L540.0,-3775.0 L570.0,-3800 Z" fill="#5b5ea6" fill-opacity="0.8" stroke="#5b5ea6" stroke-width="4" />
<text x="540.0" y="-3720" font-size="26" fill="black" dy="0em">Cas4</text>
<path d="M676.4000000000001,-3800 L1155.0,-3800 L1155.0,-3750 L676.4000000000001,-3750 L646.4000000000001,-3775.0 L676.4000000000001,-3800 Z" fill="#efc050" fill-opacity="0.8" stroke="#efc050" stroke-width="4" />
<text x="646.4000000000001" y="-3810" font-size="26" fill="black" dy="0em">Cas3</text>
<path d="M1183.8,-3800 L1307.2,-3800 L1307.2,-3750 L1183.8,-3750 L1153.8,-3775.0 L1183.8,-3800 Z" fill="#efc050" fill-opacity="0.8" stroke="#efc050" stroke-width="4" />
<text x="1153.8" y="-3720" font-size="26" fill="black" dy="0em">Cas5</text>
<path d="M1339.8000000000002,-3800 L1508.8000000000002,-3800 L1508.8000000000002,-3750 L1339.8000000000002,-3750 L1309.8000000000002,-3775.0 L1339.8000000000002,-3800 Z" fill="#efc050" fill-opacity="0.8" stroke="#efc050" stroke-width="4" />
<text x="1309.8000000000002" y="-3810" font-size="26" fill="black" dy="0em">Cas7</text>
<path d="M1545.2,-3800 L1910.4,-3800 L1910.4,-3750 L1545.2,-3750 L1515.2,-3775.0 L1545.2,-3800 Z" fill="#efc050" fill-opacity="0.8" stroke="#efc050" stroke-width="4" />
<text x="1515.2" y="-3720" font-size="26" fill="black" dy="0em">Cas8b1</text>
<path d="M1940.6000000000001,-3800 L2019.6000000000001,-3800 L2019.6000000000001,-3750 L1940.6000000000001,-3750 L1910.6000000000001,-3775.0 L1940.6000000000001,-3800 Z" fill="#dd1424" fill-opacity="0.8" stroke="#dd1424" stroke-width="4" />
<text x="1910.6000000000001" y="-3810" font-size="26" fill="black" dy="0em">Cas6</text>
<path d="M10.2,-3800 L256.0,-3800 L256.0,-3750 L10.2,-3750 L10.2,-3800 Z" fill="white" stroke="white" stroke-width="4" />
<path d="M10.2,-3800 L16.843243243243244,-3800 L16.843243243243244,-3750 L10.2,-3750 L10.2,-3800 Z" fill="black" />
<path d="M16.843243243243244,-3800 L23.486486486486488,-3800 L23.486486486486488,-3750 L16.843243243243244,-3750 L16.843243243243244,-3800 Z" fill="#f0f0f0" />
<path d="M23.486486486486488,-3800 L30.129729729729732,-3800 L30.129729729729732,-3750 L23.486486486486488,-3750 L23.486486486486488,-3800 Z" fill="black" />
<path d="M30.129729729729732,-3800 L36.77297297297297,-3800 L36.77297297297297,-3750 L30.129729729729732,-3750 L30.129729729729732,-3800 Z" fill="#f0f0f0" />
<path d="M36.77297297297297,-3800 L43.41621621621621,-3800 L43.41621621621621,-3750 L36.77297297297297,-3750 L36.77297297297297,-3800 Z" fill="black" />
<path d="M43.41621621621621,-3800 L50.059459459459454,-3800 L50.059459459459454,-3750 L43.41621621621621,-3750 L43.41621621621621,-3800 Z" fill="#f0f0f0" />
<path d="M50.059459459459454,-3800 L56.702702702702695,-3800 L56.702702702702695,-3750 L50.059459459459454,-3750 L50.059459459459454,-3800 Z" fill="black" />
<path d="M56.702702702702695,-3800 L63.345945945945935,-3800 L63.345945945945935,-3750 L56.702702702702695,-3750 L56.702702702702695,-3800 Z" fill="#f0f0f0" />
<path d="M63.345945945945935,-3800 L69.98918918918918,-3800 L69.98918918918918,-3750 L63.345945945945935,-3750 L63.345945945945935,-3800 Z" fill="black" />
<path d="M69.98918918918918,-3800 L76.63243243243242,-3800 L76.63243243243242,-3750 L69.98918918918918,-3750 L69.98918918918918,-3800 Z" fill="#f0f0f0" />
<path d="M76.63243243243242,-3800 L83.27567567567567,-3800 L83.27567567567567,-3750 L76.63243243243242,-3750 L76.63243243243242,-3800 Z" fill="black" />
<path d="M83.27567567567567,-3800 L89.91891891891892,-3800 L89.91891891891892,-3750 L83.27567567567567,-3750 L83.27567567567567,-3800 Z" fill="#f0f0f0" />
<path d="M89.91891891891892,-3800 L96.56216216216217,-3800 L96.56216216216217,-3750 L89.91891891891892,-3750 L89.91891891891892,-3800 Z" fill="black" />
<path d="M96.56216216216217,-3800 L103.20540540540541,-3800 L103.20540540540541,-3750 L96.56216216216217,-3750 L96.56216216216217,-3800 Z" fill="#f0f0f0" />
<path d="M103.20540540540541,-3800 L109.84864864864866,-3800 L109.84864864864866,-3750 L103.20540540540541,-3750 L103.20540540540541,-3800 Z" fill="black" />
<path d="M109.84864864864866,-3800 L116.49189189189191,-3800 L116.49189189189191,-3750 L109.84864864864866,-3750 L109.84864864864866,-3800 Z" fill="#f0f0f0" />
<path d="M116.49189189189191,-3800 L123.13513513513516,-3800 L123.13513513513516,-3750 L116.49189189189191,-3750 L116.49189189189191,-3800 Z" fill="black" />
<path d="M123.13513513513516,-3800 L129.7783783783784,-3800 L129.7783783783784,-3750 L123.13513513513516,-3750 L123.13513513513516,-3800 Z" fill="#f0f0f0" />
<path d="M129.7783783783784,-3800 L136.42162162162163,-3800 L136.42162162162163,-3750 L129.7783783783784,-3750 L129.7783783783784,-3800 Z" fill="black" />
<path d="M136.42162162162163,-3800 L143.06486486486486,-3800 L143.06486486486486,-3750 L136.42162162162163,-3750 L136.42162162162163,-3800 Z" fill="#f0f0f0" />
<path d="M143.06486486486486,-3800 L149.7081081081081,-3800 L149.7081081081081,-3750 L143.06486486486486,-3750 L143.06486486486486,-3800 Z" fill="black" />
<path d="M149.7081081081081,-3800 L156.35135135135133,-3800 L156.35135135135133,-3750 L149.7081081081081,-3750 L149.7081081081081,-3800 Z" fill="#f0f0f0" />
<path d="M156.35135135135133,-3800 L162.99459459459456,-3800 L162.99459459459456,-3750 L156.35135135135133,-3750 L156.35135135135133,-3800 Z" fill="black" />
<path d="M162.99459459459456,-3800 L169.6378378378378,-3800 L169.6378378378378,-3750 L162.99459459459456,-3750 L162.99459459459456,-3800 Z" fill="#f0f0f0" />
<path d="M169.6378378378378,-3800 L176.28108108108103,-3800 L176.28108108108103,-3750 L169.6378378378378,-3750 L169.6378378378378,-3800 Z" fill="black" />
<path d="M176.28108108108103,-3800 L182.92432432432426,-3800 L182.92432432432426,-3750 L176.28108108108103,-3750 L176.28108108108103,-3800 Z" fill="#f0f0f0" />
<path d="M182.92432432432426,-3800 L189.5675675675675,-3800 L189.5675675675675,-3750 L182.92432432432426,-3750 L182.92432432432426,-3800 Z" fill="black" />
<path d="M189.5675675675675,-3800 L196.21081081081073,-3800 L196.21081081081073,-3750 L189.5675675675675,-3750 L189.5675675675675,-3800 Z" fill="#f0f0f0" />
<path d="M196.21081081081073,-3800 L202.85405405405396,-3800 L202.85405405405396,-3750 L196.21081081081073,-3750 L196.21081081081073,-3800 Z" fill="black" />
<path d="M202.85405405405396,-3800 L209.4972972972972,-3800 L209.4972972972972,-3750 L202.85405405405396,-3750 L202.85405405405396,-3800 Z" fill="#f0f0f0" />
<path d="M209.4972972972972,-3800 L216.14054054054043,-3800 L216.14054054054043,-3750 L209.4972972972972,-3750 L209.4972972972972,-3800 Z" fill="black" />
<path d="M216.14054054054043,-3800 L222.78378378378366,-3800 L222.78378378378366,-3750 L216.14054054054043,-3750 L216.14054054054043,-3800 Z" fill="#f0f0f0" />
<path d="M222.78378378378366,-3800 L229.4270270270269,-3800 L229.4270270270269,-3750 L222.78378378378366,-3750 L222.78378378378366,-3800 Z" fill="black" />
<path d="M229.4270270270269,-3800 L236.07027027027013,-3800 L236.07027027027013,-3750 L229.4270270270269,-3750 L229.4270270270269,-3800 Z" fill="#f0f0f0" />
<path d="M236.07027027027013,-3800 L242.71351351351336,-3800 L242.71351351351336,-3750 L236.07027027027013,-3750 L236.07027027027013,-3800 Z" fill="black" />
<path d="M242.71351351351336,-3800 L249.3567567567566,-3800 L249.3567567567566,-3750 L242.71351351351336,-3750 L242.71351351351336,-3800 Z" fill="#f0f0f0" />
<path d="M249.3567567567566,-3800 L255.99999999999983,-3800 L255.99999999999983,-3750 L249.3567567567566,-3750 L249.3567567567566,-3800 Z" fill="black" />
<text x="10.2" y="-3810" font-size="26" fill="black" dy="0em">CRISPR</text>
<text x="16.0" y="-3660" font-size="38" fill="black" dy="0em">I-C: JAMOVR010000193@1 (1-1898)</text>
<path d="M40.2,-3600 L178.0,-3600 L178.0,-3550 L40.2,-3550 L10.2,-3575.0 L40.2,-3600 Z" fill="#efc050" fill-opacity="0.8" stroke="#efc050" stroke-width="4" />
<text x="10.2" y="-3610" font-size="26" fill="black" dy="0em">Cas8c</text>
<path d="M206.0,-3600 L322.8,-3600 L322.8,-3550 L206.0,-3550 L176.0,-3575.0 L206.0,-3600 Z" fill="#efc050" fill-opacity="0.8" stroke="#efc050" stroke-width="4" />
<text x="176.0" y="-3520" font-size="26" fill="black" dy="0em">Cas5</text>
<path d="M359.20000000000005,-3600 L389.6,-3600 L389.6,-3550 L359.20000000000005,-3550 L329.20000000000005,-3575.0 L359.20000000000005,-3600 Z" fill="#efc050" fill-opacity="0.8" stroke="#efc050" stroke-width="4" />
<text x="329.20000000000005" y="-3610" font-size="26" fill="black" dy="0em">Cas3HD</text>
<text x="16.0" y="-3460" font-size="38" fill="black" dy="0em">I-B: JAMOVR010000025@1 (8118-15062)</text>
<path d="M40.2,-3400 L542.8000000000001,-3400 L542.8000000000001,-3350 L40.2,-3350 L10.2,-3375.0 L40.2,-3400 Z" fill="#efc050" fill-opacity="0.8" stroke="#efc050" stroke-width="4" />
<text x="10.2" y="-3410" font-size="26" fill="black" dy="0em">Cas3</text>
<path d="M594.0,-3400 L719.8000000000001,-3400 L719.8000000000001,-3350 L594.0,-3350 L564.0,-3375.0 L594.0,-3400 Z" fill="#efc050" fill-opacity="0.8" stroke="#efc050" stroke-width="4" />
<text x="564.0" y="-3320" font-size="26" fill="black" dy="0em">Cas5</text>
<path d="M750.2,-3400 L938.4000000000001,-3400 L938.4000000000001,-3350 L750.2,-3350 L720.2,-3375.0 L750.2,-3400 Z" fill="#efc050" fill-opacity="0.8" stroke="#efc050" stroke-width="4" />
<text x="720.2" y="-3410" font-size="26" fill="black" dy="0em">Cas7</text>
<path d="M970.8000000000001,-3400 L1399.0,-3400 L1399.0,-3350 L970.8000000000001,-3350 L940.8000000000001,-3375.0 L970.8000000000001,-3400 Z" fill="#efc050" fill-opacity="0.8" stroke="#efc050" stroke-width="4" />
<text x="940.8000000000001" y="-3320" font-size="26" fill="black" dy="0em">Cas8b12</text>
<text x="16.0" y="-3260" font-size="38" fill="black" dy="0em">III-A: JAMOVR010000317@1 (210-4914)</text>
<path d="M40.2,-3200 L266.2,-3200 L266.2,-3150 L40.2,-3150 L10.2,-3175.0 L40.2,-3200 Z" fill="#ff80e6" fill-opacity="0.8" stroke="#ff80e6" stroke-width="4" />
<text x="10.2" y="-3210" font-size="26" fill="black" dy="0em">Csx1</text>
<path d="M322.2,-3200 L511.6,-3200 L511.6,-3150 L322.2,-3150 L292.2,-3175.0 L322.2,-3200 Z" fill="#efc050" fill-opacity="0.8" stroke="#efc050" stroke-width="4" />
<text x="292.2" y="-3120" font-size="26" fill="black" dy="0em">Csm5</text>
<path d="M541.0,-3200 L704.6,-3200 L704.6,-3150 L541.0,-3150 L511.0,-3175.0 L541.0,-3200 Z" fill="#efc050" fill-opacity="0.8" stroke="#efc050" stroke-width="4" />
<text x="511.0" y="-3210" font-size="26" fill="black" dy="0em">Csm4</text>
<path d="M735.6,-3200 L862.0,-3200 L862.0,-3150 L735.6,-3150 L705.6,-3175.0 L735.6,-3200 Z" fill="#efc050" fill-opacity="0.8" stroke="#efc050" stroke-width="4" />
<text x="705.6" y="-3120" font-size="26" fill="black" dy="0em">Csm3gr7</text>
<path d="M894.8000000000001,-3200 L951.0,-3200 L951.0,-3150 L894.8000000000001,-3150 L864.8000000000001,-3175.0 L894.8000000000001,-3200 Z" fill="#efc050" fill-opacity="0.8" stroke="#efc050" stroke-width="4" />
<text x="864.8000000000001" y="-3210" font-size="26" fill="black" dy="0em">Csm2gr11</text>
<text x="16.0" y="-3060" font-size="38" fill="black" dy="0em">I-B: JAMOVR010000017@1 (2-3707)</text>
<path d="M10.2,-3000 L141.4,-3000 L171.4,-2975.0 L141.4,-2950 L10.2,-2950 L10.2,-3000 Z" fill="#efc050" fill-opacity="0.8" stroke="#efc050" stroke-width="4" />
<text x="10.2" y="-3010" font-size="26" fill="black" dy="0em">Cas7</text>
<path d="M171.60000000000002,-3000 L277.6,-3000 L307.6,-2975.0 L277.6,-2950 L171.60000000000002,-2950 L171.60000000000002,-3000 Z" fill="#efc050" fill-opacity="0.8" stroke="#efc050" stroke-width="4" />
<text x="171.60000000000002" y="-2920" font-size="26" fill="black" dy="0em">Cas5</text>
<path d="M305.6,-3000 L721.2,-3000 L751.2,-2975.0 L721.2,-2950 L305.6,-2950 L305.6,-3000 Z" fill="#efc050" fill-opacity="0.8" stroke="#efc050" stroke-width="4" />
<text x="305.6" y="-3010" font-size="26" fill="black" dy="0em">Cas3</text>
<text x="16.0" y="-2860" font-size="38" fill="black" dy="0em">III-A: JAMOVR010000170@1 (198-2345)</text>
<path d="M40.2,-2800 L205.0,-2800 L205.0,-2750 L40.2,-2750 L10.2,-2775.0 L40.2,-2800 Z" fill="#efc050" fill-opacity="0.8" stroke="#efc050" stroke-width="4" />
<text x="10.2" y="-2810" font-size="26" fill="black" dy="0em">Csm4gr5</text>
<path d="M236.4,-2800 L362.8,-2800 L362.8,-2750 L236.4,-2750 L206.4,-2775.0 L236.4,-2800 Z" fill="#efc050" fill-opacity="0.8" stroke="#efc050" stroke-width="4" />
<text x="206.4" y="-2720" font-size="26" fill="black" dy="0em">Csm3gr7</text>
<path d="M396.6,-2800 L439.6,-2800 L439.6,-2750 L396.6,-2750 L366.6,-2775.0 L396.6,-2800 Z" fill="#efc050" fill-opacity="0.8" stroke="#efc050" stroke-width="4" />
<text x="366.6" y="-2810" font-size="26" fill="black" dy="0em">Csm2gr11</text>
<text x="16.0" y="-2660" font-size="38" fill="black" dy="0em">III-A: JAMOVR010000310@1 (2-5464)</text>
<path d="M10.2,-2600 L466.6,-2600 L496.6,-2575.0 L466.6,-2550 L10.2,-2550 L10.2,-2600 Z" fill="#efc050" fill-opacity="0.8" stroke="#efc050" stroke-width="4" />
<text x="10.2" y="-2610" font-size="26" fill="black" dy="0em">Cas10</text>
<path d="M495.20000000000005,-2600 L543.6,-2600 L573.6,-2575.0 L543.6,-2550 L495.20000000000005,-2550 L495.20000000000005,-2600 Z" fill="#efc050" fill-opacity="0.8" stroke="#efc050" stroke-width="4" />
<text x="495.20000000000005" y="-2520" font-size="26" fill="black" dy="0em">Csm2gr11</text>
<path d="M577.6,-2600 L713.6,-2600 L743.6,-2575.0 L713.6,-2550 L577.6,-2550 L577.6,-2600 Z" fill="#efc050" fill-opacity="0.8" stroke="#efc050" stroke-width="4" />
<text x="577.6" y="-2610" font-size="26" fill="black" dy="0em">Csm3gr7</text>
<path d="M743.0,-2600 L912.0,-2600 L942.0,-2575.0 L912.0,-2550 L743.0,-2550 L743.0,-2600 Z" fill="#efc050" fill-opacity="0.8" stroke="#efc050" stroke-width="4" />
<text x="743.0" y="-2520" font-size="26" fill="black" dy="0em">Csm4gr5</text>
<path d="M941.4000000000001,-2600 L1072.6000000000001,-2600 L1102.6000000000001,-2575.0 L1072.6000000000001,-2550 L941.4000000000001,-2550 L941.4000000000001,-2600 Z" fill="#efc050" fill-opacity="0.8" stroke="#efc050" stroke-width="4" />
<text x="941.4000000000001" y="-2610" font-size="26" fill="black" dy="0em">Csm5gr7</text>
<text x="16.0" y="-2460" font-size="38" fill="black" dy="0em">Ambiguous: JAMOVR010000255@1 (149-2294)</text>
<path d="M40.2,-2400 L129.4,-2400 L129.4,-2350 L40.2,-2350 L10.2,-2375.0 L40.2,-2400 Z" fill="#5b5ea6" fill-opacity="0.8" stroke="#5b5ea6" stroke-width="4" />
<text x="10.2" y="-2410" font-size="26" fill="black" dy="0em">Cas4</text>
<path d="M162.8,-2400 L232.20000000000002,-2400 L232.20000000000002,-2350 L162.8,-2350 L132.8,-2375.0 L162.8,-2400 Z" fill="#5b5ea6" fill-opacity="0.8" stroke="#5b5ea6" stroke-width="4" />
<text x="132.8" y="-2320" font-size="26" fill="black" dy="0em">Cas2</text>
<path d="M264.8,-2400 L439.20000000000005,-2400 L439.20000000000005,-2350 L264.8,-2350 L234.8,-2375.0 L264.8,-2400 Z" fill="#5b5ea6" fill-opacity="0.8" stroke="#5b5ea6" stroke-width="4" />
<text x="234.8" y="-2410" font-size="26" fill="black" dy="0em">Cas1</text>
<path d="M10.2,-2200 L161.6,-2200 L161.6,-2150 L10.2,-2150 L10.2,-2200 Z" fill="white" stroke="white" stroke-width="4" />
<path d="M10.2,-2200 L16.782608695652172,-2200 L16.782608695652172,-2150 L10.2,-2150 L10.2,-2200 Z" fill="black" />
<path d="M16.782608695652172,-2200 L23.36521739130435,-2200 L23.36521739130435,-2150 L16.782608695652172,-2150 L16.782608695652172,-2200 Z" fill="#f0f0f0" />
<path d="M23.36521739130435,-2200 L29.947826086956525,-2200 L29.947826086956525,-2150 L23.36521739130435,-2150 L23.36521739130435,-2200 Z" fill="black" />
<path d="M29.947826086956525,-2200 L36.5304347826087,-2200 L36.5304347826087,-2150 L29.947826086956525,-2150 L29.947826086956525,-2200 Z" fill="#f0f0f0" />
<path d="M36.5304347826087,-2200 L43.11304347826088,-2200 L43.11304347826088,-2150 L36.5304347826087,-2150 L36.5304347826087,-2200 Z" fill="black" />
<path d="M43.11304347826088,-2200 L49.695652173913054,-2200 L49.695652173913054,-2150 L43.11304347826088,-2150 L43.11304347826088,-2200 Z" fill="#f0f0f0" />
<path d="M49.695652173913054,-2200 L56.27826086956523,-2200 L56.27826086956523,-2150 L49.695652173913054,-2150 L49.695652173913054,-2200 Z" fill="black" />
<path d="M56.27826086956523,-2200 L62.860869565217406,-2200 L62.860869565217406,-2150 L56.27826086956523,-2150 L56.27826086956523,-2200 Z" fill="#f0f0f0" />
<path d="M62.860869565217406,-2200 L69.44347826086958,-2200 L69.44347826086958,-2150 L62.860869565217406,-2150 L62.860869565217406,-2200 Z" fill="black" />
<path d="M69.44347826086958,-2200 L76.02608695652175,-2200 L76.02608695652175,-2150 L69.44347826086958,-2150 L69.44347826086958,-2200 Z" fill="#f0f0f0" />
<path d="M76.02608695652175,-2200 L82.60869565217392,-2200 L82.60869565217392,-2150 L76.02608695652175,-2150 L76.02608695652175,-2200 Z" fill="black" />
<path d="M82.60869565217392,-2200 L89.19130434782609,-2200 L89.19130434782609,-2150 L82.60869565217392,-2150 L82.60869565217392,-2200 Z" fill="#f0f0f0" />
<path d="M89.19130434782609,-2200 L95.77391304347826,-2200 L95.77391304347826,-2150 L89.19130434782609,-2150 L89.19130434782609,-2200 Z" fill="black" />
<path d="M95.77391304347826,-2200 L102.35652173913043,-2200 L102.35652173913043,-2150 L95.77391304347826,-2150 L95.77391304347826,-2200 Z" fill="#f0f0f0" />
<path d="M102.35652173913043,-2200 L108.9391304347826,-2200 L108.9391304347826,-2150 L102.35652173913043,-2150 L102.35652173913043,-2200 Z" fill="black" />
<path d="M108.9391304347826,-2200 L115.52173913043477,-2200 L115.52173913043477,-2150 L108.9391304347826,-2150 L108.9391304347826,-2200 Z" fill="#f0f0f0" />
<path d="M115.52173913043477,-2200 L122.10434782608694,-2200 L122.10434782608694,-2150 L115.52173913043477,-2150 L115.52173913043477,-2200 Z" fill="black" />
<path d="M122.10434782608694,-2200 L128.68695652173912,-2200 L128.68695652173912,-2150 L122.10434782608694,-2150 L122.10434782608694,-2200 Z" fill="#f0f0f0" />
<path d="M128.68695652173912,-2200 L135.2695652173913,-2200 L135.2695652173913,-2150 L128.68695652173912,-2150 L128.68695652173912,-2200 Z" fill="black" />
<path d="M135.2695652173913,-2200 L141.85217391304346,-2200 L141.85217391304346,-2150 L135.2695652173913,-2150 L135.2695652173913,-2200 Z" fill="#f0f0f0" />
<path d="M141.85217391304346,-2200 L148.43478260869563,-2200 L148.43478260869563,-2150 L141.85217391304346,-2150 L141.85217391304346,-2200 Z" fill="black" />
<path d="M148.43478260869563,-2200 L155.0173913043478,-2200 L155.0173913043478,-2150 L148.43478260869563,-2150 L148.43478260869563,-2200 Z" fill="#f0f0f0" />
<path d="M155.0173913043478,-2200 L161.59999999999997,-2200 L161.59999999999997,-2150 L155.0173913043478,-2150 L155.0173913043478,-2200 Z" fill="black" />
<text x="10.2" y="-2210" font-size="26" fill="black" dy="0em">CRISPR</text>
<text x="16.0" y="-2260" font-size="38" fill="black" dy="0em">Unknown: JAMOVR010000036_2 (6790-7547)</text>
<path d="M10.2,-2000 L142.20000000000002,-2000 L142.20000000000002,-1950 L10.2,-1950 L10.2,-2000 Z" fill="white" stroke="white" stroke-width="4" />
<path d="M10.2,-2000 L17.96470588235294,-2000 L17.96470588235294,-1950 L10.2,-1950 L10.2,-2000 Z" fill="black" />
<path d="M17.96470588235294,-2000 L25.729411764705883,-2000 L25.729411764705883,-1950 L17.96470588235294,-1950 L17.96470588235294,-2000 Z" fill="#f0f0f0" />
<path d="M25.729411764705883,-2000 L33.49411764705882,-2000 L33.49411764705882,-1950 L25.729411764705883,-1950 L25.729411764705883,-2000 Z" fill="black" />
<path d="M33.49411764705882,-2000 L41.258823529411764,-2000 L41.258823529411764,-1950 L33.49411764705882,-1950 L33.49411764705882,-2000 Z" fill="#f0f0f0" />
<path d="M41.258823529411764,-2000 L49.023529411764706,-2000 L49.023529411764706,-1950 L41.258823529411764,-1950 L41.258823529411764,-2000 Z" fill="black" />
<path d="M49.023529411764706,-2000 L56.78823529411765,-2000 L56.78823529411765,-1950 L49.023529411764706,-1950 L49.023529411764706,-2000 Z" fill="#f0f0f0" />
<path d="M56.78823529411765,-2000 L64.55294117647058,-2000 L64.55294117647058,-1950 L56.78823529411765,-1950 L56.78823529411765,-2000 Z" fill="black" />
<path d="M64.55294117647058,-2000 L72.31764705882352,-2000 L72.31764705882352,-1950 L64.55294117647058,-1950 L64.55294117647058,-2000 Z" fill="#f0f0f0" />
<path d="M72.31764705882352,-2000 L80.08235294117647,-2000 L80.08235294117647,-1950 L72.31764705882352,-1950 L72.31764705882352,-2000 Z" fill="black" />
<path d="M80.08235294117647,-2000 L87.84705882352941,-2000 L87.84705882352941,-1950 L80.08235294117647,-1950 L80.08235294117647,-2000 Z" fill="#f0f0f0" />
<path d="M87.84705882352941,-2000 L95.61176470588235,-2000 L95.61176470588235,-1950 L87.84705882352941,-1950 L87.84705882352941,-2000 Z" fill="black" />
<path d="M95.61176470588235,-2000 L103.37647058823529,-2000 L103.37647058823529,-1950 L95.61176470588235,-1950 L95.61176470588235,-2000 Z" fill="#f0f0f0" />
<path d="M103.37647058823529,-2000 L111.14117647058823,-2000 L111.14117647058823,-1950 L103.37647058823529,-1950 L103.37647058823529,-2000 Z" fill="black" />
<path d="M111.14117647058823,-2000 L118.90588235294118,-2000 L118.90588235294118,-1950 L111.14117647058823,-1950 L111.14117647058823,-2000 Z" fill="#f0f0f0" />
<path d="M118.90588235294118,-2000 L126.67058823529412,-2000 L126.67058823529412,-1950 L118.90588235294118,-1950 L118.90588235294118,-2000 Z" fill="black" />
<path d="M126.67058823529412,-2000 L134.43529411764706,-2000 L134.43529411764706,-1950 L126.67058823529412,-1950 L126.67058823529412,-2000 Z" fill="#f0f0f0" />
<path d="M134.43529411764706,-2000 L142.2,-2000 L142.2,-1950 L134.43529411764706,-1950 L134.43529411764706,-2000 Z" fill="black" />
<text x="10.2" y="-2010" font-size="26" fill="black" dy="0em">CRISPR: III-D</text>
<text x="16.0" y="-2060" font-size="38" fill="black" dy="0em">III-D: JAMOVR010000047_3 (8820-9480)</text>
<path d="M10.2,-1800 L254.0,-1800 L254.0,-1750 L10.2,-1750 L10.2,-1800 Z" fill="white" stroke="white" stroke-width="4" />
<path d="M10.2,-1800 L18.064516129032256,-1800 L18.064516129032256,-1750 L10.2,-1750 L10.2,-1800 Z" fill="black" />
<path d="M18.064516129032256,-1800 L25.929032258064517,-1800 L25.929032258064517,-1750 L18.064516129032256,-1750 L18.064516129032256,-1800 Z" fill="#f0f0f0" />
<path d="M25.929032258064517,-1800 L33.79354838709678,-1800 L33.79354838709678,-1750 L25.929032258064517,-1750 L25.929032258064517,-1800 Z" fill="black" />
<path d="M33.79354838709678,-1800 L41.65806451612904,-1800 L41.65806451612904,-1750 L33.79354838709678,-1750 L33.79354838709678,-1800 Z" fill="#f0f0f0" />
<path d="M41.65806451612904,-1800 L49.5225806451613,-1800 L49.5225806451613,-1750 L41.65806451612904,-1750 L41.65806451612904,-1800 Z" fill="black" />
<path d="M49.5225806451613,-1800 L57.38709677419356,-1800 L57.38709677419356,-1750 L49.5225806451613,-1750 L49.5225806451613,-1800 Z" fill="#f0f0f0" />
<path d="M57.38709677419356,-1800 L65.25161290322582,-1800 L65.25161290322582,-1750 L57.38709677419356,-1750 L57.38709677419356,-1800 Z" fill="black" />
<path d="M65.25161290322582,-1800 L73.11612903225807,-1800 L73.11612903225807,-1750 L65.25161290322582,-1750 L65.25161290322582,-1800 Z" fill="#f0f0f0" />
<path d="M73.11612903225807,-1800 L80.98064516129033,-1800 L80.98064516129033,-1750 L73.11612903225807,-1750 L73.11612903225807,-1800 Z" fill="black" />
<path d="M80.98064516129033,-1800 L88.84516129032258,-1800 L88.84516129032258,-1750 L80.98064516129033,-1750 L80.98064516129033,-1800 Z" fill="#f0f0f0" />
<path d="M88.84516129032258,-1800 L96.70967741935483,-1800 L96.70967741935483,-1750 L88.84516129032258,-1750 L88.84516129032258,-1800 Z" fill="black" />
<path d="M96.70967741935483,-1800 L104.57419354838709,-1800 L104.57419354838709,-1750 L96.70967741935483,-1750 L96.70967741935483,-1800 Z" fill="#f0f0f0" />
<path d="M104.57419354838709,-1800 L112.43870967741934,-1800 L112.43870967741934,-1750 L104.57419354838709,-1750 L104.57419354838709,-1800 Z" fill="black" />
<path d="M112.43870967741934,-1800 L120.3032258064516,-1800 L120.3032258064516,-1750 L112.43870967741934,-1750 L112.43870967741934,-1800 Z" fill="#f0f0f0" />
<path d="M120.3032258064516,-1800 L128.16774193548386,-1800 L128.16774193548386,-1750 L120.3032258064516,-1750 L120.3032258064516,-1800 Z" fill="black" />
<path d="M128.16774193548386,-1800 L136.03225806451613,-1800 L136.03225806451613,-1750 L128.16774193548386,-1750 L128.16774193548386,-1800 Z" fill="#f0f0f0" />
<path d="M136.03225806451613,-1800 L143.8967741935484,-1800 L143.8967741935484,-1750 L136.03225806451613,-1750 L136.03225806451613,-1800 Z" fill="black" />
<path d="M143.8967741935484,-1800 L151.76129032258066,-1800 L151.76129032258066,-1750 L143.8967741935484,-1750 L143.8967741935484,-1800 Z" fill="#f0f0f0" />
<path d="M151.76129032258066,-1800 L159.62580645161293,-1800 L159.62580645161293,-1750 L151.76129032258066,-1750 L151.76129032258066,-1800 Z" fill="black" />
<path d="M159.62580645161293,-1800 L167.4903225806452,-1800 L167.4903225806452,-1750 L159.62580645161293,-1750 L159.62580645161293,-1800 Z" fill="#f0f0f0" />
<path d="M167.4903225806452,-1800 L175.35483870967747,-1800 L175.35483870967747,-1750 L167.4903225806452,-1750 L167.4903225806452,-1800 Z" fill="black" />
<path d="M175.35483870967747,-1800 L183.21935483870973,-1800 L183.21935483870973,-1750 L175.35483870967747,-1750 L175.35483870967747,-1800 Z" fill="#f0f0f0" />
<path d="M183.21935483870973,-1800 L191.083870967742,-1800 L191.083870967742,-1750 L183.21935483870973,-1750 L183.21935483870973,-1800 Z" fill="black" />
<path d="M191.083870967742,-1800 L198.94838709677427,-1800 L198.94838709677427,-1750 L191.083870967742,-1750 L191.083870967742,-1800 Z" fill="#f0f0f0" />
<path d="M198.94838709677427,-1800 L206.81290322580654,-1800 L206.81290322580654,-1750 L198.94838709677427,-1750 L198.94838709677427,-1800 Z" fill="black" />
<path d="M206.81290322580654,-1800 L214.6774193548388,-1800 L214.6774193548388,-1750 L206.81290322580654,-1750 L206.81290322580654,-1800 Z" fill="#f0f0f0" />
<path d="M214.6774193548388,-1800 L222.54193548387107,-1800 L222.54193548387107,-1750 L214.6774193548388,-1750 L214.6774193548388,-1800 Z" fill="black" />
<path d="M222.54193548387107,-1800 L230.40645161290334,-1800 L230.40645161290334,-1750 L222.54193548387107,-1750 L222.54193548387107,-1800 Z" fill="#f0f0f0" />
<path d="M230.40645161290334,-1800 L238.2709677419356,-1800 L238.2709677419356,-1750 L230.40645161290334,-1750 L230.40645161290334,-1800 Z" fill="black" />
<path d="M238.2709677419356,-1800 L246.13548387096787,-1800 L246.13548387096787,-1750 L238.2709677419356,-1750 L238.2709677419356,-1800 Z" fill="#f0f0f0" />
<path d="M246.13548387096787,-1800 L254.00000000000014,-1800 L254.00000000000014,-1750 L246.13548387096787,-1750 L246.13548387096787,-1800 Z" fill="black" />
<text x="10.2" y="-1810" font-size="26" fill="black" dy="0em">CRISPR: III-D</text>
<text x="16.0" y="-1860" font-size="38" fill="black" dy="0em">III-D: JAMOVR010000050_4 (6869-8088)</text>
<path d="M10.2,-1600 L147.20000000000002,-1600 L147.20000000000002,-1550 L10.2,-1550 L10.2,-1600 Z" fill="white" stroke="white" stroke-width="4" />
<path d="M10.2,-1600 L16.72380952380952,-1600 L16.72380952380952,-1550 L10.2,-1550 L10.2,-1600 Z" fill="black" />
<path d="M16.72380952380952,-1600 L23.247619047619047,-1600 L23.247619047619047,-1550 L16.72380952380952,-1550 L16.72380952380952,-1600 Z" fill="#f0f0f0" />
<path d="M23.247619047619047,-1600 L29.771428571428572,-1600 L29.771428571428572,-1550 L23.247619047619047,-1550 L23.247619047619047,-1600 Z" fill="black" />
<path d="M29.771428571428572,-1600 L36.2952380952381,-1600 L36.2952380952381,-1550 L29.771428571428572,-1550 L29.771428571428572,-1600 Z" fill="#f0f0f0" />
<path d="M36.2952380952381,-1600 L42.81904761904762,-1600 L42.81904761904762,-1550 L36.2952380952381,-1550 L36.2952380952381,-1600 Z" fill="black" />
<path d="M42.81904761904762,-1600 L49.34285714285715,-1600 L49.34285714285715,-1550 L42.81904761904762,-1550 L42.81904761904762,-1600 Z" fill="#f0f0f0" />
<path d="M49.34285714285715,-1600 L55.866666666666674,-1600 L55.866666666666674,-1550 L49.34285714285715,-1550 L49.34285714285715,-1600 Z" fill="black" />
<path d="M55.866666666666674,-1600 L62.3904761904762,-1600 L62.3904761904762,-1550 L55.866666666666674,-1550 L55.866666666666674,-1600 Z" fill="#f0f0f0" />
<path d="M62.3904761904762,-1600 L68.91428571428573,-1600 L68.91428571428573,-1550 L62.3904761904762,-1550 L62.3904761904762,-1600 Z" fill="black" />
<path d="M68.91428571428573,-1600 L75.43809523809524,-1600 L75.43809523809524,-1550 L68.91428571428573,-1550 L68.91428571428573,-1600 Z" fill="#f0f0f0" />
<path d="M75.43809523809524,-1600 L81.96190476190476,-1600 L81.96190476190476,-1550 L75.43809523809524,-1550 L75.43809523809524,-1600 Z" fill="black" />
<path d="M81.96190476190476,-1600 L88.48571428571428,-1600 L88.48571428571428,-1550 L81.96190476190476,-1550 L81.96190476190476,-1600 Z" fill="#f0f0f0" />
<path d="M88.48571428571428,-1600 L95.0095238095238,-1600 L95.0095238095238,-1550 L88.48571428571428,-1550 L88.48571428571428,-1600 Z" fill="black" />
<path d="M95.0095238095238,-1600 L101.53333333333332,-1600 L101.53333333333332,-1550 L95.0095238095238,-1550 L95.0095238095238,-1600 Z" fill="#f0f0f0" />
<path d="M101.53333333333332,-1600 L108.05714285714284,-1600 L108.05714285714284,-1550 L101.53333333333332,-1550 L101.53333333333332,-1600 Z" fill="black" />
<path d="M108.05714285714284,-1600 L114.58095238095235,-1600 L114.58095238095235,-1550 L108.05714285714284,-1550 L108.05714285714284,-1600 Z" fill="#f0f0f0" />
<path d="M114.58095238095235,-1600 L121.10476190476187,-1600 L121.10476190476187,-1550 L114.58095238095235,-1550 L114.58095238095235,-1600 Z" fill="black" />
<path d="M121.10476190476187,-1600 L127.62857142857139,-1600 L127.62857142857139,-1550 L121.10476190476187,-1550 L121.10476190476187,-1600 Z" fill="#f0f0f0" />
<path d="M127.62857142857139,-1600 L134.15238095238092,-1600 L134.15238095238092,-1550 L127.62857142857139,-1550 L127.62857142857139,-1600 Z" fill="black" />
<path d="M134.15238095238092,-1600 L140.67619047619044,-1600 L140.67619047619044,-1550 L134.15238095238092,-1550 L134.15238095238092,-1600 Z" fill="#f0f0f0" />
<path d="M140.67619047619044,-1600 L147.19999999999996,-1600 L147.19999999999996,-1550 L140.67619047619044,-1550 L140.67619047619044,-1600 Z" fill="black" />
<text x="10.2" y="-1610" font-size="26" fill="black" dy="0em">CRISPR</text>
<text x="16.0" y="-1660" font-size="38" fill="black" dy="0em">Unknown: JAMOVR010000073_5 (2646-3331)</text>
<path d="M10.2,-1400 L205.8,-1400 L205.8,-1350 L10.2,-1350 L10.2,-1400 Z" fill="white" stroke="white" stroke-width="4" />
<path d="M10.2,-1400 L18.024,-1400 L18.024,-1350 L10.2,-1350 L10.2,-1400 Z" fill="black" />
<path d="M18.024,-1400 L25.848,-1400 L25.848,-1350 L18.024,-1350 L18.024,-1400 Z" fill="#f0f0f0" />
<path d="M25.848,-1400 L33.672,-1400 L33.672,-1350 L25.848,-1350 L25.848,-1400 Z" fill="black" />
<path d="M33.672,-1400 L41.495999999999995,-1400 L41.495999999999995,-1350 L33.672,-1350 L33.672,-1400 Z" fill="#f0f0f0" />
<path d="M41.495999999999995,-1400 L49.31999999999999,-1400 L49.31999999999999,-1350 L41.495999999999995,-1350 L41.495999999999995,-1400 Z" fill="black" />
<path d="M49.31999999999999,-1400 L57.14399999999999,-1400 L57.14399999999999,-1350 L49.31999999999999,-1350 L49.31999999999999,-1400 Z" fill="#f0f0f0" />
<path d="M57.14399999999999,-1400 L64.96799999999999,-1400 L64.96799999999999,-1350 L57.14399999999999,-1350 L57.14399999999999,-1400 Z" fill="black" />
<path d="M64.96799999999999,-1400 L72.79199999999999,-1400 L72.79199999999999,-1350 L64.96799999999999,-1350 L64.96799999999999,-1400 Z" fill="#f0f0f0" />
<path d="M72.79199999999999,-1400 L80.61599999999999,-1400 L80.61599999999999,-1350 L72.79199999999999,-1350 L72.79199999999999,-1400 Z" fill="black" />
<path d="M80.61599999999999,-1400 L88.43999999999998,-1400 L88.43999999999998,-1350 L80.61599999999999,-1350 L80.61599999999999,-1400 Z" fill="#f0f0f0" />
<path d="M88.43999999999998,-1400 L96.26399999999998,-1400 L96.26399999999998,-1350 L88.43999999999998,-1350 L88.43999999999998,-1400 Z" fill="black" />
<path d="M96.26399999999998,-1400 L104.08799999999998,-1400 L104.08799999999998,-1350 L96.26399999999998,-1350 L96.26399999999998,-1400 Z" fill="#f0f0f0" />
<path d="M104.08799999999998,-1400 L111.91199999999998,-1400 L111.91199999999998,-1350 L104.08799999999998,-1350 L104.08799999999998,-1400 Z" fill="black" />
<path d="M111.91199999999998,-1400 L119.73599999999998,-1400 L119.73599999999998,-1350 L111.91199999999998,-1350 L111.91199999999998,-1400 Z" fill="#f0f0f0" />
<path d="M119.73599999999998,-1400 L127.55999999999997,-1400 L127.55999999999997,-1350 L119.73599999999998,-1350 L119.73599999999998,-1400 Z" fill="black" />
<path d="M127.55999999999997,-1400 L135.384,-1400 L135.384,-1350 L127.55999999999997,-1350 L127.55999999999997,-1400 Z" fill="#f0f0f0" />
<path d="M135.384,-1400 L143.208,-1400 L143.208,-1350 L135.384,-1350 L135.384,-1400 Z" fill="black" />
<path d="M143.208,-1400 L151.032,-1400 L151.032,-1350 L143.208,-1350 L143.208,-1400 Z" fill="#f0f0f0" />
<path d="M151.032,-1400 L158.85600000000002,-1400 L158.85600000000002,-1350 L151.032,-1350 L151.032,-1400 Z" fill="black" />
<path d="M158.85600000000002,-1400 L166.68000000000004,-1400 L166.68000000000004,-1350 L158.85600000000002,-1350 L158.85600000000002,-1400 Z" fill="#f0f0f0" />
<path d="M166.68000000000004,-1400 L174.50400000000005,-1400 L174.50400000000005,-1350 L166.68000000000004,-1350 L166.68000000000004,-1400 Z" fill="black" />
<path d="M174.50400000000005,-1400 L182.32800000000006,-1400 L182.32800000000006,-1350 L174.50400000000005,-1350 L174.50400000000005,-1400 Z" fill="#f0f0f0" />
<path d="M182.32800000000006,-1400 L190.15200000000007,-1400 L190.15200000000007,-1350 L182.32800000000006,-1350 L182.32800000000006,-1400 Z" fill="black" />
<path d="M190.15200000000007,-1400 L197.97600000000008,-1400 L197.97600000000008,-1350 L190.15200000000007,-1350 L190.15200000000007,-1400 Z" fill="#f0f0f0" />
<path d="M197.97600000000008,-1400 L205.8000000000001,-1400 L205.8000000000001,-1350 L197.97600000000008,-1350 L197.97600000000008,-1400 Z" fill="black" />
<text x="10.2" y="-1410" font-size="26" fill="black" dy="0em">CRISPR</text>
<text x="16.0" y="-1460" font-size="38" fill="black" dy="0em">Unknown: JAMOVR010000080_6 (8604-9582)</text>
<path d="M10.2,-1200 L175.60000000000002,-1200 L175.60000000000002,-1150 L10.2,-1150 L10.2,-1200 Z" fill="white" stroke="white" stroke-width="4" />
<path d="M10.2,-1200 L16.816,-1200 L16.816,-1150 L10.2,-1150 L10.2,-1200 Z" fill="black" />
<path d="M16.816,-1200 L23.432,-1200 L23.432,-1150 L16.816,-1150 L16.816,-1200 Z" fill="#f0f0f0" />
<path d="M23.432,-1200 L30.048,-1200 L30.048,-1150 L23.432,-1150 L23.432,-1200 Z" fill="black" />
<path d="M30.048,-1200 L36.664,-1200 L36.664,-1150 L30.048,-1150 L30.048,-1200 Z" fill="#f0f0f0" />
<path d="M36.664,-1200 L43.28,-1200 L43.28,-1150 L36.664,-1150 L36.664,-1200 Z" fill="black" />
<path d="M43.28,-1200 L49.896,-1200 L49.896,-1150 L43.28,-1150 L43.28,-1200 Z" fill="#f0f0f0" />
<path d="M49.896,-1200 L56.512,-1200 L56.512,-1150 L49.896,-1150 L49.896,-1200 Z" fill="black" />
<path d="M56.512,-1200 L63.128,-1200 L63.128,-1150 L56.512,-1150 L56.512,-1200 Z" fill="#f0f0f0" />
<path d="M63.128,-1200 L69.744,-1200 L69.744,-1150 L63.128,-1150 L63.128,-1200 Z" fill="black" />
<path d="M69.744,-1200 L76.36,-1200 L76.36,-1150 L69.744,-1150 L69.744,-1200 Z" fill="#f0f0f0" />
<path d="M76.36,-1200 L82.976,-1200 L82.976,-1150 L76.36,-1150 L76.36,-1200 Z" fill="black" />
<path d="M82.976,-1200 L89.592,-1200 L89.592,-1150 L82.976,-1150 L82.976,-1200 Z" fill="#f0f0f0" />
<path d="M89.592,-1200 L96.208,-1200 L96.208,-1150 L89.592,-1150 L89.592,-1200 Z" fill="black" />
<path d="M96.208,-1200 L102.824,-1200 L102.824,-1150 L96.208,-1150 L96.208,-1200 Z" fill="#f0f0f0" />
<path d="M102.824,-1200 L109.44,-1200 L109.44,-1150 L102.824,-1150 L102.824,-1200 Z" fill="black" />
<path d="M109.44,-1200 L116.056,-1200 L116.056,-1150 L109.44,-1150 L109.44,-1200 Z" fill="#f0f0f0" />
<path d="M116.056,-1200 L122.672,-1200 L122.672,-1150 L116.056,-1150 L116.056,-1200 Z" fill="black" />
<path d="M122.672,-1200 L129.288,-1200 L129.288,-1150 L122.672,-1150 L122.672,-1200 Z" fill="#f0f0f0" />
<path d="M129.288,-1200 L135.90400000000002,-1200 L135.90400000000002,-1150 L129.288,-1150 L129.288,-1200 Z" fill="black" />
<path d="M135.90400000000002,-1200 L142.52000000000004,-1200 L142.52000000000004,-1150 L135.90400000000002,-1150 L135.90400000000002,-1200 Z" fill="#f0f0f0" />
<path d="M142.52000000000004,-1200 L149.13600000000005,-1200 L149.13600000000005,-1150 L142.52000000000004,-1150 L142.52000000000004,-1200 Z" fill="black" />
<path d="M149.13600000000005,-1200 L155.75200000000007,-1200 L155.75200000000007,-1150 L149.13600000000005,-1150 L149.13600000000005,-1200 Z" fill="#f0f0f0" />
<path d="M155.75200000000007,-1200 L162.36800000000008,-1200 L162.36800000000008,-1150 L155.75200000000007,-1150 L155.75200000000007,-1200 Z" fill="black" />
<path d="M162.36800000000008,-1200 L168.9840000000001,-1200 L168.9840000000001,-1150 L162.36800000000008,-1150 L162.36800000000008,-1200 Z" fill="#f0f0f0" />
<path d="M168.9840000000001,-1200 L175.6000000000001,-1200 L175.6000000000001,-1150 L168.9840000000001,-1150 L168.9840000000001,-1200 Z" fill="black" />
<text x="10.2" y="-1210" font-size="26" fill="black" dy="0em">CRISPR</text>
<text x="16.0" y="-1260" font-size="38" fill="black" dy="0em">Unknown: JAMOVR010000090_7 (2323-3150)</text>
<path d="M10.2,-1000 L128.8,-1000 L128.8,-950 L10.2,-950 L10.2,-1000 Z" fill="white" stroke="white" stroke-width="4" />
<path d="M10.2,-1000 L18.106666666666666,-1000 L18.106666666666666,-950 L10.2,-950 L10.2,-1000 Z" fill="black" />
<path d="M18.106666666666666,-1000 L26.013333333333332,-1000 L26.013333333333332,-950 L18.106666666666666,-950 L18.106666666666666,-1000 Z" fill="#f0f0f0" />
<path d="M26.013333333333332,-1000 L33.92,-1000 L33.92,-950 L26.013333333333332,-950 L26.013333333333332,-1000 Z" fill="black" />
<path d="M33.92,-1000 L41.82666666666667,-1000 L41.82666666666667,-950 L33.92,-950 L33.92,-1000 Z" fill="#f0f0f0" />
<path d="M41.82666666666667,-1000 L49.733333333333334,-1000 L49.733333333333334,-950 L41.82666666666667,-950 L41.82666666666667,-1000 Z" fill="black" />
<path d="M49.733333333333334,-1000 L57.64,-1000 L57.64,-950 L49.733333333333334,-950 L49.733333333333334,-1000 Z" fill="#f0f0f0" />
<path d="M57.64,-1000 L65.54666666666667,-1000 L65.54666666666667,-950 L57.64,-950 L57.64,-1000 Z" fill="black" />
<path d="M65.54666666666667,-1000 L73.45333333333333,-1000 L73.45333333333333,-950 L65.54666666666667,-950 L65.54666666666667,-1000 Z" fill="#f0f0f0" />
<path d="M73.45333333333333,-1000 L81.36,-1000 L81.36,-950 L73.45333333333333,-950 L73.45333333333333,-1000 Z" fill="black" />
<path d="M81.36,-1000 L89.26666666666667,-1000 L89.26666666666667,-950 L81.36,-950 L81.36,-1000 Z" fill="#f0f0f0" />
<path d="M89.26666666666667,-1000 L97.17333333333333,-1000 L97.17333333333333,-950 L89.26666666666667,-950 L89.26666666666667,-1000 Z" fill="black" />
<path d="M97.17333333333333,-1000 L105.08,-1000 L105.08,-950 L97.17333333333333,-950 L97.17333333333333,-1000 Z" fill="#f0f0f0" />
<path d="M105.08,-1000 L112.98666666666666,-1000 L112.98666666666666,-950 L105.08,-950 L105.08,-1000 Z" fill="black" />
<path d="M112.98666666666666,-1000 L120.89333333333333,-1000 L120.89333333333333,-950 L112.98666666666666,-950 L112.98666666666666,-1000 Z" fill="#f0f0f0" />
<path d="M120.89333333333333,-1000 L128.8,-1000 L128.8,-950 L120.89333333333333,-950 L120.89333333333333,-1000 Z" fill="black" />
<text x="10.2" y="-1010" font-size="26" fill="black" dy="0em">CRISPR</text>
<text x="16.0" y="-1060" font-size="38" fill="black" dy="0em">Unknown: JAMOVR010000140_8 (64-657)</text>
<path d="M10.2,-800 L95.60000000000001,-800 L95.60000000000001,-750 L10.2,-750 L10.2,-800 Z" fill="white" stroke="white" stroke-width="4" />
<path d="M10.2,-800 L17.963636363636365,-800 L17.963636363636365,-750 L10.2,-750 L10.2,-800 Z" fill="black" />
<path d="M17.963636363636365,-800 L25.72727272727273,-800 L25.72727272727273,-750 L17.963636363636365,-750 L17.963636363636365,-800 Z" fill="#f0f0f0" />
<path d="M25.72727272727273,-800 L33.49090909090909,-800 L33.49090909090909,-750 L25.72727272727273,-750 L25.72727272727273,-800 Z" fill="black" />
<path d="M33.49090909090909,-800 L41.25454545454546,-800 L41.25454545454546,-750 L33.49090909090909,-750 L33.49090909090909,-800 Z" fill="#f0f0f0" />
<path d="M41.25454545454546,-800 L49.01818181818182,-800 L49.01818181818182,-750 L41.25454545454546,-750 L41.25454545454546,-800 Z" fill="black" />
<path d="M49.01818181818182,-800 L56.78181818181819,-800 L56.78181818181819,-750 L49.01818181818182,-750 L49.01818181818182,-800 Z" fill="#f0f0f0" />
<path d="M56.78181818181819,-800 L64.54545454545455,-800 L64.54545454545455,-750 L56.78181818181819,-750 L56.78181818181819,-800 Z" fill="black" />
<path d="M64.54545454545455,-800 L72.30909090909091,-800 L72.30909090909091,-750 L64.54545454545455,-750 L64.54545454545455,-800 Z" fill="#f0f0f0" />
<path d="M72.30909090909091,-800 L80.07272727272728,-800 L80.07272727272728,-750 L72.30909090909091,-750 L72.30909090909091,-800 Z" fill="black" />
<path d="M80.07272727272728,-800 L87.83636363636364,-800 L87.83636363636364,-750 L80.07272727272728,-750 L80.07272727272728,-800 Z" fill="#f0f0f0" />
<path d="M87.83636363636364,-800 L95.60000000000001,-800 L95.60000000000001,-750 L87.83636363636364,-750 L87.83636363636364,-800 Z" fill="black" />
<text x="10.2" y="-810" font-size="26" fill="black" dy="0em">CRISPR</text>
<text x="16.0" y="-860" font-size="38" fill="black" dy="0em">Unknown: JAMOVR010000184_9 (1720-2147)</text>
<path d="M10.2,-600 L254.4,-600 L254.4,-550 L10.2,-550 L10.2,-600 Z" fill="white" stroke="white" stroke-width="4" />
<path d="M10.2,-600 L16.799999999999997,-600 L16.799999999999997,-550 L10.2,-550 L10.2,-600 Z" fill="black" />
<path d="M16.799999999999997,-600 L23.4,-600 L23.4,-550 L16.799999999999997,-550 L16.799999999999997,-600 Z" fill="#f0f0f0" />
<path d="M23.4,-600 L30.0,-600 L30.0,-550 L23.4,-550 L23.4,-600 Z" fill="black" />
<path d="M30.0,-600 L36.6,-600 L36.6,-550 L30.0,-550 L30.0,-600 Z" fill="#f0f0f0" />
<path d="M36.6,-600 L43.2,-600 L43.2,-550 L36.6,-550 L36.6,-600 Z" fill="black" />
<path d="M43.2,-600 L49.800000000000004,-600 L49.800000000000004,-550 L43.2,-550 L43.2,-600 Z" fill="#f0f0f0" />
<path d="M49.800000000000004,-600 L56.400000000000006,-600 L56.400000000000006,-550 L49.800000000000004,-550 L49.800000000000004,-600 Z" fill="black" />
<path d="M56.400000000000006,-600 L63.00000000000001,-600 L63.00000000000001,-550 L56.400000000000006,-550 L56.400000000000006,-600 Z" fill="#f0f0f0" />
<path d="M63.00000000000001,-600 L69.60000000000001,-600 L69.60000000000001,-550 L63.00000000000001,-550 L63.00000000000001,-600 Z" fill="black" />
<path d="M69.60000000000001,-600 L76.2,-600 L76.2,-550 L69.60000000000001,-550 L69.60000000000001,-600 Z" fill="#f0f0f0" />
<path d="M76.2,-600 L82.8,-600 L82.8,-550 L76.2,-550 L76.2,-600 Z" fill="black" />
<path d="M82.8,-600 L89.39999999999999,-600 L89.39999999999999,-550 L82.8,-550 L82.8,-600 Z" fill="#f0f0f0" />
<path d="M89.39999999999999,-600 L95.99999999999999,-600 L95.99999999999999,-550 L89.39999999999999,-550 L89.39999999999999,-600 Z" fill="black" />
<path d="M95.99999999999999,-600 L102.59999999999998,-600 L102.59999999999998,-550 L95.99999999999999,-550 L95.99999999999999,-600 Z" fill="#f0f0f0" />
<path d="M102.59999999999998,-600 L109.19999999999997,-600 L109.19999999999997,-550 L102.59999999999998,-550 L102.59999999999998,-600 Z" fill="black" />
<path d="M109.19999999999997,-600 L115.79999999999997,-600 L115.79999999999997,-550 L109.19999999999997,-550 L109.19999999999997,-600 Z" fill="#f0f0f0" />
<path d="M115.79999999999997,-600 L122.39999999999996,-600 L122.39999999999996,-550 L115.79999999999997,-550 L115.79999999999997,-600 Z" fill="black" />
<path d="M122.39999999999996,-600 L128.99999999999997,-600 L128.99999999999997,-550 L122.39999999999996,-550 L122.39999999999996,-600 Z" fill="#f0f0f0" />
<path d="M128.99999999999997,-600 L135.59999999999997,-600 L135.59999999999997,-550 L128.99999999999997,-550 L128.99999999999997,-600 Z" fill="black" />
<path d="M135.59999999999997,-600 L142.19999999999996,-600 L142.19999999999996,-550 L135.59999999999997,-550 L135.59999999999997,-600 Z" fill="#f0f0f0" />
<path d="M142.19999999999996,-600 L148.79999999999995,-600 L148.79999999999995,-550 L142.19999999999996,-550 L142.19999999999996,-600 Z" fill="black" />
<path d="M148.79999999999995,-600 L155.39999999999995,-600 L155.39999999999995,-550 L148.79999999999995,-550 L148.79999999999995,-600 Z" fill="#f0f0f0" />
<path d="M155.39999999999995,-600 L161.99999999999994,-600 L161.99999999999994,-550 L155.39999999999995,-550 L155.39999999999995,-600 Z" fill="black" />
<path d="M161.99999999999994,-600 L168.59999999999994,-600 L168.59999999999994,-550 L161.99999999999994,-550 L161.99999999999994,-600 Z" fill="#f0f0f0" />
<path d="M168.59999999999994,-600 L175.19999999999993,-600 L175.19999999999993,-550 L168.59999999999994,-550 L168.59999999999994,-600 Z" fill="black" />
<path d="M175.19999999999993,-600 L181.79999999999993,-600 L181.79999999999993,-550 L175.19999999999993,-550 L175.19999999999993,-600 Z" fill="#f0f0f0" />
<path d="M181.79999999999993,-600 L188.39999999999992,-600 L188.39999999999992,-550 L181.79999999999993,-550 L181.79999999999993,-600 Z" fill="black" />
<path d="M188.39999999999992,-600 L194.99999999999991,-600 L194.99999999999991,-550 L188.39999999999992,-550 L188.39999999999992,-600 Z" fill="#f0f0f0" />
<path d="M194.99999999999991,-600 L201.5999999999999,-600 L201.5999999999999,-550 L194.99999999999991,-550 L194.99999999999991,-600 Z" fill="black" />
<path d="M201.5999999999999,-600 L208.1999999999999,-600 L208.1999999999999,-550 L201.5999999999999,-550 L201.5999999999999,-600 Z" fill="#f0f0f0" />
<path d="M208.1999999999999,-600 L214.7999999999999,-600 L214.7999999999999,-550 L208.1999999999999,-550 L208.1999999999999,-600 Z" fill="black" />
<path d="M214.7999999999999,-600 L221.3999999999999,-600 L221.3999999999999,-550 L214.7999999999999,-550 L214.7999999999999,-600 Z" fill="#f0f0f0" />
<path d="M221.3999999999999,-600 L227.9999999999999,-600 L227.9999999999999,-550 L221.3999999999999,-550 L221.3999999999999,-600 Z" fill="black" />
<path d="M227.9999999999999,-600 L234.59999999999988,-600 L234.59999999999988,-550 L227.9999999999999,-550 L227.9999999999999,-600 Z" fill="#f0f0f0" />
<path d="M234.59999999999988,-600 L241.19999999999987,-600 L241.19999999999987,-550 L234.59999999999988,-550 L234.59999999999988,-600 Z" fill="black" />
<path d="M241.19999999999987,-600 L247.79999999999987,-600 L247.79999999999987,-550 L241.19999999999987,-550 L241.19999999999987,-600 Z" fill="#f0f0f0" />
<path d="M247.79999999999987,-600 L254.39999999999986,-600 L254.39999999999986,-550 L247.79999999999987,-550 L247.79999999999987,-600 Z" fill="black" />
<text x="10.2" y="-610" font-size="26" fill="black" dy="0em">CRISPR</text>
<text x="16.0" y="-660" font-size="38" fill="black" dy="0em">Unknown: JAMOVR010000273_10 (2184-3405)</text>
<path d="M10.2,-400 L167.60000000000002,-400 L167.60000000000002,-350 L10.2,-350 L10.2,-400 Z" fill="white" stroke="white" stroke-width="4" />
<path d="M10.2,-400 L17.043478260869563,-400 L17.043478260869563,-350 L10.2,-350 L10.2,-400 Z" fill="black" />
<path d="M17.043478260869563,-400 L23.88695652173913,-400 L23.88695652173913,-350 L17.043478260869563,-350 L17.043478260869563,-400 Z" fill="#f0f0f0" />
<path d="M23.88695652173913,-400 L30.730434782608697,-400 L30.730434782608697,-350 L23.88695652173913,-350 L23.88695652173913,-400 Z" fill="black" />
<path d="M30.730434782608697,-400 L37.573913043478264,-400 L37.573913043478264,-350 L30.730434782608697,-350 L30.730434782608697,-400 Z" fill="#f0f0f0" />
<path d="M37.573913043478264,-400 L44.41739130434783,-400 L44.41739130434783,-350 L37.573913043478264,-350 L37.573913043478264,-400 Z" fill="black" />
<path d="M44.41739130434783,-400 L51.2608695652174,-400 L51.2608695652174,-350 L44.41739130434783,-350 L44.41739130434783,-400 Z" fill="#f0f0f0" />
<path d="M51.2608695652174,-400 L58.104347826086965,-400 L58.104347826086965,-350 L51.2608695652174,-350 L51.2608695652174,-400 Z" fill="black" />
<path d="M58.104347826086965,-400 L64.94782608695652,-400 L64.94782608695652,-350 L58.104347826086965,-350 L58.104347826086965,-400 Z" fill="#f0f0f0" />
<path d="M64.94782608695652,-400 L71.79130434782608,-400 L71.79130434782608,-350 L64.94782608695652,-350 L64.94782608695652,-400 Z" fill="black" />
<path d="M71.79130434782608,-400 L78.63478260869564,-400 L78.63478260869564,-350 L71.79130434782608,-350 L71.79130434782608,-400 Z" fill="#f0f0f0" />
<path d="M78.63478260869564,-400 L85.4782608695652,-400 L85.4782608695652,-350 L78.63478260869564,-350 L78.63478260869564,-400 Z" fill="black" />
<path d="M85.4782608695652,-400 L92.32173913043476,-400 L92.32173913043476,-350 L85.4782608695652,-350 L85.4782608695652,-400 Z" fill="#f0f0f0" />
<path d="M92.32173913043476,-400 L99.16521739130432,-400 L99.16521739130432,-350 L92.32173913043476,-350 L92.32173913043476,-400 Z" fill="black" />
<path d="M99.16521739130432,-400 L106.00869565217388,-400 L106.00869565217388,-350 L99.16521739130432,-350 L99.16521739130432,-400 Z" fill="#f0f0f0" />
<path d="M106.00869565217388,-400 L112.85217391304344,-400 L112.85217391304344,-350 L106.00869565217388,-350 L106.00869565217388,-400 Z" fill="black" />
<path d="M112.85217391304344,-400 L119.695652173913,-400 L119.695652173913,-350 L112.85217391304344,-350 L112.85217391304344,-400 Z" fill="#f0f0f0" />
<path d="M119.695652173913,-400 L126.53913043478256,-400 L126.53913043478256,-350 L119.695652173913,-350 L119.695652173913,-400 Z" fill="black" />
<path d="M126.53913043478256,-400 L133.38260869565212,-400 L133.38260869565212,-350 L126.53913043478256,-350 L126.53913043478256,-400 Z" fill="#f0f0f0" />
<path d="M133.38260869565212,-400 L140.2260869565217,-400 L140.2260869565217,-350 L133.38260869565212,-350 L133.38260869565212,-400 Z" fill="black" />
<path d="M140.2260869565217,-400 L147.06956521739127,-400 L147.06956521739127,-350 L140.2260869565217,-350 L140.2260869565217,-400 Z" fill="#f0f0f0" />
<path d="M147.06956521739127,-400 L153.91304347826085,-400 L153.91304347826085,-350 L147.06956521739127,-350 L147.06956521739127,-400 Z" fill="black" />
<path d="M153.91304347826085,-400 L160.75652173913042,-400 L160.75652173913042,-350 L153.91304347826085,-350 L153.91304347826085,-400 Z" fill="#f0f0f0" />
<path d="M160.75652173913042,-400 L167.6,-400 L167.6,-350 L160.75652173913042,-350 L160.75652173913042,-400 Z" fill="black" />
<text x="10.2" y="-410" font-size="26" fill="black" dy="0em">CRISPR</text>
<text x="16.0" y="-460" font-size="38" fill="black" dy="0em">Unknown: JAMOVR010000287_11 (30-817)</text>
<path d="M10.2,-200 L108.60000000000001,-200 L108.60000000000001,-150 L10.2,-150 L10.2,-200 Z" fill="white" stroke="white" stroke-width="4" />
<path d="M10.2,-200 L16.759999999999998,-200 L16.759999999999998,-150 L10.2,-150 L10.2,-200 Z" fill="black" />
<path d="M16.759999999999998,-200 L23.32,-200 L23.32,-150 L16.759999999999998,-150 L16.759999999999998,-200 Z" fill="#f0f0f0" />
<path d="M23.32,-200 L29.880000000000003,-200 L29.880000000000003,-150 L23.32,-150 L23.32,-200 Z" fill="black" />
<path d="M29.880000000000003,-200 L36.440000000000005,-200 L36.440000000000005,-150 L29.880000000000003,-150 L29.880000000000003,-200 Z" fill="#f0f0f0" />
<path d="M36.440000000000005,-200 L43.00000000000001,-200 L43.00000000000001,-150 L36.440000000000005,-150 L36.440000000000005,-200 Z" fill="black" />
<path d="M43.00000000000001,-200 L49.56000000000001,-200 L49.56000000000001,-150 L43.00000000000001,-150 L43.00000000000001,-200 Z" fill="#f0f0f0" />
<path d="M49.56000000000001,-200 L56.12000000000001,-200 L56.12000000000001,-150 L49.56000000000001,-150 L49.56000000000001,-200 Z" fill="black" />
<path d="M56.12000000000001,-200 L62.680000000000014,-200 L62.680000000000014,-150 L56.12000000000001,-150 L56.12000000000001,-200 Z" fill="#f0f0f0" />
<path d="M62.680000000000014,-200 L69.24000000000001,-200 L69.24000000000001,-150 L62.680000000000014,-150 L62.680000000000014,-200 Z" fill="black" />
<path d="M69.24000000000001,-200 L75.80000000000001,-200 L75.80000000000001,-150 L69.24000000000001,-150 L69.24000000000001,-200 Z" fill="#f0f0f0" />
<path d="M75.80000000000001,-200 L82.36000000000001,-200 L82.36000000000001,-150 L75.80000000000001,-150 L75.80000000000001,-200 Z" fill="black" />
<path d="M82.36000000000001,-200 L88.92000000000002,-200 L88.92000000000002,-150 L82.36000000000001,-150 L82.36000000000001,-200 Z" fill="#f0f0f0" />
<path d="M88.92000000000002,-200 L95.48000000000002,-200 L95.48000000000002,-150 L88.92000000000002,-150 L88.92000000000002,-200 Z" fill="black" />
<path d="M95.48000000000002,-200 L102.04000000000002,-200 L102.04000000000002,-150 L95.48000000000002,-150 L95.48000000000002,-200 Z" fill="#f0f0f0" />
<path d="M102.04000000000002,-200 L108.60000000000002,-200 L108.60000000000002,-150 L102.04000000000002,-150 L102.04000000000002,-200 Z" fill="black" />
<text x="10.2" y="-210" font-size="26" fill="black" dy="0em">CRISPR</text>
<text x="16.0" y="-260" font-size="38" fill="black" dy="0em">Unknown: JAMOVR010000296_12 (25896-26388)</text>
</svg>