<?xml version="1.0" encoding="UTF-8"?>
<svg xmlns="http://www.w3.org/2000/svg" xmlns:xlink="http://www.w3.org/1999/xlink"
     width="128" height="400" viewBox="0 -400 128 400">
<defs>
</defs>
<path d="M10.2,-200 L38.6,-200 L38.6,-150 L10.2,-150 L10.2,-200 Z" fill="white" stroke="white" stroke-width="4" />
<path d="M10.2,-200 L15.879999999999999,-200 L15.879999999999999,-150 L10.2,-150 L10.2,-200 Z" fill="black" />
<path d="M15.879999999999999,-200 L21.56,-200 L21.56,-150 L15.879999999999999,-150 L15.879999999999999,-200 Z" fill="#f0f0f0" />
<path d="M21.56,-200 L27.24,-200 L27.24,-150 L21.56,-150 L21.56,-200 Z" fill="black" />
<path d="M27.24,-200 L32.92,-200 L32.92,-150 L27.24,-150 L27.24,-200 Z" fill="#f0f0f0" />
<path d="M32.92,-200 L38.6,-200 L38.6,-150 L32.92,-150 L32.92,-200 Z" fill="black" />
<text x="10.2" y="-210" font-size="26" fill="black" dy="0em">CRISPR</text>
<text x="16.0" y="-260" font-size="38" fill="black" dy="0em">Unknown: JAHWIN010000085_1 (2615-2757)</text>
</svg>