<?xml version="1.0" encoding="UTF-8"?>
<svg xmlns="http://www.w3.org/2000/svg" xmlns:xlink="http://www.w3.org/1999/xlink"
     width="3437" height="2400" viewBox="0 -2400 3437 2400">
<defs>
</defs>
<path d="M210,-20 L210,-2320" stroke="grey" stroke-width="1" fill="none" />
<text x="160" y="-2330" font-size="22" fill="grey" dy="0em">1000</text>
<path d="M410,-20 L410,-2320" stroke="grey" stroke-width="1" fill="none" />
<text x="360" y="-2330" font-size="22" fill="grey" dy="0em">2000</text>
<path d="M610,-20 L610,-2320" stroke="grey" stroke-width="1" fill="none" />
<text x="560" y="-2330" font-size="22" fill="grey" dy="0em">3000</text>
<path d="M810,-20 L810,-2320" stroke="grey" stroke-width="1" fill="none" />
<text x="760" y="-2330" font-size="22" fill="grey" dy="0em">4000</text>
<path d="M1010,-20 L1010,-2320" stroke="grey" stroke-width="1" fill="none" />
<text x="960" y="-2330" font-size="22" fill="grey" dy="0em">5000</text>
<path d="M1210,-20 L1210,-2320" stroke="grey" stroke-width="1" fill="none" />
<text x="1160" y="-2330" font-size="22" fill="grey" dy="0em">6000</text>
<path d="M1410,-20 L1410,-2320" stroke="grey" stroke-width="1" fill="none" />
<text x="1360" y="-2330" font-size="22" fill="grey" dy="0em">7000</text>
<path d="M1610,-20 L1610,-2320" stroke="grey" stroke-width="1" fill="none" />
<text x="1560" y="-2330" font-size="22" fill="grey" dy="0em">8000</text>
<path d="M1810,-20 L1810,-2320" stroke="grey" stroke-width="1" fill="none" />
<text x="1760" y="-2330" font-size="22" fill="grey" dy="0em">9000</text>
<path d="M2010,-20 L2010,-2320" stroke="grey" stroke-width="1" fill="none" />
<text x="1960" y="-2330" font-size="22" fill="grey" dy="0em">10000</text>
<path d="M2210,-20 L2210,-2320" stroke="grey" stroke-width="1" fill="none" />
<text x="2160" y="-2330" font-size="22" fill="grey" dy="0em">11000</text>
<path d="M2410,-20 L2410,-2320" stroke="grey" stroke-width="1" fill="none" />
<text x="2360" y="-2330" font-size="22" fill="grey" dy="0em">12000</text>
<path d="M2610,-20 L2610,-2320" stroke="grey" stroke-width="1" fill="none" />
<text x="2560" y="-2330" font-size="22" fill="grey" dy="0em">13000</text>
<path d="M2810,-20 L2810,-2320" stroke="grey" stroke-width="1" fill="none" />
<text x="2760" y="-2330" font-size="22" fill="grey" dy="0em">14000</text>
<path d="M3010,-20 L3010,-2320" stroke="grey" stroke-width="1" fill="none" />
<text x="2960" y="-2330" font-size="22" fill="grey" dy="0em">15000</text>
<path d="M3210,-20 L3210,-2320" stroke="grey" stroke-width="1" fill="none" />
<text x="3160" y="-2330" font-size="22" fill="grey" dy="0em">16000</text>
<path d="M3410,-20 L3410,-2320" stroke="grey" stroke-width="1" fill="none" />
<text x="3360" y="-2330" font-size="22" fill="grey" dy="0em">17000</text>
<text x="16.0" y="-2260" font-size="38" fill="black" dy="0em">I-B: JAVYTI010000027@1 (68-16755)</text>
<path d="M61.6,-2200 L72.80000000000001,-2200 L72.80000000000001,-2150 L61.6,-2150 L31.6,-2175.0 L61.6,-2200 Z" fill="#d3c9c1" fill-opacity="0.8" stroke="#d3c9c1" stroke-width="4" />
<text x="31.6" y="-2210" font-size="20" fill="black" dy="0em">1</text>
<path d="M231.20000000000002,-2200 L525.0,-2200 L525.0,-2150 L231.20000000000002,-2150 L201.20000000000002,-2175.0 L231.20000000000002,-2200 Z" fill="#efc050" fill-opacity="0.8" stroke="#efc050" stroke-width="4" />
<text x="201.20000000000002" y="-2120" font-size="26" fill="black" dy="0em">Cas3</text>
<path d="M554.4,-2200 L691.0,-2200 L691.0,-2150 L554.4,-2150 L524.4,-2175.0 L554.4,-2200 Z" fill="#d3c9c1" fill-opacity="0.8" stroke="#d3c9c1" stroke-width="4" />
<text x="524.4" y="-2210" font-size="20" fill="black" dy="0em">3</text>
<path d="M723.6,-2200 L892.0,-2200 L892.0,-2150 L723.6,-2150 L693.6,-2175.0 L723.6,-2200 Z" fill="#d3c9c1" fill-opacity="0.8" stroke="#d3c9c1" stroke-width="4" />
<text x="693.6" y="-2120" font-size="20" fill="black" dy="0em">4</text>
<path d="M924.8000000000001,-2200 L1128.0,-2200 L1128.0,-2150 L924.8000000000001,-2150 L894.8000000000001,-2175.0 L924.8000000000001,-2200 Z" fill="#efc050" fill-opacity="0.8" stroke="#efc050" stroke-width="4" />
<text x="894.8000000000001" y="-2210" font-size="26" fill="black" dy="0em">Cas7</text>
<path d="M1160.8,-2200 L1455.2,-2200 L1455.2,-2150 L1160.8,-2150 L1130.8,-2175.0 L1160.8,-2200 Z" fill="#d3c9c1" fill-opacity="0.8" stroke="#d3c9c1" stroke-width="4" />
<text x="1130.8" y="-2120" font-size="20" fill="black" dy="0em">6</text>
<path d="M1707.6000000000001,-2200 L1865.8000000000002,-2200 L1865.8000000000002,-2150 L1707.6000000000001,-2150 L1677.6000000000001,-2175.0 L1707.6000000000001,-2200 Z" fill="#d3c9c1" fill-opacity="0.8" stroke="#d3c9c1" stroke-width="4" />
<text x="1677.6000000000001" y="-2210" font-size="20" fill="black" dy="0em">7</text>
<path d="M1885.8000000000002,-2200 L1934.8000000000002,-2200 L1964.8000000000002,-2175.0 L1934.8000000000002,-2150 L1885.8000000000002,-2150 L1885.8000000000002,-2200 Z" fill="#d3c9c1" fill-opacity="0.8" stroke="#d3c9c1" stroke-width="4" />
<text x="1885.8000000000002" y="-2120" font-size="20" fill="black" dy="0em">8</text>
<path d="M1980.0,-2200 L2090.2000000000003,-2200 L2090.2000000000003,-2150 L1980.0,-2150 L1950.0,-2175.0 L1980.0,-2200 Z" fill="#ff80e6" fill-opacity="0.8" stroke="#ff80e6" stroke-width="4" />
<text x="1950.0" y="-2210" font-size="26" fill="black" dy="0em">AbiEii</text>
<path d="M2120.8,-2200 L2604.2000000000003,-2200 L2604.2000000000003,-2150 L2120.8,-2150 L2090.8,-2175.0 L2120.8,-2200 Z" fill="#d3c9c1" fill-opacity="0.8" stroke="#d3c9c1" stroke-width="4" />
<text x="2090.8" y="-2120" font-size="20" fill="black" dy="0em">10</text>
<path d="M2633.6000000000004,-2200 L2776.2000000000003,-2200 L2776.2000000000003,-2150 L2633.6000000000004,-2150 L2603.6000000000004,-2175.0 L2633.6000000000004,-2200 Z" fill="#d3c9c1" fill-opacity="0.8" stroke="#d3c9c1" stroke-width="4" />
<text x="2603.6000000000004" y="-2210" font-size="20" fill="black" dy="0em">11</text>
<path d="M3021.2000000000003,-2200 L3015.6000000000004,-2200 L3015.6000000000004,-2150 L3021.2000000000003,-2150 L2991.2000000000003,-2175.0 L3021.2000000000003,-2200 Z" fill="#d3c9c1" fill-opacity="0.8" stroke="#d3c9c1" stroke-width="4" />
<text x="2991.2000000000003" y="-2120" font-size="20" fill="black" dy="0em">12</text>
<path d="M3101.0,-2200 L3123.0,-2200 L3123.0,-2150 L3101.0,-2150 L3071.0,-2175.0 L3101.0,-2200 Z" fill="#d3c9c1" fill-opacity="0.8" stroke="#d3c9c1" stroke-width="4" />
<text x="3071.0" y="-2210" font-size="20" fill="black" dy="0em">13</text>
<path d="M3192.8,-2200 L3195.6000000000004,-2200 L3225.6000000000004,-2175.0 L3195.6000000000004,-2150 L3192.8,-2150 L3192.8,-2200 Z" fill="#d3c9c1" fill-opacity="0.8" stroke="#d3c9c1" stroke-width="4" />
<text x="3192.8" y="-2120" font-size="20" fill="black" dy="0em">14</text>
<path d="M10.2,-2200 L187.60000000000002,-2200 L187.60000000000002,-2150 L10.2,-2150 L10.2,-2200 Z" fill="white" stroke="white" stroke-width="4" />
<path d="M10.2,-2200 L16.77037037037037,-2200 L16.77037037037037,-2150 L10.2,-2150 L10.2,-2200 Z" fill="black" />
<path d="M16.77037037037037,-2200 L23.34074074074074,-2200 L23.34074074074074,-2150 L16.77037037037037,-2150 L16.77037037037037,-2200 Z" fill="#f0f0f0" />
<path d="M23.34074074074074,-2200 L29.911111111111108,-2200 L29.911111111111108,-2150 L23.34074074074074,-2150 L23.34074074074074,-2200 Z" fill="black" />
<path d="M29.911111111111108,-2200 L36.48148148148148,-2200 L36.48148148148148,-2150 L29.911111111111108,-2150 L29.911111111111108,-2200 Z" fill="#f0f0f0" />
<path d="M36.48148148148148,-2200 L43.05185185185185,-2200 L43.05185185185185,-2150 L36.48148148148148,-2150 L36.48148148148148,-2200 Z" fill="black" />
<path d="M43.05185185185185,-2200 L49.62222222222222,-2200 L49.62222222222222,-2150 L43.05185185185185,-2150 L43.05185185185185,-2200 Z" fill="#f0f0f0" />
<path d="M49.62222222222222,-2200 L56.19259259259259,-2200 L56.19259259259259,-2150 L49.62222222222222,-2150 L49.62222222222222,-2200 Z" fill="black" />
<path d="M56.19259259259259,-2200 L62.76296296296296,-2200 L62.76296296296296,-2150 L56.19259259259259,-2150 L56.19259259259259,-2200 Z" fill="#f0f0f0" />
<path d="M62.76296296296296,-2200 L69.33333333333333,-2200 L69.33333333333333,-2150 L62.76296296296296,-2150 L62.76296296296296,-2200 Z" fill="black" />
<path d="M69.33333333333333,-2200 L75.9037037037037,-2200 L75.9037037037037,-2150 L69.33333333333333,-2150 L69.33333333333333,-2200 Z" fill="#f0f0f0" />
<path d="M75.9037037037037,-2200 L82.47407407407407,-2200 L82.47407407407407,-2150 L75.9037037037037,-2150 L75.9037037037037,-2200 Z" fill="black" />
<path d="M82.47407407407407,-2200 L89.04444444444444,-2200 L89.04444444444444,-2150 L82.47407407407407,-2150 L82.47407407407407,-2200 Z" fill="#f0f0f0" />
<path d="M89.04444444444444,-2200 L95.6148148148148,-2200 L95.6148148148148,-2150 L89.04444444444444,-2150 L89.04444444444444,-2200 Z" fill="black" />
<path d="M95.6148148148148,-2200 L102.18518518518518,-2200 L102.18518518518518,-2150 L95.6148148148148,-2150 L95.6148148148148,-2200 Z" fill="#f0f0f0" />
<path d="M102.18518518518518,-2200 L108.75555555555555,-2200 L108.75555555555555,-2150 L102.18518518518518,-2150 L102.18518518518518,-2200 Z" fill="black" />
<path d="M108.75555555555555,-2200 L115.32592592592592,-2200 L115.32592592592592,-2150 L108.75555555555555,-2150 L108.75555555555555,-2200 Z" fill="#f0f0f0" />
<path d="M115.32592592592592,-2200 L121.89629629629628,-2200 L121.89629629629628,-2150 L115.32592592592592,-2150 L115.32592592592592,-2200 Z" fill="black" />
<path d="M121.89629629629628,-2200 L128.46666666666667,-2200 L128.46666666666667,-2150 L121.89629629629628,-2150 L121.89629629629628,-2200 Z" fill="#f0f0f0" />
<path d="M128.46666666666667,-2200 L135.03703703703704,-2200 L135.03703703703704,-2150 L128.46666666666667,-2150 L128.46666666666667,-2200 Z" fill="black" />
<path d="M135.03703703703704,-2200 L141.6074074074074,-2200 L141.6074074074074,-2150 L135.03703703703704,-2150 L135.03703703703704,-2200 Z" fill="#f0f0f0" />
<path d="M141.6074074074074,-2200 L148.17777777777778,-2200 L148.17777777777778,-2150 L141.6074074074074,-2150 L141.6074074074074,-2200 Z" fill="black" />
<path d="M148.17777777777778,-2200 L154.74814814814815,-2200 L154.74814814814815,-2150 L148.17777777777778,-2150 L148.17777777777778,-2200 Z" fill="#f0f0f0" />
<path d="M154.74814814814815,-2200 L161.31851851851852,-2200 L161.31851851851852,-2150 L154.74814814814815,-2150 L154.74814814814815,-2200 Z" fill="black" />
<path d="M161.31851851851852,-2200 L167.88888888888889,-2200 L167.88888888888889,-2150 L161.31851851851852,-2150 L161.31851851851852,-2200 Z" fill="#f0f0f0" />
<path d="M167.88888888888889,-2200 L174.45925925925926,-2200 L174.45925925925926,-2150 L167.88888888888889,-2150 L167.88888888888889,-2200 Z" fill="black" />
<path d="M174.45925925925926,-2200 L181.02962962962962,-2200 L181.02962962962962,-2150 L174.45925925925926,-2150 L174.45925925925926,-2200 Z" fill="#f0f0f0" />
<path d="M181.02962962962962,-2200 L187.6,-2200 L187.6,-2150 L181.02962962962962,-2150 L181.02962962962962,-2200 Z" fill="black" />
<text x="10.2" y="-2210" font-size="26" fill="black" dy="0em">CRISPR</text>
<path d="M2904.2000000000003,-2200 L3347.6000000000004,-2200 L3347.6000000000004,-2150 L2904.2000000000003,-2150 L2904.2000000000003,-2200 Z" fill="white" stroke="white" stroke-width="4" />
<path d="M2904.2000000000003,-2200 L2910.8179104477613,-2200 L2910.8179104477613,-2150 L2904.2000000000003,-2150 L2904.2000000000003,-2200 Z" fill="black" />
<path d="M2910.8179104477613,-2200 L2917.4358208955223,-2200 L2917.4358208955223,-2150 L2910.8179104477613,-2150 L2910.8179104477613,-2200 Z" fill="#f0f0f0" />
<path d="M2917.4358208955223,-2200 L2924.0537313432833,-2200 L2924.0537313432833,-2150 L2917.4358208955223,-2150 L2917.4358208955223,-2200 Z" fill="black" />
<path d="M2924.0537313432833,-2200 L2930.6716417910443,-2200 L2930.6716417910443,-2150 L2924.0537313432833,-2150 L2924.0537313432833,-2200 Z" fill="#f0f0f0" />
<path d="M2930.6716417910443,-2200 L2937.2895522388053,-2200 L2937.2895522388053,-2150 L2930.6716417910443,-2150 L2930.6716417910443,-2200 Z" fill="black" />
<path d="M2937.2895522388053,-2200 L2943.9074626865663,-2200 L2943.9074626865663,-2150 L2937.2895522388053,-2150 L2937.2895522388053,-2200 Z" fill="#f0f0f0" />
<path d="M2943.9074626865663,-2200 L2950.5253731343273,-2200 L2950.5253731343273,-2150 L2943.9074626865663,-2150 L2943.9074626865663,-2200 Z" fill="black" />
<path d="M2950.5253731343273,-2200 L2957.1432835820883,-2200 L2957.1432835820883,-2150 L2950.5253731343273,-2150 L2950.5253731343273,-2200 Z" fill="#f0f0f0" />
<path d="M2957.1432835820883,-2200 L2963.7611940298493,-2200 L2963.7611940298493,-2150 L2957.1432835820883,-2150 L2957.1432835820883,-2200 Z" fill="black" />
<path d="M2963.7611940298493,-2200 L2970.3791044776103,-2200 L2970.3791044776103,-2150 L2963.7611940298493,-2150 L2963.7611940298493,-2200 Z" fill="#f0f0f0" />
<path d="M2970.3791044776103,-2200 L2976.9970149253713,-2200 L2976.9970149253713,-2150 L2970.3791044776103,-2150 L2970.3791044776103,-2200 Z" fill="black" />
<path d="M2976.9970149253713,-2200 L2983.6149253731323,-2200 L2983.6149253731323,-2150 L2976.9970149253713,-2150 L2976.9970149253713,-2200 Z" fill="#f0f0f0" />
<path d="M2983.6149253731323,-2200 L2990.2328358208933,-2200 L2990.2328358208933,-2150 L2983.6149253731323,-2150 L2983.6149253731323,-2200 Z" fill="black" />
<path d="M2990.2328358208933,-2200 L2996.8507462686543,-2200 L2996.8507462686543,-2150 L2990.2328358208933,-2150 L2990.2328358208933,-2200 Z" fill="#f0f0f0" />
<path d="M2996.8507462686543,-2200 L3003.4686567164154,-2200 L3003.4686567164154,-2150 L2996.8507462686543,-2150 L2996.8507462686543,-2200 Z" fill="black" />
<path d="M3003.4686567164154,-2200 L3010.0865671641764,-2200 L3010.0865671641764,-2150 L3003.4686567164154,-2150 L3003.4686567164154,-2200 Z" fill="#f0f0f0" />
<path d="M3010.0865671641764,-2200 L3016.7044776119374,-2200 L3016.7044776119374,-2150 L3010.0865671641764,-2150 L3010.0865671641764,-2200 Z" fill="black" />
<path d="M3016.7044776119374,-2200 L3023.3223880596984,-2200 L3023.3223880596984,-2150 L3016.7044776119374,-2150 L3016.7044776119374,-2200 Z" fill="#f0f0f0" />
<path d="M3023.3223880596984,-2200 L3029.9402985074594,-2200 L3029.9402985074594,-2150 L3023.3223880596984,-2150 L3023.3223880596984,-2200 Z" fill="black" />
<path d="M3029.9402985074594,-2200 L3036.5582089552204,-2200 L3036.5582089552204,-2150 L3029.9402985074594,-2150 L3029.9402985074594,-2200 Z" fill="#f0f0f0" />
<path d="M3036.5582089552204,-2200 L3043.1761194029814,-2200 L3043.1761194029814,-2150 L3036.5582089552204,-2150 L3036.5582089552204,-2200 Z" fill="black" />
<path d="M3043.1761194029814,-2200 L3049.7940298507424,-2200 L3049.7940298507424,-2150 L3043.1761194029814,-2150 L3043.1761194029814,-2200 Z" fill="#f0f0f0" />
<path d="M3049.7940298507424,-2200 L3056.4119402985034,-2200 L3056.4119402985034,-2150 L3049.7940298507424,-2150 L3049.7940298507424,-2200 Z" fill="black" />
<path d="M3056.4119402985034,-2200 L3063.0298507462644,-2200 L3063.0298507462644,-2150 L3056.4119402985034,-2150 L3056.4119402985034,-2200 Z" fill="#f0f0f0" />
<path d="M3063.0298507462644,-2200 L3069.6477611940254,-2200 L3069.6477611940254,-2150 L3063.0298507462644,-2150 L3063.0298507462644,-2200 Z" fill="black" />
<path d="M3069.6477611940254,-2200 L3076.2656716417864,-2200 L3076.2656716417864,-2150 L3069.6477611940254,-2150 L3069.6477611940254,-2200 Z" fill="#f0f0f0" />
<path d="M3076.2656716417864,-2200 L3082.8835820895474,-2200 L3082.8835820895474,-2150 L3076.2656716417864,-2150 L3076.2656716417864,-2200 Z" fill="black" />
<path d="M3082.8835820895474,-2200 L3089.5014925373084,-2200 L3089.5014925373084,-2150 L3082.8835820895474,-2150 L3082.8835820895474,-2200 Z" fill="#f0f0f0" />
<path d="M3089.5014925373084,-2200 L3096.1194029850694,-2200 L3096.1194029850694,-2150 L3089.5014925373084,-2150 L3089.5014925373084,-2200 Z" fill="black" />
<path d="M3096.1194029850694,-2200 L3102.7373134328304,-2200 L3102.7373134328304,-2150 L3096.1194029850694,-2150 L3096.1194029850694,-2200 Z" fill="#f0f0f0" />
<path d="M3102.7373134328304,-2200 L3109.3552238805914,-2200 L3109.3552238805914,-2150 L3102.7373134328304,-2150 L3102.7373134328304,-2200 Z" fill="black" />
<path d="M3109.3552238805914,-2200 L3115.9731343283524,-2200 L3115.9731343283524,-2150 L3109.3552238805914,-2150 L3109.3552238805914,-2200 Z" fill="#f0f0f0" />
<path d="M3115.9731343283524,-2200 L3122.5910447761134,-2200 L3122.5910447761134,-2150 L3115.9731343283524,-2150 L3115.9731343283524,-2200 Z" fill="black" />
<path d="M3122.5910447761134,-2200 L3129.2089552238745,-2200 L3129.2089552238745,-2150 L3122.5910447761134,-2150 L3122.5910447761134,-2200 Z" fill="#f0f0f0" />
<path d="M3129.2089552238745,-2200 L3135.8268656716355,-2200 L3135.8268656716355,-2150 L3129.2089552238745,-2150 L3129.2089552238745,-2200 Z" fill="black" />
<path d="M3135.8268656716355,-2200 L3142.4447761193965,-2200 L3142.4447761193965,-2150 L3135.8268656716355,-2150 L3135.8268656716355,-2200 Z" fill="#f0f0f0" />
<path d="M3142.4447761193965,-2200 L3149.0626865671575,-2200 L3149.0626865671575,-2150 L3142.4447761193965,-2150 L3142.4447761193965,-2200 Z" fill="black" />
<path d="M3149.0626865671575,-2200 L3155.6805970149185,-2200 L3155.6805970149185,-2150 L3149.0626865671575,-2150 L3149.0626865671575,-2200 Z" fill="#f0f0f0" />
<path d="M3155.6805970149185,-2200 L3162.2985074626795,-2200 L3162.2985074626795,-2150 L3155.6805970149185,-2150 L3155.6805970149185,-2200 Z" fill="black" />
<path d="M3162.2985074626795,-2200 L3168.9164179104405,-2200 L3168.9164179104405,-2150 L3162.2985074626795,-2150 L3162.2985074626795,-2200 Z" fill="#f0f0f0" />
<path d="M3168.9164179104405,-2200 L3175.5343283582015,-2200 L3175.5343283582015,-2150 L3168.9164179104405,-2150 L3168.9164179104405,-2200 Z" fill="black" />
<path d="M3175.5343283582015,-2200 L3182.1522388059625,-2200 L3182.1522388059625,-2150 L3175.5343283582015,-2150 L3175.5343283582015,-2200 Z" fill="#f0f0f0" />
<path d="M3182.1522388059625,-2200 L3188.7701492537235,-2200 L3188.7701492537235,-2150 L3182.1522388059625,-2150 L3182.1522388059625,-2200 Z" fill="black" />
<path d="M3188.7701492537235,-2200 L3195.3880597014845,-2200 L3195.3880597014845,-2150 L3188.7701492537235,-2150 L3188.7701492537235,-2200 Z" fill="#f0f0f0" />
<path d="M3195.3880597014845,-2200 L3202.0059701492455,-2200 L3202.0059701492455,-2150 L3195.3880597014845,-2150 L3195.3880597014845,-2200 Z" fill="black" />
<path d="M3202.0059701492455,-2200 L3208.6238805970065,-2200 L3208.6238805970065,-2150 L3202.0059701492455,-2150 L3202.0059701492455,-2200 Z" fill="#f0f0f0" />
<path d="M3208.6238805970065,-2200 L3215.2417910447675,-2200 L3215.2417910447675,-2150 L3208.6238805970065,-2150 L3208.6238805970065,-2200 Z" fill="black" />
<path d="M3215.2417910447675,-2200 L3221.8597014925285,-2200 L3221.8597014925285,-2150 L3215.2417910447675,-2150 L3215.2417910447675,-2200 Z" fill="#f0f0f0" />
<path d="M3221.8597014925285,-2200 L3228.4776119402895,-2200 L3228.4776119402895,-2150 L3221.8597014925285,-2150 L3221.8597014925285,-2200 Z" fill="black" />
<path d="M3228.4776119402895,-2200 L3235.0955223880505,-2200 L3235.0955223880505,-2150 L3228.4776119402895,-2150 L3228.4776119402895,-2200 Z" fill="#f0f0f0" />
<path d="M3235.0955223880505,-2200 L3241.7134328358115,-2200 L3241.7134328358115,-2150 L3235.0955223880505,-2150 L3235.0955223880505,-2200 Z" fill="black" />
<path d="M3241.7134328358115,-2200 L3248.3313432835726,-2200 L3248.3313432835726,-2150 L3241.7134328358115,-2150 L3241.7134328358115,-2200 Z" fill="#f0f0f0" />
<path d="M3248.3313432835726,-2200 L3254.9492537313336,-2200 L3254.9492537313336,-2150 L3248.3313432835726,-2150 L3248.3313432835726,-2200 Z" fill="black" />
<path d="M3254.9492537313336,-2200 L3261.5671641790946,-2200 L3261.5671641790946,-2150 L3254.9492537313336,-2150 L3254.9492537313336,-2200 Z" fill="#f0f0f0" />
<path d="M3261.5671641790946,-2200 L3268.1850746268556,-2200 L3268.1850746268556,-2150 L3261.5671641790946,-2150 L3261.5671641790946,-2200 Z" fill="black" />
<path d="M3268.1850746268556,-2200 L3274.8029850746166,-2200 L3274.8029850746166,-2150 L3268.1850746268556,-2150 L3268.1850746268556,-2200 Z" fill="#f0f0f0" />
<path d="M3274.8029850746166,-2200 L3281.4208955223776,-2200 L3281.4208955223776,-2150 L3274.8029850746166,-2150 L3274.8029850746166,-2200 Z" fill="black" />
<path d="M3281.4208955223776,-2200 L3288.0388059701386,-2200 L3288.0388059701386,-2150 L3281.4208955223776,-2150 L3281.4208955223776,-2200 Z" fill="#f0f0f0" />
<path d="M3288.0388059701386,-2200 L3294.6567164178996,-2200 L3294.6567164178996,-2150 L3288.0388059701386,-2150 L3288.0388059701386,-2200 Z" fill="black" />
<path d="M3294.6567164178996,-2200 L3301.2746268656606,-2200 L3301.2746268656606,-2150 L3294.6567164178996,-2150 L3294.6567164178996,-2200 Z" fill="#f0f0f0" />
<path d="M3301.2746268656606,-2200 L3307.8925373134216,-2200 L3307.8925373134216,-2150 L3301.2746268656606,-2150 L3301.2746268656606,-2200 Z" fill="black" />
<path d="M3307.8925373134216,-2200 L3314.5104477611826,-2200 L3314.5104477611826,-2150 L3307.8925373134216,-2150 L3307.8925373134216,-2200 Z" fill="#f0f0f0" />
<path d="M3314.5104477611826,-2200 L3321.1283582089436,-2200 L3321.1283582089436,-2150 L3314.5104477611826,-2150 L3314.5104477611826,-2200 Z" fill="black" />
<path d="M3321.1283582089436,-2200 L3327.7462686567046,-2200 L3327.7462686567046,-2150 L3321.1283582089436,-2150 L3321.1283582089436,-2200 Z" fill="#f0f0f0" />
<path d="M3327.7462686567046,-2200 L3334.3641791044656,-2200 L3334.3641791044656,-2150 L3327.7462686567046,-2150 L3327.7462686567046,-2200 Z" fill="black" />
<path d="M3334.3641791044656,-2200 L3340.9820895522266,-2200 L3340.9820895522266,-2150 L3334.3641791044656,-2150 L3334.3641791044656,-2200 Z" fill="#f0f0f0" />
<path d="M3340.9820895522266,-2200 L3347.5999999999876,-2200 L3347.5999999999876,-2150 L3340.9820895522266,-2150 L3340.9820895522266,-2200 Z" fill="black" />
<text x="2904.2000000000003" y="-2210" font-size="26" fill="black" dy="0em">CRISPR</text>
<text x="16.0" y="-2060" font-size="38" fill="black" dy="0em">I-D: JAVYTI010000048@1 (114-6109)</text>
<path d="M40.2,-2000 L206.8,-2000 L206.8,-1950 L40.2,-1950 L10.2,-1975.0 L40.2,-2000 Z" fill="#5b5ea6" fill-opacity="0.8" stroke="#5b5ea6" stroke-width="4" />
<text x="10.2" y="-2010" font-size="26" fill="black" dy="0em">Cas1</text>
<path d="M236.20000000000002,-2000 L322.40000000000003,-2000 L322.40000000000003,-1950 L236.20000000000002,-1950 L206.20000000000002,-1975.0 L236.20000000000002,-2000 Z" fill="#5b5ea6" fill-opacity="0.8" stroke="#5b5ea6" stroke-width="4" />
<text x="206.20000000000002" y="-1920" font-size="26" fill="black" dy="0em">Cas4</text>
<path d="M359.40000000000003,-2000 L385.6,-2000 L385.6,-1950 L359.40000000000003,-1950 L329.40000000000003,-1975.0 L359.40000000000003,-2000 Z" fill="#5b5ea6" fill-opacity="0.8" stroke="#5b5ea6" stroke-width="4" />
<text x="329.40000000000003" y="-2010" font-size="26" fill="black" dy="0em">Cas2</text>
<path d="M418.40000000000003,-2000 L831.0,-2000 L831.0,-1950 L418.40000000000003,-1950 L388.40000000000003,-1975.0 L418.40000000000003,-2000 Z" fill="#efc050" fill-opacity="0.8" stroke="#efc050" stroke-width="4" />
<text x="388.40000000000003" y="-1920" font-size="26" fill="black" dy="0em">Cas3d</text>
<path d="M861.6,-2000 L976.0,-2000 L976.0,-1950 L861.6,-1950 L831.6,-1975.0 L861.6,-2000 Z" fill="#efc050" fill-opacity="0.8" stroke="#efc050" stroke-width="4" />
<text x="831.6" y="-2010" font-size="26" fill="black" dy="0em">Csc1gr5</text>
<path d="M1005.4000000000001,-2000 L1209.2,-2000 L1209.2,-1950 L1005.4000000000001,-1950 L975.4000000000001,-1975.0 L1005.4000000000001,-2000 Z" fill="#efc050" fill-opacity="0.8" stroke="#efc050" stroke-width="4" />
<text x="975.4000000000001" y="-1920" font-size="26" fill="black" dy="0em">Csc2gr7</text>
<path d="M10.2,-1800 L42.0,-1800 L42.0,-1750 L10.2,-1750 L10.2,-1800 Z" fill="white" stroke="white" stroke-width="4" />
<path d="M10.2,-1800 L16.56,-1800 L16.56,-1750 L10.2,-1750 L10.2,-1800 Z" fill="black" />
<path d="M16.56,-1800 L22.919999999999998,-1800 L22.919999999999998,-1750 L16.56,-1750 L16.56,-1800 Z" fill="#f0f0f0" />
<path d="M22.919999999999998,-1800 L29.279999999999998,-1800 L29.279999999999998,-1750 L22.919999999999998,-1750 L22.919999999999998,-1800 Z" fill="black" />
<path d="M29.279999999999998,-1800 L35.64,-1800 L35.64,-1750 L29.279999999999998,-1750 L29.279999999999998,-1800 Z" fill="#f0f0f0" />
<path d="M35.64,-1800 L42.0,-1800 L42.0,-1750 L35.64,-1750 L35.64,-1800 Z" fill="black" />
<text x="10.2" y="-1810" font-size="26" fill="black" dy="0em">CRISPR: I-A</text>
<text x="16.0" y="-1860" font-size="38" fill="black" dy="0em">I-A: JAVYTI010000001_1 (3-162)</text>
<path d="M10.2,-1600 L41.0,-1600 L41.0,-1550 L10.2,-1550 L10.2,-1600 Z" fill="white" stroke="white" stroke-width="4" />
<path d="M10.2,-1600 L16.36,-1600 L16.36,-1550 L10.2,-1550 L10.2,-1600 Z" fill="black" />
<path d="M16.36,-1600 L22.52,-1600 L22.52,-1550 L16.36,-1550 L16.36,-1600 Z" fill="#f0f0f0" />
<path d="M22.52,-1600 L28.68,-1600 L28.68,-1550 L22.52,-1550 L22.52,-1600 Z" fill="black" />
<path d="M28.68,-1600 L34.84,-1600 L34.84,-1550 L28.68,-1550 L28.68,-1600 Z" fill="#f0f0f0" />
<path d="M34.84,-1600 L41.0,-1600 L41.0,-1550 L34.84,-1550 L34.84,-1600 Z" fill="black" />
<text x="10.2" y="-1610" font-size="26" fill="black" dy="0em">CRISPR: I-A</text>
<text x="16.0" y="-1660" font-size="38" fill="black" dy="0em">I-A: JAVYTI010000011_2 (33281-33435)</text>
<path d="M10.2,-1400 L68.0,-1400 L68.0,-1350 L10.2,-1350 L10.2,-1400 Z" fill="white" stroke="white" stroke-width="4" />
<path d="M10.2,-1400 L16.62222222222222,-1400 L16.62222222222222,-1350 L10.2,-1350 L10.2,-1400 Z" fill="black" />
<path d="M16.62222222222222,-1400 L23.04444444444444,-1400 L23.04444444444444,-1350 L16.62222222222222,-1350 L16.62222222222222,-1400 Z" fill="#f0f0f0" />
<path d="M23.04444444444444,-1400 L29.46666666666666,-1400 L29.46666666666666,-1350 L23.04444444444444,-1350 L23.04444444444444,-1400 Z" fill="black" />
<path d="M29.46666666666666,-1400 L35.888888888888886,-1400 L35.888888888888886,-1350 L29.46666666666666,-1350 L29.46666666666666,-1400 Z" fill="#f0f0f0" />
<path d="M35.888888888888886,-1400 L42.31111111111111,-1400 L42.31111111111111,-1350 L35.888888888888886,-1350 L35.888888888888886,-1400 Z" fill="black" />
<path d="M42.31111111111111,-1400 L48.733333333333334,-1400 L48.733333333333334,-1350 L42.31111111111111,-1350 L42.31111111111111,-1400 Z" fill="#f0f0f0" />
<path d="M48.733333333333334,-1400 L55.15555555555556,-1400 L55.15555555555556,-1350 L48.733333333333334,-1350 L48.733333333333334,-1400 Z" fill="black" />
<path d="M55.15555555555556,-1400 L61.57777777777778,-1400 L61.57777777777778,-1350 L55.15555555555556,-1350 L55.15555555555556,-1400 Z" fill="#f0f0f0" />
<path d="M61.57777777777778,-1400 L68.0,-1400 L68.0,-1350 L61.57777777777778,-1350 L61.57777777777778,-1400 Z" fill="black" />
<text x="10.2" y="-1410" font-size="26" fill="black" dy="0em">CRISPR: I-A</text>
<text x="16.0" y="-1460" font-size="38" fill="black" dy="0em">I-A: JAVYTI010000015_3 (12287-12576)</text>
<path d="M10.2,-1200 L41.2,-1200 L41.2,-1150 L10.2,-1150 L10.2,-1200 Z" fill="white" stroke="white" stroke-width="4" />
<path d="M10.2,-1200 L16.4,-1200 L16.4,-1150 L10.2,-1150 L10.2,-1200 Z" fill="black" />
<path d="M16.4,-1200 L22.599999999999998,-1200 L22.599999999999998,-1150 L16.4,-1150 L16.4,-1200 Z" fill="#f0f0f0" />
<path d="M22.599999999999998,-1200 L28.799999999999997,-1200 L28.799999999999997,-1150 L22.599999999999998,-1150 L22.599999999999998,-1200 Z" fill="black" />
<path d="M28.799999999999997,-1200 L35.0,-1200 L35.0,-1150 L28.799999999999997,-1150 L28.799999999999997,-1200 Z" fill="#f0f0f0" />
<path d="M35.0,-1200 L41.2,-1200 L41.2,-1150 L35.0,-1150 L35.0,-1200 Z" fill="black" />
<text x="10.2" y="-1210" font-size="26" fill="black" dy="0em">CRISPR: I-A</text>
<text x="16.0" y="-1260" font-size="38" fill="black" dy="0em">I-A: JAVYTI010000034_6 (2794-2949)</text>
<path d="M10.2,-1000 L80.60000000000001,-1000 L80.60000000000001,-950 L10.2,-950 L10.2,-1000 Z" fill="white" stroke="white" stroke-width="4" />
<path d="M10.2,-1000 L16.6,-1000 L16.6,-950 L10.2,-950 L10.2,-1000 Z" fill="black" />
<path d="M16.6,-1000 L23.0,-1000 L23.0,-950 L16.6,-950 L16.6,-1000 Z" fill="#f0f0f0" />
<path d="M23.0,-1000 L29.4,-1000 L29.4,-950 L23.0,-950 L23.0,-1000 Z" fill="black" />
<path d="M29.4,-1000 L35.8,-1000 L35.8,-950 L29.4,-950 L29.4,-1000 Z" fill="#f0f0f0" />
<path d="M35.8,-1000 L42.199999999999996,-1000 L42.199999999999996,-950 L35.8,-950 L35.8,-1000 Z" fill="black" />
<path d="M42.199999999999996,-1000 L48.599999999999994,-1000 L48.599999999999994,-950 L42.199999999999996,-950 L42.199999999999996,-1000 Z" fill="#f0f0f0" />
<path d="M48.599999999999994,-1000 L54.99999999999999,-1000 L54.99999999999999,-950 L48.599999999999994,-950 L48.599999999999994,-1000 Z" fill="black" />
<path d="M54.99999999999999,-1000 L61.39999999999999,-1000 L61.39999999999999,-950 L54.99999999999999,-950 L54.99999999999999,-1000 Z" fill="#f0f0f0" />
<path d="M61.39999999999999,-1000 L67.8,-1000 L67.8,-950 L61.39999999999999,-950 L61.39999999999999,-1000 Z" fill="black" />
<path d="M67.8,-1000 L74.2,-1000 L74.2,-950 L67.8,-950 L67.8,-1000 Z" fill="#f0f0f0" />
<path d="M74.2,-1000 L80.60000000000001,-1000 L80.60000000000001,-950 L74.2,-950 L74.2,-1000 Z" fill="black" />
<text x="10.2" y="-1010" font-size="26" fill="black" dy="0em">CRISPR: I-A</text>
<text x="16.0" y="-1060" font-size="38" fill="black" dy="0em">I-A: JAVYTI010000040_7 (37-389)</text>
<path d="M10.2,-800 L149.20000000000002,-800 L149.20000000000002,-750 L10.2,-750 L10.2,-800 Z" fill="white" stroke="white" stroke-width="4" />
<path d="M10.2,-800 L16.819047619047616,-800 L16.819047619047616,-750 L10.2,-750 L10.2,-800 Z" fill="black" />
<path d="M16.819047619047616,-800 L23.438095238095237,-800 L23.438095238095237,-750 L16.819047619047616,-750 L16.819047619047616,-800 Z" fill="#f0f0f0" />
<path d="M23.438095238095237,-800 L30.057142857142857,-800 L30.057142857142857,-750 L23.438095238095237,-750 L23.438095238095237,-800 Z" fill="black" />
<path d="M30.057142857142857,-800 L36.67619047619048,-800 L36.67619047619048,-750 L30.057142857142857,-750 L30.057142857142857,-800 Z" fill="#f0f0f0" />
<path d="M36.67619047619048,-800 L43.2952380952381,-800 L43.2952380952381,-750 L36.67619047619048,-750 L36.67619047619048,-800 Z" fill="black" />
<path d="M43.2952380952381,-800 L49.91428571428572,-800 L49.91428571428572,-750 L43.2952380952381,-750 L43.2952380952381,-800 Z" fill="#f0f0f0" />
<path d="M49.91428571428572,-800 L56.53333333333334,-800 L56.53333333333334,-750 L49.91428571428572,-750 L49.91428571428572,-800 Z" fill="black" />
<path d="M56.53333333333334,-800 L63.15238095238096,-800 L63.15238095238096,-750 L56.53333333333334,-750 L56.53333333333334,-800 Z" fill="#f0f0f0" />
<path d="M63.15238095238096,-800 L69.77142857142857,-800 L69.77142857142857,-750 L63.15238095238096,-750 L63.15238095238096,-800 Z" fill="black" />
<path d="M69.77142857142857,-800 L76.39047619047619,-800 L76.39047619047619,-750 L69.77142857142857,-750 L69.77142857142857,-800 Z" fill="#f0f0f0" />
<path d="M76.39047619047619,-800 L83.00952380952381,-800 L83.00952380952381,-750 L76.39047619047619,-750 L76.39047619047619,-800 Z" fill="black" />
<path d="M83.00952380952381,-800 L89.62857142857143,-800 L89.62857142857143,-750 L83.00952380952381,-750 L83.00952380952381,-800 Z" fill="#f0f0f0" />
<path d="M89.62857142857143,-800 L96.24761904761905,-800 L96.24761904761905,-750 L89.62857142857143,-750 L89.62857142857143,-800 Z" fill="black" />
<path d="M96.24761904761905,-800 L102.86666666666667,-800 L102.86666666666667,-750 L96.24761904761905,-750 L96.24761904761905,-800 Z" fill="#f0f0f0" />
<path d="M102.86666666666667,-800 L109.4857142857143,-800 L109.4857142857143,-750 L102.86666666666667,-750 L102.86666666666667,-800 Z" fill="black" />
<path d="M109.4857142857143,-800 L116.10476190476192,-800 L116.10476190476192,-750 L109.4857142857143,-750 L109.4857142857143,-800 Z" fill="#f0f0f0" />
<path d="M116.10476190476192,-800 L122.72380952380954,-800 L122.72380952380954,-750 L116.10476190476192,-750 L116.10476190476192,-800 Z" fill="black" />
<path d="M122.72380952380954,-800 L129.34285714285716,-800 L129.34285714285716,-750 L122.72380952380954,-750 L122.72380952380954,-800 Z" fill="#f0f0f0" />
<path d="M129.34285714285716,-800 L135.96190476190478,-800 L135.96190476190478,-750 L129.34285714285716,-750 L129.34285714285716,-800 Z" fill="black" />
<path d="M135.96190476190478,-800 L142.5809523809524,-800 L142.5809523809524,-750 L135.96190476190478,-750 L135.96190476190478,-800 Z" fill="#f0f0f0" />
<path d="M142.5809523809524,-800 L149.20000000000002,-800 L149.20000000000002,-750 L142.5809523809524,-750 L142.5809523809524,-800 Z" fill="black" />
<text x="10.2" y="-810" font-size="26" fill="black" dy="0em">CRISPR: I-A</text>
<text x="16.0" y="-860" font-size="38" fill="black" dy="0em">I-A: JAVYTI010000046_8 (2600-3295)</text>
<path d="M10.2,-600 L91.80000000000001,-600 L91.80000000000001,-550 L10.2,-550 L10.2,-600 Z" fill="white" stroke="white" stroke-width="4" />
<path d="M10.2,-600 L16.476923076923075,-600 L16.476923076923075,-550 L10.2,-550 L10.2,-600 Z" fill="black" />
<path d="M16.476923076923075,-600 L22.75384615384615,-600 L22.75384615384615,-550 L16.476923076923075,-550 L16.476923076923075,-600 Z" fill="#f0f0f0" />
<path d="M22.75384615384615,-600 L29.030769230769227,-600 L29.030769230769227,-550 L22.75384615384615,-550 L22.75384615384615,-600 Z" fill="black" />
<path d="M29.030769230769227,-600 L35.30769230769231,-600 L35.30769230769231,-550 L29.030769230769227,-550 L29.030769230769227,-600 Z" fill="#f0f0f0" />
<path d="M35.30769230769231,-600 L41.58461538461538,-600 L41.58461538461538,-550 L35.30769230769231,-550 L35.30769230769231,-600 Z" fill="black" />
<path d="M41.58461538461538,-600 L47.86153846153846,-600 L47.86153846153846,-550 L41.58461538461538,-550 L41.58461538461538,-600 Z" fill="#f0f0f0" />
<path d="M47.86153846153846,-600 L54.138461538461534,-600 L54.138461538461534,-550 L47.86153846153846,-550 L47.86153846153846,-600 Z" fill="black" />
<path d="M54.138461538461534,-600 L60.41538461538461,-600 L60.41538461538461,-550 L54.138461538461534,-550 L54.138461538461534,-600 Z" fill="#f0f0f0" />
<path d="M60.41538461538461,-600 L66.6923076923077,-600 L66.6923076923077,-550 L60.41538461538461,-550 L60.41538461538461,-600 Z" fill="black" />
<path d="M66.6923076923077,-600 L72.96923076923078,-600 L72.96923076923078,-550 L66.6923076923077,-550 L66.6923076923077,-600 Z" fill="#f0f0f0" />
<path d="M72.96923076923078,-600 L79.24615384615386,-600 L79.24615384615386,-550 L72.96923076923078,-550 L72.96923076923078,-600 Z" fill="black" />
<path d="M79.24615384615386,-600 L85.52307692307694,-600 L85.52307692307694,-550 L79.24615384615386,-550 L79.24615384615386,-600 Z" fill="#f0f0f0" />
<path d="M85.52307692307694,-600 L91.80000000000003,-600 L91.80000000000003,-550 L85.52307692307694,-550 L85.52307692307694,-600 Z" fill="black" />
<text x="10.2" y="-610" font-size="26" fill="black" dy="0em">CRISPR: I-A</text>
<text x="16.0" y="-660" font-size="38" fill="black" dy="0em">I-A: JAVYTI010000046_9 (7068-7476)</text>
<path d="M10.2,-400 L68.4,-400 L68.4,-350 L10.2,-350 L10.2,-400 Z" fill="white" stroke="white" stroke-width="4" />
<path d="M10.2,-400 L16.666666666666664,-400 L16.666666666666664,-350 L10.2,-350 L10.2,-400 Z" fill="black" />
<path d="M16.666666666666664,-400 L23.133333333333333,-400 L23.133333333333333,-350 L16.666666666666664,-350 L16.666666666666664,-400 Z" fill="#f0f0f0" />
<path d="M23.133333333333333,-400 L29.6,-400 L29.6,-350 L23.133333333333333,-350 L23.133333333333333,-400 Z" fill="black" />
<path d="M29.6,-400 L36.06666666666667,-400 L36.06666666666667,-350 L29.6,-350 L29.6,-400 Z" fill="#f0f0f0" />
<path d="M36.06666666666667,-400 L42.53333333333334,-400 L42.53333333333334,-350 L36.06666666666667,-350 L36.06666666666667,-400 Z" fill="black" />
<path d="M42.53333333333334,-400 L49.00000000000001,-400 L49.00000000000001,-350 L42.53333333333334,-350 L42.53333333333334,-400 Z" fill="#f0f0f0" />
<path d="M49.00000000000001,-400 L55.466666666666676,-400 L55.466666666666676,-350 L49.00000000000001,-350 L49.00000000000001,-400 Z" fill="black" />
<path d="M55.466666666666676,-400 L61.933333333333344,-400 L61.933333333333344,-350 L55.466666666666676,-350 L55.466666666666676,-400 Z" fill="#f0f0f0" />
<path d="M61.933333333333344,-400 L68.4,-400 L68.4,-350 L61.933333333333344,-350 L61.933333333333344,-400 Z" fill="black" />
<text x="10.2" y="-410" font-size="26" fill="black" dy="0em">CRISPR: I-A</text>
<text x="16.0" y="-460" font-size="38" fill="black" dy="0em">I-A: JAVYTI010000065_10 (1186-1477)</text>
<path d="M10.2,-200 L53.400000000000006,-200 L53.400000000000006,-150 L10.2,-150 L10.2,-200 Z" fill="white" stroke="white" stroke-width="4" />
<path d="M10.2,-200 L16.37142857142857,-200 L16.37142857142857,-150 L10.2,-150 L10.2,-200 Z" fill="black" />
<path d="M16.37142857142857,-200 L22.54285714285714,-200 L22.54285714285714,-150 L16.37142857142857,-150 L16.37142857142857,-200 Z" fill="#f0f0f0" />
<path d="M22.54285714285714,-200 L28.71428571428571,-200 L28.71428571428571,-150 L22.54285714285714,-150 L22.54285714285714,-200 Z" fill="black" />
<path d="M28.71428571428571,-200 L34.885714285714286,-200 L34.885714285714286,-150 L28.71428571428571,-150 L28.71428571428571,-200 Z" fill="#f0f0f0" />
<path d="M34.885714285714286,-200 L41.05714285714286,-200 L41.05714285714286,-150 L34.885714285714286,-150 L34.885714285714286,-200 Z" fill="black" />
<path d="M41.05714285714286,-200 L47.22857142857143,-200 L47.22857142857143,-150 L41.05714285714286,-150 L41.05714285714286,-200 Z" fill="#f0f0f0" />
<path d="M47.22857142857143,-200 L53.4,-200 L53.4,-150 L47.22857142857143,-150 L47.22857142857143,-200 Z" fill="black" />
<text x="10.2" y="-210" font-size="26" fill="black" dy="0em">CRISPR: I-A</text>
<text x="16.0" y="-260" font-size="38" fill="black" dy="0em">I-A: JAVYTI010000065_11 (2923-3139)</text>
</svg>