<?xml version="1.0" encoding="UTF-8"?>
<svg xmlns="http://www.w3.org/2000/svg" xmlns:xlink="http://www.w3.org/1999/xlink"
     width="4742" height="1200" viewBox="0 -1200 4742 1200">
<defs>
</defs>
<path d="M210,-20 L210,-1120" stroke="grey" stroke-width="1" fill="none" />
<text x="160" y="-1130" font-size="22" fill="grey" dy="0em">1000</text>
<path d="M410,-20 L410,-1120" stroke="grey" stroke-width="1" fill="none" />
<text x="360" y="-1130" font-size="22" fill="grey" dy="0em">2000</text>
<path d="M610,-20 L610,-1120" stroke="grey" stroke-width="1" fill="none" />
<text x="560" y="-1130" font-size="22" fill="grey" dy="0em">3000</text>
<path d="M810,-20 L810,-1120" stroke="grey" stroke-width="1" fill="none" />
<text x="760" y="-1130" font-size="22" fill="grey" dy="0em">4000</text>
<path d="M1010,-20 L1010,-1120" stroke="grey" stroke-width="1" fill="none" />
<text x="960" y="-1130" font-size="22" fill="grey" dy="0em">5000</text>
<path d="M1210,-20 L1210,-1120" stroke="grey" stroke-width="1" fill="none" />
<text x="1160" y="-1130" font-size="22" fill="grey" dy="0em">6000</text>
<path d="M1410,-20 L1410,-1120" stroke="grey" stroke-width="1" fill="none" />
<text x="1360" y="-1130" font-size="22" fill="grey" dy="0em">7000</text>
<path d="M1610,-20 L1610,-1120" stroke="grey" stroke-width="1" fill="none" />
<text x="1560" y="-1130" font-size="22" fill="grey" dy="0em">8000</text>
<path d="M1810,-20 L1810,-1120" stroke="grey" stroke-width="1" fill="none" />
<text x="1760" y="-1130" font-size="22" fill="grey" dy="0em">9000</text>
<path d="M2010,-20 L2010,-1120" stroke="grey" stroke-width="1" fill="none" />
<text x="1960" y="-1130" font-size="22" fill="grey" dy="0em">10000</text>
<path d="M2210,-20 L2210,-1120" stroke="grey" stroke-width="1" fill="none" />
<text x="2160" y="-1130" font-size="22" fill="grey" dy="0em">11000</text>
<path d="M2410,-20 L2410,-1120" stroke="grey" stroke-width="1" fill="none" />
<text x="2360" y="-1130" font-size="22" fill="grey" dy="0em">12000</text>
<path d="M2610,-20 L2610,-1120" stroke="grey" stroke-width="1" fill="none" />
<text x="2560" y="-1130" font-size="22" fill="grey" dy="0em">13000</text>
<path d="M2810,-20 L2810,-1120" stroke="grey" stroke-width="1" fill="none" />
<text x="2760" y="-1130" font-size="22" fill="grey" dy="0em">14000</text>
<path d="M3010,-20 L3010,-1120" stroke="grey" stroke-width="1" fill="none" />
<text x="2960" y="-1130" font-size="22" fill="grey" dy="0em">15000</text>
<path d="M3210,-20 L3210,-1120" stroke="grey" stroke-width="1" fill="none" />
<text x="3160" y="-1130" font-size="22" fill="grey" dy="0em">16000</text>
<path d="M3410,-20 L3410,-1120" stroke="grey" stroke-width="1" fill="none" />
<text x="3360" y="-1130" font-size="22" fill="grey" dy="0em">17000</text>
<path d="M3610,-20 L3610,-1120" stroke="grey" stroke-width="1" fill="none" />
<text x="3560" y="-1130" font-size="22" fill="grey" dy="0em">18000</text>
<path d="M3810,-20 L3810,-1120" stroke="grey" stroke-width="1" fill="none" />
<text x="3760" y="-1130" font-size="22" fill="grey" dy="0em">19000</text>
<path d="M4010,-20 L4010,-1120" stroke="grey" stroke-width="1" fill="none" />
<text x="3960" y="-1130" font-size="22" fill="grey" dy="0em">20000</text>
<path d="M4210,-20 L4210,-1120" stroke="grey" stroke-width="1" fill="none" />
<text x="4160" y="-1130" font-size="22" fill="grey" dy="0em">21000</text>
<path d="M4410,-20 L4410,-1120" stroke="grey" stroke-width="1" fill="none" />
<text x="4360" y="-1130" font-size="22" fill="grey" dy="0em">22000</text>
<path d="M4610,-20 L4610,-1120" stroke="grey" stroke-width="1" fill="none" />
<text x="4560" y="-1130" font-size="22" fill="grey" dy="0em">23000</text>
<text x="16.0" y="-1060" font-size="38" fill="black" dy="0em">III-D: AHJL01000003@1 (50-23262)</text>
<path d="M265.0,-1000 L308.0,-1000 L308.0,-950 L265.0,-950 L235.0,-975.0 L265.0,-1000 Z" fill="#d3c9c1" fill-opacity="0.8" stroke="#d3c9c1" stroke-width="4" />
<text x="235.0" y="-1010" font-size="20" fill="black" dy="0em">1</text>
<path d="M357.20000000000005,-1000 L376.20000000000005,-1000 L376.20000000000005,-950 L357.20000000000005,-950 L327.20000000000005,-975.0 L357.20000000000005,-1000 Z" fill="#d3c9c1" fill-opacity="0.8" stroke="#d3c9c1" stroke-width="4" />
<text x="327.20000000000005" y="-920" font-size="20" fill="black" dy="0em">2</text>
<path d="M501.8,-1000 L623.4,-1000 L623.4,-950 L501.8,-950 L471.8,-975.0 L501.8,-1000 Z" fill="#efc050" fill-opacity="0.8" stroke="#efc050" stroke-width="4" />
<text x="471.8" y="-1010" font-size="26" fill="black" dy="0em">Csm3gr7</text>
<path d="M653.8000000000001,-1000 L807.2,-1000 L807.2,-950 L653.8000000000001,-950 L623.8000000000001,-975.0 L653.8000000000001,-1000 Z" fill="#efc050" fill-opacity="0.8" stroke="#efc050" stroke-width="4" />
<text x="623.8000000000001" y="-920" font-size="26" fill="black" dy="0em">Csx10gr5</text>
<path d="M836.6,-1000 L930.0,-1000 L930.0,-950 L836.6,-950 L806.6,-975.0 L836.6,-1000 Z" fill="#efc050" fill-opacity="0.8" stroke="#efc050" stroke-width="4" />
<text x="806.6" y="-1010" font-size="26" fill="black" dy="0em">Csm3</text>
<path d="M959.4000000000001,-1000 L1427.8000000000002,-1000 L1427.8000000000002,-950 L959.4000000000001,-950 L929.4000000000001,-975.0 L959.4000000000001,-1000 Z" fill="#efc050" fill-opacity="0.8" stroke="#efc050" stroke-width="4" />
<text x="929.4000000000001" y="-920" font-size="26" fill="black" dy="0em">Cas10</text>
<path d="M1465.0,-1000 L1462.4,-1000 L1462.4,-950 L1465.0,-950 L1435.0,-975.0 L1465.0,-1000 Z" fill="#d3c9c1" fill-opacity="0.8" stroke="#d3c9c1" stroke-width="4" />
<text x="1435.0" y="-1010" font-size="20" fill="black" dy="0em">7</text>
<path d="M1492.8000000000002,-1000 L1626.4,-1000 L1626.4,-950 L1492.8000000000002,-950 L1462.8000000000002,-975.0 L1492.8000000000002,-1000 Z" fill="#efc050" fill-opacity="0.8" stroke="#efc050" stroke-width="4" />
<text x="1462.8000000000002" y="-920" font-size="26" fill="black" dy="0em">Csm3gr7</text>
<path d="M1650.8000000000002,-1000 L1788.0,-1000 L1788.0,-950 L1650.8000000000002,-950 L1620.8000000000002,-975.0 L1650.8000000000002,-1000 Z" fill="#efc050" fill-opacity="0.8" stroke="#efc050" stroke-width="4" />
<text x="1620.8000000000002" y="-1010" font-size="26" fill="black" dy="0em">Csm3gr7</text>
<path d="M1811.4,-1000 L1936.0,-1000 L1936.0,-950 L1811.4,-950 L1781.4,-975.0 L1811.4,-1000 Z" fill="#efc050" fill-opacity="0.8" stroke="#efc050" stroke-width="4" />
<text x="1781.4" y="-920" font-size="26" fill="black" dy="0em">Csm3gr7</text>
<path d="M1966.6000000000001,-1000 L2022.8000000000002,-1000 L2022.8000000000002,-950 L1966.6000000000001,-950 L1936.6000000000001,-975.0 L1966.6000000000001,-1000 Z" fill="#efc050" fill-opacity="0.8" stroke="#efc050" stroke-width="4" />
<text x="1936.6000000000001" y="-1010" font-size="26" fill="black" dy="0em">Csm2gr11</text>
<path d="M2045.4,-1000 L2087.8,-1000 L2087.8,-950 L2045.4,-950 L2015.4,-975.0 L2045.4,-1000 Z" fill="#ff80e6" fill-opacity="0.8" stroke="#ff80e6" stroke-width="4" />
<text x="2015.4" y="-920" font-size="26" fill="black" dy="0em">CasR</text>
<path d="M2125.6,-1000 L2138.6,-1000 L2138.6,-950 L2125.6,-950 L2095.6,-975.0 L2125.6,-1000 Z" fill="#d3c9c1" fill-opacity="0.8" stroke="#d3c9c1" stroke-width="4" />
<text x="2095.6" y="-1010" font-size="20" fill="black" dy="0em">13</text>
<path d="M2166.2000000000003,-1000 L2280.0,-1000 L2280.0,-950 L2166.2000000000003,-950 L2136.2000000000003,-975.0 L2166.2000000000003,-1000 Z" fill="#dd1424" fill-opacity="0.8" stroke="#dd1424" stroke-width="4" />
<text x="2136.2000000000003" y="-920" font-size="26" fill="black" dy="0em">Cas6</text>
<path d="M2310.0,-1000 L2334.4,-1000 L2334.4,-950 L2310.0,-950 L2280.0,-975.0 L2310.0,-1000 Z" fill="#d3c9c1" fill-opacity="0.8" stroke="#d3c9c1" stroke-width="4" />
<text x="2280.0" y="-1010" font-size="20" fill="black" dy="0em">15</text>
<path d="M2363.8,-1000 L2436.2000000000003,-1000 L2436.2000000000003,-950 L2363.8,-950 L2333.8,-975.0 L2363.8,-1000 Z" fill="#d3c9c1" fill-opacity="0.8" stroke="#d3c9c1" stroke-width="4" />
<text x="2333.8" y="-920" font-size="20" fill="black" dy="0em">16</text>
<path d="M2556.0,-1000 L2598.4,-1000 L2628.4,-975.0 L2598.4,-950 L2556.0,-950 L2556.0,-1000 Z" fill="#d3c9c1" fill-opacity="0.8" stroke="#d3c9c1" stroke-width="4" />
<text x="2556.0" y="-1010" font-size="20" fill="black" dy="0em">17</text>
<path d="M2616.2000000000003,-1000 L2702.4,-1000 L2732.4,-975.0 L2702.4,-950 L2616.2000000000003,-950 L2616.2000000000003,-1000 Z" fill="#d3c9c1" fill-opacity="0.8" stroke="#d3c9c1" stroke-width="4" />
<text x="2616.2000000000003" y="-920" font-size="20" fill="black" dy="0em">18</text>
<path d="M2809.2000000000003,-1000 L2837.2000000000003,-1000 L2837.2000000000003,-950 L2809.2000000000003,-950 L2779.2000000000003,-975.0 L2809.2000000000003,-1000 Z" fill="#ff80e6" fill-opacity="0.3" stroke="#ff80e6" stroke-width="4" />
<text x="2779.2000000000003" y="-1010" font-size="26" fill="black" dy="0em">(PEPT_D)</text>
<path d="M2872.6000000000004,-1000 L3033.8,-1000 L3033.8,-950 L2872.6000000000004,-950 L2842.6000000000004,-975.0 L2872.6000000000004,-1000 Z" fill="#ff80e6" fill-opacity="0.3" stroke="#ff80e6" stroke-width="4" />
<text x="2842.6000000000004" y="-920" font-size="26" fill="black" dy="0em">(Csm6)</text>
<path d="M3150.6000000000004,-1000 L3206.8,-1000 L3206.8,-950 L3150.6000000000004,-950 L3120.6000000000004,-975.0 L3150.6000000000004,-1000 Z" fill="#d3c9c1" fill-opacity="0.8" stroke="#d3c9c1" stroke-width="4" />
<text x="3120.6000000000004" y="-1010" font-size="20" fill="black" dy="0em">21</text>
<path d="M3258.8,-1000 L3351.0,-1000 L3351.0,-950 L3258.8,-950 L3228.8,-975.0 L3258.8,-1000 Z" fill="#d3c9c1" fill-opacity="0.8" stroke="#d3c9c1" stroke-width="4" />
<text x="3228.8" y="-920" font-size="20" fill="black" dy="0em">22</text>
<path d="M3417.4,-1000 L3405.2000000000003,-1000 L3405.2000000000003,-950 L3417.4,-950 L3387.4,-975.0 L3417.4,-1000 Z" fill="#d3c9c1" fill-opacity="0.8" stroke="#d3c9c1" stroke-width="4" />
<text x="3387.4" y="-1010" font-size="20" fill="black" dy="0em">23</text>
<path d="M3475.2000000000003,-1000 L3586.0,-1000 L3586.0,-950 L3475.2000000000003,-950 L3445.2000000000003,-975.0 L3475.2000000000003,-1000 Z" fill="#d3c9c1" fill-opacity="0.8" stroke="#d3c9c1" stroke-width="4" />
<text x="3445.2000000000003" y="-920" font-size="20" fill="black" dy="0em">24</text>
<path d="M3632.6000000000004,-1000 L3697.8,-1000 L3697.8,-950 L3632.6000000000004,-950 L3602.6000000000004,-975.0 L3632.6000000000004,-1000 Z" fill="#d3c9c1" fill-opacity="0.8" stroke="#d3c9c1" stroke-width="4" />
<text x="3602.6000000000004" y="-1010" font-size="20" fill="black" dy="0em">25</text>
<path d="M3806.8,-1000 L3852.2000000000003,-1000 L3852.2000000000003,-950 L3806.8,-950 L3776.8,-975.0 L3806.8,-1000 Z" fill="#d3c9c1" fill-opacity="0.8" stroke="#d3c9c1" stroke-width="4" />
<text x="3776.8" y="-920" font-size="20" fill="black" dy="0em">26</text>
<path d="M4428.6,-1000 L4430.2,-1000 L4460.2,-975.0 L4430.2,-950 L4428.6,-950 L4428.6,-1000 Z" fill="#d3c9c1" fill-opacity="0.8" stroke="#d3c9c1" stroke-width="4" />
<text x="4428.6" y="-1010" font-size="20" fill="black" dy="0em">27</text>
<path d="M4536.2,-1000 L4534.2,-1000 L4534.2,-950 L4536.2,-950 L4506.2,-975.0 L4536.2,-1000 Z" fill="#d3c9c1" fill-opacity="0.8" stroke="#d3c9c1" stroke-width="4" />
<text x="4506.2" y="-920" font-size="20" fill="black" dy="0em">28</text>
<path d="M10.2,-1000 L219.20000000000002,-1000 L219.20000000000002,-950 L10.2,-950 L10.2,-1000 Z" fill="white" stroke="white" stroke-width="4" />
<path d="M10.2,-1000 L16.53333333333333,-1000 L16.53333333333333,-950 L10.2,-950 L10.2,-1000 Z" fill="black" />
<path d="M16.53333333333333,-1000 L22.866666666666664,-1000 L22.866666666666664,-950 L16.53333333333333,-950 L16.53333333333333,-1000 Z" fill="#f0f0f0" />
<path d="M22.866666666666664,-1000 L29.199999999999996,-1000 L29.199999999999996,-950 L22.866666666666664,-950 L22.866666666666664,-1000 Z" fill="black" />
<path d="M29.199999999999996,-1000 L35.53333333333333,-1000 L35.53333333333333,-950 L29.199999999999996,-950 L29.199999999999996,-1000 Z" fill="#f0f0f0" />
<path d="M35.53333333333333,-1000 L41.86666666666667,-1000 L41.86666666666667,-950 L35.53333333333333,-950 L35.53333333333333,-1000 Z" fill="black" />
<path d="M41.86666666666667,-1000 L48.2,-1000 L48.2,-950 L41.86666666666667,-950 L41.86666666666667,-1000 Z" fill="#f0f0f0" />
<path d="M48.2,-1000 L54.53333333333334,-1000 L54.53333333333334,-950 L48.2,-950 L48.2,-1000 Z" fill="black" />
<path d="M54.53333333333334,-1000 L60.866666666666674,-1000 L60.866666666666674,-950 L54.53333333333334,-950 L54.53333333333334,-1000 Z" fill="#f0f0f0" />
<path d="M60.866666666666674,-1000 L67.2,-1000 L67.2,-950 L60.866666666666674,-950 L60.866666666666674,-1000 Z" fill="black" />
<path d="M67.2,-1000 L73.53333333333333,-1000 L73.53333333333333,-950 L67.2,-950 L67.2,-1000 Z" fill="#f0f0f0" />
<path d="M73.53333333333333,-1000 L79.86666666666666,-1000 L79.86666666666666,-950 L73.53333333333333,-950 L73.53333333333333,-1000 Z" fill="black" />
<path d="M79.86666666666666,-1000 L86.19999999999999,-1000 L86.19999999999999,-950 L79.86666666666666,-950 L79.86666666666666,-1000 Z" fill="#f0f0f0" />
<path d="M86.19999999999999,-1000 L92.53333333333332,-1000 L92.53333333333332,-950 L86.19999999999999,-950 L86.19999999999999,-1000 Z" fill="black" />
<path d="M92.53333333333332,-1000 L98.86666666666665,-1000 L98.86666666666665,-950 L92.53333333333332,-950 L92.53333333333332,-1000 Z" fill="#f0f0f0" />
<path d="M98.86666666666665,-1000 L105.19999999999997,-1000 L105.19999999999997,-950 L98.86666666666665,-950 L98.86666666666665,-1000 Z" fill="black" />
<path d="M105.19999999999997,-1000 L111.5333333333333,-1000 L111.5333333333333,-950 L105.19999999999997,-950 L105.19999999999997,-1000 Z" fill="#f0f0f0" />
<path d="M111.5333333333333,-1000 L117.86666666666663,-1000 L117.86666666666663,-950 L111.5333333333333,-950 L111.5333333333333,-1000 Z" fill="black" />
<path d="M117.86666666666663,-1000 L124.19999999999996,-1000 L124.19999999999996,-950 L117.86666666666663,-950 L117.86666666666663,-1000 Z" fill="#f0f0f0" />
<path d="M124.19999999999996,-1000 L130.5333333333333,-1000 L130.5333333333333,-950 L124.19999999999996,-950 L124.19999999999996,-1000 Z" fill="black" />
<path d="M130.5333333333333,-1000 L136.86666666666665,-1000 L136.86666666666665,-950 L130.5333333333333,-950 L130.5333333333333,-1000 Z" fill="#f0f0f0" />
<path d="M136.86666666666665,-1000 L143.2,-1000 L143.2,-950 L136.86666666666665,-950 L136.86666666666665,-1000 Z" fill="black" />
<path d="M143.2,-1000 L149.53333333333333,-1000 L149.53333333333333,-950 L143.2,-950 L143.2,-1000 Z" fill="#f0f0f0" />
<path d="M149.53333333333333,-1000 L155.86666666666667,-1000 L155.86666666666667,-950 L149.53333333333333,-950 L149.53333333333333,-1000 Z" fill="black" />
<path d="M155.86666666666667,-1000 L162.20000000000002,-1000 L162.20000000000002,-950 L155.86666666666667,-950 L155.86666666666667,-1000 Z" fill="#f0f0f0" />
<path d="M162.20000000000002,-1000 L168.53333333333336,-1000 L168.53333333333336,-950 L162.20000000000002,-950 L162.20000000000002,-1000 Z" fill="black" />
<path d="M168.53333333333336,-1000 L174.8666666666667,-1000 L174.8666666666667,-950 L168.53333333333336,-950 L168.53333333333336,-1000 Z" fill="#f0f0f0" />
<path d="M174.8666666666667,-1000 L181.20000000000005,-1000 L181.20000000000005,-950 L174.8666666666667,-950 L174.8666666666667,-1000 Z" fill="black" />
<path d="M181.20000000000005,-1000 L187.5333333333334,-1000 L187.5333333333334,-950 L181.20000000000005,-950 L181.20000000000005,-1000 Z" fill="#f0f0f0" />
<path d="M187.5333333333334,-1000 L193.86666666666673,-1000 L193.86666666666673,-950 L187.5333333333334,-950 L187.5333333333334,-1000 Z" fill="black" />
<path d="M193.86666666666673,-1000 L200.20000000000007,-1000 L200.20000000000007,-950 L193.86666666666673,-950 L193.86666666666673,-1000 Z" fill="#f0f0f0" />
<path d="M200.20000000000007,-1000 L206.53333333333342,-1000 L206.53333333333342,-950 L200.20000000000007,-950 L200.20000000000007,-1000 Z" fill="black" />
<path d="M206.53333333333342,-1000 L212.86666666666676,-1000 L212.86666666666676,-950 L206.53333333333342,-950 L206.53333333333342,-1000 Z" fill="#f0f0f0" />
<path d="M212.86666666666676,-1000 L219.2000000000001,-1000 L219.2000000000001,-950 L212.86666666666676,-950 L212.86666666666676,-1000 Z" fill="black" />
<text x="10.2" y="-1010" font-size="26" fill="black" dy="0em">CRISPR: I-A</text>
<path d="M3862.0,-1000 L4652.6,-1000 L4652.6,-950 L3862.0,-950 L3862.0,-1000 Z" fill="white" stroke="white" stroke-width="4" />
<path d="M3862.0,-1000 L3868.3248,-1000 L3868.3248,-950 L3862.0,-950 L3862.0,-1000 Z" fill="black" />
<path d="M3868.3248,-1000 L3874.6495999999997,-1000 L3874.6495999999997,-950 L3868.3248,-950 L3868.3248,-1000 Z" fill="#f0f0f0" />
<path d="M3874.6495999999997,-1000 L3880.9743999999996,-1000 L3880.9743999999996,-950 L3874.6495999999997,-950 L3874.6495999999997,-1000 Z" fill="black" />
<path d="M3880.9743999999996,-1000 L3887.2991999999995,-1000 L3887.2991999999995,-950 L3880.9743999999996,-950 L3880.9743999999996,-1000 Z" fill="#f0f0f0" />
<path d="M3887.2991999999995,-1000 L3893.6239999999993,-1000 L3893.6239999999993,-950 L3887.2991999999995,-950 L3887.2991999999995,-1000 Z" fill="black" />
<path d="M3893.6239999999993,-1000 L3899.948799999999,-1000 L3899.948799999999,-950 L3893.6239999999993,-950 L3893.6239999999993,-1000 Z" fill="#f0f0f0" />
<path d="M3899.948799999999,-1000 L3906.273599999999,-1000 L3906.273599999999,-950 L3899.948799999999,-950 L3899.948799999999,-1000 Z" fill="black" />
<path d="M3906.273599999999,-1000 L3912.598399999999,-1000 L3912.598399999999,-950 L3906.273599999999,-950 L3906.273599999999,-1000 Z" fill="#f0f0f0" />
<path d="M3912.598399999999,-1000 L3918.923199999999,-1000 L3918.923199999999,-950 L3912.598399999999,-950 L3912.598399999999,-1000 Z" fill="black" />
<path d="M3918.923199999999,-1000 L3925.2479999999987,-1000 L3925.2479999999987,-950 L3918.923199999999,-950 L3918.923199999999,-1000 Z" fill="#f0f0f0" />
<path d="M3925.2479999999987,-1000 L3931.5727999999986,-1000 L3931.5727999999986,-950 L3925.2479999999987,-950 L3925.2479999999987,-1000 Z" fill="black" />
<path d="M3931.5727999999986,-1000 L3937.8975999999984,-1000 L3937.8975999999984,-950 L3931.5727999999986,-950 L3931.5727999999986,-1000 Z" fill="#f0f0f0" />
<path d="M3937.8975999999984,-1000 L3944.2223999999983,-1000 L3944.2223999999983,-950 L3937.8975999999984,-950 L3937.8975999999984,-1000 Z" fill="black" />
<path d="M3944.2223999999983,-1000 L3950.547199999998,-1000 L3950.547199999998,-950 L3944.2223999999983,-950 L3944.2223999999983,-1000 Z" fill="#f0f0f0" />
<path d="M3950.547199999998,-1000 L3956.871999999998,-1000 L3956.871999999998,-950 L3950.547199999998,-950 L3950.547199999998,-1000 Z" fill="black" />
<path d="M3956.871999999998,-1000 L3963.196799999998,-1000 L3963.196799999998,-950 L3956.871999999998,-950 L3956.871999999998,-1000 Z" fill="#f0f0f0" />
<path d="M3963.196799999998,-1000 L3969.5215999999978,-1000 L3969.5215999999978,-950 L3963.196799999998,-950 L3963.196799999998,-1000 Z" fill="black" />
<path d="M3969.5215999999978,-1000 L3975.8463999999976,-1000 L3975.8463999999976,-950 L3969.5215999999978,-950 L3969.5215999999978,-1000 Z" fill="#f0f0f0" />
<path d="M3975.8463999999976,-1000 L3982.1711999999975,-1000 L3982.1711999999975,-950 L3975.8463999999976,-950 L3975.8463999999976,-1000 Z" fill="black" />
<path d="M3982.1711999999975,-1000 L3988.4959999999974,-1000 L3988.4959999999974,-950 L3982.1711999999975,-950 L3982.1711999999975,-1000 Z" fill="#f0f0f0" />
<path d="M3988.4959999999974,-1000 L3994.8207999999972,-1000 L3994.8207999999972,-950 L3988.4959999999974,-950 L3988.4959999999974,-1000 Z" fill="black" />
<path d="M3994.8207999999972,-1000 L4001.145599999997,-1000 L4001.145599999997,-950 L3994.8207999999972,-950 L3994.8207999999972,-1000 Z" fill="#f0f0f0" />
<path d="M4001.145599999997,-1000 L4007.470399999997,-1000 L4007.470399999997,-950 L4001.145599999997,-950 L4001.145599999997,-1000 Z" fill="black" />
<path d="M4007.470399999997,-1000 L4013.795199999997,-1000 L4013.795199999997,-950 L4007.470399999997,-950 L4007.470399999997,-1000 Z" fill="#f0f0f0" />
<path d="M4013.795199999997,-1000 L4020.1199999999967,-1000 L4020.1199999999967,-950 L4013.795199999997,-950 L4013.795199999997,-1000 Z" fill="black" />
<path d="M4020.1199999999967,-1000 L4026.4447999999966,-1000 L4026.4447999999966,-950 L4020.1199999999967,-950 L4020.1199999999967,-1000 Z" fill="#f0f0f0" />
<path d="M4026.4447999999966,-1000 L4032.7695999999964,-1000 L4032.7695999999964,-950 L4026.4447999999966,-950 L4026.4447999999966,-1000 Z" fill="black" />
<path d="M4032.7695999999964,-1000 L4039.0943999999963,-1000 L4039.0943999999963,-950 L4032.7695999999964,-950 L4032.7695999999964,-1000 Z" fill="#f0f0f0" />
<path d="M4039.0943999999963,-1000 L4045.419199999996,-1000 L4045.419199999996,-950 L4039.0943999999963,-950 L4039.0943999999963,-1000 Z" fill="black" />
<path d="M4045.419199999996,-1000 L4051.743999999996,-1000 L4051.743999999996,-950 L4045.419199999996,-950 L4045.419199999996,-1000 Z" fill="#f0f0f0" />
<path d="M4051.743999999996,-1000 L4058.068799999996,-1000 L4058.068799999996,-950 L4051.743999999996,-950 L4051.743999999996,-1000 Z" fill="black" />
<path d="M4058.068799999996,-1000 L4064.393599999996,-1000 L4064.393599999996,-950 L4058.068799999996,-950 L4058.068799999996,-1000 Z" fill="#f0f0f0" />
<path d="M4064.393599999996,-1000 L4070.7183999999957,-1000 L4070.7183999999957,-950 L4064.393599999996,-950 L4064.393599999996,-1000 Z" fill="black" />
<path d="M4070.7183999999957,-1000 L4077.0431999999955,-1000 L4077.0431999999955,-950 L4070.7183999999957,-950 L4070.7183999999957,-1000 Z" fill="#f0f0f0" />
<path d="M4077.0431999999955,-1000 L4083.3679999999954,-1000 L4083.3679999999954,-950 L4077.0431999999955,-950 L4077.0431999999955,-1000 Z" fill="black" />
<path d="M4083.3679999999954,-1000 L4089.6927999999953,-1000 L4089.6927999999953,-950 L4083.3679999999954,-950 L4083.3679999999954,-1000 Z" fill="#f0f0f0" />
<path d="M4089.6927999999953,-1000 L4096.017599999996,-1000 L4096.017599999996,-950 L4089.6927999999953,-950 L4089.6927999999953,-1000 Z" fill="black" />
<path d="M4096.017599999996,-1000 L4102.342399999996,-1000 L4102.342399999996,-950 L4096.017599999996,-950 L4096.017599999996,-1000 Z" fill="#f0f0f0" />
<path d="M4102.342399999996,-1000 L4108.667199999996,-1000 L4108.667199999996,-950 L4102.342399999996,-950 L4102.342399999996,-1000 Z" fill="black" />
<path d="M4108.667199999996,-1000 L4114.991999999997,-1000 L4114.991999999997,-950 L4108.667199999996,-950 L4108.667199999996,-1000 Z" fill="#f0f0f0" />
<path d="M4114.991999999997,-1000 L4121.316799999997,-1000 L4121.316799999997,-950 L4114.991999999997,-950 L4114.991999999997,-1000 Z" fill="black" />
<path d="M4121.316799999997,-1000 L4127.641599999997,-1000 L4127.641599999997,-950 L4121.316799999997,-950 L4121.316799999997,-1000 Z" fill="#f0f0f0" />
<path d="M4127.641599999997,-1000 L4133.9663999999975,-1000 L4133.9663999999975,-950 L4127.641599999997,-950 L4127.641599999997,-1000 Z" fill="black" />
<path d="M4133.9663999999975,-1000 L4140.291199999998,-1000 L4140.291199999998,-950 L4133.9663999999975,-950 L4133.9663999999975,-1000 Z" fill="#f0f0f0" />
<path d="M4140.291199999998,-1000 L4146.615999999998,-1000 L4146.615999999998,-950 L4140.291199999998,-950 L4140.291199999998,-1000 Z" fill="black" />
<path d="M4146.615999999998,-1000 L4152.9407999999985,-1000 L4152.9407999999985,-950 L4146.615999999998,-950 L4146.615999999998,-1000 Z" fill="#f0f0f0" />
<path d="M4152.9407999999985,-1000 L4159.265599999999,-1000 L4159.265599999999,-950 L4152.9407999999985,-950 L4152.9407999999985,-1000 Z" fill="black" />
<path d="M4159.265599999999,-1000 L4165.590399999999,-1000 L4165.590399999999,-950 L4159.265599999999,-950 L4159.265599999999,-1000 Z" fill="#f0f0f0" />
<path d="M4165.590399999999,-1000 L4171.9151999999995,-1000 L4171.9151999999995,-950 L4165.590399999999,-950 L4165.590399999999,-1000 Z" fill="black" />
<path d="M4171.9151999999995,-1000 L4178.24,-1000 L4178.24,-950 L4171.9151999999995,-950 L4171.9151999999995,-1000 Z" fill="#f0f0f0" />
<path d="M4178.24,-1000 L4184.5648,-1000 L4184.5648,-950 L4178.24,-950 L4178.24,-1000 Z" fill="black" />
<path d="M4184.5648,-1000 L4190.8896,-1000 L4190.8896,-950 L4184.5648,-950 L4184.5648,-1000 Z" fill="#f0f0f0" />
<path d="M4190.8896,-1000 L4197.214400000001,-1000 L4197.214400000001,-950 L4190.8896,-950 L4190.8896,-1000 Z" fill="black" />
<path d="M4197.214400000001,-1000 L4203.539200000001,-1000 L4203.539200000001,-950 L4197.214400000001,-950 L4197.214400000001,-1000 Z" fill="#f0f0f0" />
<path d="M4203.539200000001,-1000 L4209.864000000001,-1000 L4209.864000000001,-950 L4203.539200000001,-950 L4203.539200000001,-1000 Z" fill="black" />
<path d="M4209.864000000001,-1000 L4216.188800000002,-1000 L4216.188800000002,-950 L4209.864000000001,-950 L4209.864000000001,-1000 Z" fill="#f0f0f0" />
<path d="M4216.188800000002,-1000 L4222.513600000002,-1000 L4222.513600000002,-950 L4216.188800000002,-950 L4216.188800000002,-1000 Z" fill="black" />
<path d="M4222.513600000002,-1000 L4228.838400000002,-1000 L4228.838400000002,-950 L4222.513600000002,-950 L4222.513600000002,-1000 Z" fill="#f0f0f0" />
<path d="M4228.838400000002,-1000 L4235.163200000003,-1000 L4235.163200000003,-950 L4228.838400000002,-950 L4228.838400000002,-1000 Z" fill="black" />
<path d="M4235.163200000003,-1000 L4241.488000000003,-1000 L4241.488000000003,-950 L4235.163200000003,-950 L4235.163200000003,-1000 Z" fill="#f0f0f0" />
<path d="M4241.488000000003,-1000 L4247.812800000003,-1000 L4247.812800000003,-950 L4241.488000000003,-950 L4241.488000000003,-1000 Z" fill="black" />
<path d="M4247.812800000003,-1000 L4254.137600000004,-1000 L4254.137600000004,-950 L4247.812800000003,-950 L4247.812800000003,-1000 Z" fill="#f0f0f0" />
<path d="M4254.137600000004,-1000 L4260.462400000004,-1000 L4260.462400000004,-950 L4254.137600000004,-950 L4254.137600000004,-1000 Z" fill="black" />
<path d="M4260.462400000004,-1000 L4266.787200000004,-1000 L4266.787200000004,-950 L4260.462400000004,-950 L4260.462400000004,-1000 Z" fill="#f0f0f0" />
<path d="M4266.787200000004,-1000 L4273.112000000005,-1000 L4273.112000000005,-950 L4266.787200000004,-950 L4266.787200000004,-1000 Z" fill="black" />
<path d="M4273.112000000005,-1000 L4279.436800000005,-1000 L4279.436800000005,-950 L4273.112000000005,-950 L4273.112000000005,-1000 Z" fill="#f0f0f0" />
<path d="M4279.436800000005,-1000 L4285.761600000005,-1000 L4285.761600000005,-950 L4279.436800000005,-950 L4279.436800000005,-1000 Z" fill="black" />
<path d="M4285.761600000005,-1000 L4292.086400000006,-1000 L4292.086400000006,-950 L4285.761600000005,-950 L4285.761600000005,-1000 Z" fill="#f0f0f0" />
<path d="M4292.086400000006,-1000 L4298.411200000006,-1000 L4298.411200000006,-950 L4292.086400000006,-950 L4292.086400000006,-1000 Z" fill="black" />
<path d="M4298.411200000006,-1000 L4304.736000000006,-1000 L4304.736000000006,-950 L4298.411200000006,-950 L4298.411200000006,-1000 Z" fill="#f0f0f0" />
<path d="M4304.736000000006,-1000 L4311.060800000007,-1000 L4311.060800000007,-950 L4304.736000000006,-950 L4304.736000000006,-1000 Z" fill="black" />
<path d="M4311.060800000007,-1000 L4317.385600000007,-1000 L4317.385600000007,-950 L4311.060800000007,-950 L4311.060800000007,-1000 Z" fill="#f0f0f0" />
<path d="M4317.385600000007,-1000 L4323.710400000007,-1000 L4323.710400000007,-950 L4317.385600000007,-950 L4317.385600000007,-1000 Z" fill="black" />
<path d="M4323.710400000007,-1000 L4330.0352000000075,-1000 L4330.0352000000075,-950 L4323.710400000007,-950 L4323.710400000007,-1000 Z" fill="#f0f0f0" />
<path d="M4330.0352000000075,-1000 L4336.360000000008,-1000 L4336.360000000008,-950 L4330.0352000000075,-950 L4330.0352000000075,-1000 Z" fill="black" />
<path d="M4336.360000000008,-1000 L4342.684800000008,-1000 L4342.684800000008,-950 L4336.360000000008,-950 L4336.360000000008,-1000 Z" fill="#f0f0f0" />
<path d="M4342.684800000008,-1000 L4349.0096000000085,-1000 L4349.0096000000085,-950 L4342.684800000008,-950 L4342.684800000008,-1000 Z" fill="black" />
<path d="M4349.0096000000085,-1000 L4355.334400000009,-1000 L4355.334400000009,-950 L4349.0096000000085,-950 L4349.0096000000085,-1000 Z" fill="#f0f0f0" />
<path d="M4355.334400000009,-1000 L4361.659200000009,-1000 L4361.659200000009,-950 L4355.334400000009,-950 L4355.334400000009,-1000 Z" fill="black" />
<path d="M4361.659200000009,-1000 L4367.9840000000095,-1000 L4367.9840000000095,-950 L4361.659200000009,-950 L4361.659200000009,-1000 Z" fill="#f0f0f0" />
<path d="M4367.9840000000095,-1000 L4374.30880000001,-1000 L4374.30880000001,-950 L4367.9840000000095,-950 L4367.9840000000095,-1000 Z" fill="black" />
<path d="M4374.30880000001,-1000 L4380.63360000001,-1000 L4380.63360000001,-950 L4374.30880000001,-950 L4374.30880000001,-1000 Z" fill="#f0f0f0" />
<path d="M4380.63360000001,-1000 L4386.95840000001,-1000 L4386.95840000001,-950 L4380.63360000001,-950 L4380.63360000001,-1000 Z" fill="black" />
<path d="M4386.95840000001,-1000 L4393.283200000011,-1000 L4393.283200000011,-950 L4386.95840000001,-950 L4386.95840000001,-1000 Z" fill="#f0f0f0" />
<path d="M4393.283200000011,-1000 L4399.608000000011,-1000 L4399.608000000011,-950 L4393.283200000011,-950 L4393.283200000011,-1000 Z" fill="black" />
<path d="M4399.608000000011,-1000 L4405.932800000011,-1000 L4405.932800000011,-950 L4399.608000000011,-950 L4399.608000000011,-1000 Z" fill="#f0f0f0" />
<path d="M4405.932800000011,-1000 L4412.257600000012,-1000 L4412.257600000012,-950 L4405.932800000011,-950 L4405.932800000011,-1000 Z" fill="black" />
<path d="M4412.257600000012,-1000 L4418.582400000012,-1000 L4418.582400000012,-950 L4412.257600000012,-950 L4412.257600000012,-1000 Z" fill="#f0f0f0" />
<path d="M4418.582400000012,-1000 L4424.907200000012,-1000 L4424.907200000012,-950 L4418.582400000012,-950 L4418.582400000012,-1000 Z" fill="black" />
<path d="M4424.907200000012,-1000 L4431.232000000013,-1000 L4431.232000000013,-950 L4424.907200000012,-950 L4424.907200000012,-1000 Z" fill="#f0f0f0" />
<path d="M4431.232000000013,-1000 L4437.556800000013,-1000 L4437.556800000013,-950 L4431.232000000013,-950 L4431.232000000013,-1000 Z" fill="black" />
<path d="M4437.556800000013,-1000 L4443.881600000013,-1000 L4443.881600000013,-950 L4437.556800000013,-950 L4437.556800000013,-1000 Z" fill="#f0f0f0" />
<path d="M4443.881600000013,-1000 L4450.206400000014,-1000 L4450.206400000014,-950 L4443.881600000013,-950 L4443.881600000013,-1000 Z" fill="black" />
<path d="M4450.206400000014,-1000 L4456.531200000014,-1000 L4456.531200000014,-950 L4450.206400000014,-950 L4450.206400000014,-1000 Z" fill="#f0f0f0" />
<path d="M4456.531200000014,-1000 L4462.856000000014,-1000 L4462.856000000014,-950 L4456.531200000014,-950 L4456.531200000014,-1000 Z" fill="black" />
<path d="M4462.856000000014,-1000 L4469.180800000015,-1000 L4469.180800000015,-950 L4462.856000000014,-950 L4462.856000000014,-1000 Z" fill="#f0f0f0" />
<path d="M4469.180800000015,-1000 L4475.505600000015,-1000 L4475.505600000015,-950 L4469.180800000015,-950 L4469.180800000015,-1000 Z" fill="black" />
<path d="M4475.505600000015,-1000 L4481.830400000015,-1000 L4481.830400000015,-950 L4475.505600000015,-950 L4475.505600000015,-1000 Z" fill="#f0f0f0" />
<path d="M4481.830400000015,-1000 L4488.155200000016,-1000 L4488.155200000016,-950 L4481.830400000015,-950 L4481.830400000015,-1000 Z" fill="black" />
<path d="M4488.155200000016,-1000 L4494.480000000016,-1000 L4494.480000000016,-950 L4488.155200000016,-950 L4488.155200000016,-1000 Z" fill="#f0f0f0" />
<path d="M4494.480000000016,-1000 L4500.804800000016,-1000 L4500.804800000016,-950 L4494.480000000016,-950 L4494.480000000016,-1000 Z" fill="black" />
<path d="M4500.804800000016,-1000 L4507.129600000017,-1000 L4507.129600000017,-950 L4500.804800000016,-950 L4500.804800000016,-1000 Z" fill="#f0f0f0" />
<path d="M4507.129600000017,-1000 L4513.454400000017,-1000 L4513.454400000017,-950 L4507.129600000017,-950 L4507.129600000017,-1000 Z" fill="black" />
<path d="M4513.454400000017,-1000 L4519.779200000017,-1000 L4519.779200000017,-950 L4513.454400000017,-950 L4513.454400000017,-1000 Z" fill="#f0f0f0" />
<path d="M4519.779200000017,-1000 L4526.104000000018,-1000 L4526.104000000018,-950 L4519.779200000017,-950 L4519.779200000017,-1000 Z" fill="black" />
<path d="M4526.104000000018,-1000 L4532.428800000018,-1000 L4532.428800000018,-950 L4526.104000000018,-950 L4526.104000000018,-1000 Z" fill="#f0f0f0" />
<path d="M4532.428800000018,-1000 L4538.753600000018,-1000 L4538.753600000018,-950 L4532.428800000018,-950 L4532.428800000018,-1000 Z" fill="black" />
<path d="M4538.753600000018,-1000 L4545.0784000000185,-1000 L4545.0784000000185,-950 L4538.753600000018,-950 L4538.753600000018,-1000 Z" fill="#f0f0f0" />
<path d="M4545.0784000000185,-1000 L4551.403200000019,-1000 L4551.403200000019,-950 L4545.0784000000185,-950 L4545.0784000000185,-1000 Z" fill="black" />
<path d="M4551.403200000019,-1000 L4557.728000000019,-1000 L4557.728000000019,-950 L4551.403200000019,-950 L4551.403200000019,-1000 Z" fill="#f0f0f0" />
<path d="M4557.728000000019,-1000 L4564.0528000000195,-1000 L4564.0528000000195,-950 L4557.728000000019,-950 L4557.728000000019,-1000 Z" fill="black" />
<path d="M4564.0528000000195,-1000 L4570.37760000002,-1000 L4570.37760000002,-950 L4564.0528000000195,-950 L4564.0528000000195,-1000 Z" fill="#f0f0f0" />
<path d="M4570.37760000002,-1000 L4576.70240000002,-1000 L4576.70240000002,-950 L4570.37760000002,-950 L4570.37760000002,-1000 Z" fill="black" />
<path d="M4576.70240000002,-1000 L4583.0272000000205,-1000 L4583.0272000000205,-950 L4576.70240000002,-950 L4576.70240000002,-1000 Z" fill="#f0f0f0" />
<path d="M4583.0272000000205,-1000 L4589.352000000021,-1000 L4589.352000000021,-950 L4583.0272000000205,-950 L4583.0272000000205,-1000 Z" fill="black" />
<path d="M4589.352000000021,-1000 L4595.676800000021,-1000 L4595.676800000021,-950 L4589.352000000021,-950 L4589.352000000021,-1000 Z" fill="#f0f0f0" />
<path d="M4595.676800000021,-1000 L4602.001600000021,-1000 L4602.001600000021,-950 L4595.676800000021,-950 L4595.676800000021,-1000 Z" fill="black" />
<path d="M4602.001600000021,-1000 L4608.326400000022,-1000 L4608.326400000022,-950 L4602.001600000021,-950 L4602.001600000021,-1000 Z" fill="#f0f0f0" />
<path d="M4608.326400000022,-1000 L4614.651200000022,-1000 L4614.651200000022,-950 L4608.326400000022,-950 L4608.326400000022,-1000 Z" fill="black" />
<path d="M4614.651200000022,-1000 L4620.976000000022,-1000 L4620.976000000022,-950 L4614.651200000022,-950 L4614.651200000022,-1000 Z" fill="#f0f0f0" />
<path d="M4620.976000000022,-1000 L4627.300800000023,-1000 L4627.300800000023,-950 L4620.976000000022,-950 L4620.976000000022,-1000 Z" fill="black" />
<path d="M4627.300800000023,-1000 L4633.625600000023,-1000 L4633.625600000023,-950 L4627.300800000023,-950 L4627.300800000023,-1000 Z" fill="#f0f0f0" />
<path d="M4633.625600000023,-1000 L4639.950400000023,-1000 L4639.950400000023,-950 L4633.625600000023,-950 L4633.625600000023,-1000 Z" fill="black" />
<path d="M4639.950400000023,-1000 L4646.275200000024,-1000 L4646.275200000024,-950 L4639.950400000023,-950 L4639.950400000023,-1000 Z" fill="#f0f0f0" />
<path d="M4646.275200000024,-1000 L4652.600000000024,-1000 L4652.600000000024,-950 L4646.275200000024,-950 L4646.275200000024,-1000 Z" fill="black" />
<text x="3862.0" y="-1010" font-size="26" fill="black" dy="0em">CRISPR: I-A</text>
<path d="M10.2,-1000 L206.20000000000002,-1000 L206.20000000000002,-950 L10.2,-950 L10.2,-1000 Z" fill="white" stroke="white" stroke-width="4" />
<path d="M10.2,-1000 L16.52258064516129,-1000 L16.52258064516129,-950 L10.2,-950 L10.2,-1000 Z" fill="black" />
<path d="M16.52258064516129,-1000 L22.84516129032258,-1000 L22.84516129032258,-950 L16.52258064516129,-950 L16.52258064516129,-1000 Z" fill="#f0f0f0" />
<path d="M22.84516129032258,-1000 L29.167741935483868,-1000 L29.167741935483868,-950 L22.84516129032258,-950 L22.84516129032258,-1000 Z" fill="black" />
<path d="M29.167741935483868,-1000 L35.490322580645156,-1000 L35.490322580645156,-950 L29.167741935483868,-950 L29.167741935483868,-1000 Z" fill="#f0f0f0" />
<path d="M35.490322580645156,-1000 L41.812903225806444,-1000 L41.812903225806444,-950 L35.490322580645156,-950 L35.490322580645156,-1000 Z" fill="black" />
<path d="M41.812903225806444,-1000 L48.13548387096773,-1000 L48.13548387096773,-950 L41.812903225806444,-950 L41.812903225806444,-1000 Z" fill="#f0f0f0" />
<path d="M48.13548387096773,-1000 L54.45806451612902,-1000 L54.45806451612902,-950 L48.13548387096773,-950 L48.13548387096773,-1000 Z" fill="black" />
<path d="M54.45806451612902,-1000 L60.78064516129031,-1000 L60.78064516129031,-950 L54.45806451612902,-950 L54.45806451612902,-1000 Z" fill="#f0f0f0" />
<path d="M60.78064516129031,-1000 L67.1032258064516,-1000 L67.1032258064516,-950 L60.78064516129031,-950 L60.78064516129031,-1000 Z" fill="black" />
<path d="M67.1032258064516,-1000 L73.4258064516129,-1000 L73.4258064516129,-950 L67.1032258064516,-950 L67.1032258064516,-1000 Z" fill="#f0f0f0" />
<path d="M73.4258064516129,-1000 L79.7483870967742,-1000 L79.7483870967742,-950 L73.4258064516129,-950 L73.4258064516129,-1000 Z" fill="black" />
<path d="M79.7483870967742,-1000 L86.07096774193549,-1000 L86.07096774193549,-950 L79.7483870967742,-950 L79.7483870967742,-1000 Z" fill="#f0f0f0" />
<path d="M86.07096774193549,-1000 L92.39354838709679,-1000 L92.39354838709679,-950 L86.07096774193549,-950 L86.07096774193549,-1000 Z" fill="black" />
<path d="M92.39354838709679,-1000 L98.71612903225808,-1000 L98.71612903225808,-950 L92.39354838709679,-950 L92.39354838709679,-1000 Z" fill="#f0f0f0" />
<path d="M98.71612903225808,-1000 L105.03870967741938,-1000 L105.03870967741938,-950 L98.71612903225808,-950 L98.71612903225808,-1000 Z" fill="black" />
<path d="M105.03870967741938,-1000 L111.36129032258067,-1000 L111.36129032258067,-950 L105.03870967741938,-950 L105.03870967741938,-1000 Z" fill="#f0f0f0" />
<path d="M111.36129032258067,-1000 L117.68387096774197,-1000 L117.68387096774197,-950 L111.36129032258067,-950 L111.36129032258067,-1000 Z" fill="black" />
<path d="M117.68387096774197,-1000 L124.00645161290326,-1000 L124.00645161290326,-950 L117.68387096774197,-950 L117.68387096774197,-1000 Z" fill="#f0f0f0" />
<path d="M124.00645161290326,-1000 L130.32903225806456,-1000 L130.32903225806456,-950 L124.00645161290326,-950 L124.00645161290326,-1000 Z" fill="black" />
<path d="M130.32903225806456,-1000 L136.65161290322584,-1000 L136.65161290322584,-950 L130.32903225806456,-950 L130.32903225806456,-1000 Z" fill="#f0f0f0" />
<path d="M136.65161290322584,-1000 L142.97419354838712,-1000 L142.97419354838712,-950 L136.65161290322584,-950 L136.65161290322584,-1000 Z" fill="black" />
<path d="M142.97419354838712,-1000 L149.2967741935484,-1000 L149.2967741935484,-950 L142.97419354838712,-950 L142.97419354838712,-1000 Z" fill="#f0f0f0" />
<path d="M149.2967741935484,-1000 L155.61935483870968,-1000 L155.61935483870968,-950 L149.2967741935484,-950 L149.2967741935484,-1000 Z" fill="black" />
<path d="M155.61935483870968,-1000 L161.94193548387096,-1000 L161.94193548387096,-950 L155.61935483870968,-950 L155.61935483870968,-1000 Z" fill="#f0f0f0" />
<path d="M161.94193548387096,-1000 L168.26451612903224,-1000 L168.26451612903224,-950 L161.94193548387096,-950 L161.94193548387096,-1000 Z" fill="black" />
<path d="M168.26451612903224,-1000 L174.58709677419353,-1000 L174.58709677419353,-950 L168.26451612903224,-950 L168.26451612903224,-1000 Z" fill="#f0f0f0" />
<path d="M174.58709677419353,-1000 L180.9096774193548,-1000 L180.9096774193548,-950 L174.58709677419353,-950 L174.58709677419353,-1000 Z" fill="black" />
<path d="M180.9096774193548,-1000 L187.2322580645161,-1000 L187.2322580645161,-950 L180.9096774193548,-950 L180.9096774193548,-1000 Z" fill="#f0f0f0" />
<path d="M187.2322580645161,-1000 L193.55483870967737,-1000 L193.55483870967737,-950 L187.2322580645161,-950 L187.2322580645161,-1000 Z" fill="black" />
<path d="M193.55483870967737,-1000 L199.87741935483865,-1000 L199.87741935483865,-950 L193.55483870967737,-950 L193.55483870967737,-1000 Z" fill="#f0f0f0" />
<path d="M199.87741935483865,-1000 L206.19999999999993,-1000 L206.19999999999993,-950 L199.87741935483865,-950 L199.87741935483865,-1000 Z" fill="black" />
<text x="10.2" y="-1010" font-size="26" fill="black" dy="0em">CRISPR: I-A</text>
<text x="16.0" y="-860" font-size="38" fill="black" dy="0em">I-A: AHJL01000003@3 (19309-38186)</text>
<path d="M576.8000000000001,-800 L578.4,-800 L608.4,-775.0 L578.4,-750 L576.8000000000001,-750 L576.8000000000001,-800 Z" fill="#d3c9c1" fill-opacity="0.8" stroke="#d3c9c1" stroke-width="4" />
<text x="576.8000000000001" y="-810" font-size="20" fill="black" dy="0em">27</text>
<path d="M684.4000000000001,-800 L682.4000000000001,-800 L682.4000000000001,-750 L684.4000000000001,-750 L654.4000000000001,-775.0 L684.4000000000001,-800 Z" fill="#d3c9c1" fill-opacity="0.8" stroke="#d3c9c1" stroke-width="4" />
<text x="654.4000000000001" y="-720" font-size="20" fill="black" dy="0em">28</text>
<path d="M879.4000000000001,-800 L1017.2,-800 L1047.2,-775.0 L1017.2,-750 L879.4000000000001,-750 L879.4000000000001,-800 Z" fill="#5b5ea6" fill-opacity="0.8" stroke="#5b5ea6" stroke-width="4" />
<text x="879.4000000000001" y="-810" font-size="26" fill="black" dy="0em">Cas4</text>
<path d="M1048.4,-800 L1201.2,-800 L1231.2,-775.0 L1201.2,-750 L1048.4,-750 L1048.4,-800 Z" fill="#5b5ea6" fill-opacity="0.8" stroke="#5b5ea6" stroke-width="4" />
<text x="1048.4" y="-720" font-size="26" fill="black" dy="0em">Cas1</text>
<path d="M1231.4,-800 L1254.6000000000001,-800 L1284.6000000000001,-775.0 L1254.6000000000001,-750 L1231.4,-750 L1231.4,-800 Z" fill="#5b5ea6" fill-opacity="0.8" stroke="#5b5ea6" stroke-width="4" />
<text x="1231.4" y="-810" font-size="26" fill="black" dy="0em">Cas2</text>
<path d="M1282.2,-800 L1357.6000000000001,-800 L1387.6000000000001,-775.0 L1357.6000000000001,-750 L1282.2,-750 L1282.2,-800 Z" fill="#5b5ea6" fill-opacity="0.8" stroke="#5b5ea6" stroke-width="4" />
<text x="1282.2" y="-720" font-size="26" fill="black" dy="0em">Cas4</text>
<path d="M1547.2,-800 L1659.8000000000002,-800 L1659.8000000000002,-750 L1547.2,-750 L1517.2,-775.0 L1547.2,-800 Z" fill="#ff80e6" fill-opacity="0.8" stroke="#ff80e6" stroke-width="4" />
<text x="1517.2" y="-810" font-size="26" fill="black" dy="0em">CasR</text>
<path d="M1814.6000000000001,-800 L1827.6000000000001,-800 L1827.6000000000001,-750 L1814.6000000000001,-750 L1784.6000000000001,-775.0 L1814.6000000000001,-800 Z" fill="#d3c9c1" fill-opacity="0.8" stroke="#d3c9c1" stroke-width="4" />
<text x="1784.6000000000001" y="-720" font-size="20" fill="black" dy="0em">34</text>
<path d="M1962.4,-800 L2006.0,-800 L2006.0,-750 L1962.4,-750 L1932.4,-775.0 L1962.4,-800 Z" fill="#d3c9c1" fill-opacity="0.8" stroke="#d3c9c1" stroke-width="4" />
<text x="1932.4" y="-810" font-size="20" fill="black" dy="0em">35</text>
<path d="M2398.4,-800 L2490.6000000000004,-800 L2520.6000000000004,-775.0 L2490.6000000000004,-750 L2398.4,-750 L2398.4,-800 Z" fill="#ff80e6" fill-opacity="0.8" stroke="#ff80e6" stroke-width="4" />
<text x="2398.4" y="-720" font-size="26" fill="black" dy="0em">CasR</text>
<path d="M2536.4,-800 L2592.0,-800 L2622.0,-775.0 L2592.0,-750 L2536.4,-750 L2536.4,-800 Z" fill="#efc050" fill-opacity="0.8" stroke="#efc050" stroke-width="4" />
<text x="2536.4" y="-810" font-size="26" fill="black" dy="0em">Csa5gr11</text>
<path d="M2621.4,-800 L2784.4,-800 L2814.4,-775.0 L2784.4,-750 L2621.4,-750 L2621.4,-800 Z" fill="#efc050" fill-opacity="0.8" stroke="#efc050" stroke-width="4" />
<text x="2621.4" y="-720" font-size="26" fill="black" dy="0em">Cas7</text>
<path d="M2817.6000000000004,-800 L2932.0,-800 L2962.0,-775.0 L2932.0,-750 L2817.6000000000004,-750 L2817.6000000000004,-800 Z" fill="#efc050" fill-opacity="0.8" stroke="#efc050" stroke-width="4" />
<text x="2817.6000000000004" y="-810" font-size="26" fill="black" dy="0em">Cas5</text>
<path d="M2958.8,-800 L3183.0,-800 L3213.0,-775.0 L3183.0,-750 L2958.8,-750 L2958.8,-800 Z" fill="#efc050" fill-opacity="0.8" stroke="#efc050" stroke-width="4" />
<text x="2958.8" y="-720" font-size="26" fill="black" dy="0em">Cas3</text>
<path d="M3205.6000000000004,-800 L3230.0,-800 L3260.0,-775.0 L3230.0,-750 L3205.6000000000004,-750 L3205.6000000000004,-800 Z" fill="#d3c9c1" fill-opacity="0.8" stroke="#d3c9c1" stroke-width="4" />
<text x="3205.6000000000004" y="-810" font-size="20" fill="black" dy="0em">41</text>
<path d="M3259.4,-800 L3350.4,-800 L3380.4,-775.0 L3350.4,-750 L3259.4,-750 L3259.4,-800 Z" fill="#efc050" fill-opacity="0.8" stroke="#efc050" stroke-width="4" />
<text x="3259.4" y="-720" font-size="26" fill="black" dy="0em">Cas3HD</text>
<path d="M3399.2000000000003,-800 L3415.8,-800 L3445.8,-775.0 L3415.8,-750 L3399.2000000000003,-750 L3399.2000000000003,-800 Z" fill="#efc050" fill-opacity="0.3" stroke="#efc050" stroke-width="4" />
<text x="3399.2000000000003" y="-810" font-size="26" fill="black" dy="0em">(CsaX)</text>
<path d="M3467.4,-800 L3576.4,-800 L3606.4,-775.0 L3576.4,-750 L3467.4,-750 L3467.4,-800 Z" fill="#efc050" fill-opacity="0.8" stroke="#efc050" stroke-width="4" />
<text x="3467.4" y="-720" font-size="26" fill="black" dy="0em">Cas8a1</text>
<path d="M3606.4,-800 L3755.6000000000004,-800 L3785.6000000000004,-775.0 L3755.6000000000004,-750 L3606.4,-750 L3606.4,-800 Z" fill="#dd1424" fill-opacity="0.8" stroke="#dd1424" stroke-width="4" />
<text x="3606.4" y="-810" font-size="26" fill="black" dy="0em">Cas6</text>
<path d="M10.2,-800 L800.8000000000001,-800 L800.8000000000001,-750 L10.2,-750 L10.2,-800 Z" fill="white" stroke="white" stroke-width="4" />
<path d="M10.2,-800 L16.5248,-800 L16.5248,-750 L10.2,-750 L10.2,-800 Z" fill="black" />
<path d="M16.5248,-800 L22.8496,-800 L22.8496,-750 L16.5248,-750 L16.5248,-800 Z" fill="#f0f0f0" />
<path d="M22.8496,-800 L29.1744,-800 L29.1744,-750 L22.8496,-750 L22.8496,-800 Z" fill="black" />
<path d="M29.1744,-800 L35.4992,-800 L35.4992,-750 L29.1744,-750 L29.1744,-800 Z" fill="#f0f0f0" />
<path d="M35.4992,-800 L41.824,-800 L41.824,-750 L35.4992,-750 L35.4992,-800 Z" fill="black" />
<path d="M41.824,-800 L48.148799999999994,-800 L48.148799999999994,-750 L41.824,-750 L41.824,-800 Z" fill="#f0f0f0" />
<path d="M48.148799999999994,-800 L54.47359999999999,-800 L54.47359999999999,-750 L48.148799999999994,-750 L48.148799999999994,-800 Z" fill="black" />
<path d="M54.47359999999999,-800 L60.79839999999999,-800 L60.79839999999999,-750 L54.47359999999999,-750 L54.47359999999999,-800 Z" fill="#f0f0f0" />
<path d="M60.79839999999999,-800 L67.12319999999998,-800 L67.12319999999998,-750 L60.79839999999999,-750 L60.79839999999999,-800 Z" fill="black" />
<path d="M67.12319999999998,-800 L73.44799999999998,-800 L73.44799999999998,-750 L67.12319999999998,-750 L67.12319999999998,-800 Z" fill="#f0f0f0" />
<path d="M73.44799999999998,-800 L79.77279999999998,-800 L79.77279999999998,-750 L73.44799999999998,-750 L73.44799999999998,-800 Z" fill="black" />
<path d="M79.77279999999998,-800 L86.09759999999997,-800 L86.09759999999997,-750 L79.77279999999998,-750 L79.77279999999998,-800 Z" fill="#f0f0f0" />
<path d="M86.09759999999997,-800 L92.42239999999997,-800 L92.42239999999997,-750 L86.09759999999997,-750 L86.09759999999997,-800 Z" fill="black" />
<path d="M92.42239999999997,-800 L98.74719999999996,-800 L98.74719999999996,-750 L92.42239999999997,-750 L92.42239999999997,-800 Z" fill="#f0f0f0" />
<path d="M98.74719999999996,-800 L105.07199999999996,-800 L105.07199999999996,-750 L98.74719999999996,-750 L98.74719999999996,-800 Z" fill="black" />
<path d="M105.07199999999996,-800 L111.39679999999996,-800 L111.39679999999996,-750 L105.07199999999996,-750 L105.07199999999996,-800 Z" fill="#f0f0f0" />
<path d="M111.39679999999996,-800 L117.72159999999995,-800 L117.72159999999995,-750 L111.39679999999996,-750 L111.39679999999996,-800 Z" fill="black" />
<path d="M117.72159999999995,-800 L124.04639999999995,-800 L124.04639999999995,-750 L117.72159999999995,-750 L117.72159999999995,-800 Z" fill="#f0f0f0" />
<path d="M124.04639999999995,-800 L130.37119999999996,-800 L130.37119999999996,-750 L124.04639999999995,-750 L124.04639999999995,-800 Z" fill="black" />
<path d="M130.37119999999996,-800 L136.69599999999997,-800 L136.69599999999997,-750 L130.37119999999996,-750 L130.37119999999996,-800 Z" fill="#f0f0f0" />
<path d="M136.69599999999997,-800 L143.02079999999998,-800 L143.02079999999998,-750 L136.69599999999997,-750 L136.69599999999997,-800 Z" fill="black" />
<path d="M143.02079999999998,-800 L149.3456,-800 L149.3456,-750 L143.02079999999998,-750 L143.02079999999998,-800 Z" fill="#f0f0f0" />
<path d="M149.3456,-800 L155.6704,-800 L155.6704,-750 L149.3456,-750 L149.3456,-800 Z" fill="black" />
<path d="M155.6704,-800 L161.9952,-800 L161.9952,-750 L155.6704,-750 L155.6704,-800 Z" fill="#f0f0f0" />
<path d="M161.9952,-800 L168.32000000000002,-800 L168.32000000000002,-750 L161.9952,-750 L161.9952,-800 Z" fill="black" />
<path d="M168.32000000000002,-800 L174.64480000000003,-800 L174.64480000000003,-750 L168.32000000000002,-750 L168.32000000000002,-800 Z" fill="#f0f0f0" />
<path d="M174.64480000000003,-800 L180.96960000000004,-800 L180.96960000000004,-750 L174.64480000000003,-750 L174.64480000000003,-800 Z" fill="black" />
<path d="M180.96960000000004,-800 L187.29440000000005,-800 L187.29440000000005,-750 L180.96960000000004,-750 L180.96960000000004,-800 Z" fill="#f0f0f0" />
<path d="M187.29440000000005,-800 L193.61920000000006,-800 L193.61920000000006,-750 L187.29440000000005,-750 L187.29440000000005,-800 Z" fill="black" />
<path d="M193.61920000000006,-800 L199.94400000000007,-800 L199.94400000000007,-750 L193.61920000000006,-750 L193.61920000000006,-800 Z" fill="#f0f0f0" />
<path d="M199.94400000000007,-800 L206.26880000000008,-800 L206.26880000000008,-750 L199.94400000000007,-750 L199.94400000000007,-800 Z" fill="black" />
<path d="M206.26880000000008,-800 L212.5936000000001,-800 L212.5936000000001,-750 L206.26880000000008,-750 L206.26880000000008,-800 Z" fill="#f0f0f0" />
<path d="M212.5936000000001,-800 L218.9184000000001,-800 L218.9184000000001,-750 L212.5936000000001,-750 L212.5936000000001,-800 Z" fill="black" />
<path d="M218.9184000000001,-800 L225.24320000000012,-800 L225.24320000000012,-750 L218.9184000000001,-750 L218.9184000000001,-800 Z" fill="#f0f0f0" />
<path d="M225.24320000000012,-800 L231.56800000000013,-800 L231.56800000000013,-750 L225.24320000000012,-750 L225.24320000000012,-800 Z" fill="black" />
<path d="M231.56800000000013,-800 L237.89280000000014,-800 L237.89280000000014,-750 L231.56800000000013,-750 L231.56800000000013,-800 Z" fill="#f0f0f0" />
<path d="M237.89280000000014,-800 L244.21760000000015,-800 L244.21760000000015,-750 L237.89280000000014,-750 L237.89280000000014,-800 Z" fill="black" />
<path d="M244.21760000000015,-800 L250.54240000000016,-800 L250.54240000000016,-750 L244.21760000000015,-750 L244.21760000000015,-800 Z" fill="#f0f0f0" />
<path d="M250.54240000000016,-800 L256.86720000000014,-800 L256.86720000000014,-750 L250.54240000000016,-750 L250.54240000000016,-800 Z" fill="black" />
<path d="M256.86720000000014,-800 L263.1920000000001,-800 L263.1920000000001,-750 L256.86720000000014,-750 L256.86720000000014,-800 Z" fill="#f0f0f0" />
<path d="M263.1920000000001,-800 L269.5168000000001,-800 L269.5168000000001,-750 L263.1920000000001,-750 L263.1920000000001,-800 Z" fill="black" />
<path d="M269.5168000000001,-800 L275.8416000000001,-800 L275.8416000000001,-750 L269.5168000000001,-750 L269.5168000000001,-800 Z" fill="#f0f0f0" />
<path d="M275.8416000000001,-800 L282.16640000000007,-800 L282.16640000000007,-750 L275.8416000000001,-750 L275.8416000000001,-800 Z" fill="black" />
<path d="M282.16640000000007,-800 L288.49120000000005,-800 L288.49120000000005,-750 L282.16640000000007,-750 L282.16640000000007,-800 Z" fill="#f0f0f0" />
<path d="M288.49120000000005,-800 L294.81600000000003,-800 L294.81600000000003,-750 L288.49120000000005,-750 L288.49120000000005,-800 Z" fill="black" />
<path d="M294.81600000000003,-800 L301.1408,-800 L301.1408,-750 L294.81600000000003,-750 L294.81600000000003,-800 Z" fill="#f0f0f0" />
<path d="M301.1408,-800 L307.4656,-800 L307.4656,-750 L301.1408,-750 L301.1408,-800 Z" fill="black" />
<path d="M307.4656,-800 L313.7904,-800 L313.7904,-750 L307.4656,-750 L307.4656,-800 Z" fill="#f0f0f0" />
<path d="M313.7904,-800 L320.11519999999996,-800 L320.11519999999996,-750 L313.7904,-750 L313.7904,-800 Z" fill="black" />
<path d="M320.11519999999996,-800 L326.43999999999994,-800 L326.43999999999994,-750 L320.11519999999996,-750 L320.11519999999996,-800 Z" fill="#f0f0f0" />
<path d="M326.43999999999994,-800 L332.7647999999999,-800 L332.7647999999999,-750 L326.43999999999994,-750 L326.43999999999994,-800 Z" fill="black" />
<path d="M332.7647999999999,-800 L339.0895999999999,-800 L339.0895999999999,-750 L332.7647999999999,-750 L332.7647999999999,-800 Z" fill="#f0f0f0" />
<path d="M339.0895999999999,-800 L345.4143999999999,-800 L345.4143999999999,-750 L339.0895999999999,-750 L339.0895999999999,-800 Z" fill="black" />
<path d="M345.4143999999999,-800 L351.73919999999987,-800 L351.73919999999987,-750 L345.4143999999999,-750 L345.4143999999999,-800 Z" fill="#f0f0f0" />
<path d="M351.73919999999987,-800 L358.06399999999985,-800 L358.06399999999985,-750 L351.73919999999987,-750 L351.73919999999987,-800 Z" fill="black" />
<path d="M358.06399999999985,-800 L364.38879999999983,-800 L364.38879999999983,-750 L358.06399999999985,-750 L358.06399999999985,-800 Z" fill="#f0f0f0" />
<path d="M364.38879999999983,-800 L370.7135999999998,-800 L370.7135999999998,-750 L364.38879999999983,-750 L364.38879999999983,-800 Z" fill="black" />
<path d="M370.7135999999998,-800 L377.0383999999998,-800 L377.0383999999998,-750 L370.7135999999998,-750 L370.7135999999998,-800 Z" fill="#f0f0f0" />
<path d="M377.0383999999998,-800 L383.3631999999998,-800 L383.3631999999998,-750 L377.0383999999998,-750 L377.0383999999998,-800 Z" fill="black" />
<path d="M383.3631999999998,-800 L389.68799999999976,-800 L389.68799999999976,-750 L383.3631999999998,-750 L383.3631999999998,-800 Z" fill="#f0f0f0" />
<path d="M389.68799999999976,-800 L396.01279999999974,-800 L396.01279999999974,-750 L389.68799999999976,-750 L389.68799999999976,-800 Z" fill="black" />
<path d="M396.01279999999974,-800 L402.3375999999997,-800 L402.3375999999997,-750 L396.01279999999974,-750 L396.01279999999974,-800 Z" fill="#f0f0f0" />
<path d="M402.3375999999997,-800 L408.6623999999997,-800 L408.6623999999997,-750 L402.3375999999997,-750 L402.3375999999997,-800 Z" fill="black" />
<path d="M408.6623999999997,-800 L414.9871999999997,-800 L414.9871999999997,-750 L408.6623999999997,-750 L408.6623999999997,-800 Z" fill="#f0f0f0" />
<path d="M414.9871999999997,-800 L421.31199999999967,-800 L421.31199999999967,-750 L414.9871999999997,-750 L414.9871999999997,-800 Z" fill="black" />
<path d="M421.31199999999967,-800 L427.63679999999965,-800 L427.63679999999965,-750 L421.31199999999967,-750 L421.31199999999967,-800 Z" fill="#f0f0f0" />
<path d="M427.63679999999965,-800 L433.96159999999963,-800 L433.96159999999963,-750 L427.63679999999965,-750 L427.63679999999965,-800 Z" fill="black" />
<path d="M433.96159999999963,-800 L440.2863999999996,-800 L440.2863999999996,-750 L433.96159999999963,-750 L433.96159999999963,-800 Z" fill="#f0f0f0" />
<path d="M440.2863999999996,-800 L446.6111999999996,-800 L446.6111999999996,-750 L440.2863999999996,-750 L440.2863999999996,-800 Z" fill="black" />
<path d="M446.6111999999996,-800 L452.9359999999996,-800 L452.9359999999996,-750 L446.6111999999996,-750 L446.6111999999996,-800 Z" fill="#f0f0f0" />
<path d="M452.9359999999996,-800 L459.26079999999956,-800 L459.26079999999956,-750 L452.9359999999996,-750 L452.9359999999996,-800 Z" fill="black" />
<path d="M459.26079999999956,-800 L465.58559999999954,-800 L465.58559999999954,-750 L459.26079999999956,-750 L459.26079999999956,-800 Z" fill="#f0f0f0" />
<path d="M465.58559999999954,-800 L471.9103999999995,-800 L471.9103999999995,-750 L465.58559999999954,-750 L465.58559999999954,-800 Z" fill="black" />
<path d="M471.9103999999995,-800 L478.2351999999995,-800 L478.2351999999995,-750 L471.9103999999995,-750 L471.9103999999995,-800 Z" fill="#f0f0f0" />
<path d="M478.2351999999995,-800 L484.5599999999995,-800 L484.5599999999995,-750 L478.2351999999995,-750 L478.2351999999995,-800 Z" fill="black" />
<path d="M484.5599999999995,-800 L490.8847999999995,-800 L490.8847999999995,-750 L484.5599999999995,-750 L484.5599999999995,-800 Z" fill="#f0f0f0" />
<path d="M490.8847999999995,-800 L497.20959999999945,-800 L497.20959999999945,-750 L490.8847999999995,-750 L490.8847999999995,-800 Z" fill="black" />
<path d="M497.20959999999945,-800 L503.53439999999944,-800 L503.53439999999944,-750 L497.20959999999945,-750 L497.20959999999945,-800 Z" fill="#f0f0f0" />
<path d="M503.53439999999944,-800 L509.8591999999994,-800 L509.8591999999994,-750 L503.53439999999944,-750 L503.53439999999944,-800 Z" fill="black" />
<path d="M509.8591999999994,-800 L516.1839999999994,-800 L516.1839999999994,-750 L509.8591999999994,-750 L509.8591999999994,-800 Z" fill="#f0f0f0" />
<path d="M516.1839999999994,-800 L522.5087999999994,-800 L522.5087999999994,-750 L516.1839999999994,-750 L516.1839999999994,-800 Z" fill="black" />
<path d="M522.5087999999994,-800 L528.8335999999994,-800 L528.8335999999994,-750 L522.5087999999994,-750 L522.5087999999994,-800 Z" fill="#f0f0f0" />
<path d="M528.8335999999994,-800 L535.1583999999993,-800 L535.1583999999993,-750 L528.8335999999994,-750 L528.8335999999994,-800 Z" fill="black" />
<path d="M535.1583999999993,-800 L541.4831999999993,-800 L541.4831999999993,-750 L535.1583999999993,-750 L535.1583999999993,-800 Z" fill="#f0f0f0" />
<path d="M541.4831999999993,-800 L547.8079999999993,-800 L547.8079999999993,-750 L541.4831999999993,-750 L541.4831999999993,-800 Z" fill="black" />
<path d="M547.8079999999993,-800 L554.1327999999993,-800 L554.1327999999993,-750 L547.8079999999993,-750 L547.8079999999993,-800 Z" fill="#f0f0f0" />
<path d="M554.1327999999993,-800 L560.4575999999993,-800 L560.4575999999993,-750 L554.1327999999993,-750 L554.1327999999993,-800 Z" fill="black" />
<path d="M560.4575999999993,-800 L566.7823999999993,-800 L566.7823999999993,-750 L560.4575999999993,-750 L560.4575999999993,-800 Z" fill="#f0f0f0" />
<path d="M566.7823999999993,-800 L573.1071999999992,-800 L573.1071999999992,-750 L566.7823999999993,-750 L566.7823999999993,-800 Z" fill="black" />
<path d="M573.1071999999992,-800 L579.4319999999992,-800 L579.4319999999992,-750 L573.1071999999992,-750 L573.1071999999992,-800 Z" fill="#f0f0f0" />
<path d="M579.4319999999992,-800 L585.7567999999992,-800 L585.7567999999992,-750 L579.4319999999992,-750 L579.4319999999992,-800 Z" fill="black" />
<path d="M585.7567999999992,-800 L592.0815999999992,-800 L592.0815999999992,-750 L585.7567999999992,-750 L585.7567999999992,-800 Z" fill="#f0f0f0" />
<path d="M592.0815999999992,-800 L598.4063999999992,-800 L598.4063999999992,-750 L592.0815999999992,-750 L592.0815999999992,-800 Z" fill="black" />
<path d="M598.4063999999992,-800 L604.7311999999991,-800 L604.7311999999991,-750 L598.4063999999992,-750 L598.4063999999992,-800 Z" fill="#f0f0f0" />
<path d="M604.7311999999991,-800 L611.0559999999991,-800 L611.0559999999991,-750 L604.7311999999991,-750 L604.7311999999991,-800 Z" fill="black" />
<path d="M611.0559999999991,-800 L617.3807999999991,-800 L617.3807999999991,-750 L611.0559999999991,-750 L611.0559999999991,-800 Z" fill="#f0f0f0" />
<path d="M617.3807999999991,-800 L623.7055999999991,-800 L623.7055999999991,-750 L617.3807999999991,-750 L617.3807999999991,-800 Z" fill="black" />
<path d="M623.7055999999991,-800 L630.0303999999991,-800 L630.0303999999991,-750 L623.7055999999991,-750 L623.7055999999991,-800 Z" fill="#f0f0f0" />
<path d="M630.0303999999991,-800 L636.3551999999991,-800 L636.3551999999991,-750 L630.0303999999991,-750 L630.0303999999991,-800 Z" fill="black" />
<path d="M636.3551999999991,-800 L642.679999999999,-800 L642.679999999999,-750 L636.3551999999991,-750 L636.3551999999991,-800 Z" fill="#f0f0f0" />
<path d="M642.679999999999,-800 L649.004799999999,-800 L649.004799999999,-750 L642.679999999999,-750 L642.679999999999,-800 Z" fill="black" />
<path d="M649.004799999999,-800 L655.329599999999,-800 L655.329599999999,-750 L649.004799999999,-750 L649.004799999999,-800 Z" fill="#f0f0f0" />
<path d="M655.329599999999,-800 L661.654399999999,-800 L661.654399999999,-750 L655.329599999999,-750 L655.329599999999,-800 Z" fill="black" />
<path d="M661.654399999999,-800 L667.979199999999,-800 L667.979199999999,-750 L661.654399999999,-750 L661.654399999999,-800 Z" fill="#f0f0f0" />
<path d="M667.979199999999,-800 L674.303999999999,-800 L674.303999999999,-750 L667.979199999999,-750 L667.979199999999,-800 Z" fill="black" />
<path d="M674.303999999999,-800 L680.6287999999989,-800 L680.6287999999989,-750 L674.303999999999,-750 L674.303999999999,-800 Z" fill="#f0f0f0" />
<path d="M680.6287999999989,-800 L686.9535999999989,-800 L686.9535999999989,-750 L680.6287999999989,-750 L680.6287999999989,-800 Z" fill="black" />
<path d="M686.9535999999989,-800 L693.2783999999989,-800 L693.2783999999989,-750 L686.9535999999989,-750 L686.9535999999989,-800 Z" fill="#f0f0f0" />
<path d="M693.2783999999989,-800 L699.6031999999989,-800 L699.6031999999989,-750 L693.2783999999989,-750 L693.2783999999989,-800 Z" fill="black" />
<path d="M699.6031999999989,-800 L705.9279999999989,-800 L705.9279999999989,-750 L699.6031999999989,-750 L699.6031999999989,-800 Z" fill="#f0f0f0" />
<path d="M705.9279999999989,-800 L712.2527999999988,-800 L712.2527999999988,-750 L705.9279999999989,-750 L705.9279999999989,-800 Z" fill="black" />
<path d="M712.2527999999988,-800 L718.5775999999988,-800 L718.5775999999988,-750 L712.2527999999988,-750 L712.2527999999988,-800 Z" fill="#f0f0f0" />
<path d="M718.5775999999988,-800 L724.9023999999988,-800 L724.9023999999988,-750 L718.5775999999988,-750 L718.5775999999988,-800 Z" fill="black" />
<path d="M724.9023999999988,-800 L731.2271999999988,-800 L731.2271999999988,-750 L724.9023999999988,-750 L724.9023999999988,-800 Z" fill="#f0f0f0" />
<path d="M731.2271999999988,-800 L737.5519999999988,-800 L737.5519999999988,-750 L731.2271999999988,-750 L731.2271999999988,-800 Z" fill="black" />
<path d="M737.5519999999988,-800 L743.8767999999988,-800 L743.8767999999988,-750 L737.5519999999988,-750 L737.5519999999988,-800 Z" fill="#f0f0f0" />
<path d="M743.8767999999988,-800 L750.2015999999987,-800 L750.2015999999987,-750 L743.8767999999988,-750 L743.8767999999988,-800 Z" fill="black" />
<path d="M750.2015999999987,-800 L756.5263999999987,-800 L756.5263999999987,-750 L750.2015999999987,-750 L750.2015999999987,-800 Z" fill="#f0f0f0" />
<path d="M756.5263999999987,-800 L762.8511999999987,-800 L762.8511999999987,-750 L756.5263999999987,-750 L756.5263999999987,-800 Z" fill="black" />
<path d="M762.8511999999987,-800 L769.1759999999987,-800 L769.1759999999987,-750 L762.8511999999987,-750 L762.8511999999987,-800 Z" fill="#f0f0f0" />
<path d="M769.1759999999987,-800 L775.5007999999987,-800 L775.5007999999987,-750 L769.1759999999987,-750 L769.1759999999987,-800 Z" fill="black" />
<path d="M775.5007999999987,-800 L781.8255999999986,-800 L781.8255999999986,-750 L775.5007999999987,-750 L775.5007999999987,-800 Z" fill="#f0f0f0" />
<path d="M781.8255999999986,-800 L788.1503999999986,-800 L788.1503999999986,-750 L781.8255999999986,-750 L781.8255999999986,-800 Z" fill="black" />
<path d="M788.1503999999986,-800 L794.4751999999986,-800 L794.4751999999986,-750 L788.1503999999986,-750 L788.1503999999986,-800 Z" fill="#f0f0f0" />
<path d="M794.4751999999986,-800 L800.7999999999986,-800 L800.7999999999986,-750 L794.4751999999986,-750 L794.4751999999986,-800 Z" fill="black" />
<text x="10.2" y="-810" font-size="26" fill="black" dy="0em">CRISPR: I-A</text>
<path d="M1719.8000000000002,-800 L2345.2000000000003,-800 L2345.2000000000003,-750 L1719.8000000000002,-750 L1719.8000000000002,-800 Z" fill="white" stroke="white" stroke-width="4" />
<path d="M1719.8000000000002,-800 L1726.117171717172,-800 L1726.117171717172,-750 L1719.8000000000002,-750 L1719.8000000000002,-800 Z" fill="black" />
<path d="M1726.117171717172,-800 L1732.4343434343436,-800 L1732.4343434343436,-750 L1726.117171717172,-750 L1726.117171717172,-800 Z" fill="#f0f0f0" />
<path d="M1732.4343434343436,-800 L1738.7515151515154,-800 L1738.7515151515154,-750 L1732.4343434343436,-750 L1732.4343434343436,-800 Z" fill="black" />
<path d="M1738.7515151515154,-800 L1745.068686868687,-800 L1745.068686868687,-750 L1738.7515151515154,-750 L1738.7515151515154,-800 Z" fill="#f0f0f0" />
<path d="M1745.068686868687,-800 L1751.3858585858588,-800 L1751.3858585858588,-750 L1745.068686868687,-750 L1745.068686868687,-800 Z" fill="black" />
<path d="M1751.3858585858588,-800 L1757.7030303030306,-800 L1757.7030303030306,-750 L1751.3858585858588,-750 L1751.3858585858588,-800 Z" fill="#f0f0f0" />
<path d="M1757.7030303030306,-800 L1764.0202020202023,-800 L1764.0202020202023,-750 L1757.7030303030306,-750 L1757.7030303030306,-800 Z" fill="black" />
<path d="M1764.0202020202023,-800 L1770.337373737374,-800 L1770.337373737374,-750 L1764.0202020202023,-750 L1764.0202020202023,-800 Z" fill="#f0f0f0" />
<path d="M1770.337373737374,-800 L1776.6545454545458,-800 L1776.6545454545458,-750 L1770.337373737374,-750 L1770.337373737374,-800 Z" fill="black" />
<path d="M1776.6545454545458,-800 L1782.9717171717175,-800 L1782.9717171717175,-750 L1776.6545454545458,-750 L1776.6545454545458,-800 Z" fill="#f0f0f0" />
<path d="M1782.9717171717175,-800 L1789.2888888888892,-800 L1789.2888888888892,-750 L1782.9717171717175,-750 L1782.9717171717175,-800 Z" fill="black" />
<path d="M1789.2888888888892,-800 L1795.606060606061,-800 L1795.606060606061,-750 L1789.2888888888892,-750 L1789.2888888888892,-800 Z" fill="#f0f0f0" />
<path d="M1795.606060606061,-800 L1801.9232323232327,-800 L1801.9232323232327,-750 L1795.606060606061,-750 L1795.606060606061,-800 Z" fill="black" />
<path d="M1801.9232323232327,-800 L1808.2404040404044,-800 L1808.2404040404044,-750 L1801.9232323232327,-750 L1801.9232323232327,-800 Z" fill="#f0f0f0" />
<path d="M1808.2404040404044,-800 L1814.5575757575762,-800 L1814.5575757575762,-750 L1808.2404040404044,-750 L1808.2404040404044,-800 Z" fill="black" />
<path d="M1814.5575757575762,-800 L1820.874747474748,-800 L1820.874747474748,-750 L1814.5575757575762,-750 L1814.5575757575762,-800 Z" fill="#f0f0f0" />
<path d="M1820.874747474748,-800 L1827.1919191919196,-800 L1827.1919191919196,-750 L1820.874747474748,-750 L1820.874747474748,-800 Z" fill="black" />
<path d="M1827.1919191919196,-800 L1833.5090909090914,-800 L1833.5090909090914,-750 L1827.1919191919196,-750 L1827.1919191919196,-800 Z" fill="#f0f0f0" />
<path d="M1833.5090909090914,-800 L1839.826262626263,-800 L1839.826262626263,-750 L1833.5090909090914,-750 L1833.5090909090914,-800 Z" fill="black" />
<path d="M1839.826262626263,-800 L1846.1434343434348,-800 L1846.1434343434348,-750 L1839.826262626263,-750 L1839.826262626263,-800 Z" fill="#f0f0f0" />
<path d="M1846.1434343434348,-800 L1852.4606060606066,-800 L1852.4606060606066,-750 L1846.1434343434348,-750 L1846.1434343434348,-800 Z" fill="black" />
<path d="M1852.4606060606066,-800 L1858.7777777777783,-800 L1858.7777777777783,-750 L1852.4606060606066,-750 L1852.4606060606066,-800 Z" fill="#f0f0f0" />
<path d="M1858.7777777777783,-800 L1865.09494949495,-800 L1865.09494949495,-750 L1858.7777777777783,-750 L1858.7777777777783,-800 Z" fill="black" />
<path d="M1865.09494949495,-800 L1871.4121212121217,-800 L1871.4121212121217,-750 L1865.09494949495,-750 L1865.09494949495,-800 Z" fill="#f0f0f0" />
<path d="M1871.4121212121217,-800 L1877.7292929292935,-800 L1877.7292929292935,-750 L1871.4121212121217,-750 L1871.4121212121217,-800 Z" fill="black" />
<path d="M1877.7292929292935,-800 L1884.0464646464652,-800 L1884.0464646464652,-750 L1877.7292929292935,-750 L1877.7292929292935,-800 Z" fill="#f0f0f0" />
<path d="M1884.0464646464652,-800 L1890.363636363637,-800 L1890.363636363637,-750 L1884.0464646464652,-750 L1884.0464646464652,-800 Z" fill="black" />
<path d="M1890.363636363637,-800 L1896.6808080808087,-800 L1896.6808080808087,-750 L1890.363636363637,-750 L1890.363636363637,-800 Z" fill="#f0f0f0" />
<path d="M1896.6808080808087,-800 L1902.9979797979804,-800 L1902.9979797979804,-750 L1896.6808080808087,-750 L1896.6808080808087,-800 Z" fill="black" />
<path d="M1902.9979797979804,-800 L1909.3151515151521,-800 L1909.3151515151521,-750 L1902.9979797979804,-750 L1902.9979797979804,-800 Z" fill="#f0f0f0" />
<path d="M1909.3151515151521,-800 L1915.6323232323239,-800 L1915.6323232323239,-750 L1909.3151515151521,-750 L1909.3151515151521,-800 Z" fill="black" />
<path d="M1915.6323232323239,-800 L1921.9494949494956,-800 L1921.9494949494956,-750 L1915.6323232323239,-750 L1915.6323232323239,-800 Z" fill="#f0f0f0" />
<path d="M1921.9494949494956,-800 L1928.2666666666673,-800 L1928.2666666666673,-750 L1921.9494949494956,-750 L1921.9494949494956,-800 Z" fill="black" />
<path d="M1928.2666666666673,-800 L1934.583838383839,-800 L1934.583838383839,-750 L1928.2666666666673,-750 L1928.2666666666673,-800 Z" fill="#f0f0f0" />
<path d="M1934.583838383839,-800 L1940.9010101010108,-800 L1940.9010101010108,-750 L1934.583838383839,-750 L1934.583838383839,-800 Z" fill="black" />
<path d="M1940.9010101010108,-800 L1947.2181818181825,-800 L1947.2181818181825,-750 L1940.9010101010108,-750 L1940.9010101010108,-800 Z" fill="#f0f0f0" />
<path d="M1947.2181818181825,-800 L1953.5353535353543,-800 L1953.5353535353543,-750 L1947.2181818181825,-750 L1947.2181818181825,-800 Z" fill="black" />
<path d="M1953.5353535353543,-800 L1959.852525252526,-800 L1959.852525252526,-750 L1953.5353535353543,-750 L1953.5353535353543,-800 Z" fill="#f0f0f0" />
<path d="M1959.852525252526,-800 L1966.1696969696977,-800 L1966.1696969696977,-750 L1959.852525252526,-750 L1959.852525252526,-800 Z" fill="black" />
<path d="M1966.1696969696977,-800 L1972.4868686868695,-800 L1972.4868686868695,-750 L1966.1696969696977,-750 L1966.1696969696977,-800 Z" fill="#f0f0f0" />
<path d="M1972.4868686868695,-800 L1978.8040404040412,-800 L1978.8040404040412,-750 L1972.4868686868695,-750 L1972.4868686868695,-800 Z" fill="black" />
<path d="M1978.8040404040412,-800 L1985.121212121213,-800 L1985.121212121213,-750 L1978.8040404040412,-750 L1978.8040404040412,-800 Z" fill="#f0f0f0" />
<path d="M1985.121212121213,-800 L1991.4383838383847,-800 L1991.4383838383847,-750 L1985.121212121213,-750 L1985.121212121213,-800 Z" fill="black" />
<path d="M1991.4383838383847,-800 L1997.7555555555564,-800 L1997.7555555555564,-750 L1991.4383838383847,-750 L1991.4383838383847,-800 Z" fill="#f0f0f0" />
<path d="M1997.7555555555564,-800 L2004.0727272727281,-800 L2004.0727272727281,-750 L1997.7555555555564,-750 L1997.7555555555564,-800 Z" fill="black" />
<path d="M2004.0727272727281,-800 L2010.3898989898998,-800 L2010.3898989898998,-750 L2004.0727272727281,-750 L2004.0727272727281,-800 Z" fill="#f0f0f0" />
<path d="M2010.3898989898998,-800 L2016.7070707070716,-800 L2016.7070707070716,-750 L2010.3898989898998,-750 L2010.3898989898998,-800 Z" fill="black" />
<path d="M2016.7070707070716,-800 L2023.0242424242433,-800 L2023.0242424242433,-750 L2016.7070707070716,-750 L2016.7070707070716,-800 Z" fill="#f0f0f0" />
<path d="M2023.0242424242433,-800 L2029.341414141415,-800 L2029.341414141415,-750 L2023.0242424242433,-750 L2023.0242424242433,-800 Z" fill="black" />
<path d="M2029.341414141415,-800 L2035.6585858585868,-800 L2035.6585858585868,-750 L2029.341414141415,-750 L2029.341414141415,-800 Z" fill="#f0f0f0" />
<path d="M2035.6585858585868,-800 L2041.9757575757585,-800 L2041.9757575757585,-750 L2035.6585858585868,-750 L2035.6585858585868,-800 Z" fill="black" />
<path d="M2041.9757575757585,-800 L2048.2929292929302,-800 L2048.2929292929302,-750 L2041.9757575757585,-750 L2041.9757575757585,-800 Z" fill="#f0f0f0" />
<path d="M2048.2929292929302,-800 L2054.610101010102,-800 L2054.610101010102,-750 L2048.2929292929302,-750 L2048.2929292929302,-800 Z" fill="black" />
<path d="M2054.610101010102,-800 L2060.9272727272737,-800 L2060.9272727272737,-750 L2054.610101010102,-750 L2054.610101010102,-800 Z" fill="#f0f0f0" />
<path d="M2060.9272727272737,-800 L2067.2444444444454,-800 L2067.2444444444454,-750 L2060.9272727272737,-750 L2060.9272727272737,-800 Z" fill="black" />
<path d="M2067.2444444444454,-800 L2073.561616161617,-800 L2073.561616161617,-750 L2067.2444444444454,-750 L2067.2444444444454,-800 Z" fill="#f0f0f0" />
<path d="M2073.561616161617,-800 L2079.878787878789,-800 L2079.878787878789,-750 L2073.561616161617,-750 L2073.561616161617,-800 Z" fill="black" />
<path d="M2079.878787878789,-800 L2086.1959595959606,-800 L2086.1959595959606,-750 L2079.878787878789,-750 L2079.878787878789,-800 Z" fill="#f0f0f0" />
<path d="M2086.1959595959606,-800 L2092.5131313131324,-800 L2092.5131313131324,-750 L2086.1959595959606,-750 L2086.1959595959606,-800 Z" fill="black" />
<path d="M2092.5131313131324,-800 L2098.830303030304,-800 L2098.830303030304,-750 L2092.5131313131324,-750 L2092.5131313131324,-800 Z" fill="#f0f0f0" />
<path d="M2098.830303030304,-800 L2105.147474747476,-800 L2105.147474747476,-750 L2098.830303030304,-750 L2098.830303030304,-800 Z" fill="black" />
<path d="M2105.147474747476,-800 L2111.4646464646476,-800 L2111.4646464646476,-750 L2105.147474747476,-750 L2105.147474747476,-800 Z" fill="#f0f0f0" />
<path d="M2111.4646464646476,-800 L2117.7818181818193,-800 L2117.7818181818193,-750 L2111.4646464646476,-750 L2111.4646464646476,-800 Z" fill="black" />
<path d="M2117.7818181818193,-800 L2124.098989898991,-800 L2124.098989898991,-750 L2117.7818181818193,-750 L2117.7818181818193,-800 Z" fill="#f0f0f0" />
<path d="M2124.098989898991,-800 L2130.4161616161628,-800 L2130.4161616161628,-750 L2124.098989898991,-750 L2124.098989898991,-800 Z" fill="black" />
<path d="M2130.4161616161628,-800 L2136.7333333333345,-800 L2136.7333333333345,-750 L2130.4161616161628,-750 L2130.4161616161628,-800 Z" fill="#f0f0f0" />
<path d="M2136.7333333333345,-800 L2143.050505050506,-800 L2143.050505050506,-750 L2136.7333333333345,-750 L2136.7333333333345,-800 Z" fill="black" />
<path d="M2143.050505050506,-800 L2149.367676767678,-800 L2149.367676767678,-750 L2143.050505050506,-750 L2143.050505050506,-800 Z" fill="#f0f0f0" />
<path d="M2149.367676767678,-800 L2155.6848484848497,-800 L2155.6848484848497,-750 L2149.367676767678,-750 L2149.367676767678,-800 Z" fill="black" />
<path d="M2155.6848484848497,-800 L2162.0020202020214,-800 L2162.0020202020214,-750 L2155.6848484848497,-750 L2155.6848484848497,-800 Z" fill="#f0f0f0" />
<path d="M2162.0020202020214,-800 L2168.319191919193,-800 L2168.319191919193,-750 L2162.0020202020214,-750 L2162.0020202020214,-800 Z" fill="black" />
<path d="M2168.319191919193,-800 L2174.636363636365,-800 L2174.636363636365,-750 L2168.319191919193,-750 L2168.319191919193,-800 Z" fill="#f0f0f0" />
<path d="M2174.636363636365,-800 L2180.9535353535366,-800 L2180.9535353535366,-750 L2174.636363636365,-750 L2174.636363636365,-800 Z" fill="black" />
<path d="M2180.9535353535366,-800 L2187.2707070707083,-800 L2187.2707070707083,-750 L2180.9535353535366,-750 L2180.9535353535366,-800 Z" fill="#f0f0f0" />
<path d="M2187.2707070707083,-800 L2193.58787878788,-800 L2193.58787878788,-750 L2187.2707070707083,-750 L2187.2707070707083,-800 Z" fill="black" />
<path d="M2193.58787878788,-800 L2199.905050505052,-800 L2199.905050505052,-750 L2193.58787878788,-750 L2193.58787878788,-800 Z" fill="#f0f0f0" />
<path d="M2199.905050505052,-800 L2206.2222222222235,-800 L2206.2222222222235,-750 L2199.905050505052,-750 L2199.905050505052,-800 Z" fill="black" />
<path d="M2206.2222222222235,-800 L2212.5393939393953,-800 L2212.5393939393953,-750 L2206.2222222222235,-750 L2206.2222222222235,-800 Z" fill="#f0f0f0" />
<path d="M2212.5393939393953,-800 L2218.856565656567,-800 L2218.856565656567,-750 L2212.5393939393953,-750 L2212.5393939393953,-800 Z" fill="black" />
<path d="M2218.856565656567,-800 L2225.1737373737387,-800 L2225.1737373737387,-750 L2218.856565656567,-750 L2218.856565656567,-800 Z" fill="#f0f0f0" />
<path d="M2225.1737373737387,-800 L2231.4909090909105,-800 L2231.4909090909105,-750 L2225.1737373737387,-750 L2225.1737373737387,-800 Z" fill="black" />
<path d="M2231.4909090909105,-800 L2237.808080808082,-800 L2237.808080808082,-750 L2231.4909090909105,-750 L2231.4909090909105,-800 Z" fill="#f0f0f0" />
<path d="M2237.808080808082,-800 L2244.125252525254,-800 L2244.125252525254,-750 L2237.808080808082,-750 L2237.808080808082,-800 Z" fill="black" />
<path d="M2244.125252525254,-800 L2250.4424242424257,-800 L2250.4424242424257,-750 L2244.125252525254,-750 L2244.125252525254,-800 Z" fill="#f0f0f0" />
<path d="M2250.4424242424257,-800 L2256.7595959595974,-800 L2256.7595959595974,-750 L2250.4424242424257,-750 L2250.4424242424257,-800 Z" fill="black" />
<path d="M2256.7595959595974,-800 L2263.076767676769,-800 L2263.076767676769,-750 L2256.7595959595974,-750 L2256.7595959595974,-800 Z" fill="#f0f0f0" />
<path d="M2263.076767676769,-800 L2269.393939393941,-800 L2269.393939393941,-750 L2263.076767676769,-750 L2263.076767676769,-800 Z" fill="black" />
<path d="M2269.393939393941,-800 L2275.7111111111126,-800 L2275.7111111111126,-750 L2269.393939393941,-750 L2269.393939393941,-800 Z" fill="#f0f0f0" />
<path d="M2275.7111111111126,-800 L2282.0282828282843,-800 L2282.0282828282843,-750 L2275.7111111111126,-750 L2275.7111111111126,-800 Z" fill="black" />
<path d="M2282.0282828282843,-800 L2288.345454545456,-800 L2288.345454545456,-750 L2282.0282828282843,-750 L2282.0282828282843,-800 Z" fill="#f0f0f0" />
<path d="M2288.345454545456,-800 L2294.662626262628,-800 L2294.662626262628,-750 L2288.345454545456,-750 L2288.345454545456,-800 Z" fill="black" />
<path d="M2294.662626262628,-800 L2300.9797979797995,-800 L2300.9797979797995,-750 L2294.662626262628,-750 L2294.662626262628,-800 Z" fill="#f0f0f0" />
<path d="M2300.9797979797995,-800 L2307.2969696969712,-800 L2307.2969696969712,-750 L2300.9797979797995,-750 L2300.9797979797995,-800 Z" fill="black" />
<path d="M2307.2969696969712,-800 L2313.614141414143,-800 L2313.614141414143,-750 L2307.2969696969712,-750 L2307.2969696969712,-800 Z" fill="#f0f0f0" />
<path d="M2313.614141414143,-800 L2319.9313131313147,-800 L2319.9313131313147,-750 L2313.614141414143,-750 L2313.614141414143,-800 Z" fill="black" />
<path d="M2319.9313131313147,-800 L2326.2484848484864,-800 L2326.2484848484864,-750 L2319.9313131313147,-750 L2319.9313131313147,-800 Z" fill="#f0f0f0" />
<path d="M2326.2484848484864,-800 L2332.565656565658,-800 L2332.565656565658,-750 L2326.2484848484864,-750 L2326.2484848484864,-800 Z" fill="black" />
<path d="M2332.565656565658,-800 L2338.88282828283,-800 L2338.88282828283,-750 L2332.565656565658,-750 L2332.565656565658,-800 Z" fill="#f0f0f0" />
<path d="M2338.88282828283,-800 L2345.2000000000016,-800 L2345.2000000000016,-750 L2338.88282828283,-750 L2338.88282828283,-800 Z" fill="black" />
<text x="1719.8000000000002" y="-810" font-size="26" fill="black" dy="0em">CRISPR: I-A</text>
<text x="16.0" y="-660" font-size="38" fill="black" dy="0em">I-A: AHJL01000001@15 (847165-862422)</text>
<path d="M10.2,-600 L77.80000000000001,-600 L107.80000000000001,-575.0 L77.80000000000001,-550 L10.2,-550 L10.2,-600 Z" fill="#efc050" fill-opacity="0.8" stroke="#efc050" stroke-width="4" />
<text x="10.2" y="-610" font-size="26" fill="black" dy="0em">Csa5gr11</text>
<path d="M108.2,-600 L265.2,-600 L295.2,-575.0 L265.2,-550 L108.2,-550 L108.2,-600 Z" fill="#efc050" fill-opacity="0.8" stroke="#efc050" stroke-width="4" />
<text x="108.2" y="-520" font-size="26" fill="black" dy="0em">Cas7</text>
<path d="M295.40000000000003,-600 L423.6,-600 L453.6,-575.0 L423.6,-550 L295.40000000000003,-550 L295.40000000000003,-600 Z" fill="#efc050" fill-opacity="0.8" stroke="#efc050" stroke-width="4" />
<text x="295.40000000000003" y="-610" font-size="26" fill="black" dy="0em">Cas5</text>
<path d="M450.6,-600 L614.8000000000001,-600 L644.8000000000001,-575.0 L614.8000000000001,-550 L450.6,-550 L450.6,-600 Z" fill="#efc050" fill-opacity="0.8" stroke="#efc050" stroke-width="4" />
<text x="450.6" y="-520" font-size="26" fill="black" dy="0em">Cas8a7</text>
<path d="M644.2,-600 L943.4000000000001,-600 L973.4000000000001,-575.0 L943.4000000000001,-550 L644.2,-550 L644.2,-600 Z" fill="#efc050" fill-opacity="0.8" stroke="#efc050" stroke-width="4" />
<text x="644.2" y="-610" font-size="26" fill="black" dy="0em">Cas3</text>
<path d="M972.8000000000001,-600 L1071.6000000000001,-600 L1101.6000000000001,-575.0 L1071.6000000000001,-550 L972.8000000000001,-550 L972.8000000000001,-600 Z" fill="#efc050" fill-opacity="0.8" stroke="#efc050" stroke-width="4" />
<text x="972.8000000000001" y="-520" font-size="26" fill="black" dy="0em">Cas3HD</text>
<path d="M1139.8,-600 L1169.6000000000001,-600 L1169.6000000000001,-550 L1139.8,-550 L1109.8,-575.0 L1139.8,-600 Z" fill="#5b5ea6" fill-opacity="0.8" stroke="#5b5ea6" stroke-width="4" />
<text x="1109.8" y="-610" font-size="26" fill="black" dy="0em">Cas2</text>
<path d="M1201.2,-600 L1232.2,-600 L1232.2,-550 L1201.2,-550 L1171.2,-575.0 L1201.2,-600 Z" fill="#5b5ea6" fill-opacity="0.3" stroke="#5b5ea6" stroke-width="4" />
<text x="1171.2" y="-520" font-size="26" fill="black" dy="0em">(Cas1)</text>
<path d="M1271.6000000000001,-600 L1266.6000000000001,-600 L1266.6000000000001,-550 L1271.6000000000001,-550 L1241.6000000000001,-575.0 L1271.6000000000001,-600 Z" fill="#5b5ea6" fill-opacity="0.3" stroke="#5b5ea6" stroke-width="4" />
<text x="1241.6000000000001" y="-610" font-size="26" fill="black" dy="0em">(Cas1)</text>
<path d="M1327.8000000000002,-600 L1351.6000000000001,-600 L1351.6000000000001,-550 L1327.8000000000002,-550 L1297.8000000000002,-575.0 L1327.8000000000002,-600 Z" fill="#5b5ea6" fill-opacity="0.3" stroke="#5b5ea6" stroke-width="4" />
<text x="1297.8000000000002" y="-520" font-size="26" fill="black" dy="0em">(Cas1)</text>
<path d="M1421.2,-600 L1449.2,-600 L1479.2,-575.0 L1449.2,-550 L1421.2,-550 L1421.2,-600 Z" fill="#dd1424" fill-opacity="0.8" stroke="#dd1424" stroke-width="4" />
<text x="1421.2" y="-610" font-size="26" fill="black" dy="0em">Cas6</text>
<path d="M1495.2,-600 L1519.0,-600 L1549.0,-575.0 L1519.0,-550 L1495.2,-550 L1495.2,-600 Z" fill="#dd1424" fill-opacity="0.8" stroke="#dd1424" stroke-width="4" />
<text x="1495.2" y="-520" font-size="26" fill="black" dy="0em">Cas6</text>
<path d="M1640.8000000000002,-600 L1668.8000000000002,-600 L1668.8000000000002,-550 L1640.8000000000002,-550 L1610.8000000000002,-575.0 L1640.8000000000002,-600 Z" fill="#d3c9c1" fill-opacity="0.8" stroke="#d3c9c1" stroke-width="4" />
<text x="1610.8000000000002" y="-610" font-size="20" fill="black" dy="0em">987</text>
<path d="M1709.6000000000001,-600 L1753.8000000000002,-600 L1753.8000000000002,-550 L1709.6000000000001,-550 L1679.6000000000001,-575.0 L1709.6000000000001,-600 Z" fill="#d3c9c1" fill-opacity="0.8" stroke="#d3c9c1" stroke-width="4" />
<text x="1679.6000000000001" y="-520" font-size="20" fill="black" dy="0em">988</text>
<path d="M1827.2,-600 L1938.6000000000001,-600 L1968.6000000000001,-575.0 L1938.6000000000001,-550 L1827.2,-550 L1827.2,-600 Z" fill="#d3c9c1" fill-opacity="0.8" stroke="#d3c9c1" stroke-width="4" />
<text x="1827.2" y="-610" font-size="20" fill="black" dy="0em">989</text>
<path d="M1993.0,-600 L2012.0,-600 L2012.0,-550 L1993.0,-550 L1963.0,-575.0 L1993.0,-600 Z" fill="#d3c9c1" fill-opacity="0.8" stroke="#d3c9c1" stroke-width="4" />
<text x="1963.0" y="-520" font-size="20" fill="black" dy="0em">990</text>
<path d="M2045.2,-600 L2081.6,-600 L2081.6,-550 L2045.2,-550 L2015.2,-575.0 L2045.2,-600 Z" fill="#d3c9c1" fill-opacity="0.8" stroke="#d3c9c1" stroke-width="4" />
<text x="2015.2" y="-610" font-size="20" fill="black" dy="0em">991</text>
<path d="M2099.0,-600 L2134.8,-600 L2164.8,-575.0 L2134.8,-550 L2099.0,-550 L2099.0,-600 Z" fill="#d3c9c1" fill-opacity="0.8" stroke="#d3c9c1" stroke-width="4" />
<text x="2099.0" y="-520" font-size="20" fill="black" dy="0em">992</text>
<path d="M2259.8,-600 L2336.4,-600 L2336.4,-550 L2259.8,-550 L2229.8,-575.0 L2259.8,-600 Z" fill="#ff80e6" fill-opacity="0.3" stroke="#ff80e6" stroke-width="4" />
<text x="2229.8" y="-610" font-size="26" fill="black" dy="0em">(Csx1)</text>
<path d="M2445.6,-600 L2527.0,-600 L2527.0,-550 L2445.6,-550 L2415.6,-575.0 L2445.6,-600 Z" fill="#5b5ea6" fill-opacity="0.3" stroke="#5b5ea6" stroke-width="4" />
<text x="2415.6" y="-520" font-size="26" fill="black" dy="0em">(Cas4)</text>
<path d="M2558.6000000000004,-600 L2699.4,-600 L2699.4,-550 L2558.6000000000004,-550 L2528.6000000000004,-575.0 L2558.6000000000004,-600 Z" fill="#5b5ea6" fill-opacity="0.3" stroke="#5b5ea6" stroke-width="4" />
<text x="2528.6000000000004" y="-610" font-size="26" fill="black" dy="0em">(Cas4)</text>
<path d="M2893.2000000000003,-600 L3061.6000000000004,-600 L3061.6000000000004,-550 L2893.2000000000003,-550 L2893.2000000000003,-600 Z" fill="white" stroke="white" stroke-width="4" />
<path d="M2893.2000000000003,-600 L2899.4370370370375,-600 L2899.4370370370375,-550 L2893.2000000000003,-550 L2893.2000000000003,-600 Z" fill="black" />
<path d="M2899.4370370370375,-600 L2905.6740740740747,-600 L2905.6740740740747,-550 L2899.4370370370375,-550 L2899.4370370370375,-600 Z" fill="#f0f0f0" />
<path d="M2905.6740740740747,-600 L2911.911111111112,-600 L2911.911111111112,-550 L2905.6740740740747,-550 L2905.6740740740747,-600 Z" fill="black" />
<path d="M2911.911111111112,-600 L2918.148148148149,-600 L2918.148148148149,-550 L2911.911111111112,-550 L2911.911111111112,-600 Z" fill="#f0f0f0" />
<path d="M2918.148148148149,-600 L2924.3851851851864,-600 L2924.3851851851864,-550 L2918.148148148149,-550 L2918.148148148149,-600 Z" fill="black" />
<path d="M2924.3851851851864,-600 L2930.6222222222236,-600 L2930.6222222222236,-550 L2924.3851851851864,-550 L2924.3851851851864,-600 Z" fill="#f0f0f0" />
<path d="M2930.6222222222236,-600 L2936.859259259261,-600 L2936.859259259261,-550 L2930.6222222222236,-550 L2930.6222222222236,-600 Z" fill="black" />
<path d="M2936.859259259261,-600 L2943.096296296298,-600 L2943.096296296298,-550 L2936.859259259261,-550 L2936.859259259261,-600 Z" fill="#f0f0f0" />
<path d="M2943.096296296298,-600 L2949.3333333333353,-600 L2949.3333333333353,-550 L2943.096296296298,-550 L2943.096296296298,-600 Z" fill="black" />
<path d="M2949.3333333333353,-600 L2955.5703703703725,-600 L2955.5703703703725,-550 L2949.3333333333353,-550 L2949.3333333333353,-600 Z" fill="#f0f0f0" />
<path d="M2955.5703703703725,-600 L2961.8074074074098,-600 L2961.8074074074098,-550 L2955.5703703703725,-550 L2955.5703703703725,-600 Z" fill="black" />
<path d="M2961.8074074074098,-600 L2968.044444444447,-600 L2968.044444444447,-550 L2961.8074074074098,-550 L2961.8074074074098,-600 Z" fill="#f0f0f0" />
<path d="M2968.044444444447,-600 L2974.281481481484,-600 L2974.281481481484,-550 L2968.044444444447,-550 L2968.044444444447,-600 Z" fill="black" />
<path d="M2974.281481481484,-600 L2980.5185185185214,-600 L2980.5185185185214,-550 L2974.281481481484,-550 L2974.281481481484,-600 Z" fill="#f0f0f0" />
<path d="M2980.5185185185214,-600 L2986.7555555555587,-600 L2986.7555555555587,-550 L2980.5185185185214,-550 L2980.5185185185214,-600 Z" fill="black" />
<path d="M2986.7555555555587,-600 L2992.992592592596,-600 L2992.992592592596,-550 L2986.7555555555587,-550 L2986.7555555555587,-600 Z" fill="#f0f0f0" />
<path d="M2992.992592592596,-600 L2999.229629629633,-600 L2999.229629629633,-550 L2992.992592592596,-550 L2992.992592592596,-600 Z" fill="black" />
<path d="M2999.229629629633,-600 L3005.4666666666703,-600 L3005.4666666666703,-550 L2999.229629629633,-550 L2999.229629629633,-600 Z" fill="#f0f0f0" />
<path d="M3005.4666666666703,-600 L3011.7037037037076,-600 L3011.7037037037076,-550 L3005.4666666666703,-550 L3005.4666666666703,-600 Z" fill="black" />
<path d="M3011.7037037037076,-600 L3017.940740740745,-600 L3017.940740740745,-550 L3011.7037037037076,-550 L3011.7037037037076,-600 Z" fill="#f0f0f0" />
<path d="M3017.940740740745,-600 L3024.177777777782,-600 L3024.177777777782,-550 L3017.940740740745,-550 L3017.940740740745,-600 Z" fill="black" />
<path d="M3024.177777777782,-600 L3030.4148148148192,-600 L3030.4148148148192,-550 L3024.177777777782,-550 L3024.177777777782,-600 Z" fill="#f0f0f0" />
<path d="M3030.4148148148192,-600 L3036.6518518518565,-600 L3036.6518518518565,-550 L3030.4148148148192,-550 L3030.4148148148192,-600 Z" fill="black" />
<path d="M3036.6518518518565,-600 L3042.8888888888937,-600 L3042.8888888888937,-550 L3036.6518518518565,-550 L3036.6518518518565,-600 Z" fill="#f0f0f0" />
<path d="M3042.8888888888937,-600 L3049.125925925931,-600 L3049.125925925931,-550 L3042.8888888888937,-550 L3042.8888888888937,-600 Z" fill="black" />
<path d="M3049.125925925931,-600 L3055.362962962968,-600 L3055.362962962968,-550 L3049.125925925931,-550 L3049.125925925931,-600 Z" fill="#f0f0f0" />
<path d="M3055.362962962968,-600 L3061.6000000000054,-600 L3061.6000000000054,-550 L3055.362962962968,-550 L3055.362962962968,-600 Z" fill="black" />
<text x="2893.2000000000003" y="-610" font-size="26" fill="black" dy="0em">CRISPR: I-A</text>
<text x="16.0" y="-460" font-size="38" fill="black" dy="0em">III-A: AHJL01000005@2 (25778-31591)</text>
<path d="M10.2,-400 L211.0,-400 L241.0,-375.0 L211.0,-350 L10.2,-350 L10.2,-400 Z" fill="#efc050" fill-opacity="0.8" stroke="#efc050" stroke-width="4" />
<text x="10.2" y="-410" font-size="26" fill="black" dy="0em">Csm3gr7</text>
<path d="M240.4,-400 L273.8,-400 L303.8,-375.0 L273.8,-350 L240.4,-350 L240.4,-400 Z" fill="#ff80e6" fill-opacity="0.8" stroke="#ff80e6" stroke-width="4" />
<text x="240.4" y="-320" font-size="26" fill="black" dy="0em">PEPT_D</text>
<path d="M303.2,-400 L414.0,-400 L444.0,-375.0 L414.0,-350 L303.2,-350 L303.2,-400 Z" fill="#efc050" fill-opacity="0.8" stroke="#efc050" stroke-width="4" />
<text x="303.2" y="-410" font-size="26" fill="black" dy="0em">Csm3gr7</text>
<path d="M470.20000000000005,-400 L504.8,-400 L504.8,-350 L470.20000000000005,-350 L440.20000000000005,-375.0 L470.20000000000005,-400 Z" fill="#ff80e6" fill-opacity="0.8" stroke="#ff80e6" stroke-width="4" />
<text x="440.20000000000005" y="-320" font-size="26" fill="black" dy="0em">Csx26</text>
<path d="M542.0,-400 L652.2,-400 L652.2,-350 L542.0,-350 L512.0,-375.0 L542.0,-400 Z" fill="#efc050" fill-opacity="0.8" stroke="#efc050" stroke-width="4" />
<text x="512.0" y="-410" font-size="26" fill="black" dy="0em">Csm4gr5</text>
<path d="M681.6,-400 L1172.8,-400 L1172.8,-350 L681.6,-350 L651.6,-375.0 L681.6,-400 Z" fill="#efc050" fill-opacity="0.8" stroke="#efc050" stroke-width="4" />
<text x="651.6" y="-320" font-size="26" fill="black" dy="0em">Cas10</text>
<text x="16.0" y="-260" font-size="38" fill="black" dy="0em">III-B: AHJL01000005@1 (9383-17051)</text>
<path d="M10.2,-200 L154.0,-200 L184.0,-175.0 L154.0,-150 L10.2,-150 L10.2,-200 Z" fill="#efc050" fill-opacity="0.8" stroke="#efc050" stroke-width="4" />
<text x="10.2" y="-210" font-size="26" fill="black" dy="0em">Cmr4</text>
<path d="M184.4,-200 L253.8,-200 L283.8,-175.0 L253.8,-150 L184.4,-150 L184.4,-200 Z" fill="#efc050" fill-opacity="0.8" stroke="#efc050" stroke-width="4" />
<text x="184.4" y="-120" font-size="26" fill="black" dy="0em">Cmr5</text>
<path d="M282.40000000000003,-200 L546.2,-200 L576.2,-175.0 L546.2,-150 L282.40000000000003,-150 L282.40000000000003,-200 Z" fill="#efc050" fill-opacity="0.8" stroke="#efc050" stroke-width="4" />
<text x="282.40000000000003" y="-210" font-size="26" fill="black" dy="0em">Cmr1gr7</text>
<path d="M582.8000000000001,-200 L727.2,-200 L757.2,-175.0 L727.2,-150 L582.8000000000001,-150 L582.8000000000001,-200 Z" fill="#efc050" fill-opacity="0.8" stroke="#efc050" stroke-width="4" />
<text x="582.8000000000001" y="-120" font-size="26" fill="black" dy="0em">Cmr6gr7</text>
<path d="M757.2,-200 L1334.2,-200 L1364.2,-175.0 L1334.2,-150 L757.2,-150 L757.2,-200 Z" fill="#efc050" fill-opacity="0.8" stroke="#efc050" stroke-width="4" />
<text x="757.2" y="-210" font-size="26" fill="black" dy="0em">Cas10</text>
<path d="M1362.8000000000002,-200 L1513.8000000000002,-200 L1543.8000000000002,-175.0 L1513.8000000000002,-150 L1362.8000000000002,-150 L1362.8000000000002,-200 Z" fill="#efc050" fill-opacity="0.8" stroke="#efc050" stroke-width="4" />
<text x="1362.8000000000002" y="-120" font-size="26" fill="black" dy="0em">Cmr3</text>
</svg>