<?xml version="1.0" encoding="UTF-8"?>
<svg xmlns="http://www.w3.org/2000/svg" xmlns:xlink="http://www.w3.org/1999/xlink"
     width="1912" height="1000" viewBox="0 -1000 1912 1000">
<defs>
</defs>
<path d="M210,-20 L210,-920" stroke="grey" stroke-width="1" fill="none" />
<text x="160" y="-930" font-size="22" fill="grey" dy="0em">1000</text>
<path d="M410,-20 L410,-920" stroke="grey" stroke-width="1" fill="none" />
<text x="360" y="-930" font-size="22" fill="grey" dy="0em">2000</text>
<path d="M610,-20 L610,-920" stroke="grey" stroke-width="1" fill="none" />
<text x="560" y="-930" font-size="22" fill="grey" dy="0em">3000</text>
<path d="M810,-20 L810,-920" stroke="grey" stroke-width="1" fill="none" />
<text x="760" y="-930" font-size="22" fill="grey" dy="0em">4000</text>
<path d="M1010,-20 L1010,-920" stroke="grey" stroke-width="1" fill="none" />
<text x="960" y="-930" font-size="22" fill="grey" dy="0em">5000</text>
<path d="M1210,-20 L1210,-920" stroke="grey" stroke-width="1" fill="none" />
<text x="1160" y="-930" font-size="22" fill="grey" dy="0em">6000</text>
<path d="M1410,-20 L1410,-920" stroke="grey" stroke-width="1" fill="none" />
<text x="1360" y="-930" font-size="22" fill="grey" dy="0em">7000</text>
<path d="M1610,-20 L1610,-920" stroke="grey" stroke-width="1" fill="none" />
<text x="1560" y="-930" font-size="22" fill="grey" dy="0em">8000</text>
<path d="M1810,-20 L1810,-920" stroke="grey" stroke-width="1" fill="none" />
<text x="1760" y="-930" font-size="22" fill="grey" dy="0em">9000</text>
<text x="16.0" y="-860" font-size="38" fill="black" dy="0em">I-B: JAKPPB010000080@1 (7518-16152)</text>
<path d="M10.2,-800 L314.20000000000005,-800 L344.20000000000005,-775.0 L314.20000000000005,-750 L10.2,-750 L10.2,-800 Z" fill="#efc050" fill-opacity="0.8" stroke="#efc050" stroke-width="4" />
<text x="10.2" y="-810" font-size="26" fill="black" dy="0em">Cas8b1</text>
<path d="M347.20000000000005,-800 L494.6,-800 L524.6,-775.0 L494.6,-750 L347.20000000000005,-750 L347.20000000000005,-800 Z" fill="#efc050" fill-opacity="0.8" stroke="#efc050" stroke-width="4" />
<text x="347.20000000000005" y="-720" font-size="26" fill="black" dy="0em">Cas7</text>
<path d="M527.0,-800 L645.0,-800 L675.0,-775.0 L645.0,-750 L527.0,-750 L527.0,-800 Z" fill="#efc050" fill-opacity="0.8" stroke="#efc050" stroke-width="4" />
<text x="527.0" y="-810" font-size="26" fill="black" dy="0em">Cas5</text>
<path d="M674.4000000000001,-800 L1094.8,-800 L1124.8,-775.0 L1094.8,-750 L674.4000000000001,-750 L674.4000000000001,-800 Z" fill="#efc050" fill-opacity="0.8" stroke="#efc050" stroke-width="4" />
<text x="674.4000000000001" y="-720" font-size="26" fill="black" dy="0em">Cas3</text>
<path d="M1124.2,-800 L1229.6000000000001,-800 L1259.6000000000001,-775.0 L1229.6000000000001,-750 L1124.2,-750 L1124.2,-800 Z" fill="#dd1424" fill-opacity="0.8" stroke="#dd1424" stroke-width="4" />
<text x="1124.2" y="-810" font-size="26" fill="black" dy="0em">Cas6</text>
<path d="M1260.6000000000001,-800 L1427.2,-800 L1457.2,-775.0 L1427.2,-750 L1260.6000000000001,-750 L1260.6000000000001,-800 Z" fill="#5b5ea6" fill-opacity="0.8" stroke="#5b5ea6" stroke-width="4" />
<text x="1260.6000000000001" y="-720" font-size="26" fill="black" dy="0em">Cas1</text>
<path d="M1456.6000000000001,-800 L1485.2,-800 L1515.2,-775.0 L1485.2,-750 L1456.6000000000001,-750 L1456.6000000000001,-800 Z" fill="#5b5ea6" fill-opacity="0.8" stroke="#5b5ea6" stroke-width="4" />
<text x="1456.6000000000001" y="-810" font-size="26" fill="black" dy="0em">Cas2</text>
<path d="M1516.4,-800 L1604.4,-800 L1634.4,-775.0 L1604.4,-750 L1516.4,-750 L1516.4,-800 Z" fill="#5b5ea6" fill-opacity="0.8" stroke="#5b5ea6" stroke-width="4" />
<text x="1516.4" y="-720" font-size="26" fill="black" dy="0em">Cas4</text>
<path d="M1656.2,-800 L1737.0,-800 L1737.0,-750 L1656.2,-750 L1656.2,-800 Z" fill="white" stroke="white" stroke-width="4" />
<path d="M1656.2,-800 L1663.5454545454545,-800 L1663.5454545454545,-750 L1656.2,-750 L1656.2,-800 Z" fill="black" />
<path d="M1663.5454545454545,-800 L1670.890909090909,-800 L1670.890909090909,-750 L1663.5454545454545,-750 L1663.5454545454545,-800 Z" fill="#f0f0f0" />
<path d="M1670.890909090909,-800 L1678.2363636363634,-800 L1678.2363636363634,-750 L1670.890909090909,-750 L1670.890909090909,-800 Z" fill="black" />
<path d="M1678.2363636363634,-800 L1685.5818181818179,-800 L1685.5818181818179,-750 L1678.2363636363634,-750 L1678.2363636363634,-800 Z" fill="#f0f0f0" />
<path d="M1685.5818181818179,-800 L1692.9272727272723,-800 L1692.9272727272723,-750 L1685.5818181818179,-750 L1685.5818181818179,-800 Z" fill="black" />
<path d="M1692.9272727272723,-800 L1700.2727272727268,-800 L1700.2727272727268,-750 L1692.9272727272723,-750 L1692.9272727272723,-800 Z" fill="#f0f0f0" />
<path d="M1700.2727272727268,-800 L1707.6181818181813,-800 L1707.6181818181813,-750 L1700.2727272727268,-750 L1700.2727272727268,-800 Z" fill="black" />
<path d="M1707.6181818181813,-800 L1714.9636363636357,-800 L1714.9636363636357,-750 L1707.6181818181813,-750 L1707.6181818181813,-800 Z" fill="#f0f0f0" />
<path d="M1714.9636363636357,-800 L1722.3090909090902,-800 L1722.3090909090902,-750 L1714.9636363636357,-750 L1714.9636363636357,-800 Z" fill="black" />
<path d="M1722.3090909090902,-800 L1729.6545454545446,-800 L1729.6545454545446,-750 L1722.3090909090902,-750 L1722.3090909090902,-800 Z" fill="#f0f0f0" />
<path d="M1729.6545454545446,-800 L1736.999999999999,-800 L1736.999999999999,-750 L1729.6545454545446,-750 L1729.6545454545446,-800 Z" fill="black" />
<text x="1656.2" y="-810" font-size="26" fill="black" dy="0em">CRISPR</text>
<text x="16.0" y="-660" font-size="38" fill="black" dy="0em">I-E: JAKPPB010000031@1 (2-9060)</text>
<path d="M10.2,-600 L43.599999999999994,-600 L73.6,-575.0 L43.599999999999994,-550 L10.2,-550 L10.2,-600 Z" fill="#ff80e6" fill-opacity="0.8" stroke="#ff80e6" stroke-width="4" />
<text x="10.2" y="-610" font-size="26" fill="black" dy="0em">Csa3</text>
<path d="M92.0,-600 L600.6,-600 L630.6,-575.0 L600.6,-550 L92.0,-550 L92.0,-600 Z" fill="#efc050" fill-opacity="0.8" stroke="#efc050" stroke-width="4" />
<text x="92.0" y="-520" font-size="26" fill="black" dy="0em">Cas3</text>
<path d="M651.4000000000001,-600 L941.0,-600 L971.0,-575.0 L941.0,-550 L651.4000000000001,-550 L651.4000000000001,-600 Z" fill="#efc050" fill-opacity="0.8" stroke="#efc050" stroke-width="4" />
<text x="651.4000000000001" y="-610" font-size="26" fill="black" dy="0em">Cas8e</text>
<path d="M970.4000000000001,-600 L1040.4,-600 L1070.4,-575.0 L1040.4,-550 L970.4000000000001,-550 L970.4000000000001,-600 Z" fill="#efc050" fill-opacity="0.8" stroke="#efc050" stroke-width="4" />
<text x="970.4000000000001" y="-520" font-size="26" fill="black" dy="0em">Cse2gr11</text>
<path d="M1072.8,-600 L1261.0,-600 L1291.0,-575.0 L1261.0,-550 L1072.8,-550 L1072.8,-600 Z" fill="#efc050" fill-opacity="0.8" stroke="#efc050" stroke-width="4" />
<text x="1072.8" y="-610" font-size="26" fill="black" dy="0em">Cas7</text>
<path d="M1291.6000000000001,-600 L1410.8000000000002,-600 L1440.8000000000002,-575.0 L1410.8000000000002,-550 L1291.6000000000001,-550 L1291.6000000000001,-600 Z" fill="#efc050" fill-opacity="0.8" stroke="#efc050" stroke-width="4" />
<text x="1291.6000000000001" y="-520" font-size="26" fill="black" dy="0em">Cas5</text>
<path d="M1441.8000000000002,-600 L1550.8000000000002,-600 L1580.8000000000002,-575.0 L1550.8000000000002,-550 L1441.8000000000002,-550 L1441.8000000000002,-600 Z" fill="#dd1424" fill-opacity="0.8" stroke="#dd1424" stroke-width="4" />
<text x="1441.8000000000002" y="-610" font-size="26" fill="black" dy="0em">Cas6e</text>
<path d="M1583.0,-600 L1731.0,-600 L1761.0,-575.0 L1731.0,-550 L1583.0,-550 L1583.0,-600 Z" fill="#5b5ea6" fill-opacity="0.8" stroke="#5b5ea6" stroke-width="4" />
<text x="1583.0" y="-520" font-size="26" fill="black" dy="0em">Cas1</text>
<path d="M1762.0,-600 L1791.8000000000002,-600 L1821.8000000000002,-575.0 L1791.8000000000002,-550 L1762.0,-550 L1762.0,-600 Z" fill="#5b5ea6" fill-opacity="0.8" stroke="#5b5ea6" stroke-width="4" />
<text x="1762.0" y="-610" font-size="26" fill="black" dy="0em">Cas2</text>
<path d="M10.2,-400 L348.40000000000003,-400 L348.40000000000003,-350 L10.2,-350 L10.2,-400 Z" fill="white" stroke="white" stroke-width="4" />
<path d="M10.2,-400 L16.831372549019605,-400 L16.831372549019605,-350 L10.2,-350 L10.2,-400 Z" fill="black" />
<path d="M16.831372549019605,-400 L23.462745098039214,-400 L23.462745098039214,-350 L16.831372549019605,-350 L16.831372549019605,-400 Z" fill="#f0f0f0" />
<path d="M23.462745098039214,-400 L30.094117647058823,-400 L30.094117647058823,-350 L23.462745098039214,-350 L23.462745098039214,-400 Z" fill="black" />
<path d="M30.094117647058823,-400 L36.72549019607843,-400 L36.72549019607843,-350 L30.094117647058823,-350 L30.094117647058823,-400 Z" fill="#f0f0f0" />
<path d="M36.72549019607843,-400 L43.35686274509804,-400 L43.35686274509804,-350 L36.72549019607843,-350 L36.72549019607843,-400 Z" fill="black" />
<path d="M43.35686274509804,-400 L49.98823529411765,-400 L49.98823529411765,-350 L43.35686274509804,-350 L43.35686274509804,-400 Z" fill="#f0f0f0" />
<path d="M49.98823529411765,-400 L56.61960784313726,-400 L56.61960784313726,-350 L49.98823529411765,-350 L49.98823529411765,-400 Z" fill="black" />
<path d="M56.61960784313726,-400 L63.25098039215687,-400 L63.25098039215687,-350 L56.61960784313726,-350 L56.61960784313726,-400 Z" fill="#f0f0f0" />
<path d="M63.25098039215687,-400 L69.88235294117648,-400 L69.88235294117648,-350 L63.25098039215687,-350 L63.25098039215687,-400 Z" fill="black" />
<path d="M69.88235294117648,-400 L76.51372549019608,-400 L76.51372549019608,-350 L69.88235294117648,-350 L69.88235294117648,-400 Z" fill="#f0f0f0" />
<path d="M76.51372549019608,-400 L83.14509803921568,-400 L83.14509803921568,-350 L76.51372549019608,-350 L76.51372549019608,-400 Z" fill="black" />
<path d="M83.14509803921568,-400 L89.77647058823528,-400 L89.77647058823528,-350 L83.14509803921568,-350 L83.14509803921568,-400 Z" fill="#f0f0f0" />
<path d="M89.77647058823528,-400 L96.40784313725489,-400 L96.40784313725489,-350 L89.77647058823528,-350 L89.77647058823528,-400 Z" fill="black" />
<path d="M96.40784313725489,-400 L103.03921568627449,-400 L103.03921568627449,-350 L96.40784313725489,-350 L96.40784313725489,-400 Z" fill="#f0f0f0" />
<path d="M103.03921568627449,-400 L109.67058823529409,-400 L109.67058823529409,-350 L103.03921568627449,-350 L103.03921568627449,-400 Z" fill="black" />
<path d="M109.67058823529409,-400 L116.30196078431369,-400 L116.30196078431369,-350 L109.67058823529409,-350 L109.67058823529409,-400 Z" fill="#f0f0f0" />
<path d="M116.30196078431369,-400 L122.9333333333333,-400 L122.9333333333333,-350 L116.30196078431369,-350 L116.30196078431369,-400 Z" fill="black" />
<path d="M122.9333333333333,-400 L129.5647058823529,-400 L129.5647058823529,-350 L122.9333333333333,-350 L122.9333333333333,-400 Z" fill="#f0f0f0" />
<path d="M129.5647058823529,-400 L136.1960784313725,-400 L136.1960784313725,-350 L129.5647058823529,-350 L129.5647058823529,-400 Z" fill="black" />
<path d="M136.1960784313725,-400 L142.82745098039211,-400 L142.82745098039211,-350 L136.1960784313725,-350 L136.1960784313725,-400 Z" fill="#f0f0f0" />
<path d="M142.82745098039211,-400 L149.45882352941172,-400 L149.45882352941172,-350 L142.82745098039211,-350 L142.82745098039211,-400 Z" fill="black" />
<path d="M149.45882352941172,-400 L156.09019607843132,-400 L156.09019607843132,-350 L149.45882352941172,-350 L149.45882352941172,-400 Z" fill="#f0f0f0" />
<path d="M156.09019607843132,-400 L162.72156862745092,-400 L162.72156862745092,-350 L156.09019607843132,-350 L156.09019607843132,-400 Z" fill="black" />
<path d="M162.72156862745092,-400 L169.35294117647052,-400 L169.35294117647052,-350 L162.72156862745092,-350 L162.72156862745092,-400 Z" fill="#f0f0f0" />
<path d="M169.35294117647052,-400 L175.98431372549013,-400 L175.98431372549013,-350 L169.35294117647052,-350 L169.35294117647052,-400 Z" fill="black" />
<path d="M175.98431372549013,-400 L182.61568627450973,-400 L182.61568627450973,-350 L175.98431372549013,-350 L175.98431372549013,-400 Z" fill="#f0f0f0" />
<path d="M182.61568627450973,-400 L189.24705882352933,-400 L189.24705882352933,-350 L182.61568627450973,-350 L182.61568627450973,-400 Z" fill="black" />
<path d="M189.24705882352933,-400 L195.87843137254893,-400 L195.87843137254893,-350 L189.24705882352933,-350 L189.24705882352933,-400 Z" fill="#f0f0f0" />
<path d="M195.87843137254893,-400 L202.50980392156853,-400 L202.50980392156853,-350 L195.87843137254893,-350 L195.87843137254893,-400 Z" fill="black" />
<path d="M202.50980392156853,-400 L209.14117647058814,-400 L209.14117647058814,-350 L202.50980392156853,-350 L202.50980392156853,-400 Z" fill="#f0f0f0" />
<path d="M209.14117647058814,-400 L215.77254901960774,-400 L215.77254901960774,-350 L209.14117647058814,-350 L209.14117647058814,-400 Z" fill="black" />
<path d="M215.77254901960774,-400 L222.40392156862734,-400 L222.40392156862734,-350 L215.77254901960774,-350 L215.77254901960774,-400 Z" fill="#f0f0f0" />
<path d="M222.40392156862734,-400 L229.03529411764694,-400 L229.03529411764694,-350 L222.40392156862734,-350 L222.40392156862734,-400 Z" fill="black" />
<path d="M229.03529411764694,-400 L235.66666666666654,-400 L235.66666666666654,-350 L229.03529411764694,-350 L229.03529411764694,-400 Z" fill="#f0f0f0" />
<path d="M235.66666666666654,-400 L242.29803921568615,-400 L242.29803921568615,-350 L235.66666666666654,-350 L235.66666666666654,-400 Z" fill="black" />
<path d="M242.29803921568615,-400 L248.92941176470575,-400 L248.92941176470575,-350 L242.29803921568615,-350 L242.29803921568615,-400 Z" fill="#f0f0f0" />
<path d="M248.92941176470575,-400 L255.56078431372535,-400 L255.56078431372535,-350 L248.92941176470575,-350 L248.92941176470575,-400 Z" fill="black" />
<path d="M255.56078431372535,-400 L262.192156862745,-400 L262.192156862745,-350 L255.56078431372535,-350 L255.56078431372535,-400 Z" fill="#f0f0f0" />
<path d="M262.192156862745,-400 L268.8235294117646,-400 L268.8235294117646,-350 L262.192156862745,-350 L262.192156862745,-400 Z" fill="black" />
<path d="M268.8235294117646,-400 L275.4549019607842,-400 L275.4549019607842,-350 L268.8235294117646,-350 L268.8235294117646,-400 Z" fill="#f0f0f0" />
<path d="M275.4549019607842,-400 L282.0862745098038,-400 L282.0862745098038,-350 L275.4549019607842,-350 L275.4549019607842,-400 Z" fill="black" />
<path d="M282.0862745098038,-400 L288.7176470588234,-400 L288.7176470588234,-350 L282.0862745098038,-350 L282.0862745098038,-400 Z" fill="#f0f0f0" />
<path d="M288.7176470588234,-400 L295.349019607843,-400 L295.349019607843,-350 L288.7176470588234,-350 L288.7176470588234,-400 Z" fill="black" />
<path d="M295.349019607843,-400 L301.9803921568626,-400 L301.9803921568626,-350 L295.349019607843,-350 L295.349019607843,-400 Z" fill="#f0f0f0" />
<path d="M301.9803921568626,-400 L308.6117647058822,-400 L308.6117647058822,-350 L301.9803921568626,-350 L301.9803921568626,-400 Z" fill="black" />
<path d="M308.6117647058822,-400 L315.2431372549018,-400 L315.2431372549018,-350 L308.6117647058822,-350 L308.6117647058822,-400 Z" fill="#f0f0f0" />
<path d="M315.2431372549018,-400 L321.8745098039214,-400 L321.8745098039214,-350 L315.2431372549018,-350 L315.2431372549018,-400 Z" fill="black" />
<path d="M321.8745098039214,-400 L328.505882352941,-400 L328.505882352941,-350 L321.8745098039214,-350 L321.8745098039214,-400 Z" fill="#f0f0f0" />
<path d="M328.505882352941,-400 L335.1372549019606,-400 L335.1372549019606,-350 L328.505882352941,-350 L328.505882352941,-400 Z" fill="black" />
<path d="M335.1372549019606,-400 L341.7686274509802,-400 L341.7686274509802,-350 L335.1372549019606,-350 L335.1372549019606,-400 Z" fill="#f0f0f0" />
<path d="M341.7686274509802,-400 L348.3999999999998,-400 L348.3999999999998,-350 L341.7686274509802,-350 L341.7686274509802,-400 Z" fill="black" />
<text x="10.2" y="-410" font-size="26" fill="black" dy="0em">CRISPR</text>
<text x="16.0" y="-460" font-size="38" fill="black" dy="0em">Unknown: JAKPPB010000062_1 (9842-11533)</text>
<path d="M10.2,-200 L348.40000000000003,-200 L348.40000000000003,-150 L10.2,-150 L10.2,-200 Z" fill="white" stroke="white" stroke-width="4" />
<path d="M10.2,-200 L16.831372549019605,-200 L16.831372549019605,-150 L10.2,-150 L10.2,-200 Z" fill="black" />
<path d="M16.831372549019605,-200 L23.462745098039214,-200 L23.462745098039214,-150 L16.831372549019605,-150 L16.831372549019605,-200 Z" fill="#f0f0f0" />
<path d="M23.462745098039214,-200 L30.094117647058823,-200 L30.094117647058823,-150 L23.462745098039214,-150 L23.462745098039214,-200 Z" fill="black" />
<path d="M30.094117647058823,-200 L36.72549019607843,-200 L36.72549019607843,-150 L30.094117647058823,-150 L30.094117647058823,-200 Z" fill="#f0f0f0" />
<path d="M36.72549019607843,-200 L43.35686274509804,-200 L43.35686274509804,-150 L36.72549019607843,-150 L36.72549019607843,-200 Z" fill="black" />
<path d="M43.35686274509804,-200 L49.98823529411765,-200 L49.98823529411765,-150 L43.35686274509804,-150 L43.35686274509804,-200 Z" fill="#f0f0f0" />
<path d="M49.98823529411765,-200 L56.61960784313726,-200 L56.61960784313726,-150 L49.98823529411765,-150 L49.98823529411765,-200 Z" fill="black" />
<path d="M56.61960784313726,-200 L63.25098039215687,-200 L63.25098039215687,-150 L56.61960784313726,-150 L56.61960784313726,-200 Z" fill="#f0f0f0" />
<path d="M63.25098039215687,-200 L69.88235294117648,-200 L69.88235294117648,-150 L63.25098039215687,-150 L63.25098039215687,-200 Z" fill="black" />
<path d="M69.88235294117648,-200 L76.51372549019608,-200 L76.51372549019608,-150 L69.88235294117648,-150 L69.88235294117648,-200 Z" fill="#f0f0f0" />
<path d="M76.51372549019608,-200 L83.14509803921568,-200 L83.14509803921568,-150 L76.51372549019608,-150 L76.51372549019608,-200 Z" fill="black" />
<path d="M83.14509803921568,-200 L89.77647058823528,-200 L89.77647058823528,-150 L83.14509803921568,-150 L83.14509803921568,-200 Z" fill="#f0f0f0" />
<path d="M89.77647058823528,-200 L96.40784313725489,-200 L96.40784313725489,-150 L89.77647058823528,-150 L89.77647058823528,-200 Z" fill="black" />
<path d="M96.40784313725489,-200 L103.03921568627449,-200 L103.03921568627449,-150 L96.40784313725489,-150 L96.40784313725489,-200 Z" fill="#f0f0f0" />
<path d="M103.03921568627449,-200 L109.67058823529409,-200 L109.67058823529409,-150 L103.03921568627449,-150 L103.03921568627449,-200 Z" fill="black" />
<path d="M109.67058823529409,-200 L116.30196078431369,-200 L116.30196078431369,-150 L109.67058823529409,-150 L109.67058823529409,-200 Z" fill="#f0f0f0" />
<path d="M116.30196078431369,-200 L122.9333333333333,-200 L122.9333333333333,-150 L116.30196078431369,-150 L116.30196078431369,-200 Z" fill="black" />
<path d="M122.9333333333333,-200 L129.5647058823529,-200 L129.5647058823529,-150 L122.9333333333333,-150 L122.9333333333333,-200 Z" fill="#f0f0f0" />
<path d="M129.5647058823529,-200 L136.1960784313725,-200 L136.1960784313725,-150 L129.5647058823529,-150 L129.5647058823529,-200 Z" fill="black" />
<path d="M136.1960784313725,-200 L142.82745098039211,-200 L142.82745098039211,-150 L136.1960784313725,-150 L136.1960784313725,-200 Z" fill="#f0f0f0" />
<path d="M142.82745098039211,-200 L149.45882352941172,-200 L149.45882352941172,-150 L142.82745098039211,-150 L142.82745098039211,-200 Z" fill="black" />
<path d="M149.45882352941172,-200 L156.09019607843132,-200 L156.09019607843132,-150 L149.45882352941172,-150 L149.45882352941172,-200 Z" fill="#f0f0f0" />
<path d="M156.09019607843132,-200 L162.72156862745092,-200 L162.72156862745092,-150 L156.09019607843132,-150 L156.09019607843132,-200 Z" fill="black" />
<path d="M162.72156862745092,-200 L169.35294117647052,-200 L169.35294117647052,-150 L162.72156862745092,-150 L162.72156862745092,-200 Z" fill="#f0f0f0" />
<path d="M169.35294117647052,-200 L175.98431372549013,-200 L175.98431372549013,-150 L169.35294117647052,-150 L169.35294117647052,-200 Z" fill="black" />
<path d="M175.98431372549013,-200 L182.61568627450973,-200 L182.61568627450973,-150 L175.98431372549013,-150 L175.98431372549013,-200 Z" fill="#f0f0f0" />
<path d="M182.61568627450973,-200 L189.24705882352933,-200 L189.24705882352933,-150 L182.61568627450973,-150 L182.61568627450973,-200 Z" fill="black" />
<path d="M189.24705882352933,-200 L195.87843137254893,-200 L195.87843137254893,-150 L189.24705882352933,-150 L189.24705882352933,-200 Z" fill="#f0f0f0" />
<path d="M195.87843137254893,-200 L202.50980392156853,-200 L202.50980392156853,-150 L195.87843137254893,-150 L195.87843137254893,-200 Z" fill="black" />
<path d="M202.50980392156853,-200 L209.14117647058814,-200 L209.14117647058814,-150 L202.50980392156853,-150 L202.50980392156853,-200 Z" fill="#f0f0f0" />
<path d="M209.14117647058814,-200 L215.77254901960774,-200 L215.77254901960774,-150 L209.14117647058814,-150 L209.14117647058814,-200 Z" fill="black" />
<path d="M215.77254901960774,-200 L222.40392156862734,-200 L222.40392156862734,-150 L215.77254901960774,-150 L215.77254901960774,-200 Z" fill="#f0f0f0" />
<path d="M222.40392156862734,-200 L229.03529411764694,-200 L229.03529411764694,-150 L222.40392156862734,-150 L222.40392156862734,-200 Z" fill="black" />
<path d="M229.03529411764694,-200 L235.66666666666654,-200 L235.66666666666654,-150 L229.03529411764694,-150 L229.03529411764694,-200 Z" fill="#f0f0f0" />
<path d="M235.66666666666654,-200 L242.29803921568615,-200 L242.29803921568615,-150 L235.66666666666654,-150 L235.66666666666654,-200 Z" fill="black" />
<path d="M242.29803921568615,-200 L248.92941176470575,-200 L248.92941176470575,-150 L242.29803921568615,-150 L242.29803921568615,-200 Z" fill="#f0f0f0" />
<path d="M248.92941176470575,-200 L255.56078431372535,-200 L255.56078431372535,-150 L248.92941176470575,-150 L248.92941176470575,-200 Z" fill="black" />
<path d="M255.56078431372535,-200 L262.192156862745,-200 L262.192156862745,-150 L255.56078431372535,-150 L255.56078431372535,-200 Z" fill="#f0f0f0" />
<path d="M262.192156862745,-200 L268.8235294117646,-200 L268.8235294117646,-150 L262.192156862745,-150 L262.192156862745,-200 Z" fill="black" />
<path d="M268.8235294117646,-200 L275.4549019607842,-200 L275.4549019607842,-150 L268.8235294117646,-150 L268.8235294117646,-200 Z" fill="#f0f0f0" />
<path d="M275.4549019607842,-200 L282.0862745098038,-200 L282.0862745098038,-150 L275.4549019607842,-150 L275.4549019607842,-200 Z" fill="black" />
<path d="M282.0862745098038,-200 L288.7176470588234,-200 L288.7176470588234,-150 L282.0862745098038,-150 L282.0862745098038,-200 Z" fill="#f0f0f0" />
<path d="M288.7176470588234,-200 L295.349019607843,-200 L295.349019607843,-150 L288.7176470588234,-150 L288.7176470588234,-200 Z" fill="black" />
<path d="M295.349019607843,-200 L301.9803921568626,-200 L301.9803921568626,-150 L295.349019607843,-150 L295.349019607843,-200 Z" fill="#f0f0f0" />
<path d="M301.9803921568626,-200 L308.6117647058822,-200 L308.6117647058822,-150 L301.9803921568626,-150 L301.9803921568626,-200 Z" fill="black" />
<path d="M308.6117647058822,-200 L315.2431372549018,-200 L315.2431372549018,-150 L308.6117647058822,-150 L308.6117647058822,-200 Z" fill="#f0f0f0" />
<path d="M315.2431372549018,-200 L321.8745098039214,-200 L321.8745098039214,-150 L315.2431372549018,-150 L315.2431372549018,-200 Z" fill="black" />
<path d="M321.8745098039214,-200 L328.505882352941,-200 L328.505882352941,-150 L321.8745098039214,-150 L321.8745098039214,-200 Z" fill="#f0f0f0" />
<path d="M328.505882352941,-200 L335.1372549019606,-200 L335.1372549019606,-150 L328.505882352941,-150 L328.505882352941,-200 Z" fill="black" />
<path d="M335.1372549019606,-200 L341.7686274509802,-200 L341.7686274509802,-150 L335.1372549019606,-150 L335.1372549019606,-200 Z" fill="#f0f0f0" />
<path d="M341.7686274509802,-200 L348.3999999999998,-200 L348.3999999999998,-150 L341.7686274509802,-150 L341.7686274509802,-200 Z" fill="black" />
<text x="10.2" y="-210" font-size="26" fill="black" dy="0em">CRISPR</text>
<text x="16.0" y="-260" font-size="38" fill="black" dy="0em">Unknown: JAKPPB010000062-1_3 (9842-11533)</text>
</svg>