<?xml version="1.0" encoding="UTF-8"?>
<svg xmlns="http://www.w3.org/2000/svg" xmlns:xlink="http://www.w3.org/1999/xlink"
     width="967" height="600" viewBox="0 -600 967 600">
<defs>
</defs>
<path d="M210,-20 L210,-520" stroke="grey" stroke-width="1" fill="none" />
<text x="160" y="-530" font-size="22" fill="grey" dy="0em">1000</text>
<path d="M410,-20 L410,-520" stroke="grey" stroke-width="1" fill="none" />
<text x="360" y="-530" font-size="22" fill="grey" dy="0em">2000</text>
<path d="M610,-20 L610,-520" stroke="grey" stroke-width="1" fill="none" />
<text x="560" y="-530" font-size="22" fill="grey" dy="0em">3000</text>
<path d="M810,-20 L810,-520" stroke="grey" stroke-width="1" fill="none" />
<text x="760" y="-530" font-size="22" fill="grey" dy="0em">4000</text>
<text x="16.0" y="-460" font-size="38" fill="black" dy="0em">Unknown: JAWAEW010000007@1 (47239-51572)</text>
<path d="M40.2,-400 L125.2,-400 L125.2,-350 L40.2,-350 L10.2,-375.0 L40.2,-400 Z" fill="#ff80e6" fill-opacity="0.8" stroke="#ff80e6" stroke-width="4" />
<text x="10.2" y="-410" font-size="26" fill="black" dy="0em">Csx18</text>
<path d="M258.6,-400 L272.2,-400 L302.2,-375.0 L272.2,-350 L258.6,-350 L258.6,-400 Z" fill="#d3c9c1" fill-opacity="0.8" stroke="#d3c9c1" stroke-width="4" />
<text x="258.6" y="-320" font-size="20" fill="black" dy="0em">57</text>
<path d="M339.6,-400 L389.8,-400 L419.8,-375.0 L389.8,-350 L339.6,-350 L339.6,-400 Z" fill="#d3c9c1" fill-opacity="0.8" stroke="#d3c9c1" stroke-width="4" />
<text x="339.6" y="-410" font-size="20" fill="black" dy="0em">58</text>
<path d="M557.8000000000001,-400 L581.0,-400 L581.0,-350 L557.8000000000001,-350 L527.8000000000001,-375.0 L557.8000000000001,-400 Z" fill="#5b5ea6" fill-opacity="0.8" stroke="#5b5ea6" stroke-width="4" />
<text x="527.8000000000001" y="-320" font-size="26" fill="black" dy="0em">Cas2</text>
<path d="M612.6,-400 L776.2,-400 L776.2,-350 L612.6,-350 L582.6,-375.0 L612.6,-400 Z" fill="#5b5ea6" fill-opacity="0.8" stroke="#5b5ea6" stroke-width="4" />
<text x="582.6" y="-410" font-size="26" fill="black" dy="0em">Cas1</text>
<path d="M806.2,-400 L876.8000000000001,-400 L876.8000000000001,-350 L806.2,-350 L776.2,-375.0 L806.2,-400 Z" fill="#5b5ea6" fill-opacity="0.8" stroke="#5b5ea6" stroke-width="4" />
<text x="776.2" y="-320" font-size="26" fill="black" dy="0em">Cas4</text>
<path d="M168.60000000000002,-400 L499.8,-400 L499.8,-350 L168.60000000000002,-350 L168.60000000000002,-400 Z" fill="white" stroke="white" stroke-width="4" />
<path d="M168.60000000000002,-400 L175.09411764705885,-400 L175.09411764705885,-350 L168.60000000000002,-350 L168.60000000000002,-400 Z" fill="black" />
<path d="M175.09411764705885,-400 L181.58823529411768,-400 L181.58823529411768,-350 L175.09411764705885,-350 L175.09411764705885,-400 Z" fill="#f0f0f0" />
<path d="M181.58823529411768,-400 L188.0823529411765,-400 L188.0823529411765,-350 L181.58823529411768,-350 L181.58823529411768,-400 Z" fill="black" />
<path d="M188.0823529411765,-400 L194.57647058823534,-400 L194.57647058823534,-350 L188.0823529411765,-350 L188.0823529411765,-400 Z" fill="#f0f0f0" />
<path d="M194.57647058823534,-400 L201.07058823529417,-400 L201.07058823529417,-350 L194.57647058823534,-350 L194.57647058823534,-400 Z" fill="black" />
<path d="M201.07058823529417,-400 L207.564705882353,-400 L207.564705882353,-350 L201.07058823529417,-350 L201.07058823529417,-400 Z" fill="#f0f0f0" />
<path d="M207.564705882353,-400 L214.05882352941182,-400 L214.05882352941182,-350 L207.564705882353,-350 L207.564705882353,-400 Z" fill="black" />
<path d="M214.05882352941182,-400 L220.55294117647065,-400 L220.55294117647065,-350 L214.05882352941182,-350 L214.05882352941182,-400 Z" fill="#f0f0f0" />
<path d="M220.55294117647065,-400 L227.04705882352948,-400 L227.04705882352948,-350 L220.55294117647065,-350 L220.55294117647065,-400 Z" fill="black" />
<path d="M227.04705882352948,-400 L233.5411764705883,-400 L233.5411764705883,-350 L227.04705882352948,-350 L227.04705882352948,-400 Z" fill="#f0f0f0" />
<path d="M233.5411764705883,-400 L240.03529411764714,-400 L240.03529411764714,-350 L233.5411764705883,-350 L233.5411764705883,-400 Z" fill="black" />
<path d="M240.03529411764714,-400 L246.52941176470597,-400 L246.52941176470597,-350 L240.03529411764714,-350 L240.03529411764714,-400 Z" fill="#f0f0f0" />
<path d="M246.52941176470597,-400 L253.0235294117648,-400 L253.0235294117648,-350 L246.52941176470597,-350 L246.52941176470597,-400 Z" fill="black" />
<path d="M253.0235294117648,-400 L259.5176470588236,-400 L259.5176470588236,-350 L253.0235294117648,-350 L253.0235294117648,-400 Z" fill="#f0f0f0" />
<path d="M259.5176470588236,-400 L266.01176470588246,-400 L266.01176470588246,-350 L259.5176470588236,-350 L259.5176470588236,-400 Z" fill="black" />
<path d="M266.01176470588246,-400 L272.5058823529413,-400 L272.5058823529413,-350 L266.01176470588246,-350 L266.01176470588246,-400 Z" fill="#f0f0f0" />
<path d="M272.5058823529413,-400 L279.0000000000001,-400 L279.0000000000001,-350 L272.5058823529413,-350 L272.5058823529413,-400 Z" fill="black" />
<path d="M279.0000000000001,-400 L285.49411764705894,-400 L285.49411764705894,-350 L279.0000000000001,-350 L279.0000000000001,-400 Z" fill="#f0f0f0" />
<path d="M285.49411764705894,-400 L291.98823529411777,-400 L291.98823529411777,-350 L285.49411764705894,-350 L285.49411764705894,-400 Z" fill="black" />
<path d="M291.98823529411777,-400 L298.4823529411766,-400 L298.4823529411766,-350 L291.98823529411777,-350 L291.98823529411777,-400 Z" fill="#f0f0f0" />
<path d="M298.4823529411766,-400 L304.97647058823543,-400 L304.97647058823543,-350 L298.4823529411766,-350 L298.4823529411766,-400 Z" fill="black" />
<path d="M304.97647058823543,-400 L311.47058823529426,-400 L311.47058823529426,-350 L304.97647058823543,-350 L304.97647058823543,-400 Z" fill="#f0f0f0" />
<path d="M311.47058823529426,-400 L317.9647058823531,-400 L317.9647058823531,-350 L311.47058823529426,-350 L311.47058823529426,-400 Z" fill="black" />
<path d="M317.9647058823531,-400 L324.4588235294119,-400 L324.4588235294119,-350 L317.9647058823531,-350 L317.9647058823531,-400 Z" fill="#f0f0f0" />
<path d="M324.4588235294119,-400 L330.95294117647074,-400 L330.95294117647074,-350 L324.4588235294119,-350 L324.4588235294119,-400 Z" fill="black" />
<path d="M330.95294117647074,-400 L337.4470588235296,-400 L337.4470588235296,-350 L330.95294117647074,-350 L330.95294117647074,-400 Z" fill="#f0f0f0" />
<path d="M337.4470588235296,-400 L343.9411764705884,-400 L343.9411764705884,-350 L337.4470588235296,-350 L337.4470588235296,-400 Z" fill="black" />
<path d="M343.9411764705884,-400 L350.43529411764723,-400 L350.43529411764723,-350 L343.9411764705884,-350 L343.9411764705884,-400 Z" fill="#f0f0f0" />
<path d="M350.43529411764723,-400 L356.92941176470606,-400 L356.92941176470606,-350 L350.43529411764723,-350 L350.43529411764723,-400 Z" fill="black" />
<path d="M356.92941176470606,-400 L363.4235294117649,-400 L363.4235294117649,-350 L356.92941176470606,-350 L356.92941176470606,-400 Z" fill="#f0f0f0" />
<path d="M363.4235294117649,-400 L369.9176470588237,-400 L369.9176470588237,-350 L363.4235294117649,-350 L363.4235294117649,-400 Z" fill="black" />
<path d="M369.9176470588237,-400 L376.41176470588255,-400 L376.41176470588255,-350 L369.9176470588237,-350 L369.9176470588237,-400 Z" fill="#f0f0f0" />
<path d="M376.41176470588255,-400 L382.9058823529414,-400 L382.9058823529414,-350 L376.41176470588255,-350 L376.41176470588255,-400 Z" fill="black" />
<path d="M382.9058823529414,-400 L389.4000000000002,-400 L389.4000000000002,-350 L382.9058823529414,-350 L382.9058823529414,-400 Z" fill="#f0f0f0" />
<path d="M389.4000000000002,-400 L395.89411764705903,-400 L395.89411764705903,-350 L389.4000000000002,-350 L389.4000000000002,-400 Z" fill="black" />
<path d="M395.89411764705903,-400 L402.38823529411786,-400 L402.38823529411786,-350 L395.89411764705903,-350 L395.89411764705903,-400 Z" fill="#f0f0f0" />
<path d="M402.38823529411786,-400 L408.8823529411767,-400 L408.8823529411767,-350 L402.38823529411786,-350 L402.38823529411786,-400 Z" fill="black" />
<path d="M408.8823529411767,-400 L415.3764705882355,-400 L415.3764705882355,-350 L408.8823529411767,-350 L408.8823529411767,-400 Z" fill="#f0f0f0" />
<path d="M415.3764705882355,-400 L421.87058823529435,-400 L421.87058823529435,-350 L415.3764705882355,-350 L415.3764705882355,-400 Z" fill="black" />
<path d="M421.87058823529435,-400 L428.3647058823532,-400 L428.3647058823532,-350 L421.87058823529435,-350 L421.87058823529435,-400 Z" fill="#f0f0f0" />
<path d="M428.3647058823532,-400 L434.858823529412,-400 L434.858823529412,-350 L428.3647058823532,-350 L428.3647058823532,-400 Z" fill="black" />
<path d="M434.858823529412,-400 L441.35294117647084,-400 L441.35294117647084,-350 L434.858823529412,-350 L434.858823529412,-400 Z" fill="#f0f0f0" />
<path d="M441.35294117647084,-400 L447.84705882352966,-400 L447.84705882352966,-350 L441.35294117647084,-350 L441.35294117647084,-400 Z" fill="black" />
<path d="M447.84705882352966,-400 L454.3411764705885,-400 L454.3411764705885,-350 L447.84705882352966,-350 L447.84705882352966,-400 Z" fill="#f0f0f0" />
<path d="M454.3411764705885,-400 L460.8352941176473,-400 L460.8352941176473,-350 L454.3411764705885,-350 L454.3411764705885,-400 Z" fill="black" />
<path d="M460.8352941176473,-400 L467.32941176470615,-400 L467.32941176470615,-350 L460.8352941176473,-350 L460.8352941176473,-400 Z" fill="#f0f0f0" />
<path d="M467.32941176470615,-400 L473.823529411765,-400 L473.823529411765,-350 L467.32941176470615,-350 L467.32941176470615,-400 Z" fill="black" />
<path d="M473.823529411765,-400 L480.3176470588238,-400 L480.3176470588238,-350 L473.823529411765,-350 L473.823529411765,-400 Z" fill="#f0f0f0" />
<path d="M480.3176470588238,-400 L486.81176470588264,-400 L486.81176470588264,-350 L480.3176470588238,-350 L480.3176470588238,-400 Z" fill="black" />
<path d="M486.81176470588264,-400 L493.30588235294147,-400 L493.30588235294147,-350 L486.81176470588264,-350 L486.81176470588264,-400 Z" fill="#f0f0f0" />
<path d="M493.30588235294147,-400 L499.8000000000003,-400 L499.8000000000003,-350 L493.30588235294147,-350 L493.30588235294147,-400 Z" fill="black" />
<text x="168.60000000000002" y="-410" font-size="26" fill="black" dy="0em">CRISPR</text>
<path d="M10.2,-200 L90.60000000000001,-200 L90.60000000000001,-150 L10.2,-150 L10.2,-200 Z" fill="white" stroke="white" stroke-width="4" />
<path d="M10.2,-200 L17.509090909090908,-200 L17.509090909090908,-150 L10.2,-150 L10.2,-200 Z" fill="black" />
<path d="M17.509090909090908,-200 L24.818181818181817,-200 L24.818181818181817,-150 L17.509090909090908,-150 L17.509090909090908,-200 Z" fill="#f0f0f0" />
<path d="M24.818181818181817,-200 L32.127272727272725,-200 L32.127272727272725,-150 L24.818181818181817,-150 L24.818181818181817,-200 Z" fill="black" />
<path d="M32.127272727272725,-200 L39.43636363636364,-200 L39.43636363636364,-150 L32.127272727272725,-150 L32.127272727272725,-200 Z" fill="#f0f0f0" />
<path d="M39.43636363636364,-200 L46.74545454545455,-200 L46.74545454545455,-150 L39.43636363636364,-150 L39.43636363636364,-200 Z" fill="black" />
<path d="M46.74545454545455,-200 L54.05454545454546,-200 L54.05454545454546,-150 L46.74545454545455,-150 L46.74545454545455,-200 Z" fill="#f0f0f0" />
<path d="M54.05454545454546,-200 L61.363636363636374,-200 L61.363636363636374,-150 L54.05454545454546,-150 L54.05454545454546,-200 Z" fill="black" />
<path d="M61.363636363636374,-200 L68.67272727272729,-200 L68.67272727272729,-150 L61.363636363636374,-150 L61.363636363636374,-200 Z" fill="#f0f0f0" />
<path d="M68.67272727272729,-200 L75.9818181818182,-200 L75.9818181818182,-150 L68.67272727272729,-150 L68.67272727272729,-200 Z" fill="black" />
<path d="M75.9818181818182,-200 L83.29090909090911,-200 L83.29090909090911,-150 L75.9818181818182,-150 L75.9818181818182,-200 Z" fill="#f0f0f0" />
<path d="M83.29090909090911,-200 L90.60000000000002,-200 L90.60000000000002,-150 L83.29090909090911,-150 L83.29090909090911,-200 Z" fill="black" />
<text x="10.2" y="-210" font-size="26" fill="black" dy="0em">CRISPR</text>
<text x="16.0" y="-260" font-size="38" fill="black" dy="0em">Unknown: JAWAEW010000017_2 (3586-3988)</text>
</svg>