<?xml version="1.0" encoding="UTF-8"?>
<svg xmlns="http://www.w3.org/2000/svg" xmlns:xlink="http://www.w3.org/1999/xlink"
     width="2935" height="1000" viewBox="0 -1000 2935 1000">
<defs>
</defs>
<path d="M210,-20 L210,-920" stroke="grey" stroke-width="1" fill="none" />
<text x="160" y="-930" font-size="22" fill="grey" dy="0em">1000</text>
<path d="M410,-20 L410,-920" stroke="grey" stroke-width="1" fill="none" />
<text x="360" y="-930" font-size="22" fill="grey" dy="0em">2000</text>
<path d="M610,-20 L610,-920" stroke="grey" stroke-width="1" fill="none" />
<text x="560" y="-930" font-size="22" fill="grey" dy="0em">3000</text>
<path d="M810,-20 L810,-920" stroke="grey" stroke-width="1" fill="none" />
<text x="760" y="-930" font-size="22" fill="grey" dy="0em">4000</text>
<path d="M1010,-20 L1010,-920" stroke="grey" stroke-width="1" fill="none" />
<text x="960" y="-930" font-size="22" fill="grey" dy="0em">5000</text>
<path d="M1210,-20 L1210,-920" stroke="grey" stroke-width="1" fill="none" />
<text x="1160" y="-930" font-size="22" fill="grey" dy="0em">6000</text>
<path d="M1410,-20 L1410,-920" stroke="grey" stroke-width="1" fill="none" />
<text x="1360" y="-930" font-size="22" fill="grey" dy="0em">7000</text>
<path d="M1610,-20 L1610,-920" stroke="grey" stroke-width="1" fill="none" />
<text x="1560" y="-930" font-size="22" fill="grey" dy="0em">8000</text>
<path d="M1810,-20 L1810,-920" stroke="grey" stroke-width="1" fill="none" />
<text x="1760" y="-930" font-size="22" fill="grey" dy="0em">9000</text>
<path d="M2010,-20 L2010,-920" stroke="grey" stroke-width="1" fill="none" />
<text x="1960" y="-930" font-size="22" fill="grey" dy="0em">10000</text>
<path d="M2210,-20 L2210,-920" stroke="grey" stroke-width="1" fill="none" />
<text x="2160" y="-930" font-size="22" fill="grey" dy="0em">11000</text>
<path d="M2410,-20 L2410,-920" stroke="grey" stroke-width="1" fill="none" />
<text x="2360" y="-930" font-size="22" fill="grey" dy="0em">12000</text>
<path d="M2610,-20 L2610,-920" stroke="grey" stroke-width="1" fill="none" />
<text x="2560" y="-930" font-size="22" fill="grey" dy="0em">13000</text>
<path d="M2810,-20 L2810,-920" stroke="grey" stroke-width="1" fill="none" />
<text x="2760" y="-930" font-size="22" fill="grey" dy="0em">14000</text>
<text x="16.0" y="-860" font-size="38" fill="black" dy="0em">I-D: RIZB01000003@7 (404144-418318)</text>
<path d="M347.0,-800 L443.40000000000003,-800 L443.40000000000003,-750 L347.0,-750 L317.0,-775.0 L347.0,-800 Z" fill="#ff80e6" fill-opacity="0.8" stroke="#ff80e6" stroke-width="4" />
<text x="317.0" y="-810" font-size="26" fill="black" dy="0em">CasR</text>
<path d="M478.40000000000003,-800 L618.0,-800 L648.0,-775.0 L618.0,-750 L478.40000000000003,-750 L478.40000000000003,-800 Z" fill="#dd1424" fill-opacity="0.8" stroke="#dd1424" stroke-width="4" />
<text x="478.40000000000003" y="-720" font-size="26" fill="black" dy="0em">Cas6</text>
<path d="M647.4000000000001,-800 L1111.0,-800 L1141.0,-775.0 L1111.0,-750 L647.4000000000001,-750 L647.4000000000001,-800 Z" fill="#efc050" fill-opacity="0.8" stroke="#efc050" stroke-width="4" />
<text x="647.4000000000001" y="-810" font-size="26" fill="black" dy="0em">Cas10d</text>
<path d="M1145.0,-800 L1303.2,-800 L1333.2,-775.0 L1303.2,-750 L1145.0,-750 L1145.0,-800 Z" fill="#efc050" fill-opacity="0.8" stroke="#efc050" stroke-width="4" />
<text x="1145.0" y="-720" font-size="26" fill="black" dy="0em">Csc2gr7</text>
<path d="M1331.8000000000002,-800 L1442.0,-800 L1472.0,-775.0 L1442.0,-750 L1331.8000000000002,-750 L1331.8000000000002,-800 Z" fill="#efc050" fill-opacity="0.8" stroke="#efc050" stroke-width="4" />
<text x="1331.8000000000002" y="-810" font-size="26" fill="black" dy="0em">Csc1gr5</text>
<path d="M1472.2,-800 L1817.6000000000001,-800 L1847.6000000000001,-775.0 L1817.6000000000001,-750 L1472.2,-750 L1472.2,-800 Z" fill="#efc050" fill-opacity="0.8" stroke="#efc050" stroke-width="4" />
<text x="1472.2" y="-720" font-size="26" fill="black" dy="0em">Cas3d</text>
<path d="M1848.2,-800 L1936.2,-800 L1966.2,-775.0 L1936.2,-750 L1848.2,-750 L1848.2,-800 Z" fill="#5b5ea6" fill-opacity="0.8" stroke="#5b5ea6" stroke-width="4" />
<text x="1848.2" y="-810" font-size="26" fill="black" dy="0em">Cas4</text>
<path d="M1965.6000000000001,-800 L2134.6,-800 L2164.6,-775.0 L2134.6,-750 L1965.6000000000001,-750 L1965.6000000000001,-800 Z" fill="#5b5ea6" fill-opacity="0.8" stroke="#5b5ea6" stroke-width="4" />
<text x="1965.6000000000001" y="-720" font-size="26" fill="black" dy="0em">Cas1</text>
<path d="M2164.0,-800 L2188.4,-800 L2218.4,-775.0 L2188.4,-750 L2164.0,-750 L2164.0,-800 Z" fill="#5b5ea6" fill-opacity="0.8" stroke="#5b5ea6" stroke-width="4" />
<text x="2164.0" y="-810" font-size="26" fill="black" dy="0em">Cas2</text>
<path d="M2247.0,-800 L2428.0,-800 L2428.0,-750 L2247.0,-750 L2217.0,-775.0 L2247.0,-800 Z" fill="#d3c9c1" fill-opacity="0.8" stroke="#d3c9c1" stroke-width="4" />
<text x="2217.0" y="-720" font-size="20" fill="black" dy="0em">368</text>
<path d="M2461.2000000000003,-800 L2575.0,-800 L2575.0,-750 L2461.2000000000003,-750 L2431.2000000000003,-775.0 L2461.2000000000003,-800 Z" fill="#d3c9c1" fill-opacity="0.8" stroke="#d3c9c1" stroke-width="4" />
<text x="2431.2000000000003" y="-810" font-size="20" fill="black" dy="0em">369</text>
<path d="M10.2,-800 L293.6,-800 L293.6,-750 L10.2,-750 L10.2,-800 Z" fill="white" stroke="white" stroke-width="4" />
<path d="M10.2,-800 L17.466666666666665,-800 L17.466666666666665,-750 L10.2,-750 L10.2,-800 Z" fill="black" />
<path d="M17.466666666666665,-800 L24.73333333333333,-800 L24.73333333333333,-750 L17.466666666666665,-750 L17.466666666666665,-800 Z" fill="#f0f0f0" />
<path d="M24.73333333333333,-800 L31.999999999999996,-800 L31.999999999999996,-750 L24.73333333333333,-750 L24.73333333333333,-800 Z" fill="black" />
<path d="M31.999999999999996,-800 L39.266666666666666,-800 L39.266666666666666,-750 L31.999999999999996,-750 L31.999999999999996,-800 Z" fill="#f0f0f0" />
<path d="M39.266666666666666,-800 L46.53333333333333,-800 L46.53333333333333,-750 L39.266666666666666,-750 L39.266666666666666,-800 Z" fill="black" />
<path d="M46.53333333333333,-800 L53.8,-800 L53.8,-750 L46.53333333333333,-750 L46.53333333333333,-800 Z" fill="#f0f0f0" />
<path d="M53.8,-800 L61.06666666666666,-800 L61.06666666666666,-750 L53.8,-750 L53.8,-800 Z" fill="black" />
<path d="M61.06666666666666,-800 L68.33333333333333,-800 L68.33333333333333,-750 L61.06666666666666,-750 L61.06666666666666,-800 Z" fill="#f0f0f0" />
<path d="M68.33333333333333,-800 L75.6,-800 L75.6,-750 L68.33333333333333,-750 L68.33333333333333,-800 Z" fill="black" />
<path d="M75.6,-800 L82.86666666666666,-800 L82.86666666666666,-750 L75.6,-750 L75.6,-800 Z" fill="#f0f0f0" />
<path d="M82.86666666666666,-800 L90.13333333333333,-800 L90.13333333333333,-750 L82.86666666666666,-750 L82.86666666666666,-800 Z" fill="black" />
<path d="M90.13333333333333,-800 L97.39999999999999,-800 L97.39999999999999,-750 L90.13333333333333,-750 L90.13333333333333,-800 Z" fill="#f0f0f0" />
<path d="M97.39999999999999,-800 L104.66666666666666,-800 L104.66666666666666,-750 L97.39999999999999,-750 L97.39999999999999,-800 Z" fill="black" />
<path d="M104.66666666666666,-800 L111.93333333333332,-800 L111.93333333333332,-750 L104.66666666666666,-750 L104.66666666666666,-800 Z" fill="#f0f0f0" />
<path d="M111.93333333333332,-800 L119.19999999999999,-800 L119.19999999999999,-750 L111.93333333333332,-750 L111.93333333333332,-800 Z" fill="black" />
<path d="M119.19999999999999,-800 L126.46666666666665,-800 L126.46666666666665,-750 L119.19999999999999,-750 L119.19999999999999,-800 Z" fill="#f0f0f0" />
<path d="M126.46666666666665,-800 L133.73333333333332,-800 L133.73333333333332,-750 L126.46666666666665,-750 L126.46666666666665,-800 Z" fill="black" />
<path d="M133.73333333333332,-800 L141.0,-800 L141.0,-750 L133.73333333333332,-750 L133.73333333333332,-800 Z" fill="#f0f0f0" />
<path d="M141.0,-800 L148.26666666666665,-800 L148.26666666666665,-750 L141.0,-750 L141.0,-800 Z" fill="black" />
<path d="M148.26666666666665,-800 L155.5333333333333,-800 L155.5333333333333,-750 L148.26666666666665,-750 L148.26666666666665,-800 Z" fill="#f0f0f0" />
<path d="M155.5333333333333,-800 L162.79999999999995,-800 L162.79999999999995,-750 L155.5333333333333,-750 L155.5333333333333,-800 Z" fill="black" />
<path d="M162.79999999999995,-800 L170.0666666666666,-800 L170.0666666666666,-750 L162.79999999999995,-750 L162.79999999999995,-800 Z" fill="#f0f0f0" />
<path d="M170.0666666666666,-800 L177.33333333333326,-800 L177.33333333333326,-750 L170.0666666666666,-750 L170.0666666666666,-800 Z" fill="black" />
<path d="M177.33333333333326,-800 L184.5999999999999,-800 L184.5999999999999,-750 L177.33333333333326,-750 L177.33333333333326,-800 Z" fill="#f0f0f0" />
<path d="M184.5999999999999,-800 L191.86666666666656,-800 L191.86666666666656,-750 L184.5999999999999,-750 L184.5999999999999,-800 Z" fill="black" />
<path d="M191.86666666666656,-800 L199.1333333333332,-800 L199.1333333333332,-750 L191.86666666666656,-750 L191.86666666666656,-800 Z" fill="#f0f0f0" />
<path d="M199.1333333333332,-800 L206.39999999999986,-800 L206.39999999999986,-750 L199.1333333333332,-750 L199.1333333333332,-800 Z" fill="black" />
<path d="M206.39999999999986,-800 L213.66666666666652,-800 L213.66666666666652,-750 L206.39999999999986,-750 L206.39999999999986,-800 Z" fill="#f0f0f0" />
<path d="M213.66666666666652,-800 L220.93333333333317,-800 L220.93333333333317,-750 L213.66666666666652,-750 L213.66666666666652,-800 Z" fill="black" />
<path d="M220.93333333333317,-800 L228.19999999999982,-800 L228.19999999999982,-750 L220.93333333333317,-750 L220.93333333333317,-800 Z" fill="#f0f0f0" />
<path d="M228.19999999999982,-800 L235.46666666666647,-800 L235.46666666666647,-750 L228.19999999999982,-750 L228.19999999999982,-800 Z" fill="black" />
<path d="M235.46666666666647,-800 L242.73333333333312,-800 L242.73333333333312,-750 L235.46666666666647,-750 L235.46666666666647,-800 Z" fill="#f0f0f0" />
<path d="M242.73333333333312,-800 L249.99999999999977,-800 L249.99999999999977,-750 L242.73333333333312,-750 L242.73333333333312,-800 Z" fill="black" />
<path d="M249.99999999999977,-800 L257.2666666666664,-800 L257.2666666666664,-750 L249.99999999999977,-750 L249.99999999999977,-800 Z" fill="#f0f0f0" />
<path d="M257.2666666666664,-800 L264.5333333333331,-800 L264.5333333333331,-750 L257.2666666666664,-750 L257.2666666666664,-800 Z" fill="black" />
<path d="M264.5333333333331,-800 L271.7999999999997,-800 L271.7999999999997,-750 L264.5333333333331,-750 L264.5333333333331,-800 Z" fill="#f0f0f0" />
<path d="M271.7999999999997,-800 L279.0666666666664,-800 L279.0666666666664,-750 L271.7999999999997,-750 L271.7999999999997,-800 Z" fill="black" />
<path d="M279.0666666666664,-800 L286.33333333333303,-800 L286.33333333333303,-750 L279.0666666666664,-750 L279.0666666666664,-800 Z" fill="#f0f0f0" />
<path d="M286.33333333333303,-800 L293.5999999999997,-800 L293.5999999999997,-750 L286.33333333333303,-750 L286.33333333333303,-800 Z" fill="black" />
<text x="10.2" y="-810" font-size="26" fill="black" dy="0em">CRISPR: I-D</text>
<path d="M2241.6,-800 L2845.0,-800 L2845.0,-750 L2241.6,-750 L2241.6,-800 Z" fill="white" stroke="white" stroke-width="4" />
<path d="M2241.6,-800 L2248.869879518072,-800 L2248.869879518072,-750 L2241.6,-750 L2241.6,-800 Z" fill="black" />
<path d="M2248.869879518072,-800 L2256.1397590361444,-800 L2256.1397590361444,-750 L2248.869879518072,-750 L2248.869879518072,-800 Z" fill="#f0f0f0" />
<path d="M2256.1397590361444,-800 L2263.4096385542166,-800 L2263.4096385542166,-750 L2256.1397590361444,-750 L2256.1397590361444,-800 Z" fill="black" />
<path d="M2263.4096385542166,-800 L2270.679518072289,-800 L2270.679518072289,-750 L2263.4096385542166,-750 L2263.4096385542166,-800 Z" fill="#f0f0f0" />
<path d="M2270.679518072289,-800 L2277.949397590361,-800 L2277.949397590361,-750 L2270.679518072289,-750 L2270.679518072289,-800 Z" fill="black" />
<path d="M2277.949397590361,-800 L2285.2192771084333,-800 L2285.2192771084333,-750 L2277.949397590361,-750 L2277.949397590361,-800 Z" fill="#f0f0f0" />
<path d="M2285.2192771084333,-800 L2292.4891566265055,-800 L2292.4891566265055,-750 L2285.2192771084333,-750 L2285.2192771084333,-800 Z" fill="black" />
<path d="M2292.4891566265055,-800 L2299.7590361445777,-800 L2299.7590361445777,-750 L2292.4891566265055,-750 L2292.4891566265055,-800 Z" fill="#f0f0f0" />
<path d="M2299.7590361445777,-800 L2307.02891566265,-800 L2307.02891566265,-750 L2299.7590361445777,-750 L2299.7590361445777,-800 Z" fill="black" />
<path d="M2307.02891566265,-800 L2314.298795180722,-800 L2314.298795180722,-750 L2307.02891566265,-750 L2307.02891566265,-800 Z" fill="#f0f0f0" />
<path d="M2314.298795180722,-800 L2321.5686746987944,-800 L2321.5686746987944,-750 L2314.298795180722,-750 L2314.298795180722,-800 Z" fill="black" />
<path d="M2321.5686746987944,-800 L2328.8385542168667,-800 L2328.8385542168667,-750 L2321.5686746987944,-750 L2321.5686746987944,-800 Z" fill="#f0f0f0" />
<path d="M2328.8385542168667,-800 L2336.108433734939,-800 L2336.108433734939,-750 L2328.8385542168667,-750 L2328.8385542168667,-800 Z" fill="black" />
<path d="M2336.108433734939,-800 L2343.378313253011,-800 L2343.378313253011,-750 L2336.108433734939,-750 L2336.108433734939,-800 Z" fill="#f0f0f0" />
<path d="M2343.378313253011,-800 L2350.6481927710834,-800 L2350.6481927710834,-750 L2343.378313253011,-750 L2343.378313253011,-800 Z" fill="black" />
<path d="M2350.6481927710834,-800 L2357.9180722891556,-800 L2357.9180722891556,-750 L2350.6481927710834,-750 L2350.6481927710834,-800 Z" fill="#f0f0f0" />
<path d="M2357.9180722891556,-800 L2365.187951807228,-800 L2365.187951807228,-750 L2357.9180722891556,-750 L2357.9180722891556,-800 Z" fill="black" />
<path d="M2365.187951807228,-800 L2372.4578313253,-800 L2372.4578313253,-750 L2365.187951807228,-750 L2365.187951807228,-800 Z" fill="#f0f0f0" />
<path d="M2372.4578313253,-800 L2379.7277108433723,-800 L2379.7277108433723,-750 L2372.4578313253,-750 L2372.4578313253,-800 Z" fill="black" />
<path d="M2379.7277108433723,-800 L2386.9975903614445,-800 L2386.9975903614445,-750 L2379.7277108433723,-750 L2379.7277108433723,-800 Z" fill="#f0f0f0" />
<path d="M2386.9975903614445,-800 L2394.2674698795167,-800 L2394.2674698795167,-750 L2386.9975903614445,-750 L2386.9975903614445,-800 Z" fill="black" />
<path d="M2394.2674698795167,-800 L2401.537349397589,-800 L2401.537349397589,-750 L2394.2674698795167,-750 L2394.2674698795167,-800 Z" fill="#f0f0f0" />
<path d="M2401.537349397589,-800 L2408.807228915661,-800 L2408.807228915661,-750 L2401.537349397589,-750 L2401.537349397589,-800 Z" fill="black" />
<path d="M2408.807228915661,-800 L2416.0771084337334,-800 L2416.0771084337334,-750 L2408.807228915661,-750 L2408.807228915661,-800 Z" fill="#f0f0f0" />
<path d="M2416.0771084337334,-800 L2423.3469879518057,-800 L2423.3469879518057,-750 L2416.0771084337334,-750 L2416.0771084337334,-800 Z" fill="black" />
<path d="M2423.3469879518057,-800 L2430.616867469878,-800 L2430.616867469878,-750 L2423.3469879518057,-750 L2423.3469879518057,-800 Z" fill="#f0f0f0" />
<path d="M2430.616867469878,-800 L2437.88674698795,-800 L2437.88674698795,-750 L2430.616867469878,-750 L2430.616867469878,-800 Z" fill="black" />
<path d="M2437.88674698795,-800 L2445.1566265060223,-800 L2445.1566265060223,-750 L2437.88674698795,-750 L2437.88674698795,-800 Z" fill="#f0f0f0" />
<path d="M2445.1566265060223,-800 L2452.4265060240946,-800 L2452.4265060240946,-750 L2445.1566265060223,-750 L2445.1566265060223,-800 Z" fill="black" />
<path d="M2452.4265060240946,-800 L2459.696385542167,-800 L2459.696385542167,-750 L2452.4265060240946,-750 L2452.4265060240946,-800 Z" fill="#f0f0f0" />
<path d="M2459.696385542167,-800 L2466.966265060239,-800 L2466.966265060239,-750 L2459.696385542167,-750 L2459.696385542167,-800 Z" fill="black" />
<path d="M2466.966265060239,-800 L2474.2361445783113,-800 L2474.2361445783113,-750 L2466.966265060239,-750 L2466.966265060239,-800 Z" fill="#f0f0f0" />
<path d="M2474.2361445783113,-800 L2481.5060240963835,-800 L2481.5060240963835,-750 L2474.2361445783113,-750 L2474.2361445783113,-800 Z" fill="black" />
<path d="M2481.5060240963835,-800 L2488.7759036144557,-800 L2488.7759036144557,-750 L2481.5060240963835,-750 L2481.5060240963835,-800 Z" fill="#f0f0f0" />
<path d="M2488.7759036144557,-800 L2496.045783132528,-800 L2496.045783132528,-750 L2488.7759036144557,-750 L2488.7759036144557,-800 Z" fill="black" />
<path d="M2496.045783132528,-800 L2503.3156626506,-800 L2503.3156626506,-750 L2496.045783132528,-750 L2496.045783132528,-800 Z" fill="#f0f0f0" />
<path d="M2503.3156626506,-800 L2510.5855421686724,-800 L2510.5855421686724,-750 L2503.3156626506,-750 L2503.3156626506,-800 Z" fill="black" />
<path d="M2510.5855421686724,-800 L2517.8554216867446,-800 L2517.8554216867446,-750 L2510.5855421686724,-750 L2510.5855421686724,-800 Z" fill="#f0f0f0" />
<path d="M2517.8554216867446,-800 L2525.125301204817,-800 L2525.125301204817,-750 L2517.8554216867446,-750 L2517.8554216867446,-800 Z" fill="black" />
<path d="M2525.125301204817,-800 L2532.395180722889,-800 L2532.395180722889,-750 L2525.125301204817,-750 L2525.125301204817,-800 Z" fill="#f0f0f0" />
<path d="M2532.395180722889,-800 L2539.6650602409613,-800 L2539.6650602409613,-750 L2532.395180722889,-750 L2532.395180722889,-800 Z" fill="black" />
<path d="M2539.6650602409613,-800 L2546.9349397590336,-800 L2546.9349397590336,-750 L2539.6650602409613,-750 L2539.6650602409613,-800 Z" fill="#f0f0f0" />
<path d="M2546.9349397590336,-800 L2554.204819277106,-800 L2554.204819277106,-750 L2546.9349397590336,-750 L2546.9349397590336,-800 Z" fill="black" />
<path d="M2554.204819277106,-800 L2561.474698795178,-800 L2561.474698795178,-750 L2554.204819277106,-750 L2554.204819277106,-800 Z" fill="#f0f0f0" />
<path d="M2561.474698795178,-800 L2568.7445783132503,-800 L2568.7445783132503,-750 L2561.474698795178,-750 L2561.474698795178,-800 Z" fill="black" />
<path d="M2568.7445783132503,-800 L2576.0144578313225,-800 L2576.0144578313225,-750 L2568.7445783132503,-750 L2568.7445783132503,-800 Z" fill="#f0f0f0" />
<path d="M2576.0144578313225,-800 L2583.2843373493947,-800 L2583.2843373493947,-750 L2576.0144578313225,-750 L2576.0144578313225,-800 Z" fill="black" />
<path d="M2583.2843373493947,-800 L2590.554216867467,-800 L2590.554216867467,-750 L2583.2843373493947,-750 L2583.2843373493947,-800 Z" fill="#f0f0f0" />
<path d="M2590.554216867467,-800 L2597.824096385539,-800 L2597.824096385539,-750 L2590.554216867467,-750 L2590.554216867467,-800 Z" fill="black" />
<path d="M2597.824096385539,-800 L2605.0939759036114,-800 L2605.0939759036114,-750 L2597.824096385539,-750 L2597.824096385539,-800 Z" fill="#f0f0f0" />
<path d="M2605.0939759036114,-800 L2612.3638554216836,-800 L2612.3638554216836,-750 L2605.0939759036114,-750 L2605.0939759036114,-800 Z" fill="black" />
<path d="M2612.3638554216836,-800 L2619.633734939756,-800 L2619.633734939756,-750 L2612.3638554216836,-750 L2612.3638554216836,-800 Z" fill="#f0f0f0" />
<path d="M2619.633734939756,-800 L2626.903614457828,-800 L2626.903614457828,-750 L2619.633734939756,-750 L2619.633734939756,-800 Z" fill="black" />
<path d="M2626.903614457828,-800 L2634.1734939759003,-800 L2634.1734939759003,-750 L2626.903614457828,-750 L2626.903614457828,-800 Z" fill="#f0f0f0" />
<path d="M2634.1734939759003,-800 L2641.4433734939726,-800 L2641.4433734939726,-750 L2634.1734939759003,-750 L2634.1734939759003,-800 Z" fill="black" />
<path d="M2641.4433734939726,-800 L2648.713253012045,-800 L2648.713253012045,-750 L2641.4433734939726,-750 L2641.4433734939726,-800 Z" fill="#f0f0f0" />
<path d="M2648.713253012045,-800 L2655.983132530117,-800 L2655.983132530117,-750 L2648.713253012045,-750 L2648.713253012045,-800 Z" fill="black" />
<path d="M2655.983132530117,-800 L2663.2530120481892,-800 L2663.2530120481892,-750 L2655.983132530117,-750 L2655.983132530117,-800 Z" fill="#f0f0f0" />
<path d="M2663.2530120481892,-800 L2670.5228915662615,-800 L2670.5228915662615,-750 L2663.2530120481892,-750 L2663.2530120481892,-800 Z" fill="black" />
<path d="M2670.5228915662615,-800 L2677.7927710843337,-800 L2677.7927710843337,-750 L2670.5228915662615,-750 L2670.5228915662615,-800 Z" fill="#f0f0f0" />
<path d="M2677.7927710843337,-800 L2685.062650602406,-800 L2685.062650602406,-750 L2677.7927710843337,-750 L2677.7927710843337,-800 Z" fill="black" />
<path d="M2685.062650602406,-800 L2692.332530120478,-800 L2692.332530120478,-750 L2685.062650602406,-750 L2685.062650602406,-800 Z" fill="#f0f0f0" />
<path d="M2692.332530120478,-800 L2699.6024096385504,-800 L2699.6024096385504,-750 L2692.332530120478,-750 L2692.332530120478,-800 Z" fill="black" />
<path d="M2699.6024096385504,-800 L2706.8722891566226,-800 L2706.8722891566226,-750 L2699.6024096385504,-750 L2699.6024096385504,-800 Z" fill="#f0f0f0" />
<path d="M2706.8722891566226,-800 L2714.142168674695,-800 L2714.142168674695,-750 L2706.8722891566226,-750 L2706.8722891566226,-800 Z" fill="black" />
<path d="M2714.142168674695,-800 L2721.412048192767,-800 L2721.412048192767,-750 L2714.142168674695,-750 L2714.142168674695,-800 Z" fill="#f0f0f0" />
<path d="M2721.412048192767,-800 L2728.6819277108393,-800 L2728.6819277108393,-750 L2721.412048192767,-750 L2721.412048192767,-800 Z" fill="black" />
<path d="M2728.6819277108393,-800 L2735.9518072289115,-800 L2735.9518072289115,-750 L2728.6819277108393,-750 L2728.6819277108393,-800 Z" fill="#f0f0f0" />
<path d="M2735.9518072289115,-800 L2743.221686746984,-800 L2743.221686746984,-750 L2735.9518072289115,-750 L2735.9518072289115,-800 Z" fill="black" />
<path d="M2743.221686746984,-800 L2750.491566265056,-800 L2750.491566265056,-750 L2743.221686746984,-750 L2743.221686746984,-800 Z" fill="#f0f0f0" />
<path d="M2750.491566265056,-800 L2757.7614457831282,-800 L2757.7614457831282,-750 L2750.491566265056,-750 L2750.491566265056,-800 Z" fill="black" />
<path d="M2757.7614457831282,-800 L2765.0313253012005,-800 L2765.0313253012005,-750 L2757.7614457831282,-750 L2757.7614457831282,-800 Z" fill="#f0f0f0" />
<path d="M2765.0313253012005,-800 L2772.3012048192727,-800 L2772.3012048192727,-750 L2765.0313253012005,-750 L2765.0313253012005,-800 Z" fill="black" />
<path d="M2772.3012048192727,-800 L2779.571084337345,-800 L2779.571084337345,-750 L2772.3012048192727,-750 L2772.3012048192727,-800 Z" fill="#f0f0f0" />
<path d="M2779.571084337345,-800 L2786.840963855417,-800 L2786.840963855417,-750 L2779.571084337345,-750 L2779.571084337345,-800 Z" fill="black" />
<path d="M2786.840963855417,-800 L2794.1108433734894,-800 L2794.1108433734894,-750 L2786.840963855417,-750 L2786.840963855417,-800 Z" fill="#f0f0f0" />
<path d="M2794.1108433734894,-800 L2801.3807228915616,-800 L2801.3807228915616,-750 L2794.1108433734894,-750 L2794.1108433734894,-800 Z" fill="black" />
<path d="M2801.3807228915616,-800 L2808.650602409634,-800 L2808.650602409634,-750 L2801.3807228915616,-750 L2801.3807228915616,-800 Z" fill="#f0f0f0" />
<path d="M2808.650602409634,-800 L2815.920481927706,-800 L2815.920481927706,-750 L2808.650602409634,-750 L2808.650602409634,-800 Z" fill="black" />
<path d="M2815.920481927706,-800 L2823.1903614457783,-800 L2823.1903614457783,-750 L2815.920481927706,-750 L2815.920481927706,-800 Z" fill="#f0f0f0" />
<path d="M2823.1903614457783,-800 L2830.4602409638505,-800 L2830.4602409638505,-750 L2823.1903614457783,-750 L2823.1903614457783,-800 Z" fill="black" />
<path d="M2830.4602409638505,-800 L2837.7301204819228,-800 L2837.7301204819228,-750 L2830.4602409638505,-750 L2830.4602409638505,-800 Z" fill="#f0f0f0" />
<path d="M2837.7301204819228,-800 L2844.999999999995,-800 L2844.999999999995,-750 L2837.7301204819228,-750 L2837.7301204819228,-800 Z" fill="black" />
<text x="2241.6" y="-810" font-size="26" fill="black" dy="0em">CRISPR: I-D</text>
<text x="16.0" y="-660" font-size="38" fill="black" dy="0em">I-B: RIZB01000002@6 (276206-289705)</text>
<path d="M888.6,-600 L911.2,-600 L911.2,-550 L888.6,-550 L858.6,-575.0 L888.6,-600 Z" fill="#5b5ea6" fill-opacity="0.8" stroke="#5b5ea6" stroke-width="4" />
<text x="858.6" y="-610" font-size="26" fill="black" dy="0em">Cas2</text>
<path d="M942.0,-600 L1110.4,-600 L1110.4,-550 L942.0,-550 L912.0,-575.0 L942.0,-600 Z" fill="#5b5ea6" fill-opacity="0.8" stroke="#5b5ea6" stroke-width="4" />
<text x="912.0" y="-520" font-size="26" fill="black" dy="0em">Cas1</text>
<path d="M1141.0,-600 L1227.2,-600 L1227.2,-550 L1141.0,-550 L1111.0,-575.0 L1141.0,-600 Z" fill="#5b5ea6" fill-opacity="0.8" stroke="#5b5ea6" stroke-width="4" />
<text x="1111.0" y="-610" font-size="26" fill="black" dy="0em">Cas4</text>
<path d="M1258.2,-600 L1750.0,-600 L1750.0,-550 L1258.2,-550 L1228.2,-575.0 L1258.2,-600 Z" fill="#efc050" fill-opacity="0.8" stroke="#efc050" stroke-width="4" />
<text x="1228.2" y="-520" font-size="26" fill="black" dy="0em">Cas3</text>
<path d="M1780.0,-600 L1917.2,-600 L1917.2,-550 L1780.0,-550 L1750.0,-575.0 L1780.0,-600 Z" fill="#efc050" fill-opacity="0.8" stroke="#efc050" stroke-width="4" />
<text x="1750.0" y="-610" font-size="26" fill="black" dy="0em">Cas5</text>
<path d="M1947.8000000000002,-600 L2130.0,-600 L2130.0,-550 L1947.8000000000002,-550 L1917.8000000000002,-575.0 L1947.8000000000002,-600 Z" fill="#efc050" fill-opacity="0.8" stroke="#efc050" stroke-width="4" />
<text x="1917.8000000000002" y="-520" font-size="26" fill="black" dy="0em">Cas7</text>
<path d="M2158.6,-600 L2549.6000000000004,-600 L2549.6000000000004,-550 L2158.6,-550 L2128.6,-575.0 L2158.6,-600 Z" fill="#efc050" fill-opacity="0.8" stroke="#efc050" stroke-width="4" />
<text x="2128.6" y="-610" font-size="26" fill="black" dy="0em">Cas8b</text>
<path d="M2577.0,-600 L2710.0,-600 L2710.0,-550 L2577.0,-550 L2547.0,-575.0 L2577.0,-600 Z" fill="#dd1424" fill-opacity="0.8" stroke="#dd1424" stroke-width="4" />
<text x="2547.0" y="-520" font-size="26" fill="black" dy="0em">Cas6</text>
<path d="M10.2,-600 L837.8000000000001,-600 L837.8000000000001,-550 L10.2,-550 L10.2,-600 Z" fill="white" stroke="white" stroke-width="4" />
<path d="M10.2,-600 L16.8208,-600 L16.8208,-550 L10.2,-550 L10.2,-600 Z" fill="black" />
<path d="M16.8208,-600 L23.441599999999998,-600 L23.441599999999998,-550 L16.8208,-550 L16.8208,-600 Z" fill="#f0f0f0" />
<path d="M23.441599999999998,-600 L30.062399999999997,-600 L30.062399999999997,-550 L23.441599999999998,-550 L23.441599999999998,-600 Z" fill="black" />
<path d="M30.062399999999997,-600 L36.6832,-600 L36.6832,-550 L30.062399999999997,-550 L30.062399999999997,-600 Z" fill="#f0f0f0" />
<path d="M36.6832,-600 L43.304,-600 L43.304,-550 L36.6832,-550 L36.6832,-600 Z" fill="black" />
<path d="M43.304,-600 L49.924800000000005,-600 L49.924800000000005,-550 L43.304,-550 L43.304,-600 Z" fill="#f0f0f0" />
<path d="M49.924800000000005,-600 L56.54560000000001,-600 L56.54560000000001,-550 L49.924800000000005,-550 L49.924800000000005,-600 Z" fill="black" />
<path d="M56.54560000000001,-600 L63.16640000000001,-600 L63.16640000000001,-550 L56.54560000000001,-550 L56.54560000000001,-600 Z" fill="#f0f0f0" />
<path d="M63.16640000000001,-600 L69.78720000000001,-600 L69.78720000000001,-550 L63.16640000000001,-550 L63.16640000000001,-600 Z" fill="black" />
<path d="M69.78720000000001,-600 L76.40800000000002,-600 L76.40800000000002,-550 L69.78720000000001,-550 L69.78720000000001,-600 Z" fill="#f0f0f0" />
<path d="M76.40800000000002,-600 L83.02880000000002,-600 L83.02880000000002,-550 L76.40800000000002,-550 L76.40800000000002,-600 Z" fill="black" />
<path d="M83.02880000000002,-600 L89.64960000000002,-600 L89.64960000000002,-550 L83.02880000000002,-550 L83.02880000000002,-600 Z" fill="#f0f0f0" />
<path d="M89.64960000000002,-600 L96.27040000000002,-600 L96.27040000000002,-550 L89.64960000000002,-550 L89.64960000000002,-600 Z" fill="black" />
<path d="M96.27040000000002,-600 L102.89120000000003,-600 L102.89120000000003,-550 L96.27040000000002,-550 L96.27040000000002,-600 Z" fill="#f0f0f0" />
<path d="M102.89120000000003,-600 L109.51200000000003,-600 L109.51200000000003,-550 L102.89120000000003,-550 L102.89120000000003,-600 Z" fill="black" />
<path d="M109.51200000000003,-600 L116.13280000000003,-600 L116.13280000000003,-550 L109.51200000000003,-550 L109.51200000000003,-600 Z" fill="#f0f0f0" />
<path d="M116.13280000000003,-600 L122.75360000000003,-600 L122.75360000000003,-550 L116.13280000000003,-550 L116.13280000000003,-600 Z" fill="black" />
<path d="M122.75360000000003,-600 L129.37440000000004,-600 L129.37440000000004,-550 L122.75360000000003,-550 L122.75360000000003,-600 Z" fill="#f0f0f0" />
<path d="M129.37440000000004,-600 L135.99520000000004,-600 L135.99520000000004,-550 L129.37440000000004,-550 L129.37440000000004,-600 Z" fill="black" />
<path d="M135.99520000000004,-600 L142.61600000000004,-600 L142.61600000000004,-550 L135.99520000000004,-550 L135.99520000000004,-600 Z" fill="#f0f0f0" />
<path d="M142.61600000000004,-600 L149.23680000000004,-600 L149.23680000000004,-550 L142.61600000000004,-550 L142.61600000000004,-600 Z" fill="black" />
<path d="M149.23680000000004,-600 L155.85760000000005,-600 L155.85760000000005,-550 L149.23680000000004,-550 L149.23680000000004,-600 Z" fill="#f0f0f0" />
<path d="M155.85760000000005,-600 L162.47840000000005,-600 L162.47840000000005,-550 L155.85760000000005,-550 L155.85760000000005,-600 Z" fill="black" />
<path d="M162.47840000000005,-600 L169.09920000000005,-600 L169.09920000000005,-550 L162.47840000000005,-550 L162.47840000000005,-600 Z" fill="#f0f0f0" />
<path d="M169.09920000000005,-600 L175.72000000000006,-600 L175.72000000000006,-550 L169.09920000000005,-550 L169.09920000000005,-600 Z" fill="black" />
<path d="M175.72000000000006,-600 L182.34080000000006,-600 L182.34080000000006,-550 L175.72000000000006,-550 L175.72000000000006,-600 Z" fill="#f0f0f0" />
<path d="M182.34080000000006,-600 L188.96160000000006,-600 L188.96160000000006,-550 L182.34080000000006,-550 L182.34080000000006,-600 Z" fill="black" />
<path d="M188.96160000000006,-600 L195.58240000000006,-600 L195.58240000000006,-550 L188.96160000000006,-550 L188.96160000000006,-600 Z" fill="#f0f0f0" />
<path d="M195.58240000000006,-600 L202.20320000000007,-600 L202.20320000000007,-550 L195.58240000000006,-550 L195.58240000000006,-600 Z" fill="black" />
<path d="M202.20320000000007,-600 L208.82400000000007,-600 L208.82400000000007,-550 L202.20320000000007,-550 L202.20320000000007,-600 Z" fill="#f0f0f0" />
<path d="M208.82400000000007,-600 L215.44480000000007,-600 L215.44480000000007,-550 L208.82400000000007,-550 L208.82400000000007,-600 Z" fill="black" />
<path d="M215.44480000000007,-600 L222.06560000000007,-600 L222.06560000000007,-550 L215.44480000000007,-550 L215.44480000000007,-600 Z" fill="#f0f0f0" />
<path d="M222.06560000000007,-600 L228.68640000000008,-600 L228.68640000000008,-550 L222.06560000000007,-550 L222.06560000000007,-600 Z" fill="black" />
<path d="M228.68640000000008,-600 L235.30720000000008,-600 L235.30720000000008,-550 L228.68640000000008,-550 L228.68640000000008,-600 Z" fill="#f0f0f0" />
<path d="M235.30720000000008,-600 L241.92800000000008,-600 L241.92800000000008,-550 L235.30720000000008,-550 L235.30720000000008,-600 Z" fill="black" />
<path d="M241.92800000000008,-600 L248.54880000000009,-600 L248.54880000000009,-550 L241.92800000000008,-550 L241.92800000000008,-600 Z" fill="#f0f0f0" />
<path d="M248.54880000000009,-600 L255.1696000000001,-600 L255.1696000000001,-550 L248.54880000000009,-550 L248.54880000000009,-600 Z" fill="black" />
<path d="M255.1696000000001,-600 L261.7904000000001,-600 L261.7904000000001,-550 L255.1696000000001,-550 L255.1696000000001,-600 Z" fill="#f0f0f0" />
<path d="M261.7904000000001,-600 L268.41120000000006,-600 L268.41120000000006,-550 L261.7904000000001,-550 L261.7904000000001,-600 Z" fill="black" />
<path d="M268.41120000000006,-600 L275.03200000000004,-600 L275.03200000000004,-550 L268.41120000000006,-550 L268.41120000000006,-600 Z" fill="#f0f0f0" />
<path d="M275.03200000000004,-600 L281.6528,-600 L281.6528,-550 L275.03200000000004,-550 L275.03200000000004,-600 Z" fill="black" />
<path d="M281.6528,-600 L288.2736,-600 L288.2736,-550 L281.6528,-550 L281.6528,-600 Z" fill="#f0f0f0" />
<path d="M288.2736,-600 L294.89439999999996,-600 L294.89439999999996,-550 L288.2736,-550 L288.2736,-600 Z" fill="black" />
<path d="M294.89439999999996,-600 L301.51519999999994,-600 L301.51519999999994,-550 L294.89439999999996,-550 L294.89439999999996,-600 Z" fill="#f0f0f0" />
<path d="M301.51519999999994,-600 L308.1359999999999,-600 L308.1359999999999,-550 L301.51519999999994,-550 L301.51519999999994,-600 Z" fill="black" />
<path d="M308.1359999999999,-600 L314.7567999999999,-600 L314.7567999999999,-550 L308.1359999999999,-550 L308.1359999999999,-600 Z" fill="#f0f0f0" />
<path d="M314.7567999999999,-600 L321.37759999999986,-600 L321.37759999999986,-550 L314.7567999999999,-550 L314.7567999999999,-600 Z" fill="black" />
<path d="M321.37759999999986,-600 L327.99839999999983,-600 L327.99839999999983,-550 L321.37759999999986,-550 L321.37759999999986,-600 Z" fill="#f0f0f0" />
<path d="M327.99839999999983,-600 L334.6191999999998,-600 L334.6191999999998,-550 L327.99839999999983,-550 L327.99839999999983,-600 Z" fill="black" />
<path d="M334.6191999999998,-600 L341.2399999999998,-600 L341.2399999999998,-550 L334.6191999999998,-550 L334.6191999999998,-600 Z" fill="#f0f0f0" />
<path d="M341.2399999999998,-600 L347.86079999999976,-600 L347.86079999999976,-550 L341.2399999999998,-550 L341.2399999999998,-600 Z" fill="black" />
<path d="M347.86079999999976,-600 L354.48159999999973,-600 L354.48159999999973,-550 L347.86079999999976,-550 L347.86079999999976,-600 Z" fill="#f0f0f0" />
<path d="M354.48159999999973,-600 L361.1023999999997,-600 L361.1023999999997,-550 L354.48159999999973,-550 L354.48159999999973,-600 Z" fill="black" />
<path d="M361.1023999999997,-600 L367.7231999999997,-600 L367.7231999999997,-550 L361.1023999999997,-550 L361.1023999999997,-600 Z" fill="#f0f0f0" />
<path d="M367.7231999999997,-600 L374.34399999999965,-600 L374.34399999999965,-550 L367.7231999999997,-550 L367.7231999999997,-600 Z" fill="black" />
<path d="M374.34399999999965,-600 L380.9647999999996,-600 L380.9647999999996,-550 L374.34399999999965,-550 L374.34399999999965,-600 Z" fill="#f0f0f0" />
<path d="M380.9647999999996,-600 L387.5855999999996,-600 L387.5855999999996,-550 L380.9647999999996,-550 L380.9647999999996,-600 Z" fill="black" />
<path d="M387.5855999999996,-600 L394.2063999999996,-600 L394.2063999999996,-550 L387.5855999999996,-550 L387.5855999999996,-600 Z" fill="#f0f0f0" />
<path d="M394.2063999999996,-600 L400.82719999999955,-600 L400.82719999999955,-550 L394.2063999999996,-550 L394.2063999999996,-600 Z" fill="black" />
<path d="M400.82719999999955,-600 L407.4479999999995,-600 L407.4479999999995,-550 L400.82719999999955,-550 L400.82719999999955,-600 Z" fill="#f0f0f0" />
<path d="M407.4479999999995,-600 L414.0687999999995,-600 L414.0687999999995,-550 L407.4479999999995,-550 L407.4479999999995,-600 Z" fill="black" />
<path d="M414.0687999999995,-600 L420.6895999999995,-600 L420.6895999999995,-550 L414.0687999999995,-550 L414.0687999999995,-600 Z" fill="#f0f0f0" />
<path d="M420.6895999999995,-600 L427.31039999999945,-600 L427.31039999999945,-550 L420.6895999999995,-550 L420.6895999999995,-600 Z" fill="black" />
<path d="M427.31039999999945,-600 L433.9311999999994,-600 L433.9311999999994,-550 L427.31039999999945,-550 L427.31039999999945,-600 Z" fill="#f0f0f0" />
<path d="M433.9311999999994,-600 L440.5519999999994,-600 L440.5519999999994,-550 L433.9311999999994,-550 L433.9311999999994,-600 Z" fill="black" />
<path d="M440.5519999999994,-600 L447.17279999999937,-600 L447.17279999999937,-550 L440.5519999999994,-550 L440.5519999999994,-600 Z" fill="#f0f0f0" />
<path d="M447.17279999999937,-600 L453.79359999999934,-600 L453.79359999999934,-550 L447.17279999999937,-550 L447.17279999999937,-600 Z" fill="black" />
<path d="M453.79359999999934,-600 L460.4143999999993,-600 L460.4143999999993,-550 L453.79359999999934,-550 L453.79359999999934,-600 Z" fill="#f0f0f0" />
<path d="M460.4143999999993,-600 L467.0351999999993,-600 L467.0351999999993,-550 L460.4143999999993,-550 L460.4143999999993,-600 Z" fill="black" />
<path d="M467.0351999999993,-600 L473.65599999999927,-600 L473.65599999999927,-550 L467.0351999999993,-550 L467.0351999999993,-600 Z" fill="#f0f0f0" />
<path d="M473.65599999999927,-600 L480.27679999999924,-600 L480.27679999999924,-550 L473.65599999999927,-550 L473.65599999999927,-600 Z" fill="black" />
<path d="M480.27679999999924,-600 L486.8975999999992,-600 L486.8975999999992,-550 L480.27679999999924,-550 L480.27679999999924,-600 Z" fill="#f0f0f0" />
<path d="M486.8975999999992,-600 L493.5183999999992,-600 L493.5183999999992,-550 L486.8975999999992,-550 L486.8975999999992,-600 Z" fill="black" />
<path d="M493.5183999999992,-600 L500.13919999999916,-600 L500.13919999999916,-550 L493.5183999999992,-550 L493.5183999999992,-600 Z" fill="#f0f0f0" />
<path d="M500.13919999999916,-600 L506.75999999999914,-600 L506.75999999999914,-550 L500.13919999999916,-550 L500.13919999999916,-600 Z" fill="black" />
<path d="M506.75999999999914,-600 L513.3807999999991,-600 L513.3807999999991,-550 L506.75999999999914,-550 L506.75999999999914,-600 Z" fill="#f0f0f0" />
<path d="M513.3807999999991,-600 L520.0015999999991,-600 L520.0015999999991,-550 L513.3807999999991,-550 L513.3807999999991,-600 Z" fill="black" />
<path d="M520.0015999999991,-600 L526.6223999999992,-600 L526.6223999999992,-550 L520.0015999999991,-550 L520.0015999999991,-600 Z" fill="#f0f0f0" />
<path d="M526.6223999999992,-600 L533.2431999999992,-600 L533.2431999999992,-550 L526.6223999999992,-550 L526.6223999999992,-600 Z" fill="black" />
<path d="M533.2431999999992,-600 L539.8639999999992,-600 L539.8639999999992,-550 L533.2431999999992,-550 L533.2431999999992,-600 Z" fill="#f0f0f0" />
<path d="M539.8639999999992,-600 L546.4847999999993,-600 L546.4847999999993,-550 L539.8639999999992,-550 L539.8639999999992,-600 Z" fill="black" />
<path d="M546.4847999999993,-600 L553.1055999999993,-600 L553.1055999999993,-550 L546.4847999999993,-550 L546.4847999999993,-600 Z" fill="#f0f0f0" />
<path d="M553.1055999999993,-600 L559.7263999999993,-600 L559.7263999999993,-550 L553.1055999999993,-550 L553.1055999999993,-600 Z" fill="black" />
<path d="M559.7263999999993,-600 L566.3471999999994,-600 L566.3471999999994,-550 L559.7263999999993,-550 L559.7263999999993,-600 Z" fill="#f0f0f0" />
<path d="M566.3471999999994,-600 L572.9679999999994,-600 L572.9679999999994,-550 L566.3471999999994,-550 L566.3471999999994,-600 Z" fill="black" />
<path d="M572.9679999999994,-600 L579.5887999999994,-600 L579.5887999999994,-550 L572.9679999999994,-550 L572.9679999999994,-600 Z" fill="#f0f0f0" />
<path d="M579.5887999999994,-600 L586.2095999999995,-600 L586.2095999999995,-550 L579.5887999999994,-550 L579.5887999999994,-600 Z" fill="black" />
<path d="M586.2095999999995,-600 L592.8303999999995,-600 L592.8303999999995,-550 L586.2095999999995,-550 L586.2095999999995,-600 Z" fill="#f0f0f0" />
<path d="M592.8303999999995,-600 L599.4511999999995,-600 L599.4511999999995,-550 L592.8303999999995,-550 L592.8303999999995,-600 Z" fill="black" />
<path d="M599.4511999999995,-600 L606.0719999999995,-600 L606.0719999999995,-550 L599.4511999999995,-550 L599.4511999999995,-600 Z" fill="#f0f0f0" />
<path d="M606.0719999999995,-600 L612.6927999999996,-600 L612.6927999999996,-550 L606.0719999999995,-550 L606.0719999999995,-600 Z" fill="black" />
<path d="M612.6927999999996,-600 L619.3135999999996,-600 L619.3135999999996,-550 L612.6927999999996,-550 L612.6927999999996,-600 Z" fill="#f0f0f0" />
<path d="M619.3135999999996,-600 L625.9343999999996,-600 L625.9343999999996,-550 L619.3135999999996,-550 L619.3135999999996,-600 Z" fill="black" />
<path d="M625.9343999999996,-600 L632.5551999999997,-600 L632.5551999999997,-550 L625.9343999999996,-550 L625.9343999999996,-600 Z" fill="#f0f0f0" />
<path d="M632.5551999999997,-600 L639.1759999999997,-600 L639.1759999999997,-550 L632.5551999999997,-550 L632.5551999999997,-600 Z" fill="black" />
<path d="M639.1759999999997,-600 L645.7967999999997,-600 L645.7967999999997,-550 L639.1759999999997,-550 L639.1759999999997,-600 Z" fill="#f0f0f0" />
<path d="M645.7967999999997,-600 L652.4175999999998,-600 L652.4175999999998,-550 L645.7967999999997,-550 L645.7967999999997,-600 Z" fill="black" />
<path d="M652.4175999999998,-600 L659.0383999999998,-600 L659.0383999999998,-550 L652.4175999999998,-550 L652.4175999999998,-600 Z" fill="#f0f0f0" />
<path d="M659.0383999999998,-600 L665.6591999999998,-600 L665.6591999999998,-550 L659.0383999999998,-550 L659.0383999999998,-600 Z" fill="black" />
<path d="M665.6591999999998,-600 L672.2799999999999,-600 L672.2799999999999,-550 L665.6591999999998,-550 L665.6591999999998,-600 Z" fill="#f0f0f0" />
<path d="M672.2799999999999,-600 L678.9007999999999,-600 L678.9007999999999,-550 L672.2799999999999,-550 L672.2799999999999,-600 Z" fill="black" />
<path d="M678.9007999999999,-600 L685.5215999999999,-600 L685.5215999999999,-550 L678.9007999999999,-550 L678.9007999999999,-600 Z" fill="#f0f0f0" />
<path d="M685.5215999999999,-600 L692.1424,-600 L692.1424,-550 L685.5215999999999,-550 L685.5215999999999,-600 Z" fill="black" />
<path d="M692.1424,-600 L698.7632,-600 L698.7632,-550 L692.1424,-550 L692.1424,-600 Z" fill="#f0f0f0" />
<path d="M698.7632,-600 L705.384,-600 L705.384,-550 L698.7632,-550 L698.7632,-600 Z" fill="black" />
<path d="M705.384,-600 L712.0048,-600 L712.0048,-550 L705.384,-550 L705.384,-600 Z" fill="#f0f0f0" />
<path d="M712.0048,-600 L718.6256000000001,-600 L718.6256000000001,-550 L712.0048,-550 L712.0048,-600 Z" fill="black" />
<path d="M718.6256000000001,-600 L725.2464000000001,-600 L725.2464000000001,-550 L718.6256000000001,-550 L718.6256000000001,-600 Z" fill="#f0f0f0" />
<path d="M725.2464000000001,-600 L731.8672000000001,-600 L731.8672000000001,-550 L725.2464000000001,-550 L725.2464000000001,-600 Z" fill="black" />
<path d="M731.8672000000001,-600 L738.4880000000002,-600 L738.4880000000002,-550 L731.8672000000001,-550 L731.8672000000001,-600 Z" fill="#f0f0f0" />
<path d="M738.4880000000002,-600 L745.1088000000002,-600 L745.1088000000002,-550 L738.4880000000002,-550 L738.4880000000002,-600 Z" fill="black" />
<path d="M745.1088000000002,-600 L751.7296000000002,-600 L751.7296000000002,-550 L745.1088000000002,-550 L745.1088000000002,-600 Z" fill="#f0f0f0" />
<path d="M751.7296000000002,-600 L758.3504000000003,-600 L758.3504000000003,-550 L751.7296000000002,-550 L751.7296000000002,-600 Z" fill="black" />
<path d="M758.3504000000003,-600 L764.9712000000003,-600 L764.9712000000003,-550 L758.3504000000003,-550 L758.3504000000003,-600 Z" fill="#f0f0f0" />
<path d="M764.9712000000003,-600 L771.5920000000003,-600 L771.5920000000003,-550 L764.9712000000003,-550 L764.9712000000003,-600 Z" fill="black" />
<path d="M771.5920000000003,-600 L778.2128000000004,-600 L778.2128000000004,-550 L771.5920000000003,-550 L771.5920000000003,-600 Z" fill="#f0f0f0" />
<path d="M778.2128000000004,-600 L784.8336000000004,-600 L784.8336000000004,-550 L778.2128000000004,-550 L778.2128000000004,-600 Z" fill="black" />
<path d="M784.8336000000004,-600 L791.4544000000004,-600 L791.4544000000004,-550 L784.8336000000004,-550 L784.8336000000004,-600 Z" fill="#f0f0f0" />
<path d="M791.4544000000004,-600 L798.0752000000005,-600 L798.0752000000005,-550 L791.4544000000004,-550 L791.4544000000004,-600 Z" fill="black" />
<path d="M798.0752000000005,-600 L804.6960000000005,-600 L804.6960000000005,-550 L798.0752000000005,-550 L798.0752000000005,-600 Z" fill="#f0f0f0" />
<path d="M804.6960000000005,-600 L811.3168000000005,-600 L811.3168000000005,-550 L804.6960000000005,-550 L804.6960000000005,-600 Z" fill="black" />
<path d="M811.3168000000005,-600 L817.9376000000005,-600 L817.9376000000005,-550 L811.3168000000005,-550 L811.3168000000005,-600 Z" fill="#f0f0f0" />
<path d="M817.9376000000005,-600 L824.5584000000006,-600 L824.5584000000006,-550 L817.9376000000005,-550 L817.9376000000005,-600 Z" fill="black" />
<path d="M824.5584000000006,-600 L831.1792000000006,-600 L831.1792000000006,-550 L824.5584000000006,-550 L824.5584000000006,-600 Z" fill="#f0f0f0" />
<path d="M831.1792000000006,-600 L837.8000000000006,-600 L837.8000000000006,-550 L831.1792000000006,-550 L831.1792000000006,-600 Z" fill="black" />
<text x="10.2" y="-610" font-size="26" fill="black" dy="0em">CRISPR: I-B</text>
<text x="16.0" y="-460" font-size="38" fill="black" dy="0em">I-D: RIZB01000002@7 (306446-320304)</text>
<path d="M259.8,-400 L356.20000000000005,-400 L356.20000000000005,-350 L259.8,-350 L229.8,-375.0 L259.8,-400 Z" fill="#ff80e6" fill-opacity="0.8" stroke="#ff80e6" stroke-width="4" />
<text x="229.8" y="-410" font-size="26" fill="black" dy="0em">CasR</text>
<path d="M391.20000000000005,-400 L530.8000000000001,-400 L560.8000000000001,-375.0 L530.8000000000001,-350 L391.20000000000005,-350 L391.20000000000005,-400 Z" fill="#dd1424" fill-opacity="0.8" stroke="#dd1424" stroke-width="4" />
<text x="391.20000000000005" y="-320" font-size="26" fill="black" dy="0em">Cas6</text>
<path d="M560.2,-400 L1027.4,-400 L1057.4,-375.0 L1027.4,-350 L560.2,-350 L560.2,-400 Z" fill="#efc050" fill-opacity="0.8" stroke="#efc050" stroke-width="4" />
<text x="560.2" y="-410" font-size="26" fill="black" dy="0em">Cas10d</text>
<path d="M1061.4,-400 L1219.6000000000001,-400 L1249.6000000000001,-375.0 L1219.6000000000001,-350 L1061.4,-350 L1061.4,-400 Z" fill="#efc050" fill-opacity="0.8" stroke="#efc050" stroke-width="4" />
<text x="1061.4" y="-320" font-size="26" fill="black" dy="0em">Csc2gr7</text>
<path d="M1248.2,-400 L1358.4,-400 L1388.4,-375.0 L1358.4,-350 L1248.2,-350 L1248.2,-400 Z" fill="#efc050" fill-opacity="0.8" stroke="#efc050" stroke-width="4" />
<text x="1248.2" y="-410" font-size="26" fill="black" dy="0em">Csc1gr5</text>
<path d="M1388.6000000000001,-400 L1735.2,-400 L1765.2,-375.0 L1735.2,-350 L1388.6000000000001,-350 L1388.6000000000001,-400 Z" fill="#efc050" fill-opacity="0.8" stroke="#efc050" stroke-width="4" />
<text x="1388.6000000000001" y="-320" font-size="26" fill="black" dy="0em">Cas3d</text>
<path d="M1764.6000000000001,-400 L1852.6000000000001,-400 L1882.6000000000001,-375.0 L1852.6000000000001,-350 L1764.6000000000001,-350 L1764.6000000000001,-400 Z" fill="#5b5ea6" fill-opacity="0.8" stroke="#5b5ea6" stroke-width="4" />
<text x="1764.6000000000001" y="-410" font-size="26" fill="black" dy="0em">Cas4</text>
<path d="M1882.0,-400 L2051.0,-400 L2081.0,-375.0 L2051.0,-350 L1882.0,-350 L1882.0,-400 Z" fill="#5b5ea6" fill-opacity="0.8" stroke="#5b5ea6" stroke-width="4" />
<text x="1882.0" y="-320" font-size="26" fill="black" dy="0em">Cas1</text>
<path d="M2080.4,-400 L2104.8,-400 L2134.8,-375.0 L2104.8,-350 L2080.4,-350 L2080.4,-400 Z" fill="#5b5ea6" fill-opacity="0.8" stroke="#5b5ea6" stroke-width="4" />
<text x="2080.4" y="-410" font-size="26" fill="black" dy="0em">Cas2</text>
<path d="M2262.6,-400 L2366.8,-400 L2366.8,-350 L2262.6,-350 L2232.6,-375.0 L2262.6,-400 Z" fill="#d3c9c1" fill-opacity="0.8" stroke="#d3c9c1" stroke-width="4" />
<text x="2232.6" y="-320" font-size="20" fill="black" dy="0em">298</text>
<path d="M2511.6000000000004,-400 L2738.8,-400 L2738.8,-350 L2511.6000000000004,-350 L2481.6000000000004,-375.0 L2511.6000000000004,-400 Z" fill="#d3c9c1" fill-opacity="0.8" stroke="#d3c9c1" stroke-width="4" />
<text x="2481.6000000000004" y="-410" font-size="20" fill="black" dy="0em">299</text>
<path d="M10.2,-400 L206.4,-400 L206.4,-350 L10.2,-350 L10.2,-400 Z" fill="white" stroke="white" stroke-width="4" />
<path d="M10.2,-400 L17.466666666666665,-400 L17.466666666666665,-350 L10.2,-350 L10.2,-400 Z" fill="black" />
<path d="M17.466666666666665,-400 L24.73333333333333,-400 L24.73333333333333,-350 L17.466666666666665,-350 L17.466666666666665,-400 Z" fill="#f0f0f0" />
<path d="M24.73333333333333,-400 L31.999999999999996,-400 L31.999999999999996,-350 L24.73333333333333,-350 L24.73333333333333,-400 Z" fill="black" />
<path d="M31.999999999999996,-400 L39.266666666666666,-400 L39.266666666666666,-350 L31.999999999999996,-350 L31.999999999999996,-400 Z" fill="#f0f0f0" />
<path d="M39.266666666666666,-400 L46.53333333333333,-400 L46.53333333333333,-350 L39.266666666666666,-350 L39.266666666666666,-400 Z" fill="black" />
<path d="M46.53333333333333,-400 L53.8,-400 L53.8,-350 L46.53333333333333,-350 L46.53333333333333,-400 Z" fill="#f0f0f0" />
<path d="M53.8,-400 L61.06666666666666,-400 L61.06666666666666,-350 L53.8,-350 L53.8,-400 Z" fill="black" />
<path d="M61.06666666666666,-400 L68.33333333333333,-400 L68.33333333333333,-350 L61.06666666666666,-350 L61.06666666666666,-400 Z" fill="#f0f0f0" />
<path d="M68.33333333333333,-400 L75.6,-400 L75.6,-350 L68.33333333333333,-350 L68.33333333333333,-400 Z" fill="black" />
<path d="M75.6,-400 L82.86666666666666,-400 L82.86666666666666,-350 L75.6,-350 L75.6,-400 Z" fill="#f0f0f0" />
<path d="M82.86666666666666,-400 L90.13333333333333,-400 L90.13333333333333,-350 L82.86666666666666,-350 L82.86666666666666,-400 Z" fill="black" />
<path d="M90.13333333333333,-400 L97.39999999999999,-400 L97.39999999999999,-350 L90.13333333333333,-350 L90.13333333333333,-400 Z" fill="#f0f0f0" />
<path d="M97.39999999999999,-400 L104.66666666666666,-400 L104.66666666666666,-350 L97.39999999999999,-350 L97.39999999999999,-400 Z" fill="black" />
<path d="M104.66666666666666,-400 L111.93333333333332,-400 L111.93333333333332,-350 L104.66666666666666,-350 L104.66666666666666,-400 Z" fill="#f0f0f0" />
<path d="M111.93333333333332,-400 L119.19999999999999,-400 L119.19999999999999,-350 L111.93333333333332,-350 L111.93333333333332,-400 Z" fill="black" />
<path d="M119.19999999999999,-400 L126.46666666666665,-400 L126.46666666666665,-350 L119.19999999999999,-350 L119.19999999999999,-400 Z" fill="#f0f0f0" />
<path d="M126.46666666666665,-400 L133.73333333333332,-400 L133.73333333333332,-350 L126.46666666666665,-350 L126.46666666666665,-400 Z" fill="black" />
<path d="M133.73333333333332,-400 L141.0,-400 L141.0,-350 L133.73333333333332,-350 L133.73333333333332,-400 Z" fill="#f0f0f0" />
<path d="M141.0,-400 L148.26666666666668,-400 L148.26666666666668,-350 L141.0,-350 L141.0,-400 Z" fill="black" />
<path d="M148.26666666666668,-400 L155.53333333333336,-400 L155.53333333333336,-350 L148.26666666666668,-350 L148.26666666666668,-400 Z" fill="#f0f0f0" />
<path d="M155.53333333333336,-400 L162.80000000000004,-400 L162.80000000000004,-350 L155.53333333333336,-350 L155.53333333333336,-400 Z" fill="black" />
<path d="M162.80000000000004,-400 L170.06666666666672,-400 L170.06666666666672,-350 L162.80000000000004,-350 L162.80000000000004,-400 Z" fill="#f0f0f0" />
<path d="M170.06666666666672,-400 L177.3333333333334,-400 L177.3333333333334,-350 L170.06666666666672,-350 L170.06666666666672,-400 Z" fill="black" />
<path d="M177.3333333333334,-400 L184.60000000000008,-400 L184.60000000000008,-350 L177.3333333333334,-350 L177.3333333333334,-400 Z" fill="#f0f0f0" />
<path d="M184.60000000000008,-400 L191.86666666666676,-400 L191.86666666666676,-350 L184.60000000000008,-350 L184.60000000000008,-400 Z" fill="black" />
<path d="M191.86666666666676,-400 L199.13333333333344,-400 L199.13333333333344,-350 L191.86666666666676,-350 L191.86666666666676,-400 Z" fill="#f0f0f0" />
<path d="M199.13333333333344,-400 L206.40000000000012,-400 L206.40000000000012,-350 L199.13333333333344,-350 L199.13333333333344,-400 Z" fill="black" />
<text x="10.2" y="-410" font-size="26" fill="black" dy="0em">CRISPR: I-D</text>
<path d="M2158.0,-400 L2223.0,-400 L2223.0,-350 L2158.0,-350 L2158.0,-400 Z" fill="white" stroke="white" stroke-width="4" />
<path d="M2158.0,-400 L2165.222222222222,-400 L2165.222222222222,-350 L2158.0,-350 L2158.0,-400 Z" fill="black" />
<path d="M2165.222222222222,-400 L2172.4444444444443,-400 L2172.4444444444443,-350 L2165.222222222222,-350 L2165.222222222222,-400 Z" fill="#f0f0f0" />
<path d="M2172.4444444444443,-400 L2179.6666666666665,-400 L2179.6666666666665,-350 L2172.4444444444443,-350 L2172.4444444444443,-400 Z" fill="black" />
<path d="M2179.6666666666665,-400 L2186.8888888888887,-400 L2186.8888888888887,-350 L2179.6666666666665,-350 L2179.6666666666665,-400 Z" fill="#f0f0f0" />
<path d="M2186.8888888888887,-400 L2194.111111111111,-400 L2194.111111111111,-350 L2186.8888888888887,-350 L2186.8888888888887,-400 Z" fill="black" />
<path d="M2194.111111111111,-400 L2201.333333333333,-400 L2201.333333333333,-350 L2194.111111111111,-350 L2194.111111111111,-400 Z" fill="#f0f0f0" />
<path d="M2201.333333333333,-400 L2208.555555555555,-400 L2208.555555555555,-350 L2201.333333333333,-350 L2201.333333333333,-400 Z" fill="black" />
<path d="M2208.555555555555,-400 L2215.7777777777774,-400 L2215.7777777777774,-350 L2208.555555555555,-350 L2208.555555555555,-400 Z" fill="#f0f0f0" />
<path d="M2215.7777777777774,-400 L2222.9999999999995,-400 L2222.9999999999995,-350 L2215.7777777777774,-350 L2215.7777777777774,-400 Z" fill="black" />
<text x="2158.0" y="-410" font-size="26" fill="black" dy="0em">CRISPR: I-D</text>
<path d="M2239.0,-400 L2781.8,-400 L2781.8,-350 L2239.0,-350 L2239.0,-400 Z" fill="white" stroke="white" stroke-width="4" />
<path d="M2239.0,-400 L2246.2373333333335,-400 L2246.2373333333335,-350 L2239.0,-350 L2239.0,-400 Z" fill="black" />
<path d="M2246.2373333333335,-400 L2253.474666666667,-400 L2253.474666666667,-350 L2246.2373333333335,-350 L2246.2373333333335,-400 Z" fill="#f0f0f0" />
<path d="M2253.474666666667,-400 L2260.7120000000004,-400 L2260.7120000000004,-350 L2253.474666666667,-350 L2253.474666666667,-400 Z" fill="black" />
<path d="M2260.7120000000004,-400 L2267.949333333334,-400 L2267.949333333334,-350 L2260.7120000000004,-350 L2260.7120000000004,-400 Z" fill="#f0f0f0" />
<path d="M2267.949333333334,-400 L2275.1866666666674,-400 L2275.1866666666674,-350 L2267.949333333334,-350 L2267.949333333334,-400 Z" fill="black" />
<path d="M2275.1866666666674,-400 L2282.424000000001,-400 L2282.424000000001,-350 L2275.1866666666674,-350 L2275.1866666666674,-400 Z" fill="#f0f0f0" />
<path d="M2282.424000000001,-400 L2289.6613333333344,-400 L2289.6613333333344,-350 L2282.424000000001,-350 L2282.424000000001,-400 Z" fill="black" />
<path d="M2289.6613333333344,-400 L2296.898666666668,-400 L2296.898666666668,-350 L2289.6613333333344,-350 L2289.6613333333344,-400 Z" fill="#f0f0f0" />
<path d="M2296.898666666668,-400 L2304.1360000000013,-400 L2304.1360000000013,-350 L2296.898666666668,-350 L2296.898666666668,-400 Z" fill="black" />
<path d="M2304.1360000000013,-400 L2311.373333333335,-400 L2311.373333333335,-350 L2304.1360000000013,-350 L2304.1360000000013,-400 Z" fill="#f0f0f0" />
<path d="M2311.373333333335,-400 L2318.6106666666683,-400 L2318.6106666666683,-350 L2311.373333333335,-350 L2311.373333333335,-400 Z" fill="black" />
<path d="M2318.6106666666683,-400 L2325.848000000002,-400 L2325.848000000002,-350 L2318.6106666666683,-350 L2318.6106666666683,-400 Z" fill="#f0f0f0" />
<path d="M2325.848000000002,-400 L2333.0853333333353,-400 L2333.0853333333353,-350 L2325.848000000002,-350 L2325.848000000002,-400 Z" fill="black" />
<path d="M2333.0853333333353,-400 L2340.3226666666687,-400 L2340.3226666666687,-350 L2333.0853333333353,-350 L2333.0853333333353,-400 Z" fill="#f0f0f0" />
<path d="M2340.3226666666687,-400 L2347.560000000002,-400 L2347.560000000002,-350 L2340.3226666666687,-350 L2340.3226666666687,-400 Z" fill="black" />
<path d="M2347.560000000002,-400 L2354.7973333333357,-400 L2354.7973333333357,-350 L2347.560000000002,-350 L2347.560000000002,-400 Z" fill="#f0f0f0" />
<path d="M2354.7973333333357,-400 L2362.034666666669,-400 L2362.034666666669,-350 L2354.7973333333357,-350 L2354.7973333333357,-400 Z" fill="black" />
<path d="M2362.034666666669,-400 L2369.2720000000027,-400 L2369.2720000000027,-350 L2362.034666666669,-350 L2362.034666666669,-400 Z" fill="#f0f0f0" />
<path d="M2369.2720000000027,-400 L2376.509333333336,-400 L2376.509333333336,-350 L2369.2720000000027,-350 L2369.2720000000027,-400 Z" fill="black" />
<path d="M2376.509333333336,-400 L2383.7466666666696,-400 L2383.7466666666696,-350 L2376.509333333336,-350 L2376.509333333336,-400 Z" fill="#f0f0f0" />
<path d="M2383.7466666666696,-400 L2390.984000000003,-400 L2390.984000000003,-350 L2383.7466666666696,-350 L2383.7466666666696,-400 Z" fill="black" />
<path d="M2390.984000000003,-400 L2398.2213333333366,-400 L2398.2213333333366,-350 L2390.984000000003,-350 L2390.984000000003,-400 Z" fill="#f0f0f0" />
<path d="M2398.2213333333366,-400 L2405.45866666667,-400 L2405.45866666667,-350 L2398.2213333333366,-350 L2398.2213333333366,-400 Z" fill="black" />
<path d="M2405.45866666667,-400 L2412.6960000000036,-400 L2412.6960000000036,-350 L2405.45866666667,-350 L2405.45866666667,-400 Z" fill="#f0f0f0" />
<path d="M2412.6960000000036,-400 L2419.933333333337,-400 L2419.933333333337,-350 L2412.6960000000036,-350 L2412.6960000000036,-400 Z" fill="black" />
<path d="M2419.933333333337,-400 L2427.1706666666705,-400 L2427.1706666666705,-350 L2419.933333333337,-350 L2419.933333333337,-400 Z" fill="#f0f0f0" />
<path d="M2427.1706666666705,-400 L2434.408000000004,-400 L2434.408000000004,-350 L2427.1706666666705,-350 L2427.1706666666705,-400 Z" fill="black" />
<path d="M2434.408000000004,-400 L2441.6453333333375,-400 L2441.6453333333375,-350 L2434.408000000004,-350 L2434.408000000004,-400 Z" fill="#f0f0f0" />
<path d="M2441.6453333333375,-400 L2448.882666666671,-400 L2448.882666666671,-350 L2441.6453333333375,-350 L2441.6453333333375,-400 Z" fill="black" />
<path d="M2448.882666666671,-400 L2456.1200000000044,-400 L2456.1200000000044,-350 L2448.882666666671,-350 L2448.882666666671,-400 Z" fill="#f0f0f0" />
<path d="M2456.1200000000044,-400 L2463.357333333338,-400 L2463.357333333338,-350 L2456.1200000000044,-350 L2456.1200000000044,-400 Z" fill="black" />
<path d="M2463.357333333338,-400 L2470.5946666666714,-400 L2470.5946666666714,-350 L2463.357333333338,-350 L2463.357333333338,-400 Z" fill="#f0f0f0" />
<path d="M2470.5946666666714,-400 L2477.832000000005,-400 L2477.832000000005,-350 L2470.5946666666714,-350 L2470.5946666666714,-400 Z" fill="black" />
<path d="M2477.832000000005,-400 L2485.0693333333384,-400 L2485.0693333333384,-350 L2477.832000000005,-350 L2477.832000000005,-400 Z" fill="#f0f0f0" />
<path d="M2485.0693333333384,-400 L2492.306666666672,-400 L2492.306666666672,-350 L2485.0693333333384,-350 L2485.0693333333384,-400 Z" fill="black" />
<path d="M2492.306666666672,-400 L2499.5440000000053,-400 L2499.5440000000053,-350 L2492.306666666672,-350 L2492.306666666672,-400 Z" fill="#f0f0f0" />
<path d="M2499.5440000000053,-400 L2506.781333333339,-400 L2506.781333333339,-350 L2499.5440000000053,-350 L2499.5440000000053,-400 Z" fill="black" />
<path d="M2506.781333333339,-400 L2514.0186666666723,-400 L2514.0186666666723,-350 L2506.781333333339,-350 L2506.781333333339,-400 Z" fill="#f0f0f0" />
<path d="M2514.0186666666723,-400 L2521.2560000000058,-400 L2521.2560000000058,-350 L2514.0186666666723,-350 L2514.0186666666723,-400 Z" fill="black" />
<path d="M2521.2560000000058,-400 L2528.4933333333393,-400 L2528.4933333333393,-350 L2521.2560000000058,-350 L2521.2560000000058,-400 Z" fill="#f0f0f0" />
<path d="M2528.4933333333393,-400 L2535.7306666666727,-400 L2535.7306666666727,-350 L2528.4933333333393,-350 L2528.4933333333393,-400 Z" fill="black" />
<path d="M2535.7306666666727,-400 L2542.968000000006,-400 L2542.968000000006,-350 L2535.7306666666727,-350 L2535.7306666666727,-400 Z" fill="#f0f0f0" />
<path d="M2542.968000000006,-400 L2550.2053333333397,-400 L2550.2053333333397,-350 L2542.968000000006,-350 L2542.968000000006,-400 Z" fill="black" />
<path d="M2550.2053333333397,-400 L2557.442666666673,-400 L2557.442666666673,-350 L2550.2053333333397,-350 L2550.2053333333397,-400 Z" fill="#f0f0f0" />
<path d="M2557.442666666673,-400 L2564.6800000000067,-400 L2564.6800000000067,-350 L2557.442666666673,-350 L2557.442666666673,-400 Z" fill="black" />
<path d="M2564.6800000000067,-400 L2571.91733333334,-400 L2571.91733333334,-350 L2564.6800000000067,-350 L2564.6800000000067,-400 Z" fill="#f0f0f0" />
<path d="M2571.91733333334,-400 L2579.1546666666736,-400 L2579.1546666666736,-350 L2571.91733333334,-350 L2571.91733333334,-400 Z" fill="black" />
<path d="M2579.1546666666736,-400 L2586.392000000007,-400 L2586.392000000007,-350 L2579.1546666666736,-350 L2579.1546666666736,-400 Z" fill="#f0f0f0" />
<path d="M2586.392000000007,-400 L2593.6293333333406,-400 L2593.6293333333406,-350 L2586.392000000007,-350 L2586.392000000007,-400 Z" fill="black" />
<path d="M2593.6293333333406,-400 L2600.866666666674,-400 L2600.866666666674,-350 L2593.6293333333406,-350 L2593.6293333333406,-400 Z" fill="#f0f0f0" />
<path d="M2600.866666666674,-400 L2608.1040000000075,-400 L2608.1040000000075,-350 L2600.866666666674,-350 L2600.866666666674,-400 Z" fill="black" />
<path d="M2608.1040000000075,-400 L2615.341333333341,-400 L2615.341333333341,-350 L2608.1040000000075,-350 L2608.1040000000075,-400 Z" fill="#f0f0f0" />
<path d="M2615.341333333341,-400 L2622.5786666666745,-400 L2622.5786666666745,-350 L2615.341333333341,-350 L2615.341333333341,-400 Z" fill="black" />
<path d="M2622.5786666666745,-400 L2629.816000000008,-400 L2629.816000000008,-350 L2622.5786666666745,-350 L2622.5786666666745,-400 Z" fill="#f0f0f0" />
<path d="M2629.816000000008,-400 L2637.0533333333415,-400 L2637.0533333333415,-350 L2629.816000000008,-350 L2629.816000000008,-400 Z" fill="black" />
<path d="M2637.0533333333415,-400 L2644.290666666675,-400 L2644.290666666675,-350 L2637.0533333333415,-350 L2637.0533333333415,-400 Z" fill="#f0f0f0" />
<path d="M2644.290666666675,-400 L2651.5280000000084,-400 L2651.5280000000084,-350 L2644.290666666675,-350 L2644.290666666675,-400 Z" fill="black" />
<path d="M2651.5280000000084,-400 L2658.765333333342,-400 L2658.765333333342,-350 L2651.5280000000084,-350 L2651.5280000000084,-400 Z" fill="#f0f0f0" />
<path d="M2658.765333333342,-400 L2666.0026666666754,-400 L2666.0026666666754,-350 L2658.765333333342,-350 L2658.765333333342,-400 Z" fill="black" />
<path d="M2666.0026666666754,-400 L2673.240000000009,-400 L2673.240000000009,-350 L2666.0026666666754,-350 L2666.0026666666754,-400 Z" fill="#f0f0f0" />
<path d="M2673.240000000009,-400 L2680.4773333333424,-400 L2680.4773333333424,-350 L2673.240000000009,-350 L2673.240000000009,-400 Z" fill="black" />
<path d="M2680.4773333333424,-400 L2687.714666666676,-400 L2687.714666666676,-350 L2680.4773333333424,-350 L2680.4773333333424,-400 Z" fill="#f0f0f0" />
<path d="M2687.714666666676,-400 L2694.9520000000093,-400 L2694.9520000000093,-350 L2687.714666666676,-350 L2687.714666666676,-400 Z" fill="black" />
<path d="M2694.9520000000093,-400 L2702.189333333343,-400 L2702.189333333343,-350 L2694.9520000000093,-350 L2694.9520000000093,-400 Z" fill="#f0f0f0" />
<path d="M2702.189333333343,-400 L2709.4266666666763,-400 L2709.4266666666763,-350 L2702.189333333343,-350 L2702.189333333343,-400 Z" fill="black" />
<path d="M2709.4266666666763,-400 L2716.6640000000098,-400 L2716.6640000000098,-350 L2709.4266666666763,-350 L2709.4266666666763,-400 Z" fill="#f0f0f0" />
<path d="M2716.6640000000098,-400 L2723.9013333333432,-400 L2723.9013333333432,-350 L2716.6640000000098,-350 L2716.6640000000098,-400 Z" fill="black" />
<path d="M2723.9013333333432,-400 L2731.1386666666767,-400 L2731.1386666666767,-350 L2723.9013333333432,-350 L2723.9013333333432,-400 Z" fill="#f0f0f0" />
<path d="M2731.1386666666767,-400 L2738.37600000001,-400 L2738.37600000001,-350 L2731.1386666666767,-350 L2731.1386666666767,-400 Z" fill="black" />
<path d="M2738.37600000001,-400 L2745.6133333333437,-400 L2745.6133333333437,-350 L2738.37600000001,-350 L2738.37600000001,-400 Z" fill="#f0f0f0" />
<path d="M2745.6133333333437,-400 L2752.850666666677,-400 L2752.850666666677,-350 L2745.6133333333437,-350 L2745.6133333333437,-400 Z" fill="black" />
<path d="M2752.850666666677,-400 L2760.0880000000107,-400 L2760.0880000000107,-350 L2752.850666666677,-350 L2752.850666666677,-400 Z" fill="#f0f0f0" />
<path d="M2760.0880000000107,-400 L2767.325333333344,-400 L2767.325333333344,-350 L2760.0880000000107,-350 L2760.0880000000107,-400 Z" fill="black" />
<path d="M2767.325333333344,-400 L2774.5626666666776,-400 L2774.5626666666776,-350 L2767.325333333344,-350 L2767.325333333344,-400 Z" fill="#f0f0f0" />
<path d="M2774.5626666666776,-400 L2781.800000000011,-400 L2781.800000000011,-350 L2774.5626666666776,-350 L2774.5626666666776,-400 Z" fill="black" />
<text x="2239.0" y="-410" font-size="26" fill="black" dy="0em">CRISPR: I-D</text>
<path d="M10.2,-200 L452.0,-200 L452.0,-150 L10.2,-150 L10.2,-200 Z" fill="white" stroke="white" stroke-width="4" />
<path d="M10.2,-200 L16.79402985074627,-200 L16.79402985074627,-150 L10.2,-150 L10.2,-200 Z" fill="black" />
<path d="M16.79402985074627,-200 L23.388059701492537,-200 L23.388059701492537,-150 L16.79402985074627,-150 L16.79402985074627,-200 Z" fill="#f0f0f0" />
<path d="M23.388059701492537,-200 L29.982089552238804,-200 L29.982089552238804,-150 L23.388059701492537,-150 L23.388059701492537,-200 Z" fill="black" />
<path d="M29.982089552238804,-200 L36.57611940298507,-200 L36.57611940298507,-150 L29.982089552238804,-150 L29.982089552238804,-200 Z" fill="#f0f0f0" />
<path d="M36.57611940298507,-200 L43.17014925373134,-200 L43.17014925373134,-150 L36.57611940298507,-150 L36.57611940298507,-200 Z" fill="black" />
<path d="M43.17014925373134,-200 L49.764179104477606,-200 L49.764179104477606,-150 L43.17014925373134,-150 L43.17014925373134,-200 Z" fill="#f0f0f0" />
<path d="M49.764179104477606,-200 L56.35820895522387,-200 L56.35820895522387,-150 L49.764179104477606,-150 L49.764179104477606,-200 Z" fill="black" />
<path d="M56.35820895522387,-200 L62.95223880597014,-200 L62.95223880597014,-150 L56.35820895522387,-150 L56.35820895522387,-200 Z" fill="#f0f0f0" />
<path d="M62.95223880597014,-200 L69.5462686567164,-200 L69.5462686567164,-150 L62.95223880597014,-150 L62.95223880597014,-200 Z" fill="black" />
<path d="M69.5462686567164,-200 L76.14029850746267,-200 L76.14029850746267,-150 L69.5462686567164,-150 L69.5462686567164,-200 Z" fill="#f0f0f0" />
<path d="M76.14029850746267,-200 L82.73432835820894,-200 L82.73432835820894,-150 L76.14029850746267,-150 L76.14029850746267,-200 Z" fill="black" />
<path d="M82.73432835820894,-200 L89.32835820895521,-200 L89.32835820895521,-150 L82.73432835820894,-150 L82.73432835820894,-200 Z" fill="#f0f0f0" />
<path d="M89.32835820895521,-200 L95.92238805970148,-200 L95.92238805970148,-150 L89.32835820895521,-150 L89.32835820895521,-200 Z" fill="black" />
<path d="M95.92238805970148,-200 L102.51641791044774,-200 L102.51641791044774,-150 L95.92238805970148,-150 L95.92238805970148,-200 Z" fill="#f0f0f0" />
<path d="M102.51641791044774,-200 L109.11044776119401,-200 L109.11044776119401,-150 L102.51641791044774,-150 L102.51641791044774,-200 Z" fill="black" />
<path d="M109.11044776119401,-200 L115.70447761194028,-200 L115.70447761194028,-150 L109.11044776119401,-150 L109.11044776119401,-200 Z" fill="#f0f0f0" />
<path d="M115.70447761194028,-200 L122.29850746268654,-200 L122.29850746268654,-150 L115.70447761194028,-150 L115.70447761194028,-200 Z" fill="black" />
<path d="M122.29850746268654,-200 L128.89253731343283,-200 L128.89253731343283,-150 L122.29850746268654,-150 L122.29850746268654,-200 Z" fill="#f0f0f0" />
<path d="M128.89253731343283,-200 L135.4865671641791,-200 L135.4865671641791,-150 L128.89253731343283,-150 L128.89253731343283,-200 Z" fill="black" />
<path d="M135.4865671641791,-200 L142.08059701492536,-200 L142.08059701492536,-150 L135.4865671641791,-150 L135.4865671641791,-200 Z" fill="#f0f0f0" />
<path d="M142.08059701492536,-200 L148.67462686567163,-200 L148.67462686567163,-150 L142.08059701492536,-150 L142.08059701492536,-200 Z" fill="black" />
<path d="M148.67462686567163,-200 L155.2686567164179,-200 L155.2686567164179,-150 L148.67462686567163,-150 L148.67462686567163,-200 Z" fill="#f0f0f0" />
<path d="M155.2686567164179,-200 L161.86268656716416,-200 L161.86268656716416,-150 L155.2686567164179,-150 L155.2686567164179,-200 Z" fill="black" />
<path d="M161.86268656716416,-200 L168.45671641791043,-200 L168.45671641791043,-150 L161.86268656716416,-150 L161.86268656716416,-200 Z" fill="#f0f0f0" />
<path d="M168.45671641791043,-200 L175.0507462686567,-200 L175.0507462686567,-150 L168.45671641791043,-150 L168.45671641791043,-200 Z" fill="black" />
<path d="M175.0507462686567,-200 L181.64477611940296,-200 L181.64477611940296,-150 L175.0507462686567,-150 L175.0507462686567,-200 Z" fill="#f0f0f0" />
<path d="M181.64477611940296,-200 L188.23880597014923,-200 L188.23880597014923,-150 L181.64477611940296,-150 L181.64477611940296,-200 Z" fill="black" />
<path d="M188.23880597014923,-200 L194.8328358208955,-200 L194.8328358208955,-150 L188.23880597014923,-150 L188.23880597014923,-200 Z" fill="#f0f0f0" />
<path d="M194.8328358208955,-200 L201.42686567164176,-200 L201.42686567164176,-150 L194.8328358208955,-150 L194.8328358208955,-200 Z" fill="black" />
<path d="M201.42686567164176,-200 L208.02089552238803,-200 L208.02089552238803,-150 L201.42686567164176,-150 L201.42686567164176,-200 Z" fill="#f0f0f0" />
<path d="M208.02089552238803,-200 L214.6149253731343,-200 L214.6149253731343,-150 L208.02089552238803,-150 L208.02089552238803,-200 Z" fill="black" />
<path d="M214.6149253731343,-200 L221.20895522388057,-200 L221.20895522388057,-150 L214.6149253731343,-150 L214.6149253731343,-200 Z" fill="#f0f0f0" />
<path d="M221.20895522388057,-200 L227.80298507462683,-200 L227.80298507462683,-150 L221.20895522388057,-150 L221.20895522388057,-200 Z" fill="black" />
<path d="M227.80298507462683,-200 L234.3970149253731,-200 L234.3970149253731,-150 L227.80298507462683,-150 L227.80298507462683,-200 Z" fill="#f0f0f0" />
<path d="M234.3970149253731,-200 L240.99104477611937,-200 L240.99104477611937,-150 L234.3970149253731,-150 L234.3970149253731,-200 Z" fill="black" />
<path d="M240.99104477611937,-200 L247.58507462686563,-200 L247.58507462686563,-150 L240.99104477611937,-150 L240.99104477611937,-200 Z" fill="#f0f0f0" />
<path d="M247.58507462686563,-200 L254.1791044776119,-200 L254.1791044776119,-150 L247.58507462686563,-150 L247.58507462686563,-200 Z" fill="black" />
<path d="M254.1791044776119,-200 L260.7731343283582,-200 L260.7731343283582,-150 L254.1791044776119,-150 L254.1791044776119,-200 Z" fill="#f0f0f0" />
<path d="M260.7731343283582,-200 L267.36716417910446,-200 L267.36716417910446,-150 L260.7731343283582,-150 L260.7731343283582,-200 Z" fill="black" />
<path d="M267.36716417910446,-200 L273.96119402985073,-200 L273.96119402985073,-150 L267.36716417910446,-150 L267.36716417910446,-200 Z" fill="#f0f0f0" />
<path d="M273.96119402985073,-200 L280.555223880597,-200 L280.555223880597,-150 L273.96119402985073,-150 L273.96119402985073,-200 Z" fill="black" />
<path d="M280.555223880597,-200 L287.14925373134326,-200 L287.14925373134326,-150 L280.555223880597,-150 L280.555223880597,-200 Z" fill="#f0f0f0" />
<path d="M287.14925373134326,-200 L293.74328358208953,-200 L293.74328358208953,-150 L287.14925373134326,-150 L287.14925373134326,-200 Z" fill="black" />
<path d="M293.74328358208953,-200 L300.3373134328358,-200 L300.3373134328358,-150 L293.74328358208953,-150 L293.74328358208953,-200 Z" fill="#f0f0f0" />
<path d="M300.3373134328358,-200 L306.93134328358207,-200 L306.93134328358207,-150 L300.3373134328358,-150 L300.3373134328358,-200 Z" fill="black" />
<path d="M306.93134328358207,-200 L313.52537313432833,-200 L313.52537313432833,-150 L306.93134328358207,-150 L306.93134328358207,-200 Z" fill="#f0f0f0" />
<path d="M313.52537313432833,-200 L320.1194029850746,-200 L320.1194029850746,-150 L313.52537313432833,-150 L313.52537313432833,-200 Z" fill="black" />
<path d="M320.1194029850746,-200 L326.71343283582087,-200 L326.71343283582087,-150 L320.1194029850746,-150 L320.1194029850746,-200 Z" fill="#f0f0f0" />
<path d="M326.71343283582087,-200 L333.30746268656713,-200 L333.30746268656713,-150 L326.71343283582087,-150 L326.71343283582087,-200 Z" fill="black" />
<path d="M333.30746268656713,-200 L339.9014925373134,-200 L339.9014925373134,-150 L333.30746268656713,-150 L333.30746268656713,-200 Z" fill="#f0f0f0" />
<path d="M339.9014925373134,-200 L346.49552238805967,-200 L346.49552238805967,-150 L339.9014925373134,-150 L339.9014925373134,-200 Z" fill="black" />
<path d="M346.49552238805967,-200 L353.08955223880594,-200 L353.08955223880594,-150 L346.49552238805967,-150 L346.49552238805967,-200 Z" fill="#f0f0f0" />
<path d="M353.08955223880594,-200 L359.6835820895522,-200 L359.6835820895522,-150 L353.08955223880594,-150 L353.08955223880594,-200 Z" fill="black" />
<path d="M359.6835820895522,-200 L366.27761194029847,-200 L366.27761194029847,-150 L359.6835820895522,-150 L359.6835820895522,-200 Z" fill="#f0f0f0" />
<path d="M366.27761194029847,-200 L372.87164179104474,-200 L372.87164179104474,-150 L366.27761194029847,-150 L366.27761194029847,-200 Z" fill="black" />
<path d="M372.87164179104474,-200 L379.465671641791,-200 L379.465671641791,-150 L372.87164179104474,-150 L372.87164179104474,-200 Z" fill="#f0f0f0" />
<path d="M379.465671641791,-200 L386.0597014925373,-200 L386.0597014925373,-150 L379.465671641791,-150 L379.465671641791,-200 Z" fill="black" />
<path d="M386.0597014925373,-200 L392.65373134328354,-200 L392.65373134328354,-150 L386.0597014925373,-150 L386.0597014925373,-200 Z" fill="#f0f0f0" />
<path d="M392.65373134328354,-200 L399.2477611940298,-200 L399.2477611940298,-150 L392.65373134328354,-150 L392.65373134328354,-200 Z" fill="black" />
<path d="M399.2477611940298,-200 L405.8417910447761,-200 L405.8417910447761,-150 L399.2477611940298,-150 L399.2477611940298,-200 Z" fill="#f0f0f0" />
<path d="M405.8417910447761,-200 L412.43582089552234,-200 L412.43582089552234,-150 L405.8417910447761,-150 L405.8417910447761,-200 Z" fill="black" />
<path d="M412.43582089552234,-200 L419.0298507462686,-200 L419.0298507462686,-150 L412.43582089552234,-150 L412.43582089552234,-200 Z" fill="#f0f0f0" />
<path d="M419.0298507462686,-200 L425.6238805970149,-200 L425.6238805970149,-150 L419.0298507462686,-150 L419.0298507462686,-200 Z" fill="black" />
<path d="M425.6238805970149,-200 L432.21791044776114,-200 L432.21791044776114,-150 L425.6238805970149,-150 L425.6238805970149,-200 Z" fill="#f0f0f0" />
<path d="M432.21791044776114,-200 L438.8119402985074,-200 L438.8119402985074,-150 L432.21791044776114,-150 L432.21791044776114,-200 Z" fill="black" />
<path d="M438.8119402985074,-200 L445.4059701492537,-200 L445.4059701492537,-150 L438.8119402985074,-150 L438.8119402985074,-200 Z" fill="#f0f0f0" />
<path d="M445.4059701492537,-200 L451.99999999999994,-200 L451.99999999999994,-150 L445.4059701492537,-150 L445.4059701492537,-200 Z" fill="black" />
<text x="10.2" y="-210" font-size="26" fill="black" dy="0em">CRISPR: I-B</text>
<text x="16.0" y="-260" font-size="38" fill="black" dy="0em">I-B: RIZB01000002_1 (102838-105047)</text>
</svg>