<?xml version="1.0" encoding="UTF-8"?>
<svg xmlns="http://www.w3.org/2000/svg" xmlns:xlink="http://www.w3.org/1999/xlink"
     width="2445" height="400" viewBox="0 -400 2445 400">
<defs>
</defs>
<path d="M210,-20 L210,-320" stroke="grey" stroke-width="1" fill="none" />
<text x="160" y="-330" font-size="22" fill="grey" dy="0em">1000</text>
<path d="M410,-20 L410,-320" stroke="grey" stroke-width="1" fill="none" />
<text x="360" y="-330" font-size="22" fill="grey" dy="0em">2000</text>
<path d="M610,-20 L610,-320" stroke="grey" stroke-width="1" fill="none" />
<text x="560" y="-330" font-size="22" fill="grey" dy="0em">3000</text>
<path d="M810,-20 L810,-320" stroke="grey" stroke-width="1" fill="none" />
<text x="760" y="-330" font-size="22" fill="grey" dy="0em">4000</text>
<path d="M1010,-20 L1010,-320" stroke="grey" stroke-width="1" fill="none" />
<text x="960" y="-330" font-size="22" fill="grey" dy="0em">5000</text>
<path d="M1210,-20 L1210,-320" stroke="grey" stroke-width="1" fill="none" />
<text x="1160" y="-330" font-size="22" fill="grey" dy="0em">6000</text>
<path d="M1410,-20 L1410,-320" stroke="grey" stroke-width="1" fill="none" />
<text x="1360" y="-330" font-size="22" fill="grey" dy="0em">7000</text>
<path d="M1610,-20 L1610,-320" stroke="grey" stroke-width="1" fill="none" />
<text x="1560" y="-330" font-size="22" fill="grey" dy="0em">8000</text>
<path d="M1810,-20 L1810,-320" stroke="grey" stroke-width="1" fill="none" />
<text x="1760" y="-330" font-size="22" fill="grey" dy="0em">9000</text>
<path d="M2010,-20 L2010,-320" stroke="grey" stroke-width="1" fill="none" />
<text x="1960" y="-330" font-size="22" fill="grey" dy="0em">10000</text>
<path d="M2210,-20 L2210,-320" stroke="grey" stroke-width="1" fill="none" />
<text x="2160" y="-330" font-size="22" fill="grey" dy="0em">11000</text>
<path d="M2410,-20 L2410,-320" stroke="grey" stroke-width="1" fill="none" />
<text x="2360" y="-330" font-size="22" fill="grey" dy="0em">12000</text>
<text x="16.0" y="-260" font-size="38" fill="black" dy="0em">I-B: MWMI01000002@3 (40943-52668)</text>
<path d="M440.8,-200 L480.8,-200 L480.8,-150 L440.8,-150 L410.8,-175.0 L440.8,-200 Z" fill="#d3c9c1" fill-opacity="0.8" stroke="#d3c9c1" stroke-width="4" />
<text x="410.8" y="-210" font-size="20" fill="black" dy="0em">48</text>
<path d="M700.4000000000001,-200 L723.0,-200 L723.0,-150 L700.4000000000001,-150 L670.4000000000001,-175.0 L700.4000000000001,-200 Z" fill="#5b5ea6" fill-opacity="0.8" stroke="#5b5ea6" stroke-width="4" />
<text x="670.4000000000001" y="-120" font-size="26" fill="black" dy="0em">Cas2</text>
<path d="M732.4000000000001,-200 L904.4000000000001,-200 L934.4000000000001,-175.0 L904.4000000000001,-150 L732.4000000000001,-150 L732.4000000000001,-200 Z" fill="#5b5ea6" fill-opacity="0.8" stroke="#5b5ea6" stroke-width="4" />
<text x="732.4000000000001" y="-210" font-size="26" fill="black" dy="0em">Cas1</text>
<path d="M969.4000000000001,-200 L1070.6000000000001,-200 L1070.6000000000001,-150 L969.4000000000001,-150 L939.4000000000001,-175.0 L969.4000000000001,-200 Z" fill="#efc050" fill-opacity="0.3" stroke="#efc050" stroke-width="4" />
<text x="939.4000000000001" y="-120" font-size="26" fill="black" dy="0em">(Cas5)</text>
<path d="M1099.2,-200 L1295.2,-200 L1295.2,-150 L1099.2,-150 L1069.2,-175.0 L1099.2,-200 Z" fill="#efc050" fill-opacity="0.8" stroke="#efc050" stroke-width="4" />
<text x="1069.2" y="-210" font-size="26" fill="black" dy="0em">Cas7</text>
<path d="M1322.0,-200 L1564.2,-200 L1564.2,-150 L1322.0,-150 L1292.0,-175.0 L1322.0,-200 Z" fill="#d3c9c1" fill-opacity="0.8" stroke="#d3c9c1" stroke-width="4" />
<text x="1292.0" y="-120" font-size="20" fill="black" dy="0em">53</text>
<path d="M1581.2,-200 L2036.4,-200 L2066.4,-175.0 L2036.4,-150 L1581.2,-150 L1581.2,-200 Z" fill="#efc050" fill-opacity="0.8" stroke="#efc050" stroke-width="4" />
<text x="1581.2" y="-210" font-size="26" fill="black" dy="0em">Cas3</text>
<path d="M2066.4,-200 L2140.6,-200 L2170.6,-175.0 L2140.6,-150 L2066.4,-150 L2066.4,-200 Z" fill="#5b5ea6" fill-opacity="0.8" stroke="#5b5ea6" stroke-width="4" />
<text x="2066.4" y="-120" font-size="26" fill="black" dy="0em">Cas4</text>
<path d="M2177.8,-200 L2325.2000000000003,-200 L2355.2000000000003,-175.0 L2325.2000000000003,-150 L2177.8,-150 L2177.8,-200 Z" fill="#dd1424" fill-opacity="0.8" stroke="#dd1424" stroke-width="4" />
<text x="2177.8" y="-210" font-size="26" fill="black" dy="0em">Cas6</text>
<path d="M10.2,-200 L612.6,-200 L612.6,-150 L10.2,-150 L10.2,-200 Z" fill="white" stroke="white" stroke-width="4" />
<path d="M10.2,-200 L17.124137931034483,-200 L17.124137931034483,-150 L10.2,-150 L10.2,-200 Z" fill="black" />
<path d="M17.124137931034483,-200 L24.048275862068966,-200 L24.048275862068966,-150 L17.124137931034483,-150 L17.124137931034483,-200 Z" fill="#f0f0f0" />
<path d="M24.048275862068966,-200 L30.97241379310345,-200 L30.97241379310345,-150 L24.048275862068966,-150 L24.048275862068966,-200 Z" fill="black" />
<path d="M30.97241379310345,-200 L37.89655172413793,-200 L37.89655172413793,-150 L30.97241379310345,-150 L30.97241379310345,-200 Z" fill="#f0f0f0" />
<path d="M37.89655172413793,-200 L44.82068965517241,-200 L44.82068965517241,-150 L37.89655172413793,-150 L37.89655172413793,-200 Z" fill="black" />
<path d="M44.82068965517241,-200 L51.74482758620689,-200 L51.74482758620689,-150 L44.82068965517241,-150 L44.82068965517241,-200 Z" fill="#f0f0f0" />
<path d="M51.74482758620689,-200 L58.66896551724137,-200 L58.66896551724137,-150 L51.74482758620689,-150 L51.74482758620689,-200 Z" fill="black" />
<path d="M58.66896551724137,-200 L65.59310344827585,-200 L65.59310344827585,-150 L58.66896551724137,-150 L58.66896551724137,-200 Z" fill="#f0f0f0" />
<path d="M65.59310344827585,-200 L72.51724137931033,-200 L72.51724137931033,-150 L65.59310344827585,-150 L65.59310344827585,-200 Z" fill="black" />
<path d="M72.51724137931033,-200 L79.44137931034481,-200 L79.44137931034481,-150 L72.51724137931033,-150 L72.51724137931033,-200 Z" fill="#f0f0f0" />
<path d="M79.44137931034481,-200 L86.3655172413793,-200 L86.3655172413793,-150 L79.44137931034481,-150 L79.44137931034481,-200 Z" fill="black" />
<path d="M86.3655172413793,-200 L93.28965517241377,-200 L93.28965517241377,-150 L86.3655172413793,-150 L86.3655172413793,-200 Z" fill="#f0f0f0" />
<path d="M93.28965517241377,-200 L100.21379310344825,-200 L100.21379310344825,-150 L93.28965517241377,-150 L93.28965517241377,-200 Z" fill="black" />
<path d="M100.21379310344825,-200 L107.13793103448273,-200 L107.13793103448273,-150 L100.21379310344825,-150 L100.21379310344825,-200 Z" fill="#f0f0f0" />
<path d="M107.13793103448273,-200 L114.06206896551721,-200 L114.06206896551721,-150 L107.13793103448273,-150 L107.13793103448273,-200 Z" fill="black" />
<path d="M114.06206896551721,-200 L120.98620689655169,-200 L120.98620689655169,-150 L114.06206896551721,-150 L114.06206896551721,-200 Z" fill="#f0f0f0" />
<path d="M120.98620689655169,-200 L127.91034482758617,-200 L127.91034482758617,-150 L120.98620689655169,-150 L120.98620689655169,-200 Z" fill="black" />
<path d="M127.91034482758617,-200 L134.83448275862065,-200 L134.83448275862065,-150 L127.91034482758617,-150 L127.91034482758617,-200 Z" fill="#f0f0f0" />
<path d="M134.83448275862065,-200 L141.75862068965515,-200 L141.75862068965515,-150 L134.83448275862065,-150 L134.83448275862065,-200 Z" fill="black" />
<path d="M141.75862068965515,-200 L148.68275862068964,-200 L148.68275862068964,-150 L141.75862068965515,-150 L141.75862068965515,-200 Z" fill="#f0f0f0" />
<path d="M148.68275862068964,-200 L155.60689655172413,-200 L155.60689655172413,-150 L148.68275862068964,-150 L148.68275862068964,-200 Z" fill="black" />
<path d="M155.60689655172413,-200 L162.53103448275863,-200 L162.53103448275863,-150 L155.60689655172413,-150 L155.60689655172413,-200 Z" fill="#f0f0f0" />
<path d="M162.53103448275863,-200 L169.45517241379312,-200 L169.45517241379312,-150 L162.53103448275863,-150 L162.53103448275863,-200 Z" fill="black" />
<path d="M169.45517241379312,-200 L176.37931034482762,-200 L176.37931034482762,-150 L169.45517241379312,-150 L169.45517241379312,-200 Z" fill="#f0f0f0" />
<path d="M176.37931034482762,-200 L183.3034482758621,-200 L183.3034482758621,-150 L176.37931034482762,-150 L176.37931034482762,-200 Z" fill="black" />
<path d="M183.3034482758621,-200 L190.2275862068966,-200 L190.2275862068966,-150 L183.3034482758621,-150 L183.3034482758621,-200 Z" fill="#f0f0f0" />
<path d="M190.2275862068966,-200 L197.1517241379311,-200 L197.1517241379311,-150 L190.2275862068966,-150 L190.2275862068966,-200 Z" fill="black" />
<path d="M197.1517241379311,-200 L204.0758620689656,-200 L204.0758620689656,-150 L197.1517241379311,-150 L197.1517241379311,-200 Z" fill="#f0f0f0" />
<path d="M204.0758620689656,-200 L211.00000000000009,-200 L211.00000000000009,-150 L204.0758620689656,-150 L204.0758620689656,-200 Z" fill="black" />
<path d="M211.00000000000009,-200 L217.92413793103458,-200 L217.92413793103458,-150 L211.00000000000009,-150 L211.00000000000009,-200 Z" fill="#f0f0f0" />
<path d="M217.92413793103458,-200 L224.84827586206907,-200 L224.84827586206907,-150 L217.92413793103458,-150 L217.92413793103458,-200 Z" fill="black" />
<path d="M224.84827586206907,-200 L231.77241379310357,-200 L231.77241379310357,-150 L224.84827586206907,-150 L224.84827586206907,-200 Z" fill="#f0f0f0" />
<path d="M231.77241379310357,-200 L238.69655172413806,-200 L238.69655172413806,-150 L231.77241379310357,-150 L231.77241379310357,-200 Z" fill="black" />
<path d="M238.69655172413806,-200 L245.62068965517255,-200 L245.62068965517255,-150 L238.69655172413806,-150 L238.69655172413806,-200 Z" fill="#f0f0f0" />
<path d="M245.62068965517255,-200 L252.54482758620705,-200 L252.54482758620705,-150 L245.62068965517255,-150 L245.62068965517255,-200 Z" fill="black" />
<path d="M252.54482758620705,-200 L259.46896551724154,-200 L259.46896551724154,-150 L252.54482758620705,-150 L252.54482758620705,-200 Z" fill="#f0f0f0" />
<path d="M259.46896551724154,-200 L266.393103448276,-200 L266.393103448276,-150 L259.46896551724154,-150 L259.46896551724154,-200 Z" fill="black" />
<path d="M266.393103448276,-200 L273.3172413793105,-200 L273.3172413793105,-150 L266.393103448276,-150 L266.393103448276,-200 Z" fill="#f0f0f0" />
<path d="M273.3172413793105,-200 L280.24137931034494,-200 L280.24137931034494,-150 L273.3172413793105,-150 L273.3172413793105,-200 Z" fill="black" />
<path d="M280.24137931034494,-200 L287.1655172413794,-200 L287.1655172413794,-150 L280.24137931034494,-150 L280.24137931034494,-200 Z" fill="#f0f0f0" />
<path d="M287.1655172413794,-200 L294.08965517241387,-200 L294.08965517241387,-150 L287.1655172413794,-150 L287.1655172413794,-200 Z" fill="black" />
<path d="M294.08965517241387,-200 L301.01379310344834,-200 L301.01379310344834,-150 L294.08965517241387,-150 L294.08965517241387,-200 Z" fill="#f0f0f0" />
<path d="M301.01379310344834,-200 L307.9379310344828,-200 L307.9379310344828,-150 L301.01379310344834,-150 L301.01379310344834,-200 Z" fill="black" />
<path d="M307.9379310344828,-200 L314.86206896551727,-200 L314.86206896551727,-150 L307.9379310344828,-150 L307.9379310344828,-200 Z" fill="#f0f0f0" />
<path d="M314.86206896551727,-200 L321.78620689655173,-200 L321.78620689655173,-150 L314.86206896551727,-150 L314.86206896551727,-200 Z" fill="black" />
<path d="M321.78620689655173,-200 L328.7103448275862,-200 L328.7103448275862,-150 L321.78620689655173,-150 L321.78620689655173,-200 Z" fill="#f0f0f0" />
<path d="M328.7103448275862,-200 L335.63448275862066,-200 L335.63448275862066,-150 L328.7103448275862,-150 L328.7103448275862,-200 Z" fill="black" />
<path d="M335.63448275862066,-200 L342.55862068965513,-200 L342.55862068965513,-150 L335.63448275862066,-150 L335.63448275862066,-200 Z" fill="#f0f0f0" />
<path d="M342.55862068965513,-200 L349.4827586206896,-200 L349.4827586206896,-150 L342.55862068965513,-150 L342.55862068965513,-200 Z" fill="black" />
<path d="M349.4827586206896,-200 L356.40689655172406,-200 L356.40689655172406,-150 L349.4827586206896,-150 L349.4827586206896,-200 Z" fill="#f0f0f0" />
<path d="M356.40689655172406,-200 L363.3310344827585,-200 L363.3310344827585,-150 L356.40689655172406,-150 L356.40689655172406,-200 Z" fill="black" />
<path d="M363.3310344827585,-200 L370.255172413793,-200 L370.255172413793,-150 L363.3310344827585,-150 L363.3310344827585,-200 Z" fill="#f0f0f0" />
<path d="M370.255172413793,-200 L377.17931034482746,-200 L377.17931034482746,-150 L370.255172413793,-150 L370.255172413793,-200 Z" fill="black" />
<path d="M377.17931034482746,-200 L384.1034482758619,-200 L384.1034482758619,-150 L377.17931034482746,-150 L377.17931034482746,-200 Z" fill="#f0f0f0" />
<path d="M384.1034482758619,-200 L391.0275862068964,-200 L391.0275862068964,-150 L384.1034482758619,-150 L384.1034482758619,-200 Z" fill="black" />
<path d="M391.0275862068964,-200 L397.95172413793085,-200 L397.95172413793085,-150 L391.0275862068964,-150 L391.0275862068964,-200 Z" fill="#f0f0f0" />
<path d="M397.95172413793085,-200 L404.8758620689653,-200 L404.8758620689653,-150 L397.95172413793085,-150 L397.95172413793085,-200 Z" fill="black" />
<path d="M404.8758620689653,-200 L411.7999999999998,-200 L411.7999999999998,-150 L404.8758620689653,-150 L404.8758620689653,-200 Z" fill="#f0f0f0" />
<path d="M411.7999999999998,-200 L418.72413793103425,-200 L418.72413793103425,-150 L411.7999999999998,-150 L411.7999999999998,-200 Z" fill="black" />
<path d="M418.72413793103425,-200 L425.6482758620687,-200 L425.6482758620687,-150 L418.72413793103425,-150 L418.72413793103425,-200 Z" fill="#f0f0f0" />
<path d="M425.6482758620687,-200 L432.5724137931032,-200 L432.5724137931032,-150 L425.6482758620687,-150 L425.6482758620687,-200 Z" fill="black" />
<path d="M432.5724137931032,-200 L439.49655172413765,-200 L439.49655172413765,-150 L432.5724137931032,-150 L432.5724137931032,-200 Z" fill="#f0f0f0" />
<path d="M439.49655172413765,-200 L446.4206896551721,-200 L446.4206896551721,-150 L439.49655172413765,-150 L439.49655172413765,-200 Z" fill="black" />
<path d="M446.4206896551721,-200 L453.3448275862066,-200 L453.3448275862066,-150 L446.4206896551721,-150 L446.4206896551721,-200 Z" fill="#f0f0f0" />
<path d="M453.3448275862066,-200 L460.26896551724104,-200 L460.26896551724104,-150 L453.3448275862066,-150 L453.3448275862066,-200 Z" fill="black" />
<path d="M460.26896551724104,-200 L467.1931034482755,-200 L467.1931034482755,-150 L460.26896551724104,-150 L460.26896551724104,-200 Z" fill="#f0f0f0" />
<path d="M467.1931034482755,-200 L474.11724137931,-200 L474.11724137931,-150 L467.1931034482755,-150 L467.1931034482755,-200 Z" fill="black" />
<path d="M474.11724137931,-200 L481.04137931034444,-200 L481.04137931034444,-150 L474.11724137931,-150 L474.11724137931,-200 Z" fill="#f0f0f0" />
<path d="M481.04137931034444,-200 L487.9655172413789,-200 L487.9655172413789,-150 L481.04137931034444,-150 L481.04137931034444,-200 Z" fill="black" />
<path d="M487.9655172413789,-200 L494.88965517241337,-200 L494.88965517241337,-150 L487.9655172413789,-150 L487.9655172413789,-200 Z" fill="#f0f0f0" />
<path d="M494.88965517241337,-200 L501.81379310344784,-200 L501.81379310344784,-150 L494.88965517241337,-150 L494.88965517241337,-200 Z" fill="black" />
<path d="M501.81379310344784,-200 L508.7379310344823,-200 L508.7379310344823,-150 L501.81379310344784,-150 L501.81379310344784,-200 Z" fill="#f0f0f0" />
<path d="M508.7379310344823,-200 L515.6620689655168,-200 L515.6620689655168,-150 L508.7379310344823,-150 L508.7379310344823,-200 Z" fill="black" />
<path d="M515.6620689655168,-200 L522.5862068965513,-200 L522.5862068965513,-150 L515.6620689655168,-150 L515.6620689655168,-200 Z" fill="#f0f0f0" />
<path d="M522.5862068965513,-200 L529.5103448275858,-200 L529.5103448275858,-150 L522.5862068965513,-150 L522.5862068965513,-200 Z" fill="black" />
<path d="M529.5103448275858,-200 L536.4344827586202,-200 L536.4344827586202,-150 L529.5103448275858,-150 L529.5103448275858,-200 Z" fill="#f0f0f0" />
<path d="M536.4344827586202,-200 L543.3586206896547,-200 L543.3586206896547,-150 L536.4344827586202,-150 L536.4344827586202,-200 Z" fill="black" />
<path d="M543.3586206896547,-200 L550.2827586206892,-200 L550.2827586206892,-150 L543.3586206896547,-150 L543.3586206896547,-200 Z" fill="#f0f0f0" />
<path d="M550.2827586206892,-200 L557.2068965517236,-200 L557.2068965517236,-150 L550.2827586206892,-150 L550.2827586206892,-200 Z" fill="black" />
<path d="M557.2068965517236,-200 L564.1310344827581,-200 L564.1310344827581,-150 L557.2068965517236,-150 L557.2068965517236,-200 Z" fill="#f0f0f0" />
<path d="M564.1310344827581,-200 L571.0551724137925,-200 L571.0551724137925,-150 L564.1310344827581,-150 L564.1310344827581,-200 Z" fill="black" />
<path d="M571.0551724137925,-200 L577.979310344827,-200 L577.979310344827,-150 L571.0551724137925,-150 L571.0551724137925,-200 Z" fill="#f0f0f0" />
<path d="M577.979310344827,-200 L584.9034482758615,-200 L584.9034482758615,-150 L577.979310344827,-150 L577.979310344827,-200 Z" fill="black" />
<path d="M584.9034482758615,-200 L591.827586206896,-200 L591.827586206896,-150 L584.9034482758615,-150 L584.9034482758615,-200 Z" fill="#f0f0f0" />
<path d="M591.827586206896,-200 L598.7517241379304,-200 L598.7517241379304,-150 L591.827586206896,-150 L591.827586206896,-200 Z" fill="black" />
<path d="M598.7517241379304,-200 L605.6758620689649,-200 L605.6758620689649,-150 L598.7517241379304,-150 L598.7517241379304,-200 Z" fill="#f0f0f0" />
<path d="M605.6758620689649,-200 L612.5999999999993,-200 L612.5999999999993,-150 L605.6758620689649,-150 L605.6758620689649,-200 Z" fill="black" />
<text x="10.2" y="-210" font-size="26" fill="black" dy="0em">CRISPR</text>
</svg>